<?xml version="1.0" standalone="no"?>
 <!DOCTYPE svg PUBLIC "-//W3C//DTD SVG 1.1//EN" 
 "http://www.w3.org/Graphics/SVG/1.1/DTD/svg11.dtd"> 
<svg xmlns="http://www.w3.org/2000/svg" version="1.1" 
    width="29.7002cm" height="21.0007cm" viewBox="0 0 116930 82680 ">
<title>SVG Picture created as OTP-F.Mask.svg date 2019/02/27 17:44:32 </title>
  <desc>Picture generated by PCBNEW </desc>
<g style="fill:#000000; fill-opacity:1;stroke:#000000; stroke-opacity:1;
stroke-linecap:round; stroke-linejoin:round; "
 transform="translate(0 0) scale(1 1)">
</g>
<g style="fill:#000000; fill-opacity:0.0; 
stroke:#000000; stroke-width:-0.000393701; stroke-opacity:1; 
stroke-linecap:round; stroke-linejoin:round;">
</g>
<g style="fill:#000000; fill-opacity:1.0; 
stroke:#000000; stroke-width:39.3701; stroke-opacity:1; 
stroke-linecap:round; stroke-linejoin:round;">
<rect x="53149.6" y="16535.4" width="35039.4" height="20078.7" rx="0" />
</g>
<g style="fill:#FFFFFF; fill-opacity:1.0; 
stroke:#FFFFFF; stroke-width:39.3701; stroke-opacity:1; 
stroke-linecap:round; stroke-linejoin:round;">
</g>
<g style="fill:#FFFFFF; fill-opacity:0.0; 
stroke:#FFFFFF; stroke-width:393.701; stroke-opacity:1; 
stroke-linecap:round; stroke-linejoin:round;">
<circle cx="63385.8" cy="21000" r="196.85" /> 
</g>
<g style="fill:#FFFFFF; fill-opacity:0.0; 
stroke:#FFFFFF; stroke-width:196.85; stroke-opacity:1; 
stroke-linecap:round; stroke-linejoin:round;">
<path d="M84418 29106
L84418 29893
" />
<path d="M84812 29500
L84025 29500
" />
<path d="M70866 26377
L70866 27165
" />
<path d="M70472 26771
L71259 26771
" />
</g>
<g style="fill:#FFFFFF; fill-opacity:1.0; 
stroke:#FFFFFF; stroke-width:0; stroke-opacity:1; 
stroke-linecap:round; stroke-linejoin:round;">
<polyline style="fill-rule:evenodd;"
points="70321,34002
70350,34013
70375,34031
70397,34053
70415,34078
70427,34107
70433,34138
70433,34169
70427,34199
70415,34228
70397,34253
70375,34275
70350,34293
70321,34304
70291,34311
70260,34311
70229,34304
70200,34293
70175,34275
70153,34253
70136,34228
70124,34199
70118,34169
70118,34138
70124,34107
70136,34078
70153,34053
70175,34031
70200,34013
70229,34002
70260,33996
70291,33996
70321,34002
" /> 
<polyline style="fill-rule:evenodd;"
points="72331,34170
72016,34170
72016,33816
72331,33816
72331,34170
" /> 
<polyline style="fill-rule:evenodd;"
points="71583,34170
71268,34170
71268,33816
71583,33816
71583,34170
" /> 
<polyline style="fill-rule:evenodd;"
points="65080,33259
65094,33263
65106,33269
65116,33278
65125,33289
65132,33301
65136,33314
65137,33330
65137,33637
65136,33653
65132,33666
65125,33679
65116,33689
65106,33698
65094,33705
65080,33709
65064,33710
64659,33710
64643,33709
64630,33705
64618,33698
64607,33689
64598,33679
64592,33666
64588,33653
64586,33637
64586,33330
64588,33314
64592,33301
64598,33289
64607,33278
64618,33269
64630,33263
64643,33259
64659,33257
65064,33257
65080,33259
" /> 
<polyline style="fill-rule:evenodd;"
points="66283,33531
65929,33531
65929,33216
66283,33216
66283,33531
" /> 
<polyline style="fill-rule:evenodd;"
points="71957,33383
71642,33383
71642,33029
71957,33029
71957,33383
" /> 
<polyline style="fill-rule:evenodd;"
points="67070,33157
66716,33157
66716,32842
67070,32842
67070,33157
" /> 
<polyline style="fill-rule:evenodd;"
points="67664,32821
67692,32832
67692,32832
67713,32846
67718,32850
67740,32872
67740,32872
67740,32872
67753,32891
67757,32897
67769,32926
67775,32956
67775,32987
67769,33018
67757,33047
67740,33072
67718,33094
67692,33111
67664,33123
67633,33129
67602,33129
67572,33123
67543,33111
67517,33094
67495,33072
67478,33047
67466,33018
67460,32987
67460,32956
67466,32926
67478,32897
67482,32891
67495,32872
67495,32872
67495,32872
67517,32850
67522,32846
67543,32832
67543,32832
67572,32821
67602,32814
67633,32814
67664,32821
" /> 
<polyline style="fill-rule:evenodd;"
points="69041,32624
69070,32636
69096,32653
69118,32675
69135,32700
69147,32729
69153,32760
69153,32791
69147,32821
69135,32850
69135,32850
69119,32874
69118,32875
69096,32897
69096,32897
69096,32897
69070,32915
69070,32915
69043,32926
69041,32927
69011,32933
68980,32933
68950,32927
68948,32926
68921,32915
68921,32915
68895,32897
68895,32897
68895,32897
68873,32875
68872,32874
68856,32850
68856,32850
68844,32821
68838,32791
68838,32760
68844,32729
68856,32700
68873,32675
68895,32653
68921,32636
68950,32624
68980,32618
69011,32618
69041,32624
" /> 
<polyline style="fill-rule:evenodd;"
points="65080,32452
65094,32456
65106,32462
65116,32471
65125,32482
65132,32494
65136,32507
65137,32523
65137,32830
65136,32846
65132,32859
65125,32872
65116,32882
65106,32891
65094,32897
65080,32901
65064,32903
64659,32903
64643,32901
64630,32897
64618,32891
64607,32882
64598,32872
64592,32859
64588,32846
64586,32830
64586,32523
64588,32507
64592,32494
64598,32482
64607,32471
64618,32462
64630,32456
64643,32452
64659,32450
65064,32450
65080,32452
" /> 
<polyline style="fill-rule:evenodd;"
points="66283,32783
65929,32783
65929,32468
66283,32468
66283,32783
" /> 
<polyline style="fill-rule:evenodd;"
points="62374,31812
62387,31816
62399,31823
62410,31831
62419,31842
62425,31854
62429,31867
62431,31884
62431,32289
62429,32305
62425,32318
62419,32330
62410,32341
62399,32350
62387,32356
62374,32360
62358,32362
62051,32362
62035,32360
62022,32356
62009,32350
61999,32341
61990,32330
61983,32318
61979,32305
61978,32289
61978,31884
61979,31867
61983,31854
61990,31842
61999,31831
62009,31823
62022,31816
62035,31812
62051,31811
62358,31811
62374,31812
" /> 
<polyline style="fill-rule:evenodd;"
points="61567,31812
61580,31816
61592,31823
61603,31831
61611,31842
61618,31854
61622,31867
61624,31884
61624,32289
61622,32305
61618,32318
61611,32330
61603,32341
61592,32350
61580,32356
61567,32360
61550,32362
61244,32362
61228,32360
61214,32356
61202,32350
61192,32341
61183,32330
61176,32318
61172,32305
61171,32289
61171,31884
61172,31867
61176,31854
61183,31842
61192,31831
61202,31823
61214,31816
61228,31812
61244,31811
61550,31811
61567,31812
" /> 
<polyline style="fill-rule:evenodd;"
points="63431,31738
63460,31750
63486,31767
63508,31789
63508,31789
63508,31789
63523,31812
63525,31815
63537,31843
63543,31874
63543,31905
63537,31935
63525,31964
63508,31990
63486,32012
63460,32029
63431,32041
63401,32047
63370,32047
63339,32041
63311,32029
63285,32012
63263,31990
63246,31964
63234,31935
63228,31905
63228,31874
63234,31843
63246,31815
63247,31812
63263,31789
63263,31789
63263,31789
63285,31767
63311,31750
63339,31738
63370,31732
63401,31732
63431,31738
" /> 
<polyline style="fill-rule:evenodd;"
points="57736,31826
57263,31826
57263,31472
57736,31472
57736,31826
" /> 
<polyline style="fill-rule:evenodd;"
points="59685,31791
59212,31791
59212,31437
59685,31437
59685,31791
" /> 
<polyline style="fill-rule:evenodd;"
points="58700,31791
58228,31791
58228,31437
58700,31437
58700,31791
" /> 
<polyline style="fill-rule:evenodd;"
points="68218,31182
68231,31186
68244,31192
68254,31201
68263,31212
68269,31224
68274,31237
68275,31253
68275,31560
68274,31576
68269,31589
68263,31601
68254,31612
68244,31621
68231,31627
68218,31631
68202,31633
67797,31633
67781,31631
67768,31627
67755,31621
67745,31612
67736,31601
67730,31589
67725,31576
67724,31560
67724,31253
67725,31237
67730,31224
67736,31212
67745,31201
67755,31192
67768,31186
67781,31182
67797,31180
68202,31180
68218,31182
" /> 
<polyline style="fill-rule:evenodd;"
points="69718,31182
69731,31186
69744,31192
69754,31201
69763,31212
69769,31224
69774,31237
69775,31253
69775,31560
69774,31576
69769,31589
69763,31601
69754,31612
69744,31621
69731,31627
69718,31631
69702,31633
69297,31633
69281,31631
69268,31627
69255,31621
69245,31612
69236,31601
69230,31589
69225,31576
69224,31560
69224,31253
69225,31237
69230,31224
69236,31212
69245,31201
69255,31192
69268,31186
69281,31182
69297,31180
69702,31180
69718,31182
" /> 
<polyline style="fill-rule:evenodd;"
points="63590,31082
62409,31082
62409,28917
63590,28917
63590,31082
" /> 
<polyline style="fill-rule:evenodd;"
points="65440,31082
64259,31082
64259,28917
65440,28917
65440,31082
" /> 
<polyline style="fill-rule:evenodd;"
points="66089,30655
66117,30667
66143,30684
66165,30706
66182,30732
66191,30753
66194,30761
66199,30782
66200,30791
66200,30822
66194,30853
66182,30881
66165,30907
66143,30929
66117,30946
66089,30958
66058,30964
66027,30964
65997,30958
65968,30946
65942,30929
65920,30907
65903,30881
65891,30853
65885,30822
65885,30791
65887,30782
65891,30761
65895,30753
65903,30732
65920,30706
65942,30684
65968,30667
65997,30655
66027,30649
66058,30649
66089,30655
" /> 
<polyline style="fill-rule:evenodd;"
points="68218,30375
68231,30379
68244,30385
68254,30394
68263,30405
68269,30417
68274,30430
68275,30446
68275,30753
68274,30769
68269,30782
68263,30794
68254,30805
68244,30814
68231,30820
68218,30824
68202,30826
67797,30826
67781,30824
67768,30820
67755,30814
67745,30805
67736,30794
67730,30782
67725,30769
67724,30753
67724,30446
67725,30430
67730,30417
67736,30405
67745,30394
67755,30385
67768,30379
67781,30375
67797,30373
68202,30373
68218,30375
" /> 
<polyline style="fill-rule:evenodd;"
points="69718,30375
69731,30379
69744,30385
69754,30394
69763,30405
69769,30417
69774,30430
69775,30446
69775,30753
69774,30769
69769,30782
69763,30794
69754,30805
69744,30814
69731,30820
69718,30824
69702,30826
69297,30826
69281,30824
69268,30820
69255,30814
69245,30805
69236,30794
69230,30782
69225,30769
69224,30753
69224,30446
69225,30430
69230,30417
69236,30405
69245,30394
69255,30385
69268,30379
69281,30375
69297,30373
69702,30373
69718,30375
" /> 
<polyline style="fill-rule:evenodd;"
points="57736,30527
57263,30527
57263,30173
57736,30173
57736,30527
" /> 
<polyline style="fill-rule:evenodd;"
points="58700,30492
58228,30492
58228,30137
58700,30137
58700,30492
" /> 
<polyline style="fill-rule:evenodd;"
points="59685,30492
59212,30492
59212,30137
59685,30137
59685,30492
" /> 
<polyline style="fill-rule:evenodd;"
points="85668,29207
85687,29211
85742,29234
85791,29266
85833,29308
85833,29308
85865,29357
85888,29412
85892,29431
85900,29470
85900,29529
85888,29587
85865,29642
85833,29691
85791,29733
85791,29733
85742,29765
85687,29788
85668,29792
85629,29800
85570,29800
85531,29792
85512,29788
85457,29765
85408,29733
85408,29733
85366,29691
85334,29642
85311,29587
85300,29529
85300,29470
85307,29431
85311,29412
85334,29357
85366,29308
85366,29308
85408,29266
85457,29234
85512,29211
85531,29207
85570,29200
85629,29200
85668,29207
" /> 
<polyline style="fill-rule:evenodd;"
points="61242,29322
61255,29326
61267,29332
61278,29341
61287,29352
61293,29364
61297,29377
61299,29393
61299,29700
61297,29716
61293,29729
61287,29742
61278,29752
61267,29761
61255,29768
61242,29772
61226,29773
60821,29773
60804,29772
60791,29768
60779,29761
60768,29752
60760,29742
60753,29729
60749,29716
60748,29700
60748,29393
60749,29377
60753,29364
60760,29352
60768,29341
60779,29332
60791,29326
60804,29322
60821,29320
61226,29320
61242,29322
" /> 
<polyline style="fill-rule:evenodd;"
points="70934,28841
70953,28845
71008,28868
71057,28900
71099,28942
71099,28942
71131,28991
71154,29046
71166,29104
71166,29163
71156,29211
71154,29221
71131,29275
71099,29325
71057,29366
71057,29366
71008,29399
70953,29422
70934,29426
70895,29433
70836,29433
70797,29426
70778,29422
70724,29399
70674,29366
70674,29366
70633,29325
70600,29275
70577,29221
70575,29211
70566,29163
70566,29104
70577,29046
70600,28991
70633,28942
70633,28942
70674,28900
70724,28868
70778,28845
70797,28841
70836,28833
70895,28833
70934,28841
" /> 
<polyline style="fill-rule:evenodd;"
points="78808,28841
78827,28845
78882,28868
78931,28900
78973,28942
78973,28942
79006,28991
79028,29046
79040,29104
79040,29163
79030,29211
79028,29221
79006,29275
78973,29325
78931,29366
78931,29366
78882,29399
78827,29422
78808,29426
78769,29433
78710,29433
78671,29426
78652,29422
78598,29399
78548,29366
78548,29366
78507,29325
78474,29275
78451,29221
78449,29211
78440,29163
78440,29104
78451,29046
78474,28991
78507,28942
78507,28942
78548,28900
78598,28868
78652,28845
78671,28841
78710,28833
78769,28833
78808,28841
" /> 
<polyline style="fill-rule:evenodd;"
points="76522,29080
76550,29092
76550,29092
76568,29104
76576,29109
76598,29131
76615,29157
76627,29186
76633,29216
76633,29247
76627,29278
76615,29306
76615,29306
76605,29322
76598,29332
76576,29354
76576,29354
76576,29354
76558,29366
76550,29371
76527,29381
76522,29383
76491,29389
76460,29389
76430,29383
76425,29381
76401,29371
76394,29366
76375,29354
76375,29354
76375,29354
76354,29332
76347,29322
76336,29306
76336,29306
76324,29278
76318,29247
76318,29216
76324,29186
76336,29157
76354,29131
76375,29109
76384,29104
76401,29092
76401,29092
76430,29080
76460,29074
76491,29074
76522,29080
" /> 
<polyline style="fill-rule:evenodd;"
points="61242,28515
61255,28519
61267,28525
61278,28534
61287,28545
61293,28557
61297,28570
61299,28586
61299,28893
61297,28909
61293,28922
61287,28935
61278,28945
61267,28954
61255,28960
61242,28964
61226,28966
60821,28966
60804,28964
60791,28960
60779,28954
60768,28945
60760,28935
60753,28922
60749,28909
60748,28893
60748,28586
60749,28570
60753,28557
60760,28545
60768,28534
60779,28525
60791,28519
60804,28515
60821,28513
61226,28513
61242,28515
" /> 
<polyline style="fill-rule:evenodd;"
points="82145,27948
82174,27960
82200,27977
82222,27999
82239,28025
82251,28054
82257,28084
82257,28115
82251,28145
82239,28174
82222,28200
82200,28222
82174,28239
82145,28251
82115,28257
82084,28257
82054,28251
82025,28239
81999,28222
81977,28200
81960,28174
81948,28145
81942,28115
81942,28084
81948,28054
81960,28025
81977,27999
81999,27977
82025,27960
82054,27948
82084,27942
82115,27942
82145,27948
" /> 
<polyline style="fill-rule:evenodd;"
points="64612,27112
64641,27124
64667,27141
64689,27163
64706,27189
64718,27217
64724,27248
64724,27279
64718,27309
64706,27338
64689,27364
64667,27386
64641,27403
64612,27415
64582,27421
64551,27421
64520,27415
64492,27403
64466,27386
64444,27364
64427,27338
64415,27309
64409,27279
64409,27248
64415,27217
64427,27189
64444,27163
64466,27141
64492,27124
64520,27112
64551,27106
64582,27106
64612,27112
" /> 
<polyline style="fill-rule:evenodd;"
points="85668,26058
85687,26061
85742,26084
85791,26117
85833,26159
85833,26159
85865,26208
85883,26250
85888,26262
85900,26320
85900,26379
85888,26437
85865,26492
85833,26541
85791,26583
85791,26583
85742,26616
85687,26638
85668,26642
85629,26650
85570,26650
85531,26642
85512,26638
85457,26616
85408,26583
85408,26583
85366,26541
85334,26492
85311,26437
85300,26379
85300,26320
85311,26262
85316,26250
85334,26208
85366,26159
85366,26159
85408,26117
85457,26084
85512,26061
85531,26058
85570,26050
85629,26050
85668,26058
" /> 
<polyline style="fill-rule:evenodd;"
points="63998,26182
64011,26186
64023,26192
64034,26201
64043,26212
64049,26224
64053,26237
64055,26253
64055,26560
64053,26576
64049,26589
64043,26601
64034,26612
64023,26621
64011,26627
63998,26631
63982,26633
63576,26633
63560,26631
63547,26627
63535,26621
63524,26612
63516,26601
63509,26589
63505,26576
63503,26560
63503,26253
63505,26237
63509,26224
63516,26212
63524,26201
63535,26192
63547,26186
63560,26182
63576,26180
63982,26180
63998,26182
" /> 
<polyline style="fill-rule:evenodd;"
points="55927,26178
55940,26182
55952,26189
55963,26198
55972,26208
55978,26220
55982,26234
55984,26250
55984,26556
55982,26573
55978,26586
55972,26598
55963,26609
55952,26617
55940,26624
55927,26628
55911,26629
55506,26629
55489,26628
55476,26624
55464,26617
55453,26609
55445,26598
55438,26586
55434,26573
55433,26556
55433,26250
55434,26234
55438,26220
55445,26208
55453,26198
55464,26189
55476,26182
55489,26178
55506,26177
55911,26177
55927,26178
" /> 
<polyline style="fill-rule:evenodd;"
points="64884,26178
64897,26182
64909,26189
64920,26198
64928,26208
64935,26220
64939,26234
64940,26250
64940,26556
64939,26573
64935,26586
64928,26598
64920,26609
64909,26617
64897,26624
64884,26628
64867,26629
64462,26629
64446,26628
64433,26624
64421,26617
64410,26609
64401,26598
64395,26586
64391,26573
64389,26556
64389,26250
64391,26234
64395,26220
64401,26208
64410,26198
64421,26189
64433,26182
64446,26178
64462,26177
64867,26177
64884,26178
" /> 
<polyline style="fill-rule:evenodd;"
points="62620,26172
62633,26176
62645,26183
62656,26192
62665,26202
62671,26214
62675,26228
62677,26244
62677,26550
62675,26567
62671,26580
62665,26592
62656,26603
62645,26611
62633,26618
62620,26622
62604,26624
62199,26624
62182,26622
62169,26618
62157,26611
62146,26603
62138,26592
62131,26580
62127,26567
62125,26550
62125,26244
62127,26228
62131,26214
62138,26202
62146,26192
62157,26183
62169,26176
62182,26172
62199,26171
62604,26171
62620,26172
" /> 
<polyline style="fill-rule:evenodd;"
points="59667,26172
59680,26176
59692,26183
59703,26192
59712,26202
59718,26214
59722,26228
59724,26244
59724,26550
59722,26567
59718,26580
59712,26592
59703,26603
59692,26611
59680,26618
59667,26622
59651,26624
59246,26624
59230,26622
59216,26618
59204,26611
59194,26603
59185,26592
59178,26580
59174,26567
59173,26550
59173,26244
59174,26228
59178,26214
59185,26202
59194,26192
59204,26183
59216,26176
59230,26172
59246,26171
59651,26171
59667,26172
" /> 
<polyline style="fill-rule:evenodd;"
points="58191,26172
58204,26176
58216,26183
58227,26192
58235,26202
58242,26214
58246,26228
58248,26244
58248,26550
58246,26567
58242,26580
58235,26592
58227,26603
58216,26611
58204,26618
58191,26622
58175,26624
57769,26624
57753,26622
57740,26618
57728,26611
57717,26603
57708,26592
57702,26580
57698,26567
57696,26550
57696,26244
57698,26228
57702,26214
57708,26202
57717,26192
57728,26183
57740,26176
57753,26172
57769,26171
58175,26171
58191,26172
" /> 
<polyline style="fill-rule:evenodd;"
points="60651,26172
60664,26176
60677,26183
60687,26192
60696,26202
60703,26214
60707,26228
60708,26244
60708,26550
60707,26567
60703,26580
60696,26592
60687,26603
60677,26611
60664,26618
60651,26622
60635,26624
60230,26624
60214,26622
60201,26618
60188,26611
60178,26603
60169,26592
60163,26580
60159,26567
60157,26550
60157,26244
60159,26228
60163,26214
60169,26202
60178,26192
60188,26183
60201,26176
60214,26172
60230,26171
60635,26171
60651,26172
" /> 
<polyline style="fill-rule:evenodd;"
points="56911,26172
56924,26176
56936,26183
56947,26192
56956,26202
56962,26214
56966,26228
56968,26244
56968,26550
56966,26567
56962,26580
56956,26592
56947,26603
56936,26611
56924,26618
56911,26622
56895,26624
56490,26624
56474,26622
56461,26618
56448,26611
56438,26603
56429,26592
56422,26580
56418,26567
56417,26550
56417,26244
56418,26228
56422,26214
56429,26202
56438,26192
56448,26183
56461,26176
56474,26172
56490,26171
56895,26171
56911,26172
" /> 
<polyline style="fill-rule:evenodd;"
points="61636,26153
61649,26157
61661,26163
61672,26172
61680,26183
61687,26195
61691,26208
61692,26224
61692,26531
61691,26547
61687,26560
61680,26572
61672,26583
61661,26592
61649,26598
61636,26602
61619,26604
61214,26604
61198,26602
61185,26598
61173,26592
61162,26583
61153,26572
61147,26560
61143,26547
61141,26531
61141,26224
61143,26208
61147,26195
61153,26183
61162,26172
61173,26163
61185,26157
61198,26153
61214,26151
61619,26151
61636,26153
" /> 
<polyline style="fill-rule:evenodd;"
points="63998,25375
64011,25379
64023,25385
64034,25394
64043,25405
64049,25417
64053,25430
64055,25446
64055,25753
64053,25769
64049,25782
64043,25794
64034,25805
64023,25814
64011,25820
63998,25824
63982,25826
63576,25826
63560,25824
63547,25820
63535,25814
63524,25805
63516,25794
63509,25782
63505,25769
63503,25753
63503,25446
63505,25430
63509,25417
63516,25405
63524,25394
63535,25385
63547,25379
63560,25375
63576,25373
63982,25373
63998,25375
" /> 
<polyline style="fill-rule:evenodd;"
points="64884,25371
64897,25375
64909,25382
64920,25390
64928,25401
64935,25413
64939,25426
64940,25443
64940,25749
64939,25765
64935,25779
64928,25791
64920,25801
64909,25810
64897,25817
64884,25821
64867,25822
64462,25822
64446,25821
64433,25817
64421,25810
64410,25801
64401,25791
64395,25779
64391,25765
64389,25749
64389,25443
64391,25426
64395,25413
64401,25401
64410,25390
64421,25382
64433,25375
64446,25371
64462,25370
64867,25370
64884,25371
" /> 
<polyline style="fill-rule:evenodd;"
points="55927,25371
55940,25375
55952,25382
55963,25390
55972,25401
55978,25413
55982,25426
55984,25443
55984,25749
55982,25765
55978,25779
55972,25791
55963,25801
55952,25810
55940,25817
55927,25821
55911,25822
55506,25822
55489,25821
55476,25817
55464,25810
55453,25801
55445,25791
55438,25779
55434,25765
55433,25749
55433,25443
55434,25426
55438,25413
55445,25401
55453,25390
55464,25382
55476,25375
55489,25371
55506,25370
55911,25370
55927,25371
" /> 
<polyline style="fill-rule:evenodd;"
points="60651,25365
60664,25369
60677,25376
60687,25385
60696,25395
60703,25407
60707,25421
60708,25437
60708,25743
60707,25760
60703,25773
60696,25785
60687,25796
60677,25804
60664,25811
60651,25815
60635,25816
60230,25816
60214,25815
60201,25811
60188,25804
60178,25796
60169,25785
60163,25773
60159,25760
60157,25743
60157,25437
60159,25421
60163,25407
60169,25395
60178,25385
60188,25376
60201,25369
60214,25365
60230,25364
60635,25364
60651,25365
" /> 
<polyline style="fill-rule:evenodd;"
points="56911,25365
56924,25369
56936,25376
56947,25385
56956,25395
56962,25407
56966,25421
56968,25437
56968,25743
56966,25760
56962,25773
56956,25785
56947,25796
56936,25804
56924,25811
56911,25815
56895,25816
56490,25816
56474,25815
56461,25811
56448,25804
56438,25796
56429,25785
56422,25773
56418,25760
56417,25743
56417,25437
56418,25421
56422,25407
56429,25395
56438,25385
56448,25376
56461,25369
56474,25365
56490,25364
56895,25364
56911,25365
" /> 
<polyline style="fill-rule:evenodd;"
points="59667,25365
59680,25369
59692,25376
59703,25385
59712,25395
59718,25407
59722,25421
59724,25437
59724,25743
59722,25760
59718,25773
59712,25785
59703,25796
59692,25804
59680,25811
59667,25815
59651,25816
59246,25816
59230,25815
59216,25811
59204,25804
59194,25796
59185,25785
59178,25773
59174,25760
59173,25743
59173,25437
59174,25421
59178,25407
59185,25395
59194,25385
59204,25376
59216,25369
59230,25365
59246,25364
59651,25364
59667,25365
" /> 
<polyline style="fill-rule:evenodd;"
points="62620,25365
62633,25369
62645,25376
62656,25385
62665,25395
62671,25407
62675,25421
62677,25437
62677,25743
62675,25760
62671,25773
62665,25785
62656,25796
62645,25804
62633,25811
62620,25815
62604,25816
62199,25816
62182,25815
62169,25811
62157,25804
62146,25796
62138,25785
62131,25773
62127,25760
62125,25743
62125,25437
62127,25421
62131,25407
62138,25395
62146,25385
62157,25376
62169,25369
62182,25365
62199,25364
62604,25364
62620,25365
" /> 
<polyline style="fill-rule:evenodd;"
points="58191,25365
58204,25369
58216,25376
58227,25385
58235,25395
58242,25407
58246,25421
58248,25437
58248,25743
58246,25760
58242,25773
58235,25785
58227,25796
58216,25804
58204,25811
58191,25815
58175,25816
57769,25816
57753,25815
57740,25811
57728,25804
57717,25796
57708,25785
57702,25773
57698,25760
57696,25743
57696,25437
57698,25421
57702,25407
57708,25395
57717,25385
57728,25376
57740,25369
57753,25365
57769,25364
58175,25364
58191,25365
" /> 
<polyline style="fill-rule:evenodd;"
points="61636,25346
61649,25350
61661,25356
61672,25365
61680,25376
61687,25388
61691,25401
61692,25417
61692,25724
61691,25740
61687,25753
61680,25765
61672,25776
61661,25785
61649,25791
61636,25795
61619,25797
61214,25797
61198,25795
61185,25791
61173,25785
61162,25776
61153,25765
61147,25753
61143,25740
61141,25724
61141,25417
61143,25401
61147,25388
61153,25376
61162,25365
61173,25356
61185,25350
61198,25346
61214,25344
61619,25344
61636,25346
" /> 
<polyline style="fill-rule:evenodd;"
points="68918,24625
68681,24625
68681,24035
68918,24035
68918,24625
" /> 
<polyline style="fill-rule:evenodd;"
points="70418,24625
70181,24625
70181,24035
70418,24035
70418,24625
" /> 
<polyline style="fill-rule:evenodd;"
points="69418,24625
69181,24625
69181,24035
69418,24035
69418,24625
" /> 
<polyline style="fill-rule:evenodd;"
points="68418,24625
68181,24625
68181,24035
68418,24035
68418,24625
" /> 
<polyline style="fill-rule:evenodd;"
points="67918,24625
67681,24625
67681,24035
67918,24035
67918,24625
" /> 
<polyline style="fill-rule:evenodd;"
points="67418,24625
67181,24625
67181,24035
67418,24035
67418,24625
" /> 
<polyline style="fill-rule:evenodd;"
points="66918,24625
66681,24625
66681,24035
66918,24035
66918,24625
" /> 
<polyline style="fill-rule:evenodd;"
points="69918,24625
69681,24625
69681,24035
69918,24035
69918,24625
" /> 
<polyline style="fill-rule:evenodd;"
points="72814,24314
72185,24314
72185,23685
72814,23685
72814,24314
" /> 
<polyline style="fill-rule:evenodd;"
points="78546,23688
78561,23689
78591,23698
78621,23707
78675,23736
78723,23776
78763,23824
78792,23878
78810,23938
78816,24000
78810,24061
78792,24121
78763,24175
78723,24223
78675,24263
78621,24292
78591,24301
78561,24310
78546,24311
78515,24314
78484,24314
78453,24311
78438,24310
78408,24301
78378,24292
78324,24263
78276,24223
78236,24175
78207,24121
78189,24061
78183,24000
78189,23938
78207,23878
78236,23824
78276,23776
78324,23736
78378,23707
78408,23698
78438,23689
78453,23688
78484,23685
78515,23685
78546,23688
" /> 
<polyline style="fill-rule:evenodd;"
points="77546,23688
77561,23689
77591,23698
77621,23707
77675,23736
77723,23776
77763,23824
77792,23878
77810,23938
77816,24000
77810,24061
77792,24121
77763,24175
77723,24223
77675,24263
77621,24292
77591,24301
77561,24310
77546,24311
77515,24314
77484,24314
77453,24311
77438,24310
77408,24301
77378,24292
77324,24263
77276,24223
77236,24175
77207,24121
77189,24061
77183,24000
77189,23938
77207,23878
77236,23824
77276,23776
77324,23736
77378,23707
77408,23698
77438,23689
77453,23688
77484,23685
77515,23685
77546,23688
" /> 
<polyline style="fill-rule:evenodd;"
points="76546,23688
76561,23689
76591,23698
76621,23707
76675,23736
76723,23776
76763,23824
76792,23878
76810,23938
76816,24000
76810,24061
76792,24121
76763,24175
76723,24223
76675,24263
76621,24292
76591,24301
76561,24310
76546,24311
76515,24314
76484,24314
76453,24311
76438,24310
76408,24301
76378,24292
76324,24263
76276,24223
76236,24175
76207,24121
76189,24061
76183,24000
76189,23938
76207,23878
76236,23824
76276,23776
76324,23736
76378,23707
76408,23698
76438,23689
76453,23688
76484,23685
76515,23685
76546,23688
" /> 
<polyline style="fill-rule:evenodd;"
points="82546,23688
82561,23689
82591,23698
82621,23707
82675,23736
82723,23776
82763,23824
82792,23878
82810,23938
82816,24000
82810,24061
82792,24121
82763,24175
82723,24223
82675,24263
82621,24292
82591,24301
82561,24310
82546,24311
82515,24314
82484,24314
82453,24311
82438,24310
82408,24301
82378,24292
82324,24263
82276,24223
82236,24175
82207,24121
82189,24061
82183,24000
82189,23938
82207,23878
82236,23824
82276,23776
82324,23736
82378,23707
82408,23698
82438,23689
82453,23688
82484,23685
82515,23685
82546,23688
" /> 
<polyline style="fill-rule:evenodd;"
points="75546,23688
75561,23689
75591,23698
75621,23707
75675,23736
75723,23776
75763,23824
75792,23878
75810,23938
75816,24000
75810,24061
75792,24121
75763,24175
75723,24223
75675,24263
75621,24292
75591,24301
75561,24310
75546,24311
75515,24314
75484,24314
75453,24311
75438,24310
75408,24301
75378,24292
75324,24263
75276,24223
75236,24175
75207,24121
75189,24061
75183,24000
75189,23938
75207,23878
75236,23824
75276,23776
75324,23736
75378,23707
75408,23698
75438,23689
75453,23688
75484,23685
75515,23685
75546,23688
" /> 
<polyline style="fill-rule:evenodd;"
points="73546,23688
73561,23689
73591,23698
73621,23707
73675,23736
73723,23776
73763,23824
73792,23878
73810,23938
73816,24000
73810,24061
73792,24121
73763,24175
73723,24223
73675,24263
73621,24292
73591,24301
73561,24310
73546,24311
73515,24314
73484,24314
73453,24311
73438,24310
73408,24301
73378,24292
73324,24263
73276,24223
73236,24175
73207,24121
73189,24061
73183,24000
73189,23938
73207,23878
73236,23824
73276,23776
73324,23736
73378,23707
73408,23698
73438,23689
73453,23688
73484,23685
73515,23685
73546,23688
" /> 
<polyline style="fill-rule:evenodd;"
points="80546,23688
80561,23689
80591,23698
80621,23707
80675,23736
80723,23776
80763,23824
80792,23878
80810,23938
80816,24000
80810,24061
80792,24121
80763,24175
80723,24223
80675,24263
80621,24292
80591,24301
80561,24310
80546,24311
80515,24314
80484,24314
80453,24311
80438,24310
80408,24301
80378,24292
80324,24263
80276,24223
80236,24175
80207,24121
80189,24061
80183,24000
80189,23938
80207,23878
80236,23824
80276,23776
80324,23736
80378,23707
80408,23698
80438,23689
80453,23688
80484,23685
80515,23685
80546,23688
" /> 
<polyline style="fill-rule:evenodd;"
points="81546,23688
81561,23689
81591,23698
81621,23707
81675,23736
81723,23776
81763,23824
81792,23878
81810,23938
81816,24000
81810,24061
81792,24121
81763,24175
81723,24223
81675,24263
81621,24292
81591,24301
81561,24310
81546,24311
81515,24314
81484,24314
81453,24311
81438,24310
81408,24301
81378,24292
81324,24263
81276,24223
81236,24175
81207,24121
81189,24061
81183,24000
81189,23938
81207,23878
81236,23824
81276,23776
81324,23736
81378,23707
81408,23698
81438,23689
81453,23688
81484,23685
81515,23685
81546,23688
" /> 
<polyline style="fill-rule:evenodd;"
points="83546,23688
83561,23689
83591,23698
83621,23707
83675,23736
83723,23776
83763,23824
83792,23878
83810,23938
83816,24000
83810,24061
83792,24121
83763,24175
83723,24223
83675,24263
83621,24292
83591,24301
83561,24310
83546,24311
83515,24314
83484,24314
83453,24311
83438,24310
83408,24301
83378,24292
83324,24263
83276,24223
83236,24175
83207,24121
83189,24061
83183,24000
83189,23938
83207,23878
83236,23824
83276,23776
83324,23736
83378,23707
83408,23698
83438,23689
83453,23688
83484,23685
83515,23685
83546,23688
" /> 
<polyline style="fill-rule:evenodd;"
points="84546,23688
84561,23689
84591,23698
84621,23707
84675,23736
84723,23776
84763,23824
84792,23878
84810,23938
84816,24000
84810,24061
84792,24121
84763,24175
84723,24223
84675,24263
84621,24292
84591,24301
84561,24310
84546,24311
84515,24314
84484,24314
84453,24311
84438,24310
84408,24301
84378,24292
84324,24263
84276,24223
84236,24175
84207,24121
84189,24061
84183,24000
84189,23938
84207,23878
84236,23824
84276,23776
84324,23736
84378,23707
84408,23698
84438,23689
84453,23688
84484,23685
84515,23685
84546,23688
" /> 
<polyline style="fill-rule:evenodd;"
points="85546,23688
85561,23689
85591,23698
85621,23707
85675,23736
85723,23776
85763,23824
85792,23878
85810,23938
85816,24000
85810,24061
85792,24121
85763,24175
85723,24223
85675,24263
85621,24292
85591,24301
85561,24310
85546,24311
85515,24314
85484,24314
85453,24311
85438,24310
85408,24301
85378,24292
85324,24263
85276,24223
85236,24175
85207,24121
85189,24061
85183,24000
85189,23938
85207,23878
85236,23824
85276,23776
85324,23736
85378,23707
85408,23698
85438,23689
85453,23688
85484,23685
85515,23685
85546,23688
" /> 
<polyline style="fill-rule:evenodd;"
points="74546,23688
74561,23689
74591,23698
74621,23707
74675,23736
74723,23776
74763,23824
74792,23878
74810,23938
74816,24000
74810,24061
74792,24121
74763,24175
74723,24223
74675,24263
74621,24292
74591,24301
74561,24310
74546,24311
74515,24314
74484,24314
74453,24311
74438,24310
74408,24301
74378,24292
74324,24263
74276,24223
74236,24175
74207,24121
74189,24061
74183,24000
74189,23938
74207,23878
74236,23824
74276,23776
74324,23736
74378,23707
74408,23698
74438,23689
74453,23688
74484,23685
74515,23685
74546,23688
" /> 
<polyline style="fill-rule:evenodd;"
points="79546,23688
79561,23689
79591,23698
79621,23707
79675,23736
79723,23776
79763,23824
79792,23878
79810,23938
79816,24000
79810,24061
79792,24121
79763,24175
79723,24223
79675,24263
79621,24292
79591,24301
79561,24310
79546,24311
79515,24314
79484,24314
79453,24311
79438,24310
79408,24301
79378,24292
79324,24263
79276,24223
79236,24175
79207,24121
79189,24061
79183,24000
79189,23938
79207,23878
79236,23824
79276,23776
79324,23736
79378,23707
79408,23698
79438,23689
79453,23688
79484,23685
79515,23685
79546,23688
" /> 
<polyline style="fill-rule:evenodd;"
points="65597,23175
65625,23187
65651,23204
65673,23226
65690,23252
65702,23280
65708,23311
65708,23342
65702,23372
65690,23401
65673,23427
65651,23449
65625,23466
65597,23478
65566,23484
65535,23484
65505,23478
65476,23466
65450,23449
65428,23427
65411,23401
65399,23372
65393,23342
65393,23311
65399,23280
65411,23252
65428,23226
65450,23204
65476,23187
65505,23175
65535,23169
65566,23169
65597,23175
" /> 
<polyline style="fill-rule:evenodd;"
points="81541,22683
81570,22695
81596,22712
81618,22734
81618,22734
81618,22734
81621,22738
81635,22760
81647,22788
81653,22819
81653,22850
81647,22880
81635,22909
81618,22935
81596,22956
81570,22974
81541,22986
81511,22992
81480,22992
81450,22986
81421,22974
81395,22956
81373,22935
81356,22909
81344,22880
81338,22850
81338,22819
81344,22788
81356,22760
81371,22738
81373,22734
81373,22734
81373,22734
81395,22712
81421,22695
81450,22683
81480,22677
81511,22677
81541,22683
" /> 
<polyline style="fill-rule:evenodd;"
points="77604,22683
77633,22695
77659,22712
77681,22734
77681,22734
77681,22734
77684,22738
77698,22760
77710,22788
77716,22819
77716,22850
77710,22880
77698,22909
77681,22935
77659,22956
77633,22974
77604,22986
77574,22992
77543,22992
77513,22986
77484,22974
77458,22956
77436,22935
77419,22909
77407,22880
77401,22850
77401,22819
77407,22788
77419,22760
77434,22738
77436,22734
77436,22734
77436,22734
77458,22712
77484,22695
77513,22683
77543,22677
77574,22677
77604,22683
" /> 
<polyline style="fill-rule:evenodd;"
points="61364,22486
61393,22498
61419,22515
61441,22537
61458,22563
61470,22591
61476,22622
61476,22653
61470,22683
61458,22712
61458,22712
61443,22734
61441,22738
61419,22760
61393,22777
61366,22788
61364,22789
61334,22795
61303,22795
61272,22789
61271,22788
61244,22777
61218,22760
61196,22738
61193,22734
61179,22712
61179,22712
61167,22683
61161,22653
61161,22622
61167,22591
61179,22563
61196,22537
61218,22515
61244,22498
61272,22486
61303,22480
61334,22480
61364,22486
" /> 
<polyline style="fill-rule:evenodd;"
points="60872,22092
60901,22104
60927,22121
60949,22143
60966,22169
60978,22198
60984,22228
60984,22259
60978,22290
60966,22318
60949,22344
60927,22366
60901,22383
60872,22395
60842,22401
60811,22401
60780,22395
60752,22383
60726,22366
60704,22344
60687,22318
60675,22290
60669,22259
60669,22228
60675,22198
60687,22169
60704,22143
60726,22121
60752,22104
60780,22092
60811,22086
60842,22086
60872,22092
" /> 
<polyline style="fill-rule:evenodd;"
points="76545,22092
76574,22104
76600,22121
76622,22143
76639,22169
76651,22198
76657,22228
76657,22259
76651,22290
76639,22318
76622,22344
76600,22366
76574,22383
76545,22395
76515,22401
76484,22401
76454,22395
76425,22383
76399,22366
76377,22344
76360,22318
76348,22290
76342,22259
76342,22228
76348,22198
76360,22169
76377,22143
76399,22121
76425,22104
76454,22092
76484,22086
76515,22086
76545,22092
" /> 
<polyline style="fill-rule:evenodd;"
points="60479,21600
60507,21612
60507,21612
60520,21621
60533,21629
60555,21651
60572,21677
60584,21706
60590,21736
60590,21767
60584,21797
60572,21826
60555,21852
60533,21874
60507,21891
60479,21903
60448,21909
60417,21909
60387,21903
60358,21891
60332,21874
60310,21852
60293,21826
60281,21797
60275,21767
60275,21736
60281,21706
60293,21677
60310,21651
60332,21629
60345,21621
60358,21612
60358,21612
60387,21600
60417,21594
60448,21594
60479,21600
" /> 
<polyline style="fill-rule:evenodd;"
points="69345,21395
69374,21406
69400,21424
69422,21446
69439,21471
69451,21500
69457,21530
69457,21561
69451,21592
69439,21621
69422,21646
69400,21668
69400,21668
69400,21668
69387,21677
69374,21686
69345,21697
69315,21703
69284,21703
69254,21697
69225,21686
69212,21677
69199,21668
69199,21668
69199,21668
69177,21646
69160,21621
69148,21592
69142,21561
69142,21530
69148,21500
69160,21471
69177,21446
69199,21424
69225,21406
69254,21395
69284,21388
69315,21388
69345,21395
" /> 
<polyline style="fill-rule:evenodd;"
points="81546,20688
81561,20689
81591,20698
81621,20707
81675,20736
81723,20776
81763,20824
81792,20878
81810,20938
81816,21000
81810,21061
81792,21121
81763,21175
81723,21223
81675,21263
81621,21292
81591,21301
81561,21310
81546,21311
81515,21314
81484,21314
81453,21311
81438,21310
81408,21301
81378,21292
81324,21263
81276,21223
81236,21175
81207,21121
81189,21061
81183,21000
81189,20938
81207,20878
81236,20824
81276,20776
81324,20736
81378,20707
81408,20698
81438,20689
81453,20688
81484,20685
81515,20685
81546,20688
" /> 
<polyline style="fill-rule:evenodd;"
points="75546,20688
75561,20689
75591,20698
75621,20707
75675,20736
75723,20776
75763,20824
75792,20878
75810,20938
75816,21000
75810,21061
75792,21121
75763,21175
75723,21223
75675,21263
75621,21292
75591,21301
75561,21310
75546,21311
75515,21314
75484,21314
75453,21311
75438,21310
75408,21301
75378,21292
75324,21263
75276,21223
75236,21175
75207,21121
75189,21061
75183,21000
75189,20938
75207,20878
75236,20824
75276,20776
75324,20736
75378,20707
75408,20698
75438,20689
75453,20688
75484,20685
75515,20685
75546,20688
" /> 
<polyline style="fill-rule:evenodd;"
points="77546,20688
77561,20689
77591,20698
77621,20707
77675,20736
77723,20776
77763,20824
77792,20878
77810,20938
77816,21000
77810,21061
77792,21121
77763,21175
77723,21223
77675,21263
77621,21292
77591,21301
77561,21310
77546,21311
77515,21314
77484,21314
77453,21311
77438,21310
77408,21301
77378,21292
77324,21263
77276,21223
77236,21175
77207,21121
77189,21061
77183,21000
77189,20938
77207,20878
77236,20824
77276,20776
77324,20736
77378,20707
77408,20698
77438,20689
77453,20688
77484,20685
77515,20685
77546,20688
" /> 
<polyline style="fill-rule:evenodd;"
points="74546,20688
74561,20689
74591,20698
74621,20707
74675,20736
74723,20776
74763,20824
74792,20878
74810,20938
74816,21000
74810,21061
74792,21121
74763,21175
74723,21223
74675,21263
74621,21292
74591,21301
74561,21310
74546,21311
74515,21314
74484,21314
74453,21311
74438,21310
74408,21301
74378,21292
74324,21263
74276,21223
74236,21175
74207,21121
74189,21061
74183,21000
74189,20938
74207,20878
74236,20824
74276,20776
74324,20736
74378,20707
74408,20698
74438,20689
74453,20688
74484,20685
74515,20685
74546,20688
" /> 
<polyline style="fill-rule:evenodd;"
points="73546,20688
73561,20689
73591,20698
73621,20707
73675,20736
73723,20776
73763,20824
73792,20878
73810,20938
73816,21000
73810,21061
73792,21121
73763,21175
73723,21223
73675,21263
73621,21292
73591,21301
73561,21310
73546,21311
73515,21314
73484,21314
73453,21311
73438,21310
73408,21301
73378,21292
73324,21263
73276,21223
73236,21175
73207,21121
73189,21061
73183,21000
73189,20938
73207,20878
73236,20824
73276,20776
73324,20736
73378,20707
73408,20698
73438,20689
73453,20688
73484,20685
73515,20685
73546,20688
" /> 
<polyline style="fill-rule:evenodd;"
points="78546,20688
78561,20689
78591,20698
78621,20707
78675,20736
78723,20776
78763,20824
78792,20878
78810,20938
78816,21000
78810,21061
78792,21121
78763,21175
78723,21223
78675,21263
78621,21292
78591,21301
78561,21310
78546,21311
78515,21314
78484,21314
78453,21311
78438,21310
78408,21301
78378,21292
78324,21263
78276,21223
78236,21175
78207,21121
78189,21061
78183,21000
78189,20938
78207,20878
78236,20824
78276,20776
78324,20736
78378,20707
78408,20698
78438,20689
78453,20688
78484,20685
78515,20685
78546,20688
" /> 
<polyline style="fill-rule:evenodd;"
points="72546,20688
72561,20689
72591,20698
72621,20707
72675,20736
72723,20776
72763,20824
72792,20878
72810,20938
72816,21000
72810,21061
72792,21121
72763,21175
72723,21223
72675,21263
72621,21292
72591,21301
72561,21310
72546,21311
72515,21314
72484,21314
72453,21311
72438,21310
72408,21301
72378,21292
72324,21263
72276,21223
72236,21175
72207,21121
72189,21061
72183,21000
72189,20938
72207,20878
72236,20824
72276,20776
72324,20736
72378,20707
72408,20698
72438,20689
72453,20688
72484,20685
72515,20685
72546,20688
" /> 
<polyline style="fill-rule:evenodd;"
points="80546,20688
80561,20689
80591,20698
80621,20707
80675,20736
80723,20776
80763,20824
80792,20878
80810,20938
80816,21000
80810,21061
80792,21121
80763,21175
80723,21223
80675,21263
80621,21292
80591,21301
80561,21310
80546,21311
80515,21314
80484,21314
80453,21311
80438,21310
80408,21301
80378,21292
80324,21263
80276,21223
80236,21175
80207,21121
80189,21061
80183,21000
80189,20938
80207,20878
80236,20824
80276,20776
80324,20736
80378,20707
80408,20698
80438,20689
80453,20688
80484,20685
80515,20685
80546,20688
" /> 
<polyline style="fill-rule:evenodd;"
points="85546,20688
85561,20689
85591,20698
85621,20707
85675,20736
85723,20776
85763,20824
85792,20878
85810,20938
85816,21000
85810,21061
85792,21121
85763,21175
85723,21223
85675,21263
85621,21292
85591,21301
85561,21310
85546,21311
85515,21314
85484,21314
85453,21311
85438,21310
85408,21301
85378,21292
85324,21263
85276,21223
85236,21175
85207,21121
85189,21061
85183,21000
85189,20938
85207,20878
85236,20824
85276,20776
85324,20736
85378,20707
85408,20698
85438,20689
85453,20688
85484,20685
85515,20685
85546,20688
" /> 
<polyline style="fill-rule:evenodd;"
points="76546,20688
76561,20689
76591,20698
76621,20707
76675,20736
76723,20776
76763,20824
76792,20878
76810,20938
76816,21000
76810,21061
76792,21121
76763,21175
76723,21223
76675,21263
76621,21292
76591,21301
76561,21310
76546,21311
76515,21314
76484,21314
76453,21311
76438,21310
76408,21301
76378,21292
76324,21263
76276,21223
76236,21175
76207,21121
76189,21061
76183,21000
76189,20938
76207,20878
76236,20824
76276,20776
76324,20736
76378,20707
76408,20698
76438,20689
76453,20688
76484,20685
76515,20685
76546,20688
" /> 
<polyline style="fill-rule:evenodd;"
points="84546,20688
84561,20689
84591,20698
84621,20707
84675,20736
84723,20776
84763,20824
84792,20878
84810,20938
84816,21000
84810,21061
84792,21121
84763,21175
84723,21223
84675,21263
84621,21292
84591,21301
84561,21310
84546,21311
84515,21314
84484,21314
84453,21311
84438,21310
84408,21301
84378,21292
84324,21263
84276,21223
84236,21175
84207,21121
84189,21061
84183,21000
84189,20938
84207,20878
84236,20824
84276,20776
84324,20736
84378,20707
84408,20698
84438,20689
84453,20688
84484,20685
84515,20685
84546,20688
" /> 
<polyline style="fill-rule:evenodd;"
points="83546,20688
83561,20689
83591,20698
83621,20707
83675,20736
83723,20776
83763,20824
83792,20878
83810,20938
83816,21000
83810,21061
83792,21121
83763,21175
83723,21223
83675,21263
83621,21292
83591,21301
83561,21310
83546,21311
83515,21314
83484,21314
83453,21311
83438,21310
83408,21301
83378,21292
83324,21263
83276,21223
83236,21175
83207,21121
83189,21061
83183,21000
83189,20938
83207,20878
83236,20824
83276,20776
83324,20736
83378,20707
83408,20698
83438,20689
83453,20688
83484,20685
83515,20685
83546,20688
" /> 
<polyline style="fill-rule:evenodd;"
points="82546,20688
82561,20689
82591,20698
82621,20707
82675,20736
82723,20776
82763,20824
82792,20878
82810,20938
82816,21000
82810,21061
82792,21121
82763,21175
82723,21223
82675,21263
82621,21292
82591,21301
82561,21310
82546,21311
82515,21314
82484,21314
82453,21311
82438,21310
82408,21301
82378,21292
82324,21263
82276,21223
82236,21175
82207,21121
82189,21061
82183,21000
82189,20938
82207,20878
82236,20824
82276,20776
82324,20736
82378,20707
82408,20698
82438,20689
82453,20688
82484,20685
82515,20685
82546,20688
" /> 
<polyline style="fill-rule:evenodd;"
points="79546,20688
79561,20689
79591,20698
79621,20707
79675,20736
79723,20776
79763,20824
79792,20878
79810,20938
79816,21000
79810,21061
79792,21121
79763,21175
79723,21223
79675,21263
79621,21292
79591,21301
79561,21310
79546,21311
79515,21314
79484,21314
79453,21311
79438,21310
79408,21301
79378,21292
79324,21263
79276,21223
79236,21175
79207,21121
79189,21061
79183,21000
79189,20938
79207,20878
79236,20824
79276,20776
79324,20736
79378,20707
79408,20698
79438,20689
79453,20688
79484,20685
79515,20685
79546,20688
" /> 
<polyline style="fill-rule:evenodd;"
points="60472,21157
60393,21157
60393,20842
60472,20842
60472,21157
" /> 
<polyline style="fill-rule:evenodd;"
points="58307,21157
58228,21157
58228,20842
58307,20842
58307,21157
" /> 
<polyline style="fill-rule:evenodd;"
points="58110,21157
58031,21157
58031,20842
58110,20842
58110,21157
" /> 
<polyline style="fill-rule:evenodd;"
points="59291,21157
59212,21157
59212,20842
59291,20842
59291,21157
" /> 
<polyline style="fill-rule:evenodd;"
points="59685,21157
59606,21157
59606,20842
59685,20842
59685,21157
" /> 
<polyline style="fill-rule:evenodd;"
points="59488,21157
59409,21157
59409,20842
59488,20842
59488,21157
" /> 
<polyline style="fill-rule:evenodd;"
points="59881,21157
59803,21157
59803,20842
59881,20842
59881,21157
" /> 
<polyline style="fill-rule:evenodd;"
points="59094,21157
59015,21157
59015,20842
59094,20842
59094,21157
" /> 
<polyline style="fill-rule:evenodd;"
points="58897,21157
58818,21157
58818,20842
58897,20842
58897,21157
" /> 
<polyline style="fill-rule:evenodd;"
points="58700,21157
58622,21157
58622,20842
58700,20842
58700,21157
" /> 
<polyline style="fill-rule:evenodd;"
points="58503,21157
58425,21157
58425,20842
58503,20842
58503,21157
" /> 
<polyline style="fill-rule:evenodd;"
points="62440,21157
62362,21157
62362,20842
62440,20842
62440,21157
" /> 
<polyline style="fill-rule:evenodd;"
points="62047,21157
61968,21157
61968,20842
62047,20842
62047,21157
" /> 
<polyline style="fill-rule:evenodd;"
points="60275,21157
60196,21157
60196,20842
60275,20842
60275,21157
" /> 
<polyline style="fill-rule:evenodd;"
points="62637,21157
62559,21157
62559,20842
62637,20842
62637,21157
" /> 
<polyline style="fill-rule:evenodd;"
points="60078,21157
60000,21157
60000,20842
60078,20842
60078,21157
" /> 
<polyline style="fill-rule:evenodd;"
points="60669,21157
60590,21157
60590,20842
60669,20842
60669,21157
" /> 
<polyline style="fill-rule:evenodd;"
points="60866,21157
60787,21157
60787,20842
60866,20842
60866,21157
" /> 
<polyline style="fill-rule:evenodd;"
points="61062,21157
60984,21157
60984,20842
61062,20842
61062,21157
" /> 
<polyline style="fill-rule:evenodd;"
points="61259,21157
61181,21157
61181,20842
61259,20842
61259,21157
" /> 
<polyline style="fill-rule:evenodd;"
points="61456,21157
61377,21157
61377,20842
61456,20842
61456,21157
" /> 
<polyline style="fill-rule:evenodd;"
points="61653,21157
61574,21157
61574,20842
61653,20842
61653,21157
" /> 
<polyline style="fill-rule:evenodd;"
points="61850,21157
61771,21157
61771,20842
61850,20842
61850,21157
" /> 
<polyline style="fill-rule:evenodd;"
points="62244,21157
62165,21157
62165,20842
62244,20842
62244,21157
" /> 
<polyline style="fill-rule:evenodd;"
points="68918,20964
68681,20964
68681,20374
68918,20374
68918,20964
" /> 
<polyline style="fill-rule:evenodd;"
points="66918,20964
66681,20964
66681,20374
66918,20374
66918,20964
" /> 
<polyline style="fill-rule:evenodd;"
points="67418,20964
67181,20964
67181,20374
67418,20374
67418,20964
" /> 
<polyline style="fill-rule:evenodd;"
points="67918,20964
67681,20964
67681,20374
67918,20374
67918,20964
" /> 
<polyline style="fill-rule:evenodd;"
points="68418,20964
68181,20964
68181,20374
68418,20374
68418,20964
" /> 
<polyline style="fill-rule:evenodd;"
points="69418,20964
69181,20964
69181,20374
69418,20374
69418,20964
" /> 
<polyline style="fill-rule:evenodd;"
points="70418,20964
70181,20964
70181,20374
70418,20374
70418,20964
" /> 
<polyline style="fill-rule:evenodd;"
points="69918,20964
69681,20964
69681,20374
69918,20374
69918,20964
" /> 
<polyline style="fill-rule:evenodd;"
points="61463,19730
61491,19742
61517,19759
61539,19781
61539,19781
61539,19781
61542,19785
61556,19807
61568,19835
61574,19866
61574,19897
61568,19927
61556,19956
61539,19982
61517,20004
61491,20021
61463,20033
61432,20039
61401,20039
61371,20033
61342,20021
61316,20004
61295,19982
61277,19956
61265,19927
61259,19897
61259,19866
61265,19835
61277,19807
61292,19785
61295,19781
61295,19781
61295,19781
61316,19759
61342,19742
61371,19730
61401,19724
61432,19724
61463,19730
" /> 
<polyline style="fill-rule:evenodd;"
points="84545,19533
84574,19545
84600,19562
84622,19584
84639,19610
84651,19639
84657,19669
84657,19700
84651,19730
84639,19759
84639,19759
84624,19781
84622,19785
84600,19807
84574,19824
84547,19835
84545,19836
84515,19842
84484,19842
84454,19836
84452,19835
84425,19824
84399,19807
84377,19785
84375,19781
84360,19759
84360,19759
84348,19730
84342,19700
84342,19669
84348,19639
84360,19610
84377,19584
84399,19562
84425,19545
84454,19533
84484,19527
84515,19527
84545,19533
" /> 
</g> 
</svg>
