<?xml version="1.0" standalone="no"?>
 <!DOCTYPE svg PUBLIC "-//W3C//DTD SVG 1.1//EN" 
 "http://www.w3.org/Graphics/SVG/1.1/DTD/svg11.dtd"> 
<svg xmlns="http://www.w3.org/2000/svg" version="1.1" 
    width="29.7002cm" height="21.0007cm" viewBox="0 0 116930 82680 ">
<title>SVG Picture created as OTP-F.Paste.svg date 2019/02/27 17:44:32 </title>
  <desc>Picture generated by PCBNEW </desc>
<g style="fill:#000000; fill-opacity:1;stroke:#000000; stroke-opacity:1;
stroke-linecap:round; stroke-linejoin:round; "
 transform="translate(0 0) scale(1 1)">
</g>
<g style="fill:#000000; fill-opacity:0.0; 
stroke:#000000; stroke-width:-0.000393701; stroke-opacity:1; 
stroke-linecap:round; stroke-linejoin:round;">
</g>
<g style="fill:#000000; fill-opacity:1.0; 
stroke:#000000; stroke-width:39.3701; stroke-opacity:1; 
stroke-linecap:round; stroke-linejoin:round;">
<rect x="53149.6" y="16535.4" width="35039.4" height="20078.7" rx="0" />
</g>
<g style="fill:#FFFFFF; fill-opacity:1.0; 
stroke:#FFFFFF; stroke-width:39.3701; stroke-opacity:1; 
stroke-linecap:round; stroke-linejoin:round;">
</g>
<g style="fill:#FFFFFF; fill-opacity:1.0; 
stroke:#FFFFFF; stroke-width:0; stroke-opacity:1; 
stroke-linecap:round; stroke-linejoin:round;">
<polyline style="fill-rule:evenodd;"
points="58031,20842
58110,20842
58110,21157
58031,21157
58031,20842
" /> 
<polyline style="fill-rule:evenodd;"
points="58228,20842
58307,20842
58307,21157
58228,21157
58228,20842
" /> 
<polyline style="fill-rule:evenodd;"
points="58425,20842
58503,20842
58503,21157
58425,21157
58425,20842
" /> 
<polyline style="fill-rule:evenodd;"
points="58622,20842
58700,20842
58700,21157
58622,21157
58622,20842
" /> 
<polyline style="fill-rule:evenodd;"
points="58818,20842
58897,20842
58897,21157
58818,21157
58818,20842
" /> 
<polyline style="fill-rule:evenodd;"
points="59015,20842
59094,20842
59094,21157
59015,21157
59015,20842
" /> 
<polyline style="fill-rule:evenodd;"
points="59212,20842
59291,20842
59291,21157
59212,21157
59212,20842
" /> 
<polyline style="fill-rule:evenodd;"
points="59409,20842
59488,20842
59488,21157
59409,21157
59409,20842
" /> 
<polyline style="fill-rule:evenodd;"
points="59606,20842
59685,20842
59685,21157
59606,21157
59606,20842
" /> 
<polyline style="fill-rule:evenodd;"
points="59803,20842
59881,20842
59881,21157
59803,21157
59803,20842
" /> 
<polyline style="fill-rule:evenodd;"
points="60000,20842
60078,20842
60078,21157
60000,21157
60000,20842
" /> 
<polyline style="fill-rule:evenodd;"
points="60196,20842
60275,20842
60275,21157
60196,21157
60196,20842
" /> 
<polyline style="fill-rule:evenodd;"
points="60393,20842
60472,20842
60472,21157
60393,21157
60393,20842
" /> 
<polyline style="fill-rule:evenodd;"
points="60590,20842
60669,20842
60669,21157
60590,21157
60590,20842
" /> 
<polyline style="fill-rule:evenodd;"
points="60787,20842
60866,20842
60866,21157
60787,21157
60787,20842
" /> 
<polyline style="fill-rule:evenodd;"
points="60984,20842
61062,20842
61062,21157
60984,21157
60984,20842
" /> 
<polyline style="fill-rule:evenodd;"
points="61181,20842
61259,20842
61259,21157
61181,21157
61181,20842
" /> 
<polyline style="fill-rule:evenodd;"
points="61377,20842
61456,20842
61456,21157
61377,21157
61377,20842
" /> 
<polyline style="fill-rule:evenodd;"
points="61574,20842
61653,20842
61653,21157
61574,21157
61574,20842
" /> 
<polyline style="fill-rule:evenodd;"
points="61771,20842
61850,20842
61850,21157
61771,21157
61771,20842
" /> 
<polyline style="fill-rule:evenodd;"
points="61968,20842
62047,20842
62047,21157
61968,21157
61968,20842
" /> 
<polyline style="fill-rule:evenodd;"
points="62165,20842
62244,20842
62244,21157
62165,21157
62165,20842
" /> 
<polyline style="fill-rule:evenodd;"
points="62362,20842
62440,20842
62440,21157
62362,21157
62362,20842
" /> 
<polyline style="fill-rule:evenodd;"
points="62559,20842
62637,20842
62637,21157
62559,21157
62559,20842
" /> 
<polyline style="fill-rule:evenodd;"
points="71957,33383
71642,33383
71642,33029
71957,33029
71957,33383
" /> 
<polyline style="fill-rule:evenodd;"
points="72331,34170
72016,34170
72016,33816
72331,33816
72331,34170
" /> 
<polyline style="fill-rule:evenodd;"
points="71583,34170
71268,34170
71268,33816
71583,33816
71583,34170
" /> 
<polyline style="fill-rule:evenodd;"
points="66716,33157
66716,32842
67070,32842
67070,33157
66716,33157
" /> 
<polyline style="fill-rule:evenodd;"
points="65929,33531
65929,33216
66283,33216
66283,33531
65929,33531
" /> 
<polyline style="fill-rule:evenodd;"
points="65929,32783
65929,32468
66283,32468
66283,32783
65929,32783
" /> 
<polyline style="fill-rule:evenodd;"
points="62588,26171
62597,26173
62607,26175
62616,26178
62625,26182
62633,26187
62641,26193
62648,26200
62654,26207
62660,26215
62665,26223
62669,26232
62672,26241
62675,26250
62676,26260
62677,26269
62677,26525
62676,26535
62675,26544
62672,26554
62669,26563
62665,26571
62660,26580
62654,26588
62648,26595
62641,26601
62633,26607
62625,26612
62616,26616
62607,26619
62597,26622
62588,26623
62578,26624
62224,26624
62214,26623
62205,26622
62195,26619
62186,26616
62178,26612
62169,26607
62161,26601
62154,26595
62148,26588
62142,26580
62137,26571
62133,26563
62130,26554
62127,26544
62126,26535
62125,26525
62125,26269
62126,26260
62127,26250
62130,26241
62133,26232
62137,26223
62142,26215
62148,26207
62154,26200
62161,26193
62169,26187
62178,26182
62186,26178
62195,26175
62205,26173
62214,26171
62224,26171
62578,26171
62588,26171
" /> 
<polyline style="fill-rule:evenodd;"
points="62588,25364
62597,25366
62607,25368
62616,25371
62625,25375
62633,25380
62641,25386
62648,25393
62654,25400
62660,25407
62665,25416
62669,25424
62672,25434
62675,25443
62676,25452
62677,25462
62677,25718
62676,25728
62675,25737
62672,25747
62669,25756
62665,25764
62660,25773
62654,25780
62648,25788
62641,25794
62633,25800
62625,25805
62616,25809
62607,25812
62597,25815
62588,25816
62578,25816
62224,25816
62214,25816
62205,25815
62195,25812
62186,25809
62178,25805
62169,25800
62161,25794
62154,25788
62148,25780
62142,25773
62137,25764
62133,25756
62130,25747
62127,25737
62126,25728
62125,25718
62125,25462
62126,25452
62127,25443
62130,25434
62133,25424
62137,25416
62142,25407
62148,25400
62154,25393
62161,25386
62169,25380
62178,25375
62186,25371
62195,25368
62205,25366
62214,25364
62224,25364
62578,25364
62588,25364
" /> 
<polyline style="fill-rule:evenodd;"
points="62342,31811
62351,31812
62361,31815
62370,31818
62379,31822
62387,31827
62395,31833
62402,31839
62408,31847
62414,31854
62419,31863
62423,31871
62426,31880
62429,31890
62430,31899
62431,31909
62431,32263
62430,32273
62429,32282
62426,32292
62423,32301
62419,32310
62414,32318
62408,32326
62402,32333
62395,32339
62387,32345
62379,32350
62370,32354
62361,32357
62351,32360
62342,32361
62332,32362
62076,32362
62067,32361
62057,32360
62048,32357
62039,32354
62030,32350
62022,32345
62014,32339
62007,32333
62000,32326
61994,32318
61989,32310
61985,32301
61982,32292
61980,32282
61978,32273
61978,32263
61978,31909
61978,31899
61980,31890
61982,31880
61985,31871
61989,31863
61994,31854
62000,31847
62007,31839
62014,31833
62022,31827
62030,31822
62039,31818
62048,31815
62057,31812
62067,31811
62076,31811
62332,31811
62342,31811
" /> 
<polyline style="fill-rule:evenodd;"
points="61535,31811
61544,31812
61554,31815
61563,31818
61571,31822
61580,31827
61588,31833
61595,31839
61601,31847
61607,31854
61612,31863
61616,31871
61619,31880
61622,31890
61623,31899
61624,31909
61624,32263
61623,32273
61622,32282
61619,32292
61616,32301
61612,32310
61607,32318
61601,32326
61595,32333
61588,32339
61580,32345
61571,32350
61563,32354
61554,32357
61544,32360
61535,32361
61525,32362
61269,32362
61260,32361
61250,32360
61241,32357
61232,32354
61223,32350
61215,32345
61207,32339
61200,32333
61193,32326
61187,32318
61182,32310
61178,32301
61175,32292
61173,32282
61171,32273
61171,32263
61171,31909
61171,31899
61173,31890
61175,31880
61178,31871
61182,31863
61187,31854
61193,31847
61200,31839
61207,31833
61215,31827
61223,31822
61232,31818
61241,31815
61250,31812
61260,31811
61269,31811
61525,31811
61535,31811
" /> 
<polyline style="fill-rule:evenodd;"
points="61210,28514
61219,28515
61229,28518
61238,28521
61247,28525
61255,28530
61263,28536
61270,28542
61276,28549
61282,28557
61287,28565
61291,28574
61294,28583
61297,28593
61298,28602
61299,28612
61299,28868
61298,28877
61297,28887
61294,28896
61291,28905
61287,28914
61282,28922
61276,28930
61270,28937
61263,28944
61255,28949
61247,28954
61238,28959
61229,28962
61219,28964
61210,28966
61200,28966
60846,28966
60836,28966
60827,28964
60817,28962
60808,28959
60800,28954
60791,28949
60784,28944
60776,28937
60770,28930
60764,28922
60759,28914
60755,28905
60752,28896
60749,28887
60748,28877
60748,28868
60748,28612
60748,28602
60749,28593
60752,28583
60755,28574
60759,28565
60764,28557
60770,28549
60776,28542
60784,28536
60791,28530
60800,28525
60808,28521
60817,28518
60827,28515
60836,28514
60846,28513
61200,28513
61210,28514
" /> 
<polyline style="fill-rule:evenodd;"
points="61210,29321
61219,29322
61229,29325
61238,29328
61247,29332
61255,29337
61263,29343
61270,29349
61276,29356
61282,29364
61287,29372
61291,29381
61294,29390
61297,29400
61298,29409
61299,29419
61299,29675
61298,29684
61297,29694
61294,29703
61291,29712
61287,29721
61282,29729
61276,29737
61270,29744
61263,29751
61255,29757
61247,29762
61238,29766
61229,29769
61219,29771
61210,29773
61200,29773
60846,29773
60836,29773
60827,29771
60817,29769
60808,29766
60800,29762
60791,29757
60784,29751
60776,29744
60770,29737
60764,29729
60759,29721
60755,29712
60752,29703
60749,29694
60748,29684
60748,29675
60748,29419
60748,29409
60749,29400
60752,29390
60755,29381
60759,29372
60764,29364
60770,29356
60776,29349
60784,29343
60791,29337
60800,29332
60808,29328
60817,29325
60827,29322
60836,29321
60846,29320
61200,29320
61210,29321
" /> 
<polyline style="fill-rule:evenodd;"
points="65049,33258
65058,33259
65067,33262
65077,33265
65085,33269
65094,33274
65101,33280
65108,33286
65115,33293
65121,33301
65126,33309
65130,33318
65133,33327
65135,33337
65137,33346
65137,33356
65137,33612
65137,33621
65135,33631
65133,33640
65130,33649
65126,33658
65121,33666
65115,33674
65108,33681
65101,33688
65094,33694
65085,33699
65077,33703
65067,33706
65058,33708
65049,33710
65039,33710
64685,33710
64675,33710
64665,33708
64656,33706
64647,33703
64638,33699
64630,33694
64622,33688
64615,33681
64608,33674
64603,33666
64598,33658
64594,33649
64590,33640
64588,33631
64587,33621
64586,33612
64586,33356
64587,33346
64588,33337
64590,33327
64594,33318
64598,33309
64603,33301
64608,33293
64615,33286
64622,33280
64630,33274
64638,33269
64647,33265
64656,33262
64665,33259
64675,33258
64685,33257
65039,33257
65049,33258
" /> 
<polyline style="fill-rule:evenodd;"
points="65049,32451
65058,32452
65067,32455
65077,32458
65085,32462
65094,32467
65101,32473
65108,32479
65115,32486
65121,32494
65126,32502
65130,32511
65133,32520
65135,32530
65137,32539
65137,32549
65137,32805
65137,32814
65135,32824
65133,32833
65130,32842
65126,32851
65121,32859
65115,32867
65108,32874
65101,32881
65094,32886
65085,32891
65077,32896
65067,32899
65058,32901
65049,32903
65039,32903
64685,32903
64675,32903
64665,32901
64656,32899
64647,32896
64638,32891
64630,32886
64622,32881
64615,32874
64608,32867
64603,32859
64598,32851
64594,32842
64590,32833
64588,32824
64587,32814
64586,32805
64586,32549
64587,32539
64588,32530
64590,32520
64594,32511
64598,32502
64603,32494
64608,32486
64615,32479
64622,32473
64630,32467
64638,32462
64647,32458
64656,32455
64665,32452
64675,32451
64685,32450
65039,32450
65049,32451
" /> 
<polyline style="fill-rule:evenodd;"
points="59635,26171
59645,26173
59654,26175
59663,26178
59672,26182
59680,26187
59688,26193
59695,26200
59702,26207
59707,26215
59712,26223
59716,26232
59720,26241
59722,26250
59723,26260
59724,26269
59724,26525
59723,26535
59722,26544
59720,26554
59716,26563
59712,26571
59707,26580
59702,26588
59695,26595
59688,26601
59680,26607
59672,26612
59663,26616
59654,26619
59645,26622
59635,26623
59625,26624
59271,26624
59262,26623
59252,26622
59243,26619
59233,26616
59225,26612
59216,26607
59209,26601
59202,26595
59195,26588
59189,26580
59184,26571
59180,26563
59177,26554
59175,26544
59173,26535
59173,26525
59173,26269
59173,26260
59175,26250
59177,26241
59180,26232
59184,26223
59189,26215
59195,26207
59202,26200
59209,26193
59216,26187
59225,26182
59233,26178
59243,26175
59252,26173
59262,26171
59271,26171
59625,26171
59635,26171
" /> 
<polyline style="fill-rule:evenodd;"
points="59635,25364
59645,25366
59654,25368
59663,25371
59672,25375
59680,25380
59688,25386
59695,25393
59702,25400
59707,25407
59712,25416
59716,25424
59720,25434
59722,25443
59723,25452
59724,25462
59724,25718
59723,25728
59722,25737
59720,25747
59716,25756
59712,25764
59707,25773
59702,25780
59695,25788
59688,25794
59680,25800
59672,25805
59663,25809
59654,25812
59645,25815
59635,25816
59625,25816
59271,25816
59262,25816
59252,25815
59243,25812
59233,25809
59225,25805
59216,25800
59209,25794
59202,25788
59195,25780
59189,25773
59184,25764
59180,25756
59177,25747
59175,25737
59173,25728
59173,25718
59173,25462
59173,25452
59175,25443
59177,25434
59180,25424
59184,25416
59189,25407
59195,25400
59202,25393
59209,25386
59216,25380
59225,25375
59233,25371
59243,25368
59252,25366
59262,25364
59271,25364
59625,25364
59635,25364
" /> 
<polyline style="fill-rule:evenodd;"
points="55895,26177
55905,26179
55914,26181
55923,26184
55932,26188
55940,26193
55948,26199
55955,26205
55961,26213
55967,26220
55972,26229
55976,26237
55980,26247
55982,26256
55983,26265
55984,26275
55984,26531
55983,26541
55982,26550
55980,26560
55976,26569
55972,26577
55967,26586
55961,26593
55955,26601
55948,26607
55940,26613
55932,26618
55923,26622
55914,26625
55905,26628
55895,26629
55885,26629
55531,26629
55521,26629
55512,26628
55502,26625
55493,26622
55485,26618
55476,26613
55469,26607
55461,26601
55455,26593
55449,26586
55444,26577
55440,26569
55437,26560
55434,26550
55433,26541
55433,26531
55433,26275
55433,26265
55434,26256
55437,26247
55440,26237
55444,26229
55449,26220
55455,26213
55461,26205
55469,26199
55476,26193
55485,26188
55493,26184
55502,26181
55512,26179
55521,26177
55531,26177
55885,26177
55895,26177
" /> 
<polyline style="fill-rule:evenodd;"
points="55895,25370
55905,25371
55914,25374
55923,25377
55932,25381
55940,25386
55948,25392
55955,25398
55961,25406
55967,25413
55972,25422
55976,25430
55980,25439
55982,25449
55983,25458
55984,25468
55984,25724
55983,25734
55982,25743
55980,25752
55976,25762
55972,25770
55967,25779
55961,25786
55955,25794
55948,25800
55940,25806
55932,25811
55923,25815
55914,25818
55905,25820
55895,25822
55885,25822
55531,25822
55521,25822
55512,25820
55502,25818
55493,25815
55485,25811
55476,25806
55469,25800
55461,25794
55455,25786
55449,25779
55444,25770
55440,25762
55437,25752
55434,25743
55433,25734
55433,25724
55433,25468
55433,25458
55434,25449
55437,25439
55440,25430
55444,25422
55449,25413
55455,25406
55461,25398
55469,25392
55476,25386
55485,25381
55493,25377
55502,25374
55512,25371
55521,25370
55531,25370
55885,25370
55895,25370
" /> 
<polyline style="fill-rule:evenodd;"
points="64852,26177
64861,26179
64871,26181
64880,26184
64888,26188
64897,26193
64904,26199
64912,26205
64918,26213
64924,26220
64929,26229
64933,26237
64936,26247
64939,26256
64940,26265
64940,26275
64940,26531
64940,26541
64939,26550
64936,26560
64933,26569
64929,26577
64924,26586
64918,26593
64912,26601
64904,26607
64897,26613
64888,26618
64880,26622
64871,26625
64861,26628
64852,26629
64842,26629
64488,26629
64478,26629
64468,26628
64459,26625
64450,26622
64441,26618
64433,26613
64425,26607
64418,26601
64412,26593
64406,26586
64401,26577
64397,26569
64394,26560
64391,26550
64390,26541
64389,26531
64389,26275
64390,26265
64391,26256
64394,26247
64397,26237
64401,26229
64406,26220
64412,26213
64418,26205
64425,26199
64433,26193
64441,26188
64450,26184
64459,26181
64468,26179
64478,26177
64488,26177
64842,26177
64852,26177
" /> 
<polyline style="fill-rule:evenodd;"
points="64852,25370
64861,25371
64871,25374
64880,25377
64888,25381
64897,25386
64904,25392
64912,25398
64918,25406
64924,25413
64929,25422
64933,25430
64936,25439
64939,25449
64940,25458
64940,25468
64940,25724
64940,25734
64939,25743
64936,25752
64933,25762
64929,25770
64924,25779
64918,25786
64912,25794
64904,25800
64897,25806
64888,25811
64880,25815
64871,25818
64861,25820
64852,25822
64842,25822
64488,25822
64478,25822
64468,25820
64459,25818
64450,25815
64441,25811
64433,25806
64425,25800
64418,25794
64412,25786
64406,25779
64401,25770
64397,25762
64394,25752
64391,25743
64390,25734
64389,25724
64389,25468
64390,25458
64391,25449
64394,25439
64397,25430
64401,25422
64406,25413
64412,25406
64418,25398
64425,25392
64433,25386
64441,25381
64450,25377
64459,25374
64468,25371
64478,25370
64488,25370
64842,25370
64852,25370
" /> 
<polyline style="fill-rule:evenodd;"
points="61604,26152
61613,26153
61623,26155
61632,26159
61640,26163
61649,26168
61656,26173
61664,26180
61670,26187
61676,26195
61681,26203
61685,26212
61688,26221
61691,26230
61692,26240
61692,26249
61692,26505
61692,26515
61691,26525
61688,26534
61685,26543
61681,26552
61676,26560
61670,26568
61664,26575
61656,26581
61649,26587
61640,26592
61632,26596
61623,26600
61613,26602
61604,26603
61594,26604
61240,26604
61230,26603
61220,26602
61211,26600
61202,26596
61193,26592
61185,26587
61177,26581
61170,26575
61164,26568
61158,26560
61153,26552
61149,26543
61145,26534
61143,26525
61142,26515
61141,26505
61141,26249
61142,26240
61143,26230
61145,26221
61149,26212
61153,26203
61158,26195
61164,26187
61170,26180
61177,26173
61185,26168
61193,26163
61202,26159
61211,26155
61220,26153
61230,26152
61240,26151
61594,26151
61604,26152
" /> 
<polyline style="fill-rule:evenodd;"
points="61604,25344
61613,25346
61623,25348
61632,25351
61640,25356
61649,25361
61656,25366
61664,25373
61670,25380
61676,25388
61681,25396
61685,25405
61688,25414
61691,25423
61692,25433
61692,25442
61692,25698
61692,25708
61691,25718
61688,25727
61685,25736
61681,25745
61676,25753
61670,25761
61664,25768
61656,25774
61649,25780
61640,25785
61632,25789
61623,25793
61613,25795
61604,25796
61594,25797
61240,25797
61230,25796
61220,25795
61211,25793
61202,25789
61193,25785
61185,25780
61177,25774
61170,25768
61164,25761
61158,25753
61153,25745
61149,25736
61145,25727
61143,25718
61142,25708
61141,25698
61141,25442
61142,25433
61143,25423
61145,25414
61149,25405
61153,25396
61158,25388
61164,25380
61170,25373
61177,25366
61185,25361
61193,25356
61202,25351
61211,25348
61220,25346
61230,25344
61240,25344
61594,25344
61604,25344
" /> 
<polyline style="fill-rule:evenodd;"
points="58159,26171
58168,26173
58178,26175
58187,26178
58196,26182
58204,26187
58212,26193
58219,26200
58225,26207
58231,26215
58236,26223
58240,26232
58243,26241
58246,26250
58247,26260
58248,26269
58248,26525
58247,26535
58246,26544
58243,26554
58240,26563
58236,26571
58231,26580
58225,26588
58219,26595
58212,26601
58204,26607
58196,26612
58187,26616
58178,26619
58168,26622
58159,26623
58149,26624
57795,26624
57785,26623
57776,26622
57766,26619
57757,26616
57748,26612
57740,26607
57732,26601
57725,26595
57719,26588
57713,26580
57708,26571
57704,26563
57701,26554
57698,26544
57697,26535
57696,26525
57696,26269
57697,26260
57698,26250
57701,26241
57704,26232
57708,26223
57713,26215
57719,26207
57725,26200
57732,26193
57740,26187
57748,26182
57757,26178
57766,26175
57776,26173
57785,26171
57795,26171
58149,26171
58159,26171
" /> 
<polyline style="fill-rule:evenodd;"
points="58159,25364
58168,25366
58178,25368
58187,25371
58196,25375
58204,25380
58212,25386
58219,25393
58225,25400
58231,25407
58236,25416
58240,25424
58243,25434
58246,25443
58247,25452
58248,25462
58248,25718
58247,25728
58246,25737
58243,25747
58240,25756
58236,25764
58231,25773
58225,25780
58219,25788
58212,25794
58204,25800
58196,25805
58187,25809
58178,25812
58168,25815
58159,25816
58149,25816
57795,25816
57785,25816
57776,25815
57766,25812
57757,25809
57748,25805
57740,25800
57732,25794
57725,25788
57719,25780
57713,25773
57708,25764
57704,25756
57701,25747
57698,25737
57697,25728
57696,25718
57696,25462
57697,25452
57698,25443
57701,25434
57704,25424
57708,25416
57713,25407
57719,25400
57725,25393
57732,25386
57740,25380
57748,25375
57757,25371
57766,25368
57776,25366
57785,25364
57795,25364
58149,25364
58159,25364
" /> 
<polyline style="fill-rule:evenodd;"
points="63966,26181
63975,26182
63985,26184
63994,26188
64003,26192
64011,26197
64019,26203
64026,26209
64032,26216
64038,26224
64043,26232
64047,26241
64050,26250
64053,26259
64054,26269
64055,26279
64055,26535
64054,26544
64053,26554
64050,26563
64047,26572
64043,26581
64038,26589
64032,26597
64026,26604
64019,26611
64011,26616
64003,26621
63994,26625
63985,26629
63975,26631
63966,26632
63956,26633
63602,26633
63592,26632
63583,26631
63573,26629
63564,26625
63555,26621
63547,26616
63539,26611
63532,26604
63526,26597
63520,26589
63515,26581
63511,26572
63508,26563
63505,26554
63504,26544
63503,26535
63503,26279
63504,26269
63505,26259
63508,26250
63511,26241
63515,26232
63520,26224
63526,26216
63532,26209
63539,26203
63547,26197
63555,26192
63564,26188
63573,26184
63583,26182
63592,26181
63602,26180
63956,26180
63966,26181
" /> 
<polyline style="fill-rule:evenodd;"
points="63966,25374
63975,25375
63985,25377
63994,25381
64003,25385
64011,25390
64019,25395
64026,25402
64032,25409
64038,25417
64043,25425
64047,25434
64050,25443
64053,25452
64054,25462
64055,25472
64055,25727
64054,25737
64053,25747
64050,25756
64047,25765
64043,25774
64038,25782
64032,25790
64026,25797
64019,25804
64011,25809
64003,25814
63994,25818
63985,25822
63975,25824
63966,25825
63956,25826
63602,25826
63592,25825
63583,25824
63573,25822
63564,25818
63555,25814
63547,25809
63539,25804
63532,25797
63526,25790
63520,25782
63515,25774
63511,25765
63508,25756
63505,25747
63504,25737
63503,25727
63503,25472
63504,25462
63505,25452
63508,25443
63511,25434
63515,25425
63520,25417
63526,25409
63532,25402
63539,25395
63547,25390
63555,25385
63564,25381
63573,25377
63583,25375
63592,25374
63602,25373
63956,25373
63966,25374
" /> 
<polyline style="fill-rule:evenodd;"
points="60619,26171
60629,26173
60638,26175
60647,26178
60656,26182
60664,26187
60672,26193
60679,26200
60686,26207
60692,26215
60697,26223
60701,26232
60704,26241
60706,26250
60708,26260
60708,26269
60708,26525
60708,26535
60706,26544
60704,26554
60701,26563
60697,26571
60692,26580
60686,26588
60679,26595
60672,26601
60664,26607
60656,26612
60647,26616
60638,26619
60629,26622
60619,26623
60610,26624
60255,26624
60246,26623
60236,26622
60227,26619
60218,26616
60209,26612
60201,26607
60193,26601
60186,26595
60179,26588
60174,26580
60169,26571
60164,26563
60161,26554
60159,26544
60157,26535
60157,26525
60157,26269
60157,26260
60159,26250
60161,26241
60164,26232
60169,26223
60174,26215
60179,26207
60186,26200
60193,26193
60201,26187
60209,26182
60218,26178
60227,26175
60236,26173
60246,26171
60255,26171
60610,26171
60619,26171
" /> 
<polyline style="fill-rule:evenodd;"
points="60619,25364
60629,25366
60638,25368
60647,25371
60656,25375
60664,25380
60672,25386
60679,25393
60686,25400
60692,25407
60697,25416
60701,25424
60704,25434
60706,25443
60708,25452
60708,25462
60708,25718
60708,25728
60706,25737
60704,25747
60701,25756
60697,25764
60692,25773
60686,25780
60679,25788
60672,25794
60664,25800
60656,25805
60647,25809
60638,25812
60629,25815
60619,25816
60610,25816
60255,25816
60246,25816
60236,25815
60227,25812
60218,25809
60209,25805
60201,25800
60193,25794
60186,25788
60179,25780
60174,25773
60169,25764
60164,25756
60161,25747
60159,25737
60157,25728
60157,25718
60157,25462
60157,25452
60159,25443
60161,25434
60164,25424
60169,25416
60174,25407
60179,25400
60186,25393
60193,25386
60201,25380
60209,25375
60218,25371
60227,25368
60236,25366
60246,25364
60255,25364
60610,25364
60619,25364
" /> 
<polyline style="fill-rule:evenodd;"
points="56879,26171
56889,26173
56898,26175
56907,26178
56916,26182
56924,26187
56932,26193
56939,26200
56946,26207
56951,26215
56956,26223
56961,26232
56964,26241
56966,26250
56968,26260
56968,26269
56968,26525
56968,26535
56966,26544
56964,26554
56961,26563
56956,26571
56951,26580
56946,26588
56939,26595
56932,26601
56924,26607
56916,26612
56907,26616
56898,26619
56889,26622
56879,26623
56870,26624
56515,26624
56506,26623
56496,26622
56487,26619
56478,26616
56469,26612
56461,26607
56453,26601
56446,26595
56439,26588
56433,26580
56428,26571
56424,26563
56421,26554
56419,26544
56417,26535
56417,26525
56417,26269
56417,26260
56419,26250
56421,26241
56424,26232
56428,26223
56433,26215
56439,26207
56446,26200
56453,26193
56461,26187
56469,26182
56478,26178
56487,26175
56496,26173
56506,26171
56515,26171
56870,26171
56879,26171
" /> 
<polyline style="fill-rule:evenodd;"
points="56879,25364
56889,25366
56898,25368
56907,25371
56916,25375
56924,25380
56932,25386
56939,25393
56946,25400
56951,25407
56956,25416
56961,25424
56964,25434
56966,25443
56968,25452
56968,25462
56968,25718
56968,25728
56966,25737
56964,25747
56961,25756
56956,25764
56951,25773
56946,25780
56939,25788
56932,25794
56924,25800
56916,25805
56907,25809
56898,25812
56889,25815
56879,25816
56870,25816
56515,25816
56506,25816
56496,25815
56487,25812
56478,25809
56469,25805
56461,25800
56453,25794
56446,25788
56439,25780
56433,25773
56428,25764
56424,25756
56421,25747
56419,25737
56417,25728
56417,25718
56417,25462
56417,25452
56419,25443
56421,25434
56424,25424
56428,25416
56433,25407
56439,25400
56446,25393
56453,25386
56461,25380
56469,25375
56478,25371
56487,25368
56496,25366
56506,25364
56515,25364
56870,25364
56879,25364
" /> 
<polyline style="fill-rule:evenodd;"
points="58700,30492
58228,30492
58228,30137
58700,30137
58700,30492
" /> 
<polyline style="fill-rule:evenodd;"
points="58700,31791
58228,31791
58228,31437
58700,31437
58700,31791
" /> 
<polyline style="fill-rule:evenodd;"
points="57736,30527
57263,30527
57263,30173
57736,30173
57736,30527
" /> 
<polyline style="fill-rule:evenodd;"
points="57736,31826
57263,31826
57263,31472
57736,31472
57736,31826
" /> 
<polyline style="fill-rule:evenodd;"
points="59212,31437
59685,31437
59685,31791
59212,31791
59212,31437
" /> 
<polyline style="fill-rule:evenodd;"
points="59212,30137
59685,30137
59685,30492
59212,30492
59212,30137
" /> 
<polyline style="fill-rule:evenodd;"
points="62409,31082
62409,28917
63590,28917
63590,31082
62409,31082
" /> 
<polyline style="fill-rule:evenodd;"
points="64259,31082
64259,28917
65440,28917
65440,31082
64259,31082
" /> 
<polyline style="fill-rule:evenodd;"
points="69686,31181
69696,31182
69705,31184
69714,31188
69723,31192
69731,31197
69739,31203
69746,31209
69753,31216
69759,31224
69763,31232
69768,31241
69771,31250
69773,31259
69775,31269
69775,31279
69775,31535
69775,31544
69773,31554
69771,31563
69768,31572
69763,31581
69759,31589
69753,31597
69746,31604
69739,31611
69731,31616
69723,31621
69714,31625
69705,31629
69696,31631
69686,31632
69677,31633
69322,31633
69313,31632
69303,31631
69294,31629
69285,31625
69276,31621
69268,31616
69260,31611
69253,31604
69246,31597
69240,31589
69236,31581
69231,31572
69228,31563
69226,31554
69224,31544
69224,31535
69224,31279
69224,31269
69226,31259
69228,31250
69231,31241
69236,31232
69240,31224
69246,31216
69253,31209
69260,31203
69268,31197
69276,31192
69285,31188
69294,31184
69303,31182
69313,31181
69322,31180
69677,31180
69686,31181
" /> 
<polyline style="fill-rule:evenodd;"
points="69686,30374
69696,30375
69705,30377
69714,30381
69723,30385
69731,30390
69739,30395
69746,30402
69753,30409
69759,30417
69763,30425
69768,30434
69771,30443
69773,30452
69775,30462
69775,30472
69775,30727
69775,30737
69773,30747
69771,30756
69768,30765
69763,30774
69759,30782
69753,30790
69746,30797
69739,30804
69731,30809
69723,30814
69714,30818
69705,30822
69696,30824
69686,30825
69677,30826
69322,30826
69313,30825
69303,30824
69294,30822
69285,30818
69276,30814
69268,30809
69260,30804
69253,30797
69246,30790
69240,30782
69236,30774
69231,30765
69228,30756
69226,30747
69224,30737
69224,30727
69224,30472
69224,30462
69226,30452
69228,30443
69231,30434
69236,30425
69240,30417
69246,30409
69253,30402
69260,30395
69268,30390
69276,30385
69285,30381
69294,30377
69303,30375
69313,30374
69322,30373
69677,30373
69686,30374
" /> 
<polyline style="fill-rule:evenodd;"
points="68186,31181
68196,31182
68205,31184
68214,31188
68223,31192
68231,31197
68239,31203
68246,31209
68253,31216
68259,31224
68263,31232
68268,31241
68271,31250
68273,31259
68275,31269
68275,31279
68275,31535
68275,31544
68273,31554
68271,31563
68268,31572
68263,31581
68259,31589
68253,31597
68246,31604
68239,31611
68231,31616
68223,31621
68214,31625
68205,31629
68196,31631
68186,31632
68177,31633
67822,31633
67813,31632
67803,31631
67794,31629
67785,31625
67776,31621
67768,31616
67760,31611
67753,31604
67746,31597
67740,31589
67736,31581
67731,31572
67728,31563
67726,31554
67724,31544
67724,31535
67724,31279
67724,31269
67726,31259
67728,31250
67731,31241
67736,31232
67740,31224
67746,31216
67753,31209
67760,31203
67768,31197
67776,31192
67785,31188
67794,31184
67803,31182
67813,31181
67822,31180
68177,31180
68186,31181
" /> 
<polyline style="fill-rule:evenodd;"
points="68186,30374
68196,30375
68205,30377
68214,30381
68223,30385
68231,30390
68239,30395
68246,30402
68253,30409
68259,30417
68263,30425
68268,30434
68271,30443
68273,30452
68275,30462
68275,30472
68275,30727
68275,30737
68273,30747
68271,30756
68268,30765
68263,30774
68259,30782
68253,30790
68246,30797
68239,30804
68231,30809
68223,30814
68214,30818
68205,30822
68196,30824
68186,30825
68177,30826
67822,30826
67813,30825
67803,30824
67794,30822
67785,30818
67776,30814
67768,30809
67760,30804
67753,30797
67746,30790
67740,30782
67736,30774
67731,30765
67728,30756
67726,30747
67724,30737
67724,30727
67724,30472
67724,30462
67726,30452
67728,30443
67731,30434
67736,30425
67740,30417
67746,30409
67753,30402
67760,30395
67768,30390
67776,30385
67785,30381
67794,30377
67803,30375
67813,30374
67822,30373
68177,30373
68186,30374
" /> 
<polyline style="fill-rule:evenodd;"
points="70181,24035
70418,24035
70418,24625
70181,24625
70181,24035
" /> 
<polyline style="fill-rule:evenodd;"
points="69681,24035
69918,24035
69918,24625
69681,24625
69681,24035
" /> 
<polyline style="fill-rule:evenodd;"
points="69181,24035
69418,24035
69418,24625
69181,24625
69181,24035
" /> 
<polyline style="fill-rule:evenodd;"
points="68681,24035
68918,24035
68918,24625
68681,24625
68681,24035
" /> 
<polyline style="fill-rule:evenodd;"
points="68181,24035
68418,24035
68418,24625
68181,24625
68181,24035
" /> 
<polyline style="fill-rule:evenodd;"
points="67681,24035
67918,24035
67918,24625
67681,24625
67681,24035
" /> 
<polyline style="fill-rule:evenodd;"
points="67181,24035
67418,24035
67418,24625
67181,24625
67181,24035
" /> 
<polyline style="fill-rule:evenodd;"
points="66681,24035
66918,24035
66918,24625
66681,24625
66681,24035
" /> 
<polyline style="fill-rule:evenodd;"
points="66681,20374
66918,20374
66918,20964
66681,20964
66681,20374
" /> 
<polyline style="fill-rule:evenodd;"
points="67181,20374
67418,20374
67418,20964
67181,20964
67181,20374
" /> 
<polyline style="fill-rule:evenodd;"
points="67681,20374
67918,20374
67918,20964
67681,20964
67681,20374
" /> 
<polyline style="fill-rule:evenodd;"
points="68181,20374
68418,20374
68418,20964
68181,20964
68181,20374
" /> 
<polyline style="fill-rule:evenodd;"
points="68681,20374
68918,20374
68918,20964
68681,20964
68681,20374
" /> 
<polyline style="fill-rule:evenodd;"
points="69181,20374
69418,20374
69418,20964
69181,20964
69181,20374
" /> 
<polyline style="fill-rule:evenodd;"
points="69681,20374
69918,20374
69918,20964
69681,20964
69681,20374
" /> 
<polyline style="fill-rule:evenodd;"
points="70181,20374
70418,20374
70418,20964
70181,20964
70181,20374
" /> 
</g> 
</svg>
