<?xml version="1.0" standalone="no"?>
 <!DOCTYPE svg PUBLIC "-//W3C//DTD SVG 1.1//EN" 
 "http://www.w3.org/Graphics/SVG/1.1/DTD/svg11.dtd"> 
<svg xmlns="http://www.w3.org/2000/svg" version="1.1" 
    width="29.7002cm" height="21.0007cm" viewBox="0 0 116930 82680 ">
<title>SVG Picture created as OTP-F.Cu.svg date 2019/03/13 10:22:54 </title>
  <desc>Picture generated by PCBNEW </desc>
<g style="fill:#000000; fill-opacity:1;stroke:#000000; stroke-opacity:1;
stroke-linecap:round; stroke-linejoin:round; "
 transform="translate(0 0) scale(1 1)">
</g>
<g style="fill:#000000; fill-opacity:0.0; 
stroke:#000000; stroke-width:-0.000393701; stroke-opacity:1; 
stroke-linecap:round; stroke-linejoin:round;">
</g>
<g style="fill:#000000; fill-opacity:0.0; 
stroke:#000000; stroke-width:118.11; stroke-opacity:1; 
stroke-linecap:round; stroke-linejoin:round;">
<path d="M36235 32353
L36122 32353
L36066 32381
L36010 32438
L35982 32550
L35982 32747
L36010 32859
L36066 32916
L36122 32944
L36235 32944
L36291 32916
L36347 32859
L36376 32747
L36376 32550
L36347 32438
L36291 32381
L36235 32353
" />
<path d="M35813 32353
L35476 32353
" />
<path d="M35644 32944
L35644 32353
" />
<path d="M35279 32944
L35279 32353
L35054 32353
L34998 32381
L34969 32410
L34941 32466
L34941 32550
L34969 32606
L34998 32634
L35054 32663
L35279 32663
" />
<path d="M34295 32550
L34154 32944
L34013 32550
" />
<path d="M33676 32353
L33620 32353
L33563 32381
L33535 32410
L33507 32466
L33479 32578
L33479 32719
L33507 32831
L33535 32888
L33563 32916
L33620 32944
L33676 32944
L33732 32916
L33760 32888
L33788 32831
L33816 32719
L33816 32578
L33788 32466
L33760 32410
L33732 32381
L33676 32353
" />
<path d="M32917 32944
L33254 32944
" />
<path d="M33085 32944
L33085 32353
L33142 32438
L33198 32494
L33254 32522
" />
</g>
<g style="fill:#000000; fill-opacity:0.0; 
stroke:#000000; stroke-width:0; stroke-opacity:1; 
stroke-linecap:round; stroke-linejoin:round;">
</g>
<g style="fill:#000000; fill-opacity:1.0; 
stroke:#000000; stroke-width:0; stroke-opacity:1; 
stroke-linecap:round; stroke-linejoin:round;">
<polyline style="fill-rule:evenodd;"
points="58898,20842
58819,20842
58819,21157
58898,21157
58898,20842
" /> 
<polyline style="fill-rule:evenodd;"
points="58701,20842
58622,20842
58622,21157
58701,21157
58701,20842
" /> 
<polyline style="fill-rule:evenodd;"
points="58504,20842
58426,20842
58426,21157
58504,21157
58504,20842
" /> 
<polyline style="fill-rule:evenodd;"
points="58307,20842
58229,20842
58229,21157
58307,21157
58307,20842
" /> 
<polyline style="fill-rule:evenodd;"
points="58111,20842
58032,20842
58032,21157
58111,21157
58111,20842
" /> 
<polyline style="fill-rule:evenodd;"
points="57914,20842
57835,20842
57835,21157
57914,21157
57914,20842
" /> 
<polyline style="fill-rule:evenodd;"
points="57717,20842
57638,20842
57638,21157
57717,21157
57717,20842
" /> 
<polyline style="fill-rule:evenodd;"
points="57520,20842
57441,20842
57441,21157
57520,21157
57520,20842
" /> 
<polyline style="fill-rule:evenodd;"
points="57323,20842
57244,20842
57244,21157
57323,21157
57323,20842
" /> 
<polyline style="fill-rule:evenodd;"
points="57126,20842
57048,20842
57048,21157
57126,21157
57126,20842
" /> 
<polyline style="fill-rule:evenodd;"
points="56930,20842
56851,20842
56851,21157
56930,21157
56930,20842
" /> 
<polyline style="fill-rule:evenodd;"
points="56733,20842
56654,20842
56654,21157
56733,21157
56733,20842
" /> 
<polyline style="fill-rule:evenodd;"
points="56536,20842
56457,20842
56457,21157
56536,21157
56536,20842
" /> 
<polyline style="fill-rule:evenodd;"
points="56339,20842
56260,20842
56260,21157
56339,21157
56339,20842
" /> 
<polyline style="fill-rule:evenodd;"
points="56142,20842
56063,20842
56063,21157
56142,21157
56142,20842
" /> 
<polyline style="fill-rule:evenodd;"
points="55945,20842
55867,20842
55867,21157
55945,21157
55945,20842
" /> 
<polyline style="fill-rule:evenodd;"
points="55748,20842
55670,20842
55670,21157
55748,21157
55748,20842
" /> 
<polyline style="fill-rule:evenodd;"
points="55552,20842
55473,20842
55473,21157
55552,21157
55552,20842
" /> 
<polyline style="fill-rule:evenodd;"
points="55355,20842
55276,20842
55276,21157
55355,21157
55355,20842
" /> 
<polyline style="fill-rule:evenodd;"
points="55158,20842
55079,20842
55079,21157
55158,21157
55158,20842
" /> 
<polyline style="fill-rule:evenodd;"
points="54961,20842
54882,20842
54882,21157
54961,21157
54961,20842
" /> 
<polyline style="fill-rule:evenodd;"
points="54764,20842
54685,20842
54685,21157
54764,21157
54764,20842
" /> 
<polyline style="fill-rule:evenodd;"
points="54567,20842
54489,20842
54489,21157
54567,21157
54567,20842
" /> 
<polyline style="fill-rule:evenodd;"
points="44972,33444
45287,33444
45287,33090
44972,33090
44972,33444
" /> 
<polyline style="fill-rule:evenodd;"
points="44598,34232
44913,34232
44913,33877
44598,33877
44598,34232
" /> 
<polyline style="fill-rule:evenodd;"
points="45346,34232
45661,34232
45661,33877
45346,33877
45346,34232
" /> 
<polyline style="fill-rule:evenodd;"
points="50213,33157
50213,32842
49859,32842
49859,33157
50213,33157
" /> 
<polyline style="fill-rule:evenodd;"
points="51000,33531
51000,33216
50646,33216
50646,33531
51000,33531
" /> 
<polyline style="fill-rule:evenodd;"
points="51000,32783
51000,32468
50646,32468
50646,32783
51000,32783
" /> 
<circle cx="31330" cy="26350.4" r="300" /> 
</g>
<g style="fill:#000000; fill-opacity:1.0; 
stroke:#000000; stroke-width:39.3701; stroke-opacity:1; 
stroke-linecap:round; stroke-linejoin:round;">
</g>
<g style="fill:#000000; fill-opacity:1.0; 
stroke:#000000; stroke-width:0; stroke-opacity:1; 
stroke-linecap:round; stroke-linejoin:round;">
<circle cx="31330" cy="29500" r="300" /> 
</g>
<g style="fill:#000000; fill-opacity:1.0; 
stroke:#000000; stroke-width:39.3701; stroke-opacity:1; 
stroke-linecap:round; stroke-linejoin:round;">
</g>
<g style="fill:#000000; fill-opacity:1.0; 
stroke:#000000; stroke-width:0; stroke-opacity:1; 
stroke-linecap:round; stroke-linejoin:round;">
<circle cx="46063.9" cy="29133.9" r="300" /> 
</g>
<g style="fill:#000000; fill-opacity:1.0; 
stroke:#000000; stroke-width:39.3701; stroke-opacity:1; 
stroke-linecap:round; stroke-linejoin:round;">
</g>
<g style="fill:#000000; fill-opacity:1.0; 
stroke:#000000; stroke-width:0; stroke-opacity:1; 
stroke-linecap:round; stroke-linejoin:round;">
<circle cx="38189.8" cy="29133.9" r="300" /> 
</g>
<g style="fill:#000000; fill-opacity:1.0; 
stroke:#000000; stroke-width:39.3701; stroke-opacity:1; 
stroke-linecap:round; stroke-linejoin:round;">
</g>
<g style="fill:#000000; fill-opacity:1.0; 
stroke:#000000; stroke-width:0; stroke-opacity:1; 
stroke-linecap:round; stroke-linejoin:round;">
<polyline style="fill-rule:evenodd;"
points="54341,26171
54332,26173
54322,26175
54313,26178
54304,26182
54296,26187
54288,26193
54281,26200
54275,26207
54269,26215
54264,26223
54260,26232
54257,26241
54254,26250
54253,26260
54252,26269
54252,26525
54253,26535
54254,26544
54257,26554
54260,26563
54264,26571
54269,26580
54275,26588
54281,26595
54288,26601
54296,26607
54304,26612
54313,26616
54322,26619
54332,26622
54341,26623
54351,26624
54705,26624
54715,26623
54724,26622
54734,26619
54743,26616
54751,26612
54760,26607
54768,26601
54775,26595
54781,26588
54787,26580
54792,26571
54796,26563
54799,26554
54802,26544
54803,26535
54804,26525
54804,26269
54803,26260
54802,26250
54799,26241
54796,26232
54792,26223
54787,26215
54781,26207
54775,26200
54768,26193
54760,26187
54751,26182
54743,26178
54734,26175
54724,26173
54715,26171
54705,26171
54351,26171
54341,26171
" /> 
<polyline style="fill-rule:evenodd;"
points="54341,25364
54332,25366
54322,25368
54313,25371
54304,25375
54296,25380
54288,25386
54281,25393
54275,25400
54269,25407
54264,25416
54260,25424
54257,25434
54254,25443
54253,25452
54252,25462
54252,25718
54253,25728
54254,25737
54257,25747
54260,25756
54264,25764
54269,25773
54275,25780
54281,25788
54288,25794
54296,25800
54304,25805
54313,25809
54322,25812
54332,25815
54341,25816
54351,25816
54705,25816
54715,25816
54724,25815
54734,25812
54743,25809
54751,25805
54760,25800
54768,25794
54775,25788
54781,25780
54787,25773
54792,25764
54796,25756
54799,25747
54802,25737
54803,25728
54804,25718
54804,25462
54803,25452
54802,25443
54799,25434
54796,25424
54792,25416
54787,25407
54781,25400
54775,25393
54768,25386
54760,25380
54751,25375
54743,25371
54734,25368
54724,25366
54715,25364
54705,25364
54351,25364
54341,25364
" /> 
<polyline style="fill-rule:evenodd;"
points="54587,31811
54578,31812
54568,31815
54559,31818
54550,31822
54542,31827
54534,31833
54527,31839
54521,31847
54515,31854
54510,31863
54506,31871
54503,31880
54500,31890
54499,31899
54498,31909
54498,32263
54499,32273
54500,32282
54503,32292
54506,32301
54510,32310
54515,32318
54521,32326
54527,32333
54534,32339
54542,32345
54550,32350
54559,32354
54568,32357
54578,32360
54587,32361
54597,32362
54853,32362
54862,32361
54872,32360
54881,32357
54890,32354
54899,32350
54907,32345
54915,32339
54922,32333
54929,32326
54935,32318
54940,32310
54944,32301
54947,32292
54949,32282
54951,32273
54951,32263
54951,31909
54951,31899
54949,31890
54947,31880
54944,31871
54940,31863
54935,31854
54929,31847
54922,31839
54915,31833
54907,31827
54899,31822
54890,31818
54881,31815
54872,31812
54862,31811
54853,31811
54597,31811
54587,31811
" /> 
<polyline style="fill-rule:evenodd;"
points="55394,31811
55385,31812
55375,31815
55366,31818
55358,31822
55349,31827
55341,31833
55334,31839
55328,31847
55322,31854
55317,31863
55313,31871
55310,31880
55307,31890
55306,31899
55305,31909
55305,32263
55306,32273
55307,32282
55310,32292
55313,32301
55317,32310
55322,32318
55328,32326
55334,32333
55341,32339
55349,32345
55358,32350
55366,32354
55375,32357
55385,32360
55394,32361
55404,32362
55660,32362
55669,32361
55679,32360
55688,32357
55697,32354
55706,32350
55714,32345
55722,32339
55729,32333
55736,32326
55742,32318
55747,32310
55751,32301
55754,32292
55756,32282
55758,32273
55758,32263
55758,31909
55758,31899
55756,31890
55754,31880
55751,31871
55747,31863
55742,31854
55736,31847
55729,31839
55722,31833
55714,31827
55706,31822
55697,31818
55688,31815
55679,31812
55669,31811
55660,31811
55404,31811
55394,31811
" /> 
<polyline style="fill-rule:evenodd;"
points="55719,28514
55710,28515
55700,28518
55691,28521
55682,28525
55674,28530
55666,28536
55659,28542
55653,28549
55647,28557
55642,28565
55638,28574
55635,28583
55632,28593
55631,28602
55630,28612
55630,28868
55631,28877
55632,28887
55635,28896
55638,28905
55642,28914
55647,28922
55653,28930
55659,28937
55666,28944
55674,28949
55682,28954
55691,28959
55700,28962
55710,28964
55719,28966
55729,28966
56083,28966
56093,28966
56102,28964
56112,28962
56121,28959
56129,28954
56138,28949
56145,28944
56153,28937
56159,28930
56165,28922
56170,28914
56174,28905
56177,28896
56180,28887
56181,28877
56181,28868
56181,28612
56181,28602
56180,28593
56177,28583
56174,28574
56170,28565
56165,28557
56159,28549
56153,28542
56145,28536
56138,28530
56129,28525
56121,28521
56112,28518
56102,28515
56093,28514
56083,28513
55729,28513
55719,28514
" /> 
<polyline style="fill-rule:evenodd;"
points="55719,29321
55710,29322
55700,29325
55691,29328
55682,29332
55674,29337
55666,29343
55659,29349
55653,29356
55647,29364
55642,29372
55638,29381
55635,29390
55632,29400
55631,29409
55630,29419
55630,29675
55631,29684
55632,29694
55635,29703
55638,29712
55642,29721
55647,29729
55653,29737
55659,29744
55666,29751
55674,29757
55682,29762
55691,29766
55700,29769
55710,29771
55719,29773
55729,29773
56083,29773
56093,29773
56102,29771
56112,29769
56121,29766
56129,29762
56138,29757
56145,29751
56153,29744
56159,29737
56165,29729
56170,29721
56174,29712
56177,29703
56180,29694
56181,29684
56181,29675
56181,29419
56181,29409
56180,29400
56177,29390
56174,29381
56170,29372
56165,29364
56159,29356
56153,29349
56145,29343
56138,29337
56129,29332
56121,29328
56112,29325
56102,29322
56093,29321
56083,29320
55729,29320
55719,29321
" /> 
<polyline style="fill-rule:evenodd;"
points="51880,33258
51871,33259
51862,33262
51852,33265
51844,33269
51835,33274
51828,33280
51821,33286
51814,33293
51808,33301
51803,33309
51799,33318
51796,33327
51794,33337
51792,33346
51792,33356
51792,33612
51792,33621
51794,33631
51796,33640
51799,33649
51803,33658
51808,33666
51814,33674
51821,33681
51828,33688
51835,33694
51844,33699
51852,33703
51862,33706
51871,33708
51880,33710
51890,33710
52244,33710
52254,33710
52264,33708
52273,33706
52282,33703
52291,33699
52299,33694
52307,33688
52314,33681
52321,33674
52326,33666
52331,33658
52335,33649
52339,33640
52341,33631
52342,33621
52343,33612
52343,33356
52342,33346
52341,33337
52339,33327
52335,33318
52331,33309
52326,33301
52321,33293
52314,33286
52307,33280
52299,33274
52291,33269
52282,33265
52273,33262
52264,33259
52254,33258
52244,33257
51890,33257
51880,33258
" /> 
<polyline style="fill-rule:evenodd;"
points="51880,32451
51871,32452
51862,32455
51852,32458
51844,32462
51835,32467
51828,32473
51821,32479
51814,32486
51808,32494
51803,32502
51799,32511
51796,32520
51794,32530
51792,32539
51792,32549
51792,32805
51792,32814
51794,32824
51796,32833
51799,32842
51803,32851
51808,32859
51814,32867
51821,32874
51828,32881
51835,32886
51844,32891
51852,32896
51862,32899
51871,32901
51880,32903
51890,32903
52244,32903
52254,32903
52264,32901
52273,32899
52282,32896
52291,32891
52299,32886
52307,32881
52314,32874
52321,32867
52326,32859
52331,32851
52335,32842
52339,32833
52341,32824
52342,32814
52343,32805
52343,32549
52342,32539
52341,32530
52339,32520
52335,32511
52331,32502
52326,32494
52321,32486
52314,32479
52307,32473
52299,32467
52291,32462
52282,32458
52273,32455
52264,32452
52254,32451
52244,32450
51890,32450
51880,32451
" /> 
<polyline style="fill-rule:evenodd;"
points="57294,26171
57284,26173
57275,26175
57266,26178
57257,26182
57249,26187
57241,26193
57234,26200
57227,26207
57222,26215
57217,26223
57213,26232
57209,26241
57207,26250
57206,26260
57205,26269
57205,26525
57206,26535
57207,26544
57209,26554
57213,26563
57217,26571
57222,26580
57227,26588
57234,26595
57241,26601
57249,26607
57257,26612
57266,26616
57275,26619
57284,26622
57294,26623
57304,26624
57658,26624
57667,26623
57677,26622
57686,26619
57696,26616
57704,26612
57713,26607
57720,26601
57727,26595
57734,26588
57740,26580
57745,26571
57749,26563
57752,26554
57754,26544
57756,26535
57756,26525
57756,26269
57756,26260
57754,26250
57752,26241
57749,26232
57745,26223
57740,26215
57734,26207
57727,26200
57720,26193
57713,26187
57704,26182
57696,26178
57686,26175
57677,26173
57667,26171
57658,26171
57304,26171
57294,26171
" /> 
<polyline style="fill-rule:evenodd;"
points="57294,25364
57284,25366
57275,25368
57266,25371
57257,25375
57249,25380
57241,25386
57234,25393
57227,25400
57222,25407
57217,25416
57213,25424
57209,25434
57207,25443
57206,25452
57205,25462
57205,25718
57206,25728
57207,25737
57209,25747
57213,25756
57217,25764
57222,25773
57227,25780
57234,25788
57241,25794
57249,25800
57257,25805
57266,25809
57275,25812
57284,25815
57294,25816
57304,25816
57658,25816
57667,25816
57677,25815
57686,25812
57696,25809
57704,25805
57713,25800
57720,25794
57727,25788
57734,25780
57740,25773
57745,25764
57749,25756
57752,25747
57754,25737
57756,25728
57756,25718
57756,25462
57756,25452
57754,25443
57752,25434
57749,25424
57745,25416
57740,25407
57734,25400
57727,25393
57720,25386
57713,25380
57704,25375
57696,25371
57686,25368
57677,25366
57667,25364
57658,25364
57304,25364
57294,25364
" /> 
<polyline style="fill-rule:evenodd;"
points="61034,26177
61024,26179
61015,26181
61006,26184
60997,26188
60989,26193
60981,26199
60974,26205
60968,26213
60962,26220
60957,26229
60953,26237
60949,26247
60947,26256
60946,26265
60945,26275
60945,26531
60946,26541
60947,26550
60949,26560
60953,26569
60957,26577
60962,26586
60968,26593
60974,26601
60981,26607
60989,26613
60997,26618
61006,26622
61015,26625
61024,26628
61034,26629
61044,26629
61398,26629
61408,26629
61417,26628
61427,26625
61436,26622
61444,26618
61453,26613
61460,26607
61468,26601
61474,26593
61480,26586
61485,26577
61489,26569
61492,26560
61495,26550
61496,26541
61496,26531
61496,26275
61496,26265
61495,26256
61492,26247
61489,26237
61485,26229
61480,26220
61474,26213
61468,26205
61460,26199
61453,26193
61444,26188
61436,26184
61427,26181
61417,26179
61408,26177
61398,26177
61044,26177
61034,26177
" /> 
<polyline style="fill-rule:evenodd;"
points="61034,25370
61024,25371
61015,25374
61006,25377
60997,25381
60989,25386
60981,25392
60974,25398
60968,25406
60962,25413
60957,25422
60953,25430
60949,25439
60947,25449
60946,25458
60945,25468
60945,25724
60946,25734
60947,25743
60949,25752
60953,25762
60957,25770
60962,25779
60968,25786
60974,25794
60981,25800
60989,25806
60997,25811
61006,25815
61015,25818
61024,25820
61034,25822
61044,25822
61398,25822
61408,25822
61417,25820
61427,25818
61436,25815
61444,25811
61453,25806
61460,25800
61468,25794
61474,25786
61480,25779
61485,25770
61489,25762
61492,25752
61495,25743
61496,25734
61496,25724
61496,25468
61496,25458
61495,25449
61492,25439
61489,25430
61485,25422
61480,25413
61474,25406
61468,25398
61460,25392
61453,25386
61444,25381
61436,25377
61427,25374
61417,25371
61408,25370
61398,25370
61044,25370
61034,25370
" /> 
<polyline style="fill-rule:evenodd;"
points="52077,26177
52068,26179
52058,26181
52049,26184
52041,26188
52032,26193
52025,26199
52017,26205
52011,26213
52005,26220
52000,26229
51996,26237
51993,26247
51990,26256
51989,26265
51989,26275
51989,26531
51989,26541
51990,26550
51993,26560
51996,26569
52000,26577
52005,26586
52011,26593
52017,26601
52025,26607
52032,26613
52041,26618
52049,26622
52058,26625
52068,26628
52077,26629
52087,26629
52441,26629
52451,26629
52461,26628
52470,26625
52479,26622
52488,26618
52496,26613
52504,26607
52511,26601
52517,26593
52523,26586
52528,26577
52532,26569
52535,26560
52538,26550
52539,26541
52540,26531
52540,26275
52539,26265
52538,26256
52535,26247
52532,26237
52528,26229
52523,26220
52517,26213
52511,26205
52504,26199
52496,26193
52488,26188
52479,26184
52470,26181
52461,26179
52451,26177
52441,26177
52087,26177
52077,26177
" /> 
<polyline style="fill-rule:evenodd;"
points="52077,25370
52068,25371
52058,25374
52049,25377
52041,25381
52032,25386
52025,25392
52017,25398
52011,25406
52005,25413
52000,25422
51996,25430
51993,25439
51990,25449
51989,25458
51989,25468
51989,25724
51989,25734
51990,25743
51993,25752
51996,25762
52000,25770
52005,25779
52011,25786
52017,25794
52025,25800
52032,25806
52041,25811
52049,25815
52058,25818
52068,25820
52077,25822
52087,25822
52441,25822
52451,25822
52461,25820
52470,25818
52479,25815
52488,25811
52496,25806
52504,25800
52511,25794
52517,25786
52523,25779
52528,25770
52532,25762
52535,25752
52538,25743
52539,25734
52540,25724
52540,25468
52539,25458
52538,25449
52535,25439
52532,25430
52528,25422
52523,25413
52517,25406
52511,25398
52504,25392
52496,25386
52488,25381
52479,25377
52470,25374
52461,25371
52451,25370
52441,25370
52087,25370
52077,25370
" /> 
<polyline style="fill-rule:evenodd;"
points="55325,26152
55316,26153
55306,26155
55297,26159
55289,26163
55280,26168
55273,26173
55265,26180
55259,26187
55253,26195
55248,26203
55244,26212
55241,26221
55238,26230
55237,26240
55237,26249
55237,26505
55237,26515
55238,26525
55241,26534
55244,26543
55248,26552
55253,26560
55259,26568
55265,26575
55273,26581
55280,26587
55289,26592
55297,26596
55306,26600
55316,26602
55325,26603
55335,26604
55689,26604
55699,26603
55709,26602
55718,26600
55727,26596
55736,26592
55744,26587
55752,26581
55759,26575
55765,26568
55771,26560
55776,26552
55780,26543
55784,26534
55786,26525
55787,26515
55788,26505
55788,26249
55787,26240
55786,26230
55784,26221
55780,26212
55776,26203
55771,26195
55765,26187
55759,26180
55752,26173
55744,26168
55736,26163
55727,26159
55718,26155
55709,26153
55699,26152
55689,26151
55335,26151
55325,26152
" /> 
<polyline style="fill-rule:evenodd;"
points="55325,25344
55316,25346
55306,25348
55297,25351
55289,25356
55280,25361
55273,25366
55265,25373
55259,25380
55253,25388
55248,25396
55244,25405
55241,25414
55238,25423
55237,25433
55237,25442
55237,25698
55237,25708
55238,25718
55241,25727
55244,25736
55248,25745
55253,25753
55259,25761
55265,25768
55273,25774
55280,25780
55289,25785
55297,25789
55306,25793
55316,25795
55325,25796
55335,25797
55689,25797
55699,25796
55709,25795
55718,25793
55727,25789
55736,25785
55744,25780
55752,25774
55759,25768
55765,25761
55771,25753
55776,25745
55780,25736
55784,25727
55786,25718
55787,25708
55788,25698
55788,25442
55787,25433
55786,25423
55784,25414
55780,25405
55776,25396
55771,25388
55765,25380
55759,25373
55752,25366
55744,25361
55736,25356
55727,25351
55718,25348
55709,25346
55699,25344
55689,25344
55335,25344
55325,25344
" /> 
<polyline style="fill-rule:evenodd;"
points="60050,19872
60040,19873
60031,19876
60022,19879
60013,19883
60005,19888
59997,19894
59990,19900
59983,19908
59978,19915
59973,19924
59968,19932
59965,19941
59963,19951
59961,19960
59961,19970
59961,20226
59961,20236
59963,20245
59965,20254
59968,20264
59973,20272
59978,20281
59983,20288
59990,20295
59997,20302
60005,20308
60013,20313
60022,20317
60031,20320
60040,20322
60050,20324
60059,20324
60414,20324
60423,20324
60433,20322
60442,20320
60451,20317
60460,20313
60468,20308
60476,20302
60483,20295
60490,20288
60496,20281
60501,20272
60505,20264
60508,20254
60510,20245
60512,20236
60512,20226
60512,19970
60512,19960
60510,19951
60508,19941
60505,19932
60501,19924
60496,19915
60490,19908
60483,19900
60476,19894
60468,19888
60460,19883
60451,19879
60442,19876
60433,19873
60423,19872
60414,19872
60059,19872
60050,19872
" /> 
<polyline style="fill-rule:evenodd;"
points="60050,19065
60040,19066
60031,19069
60022,19072
60013,19076
60005,19081
59997,19087
59990,19093
59983,19100
59978,19108
59973,19116
59968,19125
59965,19134
59963,19144
59961,19153
59961,19163
59961,19419
59961,19428
59963,19438
59965,19447
59968,19456
59973,19465
59978,19473
59983,19481
59990,19488
59997,19495
60005,19501
60013,19506
60022,19510
60031,19513
60040,19515
60050,19517
60059,19517
60414,19517
60423,19517
60433,19515
60442,19513
60451,19510
60460,19506
60468,19501
60476,19495
60483,19488
60490,19481
60496,19473
60501,19465
60505,19456
60508,19447
60510,19438
60512,19428
60512,19419
60512,19163
60512,19153
60510,19144
60508,19134
60505,19125
60501,19116
60496,19108
60490,19100
60483,19093
60476,19087
60468,19081
60460,19076
60451,19072
60442,19069
60433,19066
60423,19065
60414,19064
60059,19064
60050,19065
" /> 
<polyline style="fill-rule:evenodd;"
points="52963,26181
52954,26182
52944,26184
52935,26188
52926,26192
52918,26197
52910,26203
52903,26209
52897,26216
52891,26224
52886,26232
52882,26241
52879,26250
52876,26259
52875,26269
52874,26279
52874,26535
52875,26544
52876,26554
52879,26563
52882,26572
52886,26581
52891,26589
52897,26597
52903,26604
52910,26611
52918,26616
52926,26621
52935,26625
52944,26629
52954,26631
52963,26632
52973,26633
53327,26633
53337,26632
53346,26631
53356,26629
53365,26625
53374,26621
53382,26616
53390,26611
53397,26604
53403,26597
53409,26589
53414,26581
53418,26572
53421,26563
53424,26554
53425,26544
53426,26535
53426,26279
53425,26269
53424,26259
53421,26250
53418,26241
53414,26232
53409,26224
53403,26216
53397,26209
53390,26203
53382,26197
53374,26192
53365,26188
53356,26184
53346,26182
53337,26181
53327,26180
52973,26180
52963,26181
" /> 
<polyline style="fill-rule:evenodd;"
points="52963,25374
52954,25375
52944,25377
52935,25381
52926,25385
52918,25390
52910,25395
52903,25402
52897,25409
52891,25417
52886,25425
52882,25434
52879,25443
52876,25452
52875,25462
52874,25472
52874,25727
52875,25737
52876,25747
52879,25756
52882,25765
52886,25774
52891,25782
52897,25790
52903,25797
52910,25804
52918,25809
52926,25814
52935,25818
52944,25822
52954,25824
52963,25825
52973,25826
53327,25826
53337,25825
53346,25824
53356,25822
53365,25818
53374,25814
53382,25809
53390,25804
53397,25797
53403,25790
53409,25782
53414,25774
53418,25765
53421,25756
53424,25747
53425,25737
53426,25727
53426,25472
53425,25462
53424,25452
53421,25443
53418,25434
53414,25425
53409,25417
53403,25409
53397,25402
53390,25395
53382,25390
53374,25385
53365,25381
53356,25377
53346,25375
53337,25374
53327,25373
52973,25373
52963,25374
" /> 
<polyline style="fill-rule:evenodd;"
points="56310,26171
56300,26173
56291,26175
56282,26178
56273,26182
56265,26187
56257,26193
56250,26200
56243,26207
56237,26215
56232,26223
56228,26232
56225,26241
56223,26250
56221,26260
56221,26269
56221,26525
56221,26535
56223,26544
56225,26554
56228,26563
56232,26571
56237,26580
56243,26588
56250,26595
56257,26601
56265,26607
56273,26612
56282,26616
56291,26619
56300,26622
56310,26623
56319,26624
56674,26624
56683,26623
56693,26622
56702,26619
56711,26616
56720,26612
56728,26607
56736,26601
56743,26595
56750,26588
56755,26580
56760,26571
56765,26563
56768,26554
56770,26544
56772,26535
56772,26525
56772,26269
56772,26260
56770,26250
56768,26241
56765,26232
56760,26223
56755,26215
56750,26207
56743,26200
56736,26193
56728,26187
56720,26182
56711,26178
56702,26175
56693,26173
56683,26171
56674,26171
56319,26171
56310,26171
" /> 
<polyline style="fill-rule:evenodd;"
points="56310,25364
56300,25366
56291,25368
56282,25371
56273,25375
56265,25380
56257,25386
56250,25393
56243,25400
56237,25407
56232,25416
56228,25424
56225,25434
56223,25443
56221,25452
56221,25462
56221,25718
56221,25728
56223,25737
56225,25747
56228,25756
56232,25764
56237,25773
56243,25780
56250,25788
56257,25794
56265,25800
56273,25805
56282,25809
56291,25812
56300,25815
56310,25816
56319,25816
56674,25816
56683,25816
56693,25815
56702,25812
56711,25809
56720,25805
56728,25800
56736,25794
56743,25788
56750,25780
56755,25773
56760,25764
56765,25756
56768,25747
56770,25737
56772,25728
56772,25718
56772,25462
56772,25452
56770,25443
56768,25434
56765,25424
56760,25416
56755,25407
56750,25400
56743,25393
56736,25386
56728,25380
56720,25375
56711,25371
56702,25368
56693,25366
56683,25364
56674,25364
56319,25364
56310,25364
" /> 
<polyline style="fill-rule:evenodd;"
points="59853,26171
59843,26173
59834,26175
59825,26178
59816,26182
59808,26187
59800,26193
59793,26200
59786,26207
59781,26215
59776,26223
59772,26232
59768,26241
59766,26250
59765,26260
59764,26269
59764,26525
59765,26535
59766,26544
59768,26554
59772,26563
59776,26571
59781,26580
59786,26588
59793,26595
59800,26601
59808,26607
59816,26612
59825,26616
59834,26619
59843,26622
59853,26623
59863,26624
60217,26624
60227,26623
60236,26622
60245,26619
60255,26616
60263,26612
60272,26607
60279,26601
60286,26595
60293,26588
60299,26580
60304,26571
60308,26563
60311,26554
60313,26544
60315,26535
60315,26525
60315,26269
60315,26260
60313,26250
60311,26241
60308,26232
60304,26223
60299,26215
60293,26207
60286,26200
60279,26193
60272,26187
60263,26182
60255,26178
60245,26175
60236,26173
60227,26171
60217,26171
59863,26171
59853,26171
" /> 
<polyline style="fill-rule:evenodd;"
points="59853,25364
59843,25366
59834,25368
59825,25371
59816,25375
59808,25380
59800,25386
59793,25393
59786,25400
59781,25407
59776,25416
59772,25424
59768,25434
59766,25443
59765,25452
59764,25462
59764,25718
59765,25728
59766,25737
59768,25747
59772,25756
59776,25764
59781,25773
59786,25780
59793,25788
59800,25794
59808,25800
59816,25805
59825,25809
59834,25812
59843,25815
59853,25816
59863,25816
60217,25816
60227,25816
60236,25815
60245,25812
60255,25809
60263,25805
60272,25800
60279,25794
60286,25788
60293,25780
60299,25773
60304,25764
60308,25756
60311,25747
60313,25737
60315,25728
60315,25718
60315,25462
60315,25452
60313,25443
60311,25434
60308,25424
60304,25416
60299,25407
60293,25400
60286,25393
60279,25386
60272,25380
60263,25375
60255,25371
60245,25368
60236,25366
60227,25364
60217,25364
59863,25364
59853,25364
" /> 
<polyline style="fill-rule:evenodd;"
points="58229,30492
58701,30492
58701,30137
58229,30137
58229,30492
" /> 
<polyline style="fill-rule:evenodd;"
points="58229,31791
58701,31791
58701,31437
58229,31437
58229,31791
" /> 
<polyline style="fill-rule:evenodd;"
points="59193,30527
59666,30527
59666,30173
59193,30173
59193,30527
" /> 
<polyline style="fill-rule:evenodd;"
points="59193,31826
59666,31826
59666,31472
59193,31472
59193,31826
" /> 
<polyline style="fill-rule:evenodd;"
points="57717,31437
57244,31437
57244,31791
57717,31791
57717,31437
" /> 
<polyline style="fill-rule:evenodd;"
points="57717,30137
57244,30137
57244,30492
57717,30492
57717,30137
" /> 
<polyline style="fill-rule:evenodd;"
points="54520,31082
54520,28917
53339,28917
53339,31082
54520,31082
" /> 
<polyline style="fill-rule:evenodd;"
points="52670,31082
52670,28917
51489,28917
51489,31082
52670,31082
" /> 
<polyline style="fill-rule:evenodd;"
points="47243,31181
47233,31182
47224,31184
47215,31188
47206,31192
47198,31197
47190,31203
47183,31209
47176,31216
47170,31224
47166,31232
47161,31241
47158,31250
47156,31259
47154,31269
47154,31279
47154,31535
47154,31544
47156,31554
47158,31563
47161,31572
47166,31581
47170,31589
47176,31597
47183,31604
47190,31611
47198,31616
47206,31621
47215,31625
47224,31629
47233,31631
47243,31632
47252,31633
47607,31633
47616,31632
47626,31631
47635,31629
47644,31625
47653,31621
47661,31616
47669,31611
47676,31604
47683,31597
47689,31589
47693,31581
47698,31572
47701,31563
47703,31554
47705,31544
47705,31535
47705,31279
47705,31269
47703,31259
47701,31250
47698,31241
47693,31232
47689,31224
47683,31216
47676,31209
47669,31203
47661,31197
47653,31192
47644,31188
47635,31184
47626,31182
47616,31181
47607,31180
47252,31180
47243,31181
" /> 
<polyline style="fill-rule:evenodd;"
points="47243,30374
47233,30375
47224,30377
47215,30381
47206,30385
47198,30390
47190,30395
47183,30402
47176,30409
47170,30417
47166,30425
47161,30434
47158,30443
47156,30452
47154,30462
47154,30472
47154,30727
47154,30737
47156,30747
47158,30756
47161,30765
47166,30774
47170,30782
47176,30790
47183,30797
47190,30804
47198,30809
47206,30814
47215,30818
47224,30822
47233,30824
47243,30825
47252,30826
47607,30826
47616,30825
47626,30824
47635,30822
47644,30818
47653,30814
47661,30809
47669,30804
47676,30797
47683,30790
47689,30782
47693,30774
47698,30765
47701,30756
47703,30747
47705,30737
47705,30727
47705,30472
47705,30462
47703,30452
47701,30443
47698,30434
47693,30425
47689,30417
47683,30409
47676,30402
47669,30395
47661,30390
47653,30385
47644,30381
47635,30377
47626,30375
47616,30374
47607,30373
47252,30373
47243,30374
" /> 
<polyline style="fill-rule:evenodd;"
points="48743,31181
48733,31182
48724,31184
48715,31188
48706,31192
48698,31197
48690,31203
48683,31209
48676,31216
48670,31224
48666,31232
48661,31241
48658,31250
48656,31259
48654,31269
48654,31279
48654,31535
48654,31544
48656,31554
48658,31563
48661,31572
48666,31581
48670,31589
48676,31597
48683,31604
48690,31611
48698,31616
48706,31621
48715,31625
48724,31629
48733,31631
48743,31632
48752,31633
49107,31633
49116,31632
49126,31631
49135,31629
49144,31625
49153,31621
49161,31616
49169,31611
49176,31604
49183,31597
49189,31589
49193,31581
49198,31572
49201,31563
49203,31554
49205,31544
49205,31535
49205,31279
49205,31269
49203,31259
49201,31250
49198,31241
49193,31232
49189,31224
49183,31216
49176,31209
49169,31203
49161,31197
49153,31192
49144,31188
49135,31184
49126,31182
49116,31181
49107,31180
48752,31180
48743,31181
" /> 
<polyline style="fill-rule:evenodd;"
points="48743,30374
48733,30375
48724,30377
48715,30381
48706,30385
48698,30390
48690,30395
48683,30402
48676,30409
48670,30417
48666,30425
48661,30434
48658,30443
48656,30452
48654,30462
48654,30472
48654,30727
48654,30737
48656,30747
48658,30756
48661,30765
48666,30774
48670,30782
48676,30790
48683,30797
48690,30804
48698,30809
48706,30814
48715,30818
48724,30822
48733,30824
48743,30825
48752,30826
49107,30826
49116,30825
49126,30824
49135,30822
49144,30818
49153,30814
49161,30809
49169,30804
49176,30797
49183,30790
49189,30782
49193,30774
49198,30765
49201,30756
49203,30747
49205,30737
49205,30727
49205,30472
49205,30462
49203,30452
49201,30443
49198,30434
49193,30425
49189,30417
49183,30409
49176,30402
49169,30395
49161,30390
49153,30385
49144,30381
49135,30377
49126,30375
49116,30374
49107,30373
48752,30373
48743,30374
" /> 
</g>
<g style="fill:#000000; fill-opacity:1.0; 
stroke:#000000; stroke-width:629.921; stroke-opacity:1; 
stroke-linecap:round; stroke-linejoin:round;">
</g>
<g style="fill:#000000; fill-opacity:0.0; 
stroke:#000000; stroke-width:629.921; stroke-opacity:1; 
stroke-linecap:round; stroke-linejoin:round;">
<path d="M44430 21000
L44430 21000
" />
<path d="M31430 24000
L31430 24000
" />
<path d="M43430 21000
L43430 21000
" />
<path d="M32430 24000
L32430 24000
" />
<path d="M42430 21000
L42430 21000
" />
<path d="M33430 24000
L33430 24000
" />
<path d="M41430 21000
L41430 21000
" />
<path d="M34430 24000
L34430 24000
" />
<path d="M40430 21000
L40430 21000
" />
<path d="M35430 24000
L35430 24000
" />
<path d="M39430 21000
L39430 21000
" />
<path d="M36430 24000
L36430 24000
" />
<path d="M38430 21000
L38430 21000
" />
<path d="M37430 24000
L37430 24000
" />
<path d="M37430 21000
L37430 21000
" />
<path d="M38430 24000
L38430 24000
" />
<path d="M36430 21000
L36430 21000
" />
<path d="M39430 24000
L39430 24000
" />
<path d="M35430 21000
L35430 21000
" />
<path d="M40430 24000
L40430 24000
" />
<path d="M34430 21000
L34430 21000
" />
<path d="M41430 24000
L41430 24000
" />
<path d="M33430 21000
L33430 21000
" />
<path d="M42430 24000
L42430 24000
" />
<path d="M32430 21000
L32430 21000
" />
<path d="M43430 24000
L43430 24000
" />
<path d="M31430 21000
L31430 21000
" />
</g>
<g style="fill:#000000; fill-opacity:0.0; 
stroke:#000000; stroke-width:0; stroke-opacity:1; 
stroke-linecap:round; stroke-linejoin:round;">
</g>
<g style="fill:#000000; fill-opacity:1.0; 
stroke:#000000; stroke-width:0; stroke-opacity:1; 
stroke-linecap:round; stroke-linejoin:round;">
<polyline style="fill-rule:evenodd;"
points="44115,24314
44744,24314
44744,23685
44115,23685
44115,24314
" /> 
<polyline style="fill-rule:evenodd;"
points="46748,24035
46511,24035
46511,24625
46748,24625
46748,24035
" /> 
<polyline style="fill-rule:evenodd;"
points="47248,24035
47011,24035
47011,24625
47248,24625
47248,24035
" /> 
<polyline style="fill-rule:evenodd;"
points="47748,24035
47511,24035
47511,24625
47748,24625
47748,24035
" /> 
<polyline style="fill-rule:evenodd;"
points="48248,24035
48011,24035
48011,24625
48248,24625
48248,24035
" /> 
<polyline style="fill-rule:evenodd;"
points="48748,24035
48511,24035
48511,24625
48748,24625
48748,24035
" /> 
<polyline style="fill-rule:evenodd;"
points="49248,24035
49011,24035
49011,24625
49248,24625
49248,24035
" /> 
<polyline style="fill-rule:evenodd;"
points="49748,24035
49511,24035
49511,24625
49748,24625
49748,24035
" /> 
<polyline style="fill-rule:evenodd;"
points="50248,24035
50011,24035
50011,24625
50248,24625
50248,24035
" /> 
<polyline style="fill-rule:evenodd;"
points="50248,20374
50011,20374
50011,20964
50248,20964
50248,20374
" /> 
<polyline style="fill-rule:evenodd;"
points="49748,20374
49511,20374
49511,20964
49748,20964
49748,20374
" /> 
<polyline style="fill-rule:evenodd;"
points="49248,20374
49011,20374
49011,20964
49248,20964
49248,20374
" /> 
<polyline style="fill-rule:evenodd;"
points="48748,20374
48511,20374
48511,20964
48748,20964
48748,20374
" /> 
<polyline style="fill-rule:evenodd;"
points="48248,20374
48011,20374
48011,20964
48248,20964
48248,20374
" /> 
<polyline style="fill-rule:evenodd;"
points="47748,20374
47511,20374
47511,20964
47748,20964
47748,20374
" /> 
<polyline style="fill-rule:evenodd;"
points="47248,20374
47011,20374
47011,20964
47248,20964
47248,20374
" /> 
<polyline style="fill-rule:evenodd;"
points="46748,20374
46511,20374
46511,20964
46748,20964
46748,20374
" /> 
<circle cx="40453.6" cy="29232.3" r="157.48" /> 
</g>
<g style="fill:#000000; fill-opacity:1.0; 
stroke:#000000; stroke-width:39.3701; stroke-opacity:1; 
stroke-linecap:round; stroke-linejoin:round;">
</g>
<g style="fill:#000000; fill-opacity:1.0; 
stroke:#000000; stroke-width:0; stroke-opacity:1; 
stroke-linecap:round; stroke-linejoin:round;">
<circle cx="50886.7" cy="30807.1" r="157.48" /> 
</g>
<g style="fill:#000000; fill-opacity:1.0; 
stroke:#000000; stroke-width:39.3701; stroke-opacity:1; 
stroke-linecap:round; stroke-linejoin:round;">
</g>
<g style="fill:#000000; fill-opacity:1.0; 
stroke:#000000; stroke-width:0; stroke-opacity:1; 
stroke-linecap:round; stroke-linejoin:round;">
<circle cx="57678" cy="19881.9" r="157.48" /> 
</g>
<g style="fill:#000000; fill-opacity:1.0; 
stroke:#000000; stroke-width:39.3701; stroke-opacity:1; 
stroke-linecap:round; stroke-linejoin:round;">
</g>
<g style="fill:#000000; fill-opacity:1.0; 
stroke:#000000; stroke-width:0; stroke-opacity:1; 
stroke-linecap:round; stroke-linejoin:round;">
<circle cx="54528.4" cy="25000" r="157.48" /> 
</g>
<g style="fill:#000000; fill-opacity:1.0; 
stroke:#000000; stroke-width:39.3701; stroke-opacity:1; 
stroke-linecap:round; stroke-linejoin:round;">
</g>
<g style="fill:#000000; fill-opacity:1.0; 
stroke:#000000; stroke-width:0; stroke-opacity:1; 
stroke-linecap:round; stroke-linejoin:round;">
<circle cx="34830" cy="28100" r="157.48" /> 
</g>
<g style="fill:#000000; fill-opacity:1.0; 
stroke:#000000; stroke-width:39.3701; stroke-opacity:1; 
stroke-linecap:round; stroke-linejoin:round;">
</g>
<g style="fill:#000000; fill-opacity:1.0; 
stroke:#000000; stroke-width:0; stroke-opacity:1; 
stroke-linecap:round; stroke-linejoin:round;">
<circle cx="39370.9" cy="22834.6" r="157.48" /> 
</g>
<g style="fill:#000000; fill-opacity:1.0; 
stroke:#000000; stroke-width:39.3701; stroke-opacity:1; 
stroke-linecap:round; stroke-linejoin:round;">
</g>
<g style="fill:#000000; fill-opacity:1.0; 
stroke:#000000; stroke-width:0; stroke-opacity:1; 
stroke-linecap:round; stroke-linejoin:round;">
<circle cx="35433.9" cy="22834.6" r="157.48" /> 
</g>
<g style="fill:#000000; fill-opacity:1.0; 
stroke:#000000; stroke-width:39.3701; stroke-opacity:1; 
stroke-linecap:round; stroke-linejoin:round;">
</g>
<g style="fill:#000000; fill-opacity:1.0; 
stroke:#000000; stroke-width:0; stroke-opacity:1; 
stroke-linecap:round; stroke-linejoin:round;">
<circle cx="31300.1" cy="19094.5" r="393.701" /> 
</g>
<g style="fill:#000000; fill-opacity:1.0; 
stroke:#000000; stroke-width:39.3701; stroke-opacity:1; 
stroke-linecap:round; stroke-linejoin:round;">
</g>
<g style="fill:#000000; fill-opacity:1.0; 
stroke:#000000; stroke-width:0; stroke-opacity:1; 
stroke-linecap:round; stroke-linejoin:round;">
<circle cx="46654.4" cy="34153.5" r="157.48" /> 
</g>
<g style="fill:#000000; fill-opacity:1.0; 
stroke:#000000; stroke-width:39.3701; stroke-opacity:1; 
stroke-linecap:round; stroke-linejoin:round;">
</g>
<g style="fill:#000000; fill-opacity:1.0; 
stroke:#000000; stroke-width:0; stroke-opacity:1; 
stroke-linecap:round; stroke-linejoin:round;">
<circle cx="47933.9" cy="32775.6" r="157.48" /> 
</g>
<g style="fill:#000000; fill-opacity:1.0; 
stroke:#000000; stroke-width:39.3701; stroke-opacity:1; 
stroke-linecap:round; stroke-linejoin:round;">
</g>
<g style="fill:#000000; fill-opacity:1.0; 
stroke:#000000; stroke-width:0; stroke-opacity:1; 
stroke-linecap:round; stroke-linejoin:round;">
<circle cx="52363.1" cy="27263.8" r="157.48" /> 
</g>
<g style="fill:#000000; fill-opacity:1.0; 
stroke:#000000; stroke-width:39.3701; stroke-opacity:1; 
stroke-linecap:round; stroke-linejoin:round;">
</g>
<g style="fill:#000000; fill-opacity:1.0; 
stroke:#000000; stroke-width:0; stroke-opacity:1; 
stroke-linecap:round; stroke-linejoin:round;">
<circle cx="51378.8" cy="23326.8" r="157.48" /> 
</g>
<g style="fill:#000000; fill-opacity:1.0; 
stroke:#000000; stroke-width:39.3701; stroke-opacity:1; 
stroke-linecap:round; stroke-linejoin:round;">
</g>
<g style="fill:#000000; fill-opacity:1.0; 
stroke:#000000; stroke-width:0; stroke-opacity:1; 
stroke-linecap:round; stroke-linejoin:round;">
<circle cx="61221.3" cy="34055.1" r="393.701" /> 
</g>
<g style="fill:#000000; fill-opacity:1.0; 
stroke:#000000; stroke-width:39.3701; stroke-opacity:1; 
stroke-linecap:round; stroke-linejoin:round;">
</g>
<g style="fill:#000000; fill-opacity:1.0; 
stroke:#000000; stroke-width:0; stroke-opacity:1; 
stroke-linecap:round; stroke-linejoin:round;">
<circle cx="53544.2" cy="31889.8" r="157.48" /> 
</g>
<g style="fill:#000000; fill-opacity:1.0; 
stroke:#000000; stroke-width:39.3701; stroke-opacity:1; 
stroke-linecap:round; stroke-linejoin:round;">
</g>
<g style="fill:#000000; fill-opacity:1.0; 
stroke:#000000; stroke-width:0; stroke-opacity:1; 
stroke-linecap:round; stroke-linejoin:round;">
<circle cx="49311.9" cy="32972.4" r="157.48" /> 
</g>
<g style="fill:#000000; fill-opacity:1.0; 
stroke:#000000; stroke-width:39.3701; stroke-opacity:1; 
stroke-linecap:round; stroke-linejoin:round;">
</g>
<g style="fill:#000000; fill-opacity:1.0; 
stroke:#000000; stroke-width:0; stroke-opacity:1; 
stroke-linecap:round; stroke-linejoin:round;">
<circle cx="55611.1" cy="22637.8" r="157.48" /> 
</g>
<g style="fill:#000000; fill-opacity:1.0; 
stroke:#000000; stroke-width:39.3701; stroke-opacity:1; 
stroke-linecap:round; stroke-linejoin:round;">
</g>
<g style="fill:#000000; fill-opacity:1.0; 
stroke:#000000; stroke-width:0; stroke-opacity:1; 
stroke-linecap:round; stroke-linejoin:round;">
<circle cx="56103.2" cy="22244.1" r="157.48" /> 
</g>
<g style="fill:#000000; fill-opacity:1.0; 
stroke:#000000; stroke-width:39.3701; stroke-opacity:1; 
stroke-linecap:round; stroke-linejoin:round;">
</g>
<g style="fill:#000000; fill-opacity:1.0; 
stroke:#000000; stroke-width:0; stroke-opacity:1; 
stroke-linecap:round; stroke-linejoin:round;">
<circle cx="56496.9" cy="21752" r="157.48" /> 
</g>
<g style="fill:#000000; fill-opacity:1.0; 
stroke:#000000; stroke-width:39.3701; stroke-opacity:1; 
stroke-linecap:round; stroke-linejoin:round;">
</g>
<g style="fill:#000000; fill-opacity:1.0; 
stroke:#000000; stroke-width:0; stroke-opacity:1; 
stroke-linecap:round; stroke-linejoin:round;">
<circle cx="32430" cy="19685" r="157.48" /> 
</g>
<g style="fill:#000000; fill-opacity:1.0; 
stroke:#000000; stroke-width:39.3701; stroke-opacity:1; 
stroke-linecap:round; stroke-linejoin:round;">
</g>
<g style="fill:#000000; fill-opacity:1.0; 
stroke:#000000; stroke-width:0; stroke-opacity:1; 
stroke-linecap:round; stroke-linejoin:round;">
<circle cx="55512.7" cy="19881.9" r="157.48" /> 
</g>
<g style="fill:#000000; fill-opacity:1.0; 
stroke:#000000; stroke-width:39.3701; stroke-opacity:1; 
stroke-linecap:round; stroke-linejoin:round;">
</g>
<g style="fill:#000000; fill-opacity:1.0; 
stroke:#000000; stroke-width:0; stroke-opacity:1; 
stroke-linecap:round; stroke-linejoin:round;">
<circle cx="47630" cy="21546.5" r="157.48" /> 
</g>
<g style="fill:#000000; fill-opacity:1.0; 
stroke:#000000; stroke-width:39.3701; stroke-opacity:1; 
stroke-linecap:round; stroke-linejoin:round;">
</g>
<g style="fill:#000000; fill-opacity:1.0; 
stroke:#000000; stroke-width:0; stroke-opacity:1; 
stroke-linecap:round; stroke-linejoin:round;">
<circle cx="40430" cy="22244.1" r="157.48" /> 
</g>
<g style="fill:#000000; fill-opacity:1.0; 
stroke:#000000; stroke-width:39.3701; stroke-opacity:1; 
stroke-linecap:round; stroke-linejoin:round;">
</g>
<g style="fill:#000000; fill-opacity:1.0; 
stroke:#000000; stroke-width:98.4252; stroke-opacity:1; 
stroke-linecap:round; stroke-linejoin:round;">
</g>
<g style="fill:#000000; fill-opacity:0.0; 
stroke:#000000; stroke-width:98.4252; stroke-opacity:1; 
stroke-linecap:round; stroke-linejoin:round;">
<path d="M36430 22000
L36830 22400
" />
<path d="M36430 21000
L36430 22000
" />
<path d="M36830 22400
L37930 22400
" />
<path d="M37930 22400
L38430 22900
" />
<path d="M38430 22900
L38430 24000
" />
<path d="M38430 26000
L38430 24000
" />
<path d="M36430 28000
L38430 26000
" />
<path d="M54036 25590
L54528 25590
" />
<path d="M52079 30000
L52079 28818
" />
<path d="M53839 27059
L53839 25787
" />
<path d="M52079 28818
L53839 27059
" />
<path d="M53839 25787
L54036 25590
" />
<path d="M52079 32665
L52067 32677
" />
<path d="M52079 30000
L52079 32665
" />
<path d="M40453 29232
L40453 29232
" />
<path d="M51272 30807
L52079 30000
" />
<path d="M51272 30807
L50886 30807
" />
<path d="M47130 19963
L47130 20669
" />
<path d="M36430 21000
L36430 19968
" />
<path d="M31754 29500
L36430 29500
" />
<path d="M31330 29500
L31754 29500
" />
<path d="M36430 29500
L36430 28000
" />
<path d="M37244 30314
L36430 29500
" />
<path d="M40158 30314
L37244 30314
" />
<path d="M40453 30019
L40158 30314
" />
<path d="M40453 29232
L40453 30019
" />
<path d="M36430 19968
L36713 19685
" />
<path d="M36713 19685
L46851 19685
" />
<path d="M46851 19685
L47130 19963
" />
</g>
<g style="fill:#000000; fill-opacity:0.0; 
stroke:#000000; stroke-width:78.7402; stroke-opacity:1; 
stroke-linecap:round; stroke-linejoin:round;">
<path d="M57284 21000
L57087 21000
" />
<path d="M54528 25590
L54528 25000
" />
<path d="M57087 21000
L57087 20669
" />
<path d="M57087 20669
L57284 20472
" />
<path d="M57284 20472
L57284 20275
" />
<path d="M57284 20275
L57678 19881
" />
<path d="M57678 19881
L57678 19881
" />
<path d="M54528 25000
L54528 25000
" />
</g>
<g style="fill:#000000; fill-opacity:0.0; 
stroke:#000000; stroke-width:98.4252; stroke-opacity:1; 
stroke-linecap:round; stroke-linejoin:round;">
<path d="M45130 33186
L43330 31386
" />
<path d="M45130 33206
L45130 33186
" />
<path d="M43330 31386
L43330 24900
" />
<path d="M43330 24900
L43330 24800
" />
<path d="M47630 24724
L47630 24330
" />
<path d="M47630 25050
L47630 24724
" />
<path d="M46063 29133
L47630 27567
" />
<path d="M47630 27567
L47630 24330
" />
<path d="M55709 21000
L55709 20665
" />
<path d="M55709 20665
L55709 20314
" />
</g>
<g style="fill:#000000; fill-opacity:0.0; 
stroke:#000000; stroke-width:78.7402; stroke-opacity:1; 
stroke-linecap:round; stroke-linejoin:round;">
<path d="M57481 20669
L57678 20472
" />
<path d="M57481 20669
L57481 21062
" />
</g>
<g style="fill:#000000; fill-opacity:0.0; 
stroke:#000000; stroke-width:98.4252; stroke-opacity:1; 
stroke-linecap:round; stroke-linejoin:round;">
<path d="M45504 34055
L45759 34055
" />
<path d="M45759 34055
L46260 34055
" />
<path d="M59430 30625
L59150 30905
" />
<path d="M59430 30350
L59430 30625
" />
<path d="M59150 30905
L58662 30905
" />
<path d="M58465 31102
L58465 31614
" />
<path d="M58662 30905
L58465 31102
" />
<path d="M58465 31889
L58465 31614
" />
<path d="M58268 32086
L58465 31889
" />
<path d="M55532 32086
L58268 32086
" />
<path d="M57481 31614
L56418 31614
" />
<path d="M54804 30000
L53930 30000
" />
<path d="M56418 31614
L54804 30000
" />
<path d="M53930 31291
L53930 30000
" />
<path d="M54725 32086
L53930 31291
" />
<path d="M50036 33000
L49437 33000
" />
<path d="M53919 31291
L53930 31291
" />
<path d="M53544 31667
L53919 31291
" />
<path d="M53544 31889
L53544 31667
" />
<path d="M55906 29547
L55906 29921
" />
<path d="M56300 30314
L57481 30314
" />
<path d="M55906 29921
L56300 30314
" />
</g>
<g style="fill:#000000; fill-opacity:0.0; 
stroke:#000000; stroke-width:78.7402; stroke-opacity:1; 
stroke-linecap:round; stroke-linejoin:round;">
<path d="M58268 21000
L58268 21456
" />
</g>
<g style="fill:#000000; fill-opacity:0.0; 
stroke:#000000; stroke-width:98.4252; stroke-opacity:1; 
stroke-linecap:round; stroke-linejoin:round;">
<path d="M58662 26771
L58662 21850
" />
</g>
<g style="fill:#000000; fill-opacity:0.0; 
stroke:#000000; stroke-width:78.7402; stroke-opacity:1; 
stroke-linecap:round; stroke-linejoin:round;">
<path d="M58268 21456
L58662 21850
" />
</g>
<g style="fill:#000000; fill-opacity:0.0; 
stroke:#000000; stroke-width:98.4252; stroke-opacity:1; 
stroke-linecap:round; stroke-linejoin:round;">
<path d="M57481 27952
L58662 26771
" />
<path d="M57481 30314
L57481 27952
" />
</g>
<g style="fill:#000000; fill-opacity:0.0; 
stroke:#000000; stroke-width:78.7402; stroke-opacity:1; 
stroke-linecap:round; stroke-linejoin:round;">
<path d="M58071 21000
L58071 22244
" />
<path d="M58071 22244
L57481 22834
" />
<path d="M57481 22834
L57481 23031
" />
</g>
<g style="fill:#000000; fill-opacity:0.0; 
stroke:#000000; stroke-width:98.4252; stroke-opacity:1; 
stroke-linecap:round; stroke-linejoin:round;">
<path d="M57481 23031
L57481 25590
" />
<path d="M60370 21000
L58868 21000
" />
<path d="M61221 21850
L60370 21000
" />
<path d="M61221 25596
L61221 21850
" />
<path d="M52264 25596
L52264 24606
" />
</g>
<g style="fill:#000000; fill-opacity:0.0; 
stroke:#000000; stroke-width:78.7402; stroke-opacity:1; 
stroke-linecap:round; stroke-linejoin:round;">
<path d="M52264 24507
L52264 24606
" />
<path d="M54922 21850
L52264 24507
" />
<path d="M54922 21000
L54922 21850
" />
</g>
<g style="fill:#000000; fill-opacity:0.0; 
stroke:#000000; stroke-width:98.4252; stroke-opacity:1; 
stroke-linecap:round; stroke-linejoin:round;">
<path d="M55512 24409
L55512 25570
" />
</g>
<g style="fill:#000000; fill-opacity:0.0; 
stroke:#000000; stroke-width:78.7402; stroke-opacity:1; 
stroke-linecap:round; stroke-linejoin:round;">
<path d="M55512 23818
L55512 24015
" />
</g>
<g style="fill:#000000; fill-opacity:0.0; 
stroke:#000000; stroke-width:98.4252; stroke-opacity:1; 
stroke-linecap:round; stroke-linejoin:round;">
<path d="M55512 24015
L55512 24409
" />
</g>
<g style="fill:#000000; fill-opacity:0.0; 
stroke:#000000; stroke-width:78.7402; stroke-opacity:1; 
stroke-linecap:round; stroke-linejoin:round;">
<path d="M57678 21000
L57678 21259
" />
<path d="M57678 21259
L57284 21653
" />
<path d="M57284 21653
L57087 21850
" />
<path d="M57087 21850
L57087 22244
" />
<path d="M57087 22244
L55512 23818
" />
<path d="M58465 21000
L58465 20275
" />
<path d="M59449 19291
L60237 19291
" />
<path d="M58465 20275
L59449 19291
" />
</g>
<g style="fill:#000000; fill-opacity:0.0; 
stroke:#000000; stroke-width:98.4252; stroke-opacity:1; 
stroke-linecap:round; stroke-linejoin:round;">
<path d="M53150 25600
L53150 24409
" />
</g>
<g style="fill:#000000; fill-opacity:0.0; 
stroke:#000000; stroke-width:78.7402; stroke-opacity:1; 
stroke-linecap:round; stroke-linejoin:round;">
<path d="M53150 24212
L53150 24409
" />
<path d="M55118 21000
L55118 21259
" />
<path d="M55118 21259
L55315 21456
" />
<path d="M55315 21456
L55315 22047
" />
<path d="M55315 22047
L53150 24212
" />
<path d="M57874 21000
L57874 21653
" />
<path d="M57874 21653
L57481 22047
" />
<path d="M57481 22047
L57481 22440
" />
<path d="M57481 22440
L56496 23425
" />
<path d="M56496 23425
L56496 23622
" />
</g>
<g style="fill:#000000; fill-opacity:0.0; 
stroke:#000000; stroke-width:98.4252; stroke-opacity:1; 
stroke-linecap:round; stroke-linejoin:round;">
<path d="M56496 23622
L56496 25590
" />
<path d="M58465 30314
L58465 28149
" />
</g>
<g style="fill:#000000; fill-opacity:0.0; 
stroke:#000000; stroke-width:78.7402; stroke-opacity:1; 
stroke-linecap:round; stroke-linejoin:round;">
<path d="M58882 21456
L58662 21236
" />
<path d="M58662 21236
L58662 21000
" />
<path d="M59055 21456
L58882 21456
" />
</g>
<g style="fill:#000000; fill-opacity:0.0; 
stroke:#000000; stroke-width:98.4252; stroke-opacity:1; 
stroke-linecap:round; stroke-linejoin:round;">
<path d="M59055 21456
L59843 21456
" />
<path d="M59843 21456
L60040 21653
" />
<path d="M60040 21653
L60040 25590
" />
<path d="M60040 25590
L59646 25590
" />
<path d="M59646 25590
L59449 25787
" />
<path d="M59449 25787
L59449 27165
" />
<path d="M58465 28149
L59449 27165
" />
<path d="M50804 33374
L50478 33700
" />
<path d="M50823 33374
L50804 33374
" />
<path d="M50478 33700
L47330 33700
" />
<path d="M47330 33700
L46630 33000
" />
<path d="M46630 33000
L46630 30900
" />
<path d="M46930 30600
L47430 30600
" />
<path d="M46630 30900
L46930 30600
" />
<path d="M47430 30334
L47430 30600
" />
<path d="M47430 28433
L47430 30334
" />
</g>
<g style="fill:#000000; fill-opacity:0.0; 
stroke:#000000; stroke-width:78.7402; stroke-opacity:1; 
stroke-linecap:round; stroke-linejoin:round;">
<path d="M54528 21000
L53410 21000
" />
<path d="M53410 21000
L53150 21259
" />
<path d="M53150 21259
L53150 22712
" />
<path d="M53150 22712
L53028 22834
" />
</g>
<g style="fill:#000000; fill-opacity:0.0; 
stroke:#000000; stroke-width:98.4252; stroke-opacity:1; 
stroke-linecap:round; stroke-linejoin:round;">
<path d="M53028 22834
L47430 28433
" />
<path d="M49596 30600
L48930 30600
" />
<path d="M50823 31826
L49596 30600
" />
<path d="M50823 32625
L50823 31826
" />
<path d="M48930 30600
L48930 27400
" />
<path d="M48930 27400
L51575 24754
" />
<path d="M51530 24800
L51575 24754
" />
</g>
<g style="fill:#000000; fill-opacity:0.0; 
stroke:#000000; stroke-width:78.7402; stroke-opacity:1; 
stroke-linecap:round; stroke-linejoin:round;">
<path d="M54134 21850
L54134 22195
" />
<path d="M51575 24754
L54134 22195
" />
<path d="M54725 21000
L54725 21259
" />
<path d="M54725 21259
L54134 21850
" />
<path d="M55906 21000
L55906 21358
" />
<path d="M55906 21358
L55611 21653
" />
<path d="M55611 21653
L55611 21850
" />
<path d="M55611 21850
L55611 22637
" />
<path d="M56103 21000
L56103 21402
" />
<path d="M56103 21402
L56103 22244
" />
<path d="M56300 21000
L56300 21358
" />
<path d="M56300 21358
L56496 21555
" />
<path d="M56496 21555
L56496 21751
" />
</g>
<g style="fill:#000000; fill-opacity:0.0; 
stroke:#000000; stroke-width:98.4252; stroke-opacity:1; 
stroke-linecap:round; stroke-linejoin:round;">
<path d="M32430 19685
L32430 19637
" />
<path d="M32430 21000
L32430 19685
" />
<path d="M32430 19637
L32481 19586
" />
<path d="M56492 20665
L55807 19881
" />
<path d="M56496 21000
L56496 20665
" />
<path d="M55807 19881
L55512 19881
" />
</g>
<g style="fill:#000000; fill-opacity:0.0; 
stroke:#000000; stroke-width:78.7402; stroke-opacity:1; 
stroke-linecap:round; stroke-linejoin:round;">
<path d="M56693 20118
L56693 21000
" />
</g>
<g style="fill:#000000; fill-opacity:0.0; 
stroke:#000000; stroke-width:98.4252; stroke-opacity:1; 
stroke-linecap:round; stroke-linejoin:round;">
<path d="M35430 21000
L35430 20279
" />
<path d="M35430 20279
L36300 19409
" />
<path d="M36300 19409
L55985 19409
" />
</g>
<g style="fill:#000000; fill-opacity:0.0; 
stroke:#000000; stroke-width:78.7402; stroke-opacity:1; 
stroke-linecap:round; stroke-linejoin:round;">
<path d="M56693 20118
L56496 19921
" />
</g>
<g style="fill:#000000; fill-opacity:0.0; 
stroke:#000000; stroke-width:98.4252; stroke-opacity:1; 
stroke-linecap:round; stroke-linejoin:round;">
<path d="M55985 19409
L56496 19921
" />
<path d="M33430 20060
L34395 19094
" />
<path d="M33430 21000
L33430 20078
" />
<path d="M33430 20078
L33430 20060
" />
<path d="M33430 20078
L33430 20000
" />
<path d="M34395 19094
L34469 19094
" />
<path d="M34469 19094
L34449 19094
" />
<path d="M55709 19094
L34469 19094
" />
<path d="M56103 19094
L55709 19094
" />
</g>
<g style="fill:#000000; fill-opacity:0.0; 
stroke:#000000; stroke-width:78.7402; stroke-opacity:1; 
stroke-linecap:round; stroke-linejoin:round;">
<path d="M56890 21000
L56890 19881
" />
<path d="M56890 19881
L56693 19685
" />
</g>
<g style="fill:#000000; fill-opacity:0.0; 
stroke:#000000; stroke-width:98.4252; stroke-opacity:1; 
stroke-linecap:round; stroke-linejoin:round;">
<path d="M56693 19685
L56103 19094
" />
<path d="M41430 24445
L41430 24000
" />
<path d="M42385 34055
L44755 34055
" />
<path d="M41430 33100
L42385 34055
" />
<path d="M41430 24000
L41430 33100
" />
<path d="M47630 20669
L47630 21546
" />
<path d="M47630 21546
L47630 21546
" />
<path d="M40430 22800
L40430 22800
" />
<path d="M40430 22800
L40430 22244
" />
<path d="M40430 24000
L40430 22800
" />
<path d="M43430 22200
L43430 21000
" />
<path d="M45130 22600
L43830 22600
" />
<path d="M45530 24800
L45530 23000
" />
<path d="M47130 24330
L47130 25300
" />
<path d="M45530 23000
L45130 22600
" />
<path d="M47130 25300
L46930 25500
" />
<path d="M43830 22600
L43430 22200
" />
<path d="M46930 25500
L46230 25500
" />
<path d="M46230 25500
L45530 24800
" />
<path d="M44430 22000
L44430 21000
" />
<path d="M46630 24330
L46630 22700
" />
<path d="M46630 22700
L46230 22300
" />
<path d="M46230 22300
L44730 22300
" />
<path d="M44730 22300
L44430 22000
" />
</g>
<g style="fill:#000000; fill-opacity:1.0; 
stroke:#000000; stroke-width:100; stroke-opacity:1; 
stroke-linecap:round; stroke-linejoin:round;">
<polyline style="fill-rule:evenodd;"
points="51035,18795
56073,18795
56103,18789
56132,18795
56132,18795
56219,18812
56219,18812
56219,18812
56293,18862
56293,18862
56318,18878
56335,18903
56926,19494
56954,19536
57075,19657
57099,19673
57115,19697
57115,19697
57163,19768
57185,19881
57179,19910
57179,19970
57270,19880
57270,19800
57332,19651
57447,19536
57596,19474
57759,19474
57908,19536
58023,19651
58085,19800
58085,19962
58023,20112
57908,20227
57759,20289
57679,20289
57573,20395
57573,20443
57579,20472
57573,20500
57573,20500
57556,20585
57542,20606
57550,20605
57563,20592
57570,20592
57584,20598
57638,20587
57717,20587
57776,20599
57835,20587
57914,20587
57973,20599
58032,20587
58111,20587
58170,20599
58176,20598
58176,20304
58170,20275
58176,20247
58176,20247
58192,20162
58256,20066
58280,20050
59224,19106
59241,19082
59336,19018
59421,19001
59421,19001
59449,18996
59478,19001
59751,19001
59810,18913
59924,18836
60059,18810
60414,18810
60549,18836
60664,18913
60740,19028
60767,19163
60767,19419
60740,19554
60664,19669
60663,19669
60724,19730
60762,19822
60762,19985
60700,20048
60287,20048
60287,20040
60187,20040
60187,20048
59773,20048
59711,19985
59711,19822
59749,19730
59810,19669
59810,19669
59751,19580
59569,19580
58754,20395
58754,20598
58760,20599
58819,20587
58898,20587
58996,20607
59078,20662
59104,20700
60341,20700
60370,20694
60400,20700
60400,20700
60487,20718
60487,20718
60487,20718
60561,20767
60561,20767
60586,20784
60603,20809
61412,21617
61437,21634
61453,21659
61453,21659
61503,21733
61526,21850
61520,21879
61520,25139
61533,25142
61648,25218
61724,25333
61751,25468
61751,25724
61724,25859
61648,25974
61647,25974
61708,26035
61746,26127
61746,26291
61684,26353
61271,26353
61271,26345
61171,26345
61171,26353
60758,26353
60695,26291
60695,26127
60733,26035
60794,25974
60794,25974
60717,25859
60690,25724
60690,25468
60717,25333
60794,25218
60908,25142
60922,25139
60922,21974
60247,21299
60109,21299
60230,21421
60255,21437
60322,21536
60339,21624
60339,21624
60345,21653
60339,21683
60339,25133
60352,25136
60467,25212
60543,25327
60570,25462
60570,25718
60543,25853
60467,25968
60466,25968
60527,26029
60565,26121
60565,26285
60503,26347
60090,26347
60090,26339
59990,26339
59990,26347
59982,26347
59982,26447
59990,26447
59990,26811
59927,26874
59748,26874
59748,27135
59754,27165
59731,27282
59684,27351
59665,27381
59640,27397
58764,28273
58764,29895
58799,29902
58881,29957
58937,30040
58951,30111
58958,30075
59013,29992
59096,29937
59193,29918
59666,29918
59763,29937
59846,29992
59901,30075
59921,30173
59921,30527
59901,30625
59846,30707
59763,30763
59688,30778
59668,30807
59645,30841
59620,30858
59382,31096
59366,31121
59267,31187
59179,31204
59179,31204
59150,31210
59121,31204
58804,31204
58881,31256
58937,31339
58950,31406
58981,31330
59052,31260
59144,31222
59317,31222
59380,31284
59380,31599
59372,31599
59372,31699
59380,31699
59380,32014
59317,32076
59144,32076
59052,32038
58981,31968
58943,31876
58943,31855
58937,31888
58881,31971
58799,32026
58723,32041
58681,32105
58656,32122
58500,32277
58484,32302
58459,32319
58385,32368
58372,32370
58298,32385
58298,32385
58268,32391
58239,32385
55989,32385
55986,32398
55910,32513
55795,32590
55660,32617
55404,32617
55269,32590
55154,32513
55128,32475
55103,32513
54988,32590
54853,32617
54597,32617
54462,32590
54347,32513
54270,32398
54244,32263
54244,32028
53924,31709
53914,31719
53951,31808
53951,31970
53889,32120
53774,32235
53625,32297
53463,32297
53313,32235
53198,32120
53136,31970
53136,31808
53198,31658
53251,31606
53262,31550
53328,31451
53353,31434
53450,31337
53339,31337
53241,31318
53159,31262
53103,31180
53084,31082
53084,28917
53103,28819
53159,28737
53241,28681
53339,28662
54520,28662
54618,28681
54700,28737
54756,28819
54775,28917
54775,29700
54804,29694
54833,29700
54833,29700
54920,29718
55019,29784
55036,29809
56542,31314
57025,31314
57064,31256
57147,31201
57244,31182
57717,31182
57814,31201
57897,31256
57952,31339
57972,31437
57972,31787
57974,31787
57974,31437
57993,31339
58048,31256
58131,31201
58166,31194
58166,31131
58160,31102
58166,31072
58166,31072
58179,31004
58183,30985
58233,30911
58249,30886
58274,30869
58397,30747
58229,30747
58131,30727
58048,30672
57993,30589
57974,30492
57974,30137
57993,30040
58048,29957
58131,29902
58166,29895
58166,28179
58160,28149
58166,28120
58166,28120
58183,28032
58249,27933
58274,27917
59150,27041
59150,25816
59144,25787
59150,25757
59150,25757
59167,25670
59167,25670
59217,25596
59233,25571
59258,25554
59414,25399
59430,25374
59529,25308
59552,25304
59613,25212
59727,25136
59741,25133
59741,21777
59719,21755
59026,21755
58977,21746
58946,21746
58961,21820
58961,26742
58967,26771
58961,26801
58961,26801
58944,26888
58878,26987
58853,27004
57780,28076
57780,29895
57814,29902
57897,29957
57952,30040
57972,30137
57972,30492
57952,30589
57897,30672
57814,30727
57717,30747
57244,30747
57147,30727
57064,30672
57025,30614
56329,30614
56300,30620
56270,30614
56270,30614
56183,30596
56084,30530
56067,30505
55715,30153
55690,30136
55624,30038
55618,30006
55594,30001
55479,29925
55402,29810
55375,29675
55375,29419
55402,29284
55479,29169
55479,29169
55418,29108
55380,29016
55380,28852
55443,28790
55856,28790
55856,28798
55956,28798
55956,28790
56369,28790
56431,28852
56431,29016
56393,29108
56332,29169
56333,29169
56409,29284
56436,29419
56436,29675
56409,29810
56333,29925
56333,29925
56424,30015
57025,30015
57064,29957
57147,29902
57181,29895
57181,28464
56431,28464
56431,28627
56369,28690
55956,28690
55956,28326
55856,28326
55856,28690
55443,28690
55380,28627
55380,28464
55418,28372
55489,28301
55581,28263
55793,28263
55856,28326
55956,28326
56018,28263
56231,28263
56323,28301
56393,28372
56431,28464
57181,28464
57181,27982
57176,27952
57181,27923
57181,27923
57199,27836
57199,27836
57248,27762
57265,27737
57290,27720
58363,26647
58363,26510
58006,26510
58006,26673
57968,26765
57898,26835
57806,26874
57593,26874
57531,26811
57531,26447
57431,26447
57431,26811
57368,26874
57155,26874
57063,26835
56993,26765
56989,26754
56984,26765
56914,26835
56822,26874
56609,26874
56546,26811
56546,26447
56446,26447
56446,26811
56384,26874
56171,26874
56079,26835
56009,26765
56000,26744
56000,26745
55929,26816
55837,26854
55625,26854
55562,26791
55562,26427
55462,26427
55462,26791
55400,26854
55187,26854
55095,26816
55025,26745
55024,26744
55015,26765
54945,26835
54853,26874
54640,26874
54578,26811
54578,26447
54991,26447
55010,26466
55049,26427
55462,26427
55562,26427
55975,26427
56014,26466
56033,26447
56446,26447
56546,26447
56960,26447
56989,26476
57018,26447
57431,26447
57531,26447
57944,26447
58006,26510
58363,26510
58363,22262
58344,22357
58303,22418
58280,22452
58256,22468
57770,22954
57780,23002
57780,25133
57793,25136
57908,25212
57984,25327
58011,25462
58011,25718
57984,25853
57908,25968
57907,25968
57968,26029
58006,26121
58006,26285
57944,26347
57531,26347
57531,26339
57431,26339
57431,26347
57018,26347
56989,26318
56960,26347
56546,26347
56546,26339
56446,26339
56446,26347
56033,26347
55994,26308
55975,26327
55562,26327
55562,26320
55462,26320
55462,26327
55049,26327
55030,26308
54991,26347
54578,26347
54578,26339
54478,26339
54478,26347
54470,26347
54470,26447
54478,26447
54478,26811
54415,26874
54203,26874
54138,26847
54138,27029
54144,27059
54138,27088
54138,27088
54121,27175
54055,27274
54030,27291
52659,28662
52670,28662
52767,28681
52850,28737
52905,28819
52925,28917
52925,31082
52905,31180
52850,31262
52767,31318
52670,31337
52378,31337
52378,32222
52380,32222
52494,32299
52571,32414
52598,32549
52598,32805
52571,32940
52494,33054
52494,33055
52555,33116
52593,33208
52593,33371
52530,33434
52117,33434
52117,33426
52017,33426
52017,33434
51604,33434
51542,33371
51542,33208
51580,33116
51641,33055
51640,33054
51564,32940
51537,32805
51537,32549
51564,32414
51640,32299
51755,32222
51780,32217
51780,31337
51489,31337
51391,31318
51308,31262
51253,31180
51238,31106
51163,31106
51117,31152
50967,31214
50805,31214
50655,31152
50541,31037
50479,30888
50479,30726
50541,30576
50655,30461
50805,30399
50967,30399
51117,30461
51156,30500
51234,30422
51234,28917
51253,28819
51308,28737
51391,28681
51489,28662
51824,28662
51863,28603
51888,28586
53540,26935
53540,26856
53475,26883
53262,26883
53200,26820
53200,26457
53100,26457
53100,26820
53037,26883
52825,26883
52733,26845
52705,26817
52681,26841
52589,26879
52377,26879
52314,26817
52314,26453
52214,26453
52214,26817
52152,26879
51939,26879
51847,26841
51777,26771
51739,26679
51739,26516
51801,26453
52214,26453
52314,26453
52727,26453
52731,26457
53100,26457
53200,26457
53208,26457
53208,26357
53200,26357
53200,26349
53100,26349
53100,26357
52687,26357
52683,26353
52314,26353
52314,26345
52214,26345
52214,26353
51801,26353
51739,26291
51739,26127
51777,26035
51838,25974
51837,25974
51761,25859
51734,25724
51734,25468
51761,25333
51837,25218
51952,25142
51965,25139
51965,24773
51836,24903
51808,24945
51035,25718
51035,29921
51031,29940
51020,29956
51004,29967
50985,29971
49229,29971
49229,30143
49242,30145
49357,30222
49409,30300
49567,30300
49596,30294
49626,30300
49626,30300
49713,30318
49738,30334
49787,30367
49787,30367
49812,30384
49829,30409
51014,31594
51039,31611
51056,31636
51056,31636
51105,31710
51128,31826
51122,31856
51122,32249
51181,32288
51236,32370
51255,32468
51255,32783
51236,32881
51181,32963
51126,33000
51181,33036
51236,33118
51255,33216
51255,33531
51236,33629
51181,33711
51098,33766
51000,33786
50814,33786
50710,33890
50693,33915
50668,33932
50594,33981
50575,33985
50507,33999
50507,33999
50478,34005
50448,33999
47359,33999
47330,34005
47300,33999
47300,33999
47213,33981
47114,33915
47097,33890
46439,33232
46414,33215
46376,33158
46348,33116
46343,33092
46330,33029
46330,33029
46324,33000
46330,32970
46330,30929
46324,30900
46330,30870
46330,30870
46348,30783
46348,30783
46397,30709
46414,30684
46439,30667
46697,30409
46714,30384
46813,30318
46900,30300
46900,30300
46930,30294
46951,30299
47002,30222
47117,30145
47130,30143
47130,29971
46113,29971
46113,34595
60851,34595
60675,34419
60577,34183
60577,33927
60675,33690
60769,33596
52593,33596
52593,33760
52555,33852
52484,33922
52393,33960
52180,33960
52117,33898
52117,33534
52017,33534
52017,33898
51955,33960
51742,33960
51650,33922
51580,33852
51542,33760
51542,33596
51604,33534
52017,33534
52117,33534
52530,33534
52593,33596
60769,33596
60856,33509
61093,33411
61349,33411
61585,33509
61761,33685
61761,31762
59916,31762
59916,31876
59878,31968
59807,32038
59715,32076
59542,32076
59480,32014
59480,31699
59853,31699
59916,31762
61761,31762
61761,31422
59916,31422
59916,31537
59853,31599
59480,31599
59480,31284
59542,31222
59715,31222
59807,31260
59878,31330
59916,31422
61761,31422
61761,26516
61746,26516
61746,26679
61708,26771
61638,26841
61546,26879
61333,26879
61271,26817
61271,26453
61171,26453
61171,26817
61108,26879
60896,26879
60804,26841
60733,26771
60695,26679
60695,26516
60701,26510
60565,26510
60565,26673
60527,26765
60457,26835
60365,26874
60152,26874
60090,26811
60090,26447
60503,26447
60565,26510
60701,26510
60758,26453
61171,26453
61271,26453
61684,26453
61746,26516
61761,26516
61761,20210
60762,20210
60762,20374
60724,20466
60654,20536
60562,20574
60349,20574
60287,20512
60287,20148
60187,20148
60187,20512
60124,20574
59911,20574
59819,20536
59749,20466
59711,20374
59711,20210
59773,20148
60187,20148
60287,20148
60700,20148
60762,20210
61761,20210
61761,18553
51035,18553
51035,18795
" /> 
<polyline style="fill-rule:evenodd;"
points="47729,30143
47742,30145
47857,30222
47933,30336
47960,30472
47960,30727
47933,30863
47857,30977
47856,30978
47917,31039
47955,31130
47955,31294
47893,31357
47480,31357
47480,31349
47380,31349
47380,31357
47372,31357
47372,31457
47380,31457
47380,31820
47317,31883
47104,31883
47012,31845
46942,31775
46929,31743
46929,32876
47453,33400
49800,33400
49761,33392
49678,33337
49653,33299
49561,33299
49542,33317
49392,33379
49230,33379
49081,33317
48966,33203
48904,33053
48904,32891
48966,32741
49081,32626
49230,32564
49392,32564
49542,32626
49616,32700
49653,32700
49678,32662
49761,32607
49859,32587
50213,32587
50311,32607
50391,32660
50391,32468
50411,32370
50466,32288
50524,32249
50524,31950
50093,31519
49455,31519
49455,31683
49417,31775
49347,31845
49255,31883
49042,31883
48980,31820
48980,31457
48880,31457
48880,31820
48817,31883
48604,31883
48512,31845
48442,31775
48404,31683
48404,31519
47955,31519
47955,31683
47917,31775
47847,31845
47755,31883
47542,31883
47480,31820
47480,31457
47893,31457
47955,31519
48404,31519
48466,31457
48880,31457
48980,31457
49393,31457
49455,31519
50093,31519
49472,30899
49409,30899
49357,30977
49356,30978
49417,31039
49455,31130
49455,31294
49393,31357
48980,31357
48980,31349
48880,31349
48880,31357
48466,31357
48404,31294
48404,31130
48442,31039
48503,30978
48502,30977
48426,30863
48399,30727
48399,30472
48426,30336
48502,30222
48617,30145
48630,30143
48630,29971
47729,29971
47729,30143
" /> 
<polyline style="fill-rule:evenodd;"
points="51035,24404
52837,22602
52861,22586
52861,21288
52855,21259
52861,21231
52861,21231
52877,21146
52941,21051
52966,21035
53185,20815
53201,20791
53297,20727
53381,20710
53381,20710
53410,20704
53438,20710
54276,20710
54308,20662
54391,20607
54489,20587
54567,20587
54626,20599
54685,20587
54764,20587
54823,20599
54882,20587
54961,20587
55020,20599
55079,20587
55158,20587
55217,20599
55276,20587
55355,20587
55414,20599
55473,20587
55552,20587
55606,20598
55620,20592
55627,20592
55639,20605
55649,20607
55709,20647
55769,20607
55779,20605
55791,20592
55798,20592
55812,20598
55867,20587
55945,20587
56004,20599
56032,20593
55720,20236
55593,20289
55431,20289
55281,20227
55167,20112
55105,19962
55105,19800
55143,19708
51035,19708
51035,24404
" /> 
<polyline style="fill-rule:evenodd;"
points="31845,18729
31943,18966
31943,19222
31845,19459
31664,19640
31428,19738
31172,19738
30935,19640
30759,19464
30759,34595
45718,34595
45718,34475
45661,34487
45346,34487
45248,34467
45166,34412
45130,34358
45093,34412
45011,34467
44913,34487
44598,34487
44500,34467
44418,34412
44379,34354
42414,34354
42385,34360
42355,34354
42355,34354
42268,34336
42169,34270
42152,34245
41239,33332
41214,33315
41148,33216
41130,33129
41130,33129
41124,33100
41130,33070
41130,31972
36797,31972
36797,33476
32495,33476
32495,31972
36797,31972
41130,31972
41130,28747
38505,28747
38189,29063
37874,28747
37901,28652
38108,28579
38326,28590
38477,28652
38505,28747
41130,28747
41130,24479
41022,24407
40930,24268
40837,24407
40650,24532
40485,24564
40374,24564
40209,24532
40022,24407
39930,24268
39837,24407
39650,24532
39485,24564
39374,24564
39209,24532
39022,24407
38930,24268
38837,24407
38729,24479
38729,25970
38735,26000
38729,26029
38729,26029
38711,26116
38645,26215
38620,26232
36729,28123
36729,29376
37368,30015
40034,30015
40154,29895
40154,29519
38505,29519
38477,29615
38271,29688
38053,29677
37901,29615
37874,29519
38189,29204
38505,29519
40154,29519
40154,29509
40108,29463
40046,29313
40046,29151
40087,29052
38744,29052
38733,29270
38671,29421
38575,29449
38260,29133
38119,29133
37803,29449
37708,29421
37635,29215
37645,28997
37708,28846
37803,28818
38119,29133
38260,29133
38575,28818
38671,28846
38744,29052
40087,29052
40108,29001
40222,28886
40372,28824
40534,28824
40684,28886
40799,29001
40861,29151
40861,29313
40799,29463
40752,29509
40752,29990
40758,30019
40752,30049
40739,30118
40735,30136
40694,30198
40669,30235
40644,30252
40390,30505
40374,30530
40275,30596
40187,30614
40187,30614
40158,30620
40128,30614
37274,30614
37244,30620
37215,30614
37215,30614
37128,30596
37029,30530
37012,30505
36306,29799
31801,29799
31796,29811
31641,29966
31439,30050
31220,30050
31018,29966
30863,29811
30780,29609
30780,29390
30863,29188
31018,29033
31220,28950
31439,28950
31641,29033
31796,29188
31801,29200
36130,29200
36130,28029
36124,28000
36130,27970
36130,27970
36148,27883
36214,27784
36239,27767
37270,26736
31645,26736
31617,26831
31411,26905
31193,26894
31042,26831
31014,26736
31330,26421
31645,26736
37270,26736
37738,26268
31884,26268
31873,26487
31811,26638
31715,26665
31400,26350
31259,26350
30944,26665
30848,26638
30775,26432
30786,26213
30848,26062
30944,26035
31259,26350
31400,26350
31715,26035
31811,26062
31884,26268
37738,26268
38042,25964
31645,25964
31330,26279
31014,25964
31042,25869
31248,25795
31466,25806
31617,25869
31645,25964
38042,25964
38130,25876
38130,24479
38022,24407
37921,24256
37883,24336
37720,24484
37567,24547
37480,24499
37480,24050
37487,24050
37487,23950
37480,23950
37480,23500
37380,23500
37380,23950
37372,23950
37372,24050
37380,24050
37380,24499
37292,24547
37139,24484
36976,24336
36938,24256
36837,24407
36650,24532
36485,24564
36374,24564
36209,24532
36022,24407
35930,24268
35837,24407
35650,24532
35485,24564
35374,24564
35209,24532
35022,24407
34930,24268
34837,24407
34650,24532
34485,24564
34374,24564
34209,24532
34022,24407
33930,24268
33837,24407
33650,24532
33485,24564
33374,24564
33209,24532
33022,24407
32930,24268
32837,24407
32650,24532
32485,24564
32374,24564
32209,24532
32022,24407
31930,24268
31837,24407
31650,24532
31485,24564
31374,24564
31209,24532
31022,24407
30897,24220
30853,24000
30897,23779
31022,23592
31209,23467
31374,23435
31485,23435
31650,23467
31837,23592
31930,23731
32022,23592
32209,23467
32374,23435
32485,23435
32650,23467
32837,23592
32930,23731
33022,23592
33209,23467
33374,23435
33485,23435
33650,23467
33837,23592
33930,23731
34022,23592
34209,23467
34374,23435
34485,23435
34650,23467
34837,23592
34930,23731
35022,23592
35209,23467
35374,23435
35485,23435
35650,23467
35837,23592
35930,23731
36022,23592
36209,23467
36374,23435
36485,23435
36650,23467
36837,23592
36938,23743
36976,23663
37139,23515
37292,23452
37380,23500
37480,23500
37567,23452
37720,23515
37883,23663
37921,23743
38022,23592
38130,23520
38130,23023
37806,22699
36859,22699
36830,22705
36800,22699
36800,22699
36713,22681
36614,22615
36597,22590
36239,22232
36214,22215
36148,22116
36130,22029
36130,22029
36124,22000
36130,21970
36130,21479
36022,21407
35930,21268
35837,21407
35650,21532
35485,21564
35374,21564
35209,21532
35022,21407
34930,21268
34837,21407
34650,21532
34485,21564
34374,21564
34209,21532
34022,21407
33930,21268
33837,21407
33650,21532
33485,21564
33374,21564
33209,21532
33022,21407
32930,21268
32837,21407
32650,21532
32485,21564
32374,21564
32209,21532
32022,21407
31930,21268
31837,21407
31650,21532
31485,21564
31374,21564
31209,21532
31022,21407
30897,21220
30853,21000
30897,20779
31022,20592
31209,20467
31374,20435
31485,20435
31650,20467
31837,20592
31930,20731
32022,20592
32130,20520
32130,19962
32084,19915
32022,19766
32022,19603
32084,19454
32199,19339
32348,19277
32511,19277
32557,19296
32597,19304
32632,19327
32660,19339
32682,19361
32696,19370
32706,19385
32775,19454
32837,19603
32837,19766
32775,19915
32729,19962
32729,20520
32837,20592
32930,20731
33022,20592
33130,20520
33130,20089
33124,20060
33130,20031
33130,19970
33148,19883
33214,19784
33313,19718
33358,19709
34163,18903
34180,18878
34279,18812
34366,18795
34366,18795
34395,18789
34425,18795
50639,18795
50639,18553
31669,18553
31845,18729
" /> 
<polyline style="fill-rule:evenodd;"
points="47320,19731
47345,19748
47411,19847
47429,19934
47429,19934
47435,19963
47429,19993
47429,20135
47511,20119
47748,20119
47845,20138
47880,20161
47914,20138
48011,20119
48248,20119
48345,20138
48376,20159
48462,20124
48517,20124
48580,20186
48580,20619
48572,20619
48572,20719
48580,20719
48580,21152
48517,21214
48462,21214
48376,21179
48345,21200
48248,21219
48011,21219
47929,21203
47929,21269
47975,21315
48037,21465
48037,21627
47975,21777
47860,21891
47711,21953
47548,21953
47399,21891
47284,21777
47222,21627
47222,21465
47284,21315
47330,21269
47330,21203
47248,21219
47011,21219
46914,21200
46880,21177
46845,21200
46748,21219
46511,21219
46414,21200
46331,21144
46276,21062
46256,20964
46256,20374
46276,20276
46331,20193
46414,20138
46511,20119
46748,20119
46830,20135
46830,20087
46727,19984
36837,19984
36729,20092
36729,20520
36837,20592
36938,20743
36976,20663
37139,20515
37292,20452
37380,20500
37380,20950
37372,20950
37372,21050
37380,21050
37380,21499
37292,21547
37139,21484
36976,21336
36938,21256
36837,21407
36729,21479
36729,21876
36953,22100
37900,22100
37930,22094
37959,22100
37959,22100
38046,22118
38145,22184
38162,22209
38620,22667
38645,22684
38711,22783
38729,22870
38729,22870
38735,22900
38729,22929
38729,23520
38837,23592
38930,23731
39022,23592
39209,23467
39374,23435
39485,23435
39650,23467
39837,23592
39930,23731
40022,23592
40130,23520
40130,22829
40124,22800
40130,22770
40130,22521
40084,22474
40022,22325
40022,22163
40084,22013
40199,21898
40348,21836
40511,21836
40660,21898
40775,22013
40837,22163
40837,22325
40775,22474
40729,22521
40729,22770
40735,22800
40729,22829
40729,23520
40837,23592
40930,23731
41022,23592
41209,23467
41374,23435
41485,23435
41650,23467
41837,23592
41930,23731
42022,23592
42209,23467
42374,23435
42485,23435
42650,23467
42837,23592
42930,23731
43022,23592
43209,23467
43374,23435
43485,23435
43650,23467
43837,23592
43869,23640
43879,23587
43934,23504
44017,23449
44115,23430
44744,23430
44842,23449
44925,23504
44980,23587
44999,23685
44999,24314
44980,24412
44925,24495
44842,24550
44744,24569
44115,24569
44017,24550
43934,24495
43879,24412
43869,24359
43837,24407
43650,24532
43485,24564
43374,24564
43209,24532
43022,24407
42930,24268
42837,24407
42650,24532
42485,24564
42374,24564
42209,24532
42022,24407
41930,24268
41837,24407
41729,24479
41729,32976
42509,33755
44379,33755
44418,33697
44500,33642
44598,33623
44797,33623
44760,33586
44722,33494
44722,33380
44785,33317
45080,33317
45080,33632
45046,33666
45093,33697
45130,33752
45166,33697
45213,33666
45180,33632
45180,33317
45474,33317
45537,33380
45537,33494
45499,33586
45462,33623
45661,33623
45718,33634
45718,33040
45537,33040
45537,33155
45474,33217
45180,33217
45180,32903
45080,32903
45080,33217
44785,33217
44722,33155
44722,33040
44760,32948
44830,32878
44922,32840
45017,32840
45080,32903
45180,32903
45242,32840
45337,32840
45429,32878
45499,32948
45537,33040
45718,33040
45718,29625
45722,29606
45733,29590
45738,29586
45597,29445
45513,29243
45513,29024
45597,28822
45752,28667
45954,28583
46173,28583
46185,28588
47330,27443
47330,25525
47320,25532
47162,25690
47145,25715
47120,25732
47120,25732
47071,25765
47046,25781
46959,25799
46959,25799
46930,25805
46900,25799
46259,25799
46230,25805
46200,25799
46200,25799
46113,25781
46014,25715
45997,25690
45339,25032
45314,25015
45267,24945
45248,24916
45232,24837
45230,24829
45230,24829
45224,24800
45230,24770
45230,23123
45006,22899
43859,22899
43830,22905
43800,22899
43800,22899
43713,22881
43614,22815
43597,22790
43239,22432
43214,22415
43148,22316
43130,22229
43130,22229
43124,22200
43130,22170
43130,21479
43022,21407
42930,21268
42837,21407
42650,21532
42485,21564
42374,21564
42209,21532
42022,21407
41930,21268
41837,21407
41650,21532
41485,21564
41374,21564
41209,21532
41022,21407
40930,21268
40837,21407
40650,21532
40485,21564
40374,21564
40209,21532
40022,21407
39930,21268
39837,21407
39650,21532
39485,21564
39374,21564
39209,21532
39022,21407
38921,21256
38883,21336
38720,21484
38567,21547
38480,21499
38480,21050
38380,21050
38380,21499
38292,21547
38139,21484
37976,21336
37930,21238
37883,21336
37720,21484
37567,21547
37480,21499
37480,21050
38380,21050
38480,21050
38487,21050
38487,20950
38480,20950
38480,20500
38380,20500
38380,20950
37480,20950
37480,20500
37567,20452
37720,20515
37883,20663
37930,20761
37976,20663
38139,20515
38292,20452
38380,20500
38480,20500
38567,20452
38720,20515
38883,20663
38921,20743
39022,20592
39209,20467
39374,20435
39485,20435
39650,20467
39837,20592
39930,20731
40022,20592
40209,20467
40374,20435
40485,20435
40650,20467
40837,20592
40930,20731
41022,20592
41209,20467
41374,20435
41485,20435
41650,20467
41837,20592
41930,20731
42022,20592
42209,20467
42374,20435
42485,20435
42650,20467
42837,20592
42930,20731
43022,20592
43209,20467
43374,20435
43485,20435
43650,20467
43837,20592
43930,20731
44022,20592
44209,20467
44374,20435
44485,20435
44650,20467
44837,20592
44962,20779
45006,21000
44962,21220
44837,21407
44729,21479
44729,21876
44853,22000
46200,22000
46230,21994
46259,22000
46259,22000
46346,22018
46445,22084
46462,22109
46820,22467
46845,22484
46862,22509
46862,22509
46911,22583
46935,22700
46929,22729
46929,23796
47011,23780
47248,23780
47345,23799
47380,23822
47414,23799
47511,23780
47748,23780
47845,23799
47876,23820
47962,23785
48017,23785
48080,23847
48080,24280
48072,24280
48072,24380
48080,24380
48080,24813
48017,24875
47962,24875
47929,24862
47929,25080
47929,25080
47929,27510
50639,24800
50639,24443
50498,24443
50498,24675
50460,24767
50389,24837
50297,24875
50242,24875
50180,24813
50180,24380
50080,24380
50080,24813
50017,24875
49962,24875
49880,24841
49797,24875
49742,24875
49680,24813
49680,24380
49580,24380
49580,24813
49517,24875
49462,24875
49380,24841
49297,24875
49242,24875
49180,24813
49180,24380
49080,24380
49080,24813
49017,24875
48962,24875
48880,24841
48797,24875
48742,24875
48680,24813
48680,24380
48580,24380
48580,24813
48517,24875
48462,24875
48380,24841
48297,24875
48242,24875
48180,24813
48180,24380
48580,24380
48680,24380
49080,24380
49180,24380
49580,24380
49680,24380
50080,24380
50180,24380
50435,24380
50498,24443
50639,24443
50639,23985
50498,23985
50498,24218
50435,24280
50180,24280
50180,23847
50080,23847
50080,24280
49680,24280
49680,23847
49580,23847
49580,24280
49180,24280
49180,23847
49080,23847
49080,24280
48680,24280
48680,23847
48580,23847
48580,24280
48180,24280
48180,23847
48242,23785
48297,23785
48380,23819
48462,23785
48517,23785
48580,23847
48680,23847
48742,23785
48797,23785
48880,23819
48962,23785
49017,23785
49080,23847
49180,23847
49242,23785
49297,23785
49380,23819
49462,23785
49517,23785
49580,23847
49680,23847
49742,23785
49797,23785
49880,23819
49962,23785
50017,23785
50080,23847
50180,23847
50242,23785
50297,23785
50389,23823
50460,23893
50498,23985
50639,23985
50639,20781
50498,20781
50498,21014
50460,21106
50389,21176
50297,21214
50242,21214
50180,21152
50180,20719
50080,20719
50080,21152
50017,21214
49962,21214
49880,21180
49797,21214
49742,21214
49680,21152
49680,20719
49580,20719
49580,21152
49517,21214
49462,21214
49380,21180
49297,21214
49242,21214
49180,21152
49180,20719
49080,20719
49080,21152
49017,21214
48962,21214
48880,21180
48797,21214
48742,21214
48680,21152
48680,20719
49080,20719
49180,20719
49580,20719
49680,20719
50080,20719
50180,20719
50435,20719
50498,20781
50639,20781
50639,20324
50498,20324
50498,20556
50435,20619
50180,20619
50180,20186
50080,20186
50080,20619
49680,20619
49680,20186
49580,20186
49580,20619
49180,20619
49180,20186
49080,20186
49080,20619
48680,20619
48680,20186
48742,20124
48797,20124
48880,20158
48962,20124
49017,20124
49080,20186
49180,20186
49242,20124
49297,20124
49380,20158
49462,20124
49517,20124
49580,20186
49680,20186
49742,20124
49797,20124
49880,20158
49962,20124
50017,20124
50080,20186
50180,20186
50242,20124
50297,20124
50389,20162
50460,20232
50498,20324
50639,20324
50639,19708
47298,19708
47320,19731
" /> 
</g> 
</svg>
