G04 #@! TF.GenerationSoftware,KiCad,Pcbnew,5.0.2-bee76a0~70~ubuntu16.04.1*
G04 #@! TF.CreationDate,2019-03-15T02:00:50+08:00*
G04 #@! TF.ProjectId,OTP-v02,4f54502d-7630-4322-9e6b-696361645f70,v01*
G04 #@! TF.SameCoordinates,Original*
G04 #@! TF.FileFunction,Paste,Top*
G04 #@! TF.FilePolarity,Positive*
%FSLAX46Y46*%
G04 Gerber Fmt 4.6, Leading zero omitted, Abs format (unit mm)*
G04 Created by KiCad (PCBNEW 5.0.2-bee76a0~70~ubuntu16.04.1) date Friday, 15 March, 2019 02:00:50 AM PST*
%MOMM*%
%LPD*%
G01*
G04 APERTURE LIST*
%ADD10R,0.200000X0.800000*%
%ADD11C,0.100000*%
%ADD12C,1.150000*%
%ADD13R,2.000000X2.000000*%
%ADD14R,1.200000X0.900000*%
%ADD15R,0.900000X1.200000*%
%ADD16R,5.500000X3.000000*%
%ADD17R,0.800000X0.900000*%
%ADD18R,0.900000X0.800000*%
%ADD19C,0.550000*%
%ADD20R,1.500000X0.600000*%
G04 APERTURE END LIST*
D10*
G04 #@! TO.C,J1*
X112500000Y-99000000D03*
X113000000Y-99000000D03*
X113500000Y-99000000D03*
X114000000Y-99000000D03*
X114500000Y-99000000D03*
X115000000Y-99000000D03*
X115500000Y-99000000D03*
X116000000Y-99000000D03*
X116500000Y-99000000D03*
X117000000Y-99000000D03*
X117500000Y-99000000D03*
X118000000Y-99000000D03*
X118500000Y-99000000D03*
X119000000Y-99000000D03*
X119500000Y-99000000D03*
X120000000Y-99000000D03*
X120500000Y-99000000D03*
X121000000Y-99000000D03*
X121500000Y-99000000D03*
X122000000Y-99000000D03*
X122500000Y-99000000D03*
X123000000Y-99000000D03*
X123500000Y-99000000D03*
X124000000Y-99000000D03*
G04 #@! TD*
D11*
G04 #@! TO.C,C11*
G36*
X122224505Y-91976204D02*
X122248773Y-91979804D01*
X122272572Y-91985765D01*
X122295671Y-91994030D01*
X122317850Y-92004520D01*
X122338893Y-92017132D01*
X122358599Y-92031747D01*
X122376777Y-92048223D01*
X122393253Y-92066401D01*
X122407868Y-92086107D01*
X122420480Y-92107150D01*
X122430970Y-92129329D01*
X122439235Y-92152428D01*
X122445196Y-92176227D01*
X122448796Y-92200495D01*
X122450000Y-92224999D01*
X122450000Y-92875001D01*
X122448796Y-92899505D01*
X122445196Y-92923773D01*
X122439235Y-92947572D01*
X122430970Y-92970671D01*
X122420480Y-92992850D01*
X122407868Y-93013893D01*
X122393253Y-93033599D01*
X122376777Y-93051777D01*
X122358599Y-93068253D01*
X122338893Y-93082868D01*
X122317850Y-93095480D01*
X122295671Y-93105970D01*
X122272572Y-93114235D01*
X122248773Y-93120196D01*
X122224505Y-93123796D01*
X122200001Y-93125000D01*
X121299999Y-93125000D01*
X121275495Y-93123796D01*
X121251227Y-93120196D01*
X121227428Y-93114235D01*
X121204329Y-93105970D01*
X121182150Y-93095480D01*
X121161107Y-93082868D01*
X121141401Y-93068253D01*
X121123223Y-93051777D01*
X121106747Y-93033599D01*
X121092132Y-93013893D01*
X121079520Y-92992850D01*
X121069030Y-92970671D01*
X121060765Y-92947572D01*
X121054804Y-92923773D01*
X121051204Y-92899505D01*
X121050000Y-92875001D01*
X121050000Y-92224999D01*
X121051204Y-92200495D01*
X121054804Y-92176227D01*
X121060765Y-92152428D01*
X121069030Y-92129329D01*
X121079520Y-92107150D01*
X121092132Y-92086107D01*
X121106747Y-92066401D01*
X121123223Y-92048223D01*
X121141401Y-92031747D01*
X121161107Y-92017132D01*
X121182150Y-92004520D01*
X121204329Y-91994030D01*
X121227428Y-91985765D01*
X121251227Y-91979804D01*
X121275495Y-91976204D01*
X121299999Y-91975000D01*
X122200001Y-91975000D01*
X122224505Y-91976204D01*
X122224505Y-91976204D01*
G37*
D12*
X121750000Y-92550000D03*
D11*
G36*
X122224505Y-94026204D02*
X122248773Y-94029804D01*
X122272572Y-94035765D01*
X122295671Y-94044030D01*
X122317850Y-94054520D01*
X122338893Y-94067132D01*
X122358599Y-94081747D01*
X122376777Y-94098223D01*
X122393253Y-94116401D01*
X122407868Y-94136107D01*
X122420480Y-94157150D01*
X122430970Y-94179329D01*
X122439235Y-94202428D01*
X122445196Y-94226227D01*
X122448796Y-94250495D01*
X122450000Y-94274999D01*
X122450000Y-94925001D01*
X122448796Y-94949505D01*
X122445196Y-94973773D01*
X122439235Y-94997572D01*
X122430970Y-95020671D01*
X122420480Y-95042850D01*
X122407868Y-95063893D01*
X122393253Y-95083599D01*
X122376777Y-95101777D01*
X122358599Y-95118253D01*
X122338893Y-95132868D01*
X122317850Y-95145480D01*
X122295671Y-95155970D01*
X122272572Y-95164235D01*
X122248773Y-95170196D01*
X122224505Y-95173796D01*
X122200001Y-95175000D01*
X121299999Y-95175000D01*
X121275495Y-95173796D01*
X121251227Y-95170196D01*
X121227428Y-95164235D01*
X121204329Y-95155970D01*
X121182150Y-95145480D01*
X121161107Y-95132868D01*
X121141401Y-95118253D01*
X121123223Y-95101777D01*
X121106747Y-95083599D01*
X121092132Y-95063893D01*
X121079520Y-95042850D01*
X121069030Y-95020671D01*
X121060765Y-94997572D01*
X121054804Y-94973773D01*
X121051204Y-94949505D01*
X121050000Y-94925001D01*
X121050000Y-94274999D01*
X121051204Y-94250495D01*
X121054804Y-94226227D01*
X121060765Y-94202428D01*
X121069030Y-94179329D01*
X121079520Y-94157150D01*
X121092132Y-94136107D01*
X121106747Y-94116401D01*
X121123223Y-94098223D01*
X121141401Y-94081747D01*
X121161107Y-94067132D01*
X121182150Y-94054520D01*
X121204329Y-94044030D01*
X121227428Y-94035765D01*
X121251227Y-94029804D01*
X121275495Y-94026204D01*
X121299999Y-94025000D01*
X122200001Y-94025000D01*
X122224505Y-94026204D01*
X122224505Y-94026204D01*
G37*
D12*
X121750000Y-94600000D03*
G04 #@! TD*
D11*
G04 #@! TO.C,C5*
G36*
X124224505Y-94026204D02*
X124248773Y-94029804D01*
X124272572Y-94035765D01*
X124295671Y-94044030D01*
X124317850Y-94054520D01*
X124338893Y-94067132D01*
X124358599Y-94081747D01*
X124376777Y-94098223D01*
X124393253Y-94116401D01*
X124407868Y-94136107D01*
X124420480Y-94157150D01*
X124430970Y-94179329D01*
X124439235Y-94202428D01*
X124445196Y-94226227D01*
X124448796Y-94250495D01*
X124450000Y-94274999D01*
X124450000Y-94925001D01*
X124448796Y-94949505D01*
X124445196Y-94973773D01*
X124439235Y-94997572D01*
X124430970Y-95020671D01*
X124420480Y-95042850D01*
X124407868Y-95063893D01*
X124393253Y-95083599D01*
X124376777Y-95101777D01*
X124358599Y-95118253D01*
X124338893Y-95132868D01*
X124317850Y-95145480D01*
X124295671Y-95155970D01*
X124272572Y-95164235D01*
X124248773Y-95170196D01*
X124224505Y-95173796D01*
X124200001Y-95175000D01*
X123299999Y-95175000D01*
X123275495Y-95173796D01*
X123251227Y-95170196D01*
X123227428Y-95164235D01*
X123204329Y-95155970D01*
X123182150Y-95145480D01*
X123161107Y-95132868D01*
X123141401Y-95118253D01*
X123123223Y-95101777D01*
X123106747Y-95083599D01*
X123092132Y-95063893D01*
X123079520Y-95042850D01*
X123069030Y-95020671D01*
X123060765Y-94997572D01*
X123054804Y-94973773D01*
X123051204Y-94949505D01*
X123050000Y-94925001D01*
X123050000Y-94274999D01*
X123051204Y-94250495D01*
X123054804Y-94226227D01*
X123060765Y-94202428D01*
X123069030Y-94179329D01*
X123079520Y-94157150D01*
X123092132Y-94136107D01*
X123106747Y-94116401D01*
X123123223Y-94098223D01*
X123141401Y-94081747D01*
X123161107Y-94067132D01*
X123182150Y-94054520D01*
X123204329Y-94044030D01*
X123227428Y-94035765D01*
X123251227Y-94029804D01*
X123275495Y-94026204D01*
X123299999Y-94025000D01*
X124200001Y-94025000D01*
X124224505Y-94026204D01*
X124224505Y-94026204D01*
G37*
D12*
X123750000Y-94600000D03*
D11*
G36*
X124224505Y-91976204D02*
X124248773Y-91979804D01*
X124272572Y-91985765D01*
X124295671Y-91994030D01*
X124317850Y-92004520D01*
X124338893Y-92017132D01*
X124358599Y-92031747D01*
X124376777Y-92048223D01*
X124393253Y-92066401D01*
X124407868Y-92086107D01*
X124420480Y-92107150D01*
X124430970Y-92129329D01*
X124439235Y-92152428D01*
X124445196Y-92176227D01*
X124448796Y-92200495D01*
X124450000Y-92224999D01*
X124450000Y-92875001D01*
X124448796Y-92899505D01*
X124445196Y-92923773D01*
X124439235Y-92947572D01*
X124430970Y-92970671D01*
X124420480Y-92992850D01*
X124407868Y-93013893D01*
X124393253Y-93033599D01*
X124376777Y-93051777D01*
X124358599Y-93068253D01*
X124338893Y-93082868D01*
X124317850Y-93095480D01*
X124295671Y-93105970D01*
X124272572Y-93114235D01*
X124248773Y-93120196D01*
X124224505Y-93123796D01*
X124200001Y-93125000D01*
X123299999Y-93125000D01*
X123275495Y-93123796D01*
X123251227Y-93120196D01*
X123227428Y-93114235D01*
X123204329Y-93105970D01*
X123182150Y-93095480D01*
X123161107Y-93082868D01*
X123141401Y-93068253D01*
X123123223Y-93051777D01*
X123106747Y-93033599D01*
X123092132Y-93013893D01*
X123079520Y-92992850D01*
X123069030Y-92970671D01*
X123060765Y-92947572D01*
X123054804Y-92923773D01*
X123051204Y-92899505D01*
X123050000Y-92875001D01*
X123050000Y-92224999D01*
X123051204Y-92200495D01*
X123054804Y-92176227D01*
X123060765Y-92152428D01*
X123069030Y-92129329D01*
X123079520Y-92107150D01*
X123092132Y-92086107D01*
X123106747Y-92066401D01*
X123123223Y-92048223D01*
X123141401Y-92031747D01*
X123161107Y-92017132D01*
X123182150Y-92004520D01*
X123204329Y-91994030D01*
X123227428Y-91985765D01*
X123251227Y-91979804D01*
X123275495Y-91976204D01*
X123299999Y-91975000D01*
X124200001Y-91975000D01*
X124224505Y-91976204D01*
X124224505Y-91976204D01*
G37*
D12*
X123750000Y-92550000D03*
G04 #@! TD*
D13*
G04 #@! TO.C,BT2*
X122000000Y-61000000D03*
X116000000Y-61000000D03*
G04 #@! TD*
D11*
G04 #@! TO.C,C1*
G36*
X127974505Y-88976204D02*
X127998773Y-88979804D01*
X128022572Y-88985765D01*
X128045671Y-88994030D01*
X128067850Y-89004520D01*
X128088893Y-89017132D01*
X128108599Y-89031747D01*
X128126777Y-89048223D01*
X128143253Y-89066401D01*
X128157868Y-89086107D01*
X128170480Y-89107150D01*
X128180970Y-89129329D01*
X128189235Y-89152428D01*
X128195196Y-89176227D01*
X128198796Y-89200495D01*
X128200000Y-89224999D01*
X128200000Y-89875001D01*
X128198796Y-89899505D01*
X128195196Y-89923773D01*
X128189235Y-89947572D01*
X128180970Y-89970671D01*
X128170480Y-89992850D01*
X128157868Y-90013893D01*
X128143253Y-90033599D01*
X128126777Y-90051777D01*
X128108599Y-90068253D01*
X128088893Y-90082868D01*
X128067850Y-90095480D01*
X128045671Y-90105970D01*
X128022572Y-90114235D01*
X127998773Y-90120196D01*
X127974505Y-90123796D01*
X127950001Y-90125000D01*
X127049999Y-90125000D01*
X127025495Y-90123796D01*
X127001227Y-90120196D01*
X126977428Y-90114235D01*
X126954329Y-90105970D01*
X126932150Y-90095480D01*
X126911107Y-90082868D01*
X126891401Y-90068253D01*
X126873223Y-90051777D01*
X126856747Y-90033599D01*
X126842132Y-90013893D01*
X126829520Y-89992850D01*
X126819030Y-89970671D01*
X126810765Y-89947572D01*
X126804804Y-89923773D01*
X126801204Y-89899505D01*
X126800000Y-89875001D01*
X126800000Y-89224999D01*
X126801204Y-89200495D01*
X126804804Y-89176227D01*
X126810765Y-89152428D01*
X126819030Y-89129329D01*
X126829520Y-89107150D01*
X126842132Y-89086107D01*
X126856747Y-89066401D01*
X126873223Y-89048223D01*
X126891401Y-89031747D01*
X126911107Y-89017132D01*
X126932150Y-89004520D01*
X126954329Y-88994030D01*
X126977428Y-88985765D01*
X127001227Y-88979804D01*
X127025495Y-88976204D01*
X127049999Y-88975000D01*
X127950001Y-88975000D01*
X127974505Y-88976204D01*
X127974505Y-88976204D01*
G37*
D12*
X127500000Y-89550000D03*
D11*
G36*
X127974505Y-86926204D02*
X127998773Y-86929804D01*
X128022572Y-86935765D01*
X128045671Y-86944030D01*
X128067850Y-86954520D01*
X128088893Y-86967132D01*
X128108599Y-86981747D01*
X128126777Y-86998223D01*
X128143253Y-87016401D01*
X128157868Y-87036107D01*
X128170480Y-87057150D01*
X128180970Y-87079329D01*
X128189235Y-87102428D01*
X128195196Y-87126227D01*
X128198796Y-87150495D01*
X128200000Y-87174999D01*
X128200000Y-87825001D01*
X128198796Y-87849505D01*
X128195196Y-87873773D01*
X128189235Y-87897572D01*
X128180970Y-87920671D01*
X128170480Y-87942850D01*
X128157868Y-87963893D01*
X128143253Y-87983599D01*
X128126777Y-88001777D01*
X128108599Y-88018253D01*
X128088893Y-88032868D01*
X128067850Y-88045480D01*
X128045671Y-88055970D01*
X128022572Y-88064235D01*
X127998773Y-88070196D01*
X127974505Y-88073796D01*
X127950001Y-88075000D01*
X127049999Y-88075000D01*
X127025495Y-88073796D01*
X127001227Y-88070196D01*
X126977428Y-88064235D01*
X126954329Y-88055970D01*
X126932150Y-88045480D01*
X126911107Y-88032868D01*
X126891401Y-88018253D01*
X126873223Y-88001777D01*
X126856747Y-87983599D01*
X126842132Y-87963893D01*
X126829520Y-87942850D01*
X126819030Y-87920671D01*
X126810765Y-87897572D01*
X126804804Y-87873773D01*
X126801204Y-87849505D01*
X126800000Y-87825001D01*
X126800000Y-87174999D01*
X126801204Y-87150495D01*
X126804804Y-87126227D01*
X126810765Y-87102428D01*
X126819030Y-87079329D01*
X126829520Y-87057150D01*
X126842132Y-87036107D01*
X126856747Y-87016401D01*
X126873223Y-86998223D01*
X126891401Y-86981747D01*
X126911107Y-86967132D01*
X126932150Y-86954520D01*
X126954329Y-86944030D01*
X126977428Y-86935765D01*
X127001227Y-86929804D01*
X127025495Y-86926204D01*
X127049999Y-86925000D01*
X127950001Y-86925000D01*
X127974505Y-86926204D01*
X127974505Y-86926204D01*
G37*
D12*
X127500000Y-87500000D03*
G04 #@! TD*
D11*
G04 #@! TO.C,C2*
G36*
X108799505Y-82551204D02*
X108823773Y-82554804D01*
X108847572Y-82560765D01*
X108870671Y-82569030D01*
X108892850Y-82579520D01*
X108913893Y-82592132D01*
X108933599Y-82606747D01*
X108951777Y-82623223D01*
X108968253Y-82641401D01*
X108982868Y-82661107D01*
X108995480Y-82682150D01*
X109005970Y-82704329D01*
X109014235Y-82727428D01*
X109020196Y-82751227D01*
X109023796Y-82775495D01*
X109025000Y-82799999D01*
X109025000Y-83700001D01*
X109023796Y-83724505D01*
X109020196Y-83748773D01*
X109014235Y-83772572D01*
X109005970Y-83795671D01*
X108995480Y-83817850D01*
X108982868Y-83838893D01*
X108968253Y-83858599D01*
X108951777Y-83876777D01*
X108933599Y-83893253D01*
X108913893Y-83907868D01*
X108892850Y-83920480D01*
X108870671Y-83930970D01*
X108847572Y-83939235D01*
X108823773Y-83945196D01*
X108799505Y-83948796D01*
X108775001Y-83950000D01*
X108124999Y-83950000D01*
X108100495Y-83948796D01*
X108076227Y-83945196D01*
X108052428Y-83939235D01*
X108029329Y-83930970D01*
X108007150Y-83920480D01*
X107986107Y-83907868D01*
X107966401Y-83893253D01*
X107948223Y-83876777D01*
X107931747Y-83858599D01*
X107917132Y-83838893D01*
X107904520Y-83817850D01*
X107894030Y-83795671D01*
X107885765Y-83772572D01*
X107879804Y-83748773D01*
X107876204Y-83724505D01*
X107875000Y-83700001D01*
X107875000Y-82799999D01*
X107876204Y-82775495D01*
X107879804Y-82751227D01*
X107885765Y-82727428D01*
X107894030Y-82704329D01*
X107904520Y-82682150D01*
X107917132Y-82661107D01*
X107931747Y-82641401D01*
X107948223Y-82623223D01*
X107966401Y-82606747D01*
X107986107Y-82592132D01*
X108007150Y-82579520D01*
X108029329Y-82569030D01*
X108052428Y-82560765D01*
X108076227Y-82554804D01*
X108100495Y-82551204D01*
X108124999Y-82550000D01*
X108775001Y-82550000D01*
X108799505Y-82551204D01*
X108799505Y-82551204D01*
G37*
D12*
X108450000Y-83250000D03*
D11*
G36*
X110849505Y-82551204D02*
X110873773Y-82554804D01*
X110897572Y-82560765D01*
X110920671Y-82569030D01*
X110942850Y-82579520D01*
X110963893Y-82592132D01*
X110983599Y-82606747D01*
X111001777Y-82623223D01*
X111018253Y-82641401D01*
X111032868Y-82661107D01*
X111045480Y-82682150D01*
X111055970Y-82704329D01*
X111064235Y-82727428D01*
X111070196Y-82751227D01*
X111073796Y-82775495D01*
X111075000Y-82799999D01*
X111075000Y-83700001D01*
X111073796Y-83724505D01*
X111070196Y-83748773D01*
X111064235Y-83772572D01*
X111055970Y-83795671D01*
X111045480Y-83817850D01*
X111032868Y-83838893D01*
X111018253Y-83858599D01*
X111001777Y-83876777D01*
X110983599Y-83893253D01*
X110963893Y-83907868D01*
X110942850Y-83920480D01*
X110920671Y-83930970D01*
X110897572Y-83939235D01*
X110873773Y-83945196D01*
X110849505Y-83948796D01*
X110825001Y-83950000D01*
X110174999Y-83950000D01*
X110150495Y-83948796D01*
X110126227Y-83945196D01*
X110102428Y-83939235D01*
X110079329Y-83930970D01*
X110057150Y-83920480D01*
X110036107Y-83907868D01*
X110016401Y-83893253D01*
X109998223Y-83876777D01*
X109981747Y-83858599D01*
X109967132Y-83838893D01*
X109954520Y-83817850D01*
X109944030Y-83795671D01*
X109935765Y-83772572D01*
X109929804Y-83748773D01*
X109926204Y-83724505D01*
X109925000Y-83700001D01*
X109925000Y-82799999D01*
X109926204Y-82775495D01*
X109929804Y-82751227D01*
X109935765Y-82727428D01*
X109944030Y-82704329D01*
X109954520Y-82682150D01*
X109967132Y-82661107D01*
X109981747Y-82641401D01*
X109998223Y-82623223D01*
X110016401Y-82606747D01*
X110036107Y-82592132D01*
X110057150Y-82579520D01*
X110079329Y-82569030D01*
X110102428Y-82560765D01*
X110126227Y-82554804D01*
X110150495Y-82551204D01*
X110174999Y-82550000D01*
X110825001Y-82550000D01*
X110849505Y-82551204D01*
X110849505Y-82551204D01*
G37*
D12*
X110500000Y-83250000D03*
G04 #@! TD*
D11*
G04 #@! TO.C,C3*
G36*
X126224505Y-93976204D02*
X126248773Y-93979804D01*
X126272572Y-93985765D01*
X126295671Y-93994030D01*
X126317850Y-94004520D01*
X126338893Y-94017132D01*
X126358599Y-94031747D01*
X126376777Y-94048223D01*
X126393253Y-94066401D01*
X126407868Y-94086107D01*
X126420480Y-94107150D01*
X126430970Y-94129329D01*
X126439235Y-94152428D01*
X126445196Y-94176227D01*
X126448796Y-94200495D01*
X126450000Y-94224999D01*
X126450000Y-94875001D01*
X126448796Y-94899505D01*
X126445196Y-94923773D01*
X126439235Y-94947572D01*
X126430970Y-94970671D01*
X126420480Y-94992850D01*
X126407868Y-95013893D01*
X126393253Y-95033599D01*
X126376777Y-95051777D01*
X126358599Y-95068253D01*
X126338893Y-95082868D01*
X126317850Y-95095480D01*
X126295671Y-95105970D01*
X126272572Y-95114235D01*
X126248773Y-95120196D01*
X126224505Y-95123796D01*
X126200001Y-95125000D01*
X125299999Y-95125000D01*
X125275495Y-95123796D01*
X125251227Y-95120196D01*
X125227428Y-95114235D01*
X125204329Y-95105970D01*
X125182150Y-95095480D01*
X125161107Y-95082868D01*
X125141401Y-95068253D01*
X125123223Y-95051777D01*
X125106747Y-95033599D01*
X125092132Y-95013893D01*
X125079520Y-94992850D01*
X125069030Y-94970671D01*
X125060765Y-94947572D01*
X125054804Y-94923773D01*
X125051204Y-94899505D01*
X125050000Y-94875001D01*
X125050000Y-94224999D01*
X125051204Y-94200495D01*
X125054804Y-94176227D01*
X125060765Y-94152428D01*
X125069030Y-94129329D01*
X125079520Y-94107150D01*
X125092132Y-94086107D01*
X125106747Y-94066401D01*
X125123223Y-94048223D01*
X125141401Y-94031747D01*
X125161107Y-94017132D01*
X125182150Y-94004520D01*
X125204329Y-93994030D01*
X125227428Y-93985765D01*
X125251227Y-93979804D01*
X125275495Y-93976204D01*
X125299999Y-93975000D01*
X126200001Y-93975000D01*
X126224505Y-93976204D01*
X126224505Y-93976204D01*
G37*
D12*
X125750000Y-94550000D03*
D11*
G36*
X126224505Y-91926204D02*
X126248773Y-91929804D01*
X126272572Y-91935765D01*
X126295671Y-91944030D01*
X126317850Y-91954520D01*
X126338893Y-91967132D01*
X126358599Y-91981747D01*
X126376777Y-91998223D01*
X126393253Y-92016401D01*
X126407868Y-92036107D01*
X126420480Y-92057150D01*
X126430970Y-92079329D01*
X126439235Y-92102428D01*
X126445196Y-92126227D01*
X126448796Y-92150495D01*
X126450000Y-92174999D01*
X126450000Y-92825001D01*
X126448796Y-92849505D01*
X126445196Y-92873773D01*
X126439235Y-92897572D01*
X126430970Y-92920671D01*
X126420480Y-92942850D01*
X126407868Y-92963893D01*
X126393253Y-92983599D01*
X126376777Y-93001777D01*
X126358599Y-93018253D01*
X126338893Y-93032868D01*
X126317850Y-93045480D01*
X126295671Y-93055970D01*
X126272572Y-93064235D01*
X126248773Y-93070196D01*
X126224505Y-93073796D01*
X126200001Y-93075000D01*
X125299999Y-93075000D01*
X125275495Y-93073796D01*
X125251227Y-93070196D01*
X125227428Y-93064235D01*
X125204329Y-93055970D01*
X125182150Y-93045480D01*
X125161107Y-93032868D01*
X125141401Y-93018253D01*
X125123223Y-93001777D01*
X125106747Y-92983599D01*
X125092132Y-92963893D01*
X125079520Y-92942850D01*
X125069030Y-92920671D01*
X125060765Y-92897572D01*
X125054804Y-92873773D01*
X125051204Y-92849505D01*
X125050000Y-92825001D01*
X125050000Y-92174999D01*
X125051204Y-92150495D01*
X125054804Y-92126227D01*
X125060765Y-92102428D01*
X125069030Y-92079329D01*
X125079520Y-92057150D01*
X125092132Y-92036107D01*
X125106747Y-92016401D01*
X125123223Y-91998223D01*
X125141401Y-91981747D01*
X125161107Y-91967132D01*
X125182150Y-91954520D01*
X125204329Y-91944030D01*
X125227428Y-91935765D01*
X125251227Y-91929804D01*
X125275495Y-91926204D01*
X125299999Y-91925000D01*
X126200001Y-91925000D01*
X126224505Y-91926204D01*
X126224505Y-91926204D01*
G37*
D12*
X125750000Y-92500000D03*
G04 #@! TD*
D11*
G04 #@! TO.C,C4*
G36*
X125974505Y-88926204D02*
X125998773Y-88929804D01*
X126022572Y-88935765D01*
X126045671Y-88944030D01*
X126067850Y-88954520D01*
X126088893Y-88967132D01*
X126108599Y-88981747D01*
X126126777Y-88998223D01*
X126143253Y-89016401D01*
X126157868Y-89036107D01*
X126170480Y-89057150D01*
X126180970Y-89079329D01*
X126189235Y-89102428D01*
X126195196Y-89126227D01*
X126198796Y-89150495D01*
X126200000Y-89174999D01*
X126200000Y-89825001D01*
X126198796Y-89849505D01*
X126195196Y-89873773D01*
X126189235Y-89897572D01*
X126180970Y-89920671D01*
X126170480Y-89942850D01*
X126157868Y-89963893D01*
X126143253Y-89983599D01*
X126126777Y-90001777D01*
X126108599Y-90018253D01*
X126088893Y-90032868D01*
X126067850Y-90045480D01*
X126045671Y-90055970D01*
X126022572Y-90064235D01*
X125998773Y-90070196D01*
X125974505Y-90073796D01*
X125950001Y-90075000D01*
X125049999Y-90075000D01*
X125025495Y-90073796D01*
X125001227Y-90070196D01*
X124977428Y-90064235D01*
X124954329Y-90055970D01*
X124932150Y-90045480D01*
X124911107Y-90032868D01*
X124891401Y-90018253D01*
X124873223Y-90001777D01*
X124856747Y-89983599D01*
X124842132Y-89963893D01*
X124829520Y-89942850D01*
X124819030Y-89920671D01*
X124810765Y-89897572D01*
X124804804Y-89873773D01*
X124801204Y-89849505D01*
X124800000Y-89825001D01*
X124800000Y-89174999D01*
X124801204Y-89150495D01*
X124804804Y-89126227D01*
X124810765Y-89102428D01*
X124819030Y-89079329D01*
X124829520Y-89057150D01*
X124842132Y-89036107D01*
X124856747Y-89016401D01*
X124873223Y-88998223D01*
X124891401Y-88981747D01*
X124911107Y-88967132D01*
X124932150Y-88954520D01*
X124954329Y-88944030D01*
X124977428Y-88935765D01*
X125001227Y-88929804D01*
X125025495Y-88926204D01*
X125049999Y-88925000D01*
X125950001Y-88925000D01*
X125974505Y-88926204D01*
X125974505Y-88926204D01*
G37*
D12*
X125500000Y-89500000D03*
D11*
G36*
X125974505Y-86876204D02*
X125998773Y-86879804D01*
X126022572Y-86885765D01*
X126045671Y-86894030D01*
X126067850Y-86904520D01*
X126088893Y-86917132D01*
X126108599Y-86931747D01*
X126126777Y-86948223D01*
X126143253Y-86966401D01*
X126157868Y-86986107D01*
X126170480Y-87007150D01*
X126180970Y-87029329D01*
X126189235Y-87052428D01*
X126195196Y-87076227D01*
X126198796Y-87100495D01*
X126200000Y-87124999D01*
X126200000Y-87775001D01*
X126198796Y-87799505D01*
X126195196Y-87823773D01*
X126189235Y-87847572D01*
X126180970Y-87870671D01*
X126170480Y-87892850D01*
X126157868Y-87913893D01*
X126143253Y-87933599D01*
X126126777Y-87951777D01*
X126108599Y-87968253D01*
X126088893Y-87982868D01*
X126067850Y-87995480D01*
X126045671Y-88005970D01*
X126022572Y-88014235D01*
X125998773Y-88020196D01*
X125974505Y-88023796D01*
X125950001Y-88025000D01*
X125049999Y-88025000D01*
X125025495Y-88023796D01*
X125001227Y-88020196D01*
X124977428Y-88014235D01*
X124954329Y-88005970D01*
X124932150Y-87995480D01*
X124911107Y-87982868D01*
X124891401Y-87968253D01*
X124873223Y-87951777D01*
X124856747Y-87933599D01*
X124842132Y-87913893D01*
X124829520Y-87892850D01*
X124819030Y-87870671D01*
X124810765Y-87847572D01*
X124804804Y-87823773D01*
X124801204Y-87799505D01*
X124800000Y-87775001D01*
X124800000Y-87124999D01*
X124801204Y-87100495D01*
X124804804Y-87076227D01*
X124810765Y-87052428D01*
X124819030Y-87029329D01*
X124829520Y-87007150D01*
X124842132Y-86986107D01*
X124856747Y-86966401D01*
X124873223Y-86948223D01*
X124891401Y-86931747D01*
X124911107Y-86917132D01*
X124932150Y-86904520D01*
X124954329Y-86894030D01*
X124977428Y-86885765D01*
X125001227Y-86879804D01*
X125025495Y-86876204D01*
X125049999Y-86875000D01*
X125950001Y-86875000D01*
X125974505Y-86876204D01*
X125974505Y-86876204D01*
G37*
D12*
X125500000Y-87450000D03*
G04 #@! TD*
D11*
G04 #@! TO.C,C6*
G36*
X127799505Y-97051204D02*
X127823773Y-97054804D01*
X127847572Y-97060765D01*
X127870671Y-97069030D01*
X127892850Y-97079520D01*
X127913893Y-97092132D01*
X127933599Y-97106747D01*
X127951777Y-97123223D01*
X127968253Y-97141401D01*
X127982868Y-97161107D01*
X127995480Y-97182150D01*
X128005970Y-97204329D01*
X128014235Y-97227428D01*
X128020196Y-97251227D01*
X128023796Y-97275495D01*
X128025000Y-97299999D01*
X128025000Y-98200001D01*
X128023796Y-98224505D01*
X128020196Y-98248773D01*
X128014235Y-98272572D01*
X128005970Y-98295671D01*
X127995480Y-98317850D01*
X127982868Y-98338893D01*
X127968253Y-98358599D01*
X127951777Y-98376777D01*
X127933599Y-98393253D01*
X127913893Y-98407868D01*
X127892850Y-98420480D01*
X127870671Y-98430970D01*
X127847572Y-98439235D01*
X127823773Y-98445196D01*
X127799505Y-98448796D01*
X127775001Y-98450000D01*
X127124999Y-98450000D01*
X127100495Y-98448796D01*
X127076227Y-98445196D01*
X127052428Y-98439235D01*
X127029329Y-98430970D01*
X127007150Y-98420480D01*
X126986107Y-98407868D01*
X126966401Y-98393253D01*
X126948223Y-98376777D01*
X126931747Y-98358599D01*
X126917132Y-98338893D01*
X126904520Y-98317850D01*
X126894030Y-98295671D01*
X126885765Y-98272572D01*
X126879804Y-98248773D01*
X126876204Y-98224505D01*
X126875000Y-98200001D01*
X126875000Y-97299999D01*
X126876204Y-97275495D01*
X126879804Y-97251227D01*
X126885765Y-97227428D01*
X126894030Y-97204329D01*
X126904520Y-97182150D01*
X126917132Y-97161107D01*
X126931747Y-97141401D01*
X126948223Y-97123223D01*
X126966401Y-97106747D01*
X126986107Y-97092132D01*
X127007150Y-97079520D01*
X127029329Y-97069030D01*
X127052428Y-97060765D01*
X127076227Y-97054804D01*
X127100495Y-97051204D01*
X127124999Y-97050000D01*
X127775001Y-97050000D01*
X127799505Y-97051204D01*
X127799505Y-97051204D01*
G37*
D12*
X127450000Y-97750000D03*
D11*
G36*
X129849505Y-97051204D02*
X129873773Y-97054804D01*
X129897572Y-97060765D01*
X129920671Y-97069030D01*
X129942850Y-97079520D01*
X129963893Y-97092132D01*
X129983599Y-97106747D01*
X130001777Y-97123223D01*
X130018253Y-97141401D01*
X130032868Y-97161107D01*
X130045480Y-97182150D01*
X130055970Y-97204329D01*
X130064235Y-97227428D01*
X130070196Y-97251227D01*
X130073796Y-97275495D01*
X130075000Y-97299999D01*
X130075000Y-98200001D01*
X130073796Y-98224505D01*
X130070196Y-98248773D01*
X130064235Y-98272572D01*
X130055970Y-98295671D01*
X130045480Y-98317850D01*
X130032868Y-98338893D01*
X130018253Y-98358599D01*
X130001777Y-98376777D01*
X129983599Y-98393253D01*
X129963893Y-98407868D01*
X129942850Y-98420480D01*
X129920671Y-98430970D01*
X129897572Y-98439235D01*
X129873773Y-98445196D01*
X129849505Y-98448796D01*
X129825001Y-98450000D01*
X129174999Y-98450000D01*
X129150495Y-98448796D01*
X129126227Y-98445196D01*
X129102428Y-98439235D01*
X129079329Y-98430970D01*
X129057150Y-98420480D01*
X129036107Y-98407868D01*
X129016401Y-98393253D01*
X128998223Y-98376777D01*
X128981747Y-98358599D01*
X128967132Y-98338893D01*
X128954520Y-98317850D01*
X128944030Y-98295671D01*
X128935765Y-98272572D01*
X128929804Y-98248773D01*
X128926204Y-98224505D01*
X128925000Y-98200001D01*
X128925000Y-97299999D01*
X128926204Y-97275495D01*
X128929804Y-97251227D01*
X128935765Y-97227428D01*
X128944030Y-97204329D01*
X128954520Y-97182150D01*
X128967132Y-97161107D01*
X128981747Y-97141401D01*
X128998223Y-97123223D01*
X129016401Y-97106747D01*
X129036107Y-97092132D01*
X129057150Y-97079520D01*
X129079329Y-97069030D01*
X129102428Y-97060765D01*
X129126227Y-97054804D01*
X129150495Y-97051204D01*
X129174999Y-97050000D01*
X129825001Y-97050000D01*
X129849505Y-97051204D01*
X129849505Y-97051204D01*
G37*
D12*
X129500000Y-97750000D03*
G04 #@! TD*
D11*
G04 #@! TO.C,C7*
G36*
X111474505Y-91901204D02*
X111498773Y-91904804D01*
X111522572Y-91910765D01*
X111545671Y-91919030D01*
X111567850Y-91929520D01*
X111588893Y-91942132D01*
X111608599Y-91956747D01*
X111626777Y-91973223D01*
X111643253Y-91991401D01*
X111657868Y-92011107D01*
X111670480Y-92032150D01*
X111680970Y-92054329D01*
X111689235Y-92077428D01*
X111695196Y-92101227D01*
X111698796Y-92125495D01*
X111700000Y-92149999D01*
X111700000Y-92800001D01*
X111698796Y-92824505D01*
X111695196Y-92848773D01*
X111689235Y-92872572D01*
X111680970Y-92895671D01*
X111670480Y-92917850D01*
X111657868Y-92938893D01*
X111643253Y-92958599D01*
X111626777Y-92976777D01*
X111608599Y-92993253D01*
X111588893Y-93007868D01*
X111567850Y-93020480D01*
X111545671Y-93030970D01*
X111522572Y-93039235D01*
X111498773Y-93045196D01*
X111474505Y-93048796D01*
X111450001Y-93050000D01*
X110549999Y-93050000D01*
X110525495Y-93048796D01*
X110501227Y-93045196D01*
X110477428Y-93039235D01*
X110454329Y-93030970D01*
X110432150Y-93020480D01*
X110411107Y-93007868D01*
X110391401Y-92993253D01*
X110373223Y-92976777D01*
X110356747Y-92958599D01*
X110342132Y-92938893D01*
X110329520Y-92917850D01*
X110319030Y-92895671D01*
X110310765Y-92872572D01*
X110304804Y-92848773D01*
X110301204Y-92824505D01*
X110300000Y-92800001D01*
X110300000Y-92149999D01*
X110301204Y-92125495D01*
X110304804Y-92101227D01*
X110310765Y-92077428D01*
X110319030Y-92054329D01*
X110329520Y-92032150D01*
X110342132Y-92011107D01*
X110356747Y-91991401D01*
X110373223Y-91973223D01*
X110391401Y-91956747D01*
X110411107Y-91942132D01*
X110432150Y-91929520D01*
X110454329Y-91919030D01*
X110477428Y-91910765D01*
X110501227Y-91904804D01*
X110525495Y-91901204D01*
X110549999Y-91900000D01*
X111450001Y-91900000D01*
X111474505Y-91901204D01*
X111474505Y-91901204D01*
G37*
D12*
X111000000Y-92475000D03*
D11*
G36*
X111474505Y-93951204D02*
X111498773Y-93954804D01*
X111522572Y-93960765D01*
X111545671Y-93969030D01*
X111567850Y-93979520D01*
X111588893Y-93992132D01*
X111608599Y-94006747D01*
X111626777Y-94023223D01*
X111643253Y-94041401D01*
X111657868Y-94061107D01*
X111670480Y-94082150D01*
X111680970Y-94104329D01*
X111689235Y-94127428D01*
X111695196Y-94151227D01*
X111698796Y-94175495D01*
X111700000Y-94199999D01*
X111700000Y-94850001D01*
X111698796Y-94874505D01*
X111695196Y-94898773D01*
X111689235Y-94922572D01*
X111680970Y-94945671D01*
X111670480Y-94967850D01*
X111657868Y-94988893D01*
X111643253Y-95008599D01*
X111626777Y-95026777D01*
X111608599Y-95043253D01*
X111588893Y-95057868D01*
X111567850Y-95070480D01*
X111545671Y-95080970D01*
X111522572Y-95089235D01*
X111498773Y-95095196D01*
X111474505Y-95098796D01*
X111450001Y-95100000D01*
X110549999Y-95100000D01*
X110525495Y-95098796D01*
X110501227Y-95095196D01*
X110477428Y-95089235D01*
X110454329Y-95080970D01*
X110432150Y-95070480D01*
X110411107Y-95057868D01*
X110391401Y-95043253D01*
X110373223Y-95026777D01*
X110356747Y-95008599D01*
X110342132Y-94988893D01*
X110329520Y-94967850D01*
X110319030Y-94945671D01*
X110310765Y-94922572D01*
X110304804Y-94898773D01*
X110301204Y-94874505D01*
X110300000Y-94850001D01*
X110300000Y-94199999D01*
X110301204Y-94175495D01*
X110304804Y-94151227D01*
X110310765Y-94127428D01*
X110319030Y-94104329D01*
X110329520Y-94082150D01*
X110342132Y-94061107D01*
X110356747Y-94041401D01*
X110373223Y-94023223D01*
X110391401Y-94006747D01*
X110411107Y-93992132D01*
X110432150Y-93979520D01*
X110454329Y-93969030D01*
X110477428Y-93960765D01*
X110501227Y-93954804D01*
X110525495Y-93951204D01*
X110549999Y-93950000D01*
X111450001Y-93950000D01*
X111474505Y-93951204D01*
X111474505Y-93951204D01*
G37*
D12*
X111000000Y-94525000D03*
G04 #@! TD*
D11*
G04 #@! TO.C,C9*
G36*
X128224505Y-91901204D02*
X128248773Y-91904804D01*
X128272572Y-91910765D01*
X128295671Y-91919030D01*
X128317850Y-91929520D01*
X128338893Y-91942132D01*
X128358599Y-91956747D01*
X128376777Y-91973223D01*
X128393253Y-91991401D01*
X128407868Y-92011107D01*
X128420480Y-92032150D01*
X128430970Y-92054329D01*
X128439235Y-92077428D01*
X128445196Y-92101227D01*
X128448796Y-92125495D01*
X128450000Y-92149999D01*
X128450000Y-92800001D01*
X128448796Y-92824505D01*
X128445196Y-92848773D01*
X128439235Y-92872572D01*
X128430970Y-92895671D01*
X128420480Y-92917850D01*
X128407868Y-92938893D01*
X128393253Y-92958599D01*
X128376777Y-92976777D01*
X128358599Y-92993253D01*
X128338893Y-93007868D01*
X128317850Y-93020480D01*
X128295671Y-93030970D01*
X128272572Y-93039235D01*
X128248773Y-93045196D01*
X128224505Y-93048796D01*
X128200001Y-93050000D01*
X127299999Y-93050000D01*
X127275495Y-93048796D01*
X127251227Y-93045196D01*
X127227428Y-93039235D01*
X127204329Y-93030970D01*
X127182150Y-93020480D01*
X127161107Y-93007868D01*
X127141401Y-92993253D01*
X127123223Y-92976777D01*
X127106747Y-92958599D01*
X127092132Y-92938893D01*
X127079520Y-92917850D01*
X127069030Y-92895671D01*
X127060765Y-92872572D01*
X127054804Y-92848773D01*
X127051204Y-92824505D01*
X127050000Y-92800001D01*
X127050000Y-92149999D01*
X127051204Y-92125495D01*
X127054804Y-92101227D01*
X127060765Y-92077428D01*
X127069030Y-92054329D01*
X127079520Y-92032150D01*
X127092132Y-92011107D01*
X127106747Y-91991401D01*
X127123223Y-91973223D01*
X127141401Y-91956747D01*
X127161107Y-91942132D01*
X127182150Y-91929520D01*
X127204329Y-91919030D01*
X127227428Y-91910765D01*
X127251227Y-91904804D01*
X127275495Y-91901204D01*
X127299999Y-91900000D01*
X128200001Y-91900000D01*
X128224505Y-91901204D01*
X128224505Y-91901204D01*
G37*
D12*
X127750000Y-92475000D03*
D11*
G36*
X128224505Y-93951204D02*
X128248773Y-93954804D01*
X128272572Y-93960765D01*
X128295671Y-93969030D01*
X128317850Y-93979520D01*
X128338893Y-93992132D01*
X128358599Y-94006747D01*
X128376777Y-94023223D01*
X128393253Y-94041401D01*
X128407868Y-94061107D01*
X128420480Y-94082150D01*
X128430970Y-94104329D01*
X128439235Y-94127428D01*
X128445196Y-94151227D01*
X128448796Y-94175495D01*
X128450000Y-94199999D01*
X128450000Y-94850001D01*
X128448796Y-94874505D01*
X128445196Y-94898773D01*
X128439235Y-94922572D01*
X128430970Y-94945671D01*
X128420480Y-94967850D01*
X128407868Y-94988893D01*
X128393253Y-95008599D01*
X128376777Y-95026777D01*
X128358599Y-95043253D01*
X128338893Y-95057868D01*
X128317850Y-95070480D01*
X128295671Y-95080970D01*
X128272572Y-95089235D01*
X128248773Y-95095196D01*
X128224505Y-95098796D01*
X128200001Y-95100000D01*
X127299999Y-95100000D01*
X127275495Y-95098796D01*
X127251227Y-95095196D01*
X127227428Y-95089235D01*
X127204329Y-95080970D01*
X127182150Y-95070480D01*
X127161107Y-95057868D01*
X127141401Y-95043253D01*
X127123223Y-95026777D01*
X127106747Y-95008599D01*
X127092132Y-94988893D01*
X127079520Y-94967850D01*
X127069030Y-94945671D01*
X127060765Y-94922572D01*
X127054804Y-94898773D01*
X127051204Y-94874505D01*
X127050000Y-94850001D01*
X127050000Y-94199999D01*
X127051204Y-94175495D01*
X127054804Y-94151227D01*
X127060765Y-94127428D01*
X127069030Y-94104329D01*
X127079520Y-94082150D01*
X127092132Y-94061107D01*
X127106747Y-94041401D01*
X127123223Y-94023223D01*
X127141401Y-94006747D01*
X127161107Y-93992132D01*
X127182150Y-93979520D01*
X127204329Y-93969030D01*
X127227428Y-93960765D01*
X127251227Y-93954804D01*
X127275495Y-93951204D01*
X127299999Y-93950000D01*
X128200001Y-93950000D01*
X128224505Y-93951204D01*
X128224505Y-93951204D01*
G37*
D12*
X127750000Y-94525000D03*
G04 #@! TD*
D11*
G04 #@! TO.C,C10*
G36*
X113474505Y-93951204D02*
X113498773Y-93954804D01*
X113522572Y-93960765D01*
X113545671Y-93969030D01*
X113567850Y-93979520D01*
X113588893Y-93992132D01*
X113608599Y-94006747D01*
X113626777Y-94023223D01*
X113643253Y-94041401D01*
X113657868Y-94061107D01*
X113670480Y-94082150D01*
X113680970Y-94104329D01*
X113689235Y-94127428D01*
X113695196Y-94151227D01*
X113698796Y-94175495D01*
X113700000Y-94199999D01*
X113700000Y-94850001D01*
X113698796Y-94874505D01*
X113695196Y-94898773D01*
X113689235Y-94922572D01*
X113680970Y-94945671D01*
X113670480Y-94967850D01*
X113657868Y-94988893D01*
X113643253Y-95008599D01*
X113626777Y-95026777D01*
X113608599Y-95043253D01*
X113588893Y-95057868D01*
X113567850Y-95070480D01*
X113545671Y-95080970D01*
X113522572Y-95089235D01*
X113498773Y-95095196D01*
X113474505Y-95098796D01*
X113450001Y-95100000D01*
X112549999Y-95100000D01*
X112525495Y-95098796D01*
X112501227Y-95095196D01*
X112477428Y-95089235D01*
X112454329Y-95080970D01*
X112432150Y-95070480D01*
X112411107Y-95057868D01*
X112391401Y-95043253D01*
X112373223Y-95026777D01*
X112356747Y-95008599D01*
X112342132Y-94988893D01*
X112329520Y-94967850D01*
X112319030Y-94945671D01*
X112310765Y-94922572D01*
X112304804Y-94898773D01*
X112301204Y-94874505D01*
X112300000Y-94850001D01*
X112300000Y-94199999D01*
X112301204Y-94175495D01*
X112304804Y-94151227D01*
X112310765Y-94127428D01*
X112319030Y-94104329D01*
X112329520Y-94082150D01*
X112342132Y-94061107D01*
X112356747Y-94041401D01*
X112373223Y-94023223D01*
X112391401Y-94006747D01*
X112411107Y-93992132D01*
X112432150Y-93979520D01*
X112454329Y-93969030D01*
X112477428Y-93960765D01*
X112501227Y-93954804D01*
X112525495Y-93951204D01*
X112549999Y-93950000D01*
X113450001Y-93950000D01*
X113474505Y-93951204D01*
X113474505Y-93951204D01*
G37*
D12*
X113000000Y-94525000D03*
D11*
G36*
X113474505Y-91901204D02*
X113498773Y-91904804D01*
X113522572Y-91910765D01*
X113545671Y-91919030D01*
X113567850Y-91929520D01*
X113588893Y-91942132D01*
X113608599Y-91956747D01*
X113626777Y-91973223D01*
X113643253Y-91991401D01*
X113657868Y-92011107D01*
X113670480Y-92032150D01*
X113680970Y-92054329D01*
X113689235Y-92077428D01*
X113695196Y-92101227D01*
X113698796Y-92125495D01*
X113700000Y-92149999D01*
X113700000Y-92800001D01*
X113698796Y-92824505D01*
X113695196Y-92848773D01*
X113689235Y-92872572D01*
X113680970Y-92895671D01*
X113670480Y-92917850D01*
X113657868Y-92938893D01*
X113643253Y-92958599D01*
X113626777Y-92976777D01*
X113608599Y-92993253D01*
X113588893Y-93007868D01*
X113567850Y-93020480D01*
X113545671Y-93030970D01*
X113522572Y-93039235D01*
X113498773Y-93045196D01*
X113474505Y-93048796D01*
X113450001Y-93050000D01*
X112549999Y-93050000D01*
X112525495Y-93048796D01*
X112501227Y-93045196D01*
X112477428Y-93039235D01*
X112454329Y-93030970D01*
X112432150Y-93020480D01*
X112411107Y-93007868D01*
X112391401Y-92993253D01*
X112373223Y-92976777D01*
X112356747Y-92958599D01*
X112342132Y-92938893D01*
X112329520Y-92917850D01*
X112319030Y-92895671D01*
X112310765Y-92872572D01*
X112304804Y-92848773D01*
X112301204Y-92824505D01*
X112300000Y-92800001D01*
X112300000Y-92149999D01*
X112301204Y-92125495D01*
X112304804Y-92101227D01*
X112310765Y-92077428D01*
X112319030Y-92054329D01*
X112329520Y-92032150D01*
X112342132Y-92011107D01*
X112356747Y-91991401D01*
X112373223Y-91973223D01*
X112391401Y-91956747D01*
X112411107Y-91942132D01*
X112432150Y-91929520D01*
X112454329Y-91919030D01*
X112477428Y-91910765D01*
X112501227Y-91904804D01*
X112525495Y-91901204D01*
X112549999Y-91900000D01*
X113450001Y-91900000D01*
X113474505Y-91901204D01*
X113474505Y-91901204D01*
G37*
D12*
X113000000Y-92475000D03*
G04 #@! TD*
D11*
G04 #@! TO.C,C12*
G36*
X130224505Y-93951204D02*
X130248773Y-93954804D01*
X130272572Y-93960765D01*
X130295671Y-93969030D01*
X130317850Y-93979520D01*
X130338893Y-93992132D01*
X130358599Y-94006747D01*
X130376777Y-94023223D01*
X130393253Y-94041401D01*
X130407868Y-94061107D01*
X130420480Y-94082150D01*
X130430970Y-94104329D01*
X130439235Y-94127428D01*
X130445196Y-94151227D01*
X130448796Y-94175495D01*
X130450000Y-94199999D01*
X130450000Y-94850001D01*
X130448796Y-94874505D01*
X130445196Y-94898773D01*
X130439235Y-94922572D01*
X130430970Y-94945671D01*
X130420480Y-94967850D01*
X130407868Y-94988893D01*
X130393253Y-95008599D01*
X130376777Y-95026777D01*
X130358599Y-95043253D01*
X130338893Y-95057868D01*
X130317850Y-95070480D01*
X130295671Y-95080970D01*
X130272572Y-95089235D01*
X130248773Y-95095196D01*
X130224505Y-95098796D01*
X130200001Y-95100000D01*
X129299999Y-95100000D01*
X129275495Y-95098796D01*
X129251227Y-95095196D01*
X129227428Y-95089235D01*
X129204329Y-95080970D01*
X129182150Y-95070480D01*
X129161107Y-95057868D01*
X129141401Y-95043253D01*
X129123223Y-95026777D01*
X129106747Y-95008599D01*
X129092132Y-94988893D01*
X129079520Y-94967850D01*
X129069030Y-94945671D01*
X129060765Y-94922572D01*
X129054804Y-94898773D01*
X129051204Y-94874505D01*
X129050000Y-94850001D01*
X129050000Y-94199999D01*
X129051204Y-94175495D01*
X129054804Y-94151227D01*
X129060765Y-94127428D01*
X129069030Y-94104329D01*
X129079520Y-94082150D01*
X129092132Y-94061107D01*
X129106747Y-94041401D01*
X129123223Y-94023223D01*
X129141401Y-94006747D01*
X129161107Y-93992132D01*
X129182150Y-93979520D01*
X129204329Y-93969030D01*
X129227428Y-93960765D01*
X129251227Y-93954804D01*
X129275495Y-93951204D01*
X129299999Y-93950000D01*
X130200001Y-93950000D01*
X130224505Y-93951204D01*
X130224505Y-93951204D01*
G37*
D12*
X129750000Y-94525000D03*
D11*
G36*
X130224505Y-91901204D02*
X130248773Y-91904804D01*
X130272572Y-91910765D01*
X130295671Y-91919030D01*
X130317850Y-91929520D01*
X130338893Y-91942132D01*
X130358599Y-91956747D01*
X130376777Y-91973223D01*
X130393253Y-91991401D01*
X130407868Y-92011107D01*
X130420480Y-92032150D01*
X130430970Y-92054329D01*
X130439235Y-92077428D01*
X130445196Y-92101227D01*
X130448796Y-92125495D01*
X130450000Y-92149999D01*
X130450000Y-92800001D01*
X130448796Y-92824505D01*
X130445196Y-92848773D01*
X130439235Y-92872572D01*
X130430970Y-92895671D01*
X130420480Y-92917850D01*
X130407868Y-92938893D01*
X130393253Y-92958599D01*
X130376777Y-92976777D01*
X130358599Y-92993253D01*
X130338893Y-93007868D01*
X130317850Y-93020480D01*
X130295671Y-93030970D01*
X130272572Y-93039235D01*
X130248773Y-93045196D01*
X130224505Y-93048796D01*
X130200001Y-93050000D01*
X129299999Y-93050000D01*
X129275495Y-93048796D01*
X129251227Y-93045196D01*
X129227428Y-93039235D01*
X129204329Y-93030970D01*
X129182150Y-93020480D01*
X129161107Y-93007868D01*
X129141401Y-92993253D01*
X129123223Y-92976777D01*
X129106747Y-92958599D01*
X129092132Y-92938893D01*
X129079520Y-92917850D01*
X129069030Y-92895671D01*
X129060765Y-92872572D01*
X129054804Y-92848773D01*
X129051204Y-92824505D01*
X129050000Y-92800001D01*
X129050000Y-92149999D01*
X129051204Y-92125495D01*
X129054804Y-92101227D01*
X129060765Y-92077428D01*
X129069030Y-92054329D01*
X129079520Y-92032150D01*
X129092132Y-92011107D01*
X129106747Y-91991401D01*
X129123223Y-91973223D01*
X129141401Y-91956747D01*
X129161107Y-91942132D01*
X129182150Y-91929520D01*
X129204329Y-91919030D01*
X129227428Y-91910765D01*
X129251227Y-91904804D01*
X129275495Y-91901204D01*
X129299999Y-91900000D01*
X130200001Y-91900000D01*
X130224505Y-91901204D01*
X130224505Y-91901204D01*
G37*
D12*
X129750000Y-92475000D03*
G04 #@! TD*
D14*
G04 #@! TO.C,D1*
X112117973Y-89262500D03*
X112117973Y-85962500D03*
G04 #@! TD*
G04 #@! TO.C,D2*
X114117973Y-85962500D03*
X114117973Y-89262500D03*
G04 #@! TD*
D15*
G04 #@! TO.C,D3*
X107000000Y-80500000D03*
X110300000Y-80500000D03*
G04 #@! TD*
D16*
G04 #@! TO.C,L1*
X109500000Y-72000000D03*
X109500000Y-76700000D03*
G04 #@! TD*
D17*
G04 #@! TO.C,Q1*
X108250000Y-85750000D03*
X109200000Y-87750000D03*
X107300000Y-87750000D03*
G04 #@! TD*
D18*
G04 #@! TO.C,Q2*
X129000000Y-85200000D03*
X129000000Y-83300000D03*
X127000000Y-84250000D03*
G04 #@! TD*
D11*
G04 #@! TO.C,R1*
G36*
X109649505Y-96301204D02*
X109673773Y-96304804D01*
X109697572Y-96310765D01*
X109720671Y-96319030D01*
X109742850Y-96329520D01*
X109763893Y-96342132D01*
X109783599Y-96356747D01*
X109801777Y-96373223D01*
X109818253Y-96391401D01*
X109832868Y-96411107D01*
X109845480Y-96432150D01*
X109855970Y-96454329D01*
X109864235Y-96477428D01*
X109870196Y-96501227D01*
X109873796Y-96525495D01*
X109875000Y-96549999D01*
X109875000Y-97450001D01*
X109873796Y-97474505D01*
X109870196Y-97498773D01*
X109864235Y-97522572D01*
X109855970Y-97545671D01*
X109845480Y-97567850D01*
X109832868Y-97588893D01*
X109818253Y-97608599D01*
X109801777Y-97626777D01*
X109783599Y-97643253D01*
X109763893Y-97657868D01*
X109742850Y-97670480D01*
X109720671Y-97680970D01*
X109697572Y-97689235D01*
X109673773Y-97695196D01*
X109649505Y-97698796D01*
X109625001Y-97700000D01*
X108974999Y-97700000D01*
X108950495Y-97698796D01*
X108926227Y-97695196D01*
X108902428Y-97689235D01*
X108879329Y-97680970D01*
X108857150Y-97670480D01*
X108836107Y-97657868D01*
X108816401Y-97643253D01*
X108798223Y-97626777D01*
X108781747Y-97608599D01*
X108767132Y-97588893D01*
X108754520Y-97567850D01*
X108744030Y-97545671D01*
X108735765Y-97522572D01*
X108729804Y-97498773D01*
X108726204Y-97474505D01*
X108725000Y-97450001D01*
X108725000Y-96549999D01*
X108726204Y-96525495D01*
X108729804Y-96501227D01*
X108735765Y-96477428D01*
X108744030Y-96454329D01*
X108754520Y-96432150D01*
X108767132Y-96411107D01*
X108781747Y-96391401D01*
X108798223Y-96373223D01*
X108816401Y-96356747D01*
X108836107Y-96342132D01*
X108857150Y-96329520D01*
X108879329Y-96319030D01*
X108902428Y-96310765D01*
X108926227Y-96304804D01*
X108950495Y-96301204D01*
X108974999Y-96300000D01*
X109625001Y-96300000D01*
X109649505Y-96301204D01*
X109649505Y-96301204D01*
G37*
D12*
X109300000Y-97000000D03*
D11*
G36*
X107599505Y-96301204D02*
X107623773Y-96304804D01*
X107647572Y-96310765D01*
X107670671Y-96319030D01*
X107692850Y-96329520D01*
X107713893Y-96342132D01*
X107733599Y-96356747D01*
X107751777Y-96373223D01*
X107768253Y-96391401D01*
X107782868Y-96411107D01*
X107795480Y-96432150D01*
X107805970Y-96454329D01*
X107814235Y-96477428D01*
X107820196Y-96501227D01*
X107823796Y-96525495D01*
X107825000Y-96549999D01*
X107825000Y-97450001D01*
X107823796Y-97474505D01*
X107820196Y-97498773D01*
X107814235Y-97522572D01*
X107805970Y-97545671D01*
X107795480Y-97567850D01*
X107782868Y-97588893D01*
X107768253Y-97608599D01*
X107751777Y-97626777D01*
X107733599Y-97643253D01*
X107713893Y-97657868D01*
X107692850Y-97670480D01*
X107670671Y-97680970D01*
X107647572Y-97689235D01*
X107623773Y-97695196D01*
X107599505Y-97698796D01*
X107575001Y-97700000D01*
X106924999Y-97700000D01*
X106900495Y-97698796D01*
X106876227Y-97695196D01*
X106852428Y-97689235D01*
X106829329Y-97680970D01*
X106807150Y-97670480D01*
X106786107Y-97657868D01*
X106766401Y-97643253D01*
X106748223Y-97626777D01*
X106731747Y-97608599D01*
X106717132Y-97588893D01*
X106704520Y-97567850D01*
X106694030Y-97545671D01*
X106685765Y-97522572D01*
X106679804Y-97498773D01*
X106676204Y-97474505D01*
X106675000Y-97450001D01*
X106675000Y-96549999D01*
X106676204Y-96525495D01*
X106679804Y-96501227D01*
X106685765Y-96477428D01*
X106694030Y-96454329D01*
X106704520Y-96432150D01*
X106717132Y-96411107D01*
X106731747Y-96391401D01*
X106748223Y-96373223D01*
X106766401Y-96356747D01*
X106786107Y-96342132D01*
X106807150Y-96329520D01*
X106829329Y-96319030D01*
X106852428Y-96310765D01*
X106876227Y-96304804D01*
X106900495Y-96301204D01*
X106924999Y-96300000D01*
X107575001Y-96300000D01*
X107599505Y-96301204D01*
X107599505Y-96301204D01*
G37*
D12*
X107250000Y-97000000D03*
G04 #@! TD*
D11*
G04 #@! TO.C,R2*
G36*
X109523029Y-93939840D02*
X109547297Y-93943440D01*
X109571096Y-93949401D01*
X109594195Y-93957666D01*
X109616374Y-93968156D01*
X109637417Y-93980768D01*
X109657123Y-93995383D01*
X109675301Y-94011859D01*
X109691777Y-94030037D01*
X109706392Y-94049743D01*
X109719004Y-94070786D01*
X109729494Y-94092965D01*
X109737759Y-94116064D01*
X109743720Y-94139863D01*
X109747320Y-94164131D01*
X109748524Y-94188635D01*
X109748524Y-94838637D01*
X109747320Y-94863141D01*
X109743720Y-94887409D01*
X109737759Y-94911208D01*
X109729494Y-94934307D01*
X109719004Y-94956486D01*
X109706392Y-94977529D01*
X109691777Y-94997235D01*
X109675301Y-95015413D01*
X109657123Y-95031889D01*
X109637417Y-95046504D01*
X109616374Y-95059116D01*
X109594195Y-95069606D01*
X109571096Y-95077871D01*
X109547297Y-95083832D01*
X109523029Y-95087432D01*
X109498525Y-95088636D01*
X108598523Y-95088636D01*
X108574019Y-95087432D01*
X108549751Y-95083832D01*
X108525952Y-95077871D01*
X108502853Y-95069606D01*
X108480674Y-95059116D01*
X108459631Y-95046504D01*
X108439925Y-95031889D01*
X108421747Y-95015413D01*
X108405271Y-94997235D01*
X108390656Y-94977529D01*
X108378044Y-94956486D01*
X108367554Y-94934307D01*
X108359289Y-94911208D01*
X108353328Y-94887409D01*
X108349728Y-94863141D01*
X108348524Y-94838637D01*
X108348524Y-94188635D01*
X108349728Y-94164131D01*
X108353328Y-94139863D01*
X108359289Y-94116064D01*
X108367554Y-94092965D01*
X108378044Y-94070786D01*
X108390656Y-94049743D01*
X108405271Y-94030037D01*
X108421747Y-94011859D01*
X108439925Y-93995383D01*
X108459631Y-93980768D01*
X108480674Y-93968156D01*
X108502853Y-93957666D01*
X108525952Y-93949401D01*
X108549751Y-93943440D01*
X108574019Y-93939840D01*
X108598523Y-93938636D01*
X109498525Y-93938636D01*
X109523029Y-93939840D01*
X109523029Y-93939840D01*
G37*
D12*
X109048524Y-94513636D03*
D11*
G36*
X109523029Y-91889840D02*
X109547297Y-91893440D01*
X109571096Y-91899401D01*
X109594195Y-91907666D01*
X109616374Y-91918156D01*
X109637417Y-91930768D01*
X109657123Y-91945383D01*
X109675301Y-91961859D01*
X109691777Y-91980037D01*
X109706392Y-91999743D01*
X109719004Y-92020786D01*
X109729494Y-92042965D01*
X109737759Y-92066064D01*
X109743720Y-92089863D01*
X109747320Y-92114131D01*
X109748524Y-92138635D01*
X109748524Y-92788637D01*
X109747320Y-92813141D01*
X109743720Y-92837409D01*
X109737759Y-92861208D01*
X109729494Y-92884307D01*
X109719004Y-92906486D01*
X109706392Y-92927529D01*
X109691777Y-92947235D01*
X109675301Y-92965413D01*
X109657123Y-92981889D01*
X109637417Y-92996504D01*
X109616374Y-93009116D01*
X109594195Y-93019606D01*
X109571096Y-93027871D01*
X109547297Y-93033832D01*
X109523029Y-93037432D01*
X109498525Y-93038636D01*
X108598523Y-93038636D01*
X108574019Y-93037432D01*
X108549751Y-93033832D01*
X108525952Y-93027871D01*
X108502853Y-93019606D01*
X108480674Y-93009116D01*
X108459631Y-92996504D01*
X108439925Y-92981889D01*
X108421747Y-92965413D01*
X108405271Y-92947235D01*
X108390656Y-92927529D01*
X108378044Y-92906486D01*
X108367554Y-92884307D01*
X108359289Y-92861208D01*
X108353328Y-92837409D01*
X108349728Y-92813141D01*
X108348524Y-92788637D01*
X108348524Y-92138635D01*
X108349728Y-92114131D01*
X108353328Y-92089863D01*
X108359289Y-92066064D01*
X108367554Y-92042965D01*
X108378044Y-92020786D01*
X108390656Y-91999743D01*
X108405271Y-91980037D01*
X108421747Y-91961859D01*
X108439925Y-91945383D01*
X108459631Y-91930768D01*
X108480674Y-91918156D01*
X108502853Y-91907666D01*
X108525952Y-91899401D01*
X108549751Y-91893440D01*
X108574019Y-91889840D01*
X108598523Y-91888636D01*
X109498525Y-91888636D01*
X109523029Y-91889840D01*
X109523029Y-91889840D01*
G37*
D12*
X109048524Y-92463636D03*
G04 #@! TD*
D19*
G04 #@! TO.C,U1*
X119120963Y-76358221D03*
D11*
G36*
X118360823Y-75986990D02*
X118749732Y-75598081D01*
X119881103Y-76729452D01*
X119492194Y-77118361D01*
X118360823Y-75986990D01*
X118360823Y-75986990D01*
G37*
D19*
X118555278Y-76923907D03*
D11*
G36*
X117795138Y-76552676D02*
X118184047Y-76163767D01*
X119315418Y-77295138D01*
X118926509Y-77684047D01*
X117795138Y-76552676D01*
X117795138Y-76552676D01*
G37*
D19*
X117989592Y-77489592D03*
D11*
G36*
X117229452Y-77118361D02*
X117618361Y-76729452D01*
X118749732Y-77860823D01*
X118360823Y-78249732D01*
X117229452Y-77118361D01*
X117229452Y-77118361D01*
G37*
D19*
X117423907Y-78055277D03*
D11*
G36*
X116663767Y-77684046D02*
X117052676Y-77295137D01*
X118184047Y-78426508D01*
X117795138Y-78815417D01*
X116663767Y-77684046D01*
X116663767Y-77684046D01*
G37*
D19*
X116858221Y-78620963D03*
D11*
G36*
X116098081Y-78249732D02*
X116486990Y-77860823D01*
X117618361Y-78992194D01*
X117229452Y-79381103D01*
X116098081Y-78249732D01*
X116098081Y-78249732D01*
G37*
D19*
X116292536Y-79186648D03*
D11*
G36*
X115532396Y-78815417D02*
X115921305Y-78426508D01*
X117052676Y-79557879D01*
X116663767Y-79946788D01*
X115532396Y-78815417D01*
X115532396Y-78815417D01*
G37*
D19*
X115726851Y-79752334D03*
D11*
G36*
X114966711Y-79381103D02*
X115355620Y-78992194D01*
X116486991Y-80123565D01*
X116098082Y-80512474D01*
X114966711Y-79381103D01*
X114966711Y-79381103D01*
G37*
D19*
X115161165Y-80318019D03*
D11*
G36*
X114401025Y-79946788D02*
X114789934Y-79557879D01*
X115921305Y-80689250D01*
X115532396Y-81078159D01*
X114401025Y-79946788D01*
X114401025Y-79946788D01*
G37*
D19*
X115161165Y-82368629D03*
D11*
G36*
X114789934Y-83128769D02*
X114401025Y-82739860D01*
X115532396Y-81608489D01*
X115921305Y-81997398D01*
X114789934Y-83128769D01*
X114789934Y-83128769D01*
G37*
D19*
X115726851Y-82934314D03*
D11*
G36*
X115355620Y-83694454D02*
X114966711Y-83305545D01*
X116098082Y-82174174D01*
X116486991Y-82563083D01*
X115355620Y-83694454D01*
X115355620Y-83694454D01*
G37*
D19*
X116292536Y-83500000D03*
D11*
G36*
X115921305Y-84260140D02*
X115532396Y-83871231D01*
X116663767Y-82739860D01*
X117052676Y-83128769D01*
X115921305Y-84260140D01*
X115921305Y-84260140D01*
G37*
D19*
X116858221Y-84065685D03*
D11*
G36*
X116486990Y-84825825D02*
X116098081Y-84436916D01*
X117229452Y-83305545D01*
X117618361Y-83694454D01*
X116486990Y-84825825D01*
X116486990Y-84825825D01*
G37*
D19*
X117423907Y-84631371D03*
D11*
G36*
X117052676Y-85391511D02*
X116663767Y-85002602D01*
X117795138Y-83871231D01*
X118184047Y-84260140D01*
X117052676Y-85391511D01*
X117052676Y-85391511D01*
G37*
D19*
X117989592Y-85197056D03*
D11*
G36*
X117618361Y-85957196D02*
X117229452Y-85568287D01*
X118360823Y-84436916D01*
X118749732Y-84825825D01*
X117618361Y-85957196D01*
X117618361Y-85957196D01*
G37*
D19*
X118555278Y-85762741D03*
D11*
G36*
X118184047Y-86522881D02*
X117795138Y-86133972D01*
X118926509Y-85002601D01*
X119315418Y-85391510D01*
X118184047Y-86522881D01*
X118184047Y-86522881D01*
G37*
D19*
X119120963Y-86328427D03*
D11*
G36*
X118749732Y-87088567D02*
X118360823Y-86699658D01*
X119492194Y-85568287D01*
X119881103Y-85957196D01*
X118749732Y-87088567D01*
X118749732Y-87088567D01*
G37*
D19*
X121171573Y-86328427D03*
D11*
G36*
X120411433Y-85957196D02*
X120800342Y-85568287D01*
X121931713Y-86699658D01*
X121542804Y-87088567D01*
X120411433Y-85957196D01*
X120411433Y-85957196D01*
G37*
D19*
X121737258Y-85762741D03*
D11*
G36*
X120977118Y-85391510D02*
X121366027Y-85002601D01*
X122497398Y-86133972D01*
X122108489Y-86522881D01*
X120977118Y-85391510D01*
X120977118Y-85391510D01*
G37*
D19*
X122302944Y-85197056D03*
D11*
G36*
X121542804Y-84825825D02*
X121931713Y-84436916D01*
X123063084Y-85568287D01*
X122674175Y-85957196D01*
X121542804Y-84825825D01*
X121542804Y-84825825D01*
G37*
D19*
X122868629Y-84631371D03*
D11*
G36*
X122108489Y-84260140D02*
X122497398Y-83871231D01*
X123628769Y-85002602D01*
X123239860Y-85391511D01*
X122108489Y-84260140D01*
X122108489Y-84260140D01*
G37*
D19*
X123434315Y-84065685D03*
D11*
G36*
X122674175Y-83694454D02*
X123063084Y-83305545D01*
X124194455Y-84436916D01*
X123805546Y-84825825D01*
X122674175Y-83694454D01*
X122674175Y-83694454D01*
G37*
D19*
X124000000Y-83500000D03*
D11*
G36*
X123239860Y-83128769D02*
X123628769Y-82739860D01*
X124760140Y-83871231D01*
X124371231Y-84260140D01*
X123239860Y-83128769D01*
X123239860Y-83128769D01*
G37*
D19*
X124565685Y-82934314D03*
D11*
G36*
X123805545Y-82563083D02*
X124194454Y-82174174D01*
X125325825Y-83305545D01*
X124936916Y-83694454D01*
X123805545Y-82563083D01*
X123805545Y-82563083D01*
G37*
D19*
X125131371Y-82368629D03*
D11*
G36*
X124371231Y-81997398D02*
X124760140Y-81608489D01*
X125891511Y-82739860D01*
X125502602Y-83128769D01*
X124371231Y-81997398D01*
X124371231Y-81997398D01*
G37*
D19*
X125131371Y-80318019D03*
D11*
G36*
X124760140Y-81078159D02*
X124371231Y-80689250D01*
X125502602Y-79557879D01*
X125891511Y-79946788D01*
X124760140Y-81078159D01*
X124760140Y-81078159D01*
G37*
D19*
X124565685Y-79752334D03*
D11*
G36*
X124194454Y-80512474D02*
X123805545Y-80123565D01*
X124936916Y-78992194D01*
X125325825Y-79381103D01*
X124194454Y-80512474D01*
X124194454Y-80512474D01*
G37*
D19*
X124000000Y-79186648D03*
D11*
G36*
X123628769Y-79946788D02*
X123239860Y-79557879D01*
X124371231Y-78426508D01*
X124760140Y-78815417D01*
X123628769Y-79946788D01*
X123628769Y-79946788D01*
G37*
D19*
X123434315Y-78620963D03*
D11*
G36*
X123063084Y-79381103D02*
X122674175Y-78992194D01*
X123805546Y-77860823D01*
X124194455Y-78249732D01*
X123063084Y-79381103D01*
X123063084Y-79381103D01*
G37*
D19*
X122868629Y-78055277D03*
D11*
G36*
X122497398Y-78815417D02*
X122108489Y-78426508D01*
X123239860Y-77295137D01*
X123628769Y-77684046D01*
X122497398Y-78815417D01*
X122497398Y-78815417D01*
G37*
D19*
X122302944Y-77489592D03*
D11*
G36*
X121931713Y-78249732D02*
X121542804Y-77860823D01*
X122674175Y-76729452D01*
X123063084Y-77118361D01*
X121931713Y-78249732D01*
X121931713Y-78249732D01*
G37*
D19*
X121737258Y-76923907D03*
D11*
G36*
X121366027Y-77684047D02*
X120977118Y-77295138D01*
X122108489Y-76163767D01*
X122497398Y-76552676D01*
X121366027Y-77684047D01*
X121366027Y-77684047D01*
G37*
D19*
X121171573Y-76358221D03*
D11*
G36*
X120800342Y-77118361D02*
X120411433Y-76729452D01*
X121542804Y-75598081D01*
X121931713Y-75986990D01*
X120800342Y-77118361D01*
X120800342Y-77118361D01*
G37*
G04 #@! TD*
D20*
G04 #@! TO.C,U2*
X117200000Y-64230000D03*
X117200000Y-65500000D03*
X117200000Y-66770000D03*
X117200000Y-68040000D03*
X117200000Y-69310000D03*
X117200000Y-70580000D03*
X117200000Y-71850000D03*
X117200000Y-73120000D03*
X126500000Y-73120000D03*
X126500000Y-71850000D03*
X126500000Y-70580000D03*
X126500000Y-69310000D03*
X126500000Y-68040000D03*
X126500000Y-66770000D03*
X126500000Y-65500000D03*
X126500000Y-64230000D03*
G04 #@! TD*
D11*
G04 #@! TO.C,C8*
G36*
X120224505Y-93976204D02*
X120248773Y-93979804D01*
X120272572Y-93985765D01*
X120295671Y-93994030D01*
X120317850Y-94004520D01*
X120338893Y-94017132D01*
X120358599Y-94031747D01*
X120376777Y-94048223D01*
X120393253Y-94066401D01*
X120407868Y-94086107D01*
X120420480Y-94107150D01*
X120430970Y-94129329D01*
X120439235Y-94152428D01*
X120445196Y-94176227D01*
X120448796Y-94200495D01*
X120450000Y-94224999D01*
X120450000Y-94875001D01*
X120448796Y-94899505D01*
X120445196Y-94923773D01*
X120439235Y-94947572D01*
X120430970Y-94970671D01*
X120420480Y-94992850D01*
X120407868Y-95013893D01*
X120393253Y-95033599D01*
X120376777Y-95051777D01*
X120358599Y-95068253D01*
X120338893Y-95082868D01*
X120317850Y-95095480D01*
X120295671Y-95105970D01*
X120272572Y-95114235D01*
X120248773Y-95120196D01*
X120224505Y-95123796D01*
X120200001Y-95125000D01*
X119299999Y-95125000D01*
X119275495Y-95123796D01*
X119251227Y-95120196D01*
X119227428Y-95114235D01*
X119204329Y-95105970D01*
X119182150Y-95095480D01*
X119161107Y-95082868D01*
X119141401Y-95068253D01*
X119123223Y-95051777D01*
X119106747Y-95033599D01*
X119092132Y-95013893D01*
X119079520Y-94992850D01*
X119069030Y-94970671D01*
X119060765Y-94947572D01*
X119054804Y-94923773D01*
X119051204Y-94899505D01*
X119050000Y-94875001D01*
X119050000Y-94224999D01*
X119051204Y-94200495D01*
X119054804Y-94176227D01*
X119060765Y-94152428D01*
X119069030Y-94129329D01*
X119079520Y-94107150D01*
X119092132Y-94086107D01*
X119106747Y-94066401D01*
X119123223Y-94048223D01*
X119141401Y-94031747D01*
X119161107Y-94017132D01*
X119182150Y-94004520D01*
X119204329Y-93994030D01*
X119227428Y-93985765D01*
X119251227Y-93979804D01*
X119275495Y-93976204D01*
X119299999Y-93975000D01*
X120200001Y-93975000D01*
X120224505Y-93976204D01*
X120224505Y-93976204D01*
G37*
D12*
X119750000Y-94550000D03*
D11*
G36*
X120224505Y-91926204D02*
X120248773Y-91929804D01*
X120272572Y-91935765D01*
X120295671Y-91944030D01*
X120317850Y-91954520D01*
X120338893Y-91967132D01*
X120358599Y-91981747D01*
X120376777Y-91998223D01*
X120393253Y-92016401D01*
X120407868Y-92036107D01*
X120420480Y-92057150D01*
X120430970Y-92079329D01*
X120439235Y-92102428D01*
X120445196Y-92126227D01*
X120448796Y-92150495D01*
X120450000Y-92174999D01*
X120450000Y-92825001D01*
X120448796Y-92849505D01*
X120445196Y-92873773D01*
X120439235Y-92897572D01*
X120430970Y-92920671D01*
X120420480Y-92942850D01*
X120407868Y-92963893D01*
X120393253Y-92983599D01*
X120376777Y-93001777D01*
X120358599Y-93018253D01*
X120338893Y-93032868D01*
X120317850Y-93045480D01*
X120295671Y-93055970D01*
X120272572Y-93064235D01*
X120248773Y-93070196D01*
X120224505Y-93073796D01*
X120200001Y-93075000D01*
X119299999Y-93075000D01*
X119275495Y-93073796D01*
X119251227Y-93070196D01*
X119227428Y-93064235D01*
X119204329Y-93055970D01*
X119182150Y-93045480D01*
X119161107Y-93032868D01*
X119141401Y-93018253D01*
X119123223Y-93001777D01*
X119106747Y-92983599D01*
X119092132Y-92963893D01*
X119079520Y-92942850D01*
X119069030Y-92920671D01*
X119060765Y-92897572D01*
X119054804Y-92873773D01*
X119051204Y-92849505D01*
X119050000Y-92825001D01*
X119050000Y-92174999D01*
X119051204Y-92150495D01*
X119054804Y-92126227D01*
X119060765Y-92102428D01*
X119069030Y-92079329D01*
X119079520Y-92057150D01*
X119092132Y-92036107D01*
X119106747Y-92016401D01*
X119123223Y-91998223D01*
X119141401Y-91981747D01*
X119161107Y-91967132D01*
X119182150Y-91954520D01*
X119204329Y-91944030D01*
X119227428Y-91935765D01*
X119251227Y-91929804D01*
X119275495Y-91926204D01*
X119299999Y-91925000D01*
X120200001Y-91925000D01*
X120224505Y-91926204D01*
X120224505Y-91926204D01*
G37*
D12*
X119750000Y-92500000D03*
G04 #@! TD*
M02*
