G04 #@! TF.GenerationSoftware,KiCad,Pcbnew,5.0.2-bee76a0~70~ubuntu16.04.1*
G04 #@! TF.CreationDate,2019-03-15T02:00:50+08:00*
G04 #@! TF.ProjectId,OTP-v02,4f54502d-7630-4322-9e6b-696361645f70,v01*
G04 #@! TF.SameCoordinates,Original*
G04 #@! TF.FileFunction,Other,Fab,Top*
%FSLAX46Y46*%
G04 Gerber Fmt 4.6, Leading zero omitted, Abs format (unit mm)*
G04 Created by KiCad (PCBNEW 5.0.2-bee76a0~70~ubuntu16.04.1) date Friday, 15 March, 2019 02:00:50 AM PST*
%MOMM*%
%LPD*%
G01*
G04 APERTURE LIST*
%ADD10C,0.100000*%
%ADD11C,0.150000*%
%ADD12C,0.080000*%
%ADD13C,0.075000*%
G04 APERTURE END LIST*
D10*
G04 #@! TO.C,C11*
X122350000Y-92575000D02*
X122350000Y-94575000D01*
X121150000Y-92575000D02*
X122350000Y-92575000D01*
X121150000Y-94575000D02*
X121150000Y-92575000D01*
X122350000Y-94575000D02*
X121150000Y-94575000D01*
G04 #@! TO.C,C5*
X124350000Y-94575000D02*
X123150000Y-94575000D01*
X123150000Y-94575000D02*
X123150000Y-92575000D01*
X123150000Y-92575000D02*
X124350000Y-92575000D01*
X124350000Y-92575000D02*
X124350000Y-94575000D01*
G04 #@! TO.C,C1*
X126900000Y-89525000D02*
X126900000Y-87525000D01*
X128100000Y-89525000D02*
X126900000Y-89525000D01*
X128100000Y-87525000D02*
X128100000Y-89525000D01*
X126900000Y-87525000D02*
X128100000Y-87525000D01*
G04 #@! TO.C,C2*
X108475000Y-82650000D02*
X110475000Y-82650000D01*
X108475000Y-83850000D02*
X108475000Y-82650000D01*
X110475000Y-83850000D02*
X108475000Y-83850000D01*
X110475000Y-82650000D02*
X110475000Y-83850000D01*
G04 #@! TO.C,C3*
X126350000Y-94525000D02*
X125150000Y-94525000D01*
X125150000Y-94525000D02*
X125150000Y-92525000D01*
X125150000Y-92525000D02*
X126350000Y-92525000D01*
X126350000Y-92525000D02*
X126350000Y-94525000D01*
G04 #@! TO.C,C4*
X124900000Y-89475000D02*
X124900000Y-87475000D01*
X126100000Y-89475000D02*
X124900000Y-89475000D01*
X126100000Y-87475000D02*
X126100000Y-89475000D01*
X124900000Y-87475000D02*
X126100000Y-87475000D01*
G04 #@! TO.C,C6*
X127475000Y-98350000D02*
X127475000Y-97150000D01*
X127475000Y-97150000D02*
X129475000Y-97150000D01*
X129475000Y-97150000D02*
X129475000Y-98350000D01*
X129475000Y-98350000D02*
X127475000Y-98350000D01*
G04 #@! TO.C,C7*
X111600000Y-92500000D02*
X111600000Y-94500000D01*
X110400000Y-92500000D02*
X111600000Y-92500000D01*
X110400000Y-94500000D02*
X110400000Y-92500000D01*
X111600000Y-94500000D02*
X110400000Y-94500000D01*
G04 #@! TO.C,C9*
X128350000Y-92500000D02*
X128350000Y-94500000D01*
X127150000Y-92500000D02*
X128350000Y-92500000D01*
X127150000Y-94500000D02*
X127150000Y-92500000D01*
X128350000Y-94500000D02*
X127150000Y-94500000D01*
G04 #@! TO.C,C10*
X113600000Y-94500000D02*
X112400000Y-94500000D01*
X112400000Y-94500000D02*
X112400000Y-92500000D01*
X112400000Y-92500000D02*
X113600000Y-92500000D01*
X113600000Y-92500000D02*
X113600000Y-94500000D01*
G04 #@! TO.C,C12*
X130350000Y-94500000D02*
X129150000Y-94500000D01*
X129150000Y-94500000D02*
X129150000Y-92500000D01*
X129150000Y-92500000D02*
X130350000Y-92500000D01*
X130350000Y-92500000D02*
X130350000Y-94500000D01*
G04 #@! TO.C,D1*
X112117973Y-87362500D02*
X112117973Y-86862500D01*
X112517973Y-87362500D02*
X112117973Y-87962500D01*
X111717973Y-87362500D02*
X112517973Y-87362500D01*
X112117973Y-87962500D02*
X111717973Y-87362500D01*
X112117973Y-87962500D02*
X112667973Y-87962500D01*
X112117973Y-87962500D02*
X111567973Y-87962500D01*
X112117973Y-88362500D02*
X112117973Y-87962500D01*
X113017973Y-89012500D02*
X111217973Y-89012500D01*
X113017973Y-86212500D02*
X113017973Y-89012500D01*
X111217973Y-86212500D02*
X113017973Y-86212500D01*
X111217973Y-89012500D02*
X111217973Y-86212500D01*
G04 #@! TO.C,D2*
X113217973Y-89012500D02*
X113217973Y-86212500D01*
X113217973Y-86212500D02*
X115017973Y-86212500D01*
X115017973Y-86212500D02*
X115017973Y-89012500D01*
X115017973Y-89012500D02*
X113217973Y-89012500D01*
X114117973Y-88362500D02*
X114117973Y-87962500D01*
X114117973Y-87962500D02*
X113567973Y-87962500D01*
X114117973Y-87962500D02*
X114667973Y-87962500D01*
X114117973Y-87962500D02*
X113717973Y-87362500D01*
X113717973Y-87362500D02*
X114517973Y-87362500D01*
X114517973Y-87362500D02*
X114117973Y-87962500D01*
X114117973Y-87362500D02*
X114117973Y-86862500D01*
G04 #@! TO.C,D3*
X108900000Y-80500000D02*
X109400000Y-80500000D01*
X108900000Y-80900000D02*
X108300000Y-80500000D01*
X108900000Y-80100000D02*
X108900000Y-80900000D01*
X108300000Y-80500000D02*
X108900000Y-80100000D01*
X108300000Y-80500000D02*
X108300000Y-81050000D01*
X108300000Y-80500000D02*
X108300000Y-79950000D01*
X107900000Y-80500000D02*
X108300000Y-80500000D01*
X107250000Y-81400000D02*
X107250000Y-79600000D01*
X110050000Y-81400000D02*
X107250000Y-81400000D01*
X110050000Y-79600000D02*
X110050000Y-81400000D01*
X107250000Y-79600000D02*
X110050000Y-79600000D01*
G04 #@! TO.C,Q1*
X109770000Y-87450000D02*
X109770000Y-86050000D01*
X106730000Y-86050000D02*
X109770000Y-86050000D01*
X107300000Y-87450000D02*
X106730000Y-86900000D01*
X106730000Y-86900000D02*
X106730000Y-86050000D01*
X107300000Y-87450000D02*
X109750000Y-87450000D01*
G04 #@! TO.C,Q2*
X128700000Y-85200000D02*
X128700000Y-82750000D01*
X128150000Y-85770000D02*
X127300000Y-85770000D01*
X128700000Y-85200000D02*
X128150000Y-85770000D01*
X127300000Y-85770000D02*
X127300000Y-82730000D01*
X128700000Y-82730000D02*
X127300000Y-82730000D01*
G04 #@! TO.C,R1*
X109275000Y-97600000D02*
X107275000Y-97600000D01*
X109275000Y-96400000D02*
X109275000Y-97600000D01*
X107275000Y-96400000D02*
X109275000Y-96400000D01*
X107275000Y-97600000D02*
X107275000Y-96400000D01*
G04 #@! TO.C,R2*
X109648524Y-94488636D02*
X108448524Y-94488636D01*
X108448524Y-94488636D02*
X108448524Y-92488636D01*
X108448524Y-92488636D02*
X109648524Y-92488636D01*
X109648524Y-92488636D02*
X109648524Y-94488636D01*
D11*
G04 #@! TO.C,U1*
X120853375Y-77100683D02*
X125096015Y-81343324D01*
X125096015Y-81343324D02*
X120146268Y-86293071D01*
X120146268Y-86293071D02*
X115196521Y-81343324D01*
X115196521Y-81343324D02*
X119439161Y-77100683D01*
X119439161Y-77100683D02*
X120853375Y-77100683D01*
G04 #@! TO.C,U2*
X119100000Y-63525000D02*
X125600000Y-63525000D01*
X125600000Y-63525000D02*
X125600000Y-73825000D01*
X125600000Y-73825000D02*
X118100000Y-73825000D01*
X118100000Y-73825000D02*
X118100000Y-64525000D01*
X118100000Y-64525000D02*
X119100000Y-63525000D01*
D10*
G04 #@! TO.C,C8*
X120350000Y-94525000D02*
X119150000Y-94525000D01*
X119150000Y-94525000D02*
X119150000Y-92525000D01*
X119150000Y-92525000D02*
X120350000Y-92525000D01*
X120350000Y-92525000D02*
X120350000Y-94525000D01*
G04 #@! TD*
G04 #@! TO.C,J1*
D11*
X108428571Y-100809523D02*
X108428571Y-101142857D01*
X108952380Y-101142857D02*
X107952380Y-101142857D01*
X107952380Y-100666666D01*
X108952380Y-100285714D02*
X107952380Y-100285714D01*
X107952380Y-99904761D01*
X108000000Y-99809523D01*
X108047619Y-99761904D01*
X108142857Y-99714285D01*
X108285714Y-99714285D01*
X108380952Y-99761904D01*
X108428571Y-99809523D01*
X108476190Y-99904761D01*
X108476190Y-100285714D01*
X108857142Y-98714285D02*
X108904761Y-98761904D01*
X108952380Y-98904761D01*
X108952380Y-99000000D01*
X108904761Y-99142857D01*
X108809523Y-99238095D01*
X108714285Y-99285714D01*
X108523809Y-99333333D01*
X108380952Y-99333333D01*
X108190476Y-99285714D01*
X108095238Y-99238095D01*
X108000000Y-99142857D01*
X107952380Y-99000000D01*
X107952380Y-98904761D01*
X108000000Y-98761904D01*
X108047619Y-98714285D01*
X108047619Y-98333333D02*
X108000000Y-98285714D01*
X107952380Y-98190476D01*
X107952380Y-97952380D01*
X108000000Y-97857142D01*
X108047619Y-97809523D01*
X108142857Y-97761904D01*
X108238095Y-97761904D01*
X108380952Y-97809523D01*
X108952380Y-98380952D01*
X108952380Y-97761904D01*
X108285714Y-96904761D02*
X108952380Y-96904761D01*
X107904761Y-97142857D02*
X108619047Y-97380952D01*
X108619047Y-96761904D01*
G04 #@! TO.C,C11*
X123852380Y-96075000D02*
X123852380Y-96646428D01*
X123852380Y-96360714D02*
X122852380Y-96360714D01*
X122995238Y-96455952D01*
X123090476Y-96551190D01*
X123138095Y-96646428D01*
X123185714Y-95217857D02*
X123852380Y-95217857D01*
X123185714Y-95646428D02*
X123709523Y-95646428D01*
X123804761Y-95598809D01*
X123852380Y-95503571D01*
X123852380Y-95360714D01*
X123804761Y-95265476D01*
X123757142Y-95217857D01*
X123328571Y-94408333D02*
X123328571Y-94741666D01*
X123852380Y-94741666D02*
X122852380Y-94741666D01*
X122852380Y-94265476D01*
X122804761Y-93170238D02*
X124090476Y-94027380D01*
X122852380Y-92360714D02*
X122852380Y-92836904D01*
X123328571Y-92884523D01*
X123280952Y-92836904D01*
X123233333Y-92741666D01*
X123233333Y-92503571D01*
X123280952Y-92408333D01*
X123328571Y-92360714D01*
X123423809Y-92313095D01*
X123661904Y-92313095D01*
X123757142Y-92360714D01*
X123804761Y-92408333D01*
X123852380Y-92503571D01*
X123852380Y-92741666D01*
X123804761Y-92836904D01*
X123757142Y-92884523D01*
X122852380Y-91694047D02*
X122852380Y-91598809D01*
X122900000Y-91503571D01*
X122947619Y-91455952D01*
X123042857Y-91408333D01*
X123233333Y-91360714D01*
X123471428Y-91360714D01*
X123661904Y-91408333D01*
X123757142Y-91455952D01*
X123804761Y-91503571D01*
X123852380Y-91598809D01*
X123852380Y-91694047D01*
X123804761Y-91789285D01*
X123757142Y-91836904D01*
X123661904Y-91884523D01*
X123471428Y-91932142D01*
X123233333Y-91932142D01*
X123042857Y-91884523D01*
X122947619Y-91836904D01*
X122900000Y-91789285D01*
X122852380Y-91694047D01*
X122852380Y-91075000D02*
X123852380Y-90741666D01*
X122852380Y-90408333D01*
D12*
X121928571Y-93896428D02*
X121952380Y-93920238D01*
X121976190Y-93991666D01*
X121976190Y-94039285D01*
X121952380Y-94110714D01*
X121904761Y-94158333D01*
X121857142Y-94182142D01*
X121761904Y-94205952D01*
X121690476Y-94205952D01*
X121595238Y-94182142D01*
X121547619Y-94158333D01*
X121500000Y-94110714D01*
X121476190Y-94039285D01*
X121476190Y-93991666D01*
X121500000Y-93920238D01*
X121523809Y-93896428D01*
X121976190Y-93420238D02*
X121976190Y-93705952D01*
X121976190Y-93563095D02*
X121476190Y-93563095D01*
X121547619Y-93610714D01*
X121595238Y-93658333D01*
X121619047Y-93705952D01*
X121976190Y-92944047D02*
X121976190Y-93229761D01*
X121976190Y-93086904D02*
X121476190Y-93086904D01*
X121547619Y-93134523D01*
X121595238Y-93182142D01*
X121619047Y-93229761D01*
G04 #@! TO.C,C5*
D11*
X125852380Y-96075000D02*
X125852380Y-96646428D01*
X125852380Y-96360714D02*
X124852380Y-96360714D01*
X124995238Y-96455952D01*
X125090476Y-96551190D01*
X125138095Y-96646428D01*
X125185714Y-95217857D02*
X125852380Y-95217857D01*
X125185714Y-95646428D02*
X125709523Y-95646428D01*
X125804761Y-95598809D01*
X125852380Y-95503571D01*
X125852380Y-95360714D01*
X125804761Y-95265476D01*
X125757142Y-95217857D01*
X125328571Y-94408333D02*
X125328571Y-94741666D01*
X125852380Y-94741666D02*
X124852380Y-94741666D01*
X124852380Y-94265476D01*
X124804761Y-93170238D02*
X126090476Y-94027380D01*
X124852380Y-92360714D02*
X124852380Y-92836904D01*
X125328571Y-92884523D01*
X125280952Y-92836904D01*
X125233333Y-92741666D01*
X125233333Y-92503571D01*
X125280952Y-92408333D01*
X125328571Y-92360714D01*
X125423809Y-92313095D01*
X125661904Y-92313095D01*
X125757142Y-92360714D01*
X125804761Y-92408333D01*
X125852380Y-92503571D01*
X125852380Y-92741666D01*
X125804761Y-92836904D01*
X125757142Y-92884523D01*
X124852380Y-91694047D02*
X124852380Y-91598809D01*
X124900000Y-91503571D01*
X124947619Y-91455952D01*
X125042857Y-91408333D01*
X125233333Y-91360714D01*
X125471428Y-91360714D01*
X125661904Y-91408333D01*
X125757142Y-91455952D01*
X125804761Y-91503571D01*
X125852380Y-91598809D01*
X125852380Y-91694047D01*
X125804761Y-91789285D01*
X125757142Y-91836904D01*
X125661904Y-91884523D01*
X125471428Y-91932142D01*
X125233333Y-91932142D01*
X125042857Y-91884523D01*
X124947619Y-91836904D01*
X124900000Y-91789285D01*
X124852380Y-91694047D01*
X124852380Y-91075000D02*
X125852380Y-90741666D01*
X124852380Y-90408333D01*
D12*
X123928571Y-93658333D02*
X123952380Y-93682142D01*
X123976190Y-93753571D01*
X123976190Y-93801190D01*
X123952380Y-93872619D01*
X123904761Y-93920238D01*
X123857142Y-93944047D01*
X123761904Y-93967857D01*
X123690476Y-93967857D01*
X123595238Y-93944047D01*
X123547619Y-93920238D01*
X123500000Y-93872619D01*
X123476190Y-93801190D01*
X123476190Y-93753571D01*
X123500000Y-93682142D01*
X123523809Y-93658333D01*
X123476190Y-93205952D02*
X123476190Y-93444047D01*
X123714285Y-93467857D01*
X123690476Y-93444047D01*
X123666666Y-93396428D01*
X123666666Y-93277380D01*
X123690476Y-93229761D01*
X123714285Y-93205952D01*
X123761904Y-93182142D01*
X123880952Y-93182142D01*
X123928571Y-93205952D01*
X123952380Y-93229761D01*
X123976190Y-93277380D01*
X123976190Y-93396428D01*
X123952380Y-93444047D01*
X123928571Y-93467857D01*
G04 #@! TO.C,BT1*
D11*
X105428571Y-68357142D02*
X105476190Y-68214285D01*
X105523809Y-68166666D01*
X105619047Y-68119047D01*
X105761904Y-68119047D01*
X105857142Y-68166666D01*
X105904761Y-68214285D01*
X105952380Y-68309523D01*
X105952380Y-68690476D01*
X104952380Y-68690476D01*
X104952380Y-68357142D01*
X105000000Y-68261904D01*
X105047619Y-68214285D01*
X105142857Y-68166666D01*
X105238095Y-68166666D01*
X105333333Y-68214285D01*
X105380952Y-68261904D01*
X105428571Y-68357142D01*
X105428571Y-68690476D01*
X105952380Y-67261904D02*
X105428571Y-67261904D01*
X105333333Y-67309523D01*
X105285714Y-67404761D01*
X105285714Y-67595238D01*
X105333333Y-67690476D01*
X105904761Y-67261904D02*
X105952380Y-67357142D01*
X105952380Y-67595238D01*
X105904761Y-67690476D01*
X105809523Y-67738095D01*
X105714285Y-67738095D01*
X105619047Y-67690476D01*
X105571428Y-67595238D01*
X105571428Y-67357142D01*
X105523809Y-67261904D01*
X105285714Y-66928571D02*
X105285714Y-66547619D01*
X104952380Y-66785714D02*
X105809523Y-66785714D01*
X105904761Y-66738095D01*
X105952380Y-66642857D01*
X105952380Y-66547619D01*
X105285714Y-66357142D02*
X105285714Y-65976190D01*
X104952380Y-66214285D02*
X105809523Y-66214285D01*
X105904761Y-66166666D01*
X105952380Y-66071428D01*
X105952380Y-65976190D01*
X105904761Y-65261904D02*
X105952380Y-65357142D01*
X105952380Y-65547619D01*
X105904761Y-65642857D01*
X105809523Y-65690476D01*
X105428571Y-65690476D01*
X105333333Y-65642857D01*
X105285714Y-65547619D01*
X105285714Y-65357142D01*
X105333333Y-65261904D01*
X105428571Y-65214285D01*
X105523809Y-65214285D01*
X105619047Y-65690476D01*
X105952380Y-64785714D02*
X105285714Y-64785714D01*
X105476190Y-64785714D02*
X105380952Y-64738095D01*
X105333333Y-64690476D01*
X105285714Y-64595238D01*
X105285714Y-64500000D01*
X105285714Y-64261904D02*
X105952380Y-64023809D01*
X105285714Y-63785714D02*
X105952380Y-64023809D01*
X106190476Y-64119047D01*
X106238095Y-64166666D01*
X106285714Y-64261904D01*
X104952380Y-62738095D02*
X104952380Y-62119047D01*
X105333333Y-62452380D01*
X105333333Y-62309523D01*
X105380952Y-62214285D01*
X105428571Y-62166666D01*
X105523809Y-62119047D01*
X105761904Y-62119047D01*
X105857142Y-62166666D01*
X105904761Y-62214285D01*
X105952380Y-62309523D01*
X105952380Y-62595238D01*
X105904761Y-62690476D01*
X105857142Y-62738095D01*
X104952380Y-61833333D02*
X105952380Y-61500000D01*
X104952380Y-61166666D01*
G04 #@! TO.C,BT2*
X114057619Y-67977142D02*
X114010000Y-68024761D01*
X113867142Y-68072380D01*
X113771904Y-68072380D01*
X113629047Y-68024761D01*
X113533809Y-67929523D01*
X113486190Y-67834285D01*
X113438571Y-67643809D01*
X113438571Y-67500952D01*
X113486190Y-67310476D01*
X113533809Y-67215238D01*
X113629047Y-67120000D01*
X113771904Y-67072380D01*
X113867142Y-67072380D01*
X114010000Y-67120000D01*
X114057619Y-67167619D01*
X114867142Y-68024761D02*
X114771904Y-68072380D01*
X114581428Y-68072380D01*
X114486190Y-68024761D01*
X114438571Y-67929523D01*
X114438571Y-67548571D01*
X114486190Y-67453333D01*
X114581428Y-67405714D01*
X114771904Y-67405714D01*
X114867142Y-67453333D01*
X114914761Y-67548571D01*
X114914761Y-67643809D01*
X114438571Y-67739047D01*
X115486190Y-68072380D02*
X115390952Y-68024761D01*
X115343333Y-67929523D01*
X115343333Y-67072380D01*
X116010000Y-68072380D02*
X115914761Y-68024761D01*
X115867142Y-67929523D01*
X115867142Y-67072380D01*
X117486190Y-67548571D02*
X117629047Y-67596190D01*
X117676666Y-67643809D01*
X117724285Y-67739047D01*
X117724285Y-67881904D01*
X117676666Y-67977142D01*
X117629047Y-68024761D01*
X117533809Y-68072380D01*
X117152857Y-68072380D01*
X117152857Y-67072380D01*
X117486190Y-67072380D01*
X117581428Y-67120000D01*
X117629047Y-67167619D01*
X117676666Y-67262857D01*
X117676666Y-67358095D01*
X117629047Y-67453333D01*
X117581428Y-67500952D01*
X117486190Y-67548571D01*
X117152857Y-67548571D01*
X118581428Y-68072380D02*
X118581428Y-67548571D01*
X118533809Y-67453333D01*
X118438571Y-67405714D01*
X118248095Y-67405714D01*
X118152857Y-67453333D01*
X118581428Y-68024761D02*
X118486190Y-68072380D01*
X118248095Y-68072380D01*
X118152857Y-68024761D01*
X118105238Y-67929523D01*
X118105238Y-67834285D01*
X118152857Y-67739047D01*
X118248095Y-67691428D01*
X118486190Y-67691428D01*
X118581428Y-67643809D01*
X118914761Y-67405714D02*
X119295714Y-67405714D01*
X119057619Y-67072380D02*
X119057619Y-67929523D01*
X119105238Y-68024761D01*
X119200476Y-68072380D01*
X119295714Y-68072380D01*
X119486190Y-67405714D02*
X119867142Y-67405714D01*
X119629047Y-67072380D02*
X119629047Y-67929523D01*
X119676666Y-68024761D01*
X119771904Y-68072380D01*
X119867142Y-68072380D01*
X120581428Y-68024761D02*
X120486190Y-68072380D01*
X120295714Y-68072380D01*
X120200476Y-68024761D01*
X120152857Y-67929523D01*
X120152857Y-67548571D01*
X120200476Y-67453333D01*
X120295714Y-67405714D01*
X120486190Y-67405714D01*
X120581428Y-67453333D01*
X120629047Y-67548571D01*
X120629047Y-67643809D01*
X120152857Y-67739047D01*
X121057619Y-68072380D02*
X121057619Y-67405714D01*
X121057619Y-67596190D02*
X121105238Y-67500952D01*
X121152857Y-67453333D01*
X121248095Y-67405714D01*
X121343333Y-67405714D01*
X121581428Y-67405714D02*
X121819523Y-68072380D01*
X122057619Y-67405714D02*
X121819523Y-68072380D01*
X121724285Y-68310476D01*
X121676666Y-68358095D01*
X121581428Y-68405714D01*
X123105238Y-67072380D02*
X123724285Y-67072380D01*
X123390952Y-67453333D01*
X123533809Y-67453333D01*
X123629047Y-67500952D01*
X123676666Y-67548571D01*
X123724285Y-67643809D01*
X123724285Y-67881904D01*
X123676666Y-67977142D01*
X123629047Y-68024761D01*
X123533809Y-68072380D01*
X123248095Y-68072380D01*
X123152857Y-68024761D01*
X123105238Y-67977142D01*
X124010000Y-67072380D02*
X124343333Y-68072380D01*
X124676666Y-67072380D01*
G04 #@! TO.C,C1*
X125635714Y-91834523D02*
X126302380Y-91834523D01*
X125254761Y-92072619D02*
X125969047Y-92310714D01*
X125969047Y-91691666D01*
X126207142Y-91310714D02*
X126254761Y-91263095D01*
X126302380Y-91310714D01*
X126254761Y-91358333D01*
X126207142Y-91310714D01*
X126302380Y-91310714D01*
X125302380Y-90929761D02*
X125302380Y-90263095D01*
X126302380Y-90691666D01*
X125635714Y-89453571D02*
X126302380Y-89453571D01*
X125635714Y-89882142D02*
X126159523Y-89882142D01*
X126254761Y-89834523D01*
X126302380Y-89739285D01*
X126302380Y-89596428D01*
X126254761Y-89501190D01*
X126207142Y-89453571D01*
X125778571Y-88644047D02*
X125778571Y-88977380D01*
X126302380Y-88977380D02*
X125302380Y-88977380D01*
X125302380Y-88501190D01*
X125254761Y-87405952D02*
X126540476Y-88263095D01*
X125302380Y-86596428D02*
X125302380Y-87072619D01*
X125778571Y-87120238D01*
X125730952Y-87072619D01*
X125683333Y-86977380D01*
X125683333Y-86739285D01*
X125730952Y-86644047D01*
X125778571Y-86596428D01*
X125873809Y-86548809D01*
X126111904Y-86548809D01*
X126207142Y-86596428D01*
X126254761Y-86644047D01*
X126302380Y-86739285D01*
X126302380Y-86977380D01*
X126254761Y-87072619D01*
X126207142Y-87120238D01*
X125302380Y-85929761D02*
X125302380Y-85834523D01*
X125350000Y-85739285D01*
X125397619Y-85691666D01*
X125492857Y-85644047D01*
X125683333Y-85596428D01*
X125921428Y-85596428D01*
X126111904Y-85644047D01*
X126207142Y-85691666D01*
X126254761Y-85739285D01*
X126302380Y-85834523D01*
X126302380Y-85929761D01*
X126254761Y-86025000D01*
X126207142Y-86072619D01*
X126111904Y-86120238D01*
X125921428Y-86167857D01*
X125683333Y-86167857D01*
X125492857Y-86120238D01*
X125397619Y-86072619D01*
X125350000Y-86025000D01*
X125302380Y-85929761D01*
X125302380Y-85310714D02*
X126302380Y-84977380D01*
X125302380Y-84644047D01*
D12*
X127678571Y-88608333D02*
X127702380Y-88632142D01*
X127726190Y-88703571D01*
X127726190Y-88751190D01*
X127702380Y-88822619D01*
X127654761Y-88870238D01*
X127607142Y-88894047D01*
X127511904Y-88917857D01*
X127440476Y-88917857D01*
X127345238Y-88894047D01*
X127297619Y-88870238D01*
X127250000Y-88822619D01*
X127226190Y-88751190D01*
X127226190Y-88703571D01*
X127250000Y-88632142D01*
X127273809Y-88608333D01*
X127726190Y-88132142D02*
X127726190Y-88417857D01*
X127726190Y-88275000D02*
X127226190Y-88275000D01*
X127297619Y-88322619D01*
X127345238Y-88370238D01*
X127369047Y-88417857D01*
G04 #@! TO.C,C2*
D11*
X106165476Y-81385714D02*
X106165476Y-82052380D01*
X105927380Y-81004761D02*
X105689285Y-81719047D01*
X106308333Y-81719047D01*
X106689285Y-81957142D02*
X106736904Y-82004761D01*
X106689285Y-82052380D01*
X106641666Y-82004761D01*
X106689285Y-81957142D01*
X106689285Y-82052380D01*
X107070238Y-81052380D02*
X107736904Y-81052380D01*
X107308333Y-82052380D01*
X108546428Y-81385714D02*
X108546428Y-82052380D01*
X108117857Y-81385714D02*
X108117857Y-81909523D01*
X108165476Y-82004761D01*
X108260714Y-82052380D01*
X108403571Y-82052380D01*
X108498809Y-82004761D01*
X108546428Y-81957142D01*
X109355952Y-81528571D02*
X109022619Y-81528571D01*
X109022619Y-82052380D02*
X109022619Y-81052380D01*
X109498809Y-81052380D01*
X110594047Y-81004761D02*
X109736904Y-82290476D01*
X111403571Y-81052380D02*
X110927380Y-81052380D01*
X110879761Y-81528571D01*
X110927380Y-81480952D01*
X111022619Y-81433333D01*
X111260714Y-81433333D01*
X111355952Y-81480952D01*
X111403571Y-81528571D01*
X111451190Y-81623809D01*
X111451190Y-81861904D01*
X111403571Y-81957142D01*
X111355952Y-82004761D01*
X111260714Y-82052380D01*
X111022619Y-82052380D01*
X110927380Y-82004761D01*
X110879761Y-81957142D01*
X112070238Y-81052380D02*
X112165476Y-81052380D01*
X112260714Y-81100000D01*
X112308333Y-81147619D01*
X112355952Y-81242857D01*
X112403571Y-81433333D01*
X112403571Y-81671428D01*
X112355952Y-81861904D01*
X112308333Y-81957142D01*
X112260714Y-82004761D01*
X112165476Y-82052380D01*
X112070238Y-82052380D01*
X111975000Y-82004761D01*
X111927380Y-81957142D01*
X111879761Y-81861904D01*
X111832142Y-81671428D01*
X111832142Y-81433333D01*
X111879761Y-81242857D01*
X111927380Y-81147619D01*
X111975000Y-81100000D01*
X112070238Y-81052380D01*
X112689285Y-81052380D02*
X113022619Y-82052380D01*
X113355952Y-81052380D01*
D12*
X109391666Y-83428571D02*
X109367857Y-83452380D01*
X109296428Y-83476190D01*
X109248809Y-83476190D01*
X109177380Y-83452380D01*
X109129761Y-83404761D01*
X109105952Y-83357142D01*
X109082142Y-83261904D01*
X109082142Y-83190476D01*
X109105952Y-83095238D01*
X109129761Y-83047619D01*
X109177380Y-83000000D01*
X109248809Y-82976190D01*
X109296428Y-82976190D01*
X109367857Y-83000000D01*
X109391666Y-83023809D01*
X109582142Y-83023809D02*
X109605952Y-83000000D01*
X109653571Y-82976190D01*
X109772619Y-82976190D01*
X109820238Y-83000000D01*
X109844047Y-83023809D01*
X109867857Y-83071428D01*
X109867857Y-83119047D01*
X109844047Y-83190476D01*
X109558333Y-83476190D01*
X109867857Y-83476190D01*
G04 #@! TO.C,C3*
D11*
X127185714Y-96834523D02*
X127852380Y-96834523D01*
X126804761Y-97072619D02*
X127519047Y-97310714D01*
X127519047Y-96691666D01*
X127757142Y-96310714D02*
X127804761Y-96263095D01*
X127852380Y-96310714D01*
X127804761Y-96358333D01*
X127757142Y-96310714D01*
X127852380Y-96310714D01*
X126852380Y-95929761D02*
X126852380Y-95263095D01*
X127852380Y-95691666D01*
X127185714Y-94453571D02*
X127852380Y-94453571D01*
X127185714Y-94882142D02*
X127709523Y-94882142D01*
X127804761Y-94834523D01*
X127852380Y-94739285D01*
X127852380Y-94596428D01*
X127804761Y-94501190D01*
X127757142Y-94453571D01*
X127328571Y-93644047D02*
X127328571Y-93977380D01*
X127852380Y-93977380D02*
X126852380Y-93977380D01*
X126852380Y-93501190D01*
X126804761Y-92405952D02*
X128090476Y-93263095D01*
X126852380Y-91596428D02*
X126852380Y-92072619D01*
X127328571Y-92120238D01*
X127280952Y-92072619D01*
X127233333Y-91977380D01*
X127233333Y-91739285D01*
X127280952Y-91644047D01*
X127328571Y-91596428D01*
X127423809Y-91548809D01*
X127661904Y-91548809D01*
X127757142Y-91596428D01*
X127804761Y-91644047D01*
X127852380Y-91739285D01*
X127852380Y-91977380D01*
X127804761Y-92072619D01*
X127757142Y-92120238D01*
X126852380Y-90929761D02*
X126852380Y-90834523D01*
X126900000Y-90739285D01*
X126947619Y-90691666D01*
X127042857Y-90644047D01*
X127233333Y-90596428D01*
X127471428Y-90596428D01*
X127661904Y-90644047D01*
X127757142Y-90691666D01*
X127804761Y-90739285D01*
X127852380Y-90834523D01*
X127852380Y-90929761D01*
X127804761Y-91025000D01*
X127757142Y-91072619D01*
X127661904Y-91120238D01*
X127471428Y-91167857D01*
X127233333Y-91167857D01*
X127042857Y-91120238D01*
X126947619Y-91072619D01*
X126900000Y-91025000D01*
X126852380Y-90929761D01*
X126852380Y-90310714D02*
X127852380Y-89977380D01*
X126852380Y-89644047D01*
D12*
X125928571Y-93608333D02*
X125952380Y-93632142D01*
X125976190Y-93703571D01*
X125976190Y-93751190D01*
X125952380Y-93822619D01*
X125904761Y-93870238D01*
X125857142Y-93894047D01*
X125761904Y-93917857D01*
X125690476Y-93917857D01*
X125595238Y-93894047D01*
X125547619Y-93870238D01*
X125500000Y-93822619D01*
X125476190Y-93751190D01*
X125476190Y-93703571D01*
X125500000Y-93632142D01*
X125523809Y-93608333D01*
X125476190Y-93441666D02*
X125476190Y-93132142D01*
X125666666Y-93298809D01*
X125666666Y-93227380D01*
X125690476Y-93179761D01*
X125714285Y-93155952D01*
X125761904Y-93132142D01*
X125880952Y-93132142D01*
X125928571Y-93155952D01*
X125952380Y-93179761D01*
X125976190Y-93227380D01*
X125976190Y-93370238D01*
X125952380Y-93417857D01*
X125928571Y-93441666D01*
G04 #@! TO.C,C4*
D11*
X124302380Y-90975000D02*
X124302380Y-91546428D01*
X124302380Y-91260714D02*
X123302380Y-91260714D01*
X123445238Y-91355952D01*
X123540476Y-91451190D01*
X123588095Y-91546428D01*
X123635714Y-90117857D02*
X124302380Y-90117857D01*
X123635714Y-90546428D02*
X124159523Y-90546428D01*
X124254761Y-90498809D01*
X124302380Y-90403571D01*
X124302380Y-90260714D01*
X124254761Y-90165476D01*
X124207142Y-90117857D01*
X123778571Y-89308333D02*
X123778571Y-89641666D01*
X124302380Y-89641666D02*
X123302380Y-89641666D01*
X123302380Y-89165476D01*
X123254761Y-88070238D02*
X124540476Y-88927380D01*
X123302380Y-87260714D02*
X123302380Y-87736904D01*
X123778571Y-87784523D01*
X123730952Y-87736904D01*
X123683333Y-87641666D01*
X123683333Y-87403571D01*
X123730952Y-87308333D01*
X123778571Y-87260714D01*
X123873809Y-87213095D01*
X124111904Y-87213095D01*
X124207142Y-87260714D01*
X124254761Y-87308333D01*
X124302380Y-87403571D01*
X124302380Y-87641666D01*
X124254761Y-87736904D01*
X124207142Y-87784523D01*
X123302380Y-86594047D02*
X123302380Y-86498809D01*
X123350000Y-86403571D01*
X123397619Y-86355952D01*
X123492857Y-86308333D01*
X123683333Y-86260714D01*
X123921428Y-86260714D01*
X124111904Y-86308333D01*
X124207142Y-86355952D01*
X124254761Y-86403571D01*
X124302380Y-86498809D01*
X124302380Y-86594047D01*
X124254761Y-86689285D01*
X124207142Y-86736904D01*
X124111904Y-86784523D01*
X123921428Y-86832142D01*
X123683333Y-86832142D01*
X123492857Y-86784523D01*
X123397619Y-86736904D01*
X123350000Y-86689285D01*
X123302380Y-86594047D01*
X123302380Y-85975000D02*
X124302380Y-85641666D01*
X123302380Y-85308333D01*
D12*
X125678571Y-88558333D02*
X125702380Y-88582142D01*
X125726190Y-88653571D01*
X125726190Y-88701190D01*
X125702380Y-88772619D01*
X125654761Y-88820238D01*
X125607142Y-88844047D01*
X125511904Y-88867857D01*
X125440476Y-88867857D01*
X125345238Y-88844047D01*
X125297619Y-88820238D01*
X125250000Y-88772619D01*
X125226190Y-88701190D01*
X125226190Y-88653571D01*
X125250000Y-88582142D01*
X125273809Y-88558333D01*
X125392857Y-88129761D02*
X125726190Y-88129761D01*
X125202380Y-88248809D02*
X125559523Y-88367857D01*
X125559523Y-88058333D01*
G04 #@! TO.C,C6*
D11*
X125975000Y-99852380D02*
X125403571Y-99852380D01*
X125689285Y-99852380D02*
X125689285Y-98852380D01*
X125594047Y-98995238D01*
X125498809Y-99090476D01*
X125403571Y-99138095D01*
X126832142Y-99185714D02*
X126832142Y-99852380D01*
X126403571Y-99185714D02*
X126403571Y-99709523D01*
X126451190Y-99804761D01*
X126546428Y-99852380D01*
X126689285Y-99852380D01*
X126784523Y-99804761D01*
X126832142Y-99757142D01*
X127641666Y-99328571D02*
X127308333Y-99328571D01*
X127308333Y-99852380D02*
X127308333Y-98852380D01*
X127784523Y-98852380D01*
X128879761Y-98804761D02*
X128022619Y-100090476D01*
X129689285Y-98852380D02*
X129213095Y-98852380D01*
X129165476Y-99328571D01*
X129213095Y-99280952D01*
X129308333Y-99233333D01*
X129546428Y-99233333D01*
X129641666Y-99280952D01*
X129689285Y-99328571D01*
X129736904Y-99423809D01*
X129736904Y-99661904D01*
X129689285Y-99757142D01*
X129641666Y-99804761D01*
X129546428Y-99852380D01*
X129308333Y-99852380D01*
X129213095Y-99804761D01*
X129165476Y-99757142D01*
X130355952Y-98852380D02*
X130451190Y-98852380D01*
X130546428Y-98900000D01*
X130594047Y-98947619D01*
X130641666Y-99042857D01*
X130689285Y-99233333D01*
X130689285Y-99471428D01*
X130641666Y-99661904D01*
X130594047Y-99757142D01*
X130546428Y-99804761D01*
X130451190Y-99852380D01*
X130355952Y-99852380D01*
X130260714Y-99804761D01*
X130213095Y-99757142D01*
X130165476Y-99661904D01*
X130117857Y-99471428D01*
X130117857Y-99233333D01*
X130165476Y-99042857D01*
X130213095Y-98947619D01*
X130260714Y-98900000D01*
X130355952Y-98852380D01*
X130975000Y-98852380D02*
X131308333Y-99852380D01*
X131641666Y-98852380D01*
D12*
X128391666Y-97928571D02*
X128367857Y-97952380D01*
X128296428Y-97976190D01*
X128248809Y-97976190D01*
X128177380Y-97952380D01*
X128129761Y-97904761D01*
X128105952Y-97857142D01*
X128082142Y-97761904D01*
X128082142Y-97690476D01*
X128105952Y-97595238D01*
X128129761Y-97547619D01*
X128177380Y-97500000D01*
X128248809Y-97476190D01*
X128296428Y-97476190D01*
X128367857Y-97500000D01*
X128391666Y-97523809D01*
X128820238Y-97476190D02*
X128725000Y-97476190D01*
X128677380Y-97500000D01*
X128653571Y-97523809D01*
X128605952Y-97595238D01*
X128582142Y-97690476D01*
X128582142Y-97880952D01*
X128605952Y-97928571D01*
X128629761Y-97952380D01*
X128677380Y-97976190D01*
X128772619Y-97976190D01*
X128820238Y-97952380D01*
X128844047Y-97928571D01*
X128867857Y-97880952D01*
X128867857Y-97761904D01*
X128844047Y-97714285D01*
X128820238Y-97690476D01*
X128772619Y-97666666D01*
X128677380Y-97666666D01*
X128629761Y-97690476D01*
X128605952Y-97714285D01*
X128582142Y-97761904D01*
G04 #@! TO.C,C7*
D11*
X113102380Y-96000000D02*
X113102380Y-96571428D01*
X113102380Y-96285714D02*
X112102380Y-96285714D01*
X112245238Y-96380952D01*
X112340476Y-96476190D01*
X112388095Y-96571428D01*
X112435714Y-95142857D02*
X113102380Y-95142857D01*
X112435714Y-95571428D02*
X112959523Y-95571428D01*
X113054761Y-95523809D01*
X113102380Y-95428571D01*
X113102380Y-95285714D01*
X113054761Y-95190476D01*
X113007142Y-95142857D01*
X112578571Y-94333333D02*
X112578571Y-94666666D01*
X113102380Y-94666666D02*
X112102380Y-94666666D01*
X112102380Y-94190476D01*
X112054761Y-93095238D02*
X113340476Y-93952380D01*
X112102380Y-92285714D02*
X112102380Y-92761904D01*
X112578571Y-92809523D01*
X112530952Y-92761904D01*
X112483333Y-92666666D01*
X112483333Y-92428571D01*
X112530952Y-92333333D01*
X112578571Y-92285714D01*
X112673809Y-92238095D01*
X112911904Y-92238095D01*
X113007142Y-92285714D01*
X113054761Y-92333333D01*
X113102380Y-92428571D01*
X113102380Y-92666666D01*
X113054761Y-92761904D01*
X113007142Y-92809523D01*
X112102380Y-91619047D02*
X112102380Y-91523809D01*
X112150000Y-91428571D01*
X112197619Y-91380952D01*
X112292857Y-91333333D01*
X112483333Y-91285714D01*
X112721428Y-91285714D01*
X112911904Y-91333333D01*
X113007142Y-91380952D01*
X113054761Y-91428571D01*
X113102380Y-91523809D01*
X113102380Y-91619047D01*
X113054761Y-91714285D01*
X113007142Y-91761904D01*
X112911904Y-91809523D01*
X112721428Y-91857142D01*
X112483333Y-91857142D01*
X112292857Y-91809523D01*
X112197619Y-91761904D01*
X112150000Y-91714285D01*
X112102380Y-91619047D01*
X112102380Y-91000000D02*
X113102380Y-90666666D01*
X112102380Y-90333333D01*
D12*
X111178571Y-93583333D02*
X111202380Y-93607142D01*
X111226190Y-93678571D01*
X111226190Y-93726190D01*
X111202380Y-93797619D01*
X111154761Y-93845238D01*
X111107142Y-93869047D01*
X111011904Y-93892857D01*
X110940476Y-93892857D01*
X110845238Y-93869047D01*
X110797619Y-93845238D01*
X110750000Y-93797619D01*
X110726190Y-93726190D01*
X110726190Y-93678571D01*
X110750000Y-93607142D01*
X110773809Y-93583333D01*
X110726190Y-93416666D02*
X110726190Y-93083333D01*
X111226190Y-93297619D01*
G04 #@! TO.C,C9*
D11*
X129852380Y-96000000D02*
X129852380Y-96571428D01*
X129852380Y-96285714D02*
X128852380Y-96285714D01*
X128995238Y-96380952D01*
X129090476Y-96476190D01*
X129138095Y-96571428D01*
X129185714Y-95142857D02*
X129852380Y-95142857D01*
X129185714Y-95571428D02*
X129709523Y-95571428D01*
X129804761Y-95523809D01*
X129852380Y-95428571D01*
X129852380Y-95285714D01*
X129804761Y-95190476D01*
X129757142Y-95142857D01*
X129328571Y-94333333D02*
X129328571Y-94666666D01*
X129852380Y-94666666D02*
X128852380Y-94666666D01*
X128852380Y-94190476D01*
X128804761Y-93095238D02*
X130090476Y-93952380D01*
X128852380Y-92285714D02*
X128852380Y-92761904D01*
X129328571Y-92809523D01*
X129280952Y-92761904D01*
X129233333Y-92666666D01*
X129233333Y-92428571D01*
X129280952Y-92333333D01*
X129328571Y-92285714D01*
X129423809Y-92238095D01*
X129661904Y-92238095D01*
X129757142Y-92285714D01*
X129804761Y-92333333D01*
X129852380Y-92428571D01*
X129852380Y-92666666D01*
X129804761Y-92761904D01*
X129757142Y-92809523D01*
X128852380Y-91619047D02*
X128852380Y-91523809D01*
X128900000Y-91428571D01*
X128947619Y-91380952D01*
X129042857Y-91333333D01*
X129233333Y-91285714D01*
X129471428Y-91285714D01*
X129661904Y-91333333D01*
X129757142Y-91380952D01*
X129804761Y-91428571D01*
X129852380Y-91523809D01*
X129852380Y-91619047D01*
X129804761Y-91714285D01*
X129757142Y-91761904D01*
X129661904Y-91809523D01*
X129471428Y-91857142D01*
X129233333Y-91857142D01*
X129042857Y-91809523D01*
X128947619Y-91761904D01*
X128900000Y-91714285D01*
X128852380Y-91619047D01*
X128852380Y-91000000D02*
X129852380Y-90666666D01*
X128852380Y-90333333D01*
D12*
X127928571Y-93583333D02*
X127952380Y-93607142D01*
X127976190Y-93678571D01*
X127976190Y-93726190D01*
X127952380Y-93797619D01*
X127904761Y-93845238D01*
X127857142Y-93869047D01*
X127761904Y-93892857D01*
X127690476Y-93892857D01*
X127595238Y-93869047D01*
X127547619Y-93845238D01*
X127500000Y-93797619D01*
X127476190Y-93726190D01*
X127476190Y-93678571D01*
X127500000Y-93607142D01*
X127523809Y-93583333D01*
X127976190Y-93345238D02*
X127976190Y-93250000D01*
X127952380Y-93202380D01*
X127928571Y-93178571D01*
X127857142Y-93130952D01*
X127761904Y-93107142D01*
X127571428Y-93107142D01*
X127523809Y-93130952D01*
X127500000Y-93154761D01*
X127476190Y-93202380D01*
X127476190Y-93297619D01*
X127500000Y-93345238D01*
X127523809Y-93369047D01*
X127571428Y-93392857D01*
X127690476Y-93392857D01*
X127738095Y-93369047D01*
X127761904Y-93345238D01*
X127785714Y-93297619D01*
X127785714Y-93202380D01*
X127761904Y-93154761D01*
X127738095Y-93130952D01*
X127690476Y-93107142D01*
G04 #@! TO.C,C10*
D11*
X115102380Y-96000000D02*
X115102380Y-96571428D01*
X115102380Y-96285714D02*
X114102380Y-96285714D01*
X114245238Y-96380952D01*
X114340476Y-96476190D01*
X114388095Y-96571428D01*
X114435714Y-95142857D02*
X115102380Y-95142857D01*
X114435714Y-95571428D02*
X114959523Y-95571428D01*
X115054761Y-95523809D01*
X115102380Y-95428571D01*
X115102380Y-95285714D01*
X115054761Y-95190476D01*
X115007142Y-95142857D01*
X114578571Y-94333333D02*
X114578571Y-94666666D01*
X115102380Y-94666666D02*
X114102380Y-94666666D01*
X114102380Y-94190476D01*
X114054761Y-93095238D02*
X115340476Y-93952380D01*
X114102380Y-92285714D02*
X114102380Y-92761904D01*
X114578571Y-92809523D01*
X114530952Y-92761904D01*
X114483333Y-92666666D01*
X114483333Y-92428571D01*
X114530952Y-92333333D01*
X114578571Y-92285714D01*
X114673809Y-92238095D01*
X114911904Y-92238095D01*
X115007142Y-92285714D01*
X115054761Y-92333333D01*
X115102380Y-92428571D01*
X115102380Y-92666666D01*
X115054761Y-92761904D01*
X115007142Y-92809523D01*
X114102380Y-91619047D02*
X114102380Y-91523809D01*
X114150000Y-91428571D01*
X114197619Y-91380952D01*
X114292857Y-91333333D01*
X114483333Y-91285714D01*
X114721428Y-91285714D01*
X114911904Y-91333333D01*
X115007142Y-91380952D01*
X115054761Y-91428571D01*
X115102380Y-91523809D01*
X115102380Y-91619047D01*
X115054761Y-91714285D01*
X115007142Y-91761904D01*
X114911904Y-91809523D01*
X114721428Y-91857142D01*
X114483333Y-91857142D01*
X114292857Y-91809523D01*
X114197619Y-91761904D01*
X114150000Y-91714285D01*
X114102380Y-91619047D01*
X114102380Y-91000000D02*
X115102380Y-90666666D01*
X114102380Y-90333333D01*
D12*
X113178571Y-93821428D02*
X113202380Y-93845238D01*
X113226190Y-93916666D01*
X113226190Y-93964285D01*
X113202380Y-94035714D01*
X113154761Y-94083333D01*
X113107142Y-94107142D01*
X113011904Y-94130952D01*
X112940476Y-94130952D01*
X112845238Y-94107142D01*
X112797619Y-94083333D01*
X112750000Y-94035714D01*
X112726190Y-93964285D01*
X112726190Y-93916666D01*
X112750000Y-93845238D01*
X112773809Y-93821428D01*
X113226190Y-93345238D02*
X113226190Y-93630952D01*
X113226190Y-93488095D02*
X112726190Y-93488095D01*
X112797619Y-93535714D01*
X112845238Y-93583333D01*
X112869047Y-93630952D01*
X112726190Y-93035714D02*
X112726190Y-92988095D01*
X112750000Y-92940476D01*
X112773809Y-92916666D01*
X112821428Y-92892857D01*
X112916666Y-92869047D01*
X113035714Y-92869047D01*
X113130952Y-92892857D01*
X113178571Y-92916666D01*
X113202380Y-92940476D01*
X113226190Y-92988095D01*
X113226190Y-93035714D01*
X113202380Y-93083333D01*
X113178571Y-93107142D01*
X113130952Y-93130952D01*
X113035714Y-93154761D01*
X112916666Y-93154761D01*
X112821428Y-93130952D01*
X112773809Y-93107142D01*
X112750000Y-93083333D01*
X112726190Y-93035714D01*
G04 #@! TO.C,C12*
D11*
X131852380Y-96000000D02*
X131852380Y-96571428D01*
X131852380Y-96285714D02*
X130852380Y-96285714D01*
X130995238Y-96380952D01*
X131090476Y-96476190D01*
X131138095Y-96571428D01*
X131185714Y-95142857D02*
X131852380Y-95142857D01*
X131185714Y-95571428D02*
X131709523Y-95571428D01*
X131804761Y-95523809D01*
X131852380Y-95428571D01*
X131852380Y-95285714D01*
X131804761Y-95190476D01*
X131757142Y-95142857D01*
X131328571Y-94333333D02*
X131328571Y-94666666D01*
X131852380Y-94666666D02*
X130852380Y-94666666D01*
X130852380Y-94190476D01*
X130804761Y-93095238D02*
X132090476Y-93952380D01*
X130852380Y-92285714D02*
X130852380Y-92761904D01*
X131328571Y-92809523D01*
X131280952Y-92761904D01*
X131233333Y-92666666D01*
X131233333Y-92428571D01*
X131280952Y-92333333D01*
X131328571Y-92285714D01*
X131423809Y-92238095D01*
X131661904Y-92238095D01*
X131757142Y-92285714D01*
X131804761Y-92333333D01*
X131852380Y-92428571D01*
X131852380Y-92666666D01*
X131804761Y-92761904D01*
X131757142Y-92809523D01*
X130852380Y-91619047D02*
X130852380Y-91523809D01*
X130900000Y-91428571D01*
X130947619Y-91380952D01*
X131042857Y-91333333D01*
X131233333Y-91285714D01*
X131471428Y-91285714D01*
X131661904Y-91333333D01*
X131757142Y-91380952D01*
X131804761Y-91428571D01*
X131852380Y-91523809D01*
X131852380Y-91619047D01*
X131804761Y-91714285D01*
X131757142Y-91761904D01*
X131661904Y-91809523D01*
X131471428Y-91857142D01*
X131233333Y-91857142D01*
X131042857Y-91809523D01*
X130947619Y-91761904D01*
X130900000Y-91714285D01*
X130852380Y-91619047D01*
X130852380Y-91000000D02*
X131852380Y-90666666D01*
X130852380Y-90333333D01*
D12*
X129928571Y-93821428D02*
X129952380Y-93845238D01*
X129976190Y-93916666D01*
X129976190Y-93964285D01*
X129952380Y-94035714D01*
X129904761Y-94083333D01*
X129857142Y-94107142D01*
X129761904Y-94130952D01*
X129690476Y-94130952D01*
X129595238Y-94107142D01*
X129547619Y-94083333D01*
X129500000Y-94035714D01*
X129476190Y-93964285D01*
X129476190Y-93916666D01*
X129500000Y-93845238D01*
X129523809Y-93821428D01*
X129976190Y-93345238D02*
X129976190Y-93630952D01*
X129976190Y-93488095D02*
X129476190Y-93488095D01*
X129547619Y-93535714D01*
X129595238Y-93583333D01*
X129619047Y-93630952D01*
X129523809Y-93154761D02*
X129500000Y-93130952D01*
X129476190Y-93083333D01*
X129476190Y-92964285D01*
X129500000Y-92916666D01*
X129523809Y-92892857D01*
X129571428Y-92869047D01*
X129619047Y-92869047D01*
X129690476Y-92892857D01*
X129976190Y-93178571D01*
X129976190Y-92869047D01*
G04 #@! TO.C,D1*
D11*
X114670353Y-90850595D02*
X113670353Y-90850595D01*
X114384639Y-90517261D01*
X113670353Y-90183928D01*
X114670353Y-90183928D01*
X114146544Y-89374404D02*
X114194163Y-89231547D01*
X114241782Y-89183928D01*
X114337020Y-89136309D01*
X114479877Y-89136309D01*
X114575115Y-89183928D01*
X114622734Y-89231547D01*
X114670353Y-89326785D01*
X114670353Y-89707738D01*
X113670353Y-89707738D01*
X113670353Y-89374404D01*
X113717973Y-89279166D01*
X113765592Y-89231547D01*
X113860830Y-89183928D01*
X113956068Y-89183928D01*
X114051306Y-89231547D01*
X114098925Y-89279166D01*
X114146544Y-89374404D01*
X114146544Y-89707738D01*
X114670353Y-88136309D02*
X114194163Y-88469642D01*
X114670353Y-88707738D02*
X113670353Y-88707738D01*
X113670353Y-88326785D01*
X113717973Y-88231547D01*
X113765592Y-88183928D01*
X113860830Y-88136309D01*
X114003687Y-88136309D01*
X114098925Y-88183928D01*
X114146544Y-88231547D01*
X114194163Y-88326785D01*
X114194163Y-88707738D01*
X113670353Y-87517261D02*
X113670353Y-87422023D01*
X113717973Y-87326785D01*
X113765592Y-87279166D01*
X113860830Y-87231547D01*
X114051306Y-87183928D01*
X114289401Y-87183928D01*
X114479877Y-87231547D01*
X114575115Y-87279166D01*
X114622734Y-87326785D01*
X114670353Y-87422023D01*
X114670353Y-87517261D01*
X114622734Y-87612500D01*
X114575115Y-87660119D01*
X114479877Y-87707738D01*
X114289401Y-87755357D01*
X114051306Y-87755357D01*
X113860830Y-87707738D01*
X113765592Y-87660119D01*
X113717973Y-87612500D01*
X113670353Y-87517261D01*
X113670353Y-86279166D02*
X113670353Y-86755357D01*
X114146544Y-86802976D01*
X114098925Y-86755357D01*
X114051306Y-86660119D01*
X114051306Y-86422023D01*
X114098925Y-86326785D01*
X114146544Y-86279166D01*
X114241782Y-86231547D01*
X114479877Y-86231547D01*
X114575115Y-86279166D01*
X114622734Y-86326785D01*
X114670353Y-86422023D01*
X114670353Y-86660119D01*
X114622734Y-86755357D01*
X114575115Y-86802976D01*
X113670353Y-85898214D02*
X113670353Y-85279166D01*
X114051306Y-85612500D01*
X114051306Y-85469642D01*
X114098925Y-85374404D01*
X114146544Y-85326785D01*
X114241782Y-85279166D01*
X114479877Y-85279166D01*
X114575115Y-85326785D01*
X114622734Y-85374404D01*
X114670353Y-85469642D01*
X114670353Y-85755357D01*
X114622734Y-85850595D01*
X114575115Y-85898214D01*
X113670353Y-84660119D02*
X113670353Y-84564880D01*
X113717973Y-84469642D01*
X113765592Y-84422023D01*
X113860830Y-84374404D01*
X114051306Y-84326785D01*
X114289401Y-84326785D01*
X114479877Y-84374404D01*
X114575115Y-84422023D01*
X114622734Y-84469642D01*
X114670353Y-84564880D01*
X114670353Y-84660119D01*
X114622734Y-84755357D01*
X114575115Y-84802976D01*
X114479877Y-84850595D01*
X114289401Y-84898214D01*
X114051306Y-84898214D01*
X113860830Y-84850595D01*
X113765592Y-84802976D01*
X113717973Y-84755357D01*
X113670353Y-84660119D01*
X110570353Y-88350595D02*
X109570353Y-88350595D01*
X109570353Y-88112500D01*
X109617973Y-87969642D01*
X109713211Y-87874404D01*
X109808449Y-87826785D01*
X109998925Y-87779166D01*
X110141782Y-87779166D01*
X110332258Y-87826785D01*
X110427496Y-87874404D01*
X110522734Y-87969642D01*
X110570353Y-88112500D01*
X110570353Y-88350595D01*
X110570353Y-86826785D02*
X110570353Y-87398214D01*
X110570353Y-87112500D02*
X109570353Y-87112500D01*
X109713211Y-87207738D01*
X109808449Y-87302976D01*
X109856068Y-87398214D01*
G04 #@! TO.C,D2*
X116670353Y-90850595D02*
X115670353Y-90850595D01*
X116384639Y-90517261D01*
X115670353Y-90183928D01*
X116670353Y-90183928D01*
X116146544Y-89374404D02*
X116194163Y-89231547D01*
X116241782Y-89183928D01*
X116337020Y-89136309D01*
X116479877Y-89136309D01*
X116575115Y-89183928D01*
X116622734Y-89231547D01*
X116670353Y-89326785D01*
X116670353Y-89707738D01*
X115670353Y-89707738D01*
X115670353Y-89374404D01*
X115717973Y-89279166D01*
X115765592Y-89231547D01*
X115860830Y-89183928D01*
X115956068Y-89183928D01*
X116051306Y-89231547D01*
X116098925Y-89279166D01*
X116146544Y-89374404D01*
X116146544Y-89707738D01*
X116670353Y-88136309D02*
X116194163Y-88469642D01*
X116670353Y-88707738D02*
X115670353Y-88707738D01*
X115670353Y-88326785D01*
X115717973Y-88231547D01*
X115765592Y-88183928D01*
X115860830Y-88136309D01*
X116003687Y-88136309D01*
X116098925Y-88183928D01*
X116146544Y-88231547D01*
X116194163Y-88326785D01*
X116194163Y-88707738D01*
X115670353Y-87517261D02*
X115670353Y-87422023D01*
X115717973Y-87326785D01*
X115765592Y-87279166D01*
X115860830Y-87231547D01*
X116051306Y-87183928D01*
X116289401Y-87183928D01*
X116479877Y-87231547D01*
X116575115Y-87279166D01*
X116622734Y-87326785D01*
X116670353Y-87422023D01*
X116670353Y-87517261D01*
X116622734Y-87612500D01*
X116575115Y-87660119D01*
X116479877Y-87707738D01*
X116289401Y-87755357D01*
X116051306Y-87755357D01*
X115860830Y-87707738D01*
X115765592Y-87660119D01*
X115717973Y-87612500D01*
X115670353Y-87517261D01*
X115670353Y-86279166D02*
X115670353Y-86755357D01*
X116146544Y-86802976D01*
X116098925Y-86755357D01*
X116051306Y-86660119D01*
X116051306Y-86422023D01*
X116098925Y-86326785D01*
X116146544Y-86279166D01*
X116241782Y-86231547D01*
X116479877Y-86231547D01*
X116575115Y-86279166D01*
X116622734Y-86326785D01*
X116670353Y-86422023D01*
X116670353Y-86660119D01*
X116622734Y-86755357D01*
X116575115Y-86802976D01*
X115670353Y-85898214D02*
X115670353Y-85279166D01*
X116051306Y-85612500D01*
X116051306Y-85469642D01*
X116098925Y-85374404D01*
X116146544Y-85326785D01*
X116241782Y-85279166D01*
X116479877Y-85279166D01*
X116575115Y-85326785D01*
X116622734Y-85374404D01*
X116670353Y-85469642D01*
X116670353Y-85755357D01*
X116622734Y-85850595D01*
X116575115Y-85898214D01*
X115670353Y-84660119D02*
X115670353Y-84564880D01*
X115717973Y-84469642D01*
X115765592Y-84422023D01*
X115860830Y-84374404D01*
X116051306Y-84326785D01*
X116289401Y-84326785D01*
X116479877Y-84374404D01*
X116575115Y-84422023D01*
X116622734Y-84469642D01*
X116670353Y-84564880D01*
X116670353Y-84660119D01*
X116622734Y-84755357D01*
X116575115Y-84802976D01*
X116479877Y-84850595D01*
X116289401Y-84898214D01*
X116051306Y-84898214D01*
X115860830Y-84850595D01*
X115765592Y-84802976D01*
X115717973Y-84755357D01*
X115670353Y-84660119D01*
X112570353Y-88350595D02*
X111570353Y-88350595D01*
X111570353Y-88112500D01*
X111617973Y-87969642D01*
X111713211Y-87874404D01*
X111808449Y-87826785D01*
X111998925Y-87779166D01*
X112141782Y-87779166D01*
X112332258Y-87826785D01*
X112427496Y-87874404D01*
X112522734Y-87969642D01*
X112570353Y-88112500D01*
X112570353Y-88350595D01*
X111665592Y-87398214D02*
X111617973Y-87350595D01*
X111570353Y-87255357D01*
X111570353Y-87017261D01*
X111617973Y-86922023D01*
X111665592Y-86874404D01*
X111760830Y-86826785D01*
X111856068Y-86826785D01*
X111998925Y-86874404D01*
X112570353Y-87445833D01*
X112570353Y-86826785D01*
G04 #@! TO.C,D3*
X105411904Y-83052380D02*
X105411904Y-82052380D01*
X105745238Y-82766666D01*
X106078571Y-82052380D01*
X106078571Y-83052380D01*
X106888095Y-82528571D02*
X107030952Y-82576190D01*
X107078571Y-82623809D01*
X107126190Y-82719047D01*
X107126190Y-82861904D01*
X107078571Y-82957142D01*
X107030952Y-83004761D01*
X106935714Y-83052380D01*
X106554761Y-83052380D01*
X106554761Y-82052380D01*
X106888095Y-82052380D01*
X106983333Y-82100000D01*
X107030952Y-82147619D01*
X107078571Y-82242857D01*
X107078571Y-82338095D01*
X107030952Y-82433333D01*
X106983333Y-82480952D01*
X106888095Y-82528571D01*
X106554761Y-82528571D01*
X108126190Y-83052380D02*
X107792857Y-82576190D01*
X107554761Y-83052380D02*
X107554761Y-82052380D01*
X107935714Y-82052380D01*
X108030952Y-82100000D01*
X108078571Y-82147619D01*
X108126190Y-82242857D01*
X108126190Y-82385714D01*
X108078571Y-82480952D01*
X108030952Y-82528571D01*
X107935714Y-82576190D01*
X107554761Y-82576190D01*
X108745238Y-82052380D02*
X108840476Y-82052380D01*
X108935714Y-82100000D01*
X108983333Y-82147619D01*
X109030952Y-82242857D01*
X109078571Y-82433333D01*
X109078571Y-82671428D01*
X109030952Y-82861904D01*
X108983333Y-82957142D01*
X108935714Y-83004761D01*
X108840476Y-83052380D01*
X108745238Y-83052380D01*
X108650000Y-83004761D01*
X108602380Y-82957142D01*
X108554761Y-82861904D01*
X108507142Y-82671428D01*
X108507142Y-82433333D01*
X108554761Y-82242857D01*
X108602380Y-82147619D01*
X108650000Y-82100000D01*
X108745238Y-82052380D01*
X109983333Y-82052380D02*
X109507142Y-82052380D01*
X109459523Y-82528571D01*
X109507142Y-82480952D01*
X109602380Y-82433333D01*
X109840476Y-82433333D01*
X109935714Y-82480952D01*
X109983333Y-82528571D01*
X110030952Y-82623809D01*
X110030952Y-82861904D01*
X109983333Y-82957142D01*
X109935714Y-83004761D01*
X109840476Y-83052380D01*
X109602380Y-83052380D01*
X109507142Y-83004761D01*
X109459523Y-82957142D01*
X110364285Y-82052380D02*
X110983333Y-82052380D01*
X110650000Y-82433333D01*
X110792857Y-82433333D01*
X110888095Y-82480952D01*
X110935714Y-82528571D01*
X110983333Y-82623809D01*
X110983333Y-82861904D01*
X110935714Y-82957142D01*
X110888095Y-83004761D01*
X110792857Y-83052380D01*
X110507142Y-83052380D01*
X110411904Y-83004761D01*
X110364285Y-82957142D01*
X111602380Y-82052380D02*
X111697619Y-82052380D01*
X111792857Y-82100000D01*
X111840476Y-82147619D01*
X111888095Y-82242857D01*
X111935714Y-82433333D01*
X111935714Y-82671428D01*
X111888095Y-82861904D01*
X111840476Y-82957142D01*
X111792857Y-83004761D01*
X111697619Y-83052380D01*
X111602380Y-83052380D01*
X111507142Y-83004761D01*
X111459523Y-82957142D01*
X111411904Y-82861904D01*
X111364285Y-82671428D01*
X111364285Y-82433333D01*
X111411904Y-82242857D01*
X111459523Y-82147619D01*
X111507142Y-82100000D01*
X111602380Y-82052380D01*
X107911904Y-78952380D02*
X107911904Y-77952380D01*
X108150000Y-77952380D01*
X108292857Y-78000000D01*
X108388095Y-78095238D01*
X108435714Y-78190476D01*
X108483333Y-78380952D01*
X108483333Y-78523809D01*
X108435714Y-78714285D01*
X108388095Y-78809523D01*
X108292857Y-78904761D01*
X108150000Y-78952380D01*
X107911904Y-78952380D01*
X108816666Y-77952380D02*
X109435714Y-77952380D01*
X109102380Y-78333333D01*
X109245238Y-78333333D01*
X109340476Y-78380952D01*
X109388095Y-78428571D01*
X109435714Y-78523809D01*
X109435714Y-78761904D01*
X109388095Y-78857142D01*
X109340476Y-78904761D01*
X109245238Y-78952380D01*
X108959523Y-78952380D01*
X108864285Y-78904761D01*
X108816666Y-78857142D01*
G04 #@! TO.C,L1*
X105952380Y-76802380D02*
X105952380Y-77373809D01*
X105952380Y-77088095D02*
X104952380Y-77088095D01*
X105095238Y-77183333D01*
X105190476Y-77278571D01*
X105238095Y-77373809D01*
X104952380Y-76183333D02*
X104952380Y-76088095D01*
X105000000Y-75992857D01*
X105047619Y-75945238D01*
X105142857Y-75897619D01*
X105333333Y-75850000D01*
X105571428Y-75850000D01*
X105761904Y-75897619D01*
X105857142Y-75945238D01*
X105904761Y-75992857D01*
X105952380Y-76088095D01*
X105952380Y-76183333D01*
X105904761Y-76278571D01*
X105857142Y-76326190D01*
X105761904Y-76373809D01*
X105571428Y-76421428D01*
X105333333Y-76421428D01*
X105142857Y-76373809D01*
X105047619Y-76326190D01*
X105000000Y-76278571D01*
X104952380Y-76183333D01*
X105285714Y-74992857D02*
X105952380Y-74992857D01*
X105285714Y-75421428D02*
X105809523Y-75421428D01*
X105904761Y-75373809D01*
X105952380Y-75278571D01*
X105952380Y-75135714D01*
X105904761Y-75040476D01*
X105857142Y-74992857D01*
X105952380Y-74516666D02*
X104952380Y-74516666D01*
X105428571Y-74516666D02*
X105428571Y-73945238D01*
X105952380Y-73945238D02*
X104952380Y-73945238D01*
X105952380Y-72183333D02*
X105952380Y-72754761D01*
X105952380Y-72469047D02*
X104952380Y-72469047D01*
X105095238Y-72564285D01*
X105190476Y-72659523D01*
X105238095Y-72754761D01*
X105666666Y-71802380D02*
X105666666Y-71326190D01*
X105952380Y-71897619D02*
X104952380Y-71564285D01*
X105952380Y-71230952D01*
G04 #@! TO.C,Q1*
X110297619Y-89464285D02*
X110250000Y-89416666D01*
X110202380Y-89321428D01*
X110202380Y-89083333D01*
X110250000Y-88988095D01*
X110297619Y-88940476D01*
X110392857Y-88892857D01*
X110488095Y-88892857D01*
X110630952Y-88940476D01*
X111202380Y-89511904D01*
X111202380Y-88892857D01*
X111202380Y-88464285D02*
X110202380Y-88464285D01*
X111202380Y-87892857D01*
X110202380Y-87892857D01*
X110202380Y-87511904D02*
X110202380Y-86845238D01*
X111202380Y-87273809D01*
X110202380Y-86273809D02*
X110202380Y-86178571D01*
X110250000Y-86083333D01*
X110297619Y-86035714D01*
X110392857Y-85988095D01*
X110583333Y-85940476D01*
X110821428Y-85940476D01*
X111011904Y-85988095D01*
X111107142Y-86035714D01*
X111154761Y-86083333D01*
X111202380Y-86178571D01*
X111202380Y-86273809D01*
X111154761Y-86369047D01*
X111107142Y-86416666D01*
X111011904Y-86464285D01*
X110821428Y-86511904D01*
X110583333Y-86511904D01*
X110392857Y-86464285D01*
X110297619Y-86416666D01*
X110250000Y-86369047D01*
X110202380Y-86273809D01*
X110202380Y-85321428D02*
X110202380Y-85226190D01*
X110250000Y-85130952D01*
X110297619Y-85083333D01*
X110392857Y-85035714D01*
X110583333Y-84988095D01*
X110821428Y-84988095D01*
X111011904Y-85035714D01*
X111107142Y-85083333D01*
X111154761Y-85130952D01*
X111202380Y-85226190D01*
X111202380Y-85321428D01*
X111154761Y-85416666D01*
X111107142Y-85464285D01*
X111011904Y-85511904D01*
X110821428Y-85559523D01*
X110583333Y-85559523D01*
X110392857Y-85511904D01*
X110297619Y-85464285D01*
X110250000Y-85416666D01*
X110202380Y-85321428D01*
X110202380Y-84369047D02*
X110202380Y-84273809D01*
X110250000Y-84178571D01*
X110297619Y-84130952D01*
X110392857Y-84083333D01*
X110583333Y-84035714D01*
X110821428Y-84035714D01*
X111011904Y-84083333D01*
X111107142Y-84130952D01*
X111154761Y-84178571D01*
X111202380Y-84273809D01*
X111202380Y-84369047D01*
X111154761Y-84464285D01*
X111107142Y-84511904D01*
X111011904Y-84559523D01*
X110821428Y-84607142D01*
X110583333Y-84607142D01*
X110392857Y-84559523D01*
X110297619Y-84511904D01*
X110250000Y-84464285D01*
X110202380Y-84369047D01*
D13*
X108202380Y-87023809D02*
X108154761Y-87000000D01*
X108107142Y-86952380D01*
X108035714Y-86880952D01*
X107988095Y-86857142D01*
X107940476Y-86857142D01*
X107964285Y-86976190D02*
X107916666Y-86952380D01*
X107869047Y-86904761D01*
X107845238Y-86809523D01*
X107845238Y-86642857D01*
X107869047Y-86547619D01*
X107916666Y-86500000D01*
X107964285Y-86476190D01*
X108059523Y-86476190D01*
X108107142Y-86500000D01*
X108154761Y-86547619D01*
X108178571Y-86642857D01*
X108178571Y-86809523D01*
X108154761Y-86904761D01*
X108107142Y-86952380D01*
X108059523Y-86976190D01*
X107964285Y-86976190D01*
X108654761Y-86976190D02*
X108369047Y-86976190D01*
X108511904Y-86976190D02*
X108511904Y-86476190D01*
X108464285Y-86547619D01*
X108416666Y-86595238D01*
X108369047Y-86619047D01*
G04 #@! TO.C,Q2*
D11*
X124880952Y-82202380D02*
X124880952Y-81202380D01*
X125261904Y-81202380D01*
X125357142Y-81250000D01*
X125404761Y-81297619D01*
X125452380Y-81392857D01*
X125452380Y-81535714D01*
X125404761Y-81630952D01*
X125357142Y-81678571D01*
X125261904Y-81726190D01*
X124880952Y-81726190D01*
X125880952Y-82202380D02*
X125880952Y-81202380D01*
X126452380Y-82202380D01*
X126452380Y-81202380D01*
X126880952Y-81297619D02*
X126928571Y-81250000D01*
X127023809Y-81202380D01*
X127261904Y-81202380D01*
X127357142Y-81250000D01*
X127404761Y-81297619D01*
X127452380Y-81392857D01*
X127452380Y-81488095D01*
X127404761Y-81630952D01*
X126833333Y-82202380D01*
X127452380Y-82202380D01*
X127833333Y-81297619D02*
X127880952Y-81250000D01*
X127976190Y-81202380D01*
X128214285Y-81202380D01*
X128309523Y-81250000D01*
X128357142Y-81297619D01*
X128404761Y-81392857D01*
X128404761Y-81488095D01*
X128357142Y-81630952D01*
X127785714Y-82202380D01*
X128404761Y-82202380D01*
X128785714Y-81297619D02*
X128833333Y-81250000D01*
X128928571Y-81202380D01*
X129166666Y-81202380D01*
X129261904Y-81250000D01*
X129309523Y-81297619D01*
X129357142Y-81392857D01*
X129357142Y-81488095D01*
X129309523Y-81630952D01*
X128738095Y-82202380D01*
X129357142Y-82202380D01*
X129738095Y-81297619D02*
X129785714Y-81250000D01*
X129880952Y-81202380D01*
X130119047Y-81202380D01*
X130214285Y-81250000D01*
X130261904Y-81297619D01*
X130309523Y-81392857D01*
X130309523Y-81488095D01*
X130261904Y-81630952D01*
X129690476Y-82202380D01*
X130309523Y-82202380D01*
X130690476Y-81916666D02*
X131166666Y-81916666D01*
X130595238Y-82202380D02*
X130928571Y-81202380D01*
X131261904Y-82202380D01*
D13*
X128273809Y-84297619D02*
X128250000Y-84345238D01*
X128202380Y-84392857D01*
X128130952Y-84464285D01*
X128107142Y-84511904D01*
X128107142Y-84559523D01*
X128226190Y-84535714D02*
X128202380Y-84583333D01*
X128154761Y-84630952D01*
X128059523Y-84654761D01*
X127892857Y-84654761D01*
X127797619Y-84630952D01*
X127750000Y-84583333D01*
X127726190Y-84535714D01*
X127726190Y-84440476D01*
X127750000Y-84392857D01*
X127797619Y-84345238D01*
X127892857Y-84321428D01*
X128059523Y-84321428D01*
X128154761Y-84345238D01*
X128202380Y-84392857D01*
X128226190Y-84440476D01*
X128226190Y-84535714D01*
X127773809Y-84130952D02*
X127750000Y-84107142D01*
X127726190Y-84059523D01*
X127726190Y-83940476D01*
X127750000Y-83892857D01*
X127773809Y-83869047D01*
X127821428Y-83845238D01*
X127869047Y-83845238D01*
X127940476Y-83869047D01*
X128226190Y-84154761D01*
X128226190Y-83845238D01*
G04 #@! TO.C,R1*
D11*
X107203571Y-99102380D02*
X106870238Y-98626190D01*
X106632142Y-99102380D02*
X106632142Y-98102380D01*
X107013095Y-98102380D01*
X107108333Y-98150000D01*
X107155952Y-98197619D01*
X107203571Y-98292857D01*
X107203571Y-98435714D01*
X107155952Y-98530952D01*
X107108333Y-98578571D01*
X107013095Y-98626190D01*
X106632142Y-98626190D01*
X107394047Y-99197619D02*
X108155952Y-99197619D01*
X108394047Y-98102380D02*
X108394047Y-98911904D01*
X108441666Y-99007142D01*
X108489285Y-99054761D01*
X108584523Y-99102380D01*
X108775000Y-99102380D01*
X108870238Y-99054761D01*
X108917857Y-99007142D01*
X108965476Y-98911904D01*
X108965476Y-98102380D01*
X109394047Y-99054761D02*
X109536904Y-99102380D01*
X109775000Y-99102380D01*
X109870238Y-99054761D01*
X109917857Y-99007142D01*
X109965476Y-98911904D01*
X109965476Y-98816666D01*
X109917857Y-98721428D01*
X109870238Y-98673809D01*
X109775000Y-98626190D01*
X109584523Y-98578571D01*
X109489285Y-98530952D01*
X109441666Y-98483333D01*
X109394047Y-98388095D01*
X109394047Y-98292857D01*
X109441666Y-98197619D01*
X109489285Y-98150000D01*
X109584523Y-98102380D01*
X109822619Y-98102380D01*
X109965476Y-98150000D01*
D12*
X108191666Y-97226190D02*
X108025000Y-96988095D01*
X107905952Y-97226190D02*
X107905952Y-96726190D01*
X108096428Y-96726190D01*
X108144047Y-96750000D01*
X108167857Y-96773809D01*
X108191666Y-96821428D01*
X108191666Y-96892857D01*
X108167857Y-96940476D01*
X108144047Y-96964285D01*
X108096428Y-96988095D01*
X107905952Y-96988095D01*
X108667857Y-97226190D02*
X108382142Y-97226190D01*
X108525000Y-97226190D02*
X108525000Y-96726190D01*
X108477380Y-96797619D01*
X108429761Y-96845238D01*
X108382142Y-96869047D01*
G04 #@! TO.C,R2*
D11*
X111150904Y-94560064D02*
X110674714Y-94893397D01*
X111150904Y-95131493D02*
X110150904Y-95131493D01*
X110150904Y-94750540D01*
X110198524Y-94655302D01*
X110246143Y-94607683D01*
X110341381Y-94560064D01*
X110484238Y-94560064D01*
X110579476Y-94607683D01*
X110627095Y-94655302D01*
X110674714Y-94750540D01*
X110674714Y-95131493D01*
X111246143Y-94369588D02*
X111246143Y-93607683D01*
X110150904Y-93369588D02*
X110960428Y-93369588D01*
X111055666Y-93321969D01*
X111103285Y-93274350D01*
X111150904Y-93179112D01*
X111150904Y-92988636D01*
X111103285Y-92893397D01*
X111055666Y-92845778D01*
X110960428Y-92798159D01*
X110150904Y-92798159D01*
X111103285Y-92369588D02*
X111150904Y-92226731D01*
X111150904Y-91988636D01*
X111103285Y-91893397D01*
X111055666Y-91845778D01*
X110960428Y-91798159D01*
X110865190Y-91798159D01*
X110769952Y-91845778D01*
X110722333Y-91893397D01*
X110674714Y-91988636D01*
X110627095Y-92179112D01*
X110579476Y-92274350D01*
X110531857Y-92321969D01*
X110436619Y-92369588D01*
X110341381Y-92369588D01*
X110246143Y-92321969D01*
X110198524Y-92274350D01*
X110150904Y-92179112D01*
X110150904Y-91941016D01*
X110198524Y-91798159D01*
D12*
X109274714Y-93571969D02*
X109036619Y-93738636D01*
X109274714Y-93857683D02*
X108774714Y-93857683D01*
X108774714Y-93667207D01*
X108798524Y-93619588D01*
X108822333Y-93595778D01*
X108869952Y-93571969D01*
X108941381Y-93571969D01*
X108989000Y-93595778D01*
X109012809Y-93619588D01*
X109036619Y-93667207D01*
X109036619Y-93857683D01*
X108822333Y-93381493D02*
X108798524Y-93357683D01*
X108774714Y-93310064D01*
X108774714Y-93191016D01*
X108798524Y-93143397D01*
X108822333Y-93119588D01*
X108869952Y-93095778D01*
X108917571Y-93095778D01*
X108989000Y-93119588D01*
X109274714Y-93405302D01*
X109274714Y-93095778D01*
G04 #@! TO.C,U1*
D11*
X111423600Y-81412351D02*
X111760318Y-81749068D01*
X111154226Y-81547038D02*
X112097035Y-81075633D01*
X111625631Y-82018442D01*
X112467425Y-81446022D02*
X112871486Y-81850083D01*
X111962348Y-82355160D02*
X112669455Y-81648053D01*
X112400081Y-82792892D02*
X112871486Y-82321488D01*
X112804142Y-82388831D02*
X112871486Y-82388831D01*
X112972501Y-82422503D01*
X113073516Y-82523518D01*
X113107188Y-82624534D01*
X113073516Y-82725549D01*
X112703127Y-83095938D01*
X113073516Y-82725549D02*
X113174531Y-82691877D01*
X113275547Y-82725549D01*
X113376562Y-82826564D01*
X113410234Y-82927579D01*
X113376562Y-83028595D01*
X113006173Y-83398984D01*
X113645936Y-83971404D02*
X113544921Y-83937732D01*
X113410234Y-83803045D01*
X113376562Y-83702030D01*
X113410234Y-83601014D01*
X113679608Y-83331640D01*
X113780623Y-83297969D01*
X113881638Y-83331640D01*
X114016325Y-83466327D01*
X114049997Y-83567343D01*
X114016325Y-83668358D01*
X113948982Y-83735701D01*
X113544921Y-83466327D01*
X114723432Y-84173434D02*
X114151012Y-84745854D01*
X114049997Y-84779526D01*
X113982653Y-84779526D01*
X113881638Y-84745854D01*
X113780623Y-84644839D01*
X113746951Y-84543823D01*
X114285699Y-84611167D02*
X114184684Y-84577495D01*
X114049997Y-84442808D01*
X114016325Y-84341793D01*
X114016325Y-84274449D01*
X114049997Y-84173434D01*
X114252027Y-83971404D01*
X114353043Y-83937732D01*
X114420386Y-83937732D01*
X114521401Y-83971404D01*
X114656088Y-84106091D01*
X114689760Y-84207106D01*
X114891791Y-85284602D02*
X115262180Y-84914213D01*
X115295852Y-84813197D01*
X115262180Y-84712182D01*
X115127493Y-84577495D01*
X115026478Y-84543823D01*
X114925462Y-85250930D02*
X114824447Y-85217258D01*
X114656088Y-85048900D01*
X114622417Y-84947884D01*
X114656088Y-84846869D01*
X114723432Y-84779526D01*
X114824447Y-84745854D01*
X114925462Y-84779526D01*
X115093821Y-84947884D01*
X115194836Y-84981556D01*
X115868272Y-84846869D02*
X116306004Y-85284602D01*
X115800928Y-85318274D01*
X115901943Y-85419289D01*
X115935615Y-85520304D01*
X115935615Y-85587648D01*
X115901943Y-85688663D01*
X115733584Y-85857022D01*
X115632569Y-85890694D01*
X115565226Y-85890694D01*
X115464210Y-85857022D01*
X115262180Y-85654991D01*
X115228508Y-85553976D01*
X115228508Y-85486632D01*
X116508035Y-85621320D02*
X116575378Y-85621320D01*
X116676394Y-85654991D01*
X116844752Y-85823350D01*
X116878424Y-85924365D01*
X116878424Y-85991709D01*
X116844752Y-86092724D01*
X116777409Y-86160068D01*
X116642722Y-86227411D01*
X115834600Y-86227411D01*
X116272333Y-86665144D01*
X117080455Y-86665144D02*
X117046783Y-86564129D01*
X117046783Y-86496785D01*
X117080455Y-86395770D01*
X117114126Y-86362098D01*
X117215142Y-86328426D01*
X117282485Y-86328426D01*
X117383500Y-86362098D01*
X117518187Y-86496785D01*
X117551859Y-86597800D01*
X117551859Y-86665144D01*
X117518187Y-86766159D01*
X117484516Y-86799831D01*
X117383500Y-86833503D01*
X117316157Y-86833503D01*
X117215142Y-86799831D01*
X117080455Y-86665144D01*
X116979439Y-86631472D01*
X116912096Y-86631472D01*
X116811081Y-86665144D01*
X116676394Y-86799831D01*
X116642722Y-86900846D01*
X116642722Y-86968190D01*
X116676394Y-87069205D01*
X116811081Y-87203892D01*
X116912096Y-87237564D01*
X116979439Y-87237564D01*
X117080455Y-87203892D01*
X117215142Y-87069205D01*
X117248813Y-86968190D01*
X117248813Y-86900846D01*
X117215142Y-86799831D01*
X117248813Y-87641625D02*
X117955920Y-86934518D01*
X118225294Y-87203892D01*
X118258966Y-87304907D01*
X118258966Y-87372251D01*
X118225294Y-87473266D01*
X118124279Y-87574281D01*
X118023264Y-87607953D01*
X117955920Y-87607953D01*
X117854905Y-87574281D01*
X117585531Y-87304907D01*
X118225294Y-88079357D02*
X118764042Y-88618105D01*
X118999744Y-88988495D02*
X119336462Y-89325212D01*
X118730370Y-89123182D02*
X119673179Y-88651777D01*
X119201775Y-89594586D01*
X120144584Y-89123182D02*
X119572164Y-89695601D01*
X119538492Y-89796617D01*
X119538492Y-89863960D01*
X119572164Y-89964975D01*
X119706851Y-90099662D01*
X119807866Y-90133334D01*
X119875210Y-90133334D01*
X119976225Y-90099662D01*
X120548645Y-89527243D01*
X119994745Y-80417350D02*
X119422325Y-80989770D01*
X119388653Y-81090785D01*
X119388653Y-81158129D01*
X119422325Y-81259144D01*
X119557012Y-81393831D01*
X119658027Y-81427503D01*
X119725371Y-81427503D01*
X119826386Y-81393831D01*
X120398806Y-80821411D01*
X120398806Y-82235625D02*
X119994745Y-81831564D01*
X120196775Y-82033594D02*
X120903882Y-81326488D01*
X120735523Y-81360159D01*
X120600836Y-81360159D01*
X120499821Y-81326488D01*
G04 #@! TO.C,U2*
X118635714Y-75377380D02*
X118635714Y-74377380D01*
X118873809Y-74377380D01*
X119016666Y-74425000D01*
X119111904Y-74520238D01*
X119159523Y-74615476D01*
X119207142Y-74805952D01*
X119207142Y-74948809D01*
X119159523Y-75139285D01*
X119111904Y-75234523D01*
X119016666Y-75329761D01*
X118873809Y-75377380D01*
X118635714Y-75377380D01*
X119588095Y-75329761D02*
X119730952Y-75377380D01*
X119969047Y-75377380D01*
X120064285Y-75329761D01*
X120111904Y-75282142D01*
X120159523Y-75186904D01*
X120159523Y-75091666D01*
X120111904Y-74996428D01*
X120064285Y-74948809D01*
X119969047Y-74901190D01*
X119778571Y-74853571D01*
X119683333Y-74805952D01*
X119635714Y-74758333D01*
X119588095Y-74663095D01*
X119588095Y-74567857D01*
X119635714Y-74472619D01*
X119683333Y-74425000D01*
X119778571Y-74377380D01*
X120016666Y-74377380D01*
X120159523Y-74425000D01*
X120492857Y-74377380D02*
X121111904Y-74377380D01*
X120778571Y-74758333D01*
X120921428Y-74758333D01*
X121016666Y-74805952D01*
X121064285Y-74853571D01*
X121111904Y-74948809D01*
X121111904Y-75186904D01*
X121064285Y-75282142D01*
X121016666Y-75329761D01*
X120921428Y-75377380D01*
X120635714Y-75377380D01*
X120540476Y-75329761D01*
X120492857Y-75282142D01*
X121492857Y-74472619D02*
X121540476Y-74425000D01*
X121635714Y-74377380D01*
X121873809Y-74377380D01*
X121969047Y-74425000D01*
X122016666Y-74472619D01*
X122064285Y-74567857D01*
X122064285Y-74663095D01*
X122016666Y-74805952D01*
X121445238Y-75377380D01*
X122064285Y-75377380D01*
X122397619Y-74377380D02*
X123016666Y-74377380D01*
X122683333Y-74758333D01*
X122826190Y-74758333D01*
X122921428Y-74805952D01*
X122969047Y-74853571D01*
X123016666Y-74948809D01*
X123016666Y-75186904D01*
X122969047Y-75282142D01*
X122921428Y-75329761D01*
X122826190Y-75377380D01*
X122540476Y-75377380D01*
X122445238Y-75329761D01*
X122397619Y-75282142D01*
X123969047Y-75377380D02*
X123397619Y-75377380D01*
X123683333Y-75377380D02*
X123683333Y-74377380D01*
X123588095Y-74520238D01*
X123492857Y-74615476D01*
X123397619Y-74663095D01*
X124397619Y-75377380D02*
X124397619Y-74377380D01*
X124730952Y-75091666D01*
X125064285Y-74377380D01*
X125064285Y-75377380D01*
X121088095Y-68127380D02*
X121088095Y-68936904D01*
X121135714Y-69032142D01*
X121183333Y-69079761D01*
X121278571Y-69127380D01*
X121469047Y-69127380D01*
X121564285Y-69079761D01*
X121611904Y-69032142D01*
X121659523Y-68936904D01*
X121659523Y-68127380D01*
X122088095Y-68222619D02*
X122135714Y-68175000D01*
X122230952Y-68127380D01*
X122469047Y-68127380D01*
X122564285Y-68175000D01*
X122611904Y-68222619D01*
X122659523Y-68317857D01*
X122659523Y-68413095D01*
X122611904Y-68555952D01*
X122040476Y-69127380D01*
X122659523Y-69127380D01*
G04 #@! TO.C,C8*
X121852380Y-96025000D02*
X121852380Y-96596428D01*
X121852380Y-96310714D02*
X120852380Y-96310714D01*
X120995238Y-96405952D01*
X121090476Y-96501190D01*
X121138095Y-96596428D01*
X121185714Y-95167857D02*
X121852380Y-95167857D01*
X121185714Y-95596428D02*
X121709523Y-95596428D01*
X121804761Y-95548809D01*
X121852380Y-95453571D01*
X121852380Y-95310714D01*
X121804761Y-95215476D01*
X121757142Y-95167857D01*
X121328571Y-94358333D02*
X121328571Y-94691666D01*
X121852380Y-94691666D02*
X120852380Y-94691666D01*
X120852380Y-94215476D01*
X120804761Y-93120238D02*
X122090476Y-93977380D01*
X120852380Y-92310714D02*
X120852380Y-92786904D01*
X121328571Y-92834523D01*
X121280952Y-92786904D01*
X121233333Y-92691666D01*
X121233333Y-92453571D01*
X121280952Y-92358333D01*
X121328571Y-92310714D01*
X121423809Y-92263095D01*
X121661904Y-92263095D01*
X121757142Y-92310714D01*
X121804761Y-92358333D01*
X121852380Y-92453571D01*
X121852380Y-92691666D01*
X121804761Y-92786904D01*
X121757142Y-92834523D01*
X120852380Y-91644047D02*
X120852380Y-91548809D01*
X120900000Y-91453571D01*
X120947619Y-91405952D01*
X121042857Y-91358333D01*
X121233333Y-91310714D01*
X121471428Y-91310714D01*
X121661904Y-91358333D01*
X121757142Y-91405952D01*
X121804761Y-91453571D01*
X121852380Y-91548809D01*
X121852380Y-91644047D01*
X121804761Y-91739285D01*
X121757142Y-91786904D01*
X121661904Y-91834523D01*
X121471428Y-91882142D01*
X121233333Y-91882142D01*
X121042857Y-91834523D01*
X120947619Y-91786904D01*
X120900000Y-91739285D01*
X120852380Y-91644047D01*
X120852380Y-91025000D02*
X121852380Y-90691666D01*
X120852380Y-90358333D01*
D12*
X119928571Y-93608333D02*
X119952380Y-93632142D01*
X119976190Y-93703571D01*
X119976190Y-93751190D01*
X119952380Y-93822619D01*
X119904761Y-93870238D01*
X119857142Y-93894047D01*
X119761904Y-93917857D01*
X119690476Y-93917857D01*
X119595238Y-93894047D01*
X119547619Y-93870238D01*
X119500000Y-93822619D01*
X119476190Y-93751190D01*
X119476190Y-93703571D01*
X119500000Y-93632142D01*
X119523809Y-93608333D01*
X119690476Y-93322619D02*
X119666666Y-93370238D01*
X119642857Y-93394047D01*
X119595238Y-93417857D01*
X119571428Y-93417857D01*
X119523809Y-93394047D01*
X119500000Y-93370238D01*
X119476190Y-93322619D01*
X119476190Y-93227380D01*
X119500000Y-93179761D01*
X119523809Y-93155952D01*
X119571428Y-93132142D01*
X119595238Y-93132142D01*
X119642857Y-93155952D01*
X119666666Y-93179761D01*
X119690476Y-93227380D01*
X119690476Y-93322619D01*
X119714285Y-93370238D01*
X119738095Y-93394047D01*
X119785714Y-93417857D01*
X119880952Y-93417857D01*
X119928571Y-93394047D01*
X119952380Y-93370238D01*
X119976190Y-93322619D01*
X119976190Y-93227380D01*
X119952380Y-93179761D01*
X119928571Y-93155952D01*
X119880952Y-93132142D01*
X119785714Y-93132142D01*
X119738095Y-93155952D01*
X119714285Y-93179761D01*
X119690476Y-93227380D01*
G04 #@! TD*
M02*
