<?xml version="1.0" standalone="no"?>
 <!DOCTYPE svg PUBLIC "-//W3C//DTD SVG 1.1//EN" 
 "http://www.w3.org/Graphics/SVG/1.1/DTD/svg11.dtd"> 
<svg xmlns="http://www.w3.org/2000/svg" version="1.1" 
    width="29.7002cm" height="21.0007cm" viewBox="0 0 116930 82680 ">
<title>SVG Picture created as OTP-v02-F_Paste.svg date 2019/04/05 13:48:17 </title>
  <desc>Picture generated by PCBNEW </desc>
<g style="fill:#000000; fill-opacity:1;stroke:#000000; stroke-opacity:1;
stroke-linecap:round; stroke-linejoin:round; "
 transform="translate(0 0) scale(1 1)">
</g>
<g style="fill:#000000; fill-opacity:0.0; 
stroke:#000000; stroke-width:-0.000393701; stroke-opacity:1; 
stroke-linecap:round; stroke-linejoin:round;">
<g >
</g>
<g style="fill:#000000; fill-opacity:0.0; 
stroke:#000000; stroke-width:0; stroke-opacity:1; 
stroke-linecap:round; stroke-linejoin:round;">
</g>
<g style="fill:#000000; fill-opacity:1.0; 
stroke:#000000; stroke-width:0; stroke-opacity:1; 
stroke-linecap:round; stroke-linejoin:round;">
<path style="fill:#000000; fill-opacity:1.0; 
stroke:#000000; stroke-width:0; stroke-opacity:1; 
stroke-linecap:round; stroke-linejoin:round;fill-rule:evenodd;"
d="M 44330,39133
44251,39133
44251,38818
44330,38818
44330,39133
Z" /> 
<path style="fill:#000000; fill-opacity:1.0; 
stroke:#000000; stroke-width:0; stroke-opacity:1; 
stroke-linecap:round; stroke-linejoin:round;fill-rule:evenodd;"
d="M 44527,39133
44448,39133
44448,38818
44527,38818
44527,39133
Z" /> 
<path style="fill:#000000; fill-opacity:1.0; 
stroke:#000000; stroke-width:0; stroke-opacity:1; 
stroke-linecap:round; stroke-linejoin:round;fill-rule:evenodd;"
d="M 44724,39133
44645,39133
44645,38818
44724,38818
44724,39133
Z" /> 
<path style="fill:#000000; fill-opacity:1.0; 
stroke:#000000; stroke-width:0; stroke-opacity:1; 
stroke-linecap:round; stroke-linejoin:round;fill-rule:evenodd;"
d="M 44921,39133
44842,39133
44842,38818
44921,38818
44921,39133
Z" /> 
<path style="fill:#000000; fill-opacity:1.0; 
stroke:#000000; stroke-width:0; stroke-opacity:1; 
stroke-linecap:round; stroke-linejoin:round;fill-rule:evenodd;"
d="M 45118,39133
45039,39133
45039,38818
45118,38818
45118,39133
Z" /> 
<path style="fill:#000000; fill-opacity:1.0; 
stroke:#000000; stroke-width:0; stroke-opacity:1; 
stroke-linecap:round; stroke-linejoin:round;fill-rule:evenodd;"
d="M 45314,39133
45236,39133
45236,38818
45314,38818
45314,39133
Z" /> 
<path style="fill:#000000; fill-opacity:1.0; 
stroke:#000000; stroke-width:0; stroke-opacity:1; 
stroke-linecap:round; stroke-linejoin:round;fill-rule:evenodd;"
d="M 45511,39133
45433,39133
45433,38818
45511,38818
45511,39133
Z" /> 
<path style="fill:#000000; fill-opacity:1.0; 
stroke:#000000; stroke-width:0; stroke-opacity:1; 
stroke-linecap:round; stroke-linejoin:round;fill-rule:evenodd;"
d="M 45708,39133
45629,39133
45629,38818
45708,38818
45708,39133
Z" /> 
<path style="fill:#000000; fill-opacity:1.0; 
stroke:#000000; stroke-width:0; stroke-opacity:1; 
stroke-linecap:round; stroke-linejoin:round;fill-rule:evenodd;"
d="M 45905,39133
45826,39133
45826,38818
45905,38818
45905,39133
Z" /> 
<path style="fill:#000000; fill-opacity:1.0; 
stroke:#000000; stroke-width:0; stroke-opacity:1; 
stroke-linecap:round; stroke-linejoin:round;fill-rule:evenodd;"
d="M 46102,39133
46023,39133
46023,38818
46102,38818
46102,39133
Z" /> 
<path style="fill:#000000; fill-opacity:1.0; 
stroke:#000000; stroke-width:0; stroke-opacity:1; 
stroke-linecap:round; stroke-linejoin:round;fill-rule:evenodd;"
d="M 46299,39133
46220,39133
46220,38818
46299,38818
46299,39133
Z" /> 
<path style="fill:#000000; fill-opacity:1.0; 
stroke:#000000; stroke-width:0; stroke-opacity:1; 
stroke-linecap:round; stroke-linejoin:round;fill-rule:evenodd;"
d="M 46496,39133
46417,39133
46417,38818
46496,38818
46496,39133
Z" /> 
<path style="fill:#000000; fill-opacity:1.0; 
stroke:#000000; stroke-width:0; stroke-opacity:1; 
stroke-linecap:round; stroke-linejoin:round;fill-rule:evenodd;"
d="M 46692,39133
46614,39133
46614,38818
46692,38818
46692,39133
Z" /> 
<path style="fill:#000000; fill-opacity:1.0; 
stroke:#000000; stroke-width:0; stroke-opacity:1; 
stroke-linecap:round; stroke-linejoin:round;fill-rule:evenodd;"
d="M 46889,39133
46811,39133
46811,38818
46889,38818
46889,39133
Z" /> 
<path style="fill:#000000; fill-opacity:1.0; 
stroke:#000000; stroke-width:0; stroke-opacity:1; 
stroke-linecap:round; stroke-linejoin:round;fill-rule:evenodd;"
d="M 47086,39133
47007,39133
47007,38818
47086,38818
47086,39133
Z" /> 
<path style="fill:#000000; fill-opacity:1.0; 
stroke:#000000; stroke-width:0; stroke-opacity:1; 
stroke-linecap:round; stroke-linejoin:round;fill-rule:evenodd;"
d="M 47283,39133
47204,39133
47204,38818
47283,38818
47283,39133
Z" /> 
<path style="fill:#000000; fill-opacity:1.0; 
stroke:#000000; stroke-width:0; stroke-opacity:1; 
stroke-linecap:round; stroke-linejoin:round;fill-rule:evenodd;"
d="M 47480,39133
47401,39133
47401,38818
47480,38818
47480,39133
Z" /> 
<path style="fill:#000000; fill-opacity:1.0; 
stroke:#000000; stroke-width:0; stroke-opacity:1; 
stroke-linecap:round; stroke-linejoin:round;fill-rule:evenodd;"
d="M 47677,39133
47598,39133
47598,38818
47677,38818
47677,39133
Z" /> 
<path style="fill:#000000; fill-opacity:1.0; 
stroke:#000000; stroke-width:0; stroke-opacity:1; 
stroke-linecap:round; stroke-linejoin:round;fill-rule:evenodd;"
d="M 47874,39133
47795,39133
47795,38818
47874,38818
47874,39133
Z" /> 
<path style="fill:#000000; fill-opacity:1.0; 
stroke:#000000; stroke-width:0; stroke-opacity:1; 
stroke-linecap:round; stroke-linejoin:round;fill-rule:evenodd;"
d="M 48070,39133
47992,39133
47992,38818
48070,38818
48070,39133
Z" /> 
<path style="fill:#000000; fill-opacity:1.0; 
stroke:#000000; stroke-width:0; stroke-opacity:1; 
stroke-linecap:round; stroke-linejoin:round;fill-rule:evenodd;"
d="M 48267,39133
48188,39133
48188,38818
48267,38818
48267,39133
Z" /> 
<path style="fill:#000000; fill-opacity:1.0; 
stroke:#000000; stroke-width:0; stroke-opacity:1; 
stroke-linecap:round; stroke-linejoin:round;fill-rule:evenodd;"
d="M 48464,39133
48385,39133
48385,38818
48464,38818
48464,39133
Z" /> 
<path style="fill:#000000; fill-opacity:1.0; 
stroke:#000000; stroke-width:0; stroke-opacity:1; 
stroke-linecap:round; stroke-linejoin:round;fill-rule:evenodd;"
d="M 48661,39133
48582,39133
48582,38818
48661,38818
48661,39133
Z" /> 
<path style="fill:#000000; fill-opacity:1.0; 
stroke:#000000; stroke-width:0; stroke-opacity:1; 
stroke-linecap:round; stroke-linejoin:round;fill-rule:evenodd;"
d="M 48858,39133
48779,39133
48779,38818
48858,38818
48858,39133
Z" /> 
</g>
<g >
<path style="fill:#000000; fill-opacity:1.0; 
stroke:#000000; stroke-width:0; stroke-opacity:1; 
stroke-linecap:round; stroke-linejoin:round;fill-rule:evenodd;"
d="M 48119,36211
48129,36212
48138,36214
48147,36218
48156,36222
48164,36227
48172,36232
48179,36239
48186,36246
48192,36254
48197,36262
48201,36271
48204,36280
48206,36289
48208,36299
48208,36309
48208,36564
48208,36574
48206,36584
48204,36593
48201,36602
48197,36611
48192,36619
48186,36627
48179,36634
48172,36641
48164,36646
48156,36651
48147,36655
48138,36659
48129,36661
48119,36662
48110,36663
47755,36663
47746,36662
47736,36661
47727,36659
47718,36655
47709,36651
47701,36646
47693,36641
47686,36634
47679,36627
47674,36619
47669,36611
47664,36602
47661,36593
47659,36584
47657,36574
47657,36564
47657,36309
47657,36299
47659,36289
47661,36280
47664,36271
47669,36262
47674,36254
47679,36246
47686,36239
47693,36232
47701,36227
47709,36222
47718,36218
47727,36214
47736,36212
47746,36211
47755,36210
48110,36210
48119,36211
Z" /> 
<path style="fill:#000000; fill-opacity:1.0; 
stroke:#000000; stroke-width:0; stroke-opacity:1; 
stroke-linecap:round; stroke-linejoin:round;fill-rule:evenodd;"
d="M 48119,37018
48129,37019
48138,37021
48147,37025
48156,37029
48164,37034
48172,37040
48179,37046
48186,37053
48192,37061
48197,37069
48201,37078
48204,37087
48206,37096
48208,37106
48208,37116
48208,37372
48208,37381
48206,37391
48204,37400
48201,37409
48197,37418
48192,37426
48186,37434
48179,37441
48172,37448
48164,37453
48156,37458
48147,37462
48138,37466
48129,37468
48119,37469
48110,37470
47755,37470
47746,37469
47736,37468
47727,37466
47718,37462
47709,37458
47701,37453
47693,37448
47686,37441
47679,37434
47674,37426
47669,37418
47664,37409
47661,37400
47659,37391
47657,37381
47657,37372
47657,37116
47657,37106
47659,37096
47661,37087
47664,37078
47669,37069
47674,37061
47679,37053
47686,37046
47693,37040
47701,37034
47709,37029
47718,37025
47727,37021
47736,37019
47746,37018
47755,37017
48110,37017
48119,37018
Z" /> 
</g>
<g >
<path style="fill:#000000; fill-opacity:1.0; 
stroke:#000000; stroke-width:0; stroke-opacity:1; 
stroke-linecap:round; stroke-linejoin:round;fill-rule:evenodd;"
d="M 48907,37018
48916,37019
48926,37021
48935,37025
48944,37029
48952,37034
48960,37040
48967,37046
48973,37053
48979,37061
48984,37069
48988,37078
48991,37087
48994,37096
48995,37106
48996,37116
48996,37372
48995,37381
48994,37391
48991,37400
48988,37409
48984,37418
48979,37426
48973,37434
48967,37441
48960,37448
48952,37453
48944,37458
48935,37462
48926,37466
48916,37468
48907,37469
48897,37470
48543,37470
48533,37469
48524,37468
48514,37466
48505,37462
48496,37458
48488,37453
48480,37448
48473,37441
48467,37434
48461,37426
48456,37418
48452,37409
48449,37400
48446,37391
48445,37381
48444,37372
48444,37116
48445,37106
48446,37096
48449,37087
48452,37078
48456,37069
48461,37061
48467,37053
48473,37046
48480,37040
48488,37034
48496,37029
48505,37025
48514,37021
48524,37019
48533,37018
48543,37017
48897,37017
48907,37018
Z" /> 
<path style="fill:#000000; fill-opacity:1.0; 
stroke:#000000; stroke-width:0; stroke-opacity:1; 
stroke-linecap:round; stroke-linejoin:round;fill-rule:evenodd;"
d="M 48907,36211
48916,36212
48926,36214
48935,36218
48944,36222
48952,36227
48960,36232
48967,36239
48973,36246
48979,36254
48984,36262
48988,36271
48991,36280
48994,36289
48995,36299
48996,36309
48996,36564
48995,36574
48994,36584
48991,36593
48988,36602
48984,36611
48979,36619
48973,36627
48967,36634
48960,36641
48952,36646
48944,36651
48935,36655
48926,36659
48916,36661
48907,36662
48897,36663
48543,36663
48533,36662
48524,36661
48514,36659
48505,36655
48496,36651
48488,36646
48480,36641
48473,36634
48467,36627
48461,36619
48456,36611
48452,36602
48449,36593
48446,36584
48445,36574
48444,36564
48444,36309
48445,36299
48446,36289
48449,36280
48452,36271
48456,36262
48461,36254
48467,36246
48473,36239
48480,36232
48488,36227
48496,36222
48505,36218
48514,36214
48524,36212
48533,36211
48543,36210
48897,36210
48907,36211
Z" /> 
</g>
<g >
</g>
<g >
<path style="fill:#000000; fill-opacity:1.0; 
stroke:#000000; stroke-width:0; stroke-opacity:1; 
stroke-linecap:round; stroke-linejoin:round;fill-rule:evenodd;"
d="M 48425,23622
48425,24409
47637,24409
47637,23622
48425,23622
Z" /> 
<path style="fill:#000000; fill-opacity:1.0; 
stroke:#000000; stroke-width:0; stroke-opacity:1; 
stroke-linecap:round; stroke-linejoin:round;fill-rule:evenodd;"
d="M 46062,23622
46062,24409
45275,24409
45275,23622
46062,23622
Z" /> 
</g>
<g >
<path style="fill:#000000; fill-opacity:1.0; 
stroke:#000000; stroke-width:0; stroke-opacity:1; 
stroke-linecap:round; stroke-linejoin:round;fill-rule:evenodd;"
d="M 50383,35030
50393,35031
50402,35033
50411,35037
50420,35041
50428,35046
50436,35051
50443,35058
50450,35065
50455,35073
50460,35081
50464,35090
50468,35099
50470,35108
50471,35118
50472,35127
50472,35383
50471,35393
50470,35403
50468,35412
50464,35421
50460,35430
50455,35438
50450,35446
50443,35453
50436,35459
50428,35465
50420,35470
50411,35474
50402,35478
50393,35480
50383,35481
50374,35482
50019,35482
50010,35481
50000,35480
49991,35478
49982,35474
49973,35470
49965,35465
49957,35459
49950,35453
49943,35446
49937,35438
49932,35430
49928,35421
49925,35412
49923,35403
49921,35393
49921,35383
49921,35127
49921,35118
49923,35108
49925,35099
49928,35090
49932,35081
49937,35073
49943,35065
49950,35058
49957,35051
49965,35046
49973,35041
49982,35037
49991,35033
50000,35031
50010,35030
50019,35029
50374,35029
50383,35030
Z" /> 
<path style="fill:#000000; fill-opacity:1.0; 
stroke:#000000; stroke-width:0; stroke-opacity:1; 
stroke-linecap:round; stroke-linejoin:round;fill-rule:evenodd;"
d="M 50383,34222
50393,34224
50402,34226
50411,34229
50420,34234
50428,34239
50436,34244
50443,34251
50450,34258
50455,34266
50460,34274
50464,34283
50468,34292
50470,34301
50471,34311
50472,34320
50472,34576
50471,34586
50470,34595
50468,34605
50464,34614
50460,34623
50455,34631
50450,34639
50443,34646
50436,34652
50428,34658
50420,34663
50411,34667
50402,34670
50393,34673
50383,34674
50374,34675
50019,34675
50010,34674
50000,34673
49991,34670
49982,34667
49973,34663
49965,34658
49957,34652
49950,34646
49943,34639
49937,34631
49932,34623
49928,34614
49925,34605
49923,34595
49921,34586
49921,34576
49921,34320
49921,34311
49923,34301
49925,34292
49928,34283
49932,34274
49937,34266
49943,34258
49950,34251
49957,34244
49965,34239
49973,34234
49982,34229
49991,34226
50000,34224
50010,34222
50019,34222
50374,34222
50383,34222
Z" /> 
</g>
<g >
<path style="fill:#000000; fill-opacity:1.0; 
stroke:#000000; stroke-width:0; stroke-opacity:1; 
stroke-linecap:round; stroke-linejoin:round;fill-rule:evenodd;"
d="M 42834,32500
42844,32501
42853,32504
42862,32507
42871,32511
42879,32516
42887,32522
42894,32528
42900,32535
42906,32543
42911,32552
42915,32560
42918,32569
42921,32579
42922,32588
42923,32598
42923,32952
42922,32962
42921,32971
42918,32981
42915,32990
42911,32999
42906,33007
42900,33015
42894,33022
42887,33028
42879,33034
42871,33039
42862,33043
42853,33046
42844,33049
42834,33050
42824,33051
42568,33051
42559,33050
42549,33049
42540,33046
42531,33043
42522,33039
42514,33034
42506,33028
42499,33022
42492,33015
42487,33007
42482,32999
42477,32990
42474,32981
42472,32971
42470,32962
42470,32952
42470,32598
42470,32588
42472,32579
42474,32569
42477,32560
42482,32552
42487,32543
42492,32535
42499,32528
42506,32522
42514,32516
42522,32511
42531,32507
42540,32504
42549,32501
42559,32500
42568,32500
42824,32500
42834,32500
Z" /> 
<path style="fill:#000000; fill-opacity:1.0; 
stroke:#000000; stroke-width:0; stroke-opacity:1; 
stroke-linecap:round; stroke-linejoin:round;fill-rule:evenodd;"
d="M 43641,32500
43651,32501
43660,32504
43669,32507
43678,32511
43686,32516
43694,32522
43701,32528
43707,32535
43713,32543
43718,32552
43722,32560
43726,32569
43728,32579
43729,32588
43730,32598
43730,32952
43729,32962
43728,32971
43726,32981
43722,32990
43718,32999
43713,33007
43707,33015
43701,33022
43694,33028
43686,33034
43678,33039
43669,33043
43660,33046
43651,33049
43641,33050
43631,33051
43375,33051
43366,33050
43356,33049
43347,33046
43338,33043
43329,33039
43321,33034
43313,33028
43306,33022
43299,33015
43294,33007
43289,32999
43285,32990
43281,32981
43279,32971
43278,32962
43277,32952
43277,32598
43278,32588
43279,32579
43281,32569
43285,32560
43289,32552
43294,32543
43299,32535
43306,32528
43313,32522
43321,32516
43329,32511
43338,32507
43347,32504
43356,32501
43366,32500
43375,32500
43631,32500
43641,32500
Z" /> 
</g>
<g >
<path style="fill:#000000; fill-opacity:1.0; 
stroke:#000000; stroke-width:0; stroke-opacity:1; 
stroke-linecap:round; stroke-linejoin:round;fill-rule:evenodd;"
d="M 49694,36998
49704,36999
49713,37002
49722,37005
49731,37009
49739,37014
49747,37020
49754,37026
49761,37034
49766,37041
49771,37050
49775,37058
49779,37067
49781,37077
49782,37086
49783,37096
49783,37352
49782,37362
49781,37371
49779,37380
49775,37390
49771,37398
49766,37407
49761,37414
49754,37421
49747,37428
49739,37434
49731,37439
49722,37443
49713,37446
49704,37448
49694,37450
49685,37450
49330,37450
49321,37450
49311,37448
49302,37446
49293,37443
49284,37439
49276,37434
49268,37428
49261,37421
49254,37414
49248,37407
49243,37398
49239,37390
49236,37380
49234,37371
49232,37362
49232,37352
49232,37096
49232,37086
49234,37077
49236,37067
49239,37058
49243,37050
49248,37041
49254,37034
49261,37026
49268,37020
49276,37014
49284,37009
49293,37005
49302,37002
49311,36999
49321,36998
49330,36998
49685,36998
49694,36998
Z" /> 
<path style="fill:#000000; fill-opacity:1.0; 
stroke:#000000; stroke-width:0; stroke-opacity:1; 
stroke-linecap:round; stroke-linejoin:round;fill-rule:evenodd;"
d="M 49694,36191
49704,36192
49713,36195
49722,36198
49731,36202
49739,36207
49747,36213
49754,36219
49761,36226
49766,36234
49771,36242
49775,36251
49779,36260
49781,36270
49782,36279
49783,36289
49783,36545
49782,36554
49781,36564
49779,36573
49775,36582
49771,36591
49766,36599
49761,36607
49754,36614
49747,36621
49739,36627
49731,36632
49722,36636
49713,36639
49704,36641
49694,36643
49685,36643
49330,36643
49321,36643
49311,36641
49302,36639
49293,36636
49284,36632
49276,36627
49268,36621
49261,36614
49254,36607
49248,36599
49243,36591
49239,36582
49236,36573
49234,36564
49232,36554
49232,36545
49232,36289
49232,36279
49234,36270
49236,36260
49239,36251
49243,36242
49248,36234
49254,36226
49261,36219
49268,36213
49276,36207
49284,36202
49293,36198
49302,36195
49311,36192
49321,36191
49330,36190
49685,36190
49694,36191
Z" /> 
</g>
<g >
<path style="fill:#000000; fill-opacity:1.0; 
stroke:#000000; stroke-width:0; stroke-opacity:1; 
stroke-linecap:round; stroke-linejoin:round;fill-rule:evenodd;"
d="M 49596,35010
49605,35011
49615,35014
49624,35017
49633,35021
49641,35026
49649,35032
49656,35038
49662,35045
49668,35053
49673,35061
49677,35070
49680,35079
49683,35089
49684,35098
49685,35108
49685,35364
49684,35373
49683,35383
49680,35392
49677,35401
49673,35410
49668,35418
49662,35426
49656,35433
49649,35440
49641,35446
49633,35450
49624,35455
49615,35458
49605,35460
49596,35462
49586,35462
49232,35462
49222,35462
49213,35460
49203,35458
49194,35455
49185,35450
49177,35446
49169,35440
49162,35433
49156,35426
49150,35418
49145,35410
49141,35401
49138,35392
49135,35383
49134,35373
49133,35364
49133,35108
49134,35098
49135,35089
49138,35079
49141,35070
49145,35061
49150,35053
49156,35045
49162,35038
49169,35032
49177,35026
49185,35021
49194,35017
49203,35014
49213,35011
49222,35010
49232,35009
49586,35009
49596,35010
Z" /> 
<path style="fill:#000000; fill-opacity:1.0; 
stroke:#000000; stroke-width:0; stroke-opacity:1; 
stroke-linecap:round; stroke-linejoin:round;fill-rule:evenodd;"
d="M 49596,34203
49605,34204
49615,34206
49624,34210
49633,34214
49641,34219
49649,34225
49656,34231
49662,34238
49668,34246
49673,34254
49677,34263
49680,34272
49683,34281
49684,34291
49685,34301
49685,34557
49684,34566
49683,34576
49680,34585
49677,34594
49673,34603
49668,34611
49662,34619
49656,34626
49649,34633
49641,34638
49633,34643
49624,34648
49615,34651
49605,34653
49596,34655
49586,34655
49232,34655
49222,34655
49213,34653
49203,34651
49194,34648
49185,34643
49177,34638
49169,34633
49162,34626
49156,34619
49150,34611
49145,34603
49141,34594
49138,34585
49135,34576
49134,34566
49133,34557
49133,34301
49134,34291
49135,34281
49138,34272
49141,34263
49145,34254
49150,34246
49156,34238
49162,34231
49169,34225
49177,34219
49185,34214
49194,34210
49203,34206
49213,34204
49222,34203
49232,34202
49586,34202
49596,34203
Z" /> 
</g>
<g >
<path style="fill:#000000; fill-opacity:1.0; 
stroke:#000000; stroke-width:0; stroke-opacity:1; 
stroke-linecap:round; stroke-linejoin:round;fill-rule:evenodd;"
d="M 50314,38209
50324,38210
50333,38212
50342,38216
50351,38220
50359,38225
50367,38231
50374,38237
50381,38244
50386,38252
50391,38260
50396,38269
50399,38278
50401,38287
50403,38297
50403,38307
50403,38661
50403,38671
50401,38680
50399,38689
50396,38699
50391,38707
50386,38716
50381,38723
50374,38731
50367,38737
50359,38743
50351,38748
50342,38752
50333,38755
50324,38757
50314,38759
50305,38759
50049,38759
50039,38759
50030,38757
50020,38755
50011,38752
50002,38748
49994,38743
49986,38737
49979,38731
49973,38723
49967,38716
49962,38707
49958,38699
49955,38689
49952,38680
49951,38671
49950,38661
49950,38307
49951,38297
49952,38287
49955,38278
49958,38269
49962,38260
49967,38252
49973,38244
49979,38237
49986,38231
49994,38225
50002,38220
50011,38216
50020,38212
50030,38210
50039,38209
50049,38208
50305,38208
50314,38209
Z" /> 
<path style="fill:#000000; fill-opacity:1.0; 
stroke:#000000; stroke-width:0; stroke-opacity:1; 
stroke-linecap:round; stroke-linejoin:round;fill-rule:evenodd;"
d="M 51121,38209
51131,38210
51140,38212
51149,38216
51158,38220
51166,38225
51174,38231
51181,38237
51188,38244
51194,38252
51199,38260
51203,38269
51206,38278
51208,38287
51210,38297
51210,38307
51210,38661
51210,38671
51208,38680
51206,38689
51203,38699
51199,38707
51194,38716
51188,38723
51181,38731
51174,38737
51166,38743
51158,38748
51149,38752
51140,38755
51131,38757
51121,38759
51112,38759
50856,38759
50846,38759
50837,38757
50827,38755
50818,38752
50809,38748
50801,38743
50793,38737
50786,38731
50780,38723
50774,38716
50769,38707
50765,38699
50762,38689
50759,38680
50758,38671
50757,38661
50757,38307
50758,38297
50759,38287
50762,38278
50765,38269
50769,38260
50774,38252
50780,38244
50786,38237
50793,38231
50801,38225
50809,38220
50818,38216
50827,38212
50837,38210
50846,38209
50856,38208
51112,38208
51121,38209
Z" /> 
</g>
<g >
<path style="fill:#000000; fill-opacity:1.0; 
stroke:#000000; stroke-width:0; stroke-opacity:1; 
stroke-linecap:round; stroke-linejoin:round;fill-rule:evenodd;"
d="M 43887,36181
43897,36182
43906,36185
43915,36188
43924,36192
43932,36197
43940,36203
43947,36209
43954,36217
43959,36224
43964,36233
43968,36241
43972,36250
43974,36260
43975,36269
43976,36279
43976,36535
43975,36545
43974,36554
43972,36564
43968,36573
43964,36581
43959,36590
43954,36597
43947,36605
43940,36611
43932,36617
43924,36622
43915,36626
43906,36629
43897,36631
43887,36633
43877,36633
43523,36633
43513,36633
43504,36631
43495,36629
43485,36626
43477,36622
43468,36617
43461,36611
43454,36605
43447,36597
43441,36590
43436,36581
43432,36573
43429,36564
43427,36554
43425,36545
43425,36535
43425,36279
43425,36269
43427,36260
43429,36250
43432,36241
43436,36233
43441,36224
43447,36217
43454,36209
43461,36203
43468,36197
43477,36192
43485,36188
43495,36185
43504,36182
43513,36181
43523,36181
43877,36181
43887,36181
Z" /> 
<path style="fill:#000000; fill-opacity:1.0; 
stroke:#000000; stroke-width:0; stroke-opacity:1; 
stroke-linecap:round; stroke-linejoin:round;fill-rule:evenodd;"
d="M 43887,36988
43897,36990
43906,36992
43915,36995
43924,36999
43932,37004
43940,37010
43947,37017
43954,37024
43959,37031
43964,37040
43968,37048
43972,37058
43974,37067
43975,37076
43976,37086
43976,37342
43975,37352
43974,37361
43972,37371
43968,37380
43964,37388
43959,37397
43954,37404
43947,37412
43940,37418
43932,37424
43924,37429
43915,37433
43906,37436
43897,37439
43887,37440
43877,37440
43523,37440
43513,37440
43504,37439
43495,37436
43485,37433
43477,37429
43468,37424
43461,37418
43454,37412
43447,37404
43441,37397
43436,37388
43432,37380
43429,37371
43427,37361
43425,37352
43425,37342
43425,37086
43425,37076
43427,37067
43429,37058
43432,37048
43436,37040
43441,37031
43447,37024
43454,37017
43461,37010
43468,37004
43477,36999
43485,36995
43495,36992
43504,36990
43513,36988
43523,36988
43877,36988
43887,36988
Z" /> 
</g>
<g >
<path style="fill:#000000; fill-opacity:1.0; 
stroke:#000000; stroke-width:0; stroke-opacity:1; 
stroke-linecap:round; stroke-linejoin:round;fill-rule:evenodd;"
d="M 50482,36181
50491,36182
50501,36185
50510,36188
50518,36192
50527,36197
50534,36203
50542,36209
50548,36217
50554,36224
50559,36233
50563,36241
50566,36250
50568,36260
50570,36269
50570,36279
50570,36535
50570,36545
50568,36554
50566,36564
50563,36573
50559,36581
50554,36590
50548,36597
50542,36605
50534,36611
50527,36617
50518,36622
50510,36626
50501,36629
50491,36631
50482,36633
50472,36633
50118,36633
50108,36633
50098,36631
50089,36629
50080,36626
50071,36622
50063,36617
50055,36611
50048,36605
50042,36597
50036,36590
50031,36581
50027,36573
50023,36564
50021,36554
50020,36545
50019,36535
50019,36279
50020,36269
50021,36260
50023,36250
50027,36241
50031,36233
50036,36224
50042,36217
50048,36209
50055,36203
50063,36197
50071,36192
50080,36188
50089,36185
50098,36182
50108,36181
50118,36181
50472,36181
50482,36181
Z" /> 
<path style="fill:#000000; fill-opacity:1.0; 
stroke:#000000; stroke-width:0; stroke-opacity:1; 
stroke-linecap:round; stroke-linejoin:round;fill-rule:evenodd;"
d="M 50482,36988
50491,36990
50501,36992
50510,36995
50518,36999
50527,37004
50534,37010
50542,37017
50548,37024
50554,37031
50559,37040
50563,37048
50566,37058
50568,37067
50570,37076
50570,37086
50570,37342
50570,37352
50568,37361
50566,37371
50563,37380
50559,37388
50554,37397
50548,37404
50542,37412
50534,37418
50527,37424
50518,37429
50510,37433
50501,37436
50491,37439
50482,37440
50472,37440
50118,37440
50108,37440
50098,37439
50089,37436
50080,37433
50071,37429
50063,37424
50055,37418
50048,37412
50042,37404
50036,37397
50031,37388
50027,37380
50023,37371
50021,37361
50020,37352
50019,37342
50019,37086
50020,37076
50021,37067
50023,37058
50027,37048
50031,37040
50036,37031
50042,37024
50048,37017
50055,37010
50063,37004
50071,36999
50080,36995
50089,36992
50098,36990
50108,36988
50118,36988
50472,36988
50482,36988
Z" /> 
</g>
<g >
<path style="fill:#000000; fill-opacity:1.0; 
stroke:#000000; stroke-width:0; stroke-opacity:1; 
stroke-linecap:round; stroke-linejoin:round;fill-rule:evenodd;"
d="M 44675,36988
44684,36990
44693,36992
44703,36995
44711,36999
44720,37004
44727,37010
44734,37017
44741,37024
44747,37031
44752,37040
44756,37048
44759,37058
44761,37067
44763,37076
44763,37086
44763,37342
44763,37352
44761,37361
44759,37371
44756,37380
44752,37388
44747,37397
44741,37404
44734,37412
44727,37418
44720,37424
44711,37429
44703,37433
44693,37436
44684,37439
44675,37440
44665,37440
44311,37440
44301,37440
44291,37439
44282,37436
44273,37433
44264,37429
44256,37424
44248,37418
44241,37412
44234,37404
44229,37397
44224,37388
44220,37380
44216,37371
44214,37361
44213,37352
44212,37342
44212,37086
44213,37076
44214,37067
44216,37058
44220,37048
44224,37040
44229,37031
44234,37024
44241,37017
44248,37010
44256,37004
44264,36999
44273,36995
44282,36992
44291,36990
44301,36988
44311,36988
44665,36988
44675,36988
Z" /> 
<path style="fill:#000000; fill-opacity:1.0; 
stroke:#000000; stroke-width:0; stroke-opacity:1; 
stroke-linecap:round; stroke-linejoin:round;fill-rule:evenodd;"
d="M 44675,36181
44684,36182
44693,36185
44703,36188
44711,36192
44720,36197
44727,36203
44734,36209
44741,36217
44747,36224
44752,36233
44756,36241
44759,36250
44761,36260
44763,36269
44763,36279
44763,36535
44763,36545
44761,36554
44759,36564
44756,36573
44752,36581
44747,36590
44741,36597
44734,36605
44727,36611
44720,36617
44711,36622
44703,36626
44693,36629
44684,36631
44675,36633
44665,36633
44311,36633
44301,36633
44291,36631
44282,36629
44273,36626
44264,36622
44256,36617
44248,36611
44241,36605
44234,36597
44229,36590
44224,36581
44220,36573
44216,36564
44214,36554
44213,36545
44212,36535
44212,36279
44213,36269
44214,36260
44216,36250
44220,36241
44224,36233
44229,36224
44234,36217
44241,36209
44248,36203
44256,36197
44264,36192
44273,36188
44282,36185
44291,36182
44301,36181
44311,36181
44665,36181
44675,36181
Z" /> 
</g>
<g >
<path style="fill:#000000; fill-opacity:1.0; 
stroke:#000000; stroke-width:0; stroke-opacity:1; 
stroke-linecap:round; stroke-linejoin:round;fill-rule:evenodd;"
d="M 51269,36988
51279,36990
51288,36992
51297,36995
51306,36999
51314,37004
51322,37010
51329,37017
51335,37024
51341,37031
51346,37040
51350,37048
51354,37058
51356,37067
51357,37076
51358,37086
51358,37342
51357,37352
51356,37361
51354,37371
51350,37380
51346,37388
51341,37397
51335,37404
51329,37412
51322,37418
51314,37424
51306,37429
51297,37433
51288,37436
51279,37439
51269,37440
51259,37440
50905,37440
50895,37440
50886,37439
50876,37436
50867,37433
50859,37429
50850,37424
50843,37418
50835,37412
50829,37404
50823,37397
50818,37388
50814,37380
50811,37371
50808,37361
50807,37352
50807,37342
50807,37086
50807,37076
50808,37067
50811,37058
50814,37048
50818,37040
50823,37031
50829,37024
50835,37017
50843,37010
50850,37004
50859,36999
50867,36995
50876,36992
50886,36990
50895,36988
50905,36988
51259,36988
51269,36988
Z" /> 
<path style="fill:#000000; fill-opacity:1.0; 
stroke:#000000; stroke-width:0; stroke-opacity:1; 
stroke-linecap:round; stroke-linejoin:round;fill-rule:evenodd;"
d="M 51269,36181
51279,36182
51288,36185
51297,36188
51306,36192
51314,36197
51322,36203
51329,36209
51335,36217
51341,36224
51346,36233
51350,36241
51354,36250
51356,36260
51357,36269
51358,36279
51358,36535
51357,36545
51356,36554
51354,36564
51350,36573
51346,36581
51341,36590
51335,36597
51329,36605
51322,36611
51314,36617
51306,36622
51297,36626
51288,36629
51279,36631
51269,36633
51259,36633
50905,36633
50895,36633
50886,36631
50876,36629
50867,36626
50859,36622
50850,36617
50843,36611
50835,36605
50829,36597
50823,36590
50818,36581
50814,36573
50811,36564
50808,36554
50807,36545
50807,36535
50807,36279
50807,36269
50808,36260
50811,36250
50814,36241
50818,36233
50823,36224
50829,36217
50835,36209
50843,36203
50850,36197
50859,36192
50867,36188
50876,36185
50886,36182
50895,36181
50905,36181
51259,36181
51269,36181
Z" /> 
</g>
<g >
<path style="fill:#000000; fill-opacity:1.0; 
stroke:#000000; stroke-width:0; stroke-opacity:1; 
stroke-linecap:round; stroke-linejoin:round;fill-rule:evenodd;"
d="M 44377,35319
43904,35319
43904,34965
44377,34965
44377,35319
Z" /> 
<path style="fill:#000000; fill-opacity:1.0; 
stroke:#000000; stroke-width:0; stroke-opacity:1; 
stroke-linecap:round; stroke-linejoin:round;fill-rule:evenodd;"
d="M 44377,34020
43904,34020
43904,33666
44377,33666
44377,34020
Z" /> 
</g>
<g >
<path style="fill:#000000; fill-opacity:1.0; 
stroke:#000000; stroke-width:0; stroke-opacity:1; 
stroke-linecap:round; stroke-linejoin:round;fill-rule:evenodd;"
d="M 45164,34020
44692,34020
44692,33666
45164,33666
45164,34020
Z" /> 
<path style="fill:#000000; fill-opacity:1.0; 
stroke:#000000; stroke-width:0; stroke-opacity:1; 
stroke-linecap:round; stroke-linejoin:round;fill-rule:evenodd;"
d="M 45164,35319
44692,35319
44692,34965
45164,34965
45164,35319
Z" /> 
</g>
<g >
<path style="fill:#000000; fill-opacity:1.0; 
stroke:#000000; stroke-width:0; stroke-opacity:1; 
stroke-linecap:round; stroke-linejoin:round;fill-rule:evenodd;"
d="M 41948,31929
41948,31456
42303,31456
42303,31929
41948,31929
Z" /> 
<path style="fill:#000000; fill-opacity:1.0; 
stroke:#000000; stroke-width:0; stroke-opacity:1; 
stroke-linecap:round; stroke-linejoin:round;fill-rule:evenodd;"
d="M 43248,31929
43248,31456
43602,31456
43602,31929
43248,31929
Z" /> 
</g>
<g >
<path style="fill:#000000; fill-opacity:1.0; 
stroke:#000000; stroke-width:0; stroke-opacity:1; 
stroke-linecap:round; stroke-linejoin:round;fill-rule:evenodd;"
d="M 44192,28937
42027,28937
42027,27755
44192,27755
44192,28937
Z" /> 
<path style="fill:#000000; fill-opacity:1.0; 
stroke:#000000; stroke-width:0; stroke-opacity:1; 
stroke-linecap:round; stroke-linejoin:round;fill-rule:evenodd;"
d="M 44192,30787
42027,30787
42027,29606
44192,29606
44192,30787
Z" /> 
</g>
<g >
<path style="fill:#000000; fill-opacity:1.0; 
stroke:#000000; stroke-width:0; stroke-opacity:1; 
stroke-linecap:round; stroke-linejoin:round;fill-rule:evenodd;"
d="M 42775,33937
42460,33937
42460,33582
42775,33582
42775,33937
Z" /> 
<path style="fill:#000000; fill-opacity:1.0; 
stroke:#000000; stroke-width:0; stroke-opacity:1; 
stroke-linecap:round; stroke-linejoin:round;fill-rule:evenodd;"
d="M 43149,34724
42834,34724
42834,34370
43149,34370
43149,34724
Z" /> 
<path style="fill:#000000; fill-opacity:1.0; 
stroke:#000000; stroke-width:0; stroke-opacity:1; 
stroke-linecap:round; stroke-linejoin:round;fill-rule:evenodd;"
d="M 42401,34724
42086,34724
42086,34370
42401,34370
42401,34724
Z" /> 
</g>
<g >
<path style="fill:#000000; fill-opacity:1.0; 
stroke:#000000; stroke-width:0; stroke-opacity:1; 
stroke-linecap:round; stroke-linejoin:round;fill-rule:evenodd;"
d="M 50964,33385
50964,33700
50610,33700
50610,33385
50964,33385
Z" /> 
<path style="fill:#000000; fill-opacity:1.0; 
stroke:#000000; stroke-width:0; stroke-opacity:1; 
stroke-linecap:round; stroke-linejoin:round;fill-rule:evenodd;"
d="M 50964,32637
50964,32952
50610,32952
50610,32637
50964,32637
Z" /> 
<path style="fill:#000000; fill-opacity:1.0; 
stroke:#000000; stroke-width:0; stroke-opacity:1; 
stroke-linecap:round; stroke-linejoin:round;fill-rule:evenodd;"
d="M 50177,33011
50177,33326
49822,33326
49822,33011
50177,33011
Z" /> 
</g>
<g >
<path style="fill:#000000; fill-opacity:1.0; 
stroke:#000000; stroke-width:0; stroke-opacity:1; 
stroke-linecap:round; stroke-linejoin:round;fill-rule:evenodd;"
d="M 43169,37913
43178,37915
43188,37917
43197,37920
43205,37925
43214,37929
43221,37935
43229,37942
43235,37949
43241,37957
43246,37965
43250,37974
43253,37983
43255,37992
43257,38002
43257,38011
43257,38366
43257,38375
43255,38385
43253,38394
43250,38403
43246,38412
43241,38420
43235,38428
43229,38435
43221,38442
43214,38447
43205,38452
43197,38457
43188,38460
43178,38462
43169,38464
43159,38464
42903,38464
42893,38464
42884,38462
42874,38460
42865,38457
42857,38452
42848,38447
42841,38442
42833,38435
42827,38428
42821,38420
42816,38412
42812,38403
42809,38394
42807,38385
42805,38375
42805,38366
42805,38011
42805,38002
42807,37992
42809,37983
42812,37974
42816,37965
42821,37957
42827,37949
42833,37942
42841,37935
42848,37929
42857,37925
42865,37920
42874,37917
42884,37915
42893,37913
42903,37913
43159,37913
43169,37913
Z" /> 
<path style="fill:#000000; fill-opacity:1.0; 
stroke:#000000; stroke-width:0; stroke-opacity:1; 
stroke-linecap:round; stroke-linejoin:round;fill-rule:evenodd;"
d="M 42362,37913
42371,37915
42380,37917
42390,37920
42398,37925
42407,37929
42414,37935
42421,37942
42428,37949
42434,37957
42439,37965
42443,37974
42446,37983
42448,37992
42450,38002
42450,38011
42450,38366
42450,38375
42448,38385
42446,38394
42443,38403
42439,38412
42434,38420
42428,38428
42421,38435
42414,38442
42407,38447
42398,38452
42390,38457
42380,38460
42371,38462
42362,38464
42352,38464
42096,38464
42086,38464
42077,38462
42067,38460
42058,38457
42050,38452
42041,38447
42034,38442
42026,38435
42020,38428
42014,38420
42009,38412
42005,38403
42002,38394
41999,38385
41998,38375
41998,38366
41998,38011
41998,38002
41999,37992
42002,37983
42005,37974
42009,37965
42014,37957
42020,37949
42026,37942
42034,37935
42041,37929
42050,37925
42058,37920
42067,37917
42077,37915
42086,37913
42096,37913
42352,37913
42362,37913
Z" /> 
</g>
<g >
<path style="fill:#000000; fill-opacity:1.0; 
stroke:#000000; stroke-width:0; stroke-opacity:1; 
stroke-linecap:round; stroke-linejoin:round;fill-rule:evenodd;"
d="M 43119,36984
43128,36985
43138,36987
43147,36991
43156,36995
43164,37000
43172,37006
43179,37012
43185,37019
43191,37027
43196,37035
43200,37044
43203,37053
43206,37062
43207,37072
43208,37082
43208,37338
43207,37347
43206,37357
43203,37366
43200,37375
43196,37384
43191,37392
43185,37400
43179,37407
43172,37414
43164,37419
43156,37424
43147,37428
43138,37432
43128,37434
43119,37435
43109,37436
42755,37436
42745,37435
42736,37434
42726,37432
42717,37428
42708,37424
42700,37419
42692,37414
42685,37407
42679,37400
42673,37392
42668,37384
42664,37375
42661,37366
42658,37357
42657,37347
42656,37338
42656,37082
42657,37072
42658,37062
42661,37053
42664,37044
42668,37035
42673,37027
42679,37019
42685,37012
42692,37006
42700,37000
42708,36995
42717,36991
42726,36987
42736,36985
42745,36984
42755,36983
43109,36983
43119,36984
Z" /> 
<path style="fill:#000000; fill-opacity:1.0; 
stroke:#000000; stroke-width:0; stroke-opacity:1; 
stroke-linecap:round; stroke-linejoin:round;fill-rule:evenodd;"
d="M 43119,36177
43128,36178
43138,36180
43147,36184
43156,36188
43164,36193
43172,36198
43179,36205
43185,36212
43191,36220
43196,36228
43200,36237
43203,36246
43206,36255
43207,36265
43208,36275
43208,36530
43207,36540
43206,36550
43203,36559
43200,36568
43196,36577
43191,36585
43185,36593
43179,36600
43172,36607
43164,36612
43156,36617
43147,36621
43138,36625
43128,36627
43119,36628
43109,36629
42755,36629
42745,36628
42736,36627
42726,36625
42717,36621
42708,36617
42700,36612
42692,36607
42685,36600
42679,36593
42673,36585
42668,36577
42664,36568
42661,36559
42658,36550
42657,36540
42656,36530
42656,36275
42657,36265
42658,36255
42661,36246
42664,36237
42668,36228
42673,36220
42679,36212
42685,36205
42692,36198
42700,36193
42708,36188
42717,36184
42726,36180
42736,36178
42745,36177
42755,36176
43109,36176
43119,36177
Z" /> 
</g>
<g >
<path style="fill:#000000; fill-opacity:1.0; 
stroke:#000000; stroke-width:0; stroke-opacity:1; 
stroke-linecap:round; stroke-linejoin:round;fill-rule:evenodd;"
d="M 46598,29916
46751,29763
47197,30208
47044,30361
46598,29916
Z" /> 
<path style="fill:#000000; fill-opacity:1.0; 
stroke:#000000; stroke-width:0; stroke-opacity:1; 
stroke-linecap:round; stroke-linejoin:round;fill-rule:evenodd;"
d="M 46376,30138
46529,29985
46974,30431
46821,30584
46376,30138
Z" /> 
<path style="fill:#000000; fill-opacity:1.0; 
stroke:#000000; stroke-width:0; stroke-opacity:1; 
stroke-linecap:round; stroke-linejoin:round;fill-rule:evenodd;"
d="M 46153,30361
46306,30208
46751,30653
46598,30806
46153,30361
Z" /> 
<path style="fill:#000000; fill-opacity:1.0; 
stroke:#000000; stroke-width:0; stroke-opacity:1; 
stroke-linecap:round; stroke-linejoin:round;fill-rule:evenodd;"
d="M 45930,30584
46083,30431
46529,30876
46376,31029
45930,30584
Z" /> 
<path style="fill:#000000; fill-opacity:1.0; 
stroke:#000000; stroke-width:0; stroke-opacity:1; 
stroke-linecap:round; stroke-linejoin:round;fill-rule:evenodd;"
d="M 45707,30806
45861,30653
46306,31099
46153,31252
45707,30806
Z" /> 
<path style="fill:#000000; fill-opacity:1.0; 
stroke:#000000; stroke-width:0; stroke-opacity:1; 
stroke-linecap:round; stroke-linejoin:round;fill-rule:evenodd;"
d="M 45485,31029
45638,30876
46083,31321
45930,31475
45485,31029
Z" /> 
<path style="fill:#000000; fill-opacity:1.0; 
stroke:#000000; stroke-width:0; stroke-opacity:1; 
stroke-linecap:round; stroke-linejoin:round;fill-rule:evenodd;"
d="M 45262,31252
45415,31099
45861,31544
45707,31697
45262,31252
Z" /> 
<path style="fill:#000000; fill-opacity:1.0; 
stroke:#000000; stroke-width:0; stroke-opacity:1; 
stroke-linecap:round; stroke-linejoin:round;fill-rule:evenodd;"
d="M 45039,31475
45192,31321
45638,31767
45485,31920
45039,31475
Z" /> 
<path style="fill:#000000; fill-opacity:1.0; 
stroke:#000000; stroke-width:0; stroke-opacity:1; 
stroke-linecap:round; stroke-linejoin:round;fill-rule:evenodd;"
d="M 45192,32727
45039,32574
45485,32129
45638,32282
45192,32727
Z" /> 
<path style="fill:#000000; fill-opacity:1.0; 
stroke:#000000; stroke-width:0; stroke-opacity:1; 
stroke-linecap:round; stroke-linejoin:round;fill-rule:evenodd;"
d="M 45415,32950
45262,32797
45707,32352
45861,32505
45415,32950
Z" /> 
<path style="fill:#000000; fill-opacity:1.0; 
stroke:#000000; stroke-width:0; stroke-opacity:1; 
stroke-linecap:round; stroke-linejoin:round;fill-rule:evenodd;"
d="M 45638,33173
45485,33020
45930,32574
46083,32727
45638,33173
Z" /> 
<path style="fill:#000000; fill-opacity:1.0; 
stroke:#000000; stroke-width:0; stroke-opacity:1; 
stroke-linecap:round; stroke-linejoin:round;fill-rule:evenodd;"
d="M 45861,33395
45707,33242
46153,32797
46306,32950
45861,33395
Z" /> 
<path style="fill:#000000; fill-opacity:1.0; 
stroke:#000000; stroke-width:0; stroke-opacity:1; 
stroke-linecap:round; stroke-linejoin:round;fill-rule:evenodd;"
d="M 46083,33618
45930,33465
46376,33020
46529,33173
46083,33618
Z" /> 
<path style="fill:#000000; fill-opacity:1.0; 
stroke:#000000; stroke-width:0; stroke-opacity:1; 
stroke-linecap:round; stroke-linejoin:round;fill-rule:evenodd;"
d="M 46306,33841
46153,33688
46598,33242
46751,33395
46306,33841
Z" /> 
<path style="fill:#000000; fill-opacity:1.0; 
stroke:#000000; stroke-width:0; stroke-opacity:1; 
stroke-linecap:round; stroke-linejoin:round;fill-rule:evenodd;"
d="M 46529,34064
46376,33911
46821,33465
46974,33618
46529,34064
Z" /> 
<path style="fill:#000000; fill-opacity:1.0; 
stroke:#000000; stroke-width:0; stroke-opacity:1; 
stroke-linecap:round; stroke-linejoin:round;fill-rule:evenodd;"
d="M 46751,34286
46598,34133
47044,33688
47197,33841
46751,34286
Z" /> 
<path style="fill:#000000; fill-opacity:1.0; 
stroke:#000000; stroke-width:0; stroke-opacity:1; 
stroke-linecap:round; stroke-linejoin:round;fill-rule:evenodd;"
d="M 47406,33841
47559,33688
48004,34133
47851,34286
47406,33841
Z" /> 
<path style="fill:#000000; fill-opacity:1.0; 
stroke:#000000; stroke-width:0; stroke-opacity:1; 
stroke-linecap:round; stroke-linejoin:round;fill-rule:evenodd;"
d="M 47628,33618
47781,33465
48227,33911
48074,34064
47628,33618
Z" /> 
<path style="fill:#000000; fill-opacity:1.0; 
stroke:#000000; stroke-width:0; stroke-opacity:1; 
stroke-linecap:round; stroke-linejoin:round;fill-rule:evenodd;"
d="M 47851,33395
48004,33242
48450,33688
48296,33841
47851,33395
Z" /> 
<path style="fill:#000000; fill-opacity:1.0; 
stroke:#000000; stroke-width:0; stroke-opacity:1; 
stroke-linecap:round; stroke-linejoin:round;fill-rule:evenodd;"
d="M 48074,33173
48227,33020
48672,33465
48519,33618
48074,33173
Z" /> 
<path style="fill:#000000; fill-opacity:1.0; 
stroke:#000000; stroke-width:0; stroke-opacity:1; 
stroke-linecap:round; stroke-linejoin:round;fill-rule:evenodd;"
d="M 48296,32950
48450,32797
48895,33242
48742,33395
48296,32950
Z" /> 
<path style="fill:#000000; fill-opacity:1.0; 
stroke:#000000; stroke-width:0; stroke-opacity:1; 
stroke-linecap:round; stroke-linejoin:round;fill-rule:evenodd;"
d="M 48519,32727
48672,32574
49118,33020
48965,33173
48519,32727
Z" /> 
<path style="fill:#000000; fill-opacity:1.0; 
stroke:#000000; stroke-width:0; stroke-opacity:1; 
stroke-linecap:round; stroke-linejoin:round;fill-rule:evenodd;"
d="M 48742,32505
48895,32352
49340,32797
49187,32950
48742,32505
Z" /> 
<path style="fill:#000000; fill-opacity:1.0; 
stroke:#000000; stroke-width:0; stroke-opacity:1; 
stroke-linecap:round; stroke-linejoin:round;fill-rule:evenodd;"
d="M 48965,32282
49118,32129
49563,32574
49410,32727
48965,32282
Z" /> 
<path style="fill:#000000; fill-opacity:1.0; 
stroke:#000000; stroke-width:0; stroke-opacity:1; 
stroke-linecap:round; stroke-linejoin:round;fill-rule:evenodd;"
d="M 49118,31920
48965,31767
49410,31321
49563,31475
49118,31920
Z" /> 
<path style="fill:#000000; fill-opacity:1.0; 
stroke:#000000; stroke-width:0; stroke-opacity:1; 
stroke-linecap:round; stroke-linejoin:round;fill-rule:evenodd;"
d="M 48895,31697
48742,31544
49187,31099
49340,31252
48895,31697
Z" /> 
<path style="fill:#000000; fill-opacity:1.0; 
stroke:#000000; stroke-width:0; stroke-opacity:1; 
stroke-linecap:round; stroke-linejoin:round;fill-rule:evenodd;"
d="M 48672,31475
48519,31321
48965,30876
49118,31029
48672,31475
Z" /> 
<path style="fill:#000000; fill-opacity:1.0; 
stroke:#000000; stroke-width:0; stroke-opacity:1; 
stroke-linecap:round; stroke-linejoin:round;fill-rule:evenodd;"
d="M 48450,31252
48296,31099
48742,30653
48895,30806
48450,31252
Z" /> 
<path style="fill:#000000; fill-opacity:1.0; 
stroke:#000000; stroke-width:0; stroke-opacity:1; 
stroke-linecap:round; stroke-linejoin:round;fill-rule:evenodd;"
d="M 48227,31029
48074,30876
48519,30431
48672,30584
48227,31029
Z" /> 
<path style="fill:#000000; fill-opacity:1.0; 
stroke:#000000; stroke-width:0; stroke-opacity:1; 
stroke-linecap:round; stroke-linejoin:round;fill-rule:evenodd;"
d="M 48004,30806
47851,30653
48296,30208
48450,30361
48004,30806
Z" /> 
<path style="fill:#000000; fill-opacity:1.0; 
stroke:#000000; stroke-width:0; stroke-opacity:1; 
stroke-linecap:round; stroke-linejoin:round;fill-rule:evenodd;"
d="M 47781,30584
47628,30431
48074,29985
48227,30138
47781,30584
Z" /> 
<path style="fill:#000000; fill-opacity:1.0; 
stroke:#000000; stroke-width:0; stroke-opacity:1; 
stroke-linecap:round; stroke-linejoin:round;fill-rule:evenodd;"
d="M 47559,30361
47406,30208
47851,29763
48004,29916
47559,30361
Z" /> 
</g>
<g >
<path style="fill:#000000; fill-opacity:1.0; 
stroke:#000000; stroke-width:0; stroke-opacity:1; 
stroke-linecap:round; stroke-linejoin:round;fill-rule:evenodd;"
d="M 45846,25405
45846,25169
46437,25169
46437,25405
45846,25405
Z" /> 
<path style="fill:#000000; fill-opacity:1.0; 
stroke:#000000; stroke-width:0; stroke-opacity:1; 
stroke-linecap:round; stroke-linejoin:round;fill-rule:evenodd;"
d="M 45846,25905
45846,25669
46437,25669
46437,25905
45846,25905
Z" /> 
<path style="fill:#000000; fill-opacity:1.0; 
stroke:#000000; stroke-width:0; stroke-opacity:1; 
stroke-linecap:round; stroke-linejoin:round;fill-rule:evenodd;"
d="M 45846,26405
45846,26169
46437,26169
46437,26405
45846,26405
Z" /> 
<path style="fill:#000000; fill-opacity:1.0; 
stroke:#000000; stroke-width:0; stroke-opacity:1; 
stroke-linecap:round; stroke-linejoin:round;fill-rule:evenodd;"
d="M 45846,26905
45846,26669
46437,26669
46437,26905
45846,26905
Z" /> 
<path style="fill:#000000; fill-opacity:1.0; 
stroke:#000000; stroke-width:0; stroke-opacity:1; 
stroke-linecap:round; stroke-linejoin:round;fill-rule:evenodd;"
d="M 45846,27405
45846,27169
46437,27169
46437,27405
45846,27405
Z" /> 
<path style="fill:#000000; fill-opacity:1.0; 
stroke:#000000; stroke-width:0; stroke-opacity:1; 
stroke-linecap:round; stroke-linejoin:round;fill-rule:evenodd;"
d="M 45846,27905
45846,27669
46437,27669
46437,27905
45846,27905
Z" /> 
<path style="fill:#000000; fill-opacity:1.0; 
stroke:#000000; stroke-width:0; stroke-opacity:1; 
stroke-linecap:round; stroke-linejoin:round;fill-rule:evenodd;"
d="M 45846,28405
45846,28169
46437,28169
46437,28405
45846,28405
Z" /> 
<path style="fill:#000000; fill-opacity:1.0; 
stroke:#000000; stroke-width:0; stroke-opacity:1; 
stroke-linecap:round; stroke-linejoin:round;fill-rule:evenodd;"
d="M 45846,28905
45846,28669
46437,28669
46437,28905
45846,28905
Z" /> 
<path style="fill:#000000; fill-opacity:1.0; 
stroke:#000000; stroke-width:0; stroke-opacity:1; 
stroke-linecap:round; stroke-linejoin:round;fill-rule:evenodd;"
d="M 49507,28905
49507,28669
50098,28669
50098,28905
49507,28905
Z" /> 
<path style="fill:#000000; fill-opacity:1.0; 
stroke:#000000; stroke-width:0; stroke-opacity:1; 
stroke-linecap:round; stroke-linejoin:round;fill-rule:evenodd;"
d="M 49507,28405
49507,28169
50098,28169
50098,28405
49507,28405
Z" /> 
<path style="fill:#000000; fill-opacity:1.0; 
stroke:#000000; stroke-width:0; stroke-opacity:1; 
stroke-linecap:round; stroke-linejoin:round;fill-rule:evenodd;"
d="M 49507,27905
49507,27669
50098,27669
50098,27905
49507,27905
Z" /> 
<path style="fill:#000000; fill-opacity:1.0; 
stroke:#000000; stroke-width:0; stroke-opacity:1; 
stroke-linecap:round; stroke-linejoin:round;fill-rule:evenodd;"
d="M 49507,27405
49507,27169
50098,27169
50098,27405
49507,27405
Z" /> 
<path style="fill:#000000; fill-opacity:1.0; 
stroke:#000000; stroke-width:0; stroke-opacity:1; 
stroke-linecap:round; stroke-linejoin:round;fill-rule:evenodd;"
d="M 49507,26905
49507,26669
50098,26669
50098,26905
49507,26905
Z" /> 
<path style="fill:#000000; fill-opacity:1.0; 
stroke:#000000; stroke-width:0; stroke-opacity:1; 
stroke-linecap:round; stroke-linejoin:round;fill-rule:evenodd;"
d="M 49507,26405
49507,26169
50098,26169
50098,26405
49507,26405
Z" /> 
<path style="fill:#000000; fill-opacity:1.0; 
stroke:#000000; stroke-width:0; stroke-opacity:1; 
stroke-linecap:round; stroke-linejoin:round;fill-rule:evenodd;"
d="M 49507,25905
49507,25669
50098,25669
50098,25905
49507,25905
Z" /> 
<path style="fill:#000000; fill-opacity:1.0; 
stroke:#000000; stroke-width:0; stroke-opacity:1; 
stroke-linecap:round; stroke-linejoin:round;fill-rule:evenodd;"
d="M 49507,25405
49507,25169
50098,25169
50098,25405
49507,25405
Z" /> 
</g>
<g >
<path style="fill:#000000; fill-opacity:1.0; 
stroke:#000000; stroke-width:0; stroke-opacity:1; 
stroke-linecap:round; stroke-linejoin:round;fill-rule:evenodd;"
d="M 47332,36998
47342,36999
47351,37002
47360,37005
47369,37009
47377,37014
47385,37020
47392,37026
47398,37034
47404,37041
47409,37050
47413,37058
47417,37067
47419,37077
47420,37086
47421,37096
47421,37352
47420,37362
47419,37371
47417,37380
47413,37390
47409,37398
47404,37407
47398,37414
47392,37421
47385,37428
47377,37434
47369,37439
47360,37443
47351,37446
47342,37448
47332,37450
47322,37450
46968,37450
46958,37450
46949,37448
46939,37446
46930,37443
46922,37439
46913,37434
46906,37428
46898,37421
46892,37414
46886,37407
46881,37398
46877,37390
46874,37380
46871,37371
46870,37362
46870,37352
46870,37096
46870,37086
46871,37077
46874,37067
46877,37058
46881,37050
46886,37041
46892,37034
46898,37026
46906,37020
46913,37014
46922,37009
46930,37005
46939,37002
46949,36999
46958,36998
46968,36998
47322,36998
47332,36998
Z" /> 
<path style="fill:#000000; fill-opacity:1.0; 
stroke:#000000; stroke-width:0; stroke-opacity:1; 
stroke-linecap:round; stroke-linejoin:round;fill-rule:evenodd;"
d="M 47332,36191
47342,36192
47351,36195
47360,36198
47369,36202
47377,36207
47385,36213
47392,36219
47398,36226
47404,36234
47409,36242
47413,36251
47417,36260
47419,36270
47420,36279
47421,36289
47421,36545
47420,36554
47419,36564
47417,36573
47413,36582
47409,36591
47404,36599
47398,36607
47392,36614
47385,36621
47377,36627
47369,36632
47360,36636
47351,36639
47342,36641
47332,36643
47322,36643
46968,36643
46958,36643
46949,36641
46939,36639
46930,36636
46922,36632
46913,36627
46906,36621
46898,36614
46892,36607
46886,36599
46881,36591
46877,36582
46874,36573
46871,36564
46870,36554
46870,36545
46870,36289
46870,36279
46871,36270
46874,36260
46877,36251
46881,36242
46886,36234
46892,36226
46898,36219
46906,36213
46913,36207
46922,36202
46930,36198
46939,36195
46949,36192
46958,36191
46968,36190
47322,36190
47332,36191
Z" /> 
</g>
<g >
</g>
<g >
</g>
<g >
</g>
</g> 
</svg>
