<?xml version="1.0" standalone="no"?>
 <!DOCTYPE svg PUBLIC "-//W3C//DTD SVG 1.1//EN" 
 "http://www.w3.org/Graphics/SVG/1.1/DTD/svg11.dtd"> 
<svg xmlns="http://www.w3.org/2000/svg" version="1.1" 
    width="29.7002cm" height="21.0007cm" viewBox="0 0 116930 82680 ">
<title>SVG Picture created as OTP-v02-F_Mask.svg date 2019/05/21 08:29:58 </title>
  <desc>Picture generated by PCBNEW </desc>
<g style="fill:#000000; fill-opacity:1;stroke:#000000; stroke-opacity:1;
stroke-linecap:round; stroke-linejoin:round; "
 transform="translate(0 0) scale(1 1)">
</g>
<g style="fill:#000000; fill-opacity:0.0; 
stroke:#000000; stroke-width:-0.000393701; stroke-opacity:1; 
stroke-linecap:round; stroke-linejoin:round;">
</g>
<g style="fill:#000000; fill-opacity:0.0; 
stroke:#000000; stroke-width:196.85; stroke-opacity:1; 
stroke-linecap:round; stroke-linejoin:round;">
<path d="M73327 23917
L72540 23917
" />
<path d="M72933 24311
L72933 23523
" />
</g>
<g style="fill:#000000; fill-opacity:1.0; 
stroke:#000000; stroke-width:0; stroke-opacity:1; 
stroke-linecap:round; stroke-linejoin:round;">
<path style="fill:#000000; fill-opacity:1.0; 
stroke:#000000; stroke-width:0; stroke-opacity:1; 
stroke-linecap:round; stroke-linejoin:round;fill-rule:evenodd;"
d="M 63919,41444
63919,41444
63919,41444
63884,41459
63867,41470
63851,41480
63824,41508
63802,41540
63787,41576
63780,41614
63780,41653
63787,41691
63801,41724
63802,41727
63824,41759
63851,41786
63884,41808
63884,41808
63884,41808
63919,41823
63957,41830
63996,41830
64034,41823
64070,41808
64070,41808
64070,41808
64102,41786
64130,41759
64151,41727
64152,41724
64166,41691
64174,41653
64174,41614
64166,41576
64151,41540
64130,41508
64102,41480
64086,41470
64070,41459
64034,41444
64034,41444
64034,41444
63996,41437
63957,41437
63919,41444
Z" /> 
<path style="fill:#000000; fill-opacity:1.0; 
stroke:#000000; stroke-width:0; stroke-opacity:1; 
stroke-linecap:round; stroke-linejoin:round;fill-rule:evenodd;"
d="M 75632,41346
75632,41346
75632,41346
75596,41360
75580,41371
75564,41382
75536,41409
75515,41442
75500,41478
75492,41516
75492,41554
75500,41592
75515,41628
75536,41660
75564,41688
75580,41699
75596,41709
75596,41709
75596,41709
75632,41724
75670,41732
75709,41732
75747,41724
75783,41709
75783,41709
75783,41709
75799,41699
75815,41688
75842,41660
75864,41628
75879,41592
75886,41554
75886,41516
75879,41478
75864,41442
75842,41409
75815,41382
75799,41371
75783,41360
75747,41346
75747,41346
75747,41346
75709,41338
75670,41338
75632,41346
Z" /> 
<path style="fill:#000000; fill-opacity:1.0; 
stroke:#000000; stroke-width:0; stroke-opacity:1; 
stroke-linecap:round; stroke-linejoin:round;fill-rule:evenodd;"
d="M 65966,39875
65905,39900
65905,39900
65850,39936
65803,39983
65792,40000
65767,40038
65742,40099
65729,40163
65729,40229
65742,40294
65767,40355
65767,40355
65803,40410
65850,40456
65905,40493
65905,40493
65905,40493
65966,40518
66030,40531
66096,40531
66161,40518
66222,40493
66222,40493
66222,40493
66277,40456
66323,40410
66360,40355
66360,40355
66385,40294
66398,40229
66398,40163
66385,40099
66360,40038
66334,40000
66323,39983
66277,39936
66222,39900
66222,39900
66161,39875
66096,39862
66030,39862
65966,39875
Z" /> 
<path style="fill:#000000; fill-opacity:1.0; 
stroke:#000000; stroke-width:0; stroke-opacity:1; 
stroke-linecap:round; stroke-linejoin:round;fill-rule:evenodd;"
d="M 72599,39232
72687,39232
72697,39233
72706,39236
72715,39240
72722,39246
72728,39254
72733,39262
72736,39271
72737,39281
72737,40157
73524,40157
73524,38976
72727,38976
72717,38975
72708,38972
72699,38968
72692,38961
72686,38954
72681,38945
72678,38936
72678,38927
72678,38917
72599,38917
72599,39232
Z" /> 
<path style="fill:#000000; fill-opacity:1.0; 
stroke:#000000; stroke-width:0; stroke-opacity:1; 
stroke-linecap:round; stroke-linejoin:round;fill-rule:evenodd;"
d="M 67028,40157
67815,40157
67815,38976
67028,38976
67028,40157
Z" /> 
<path style="fill:#000000; fill-opacity:1.0; 
stroke:#000000; stroke-width:0; stroke-opacity:1; 
stroke-linecap:round; stroke-linejoin:round;fill-rule:evenodd;"
d="M 74661,39304
74633,39316
74596,39331
74538,39370
74489,39419
74450,39477
74450,39477
74423,39542
74411,39605
74410,39610
74410,39680
74423,39749
74450,39813
74489,39871
74538,39920
74596,39959
74596,39959
74596,39959
74661,39986
74729,40000
74799,40000
74868,39986
74932,39959
74932,39959
74932,39959
74990,39920
75039,39871
75078,39813
75105,39749
75118,39680
75118,39610
75117,39605
75105,39542
75078,39477
75078,39477
75039,39419
74990,39370
74932,39331
74895,39316
74868,39304
74799,39291
74729,39291
74661,39304
Z" /> 
<path style="fill:#000000; fill-opacity:1.0; 
stroke:#000000; stroke-width:0; stroke-opacity:1; 
stroke-linecap:round; stroke-linejoin:round;fill-rule:evenodd;"
d="M 66354,38950
66292,38976
66289,38977
66231,39016
66182,39065
66150,39113
66143,39123
66116,39187
66103,39256
66103,39326
66112,39370
66116,39394
66143,39459
66182,39517
66231,39566
66289,39605
66289,39605
66289,39605
66354,39632
66422,39645
66492,39645
66560,39632
66625,39605
66625,39605
66625,39605
66683,39566
66732,39517
66771,39459
66798,39394
66803,39370
66811,39326
66811,39256
66798,39187
66771,39123
66764,39113
66732,39065
66683,39016
66625,38977
66623,38976
66560,38950
66492,38937
66422,38937
66354,38950
Z" /> 
<path style="fill:#000000; fill-opacity:1.0; 
stroke:#000000; stroke-width:0; stroke-opacity:1; 
stroke-linecap:round; stroke-linejoin:round;fill-rule:evenodd;"
d="M 65251,38940
65228,38950
65187,38967
65129,39006
65079,39055
65041,39113
65041,39113
65014,39178
65000,39246
65000,39316
65002,39326
65014,39384
65041,39449
65079,39507
65129,39556
65187,39595
65187,39595
65187,39595
65251,39622
65320,39635
65390,39635
65458,39622
65523,39595
65523,39595
65523,39595
65581,39556
65630,39507
65669,39449
65695,39384
65707,39326
65709,39316
65709,39246
65695,39178
65669,39113
65669,39113
65630,39055
65581,39006
65523,38967
65482,38950
65458,38940
65390,38927
65320,38927
65251,38940
Z" /> 
<path style="fill:#000000; fill-opacity:1.0; 
stroke:#000000; stroke-width:0; stroke-opacity:1; 
stroke-linecap:round; stroke-linejoin:round;fill-rule:evenodd;"
d="M 70827,39232
70906,39232
70906,38917
70827,38917
70827,39232
Z" /> 
<path style="fill:#000000; fill-opacity:1.0; 
stroke:#000000; stroke-width:0; stroke-opacity:1; 
stroke-linecap:round; stroke-linejoin:round;fill-rule:evenodd;"
d="M 72402,39232
72481,39232
72481,38917
72402,38917
72402,39232
Z" /> 
<path style="fill:#000000; fill-opacity:1.0; 
stroke:#000000; stroke-width:0; stroke-opacity:1; 
stroke-linecap:round; stroke-linejoin:round;fill-rule:evenodd;"
d="M 72205,39232
72284,39232
72284,38917
72205,38917
72205,39232
Z" /> 
<path style="fill:#000000; fill-opacity:1.0; 
stroke:#000000; stroke-width:0; stroke-opacity:1; 
stroke-linecap:round; stroke-linejoin:round;fill-rule:evenodd;"
d="M 72008,39232
72087,39232
72087,38917
72008,38917
72008,39232
Z" /> 
<path style="fill:#000000; fill-opacity:1.0; 
stroke:#000000; stroke-width:0; stroke-opacity:1; 
stroke-linecap:round; stroke-linejoin:round;fill-rule:evenodd;"
d="M 71811,39232
71890,39232
71890,38917
71811,38917
71811,39232
Z" /> 
<path style="fill:#000000; fill-opacity:1.0; 
stroke:#000000; stroke-width:0; stroke-opacity:1; 
stroke-linecap:round; stroke-linejoin:round;fill-rule:evenodd;"
d="M 71615,39232
71693,39232
71693,38917
71615,38917
71615,39232
Z" /> 
<path style="fill:#000000; fill-opacity:1.0; 
stroke:#000000; stroke-width:0; stroke-opacity:1; 
stroke-linecap:round; stroke-linejoin:round;fill-rule:evenodd;"
d="M 71418,39232
71496,39232
71496,38917
71418,38917
71418,39232
Z" /> 
<path style="fill:#000000; fill-opacity:1.0; 
stroke:#000000; stroke-width:0; stroke-opacity:1; 
stroke-linecap:round; stroke-linejoin:round;fill-rule:evenodd;"
d="M 71221,39232
71300,39232
71300,38917
71221,38917
71221,39232
Z" /> 
<path style="fill:#000000; fill-opacity:1.0; 
stroke:#000000; stroke-width:0; stroke-opacity:1; 
stroke-linecap:round; stroke-linejoin:round;fill-rule:evenodd;"
d="M 71024,39232
71103,39232
71103,38917
71024,38917
71024,39232
Z" /> 
<path style="fill:#000000; fill-opacity:1.0; 
stroke:#000000; stroke-width:0; stroke-opacity:1; 
stroke-linecap:round; stroke-linejoin:round;fill-rule:evenodd;"
d="M 68268,39232
68347,39232
68347,38917
68268,38917
68268,39232
Z" /> 
<path style="fill:#000000; fill-opacity:1.0; 
stroke:#000000; stroke-width:0; stroke-opacity:1; 
stroke-linecap:round; stroke-linejoin:round;fill-rule:evenodd;"
d="M 68465,39232
68544,39232
68544,38917
68465,38917
68465,39232
Z" /> 
<path style="fill:#000000; fill-opacity:1.0; 
stroke:#000000; stroke-width:0; stroke-opacity:1; 
stroke-linecap:round; stroke-linejoin:round;fill-rule:evenodd;"
d="M 68859,39232
68937,39232
68937,38917
68859,38917
68859,39232
Z" /> 
<path style="fill:#000000; fill-opacity:1.0; 
stroke:#000000; stroke-width:0; stroke-opacity:1; 
stroke-linecap:round; stroke-linejoin:round;fill-rule:evenodd;"
d="M 70630,39232
70709,39232
70709,38917
70630,38917
70630,39232
Z" /> 
<path style="fill:#000000; fill-opacity:1.0; 
stroke:#000000; stroke-width:0; stroke-opacity:1; 
stroke-linecap:round; stroke-linejoin:round;fill-rule:evenodd;"
d="M 68071,39232
68150,39232
68150,38917
68071,38917
68071,39232
Z" /> 
<path style="fill:#000000; fill-opacity:1.0; 
stroke:#000000; stroke-width:0; stroke-opacity:1; 
stroke-linecap:round; stroke-linejoin:round;fill-rule:evenodd;"
d="M 70433,39232
70512,39232
70512,38917
70433,38917
70433,39232
Z" /> 
<path style="fill:#000000; fill-opacity:1.0; 
stroke:#000000; stroke-width:0; stroke-opacity:1; 
stroke-linecap:round; stroke-linejoin:round;fill-rule:evenodd;"
d="M 70237,39232
70315,39232
70315,38917
70237,38917
70237,39232
Z" /> 
<path style="fill:#000000; fill-opacity:1.0; 
stroke:#000000; stroke-width:0; stroke-opacity:1; 
stroke-linecap:round; stroke-linejoin:round;fill-rule:evenodd;"
d="M 70040,39232
70118,39232
70118,38917
70040,38917
70040,39232
Z" /> 
<path style="fill:#000000; fill-opacity:1.0; 
stroke:#000000; stroke-width:0; stroke-opacity:1; 
stroke-linecap:round; stroke-linejoin:round;fill-rule:evenodd;"
d="M 69843,39232
69922,39232
69922,38917
69843,38917
69843,39232
Z" /> 
<path style="fill:#000000; fill-opacity:1.0; 
stroke:#000000; stroke-width:0; stroke-opacity:1; 
stroke-linecap:round; stroke-linejoin:round;fill-rule:evenodd;"
d="M 69646,39232
69725,39232
69725,38917
69646,38917
69646,39232
Z" /> 
<path style="fill:#000000; fill-opacity:1.0; 
stroke:#000000; stroke-width:0; stroke-opacity:1; 
stroke-linecap:round; stroke-linejoin:round;fill-rule:evenodd;"
d="M 69449,39232
69528,39232
69528,38917
69449,38917
69449,39232
Z" /> 
<path style="fill:#000000; fill-opacity:1.0; 
stroke:#000000; stroke-width:0; stroke-opacity:1; 
stroke-linecap:round; stroke-linejoin:round;fill-rule:evenodd;"
d="M 69252,39232
69331,39232
69331,38917
69252,38917
69252,39232
Z" /> 
<path style="fill:#000000; fill-opacity:1.0; 
stroke:#000000; stroke-width:0; stroke-opacity:1; 
stroke-linecap:round; stroke-linejoin:round;fill-rule:evenodd;"
d="M 69055,39232
69134,39232
69134,38917
69055,38917
69055,39232
Z" /> 
<path style="fill:#000000; fill-opacity:1.0; 
stroke:#000000; stroke-width:0; stroke-opacity:1; 
stroke-linecap:round; stroke-linejoin:round;fill-rule:evenodd;"
d="M 68662,39232
68741,39232
68741,38917
68662,38917
68662,39232
Z" /> 
<path style="fill:#000000; fill-opacity:1.0; 
stroke:#000000; stroke-width:0; stroke-opacity:1; 
stroke-linecap:round; stroke-linejoin:round;fill-rule:evenodd;"
d="M 65776,38210
65763,38214
65750,38220
65740,38229
65731,38240
65724,38252
65720,38265
65719,38281
65719,38686
65720,38702
65724,38716
65731,38728
65740,38738
65750,38747
65763,38754
65776,38758
65792,38759
66099,38759
66115,38758
66128,38754
66140,38747
66151,38738
66160,38728
66166,38716
66170,38702
66172,38686
66172,38281
66170,38265
66166,38252
66160,38240
66151,38229
66140,38220
66128,38214
66115,38210
66099,38208
65792,38208
65776,38210
Z" /> 
<path style="fill:#000000; fill-opacity:1.0; 
stroke:#000000; stroke-width:0; stroke-opacity:1; 
stroke-linecap:round; stroke-linejoin:round;fill-rule:evenodd;"
d="M 66583,38210
66570,38214
66557,38220
66547,38229
66538,38240
66532,38252
66528,38265
66526,38281
66526,38687
66528,38703
66532,38716
66538,38728
66547,38739
66557,38747
66570,38754
66583,38758
66599,38759
66906,38759
66922,38758
66935,38754
66947,38747
66958,38739
66967,38728
66973,38716
66977,38703
66979,38687
66979,38281
66977,38265
66973,38252
66967,38240
66958,38229
66947,38220
66935,38214
66922,38210
66906,38208
66599,38208
66583,38210
Z" /> 
<path style="fill:#000000; fill-opacity:1.0; 
stroke:#000000; stroke-width:0; stroke-opacity:1; 
stroke-linecap:round; stroke-linejoin:round;fill-rule:evenodd;"
d="M 73728,37914
73715,37918
73703,37925
73692,37934
73684,37944
73677,37956
73673,37970
73672,37986
73672,38391
73673,38407
73677,38421
73684,38433
73692,38443
73703,38452
73715,38458
73728,38462
73744,38464
74052,38464
74068,38462
74081,38458
74093,38452
74104,38443
74112,38433
74119,38421
74123,38407
74124,38391
74124,37986
74123,37970
74119,37956
74112,37944
74104,37934
74093,37925
74081,37918
74068,37914
74052,37913
73744,37913
73728,37914
Z" /> 
<path style="fill:#000000; fill-opacity:1.0; 
stroke:#000000; stroke-width:0; stroke-opacity:1; 
stroke-linecap:round; stroke-linejoin:round;fill-rule:evenodd;"
d="M 74536,37914
74522,37918
74510,37925
74500,37934
74491,37944
74484,37957
74480,37970
74479,37986
74479,38391
74480,38407
74484,38420
74491,38433
74500,38443
74510,38452
74522,38458
74536,38462
74552,38464
74858,38464
74875,38462
74888,38458
74900,38452
74911,38443
74919,38433
74926,38420
74930,38407
74931,38391
74931,37986
74930,37970
74926,37957
74919,37944
74911,37934
74900,37925
74888,37918
74875,37914
74858,37913
74552,37913
74536,37914
Z" /> 
<path style="fill:#000000; fill-opacity:1.0; 
stroke:#000000; stroke-width:0; stroke-opacity:1; 
stroke-linecap:round; stroke-linejoin:round;fill-rule:evenodd;"
d="M 67990,37019
67977,37023
67965,37029
67954,37038
67946,37049
67939,37061
67935,37074
67933,37090
67933,37397
67935,37413
67939,37426
67946,37438
67954,37449
67965,37458
67977,37464
67990,37468
68006,37470
68412,37470
68428,37468
68441,37464
68453,37458
68464,37449
68473,37438
68479,37426
68483,37413
68485,37397
68485,37090
68483,37074
68479,37061
68473,37049
68464,37038
68453,37029
68441,37023
68428,37019
68412,37017
68006,37017
67990,37019
Z" /> 
<path style="fill:#000000; fill-opacity:1.0; 
stroke:#000000; stroke-width:0; stroke-opacity:1; 
stroke-linecap:round; stroke-linejoin:round;fill-rule:evenodd;"
d="M 68778,37019
68765,37023
68752,37029
68742,37038
68733,37049
68726,37061
68722,37074
68721,37090
68721,37397
68722,37413
68726,37426
68733,37438
68742,37449
68752,37458
68765,37464
68778,37468
68794,37470
69199,37470
69215,37468
69228,37464
69241,37458
69251,37449
69260,37438
69266,37426
69270,37413
69272,37397
69272,37090
69270,37074
69266,37061
69260,37049
69251,37038
69241,37029
69228,37023
69215,37019
69199,37017
68794,37017
68778,37019
Z" /> 
<path style="fill:#000000; fill-opacity:1.0; 
stroke:#000000; stroke-width:0; stroke-opacity:1; 
stroke-linecap:round; stroke-linejoin:round;fill-rule:evenodd;"
d="M 69565,36999
69552,37003
69540,37010
69529,37018
69520,37029
69514,37041
69510,37054
69508,37071
69508,37377
69510,37393
69514,37407
69520,37419
69529,37429
69540,37438
69552,37445
69565,37449
69581,37450
69986,37450
70003,37449
70016,37445
70028,37438
70039,37429
70047,37419
70054,37407
70058,37393
70059,37377
70059,37071
70058,37054
70054,37041
70047,37029
70039,37018
70028,37010
70016,37003
70003,36999
69986,36998
69581,36998
69565,36999
Z" /> 
<path style="fill:#000000; fill-opacity:1.0; 
stroke:#000000; stroke-width:0; stroke-opacity:1; 
stroke-linecap:round; stroke-linejoin:round;fill-rule:evenodd;"
d="M 67203,36999
67190,37003
67178,37010
67167,37018
67158,37029
67152,37041
67148,37054
67146,37071
67146,37377
67148,37393
67152,37407
67158,37419
67167,37429
67178,37438
67190,37445
67203,37449
67219,37450
67624,37450
67640,37449
67654,37445
67666,37438
67676,37429
67685,37419
67692,37407
67696,37393
67697,37377
67697,37071
67696,37054
67692,37041
67685,37029
67676,37018
67666,37010
67654,37003
67640,36999
67624,36998
67219,36998
67203,36999
Z" /> 
<path style="fill:#000000; fill-opacity:1.0; 
stroke:#000000; stroke-width:0; stroke-opacity:1; 
stroke-linecap:round; stroke-linejoin:round;fill-rule:evenodd;"
d="M 73010,36989
72997,36993
72985,37000
72974,37009
72965,37019
72959,37031
72955,37045
72953,37061
72953,37367
72955,37384
72959,37397
72965,37409
72974,37420
72985,37428
72997,37435
73010,37439
73026,37440
73431,37440
73447,37439
73461,37435
73473,37428
73483,37420
73492,37409
73499,37397
73503,37384
73504,37367
73504,37061
73503,37045
73499,37031
73492,37019
73483,37009
73473,37000
73461,36993
73447,36989
73431,36988
73026,36988
73010,36989
Z" /> 
<path style="fill:#000000; fill-opacity:1.0; 
stroke:#000000; stroke-width:0; stroke-opacity:1; 
stroke-linecap:round; stroke-linejoin:round;fill-rule:evenodd;"
d="M 65628,36989
65615,36993
65603,37000
65592,37009
65583,37019
65577,37031
65573,37045
65571,37061
65571,37367
65573,37384
65577,37397
65583,37409
65592,37420
65603,37428
65615,37435
65628,37439
65644,37440
66049,37440
66066,37439
66079,37435
66091,37428
66102,37420
66110,37409
66117,37397
66121,37384
66122,37367
66122,37061
66121,37045
66117,37031
66110,37019
66102,37009
66091,37000
66079,36993
66066,36989
66049,36988
65644,36988
65628,36989
Z" /> 
<path style="fill:#000000; fill-opacity:1.0; 
stroke:#000000; stroke-width:0; stroke-opacity:1; 
stroke-linecap:round; stroke-linejoin:round;fill-rule:evenodd;"
d="M 72223,36989
72209,36993
72197,37000
72187,37009
72178,37019
72171,37031
72167,37045
72166,37061
72166,37367
72167,37384
72171,37397
72178,37409
72187,37420
72197,37428
72209,37435
72223,37439
72239,37440
72644,37440
72660,37439
72673,37435
72685,37428
72696,37420
72705,37409
72711,37397
72715,37384
72717,37367
72717,37061
72715,37045
72711,37031
72705,37019
72696,37009
72685,37000
72673,36993
72660,36989
72644,36988
72239,36988
72223,36989
Z" /> 
<path style="fill:#000000; fill-opacity:1.0; 
stroke:#000000; stroke-width:0; stroke-opacity:1; 
stroke-linecap:round; stroke-linejoin:round;fill-rule:evenodd;"
d="M 66416,36989
66402,36993
66390,37000
66379,37009
66371,37019
66364,37031
66360,37045
66359,37061
66359,37367
66360,37384
66364,37397
66371,37409
66379,37420
66390,37428
66402,37435
66416,37439
66432,37440
66837,37440
66853,37439
66866,37435
66878,37428
66889,37420
66898,37409
66904,37397
66908,37384
66910,37367
66910,37061
66908,37045
66904,37031
66898,37019
66889,37009
66878,37000
66866,36993
66853,36989
66837,36988
66432,36988
66416,36989
Z" /> 
<path style="fill:#000000; fill-opacity:1.0; 
stroke:#000000; stroke-width:0; stroke-opacity:1; 
stroke-linecap:round; stroke-linejoin:round;fill-rule:evenodd;"
d="M 73778,36985
73765,36989
73753,36995
73742,37004
73734,37015
73727,37027
73723,37040
73721,37056
73721,37363
73723,37379
73727,37392
73734,37404
73742,37415
73753,37424
73765,37430
73778,37434
73794,37436
74200,37436
74216,37434
74229,37430
74241,37424
74252,37415
74261,37404
74267,37392
74271,37379
74273,37363
74273,37056
74271,37040
74267,37027
74261,37015
74252,37004
74241,36995
74229,36989
74216,36985
74200,36983
73794,36983
73778,36985
Z" /> 
<path style="fill:#000000; fill-opacity:1.0; 
stroke:#000000; stroke-width:0; stroke-opacity:1; 
stroke-linecap:round; stroke-linejoin:round;fill-rule:evenodd;"
d="M 68778,36212
68765,36216
68752,36222
68742,36231
68733,36242
68726,36254
68722,36267
68721,36283
68721,36590
68722,36606
68726,36619
68733,36631
68742,36642
68752,36651
68765,36657
68778,36661
68794,36663
69199,36663
69215,36661
69228,36657
69241,36651
69251,36642
69260,36631
69266,36619
69270,36606
69272,36590
69272,36283
69270,36267
69266,36254
69260,36242
69251,36231
69241,36222
69228,36216
69215,36212
69199,36210
68794,36210
68778,36212
Z" /> 
<path style="fill:#000000; fill-opacity:1.0; 
stroke:#000000; stroke-width:0; stroke-opacity:1; 
stroke-linecap:round; stroke-linejoin:round;fill-rule:evenodd;"
d="M 67990,36212
67977,36216
67965,36222
67954,36231
67946,36242
67939,36254
67935,36267
67933,36283
67933,36590
67935,36606
67939,36619
67946,36631
67954,36642
67965,36651
67977,36657
67990,36661
68006,36663
68412,36663
68428,36661
68441,36657
68453,36651
68464,36642
68473,36631
68479,36619
68483,36606
68485,36590
68485,36283
68483,36267
68479,36254
68473,36242
68464,36231
68453,36222
68441,36216
68428,36212
68412,36210
68006,36210
67990,36212
Z" /> 
<path style="fill:#000000; fill-opacity:1.0; 
stroke:#000000; stroke-width:0; stroke-opacity:1; 
stroke-linecap:round; stroke-linejoin:round;fill-rule:evenodd;"
d="M 69565,36192
69552,36196
69540,36203
69529,36211
69520,36222
69514,36234
69510,36247
69508,36263
69508,36570
69510,36586
69514,36600
69520,36612
69529,36622
69540,36631
69552,36638
69565,36642
69581,36643
69986,36643
70003,36642
70016,36638
70028,36631
70039,36622
70047,36612
70054,36600
70058,36586
70059,36570
70059,36263
70058,36247
70054,36234
70047,36222
70039,36211
70028,36203
70016,36196
70003,36192
69986,36190
69581,36190
69565,36192
Z" /> 
<path style="fill:#000000; fill-opacity:1.0; 
stroke:#000000; stroke-width:0; stroke-opacity:1; 
stroke-linecap:round; stroke-linejoin:round;fill-rule:evenodd;"
d="M 67203,36192
67190,36196
67178,36203
67167,36211
67158,36222
67152,36234
67148,36247
67146,36263
67146,36570
67148,36586
67152,36600
67158,36612
67167,36622
67178,36631
67190,36638
67203,36642
67219,36643
67624,36643
67640,36642
67654,36638
67666,36631
67676,36622
67685,36612
67692,36600
67696,36586
67697,36570
67697,36263
67696,36247
67692,36234
67685,36222
67676,36211
67666,36203
67654,36196
67640,36192
67624,36190
67219,36190
67203,36192
Z" /> 
<path style="fill:#000000; fill-opacity:1.0; 
stroke:#000000; stroke-width:0; stroke-opacity:1; 
stroke-linecap:round; stroke-linejoin:round;fill-rule:evenodd;"
d="M 72223,36182
72209,36186
72197,36193
72187,36201
72178,36212
72171,36224
72167,36237
72166,36254
72166,36560
72167,36576
72171,36590
72178,36602
72187,36613
72197,36621
72209,36628
72223,36632
72239,36633
72644,36633
72660,36632
72673,36628
72685,36621
72696,36613
72705,36602
72711,36590
72715,36576
72717,36560
72717,36254
72715,36237
72711,36224
72705,36212
72696,36201
72685,36193
72673,36186
72660,36182
72644,36181
72239,36181
72223,36182
Z" /> 
<path style="fill:#000000; fill-opacity:1.0; 
stroke:#000000; stroke-width:0; stroke-opacity:1; 
stroke-linecap:round; stroke-linejoin:round;fill-rule:evenodd;"
d="M 73010,36182
72997,36186
72985,36193
72974,36201
72965,36212
72959,36224
72955,36237
72953,36254
72953,36560
72955,36576
72959,36590
72965,36602
72974,36613
72985,36621
72997,36628
73010,36632
73026,36633
73431,36633
73447,36632
73461,36628
73473,36621
73483,36613
73492,36602
73499,36590
73503,36576
73504,36560
73504,36254
73503,36237
73499,36224
73492,36212
73483,36201
73473,36193
73461,36186
73447,36182
73431,36181
73026,36181
73010,36182
Z" /> 
<path style="fill:#000000; fill-opacity:1.0; 
stroke:#000000; stroke-width:0; stroke-opacity:1; 
stroke-linecap:round; stroke-linejoin:round;fill-rule:evenodd;"
d="M 66416,36182
66402,36186
66390,36193
66379,36201
66371,36212
66364,36224
66360,36237
66359,36254
66359,36560
66360,36576
66364,36590
66371,36602
66379,36613
66390,36621
66402,36628
66416,36632
66432,36633
66837,36633
66853,36632
66866,36628
66878,36621
66889,36613
66898,36602
66904,36590
66908,36576
66910,36560
66910,36254
66908,36237
66904,36224
66898,36212
66889,36201
66878,36193
66866,36186
66853,36182
66837,36181
66432,36181
66416,36182
Z" /> 
<path style="fill:#000000; fill-opacity:1.0; 
stroke:#000000; stroke-width:0; stroke-opacity:1; 
stroke-linecap:round; stroke-linejoin:round;fill-rule:evenodd;"
d="M 65628,36182
65615,36186
65603,36193
65592,36201
65583,36212
65577,36224
65573,36237
65571,36254
65571,36560
65573,36576
65577,36590
65583,36602
65592,36613
65603,36621
65615,36628
65628,36632
65644,36633
66049,36633
66066,36632
66079,36628
66091,36621
66102,36613
66110,36602
66117,36590
66121,36576
66122,36560
66122,36254
66121,36237
66117,36224
66110,36212
66102,36201
66091,36193
66079,36186
66066,36182
66049,36181
65644,36181
65628,36182
Z" /> 
<path style="fill:#000000; fill-opacity:1.0; 
stroke:#000000; stroke-width:0; stroke-opacity:1; 
stroke-linecap:round; stroke-linejoin:round;fill-rule:evenodd;"
d="M 73778,36178
73765,36182
73753,36188
73742,36197
73734,36208
73727,36220
73723,36233
73721,36249
73721,36556
73723,36572
73727,36585
73734,36597
73742,36608
73753,36617
73765,36623
73778,36627
73794,36629
74200,36629
74216,36627
74229,36623
74241,36617
74252,36608
74261,36597
74267,36585
74271,36572
74273,36556
74273,36249
74271,36233
74267,36220
74261,36208
74252,36197
74241,36188
74229,36182
74216,36178
74200,36176
73794,36176
73778,36178
Z" /> 
<path style="fill:#000000; fill-opacity:1.0; 
stroke:#000000; stroke-width:0; stroke-opacity:1; 
stroke-linecap:round; stroke-linejoin:round;fill-rule:evenodd;"
d="M 69680,34304
69616,34331
69558,34370
69509,34419
69470,34477
69443,34542
69436,34575
69434,34586
69432,34595
69427,34604
69421,34611
69413,34617
69405,34622
69396,34625
69386,34626
69376,34625
69367,34622
69359,34617
69351,34611
69345,34604
69341,34595
69336,34584
69332,34575
69296,34520
69249,34474
69194,34437
69184,34433
69133,34412
69073,34400
69070,34399
69003,34399
68938,34412
68888,34433
68877,34437
68822,34474
68776,34520
68739,34575
68739,34575
68714,34636
68701,34701
68701,34767
68714,34831
68739,34891
68739,34892
68776,34947
68822,34994
68877,35030
68877,35030
68877,35030
68938,35056
69003,35068
69069,35068
69133,35056
69194,35030
69194,35030
69194,35030
69249,34994
69296,34947
69332,34892
69333,34891
69358,34831
69365,34795
69368,34786
69372,34777
69378,34770
69386,34764
69394,34759
69403,34756
69413,34755
69423,34756
69432,34759
69440,34764
69448,34770
69454,34777
69459,34786
69470,34813
69470,34813
69509,34871
69558,34920
69616,34959
69616,34959
69616,34959
69680,34986
69749,35000
69819,35000
69864,34990
69887,34986
69931,34968
69940,34965
69950,34964
69959,34965
69969,34968
69977,34972
69985,34978
69991,34986
69995,34994
69998,35004
69999,35013
69998,35023
69995,35032
69991,35041
69979,35058
69954,35118
69941,35183
69941,35249
69954,35314
69979,35375
69979,35375
70016,35429
70063,35476
70117,35513
70117,35513
70117,35513
70178,35538
70243,35551
70309,35551
70374,35538
70434,35513
70434,35513
70434,35513
70489,35476
70536,35429
70573,35375
70573,35375
70598,35314
70611,35249
70611,35183
70598,35118
70573,35058
70573,35058
70536,35003
70489,34956
70434,34919
70434,34919
70374,34894
70309,34881
70243,34881
70178,34894
70142,34909
70133,34912
70123,34913
70113,34912
70104,34909
70096,34905
70088,34899
70082,34891
70078,34883
70075,34874
70074,34864
70075,34854
70078,34845
70082,34837
70098,34813
70109,34786
70125,34749
70129,34724
70138,34680
70138,34610
70125,34542
70098,34477
70098,34477
70059,34419
70010,34370
69952,34331
69887,34304
69819,34291
69749,34291
69680,34304
Z" /> 
<path style="fill:#000000; fill-opacity:1.0; 
stroke:#000000; stroke-width:0; stroke-opacity:1; 
stroke-linecap:round; stroke-linejoin:round;fill-rule:evenodd;"
d="M 73851,34834
73798,34856
73749,34888
73708,34929
73676,34978
73653,35031
73642,35089
73642,35147
73653,35204
73676,35257
73708,35306
73749,35347
73798,35379
73851,35402
73908,35413
73966,35413
74024,35402
74077,35379
74126,35347
74167,35306
74199,35257
74221,35204
74233,35147
74233,35089
74221,35031
74199,34978
74167,34929
74126,34888
74077,34856
74024,34834
73966,34822
73908,34822
73851,34834
Z" /> 
<path style="fill:#000000; fill-opacity:1.0; 
stroke:#000000; stroke-width:0; stroke-opacity:1; 
stroke-linecap:round; stroke-linejoin:round;fill-rule:evenodd;"
d="M 71765,35319
72237,35319
72237,34965
71765,34965
71765,35319
Z" /> 
<path style="fill:#000000; fill-opacity:1.0; 
stroke:#000000; stroke-width:0; stroke-opacity:1; 
stroke-linecap:round; stroke-linejoin:round;fill-rule:evenodd;"
d="M 72552,35319
73025,35319
73025,34965
72552,34965
72552,35319
Z" /> 
<path style="fill:#000000; fill-opacity:1.0; 
stroke:#000000; stroke-width:0; stroke-opacity:1; 
stroke-linecap:round; stroke-linejoin:round;fill-rule:evenodd;"
d="M 66662,34391
66648,34395
66636,34401
66626,34410
66617,34421
66610,34433
66606,34446
66605,34462
66605,34867
66606,34884
66610,34897
66617,34909
66626,34920
66636,34928
66648,34935
66662,34939
66678,34940
66984,34940
67001,34939
67014,34935
67026,34928
67037,34920
67045,34909
67052,34897
67056,34884
67057,34867
67057,34462
67056,34446
67052,34433
67045,34421
67037,34410
67026,34401
67014,34395
67001,34391
66984,34389
66678,34389
66662,34391
Z" /> 
<path style="fill:#000000; fill-opacity:1.0; 
stroke:#000000; stroke-width:0; stroke-opacity:1; 
stroke-linecap:round; stroke-linejoin:round;fill-rule:evenodd;"
d="M 67469,34391
67455,34395
67443,34401
67433,34410
67424,34421
67417,34433
67413,34446
67412,34462
67412,34867
67413,34884
67417,34897
67424,34909
67433,34920
67443,34928
67455,34935
67469,34939
67485,34940
67792,34940
67808,34939
67821,34935
67833,34928
67844,34920
67852,34909
67859,34897
67863,34884
67865,34867
67865,34462
67863,34446
67859,34433
67852,34421
67844,34410
67833,34401
67821,34395
67808,34391
67792,34389
67485,34389
67469,34391
Z" /> 
<path style="fill:#000000; fill-opacity:1.0; 
stroke:#000000; stroke-width:0; stroke-opacity:1; 
stroke-linecap:round; stroke-linejoin:round;fill-rule:evenodd;"
d="M 74528,34724
74843,34724
74843,34370
74528,34370
74528,34724
Z" /> 
<path style="fill:#000000; fill-opacity:1.0; 
stroke:#000000; stroke-width:0; stroke-opacity:1; 
stroke-linecap:round; stroke-linejoin:round;fill-rule:evenodd;"
d="M 73780,34724
74095,34724
74095,34370
73780,34370
73780,34724
Z" /> 
<path style="fill:#000000; fill-opacity:1.0; 
stroke:#000000; stroke-width:0; stroke-opacity:1; 
stroke-linecap:round; stroke-linejoin:round;fill-rule:evenodd;"
d="M 69732,33841
70178,34286
70331,34133
69885,33688
69732,33841
Z" /> 
<path style="fill:#000000; fill-opacity:1.0; 
stroke:#000000; stroke-width:0; stroke-opacity:1; 
stroke-linecap:round; stroke-linejoin:round;fill-rule:evenodd;"
d="M 68925,34133
69078,34286
69523,33841
69370,33688
68925,34133
Z" /> 
<path style="fill:#000000; fill-opacity:1.0; 
stroke:#000000; stroke-width:0; stroke-opacity:1; 
stroke-linecap:round; stroke-linejoin:round;fill-rule:evenodd;"
d="M 68702,33911
68855,34064
69301,33618
69148,33465
68702,33911
Z" /> 
<path style="fill:#000000; fill-opacity:1.0; 
stroke:#000000; stroke-width:0; stroke-opacity:1; 
stroke-linecap:round; stroke-linejoin:round;fill-rule:evenodd;"
d="M 69955,33618
70400,34064
70553,33911
70108,33465
69955,33618
Z" /> 
<path style="fill:#000000; fill-opacity:1.0; 
stroke:#000000; stroke-width:0; stroke-opacity:1; 
stroke-linecap:round; stroke-linejoin:round;fill-rule:evenodd;"
d="M 72552,34020
73025,34020
73025,33666
72552,33666
72552,34020
Z" /> 
<path style="fill:#000000; fill-opacity:1.0; 
stroke:#000000; stroke-width:0; stroke-opacity:1; 
stroke-linecap:round; stroke-linejoin:round;fill-rule:evenodd;"
d="M 71765,34020
72237,34020
72237,33666
71765,33666
71765,34020
Z" /> 
<path style="fill:#000000; fill-opacity:1.0; 
stroke:#000000; stroke-width:0; stroke-opacity:1; 
stroke-linecap:round; stroke-linejoin:round;fill-rule:evenodd;"
d="M 73339,33377
73286,33399
73237,33432
73196,33473
73164,33521
73142,33575
73130,33632
73130,33690
73142,33747
73164,33801
73196,33849
73237,33890
73286,33923
73339,33945
73396,33956
73455,33956
73512,33945
73565,33923
73614,33890
73655,33849
73687,33801
73709,33747
73721,33690
73721,33632
73709,33575
73687,33521
73655,33473
73614,33432
73565,33399
73512,33377
73455,33366
73396,33366
73339,33377
Z" /> 
<path style="fill:#000000; fill-opacity:1.0; 
stroke:#000000; stroke-width:0; stroke-opacity:1; 
stroke-linecap:round; stroke-linejoin:round;fill-rule:evenodd;"
d="M 74154,33937
74469,33937
74469,33582
74154,33582
74154,33937
Z" /> 
<path style="fill:#000000; fill-opacity:1.0; 
stroke:#000000; stroke-width:0; stroke-opacity:1; 
stroke-linecap:round; stroke-linejoin:round;fill-rule:evenodd;"
d="M 68479,33688
68633,33841
69078,33395
68925,33242
68479,33688
Z" /> 
<path style="fill:#000000; fill-opacity:1.0; 
stroke:#000000; stroke-width:0; stroke-opacity:1; 
stroke-linecap:round; stroke-linejoin:round;fill-rule:evenodd;"
d="M 70178,33395
70623,33841
70776,33688
70331,33242
70178,33395
Z" /> 
<path style="fill:#000000; fill-opacity:1.0; 
stroke:#000000; stroke-width:0; stroke-opacity:1; 
stroke-linecap:round; stroke-linejoin:round;fill-rule:evenodd;"
d="M 70400,33173
70846,33618
70999,33465
70553,33020
70400,33173
Z" /> 
<path style="fill:#000000; fill-opacity:1.0; 
stroke:#000000; stroke-width:0; stroke-opacity:1; 
stroke-linecap:round; stroke-linejoin:round;fill-rule:evenodd;"
d="M 68257,33465
68410,33618
68855,33173
68702,33020
68257,33465
Z" /> 
<path style="fill:#000000; fill-opacity:1.0; 
stroke:#000000; stroke-width:0; stroke-opacity:1; 
stroke-linecap:round; stroke-linejoin:round;fill-rule:evenodd;"
d="M 70623,32950
71068,33395
71222,33242
70776,32797
70623,32950
Z" /> 
<path style="fill:#000000; fill-opacity:1.0; 
stroke:#000000; stroke-width:0; stroke-opacity:1; 
stroke-linecap:round; stroke-linejoin:round;fill-rule:evenodd;"
d="M 68034,33242
68187,33395
68633,32950
68479,32797
68034,33242
Z" /> 
<path style="fill:#000000; fill-opacity:1.0; 
stroke:#000000; stroke-width:0; stroke-opacity:1; 
stroke-linecap:round; stroke-linejoin:round;fill-rule:evenodd;"
d="M 66437,33385
66752,33385
66752,33031
66437,33031
66437,33385
Z" /> 
<path style="fill:#000000; fill-opacity:1.0; 
stroke:#000000; stroke-width:0; stroke-opacity:1; 
stroke-linecap:round; stroke-linejoin:round;fill-rule:evenodd;"
d="M 70846,32727
71291,33173
71444,33020
70999,32574
70846,32727
Z" /> 
<path style="fill:#000000; fill-opacity:1.0; 
stroke:#000000; stroke-width:0; stroke-opacity:1; 
stroke-linecap:round; stroke-linejoin:round;fill-rule:evenodd;"
d="M 67811,33020
67964,33173
68410,32727
68257,32574
67811,33020
Z" /> 
<path style="fill:#000000; fill-opacity:1.0; 
stroke:#000000; stroke-width:0; stroke-opacity:1; 
stroke-linecap:round; stroke-linejoin:round;fill-rule:evenodd;"
d="M 73256,32501
73243,32505
73231,32512
73220,32520
73211,32531
73205,32543
73201,32556
73199,32573
73199,32978
73201,32994
73205,33007
73211,33019
73220,33030
73231,33039
73243,33045
73256,33049
73272,33051
73579,33051
73595,33049
73608,33045
73620,33039
73631,33030
73640,33019
73646,33007
73650,32994
73652,32978
73652,32573
73650,32556
73646,32543
73640,32531
73631,32520
73620,32512
73608,32505
73595,32501
73579,32500
73272,32500
73256,32501
Z" /> 
<path style="fill:#000000; fill-opacity:1.0; 
stroke:#000000; stroke-width:0; stroke-opacity:1; 
stroke-linecap:round; stroke-linejoin:round;fill-rule:evenodd;"
d="M 74063,32501
74050,32505
74038,32512
74027,32520
74018,32531
74012,32543
74008,32556
74006,32573
74006,32978
74008,32994
74012,33007
74018,33019
74027,33030
74038,33039
74050,33045
74063,33049
74079,33051
74386,33051
74402,33049
74415,33045
74428,33039
74438,33030
74447,33019
74453,33007
74457,32994
74459,32978
74459,32573
74457,32556
74453,32543
74447,32531
74438,32520
74428,32512
74415,32505
74402,32501
74386,32500
74079,32500
74063,32501
Z" /> 
<path style="fill:#000000; fill-opacity:1.0; 
stroke:#000000; stroke-width:0; stroke-opacity:1; 
stroke-linecap:round; stroke-linejoin:round;fill-rule:evenodd;"
d="M 67589,32797
67742,32950
68187,32505
68034,32352
67589,32797
Z" /> 
<path style="fill:#000000; fill-opacity:1.0; 
stroke:#000000; stroke-width:0; stroke-opacity:1; 
stroke-linecap:round; stroke-linejoin:round;fill-rule:evenodd;"
d="M 71068,32505
71514,32950
71667,32797
71222,32352
71068,32505
Z" /> 
<path style="fill:#000000; fill-opacity:1.0; 
stroke:#000000; stroke-width:0; stroke-opacity:1; 
stroke-linecap:round; stroke-linejoin:round;fill-rule:evenodd;"
d="M 67366,32574
67519,32727
67964,32282
67811,32129
67366,32574
Z" /> 
<path style="fill:#000000; fill-opacity:1.0; 
stroke:#000000; stroke-width:0; stroke-opacity:1; 
stroke-linecap:round; stroke-linejoin:round;fill-rule:evenodd;"
d="M 71291,32282
71737,32727
71890,32574
71444,32129
71291,32282
Z" /> 
<path style="fill:#000000; fill-opacity:1.0; 
stroke:#000000; stroke-width:0; stroke-opacity:1; 
stroke-linecap:round; stroke-linejoin:round;fill-rule:evenodd;"
d="M 74717,32058
74664,32080
74615,32113
74574,32154
74542,32202
74520,32256
74508,32313
74508,32371
74520,32428
74542,32482
74574,32530
74615,32571
74664,32604
74717,32626
74774,32637
74833,32637
74890,32626
74943,32604
74992,32571
75033,32530
75065,32482
75087,32428
75099,32371
75099,32313
75087,32256
75065,32202
75033,32154
74992,32113
74943,32080
74890,32058
74833,32047
74774,32047
74717,32058
Z" /> 
<path style="fill:#000000; fill-opacity:1.0; 
stroke:#000000; stroke-width:0; stroke-opacity:1; 
stroke-linecap:round; stroke-linejoin:round;fill-rule:evenodd;"
d="M 66811,32598
67126,32598
67126,32244
66811,32244
66811,32598
Z" /> 
<path style="fill:#000000; fill-opacity:1.0; 
stroke:#000000; stroke-width:0; stroke-opacity:1; 
stroke-linecap:round; stroke-linejoin:round;fill-rule:evenodd;"
d="M 66063,32598
66378,32598
66378,32244
66063,32244
66063,32598
Z" /> 
<path style="fill:#000000; fill-opacity:1.0; 
stroke:#000000; stroke-width:0; stroke-opacity:1; 
stroke-linecap:round; stroke-linejoin:round;fill-rule:evenodd;"
d="M 72195,32578
72687,32578
72687,31988
72195,31988
72195,32578
Z" /> 
<path style="fill:#000000; fill-opacity:1.0; 
stroke:#000000; stroke-width:0; stroke-opacity:1; 
stroke-linecap:round; stroke-linejoin:round;fill-rule:evenodd;"
d="M 73327,31929
73681,31929
73681,31456
73327,31456
73327,31929
Z" /> 
<path style="fill:#000000; fill-opacity:1.0; 
stroke:#000000; stroke-width:0; stroke-opacity:1; 
stroke-linecap:round; stroke-linejoin:round;fill-rule:evenodd;"
d="M 74626,31929
74981,31929
74981,31456
74626,31456
74626,31929
Z" /> 
<path style="fill:#000000; fill-opacity:1.0; 
stroke:#000000; stroke-width:0; stroke-opacity:1; 
stroke-linecap:round; stroke-linejoin:round;fill-rule:evenodd;"
d="M 67366,31475
67811,31920
67964,31767
67519,31321
67366,31475
Z" /> 
<path style="fill:#000000; fill-opacity:1.0; 
stroke:#000000; stroke-width:0; stroke-opacity:1; 
stroke-linecap:round; stroke-linejoin:round;fill-rule:evenodd;"
d="M 71291,31767
71444,31920
71890,31475
71737,31321
71291,31767
Z" /> 
<path style="fill:#000000; fill-opacity:1.0; 
stroke:#000000; stroke-width:0; stroke-opacity:1; 
stroke-linecap:round; stroke-linejoin:round;fill-rule:evenodd;"
d="M 65904,31409
65890,31413
65878,31419
65868,31428
65859,31438
65852,31451
65848,31464
65847,31480
65847,31787
65848,31803
65852,31816
65859,31828
65868,31839
65878,31848
65890,31854
65904,31858
65920,31860
66325,31860
66341,31858
66354,31854
66367,31848
66377,31839
66386,31828
66392,31816
66396,31803
66398,31787
66398,31480
66396,31464
66392,31451
66386,31438
66377,31428
66367,31419
66354,31413
66341,31409
66325,31407
65920,31407
65904,31409
Z" /> 
<path style="fill:#000000; fill-opacity:1.0; 
stroke:#000000; stroke-width:0; stroke-opacity:1; 
stroke-linecap:round; stroke-linejoin:round;fill-rule:evenodd;"
d="M 65077,31409
65064,31413
65051,31419
65041,31428
65032,31438
65026,31451
65022,31464
65020,31480
65020,31787
65022,31803
65026,31816
65032,31828
65041,31839
65051,31848
65064,31854
65077,31858
65093,31860
65498,31860
65515,31858
65528,31854
65540,31848
65550,31839
65559,31828
65566,31816
65570,31803
65571,31787
65571,31480
65570,31464
65566,31451
65559,31438
65550,31428
65540,31419
65528,31413
65515,31409
65498,31407
65093,31407
65077,31409
Z" /> 
<path style="fill:#000000; fill-opacity:1.0; 
stroke:#000000; stroke-width:0; stroke-opacity:1; 
stroke-linecap:round; stroke-linejoin:round;fill-rule:evenodd;"
d="M 71068,31544
71222,31697
71667,31252
71514,31099
71068,31544
Z" /> 
<path style="fill:#000000; fill-opacity:1.0; 
stroke:#000000; stroke-width:0; stroke-opacity:1; 
stroke-linecap:round; stroke-linejoin:round;fill-rule:evenodd;"
d="M 67589,31252
68034,31697
68187,31544
67742,31099
67589,31252
Z" /> 
<path style="fill:#000000; fill-opacity:1.0; 
stroke:#000000; stroke-width:0; stroke-opacity:1; 
stroke-linecap:round; stroke-linejoin:round;fill-rule:evenodd;"
d="M 72195,31594
72687,31594
72687,31003
72195,31003
72195,31594
Z" /> 
<path style="fill:#000000; fill-opacity:1.0; 
stroke:#000000; stroke-width:0; stroke-opacity:1; 
stroke-linecap:round; stroke-linejoin:round;fill-rule:evenodd;"
d="M 70846,31321
70999,31475
71444,31029
71291,30876
70846,31321
Z" /> 
<path style="fill:#000000; fill-opacity:1.0; 
stroke:#000000; stroke-width:0; stroke-opacity:1; 
stroke-linecap:round; stroke-linejoin:round;fill-rule:evenodd;"
d="M 67811,31029
68257,31475
68410,31321
67964,30876
67811,31029
Z" /> 
<path style="fill:#000000; fill-opacity:1.0; 
stroke:#000000; stroke-width:0; stroke-opacity:1; 
stroke-linecap:round; stroke-linejoin:round;fill-rule:evenodd;"
d="M 68034,30806
68479,31252
68633,31099
68187,30653
68034,30806
Z" /> 
<path style="fill:#000000; fill-opacity:1.0; 
stroke:#000000; stroke-width:0; stroke-opacity:1; 
stroke-linecap:round; stroke-linejoin:round;fill-rule:evenodd;"
d="M 70623,31099
70776,31252
71222,30806
71068,30653
70623,31099
Z" /> 
<path style="fill:#000000; fill-opacity:1.0; 
stroke:#000000; stroke-width:0; stroke-opacity:1; 
stroke-linecap:round; stroke-linejoin:round;fill-rule:evenodd;"
d="M 66821,31141
67313,31141
67313,30551
66821,30551
66821,31141
Z" /> 
<path style="fill:#000000; fill-opacity:1.0; 
stroke:#000000; stroke-width:0; stroke-opacity:1; 
stroke-linecap:round; stroke-linejoin:round;fill-rule:evenodd;"
d="M 65077,30601
65064,30605
65051,30612
65041,30621
65032,30631
65026,30643
65022,30657
65020,30673
65020,30980
65022,30996
65026,31009
65032,31021
65041,31032
65051,31041
65064,31047
65077,31051
65093,31053
65498,31053
65515,31051
65528,31047
65540,31041
65550,31032
65559,31021
65566,31009
65570,30996
65571,30980
65571,30673
65570,30657
65566,30643
65559,30631
65550,30621
65540,30612
65528,30605
65515,30601
65498,30600
65093,30600
65077,30601
Z" /> 
<path style="fill:#000000; fill-opacity:1.0; 
stroke:#000000; stroke-width:0; stroke-opacity:1; 
stroke-linecap:round; stroke-linejoin:round;fill-rule:evenodd;"
d="M 65904,30601
65890,30605
65878,30612
65868,30621
65859,30631
65852,30643
65848,30657
65847,30673
65847,30980
65848,30996
65852,31009
65859,31021
65868,31032
65878,31041
65890,31047
65904,31051
65920,31053
66325,31053
66341,31051
66354,31047
66367,31041
66377,31032
66386,31021
66392,31009
66396,30996
66398,30980
66398,30673
66396,30657
66392,30643
66386,30631
66377,30621
66367,30612
66354,30605
66341,30601
66325,30600
65920,30600
65904,30601
Z" /> 
<path style="fill:#000000; fill-opacity:1.0; 
stroke:#000000; stroke-width:0; stroke-opacity:1; 
stroke-linecap:round; stroke-linejoin:round;fill-rule:evenodd;"
d="M 70400,30876
70553,31029
70999,30584
70846,30431
70400,30876
Z" /> 
<path style="fill:#000000; fill-opacity:1.0; 
stroke:#000000; stroke-width:0; stroke-opacity:1; 
stroke-linecap:round; stroke-linejoin:round;fill-rule:evenodd;"
d="M 68257,30584
68702,31029
68855,30876
68410,30431
68257,30584
Z" /> 
<path style="fill:#000000; fill-opacity:1.0; 
stroke:#000000; stroke-width:0; stroke-opacity:1; 
stroke-linecap:round; stroke-linejoin:round;fill-rule:evenodd;"
d="M 68479,30361
68925,30806
69078,30653
68633,30208
68479,30361
Z" /> 
<path style="fill:#000000; fill-opacity:1.0; 
stroke:#000000; stroke-width:0; stroke-opacity:1; 
stroke-linecap:round; stroke-linejoin:round;fill-rule:evenodd;"
d="M 70178,30653
70331,30806
70776,30361
70623,30208
70178,30653
Z" /> 
<path style="fill:#000000; fill-opacity:1.0; 
stroke:#000000; stroke-width:0; stroke-opacity:1; 
stroke-linecap:round; stroke-linejoin:round;fill-rule:evenodd;"
d="M 72737,30787
74902,30787
74902,29606
72737,29606
72737,30787
Z" /> 
<path style="fill:#000000; fill-opacity:1.0; 
stroke:#000000; stroke-width:0; stroke-opacity:1; 
stroke-linecap:round; stroke-linejoin:round;fill-rule:evenodd;"
d="M 68702,30138
69148,30584
69301,30431
68855,29985
68702,30138
Z" /> 
<path style="fill:#000000; fill-opacity:1.0; 
stroke:#000000; stroke-width:0; stroke-opacity:1; 
stroke-linecap:round; stroke-linejoin:round;fill-rule:evenodd;"
d="M 69955,30431
70108,30584
70553,30138
70400,29985
69955,30431
Z" /> 
<path style="fill:#000000; fill-opacity:1.0; 
stroke:#000000; stroke-width:0; stroke-opacity:1; 
stroke-linecap:round; stroke-linejoin:round;fill-rule:evenodd;"
d="M 69732,30208
69885,30361
70331,29916
70178,29763
69732,30208
Z" /> 
<path style="fill:#000000; fill-opacity:1.0; 
stroke:#000000; stroke-width:0; stroke-opacity:1; 
stroke-linecap:round; stroke-linejoin:round;fill-rule:evenodd;"
d="M 68925,29916
69370,30361
69523,30208
69078,29763
68925,29916
Z" /> 
<path style="fill:#000000; fill-opacity:1.0; 
stroke:#000000; stroke-width:0; stroke-opacity:1; 
stroke-linecap:round; stroke-linejoin:round;fill-rule:evenodd;"
d="M 65054,29545
65002,29566
64990,29571
64932,29610
64883,29659
64844,29717
64817,29782
64804,29850
64804,29920
64817,29989
64844,30053
64883,30111
64932,30161
64990,30199
64990,30199
64990,30199
65054,30226
65123,30240
65193,30240
65261,30226
65326,30199
65326,30199
65326,30199
65384,30161
65433,30111
65472,30053
65499,29989
65512,29920
65512,29850
65499,29782
65472,29717
65433,29659
65384,29610
65326,29571
65314,29566
65261,29545
65193,29531
65123,29531
65054,29545
Z" /> 
<path style="fill:#000000; fill-opacity:1.0; 
stroke:#000000; stroke-width:0; stroke-opacity:1; 
stroke-linecap:round; stroke-linejoin:round;fill-rule:evenodd;"
d="M 66821,30157
67313,30157
67313,29566
66821,29566
66821,30157
Z" /> 
<path style="fill:#000000; fill-opacity:1.0; 
stroke:#000000; stroke-width:0; stroke-opacity:1; 
stroke-linecap:round; stroke-linejoin:round;fill-rule:evenodd;"
d="M 67678,29491
67617,29516
67617,29516
67563,29553
67516,29599
67508,29611
67479,29654
67454,29715
67441,29780
67441,29845
67454,29910
67479,29971
67479,29971
67516,30026
67563,30072
67617,30109
67617,30109
67617,30109
67678,30134
67743,30147
67809,30147
67874,30134
67934,30109
67934,30109
67934,30109
67989,30072
68036,30026
68073,29971
68073,29971
68098,29910
68111,29845
68111,29780
68098,29715
68073,29654
68044,29611
68036,29599
67989,29553
67934,29516
67934,29516
67874,29491
67809,29478
67743,29478
67678,29491
Z" /> 
<path style="fill:#000000; fill-opacity:1.0; 
stroke:#000000; stroke-width:0; stroke-opacity:1; 
stroke-linecap:round; stroke-linejoin:round;fill-rule:evenodd;"
d="M 69484,29167
69419,29193
69361,29232
69312,29282
69273,29340
69273,29340
69246,29404
69233,29472
69233,29542
69238,29571
69246,29611
69273,29675
69312,29733
69361,29783
69419,29821
69419,29821
69419,29821
69484,29848
69552,29862
69622,29862
69690,29848
69755,29821
69755,29821
69755,29821
69813,29783
69862,29733
69901,29675
69928,29611
69936,29571
69941,29542
69941,29472
69928,29404
69901,29340
69901,29340
69862,29282
69813,29232
69755,29193
69690,29167
69622,29153
69552,29153
69484,29167
Z" /> 
<path style="fill:#000000; fill-opacity:1.0; 
stroke:#000000; stroke-width:0; stroke-opacity:1; 
stroke-linecap:round; stroke-linejoin:round;fill-rule:evenodd;"
d="M 65054,28545
64990,28571
64932,28610
64883,28659
64876,28669
64844,28717
64817,28782
64804,28850
64804,28920
64817,28989
64844,29053
64883,29111
64932,29161
64990,29199
64990,29199
64990,29199
65054,29226
65123,29240
65193,29240
65261,29226
65326,29199
65326,29199
65326,29199
65384,29161
65433,29111
65472,29053
65499,28989
65512,28920
65512,28850
65499,28782
65472,28717
65439,28669
65433,28659
65384,28610
65326,28571
65261,28545
65193,28531
65123,28531
65054,28545
Z" /> 
<path style="fill:#000000; fill-opacity:1.0; 
stroke:#000000; stroke-width:0; stroke-opacity:1; 
stroke-linecap:round; stroke-linejoin:round;fill-rule:evenodd;"
d="M 71649,28399
71584,28426
71526,28464
71477,28514
71457,28545
71438,28572
71412,28636
71407,28659
71398,28705
71398,28775
71412,28843
71438,28907
71477,28966
71526,29015
71584,29054
71584,29054
71584,29054
71649,29080
71717,29094
71787,29094
71856,29080
71920,29054
71920,29054
71920,29054
71978,29015
72028,28966
72066,28907
72093,28843
72107,28775
72107,28705
72098,28659
72093,28636
72066,28572
72048,28545
72028,28514
71978,28464
71920,28426
71856,28399
71787,28385
71717,28385
71649,28399
Z" /> 
<path style="fill:#000000; fill-opacity:1.0; 
stroke:#000000; stroke-width:0; stroke-opacity:1; 
stroke-linecap:round; stroke-linejoin:round;fill-rule:evenodd;"
d="M 72737,28937
74902,28937
74902,27755
72737,27755
72737,28937
Z" /> 
<path style="fill:#000000; fill-opacity:1.0; 
stroke:#000000; stroke-width:0; stroke-opacity:1; 
stroke-linecap:round; stroke-linejoin:round;fill-rule:evenodd;"
d="M 70492,28905
71083,28905
71083,28669
70492,28669
70492,28905
Z" /> 
<path style="fill:#000000; fill-opacity:1.0; 
stroke:#000000; stroke-width:0; stroke-opacity:1; 
stroke-linecap:round; stroke-linejoin:round;fill-rule:evenodd;"
d="M 66831,28905
67422,28905
67422,28669
66831,28669
66831,28905
Z" /> 
<path style="fill:#000000; fill-opacity:1.0; 
stroke:#000000; stroke-width:0; stroke-opacity:1; 
stroke-linecap:round; stroke-linejoin:round;fill-rule:evenodd;"
d="M 66831,28405
67422,28405
67422,28169
66831,28169
66831,28405
Z" /> 
<path style="fill:#000000; fill-opacity:1.0; 
stroke:#000000; stroke-width:0; stroke-opacity:1; 
stroke-linecap:round; stroke-linejoin:round;fill-rule:evenodd;"
d="M 70492,28405
71083,28405
71083,28169
70492,28169
70492,28405
Z" /> 
<path style="fill:#000000; fill-opacity:1.0; 
stroke:#000000; stroke-width:0; stroke-opacity:1; 
stroke-linecap:round; stroke-linejoin:round;fill-rule:evenodd;"
d="M 65054,27545
64990,27571
64932,27610
64883,27659
64844,27717
64817,27782
64804,27850
64804,27920
64817,27989
64844,28053
64883,28111
64932,28161
64990,28199
64990,28199
64990,28199
65054,28226
65123,28240
65193,28240
65261,28226
65326,28199
65326,28199
65326,28199
65384,28161
65433,28111
65472,28053
65499,27989
65512,27920
65512,27850
65499,27782
65472,27717
65433,27659
65384,27610
65326,27571
65261,27545
65193,27531
65123,27531
65054,27545
Z" /> 
<path style="fill:#000000; fill-opacity:1.0; 
stroke:#000000; stroke-width:0; stroke-opacity:1; 
stroke-linecap:round; stroke-linejoin:round;fill-rule:evenodd;"
d="M 71703,28051
72195,28051
72195,27460
71703,27460
71703,28051
Z" /> 
<path style="fill:#000000; fill-opacity:1.0; 
stroke:#000000; stroke-width:0; stroke-opacity:1; 
stroke-linecap:round; stroke-linejoin:round;fill-rule:evenodd;"
d="M 70492,27905
71083,27905
71083,27669
70492,27669
70492,27905
Z" /> 
<path style="fill:#000000; fill-opacity:1.0; 
stroke:#000000; stroke-width:0; stroke-opacity:1; 
stroke-linecap:round; stroke-linejoin:round;fill-rule:evenodd;"
d="M 66831,27905
67422,27905
67422,27669
66831,27669
66831,27905
Z" /> 
<path style="fill:#000000; fill-opacity:1.0; 
stroke:#000000; stroke-width:0; stroke-opacity:1; 
stroke-linecap:round; stroke-linejoin:round;fill-rule:evenodd;"
d="M 66831,27405
67422,27405
67422,27169
66831,27169
66831,27405
Z" /> 
<path style="fill:#000000; fill-opacity:1.0; 
stroke:#000000; stroke-width:0; stroke-opacity:1; 
stroke-linecap:round; stroke-linejoin:round;fill-rule:evenodd;"
d="M 70492,27405
71083,27405
71083,27169
70492,27169
70492,27405
Z" /> 
<path style="fill:#000000; fill-opacity:1.0; 
stroke:#000000; stroke-width:0; stroke-opacity:1; 
stroke-linecap:round; stroke-linejoin:round;fill-rule:evenodd;"
d="M 74046,26774
74027,26778
73972,26801
73923,26833
73882,26875
73849,26924
73826,26979
73815,27037
73815,27096
73826,27154
73849,27209
73882,27258
73923,27299
73972,27332
74027,27355
74046,27359
74085,27366
74144,27366
74183,27359
74202,27355
74257,27332
74306,27299
74348,27258
74380,27209
74403,27154
74415,27096
74415,27037
74403,26979
74380,26924
74348,26875
74306,26833
74257,26801
74202,26778
74183,26774
74144,26766
74085,26766
74046,26774
Z" /> 
<path style="fill:#000000; fill-opacity:1.0; 
stroke:#000000; stroke-width:0; stroke-opacity:1; 
stroke-linecap:round; stroke-linejoin:round;fill-rule:evenodd;"
d="M 65054,26545
64990,26571
64932,26610
64883,26659
64876,26669
64844,26717
64817,26782
64804,26850
64804,26920
64804,26924
64817,26989
64844,27053
64883,27111
64932,27161
64990,27199
64990,27199
64990,27199
65054,27226
65123,27240
65193,27240
65261,27226
65326,27199
65326,27199
65326,27199
65384,27161
65433,27111
65472,27053
65499,26989
65511,26924
65512,26920
65512,26850
65499,26782
65472,26717
65439,26669
65433,26659
65384,26610
65326,26571
65261,26545
65193,26531
65123,26531
65054,26545
Z" /> 
<path style="fill:#000000; fill-opacity:1.0; 
stroke:#000000; stroke-width:0; stroke-opacity:1; 
stroke-linecap:round; stroke-linejoin:round;fill-rule:evenodd;"
d="M 71703,27066
72195,27066
72195,26476
71703,26476
71703,27066
Z" /> 
<path style="fill:#000000; fill-opacity:1.0; 
stroke:#000000; stroke-width:0; stroke-opacity:1; 
stroke-linecap:round; stroke-linejoin:round;fill-rule:evenodd;"
d="M 66831,26905
67422,26905
67422,26669
66831,26669
66831,26905
Z" /> 
<path style="fill:#000000; fill-opacity:1.0; 
stroke:#000000; stroke-width:0; stroke-opacity:1; 
stroke-linecap:round; stroke-linejoin:round;fill-rule:evenodd;"
d="M 70492,26905
71083,26905
71083,26669
70492,26669
70492,26905
Z" /> 
<path style="fill:#000000; fill-opacity:1.0; 
stroke:#000000; stroke-width:0; stroke-opacity:1; 
stroke-linecap:round; stroke-linejoin:round;fill-rule:evenodd;"
d="M 70492,26405
71083,26405
71083,26169
70492,26169
70492,26405
Z" /> 
<path style="fill:#000000; fill-opacity:1.0; 
stroke:#000000; stroke-width:0; stroke-opacity:1; 
stroke-linecap:round; stroke-linejoin:round;fill-rule:evenodd;"
d="M 66831,26405
67422,26405
67422,26169
66831,26169
66831,26405
Z" /> 
<path style="fill:#000000; fill-opacity:1.0; 
stroke:#000000; stroke-width:0; stroke-opacity:1; 
stroke-linecap:round; stroke-linejoin:round;fill-rule:evenodd;"
d="M 65054,25545
64990,25571
64932,25610
64883,25659
64844,25717
64817,25782
64804,25850
64804,25920
64817,25989
64844,26053
64883,26111
64932,26161
64990,26199
64990,26199
64990,26199
65054,26226
65123,26240
65193,26240
65261,26226
65326,26199
65326,26199
65326,26199
65384,26161
65433,26111
65472,26053
65499,25989
65512,25920
65512,25850
65499,25782
65472,25717
65433,25659
65384,25610
65326,25571
65261,25545
65193,25531
65123,25531
65054,25545
Z" /> 
<path style="fill:#000000; fill-opacity:1.0; 
stroke:#000000; stroke-width:0; stroke-opacity:1; 
stroke-linecap:round; stroke-linejoin:round;fill-rule:evenodd;"
d="M 70492,25905
71083,25905
71083,25669
70492,25669
70492,25905
Z" /> 
<path style="fill:#000000; fill-opacity:1.0; 
stroke:#000000; stroke-width:0; stroke-opacity:1; 
stroke-linecap:round; stroke-linejoin:round;fill-rule:evenodd;"
d="M 66831,25905
67422,25905
67422,25669
66831,25669
66831,25905
Z" /> 
<path style="fill:#000000; fill-opacity:1.0; 
stroke:#000000; stroke-width:0; stroke-opacity:1; 
stroke-linecap:round; stroke-linejoin:round;fill-rule:evenodd;"
d="M 70492,25405
71083,25405
71083,25169
70492,25169
70492,25405
Z" /> 
<path style="fill:#000000; fill-opacity:1.0; 
stroke:#000000; stroke-width:0; stroke-opacity:1; 
stroke-linecap:round; stroke-linejoin:round;fill-rule:evenodd;"
d="M 66831,25405
67422,25405
67422,25169
66831,25169
66831,25405
Z" /> 
<path style="fill:#000000; fill-opacity:1.0; 
stroke:#000000; stroke-width:0; stroke-opacity:1; 
stroke-linecap:round; stroke-linejoin:round;fill-rule:evenodd;"
d="M 65054,24545
64990,24571
64932,24610
64883,24659
64844,24717
64817,24782
64804,24850
64804,24920
64817,24989
64844,25053
64883,25111
64932,25161
64990,25199
64990,25199
64990,25199
65054,25226
65123,25240
65193,25240
65261,25226
65326,25199
65326,25199
65326,25199
65384,25161
65433,25111
65472,25053
65499,24989
65512,24920
65512,24850
65499,24782
65472,24717
65433,24659
65384,24610
65326,24571
65261,24545
65193,24531
65123,24531
65054,24545
Z" /> 
<path style="fill:#000000; fill-opacity:1.0; 
stroke:#000000; stroke-width:0; stroke-opacity:1; 
stroke-linecap:round; stroke-linejoin:round;fill-rule:evenodd;"
d="M 74046,23625
74027,23628
73972,23651
73923,23684
73882,23726
73849,23775
73826,23829
73826,23829
73817,23873
73815,23887
73815,23946
73826,24004
73849,24059
73882,24108
73923,24150
73972,24183
74027,24205
74046,24209
74085,24217
74144,24217
74183,24209
74202,24205
74257,24183
74306,24150
74348,24108
74380,24059
74403,24004
74415,23946
74415,23887
74412,23873
74403,23829
74403,23829
74380,23775
74348,23726
74306,23684
74257,23651
74202,23628
74183,23625
74144,23617
74085,23617
74046,23625
Z" /> 
<path style="fill:#000000; fill-opacity:1.0; 
stroke:#000000; stroke-width:0; stroke-opacity:1; 
stroke-linecap:round; stroke-linejoin:round;fill-rule:evenodd;"
d="M 70600,23238
70575,23243
70503,23273
70438,23316
70384,23371
70340,23435
70311,23507
70296,23583
70296,23660
70311,23736
70340,23808
70384,23873
70438,23927
70503,23970
70575,24000
70596,24004
70651,24015
70728,24015
70783,24004
70804,24000
70876,23970
70940,23927
70995,23873
71038,23808
71068,23736
71083,23660
71083,23583
71068,23507
71038,23435
70995,23371
70940,23316
70876,23273
70804,23243
70779,23238
70728,23228
70651,23228
70600,23238
Z" /> 
<path style="fill:#000000; fill-opacity:1.0; 
stroke:#000000; stroke-width:0; stroke-opacity:1; 
stroke-linecap:round; stroke-linejoin:round;fill-rule:evenodd;"
d="M 72568,23238
72543,23243
72471,23273
72407,23316
72352,23371
72309,23435
72279,23507
72264,23583
72264,23660
72279,23736
72309,23808
72352,23873
72407,23927
72471,23970
72543,24000
72564,24004
72619,24015
72697,24015
72752,24004
72773,24000
72844,23970
72909,23927
72964,23873
73007,23808
73036,23736
73052,23660
73052,23583
73036,23507
73007,23435
72964,23371
72909,23316
72844,23273
72773,23243
72747,23238
72697,23228
72619,23228
72568,23238
Z" /> 
<path style="fill:#000000; fill-opacity:1.0; 
stroke:#000000; stroke-width:0; stroke-opacity:1; 
stroke-linecap:round; stroke-linejoin:round;fill-rule:evenodd;"
d="M 64764,23917
65552,23917
65552,23129
64764,23129
64764,23917
Z" /> 
<path style="fill:#000000; fill-opacity:1.0; 
stroke:#000000; stroke-width:0; stroke-opacity:1; 
stroke-linecap:round; stroke-linejoin:round;fill-rule:evenodd;"
d="M 67126,23917
67914,23917
67914,23129
67126,23129
67126,23917
Z" /> 
<path style="fill:#000000; fill-opacity:1.0; 
stroke:#000000; stroke-width:0; stroke-opacity:1; 
stroke-linecap:round; stroke-linejoin:round;fill-rule:evenodd;"
d="M 69390,23868
69981,23868
69981,23375
69390,23375
69390,23868
Z" /> 
<path style="fill:#000000; fill-opacity:1.0; 
stroke:#000000; stroke-width:0; stroke-opacity:1; 
stroke-linecap:round; stroke-linejoin:round;fill-rule:evenodd;"
d="M 68406,23868
68996,23868
68996,23375
68406,23375
68406,23868
Z" /> 
<path style="fill:#000000; fill-opacity:1.0; 
stroke:#000000; stroke-width:0; stroke-opacity:1; 
stroke-linecap:round; stroke-linejoin:round;fill-rule:evenodd;"
d="M 75632,22251
75632,22251
75632,22251
75596,22266
75580,22277
75564,22288
75536,22315
75515,22347
75500,22383
75492,22421
75492,22460
75500,22498
75500,22498
75515,22534
75536,22566
75564,22593
75596,22615
75596,22615
75596,22615
75632,22630
75670,22637
75709,22637
75747,22630
75783,22615
75783,22615
75783,22615
75815,22593
75842,22566
75864,22534
75879,22498
75879,22498
75886,22460
75886,22421
75879,22383
75864,22347
75842,22315
75815,22288
75799,22277
75783,22266
75747,22251
75747,22251
75747,22251
75709,22244
75670,22244
75632,22251
Z" /> 
</g> 
</svg>
