<?xml version="1.0" standalone="no"?>
 <!DOCTYPE svg PUBLIC "-//W3C//DTD SVG 1.1//EN" 
 "http://www.w3.org/Graphics/SVG/1.1/DTD/svg11.dtd"> 
<svg xmlns="http://www.w3.org/2000/svg" version="1.1" 
    width="29.7002cm" height="21.0007cm" viewBox="0 0 116930 82680 ">
<title>SVG Picture created as OTP-F.SilkS.svg date 2019/02/27 17:44:32 </title>
  <desc>Picture generated by PCBNEW </desc>
<g style="fill:#000000; fill-opacity:1;stroke:#000000; stroke-opacity:1;
stroke-linecap:round; stroke-linejoin:round; "
 transform="translate(0 0) scale(1 1)">
</g>
<g style="fill:#000000; fill-opacity:0.0; 
stroke:#000000; stroke-width:-0.000393701; stroke-opacity:1; 
stroke-linecap:round; stroke-linejoin:round;">
</g>
<g style="fill:#000000; fill-opacity:1.0; 
stroke:#000000; stroke-width:39.3701; stroke-opacity:1; 
stroke-linecap:round; stroke-linejoin:round;">
<rect x="53149.6" y="16535.4" width="35039.4" height="20078.7" rx="0" />
</g>
<g style="fill:#FFFFFF; fill-opacity:1.0; 
stroke:#FFFFFF; stroke-width:39.3701; stroke-opacity:1; 
stroke-linecap:round; stroke-linejoin:round;">
</g>
<g style="fill:#FFFFFF; fill-opacity:1.0; 
stroke:#FFFFFF; stroke-width:47.2441; stroke-opacity:1; 
stroke-linecap:round; stroke-linejoin:round;">
</g>
<g style="fill:#FFFFFF; fill-opacity:0.0; 
stroke:#FFFFFF; stroke-width:47.2441; stroke-opacity:1; 
stroke-linecap:round; stroke-linejoin:round;">
<path d="M72422 33300
L72422 33875
" />
<path d="M71177 33300
L71177 34151
" />
<path d="M71177 33300
L71544 33300
" />
<path d="M72422 33300
L72055 33300
" />
<path d="M66799 33622
L66224 33622
" />
<path d="M66799 32377
L65948 32377
" />
<path d="M66799 32377
L66799 32744
" />
<path d="M66799 33622
L66799 33255
" />
</g>
<g style="fill:#FFFFFF; fill-opacity:0.0; 
stroke:#FFFFFF; stroke-width:59.0551; stroke-opacity:1; 
stroke-linecap:round; stroke-linejoin:round;">
<path d="M70078 30314
L70866 30314
" />
<path d="M70078 27952
L70078 30314
" />
<path d="M70866 27952
L70078 27952
" />
<path d="M70866 30314
L71653 30314
" />
<path d="M71653 27952
L70866 27952
" />
<circle cx="75590.6" cy="29133.9" r="3937.01" /> 
</g>
<g style="fill:#FFFFFF; fill-opacity:0.0; 
stroke:#FFFFFF; stroke-width:47.2441; stroke-opacity:1; 
stroke-linecap:round; stroke-linejoin:round;">
<path d="M62122 25891
L62122 26096
" />
<path d="M62681 25891
L62681 26096
" />
<path d="M61698 32366
L61904 32366
" />
<path d="M61698 31807
L61904 31807
" />
<path d="M61303 29246
L61303 29040
" />
<path d="M60744 29246
L60744 29040
" />
<path d="M64582 32977
L64582 33183
" />
<path d="M65141 32977
L65141 33183
" />
<path d="M59169 25891
L59169 26096
" />
<path d="M59728 25891
L59728 26096
" />
<path d="M55429 25897
L55429 26102
" />
<path d="M55988 25897
L55988 26102
" />
<path d="M64385 25897
L64385 26102
" />
<path d="M64944 25897
L64944 26102
" />
<path d="M61137 25871
L61137 26077
" />
<path d="M61696 25871
L61696 26077
" />
<path d="M57692 25891
L57692 26096
" />
<path d="M58251 25891
L58251 26096
" />
<path d="M63500 25900
L63500 26106
" />
<path d="M64059 25900
L64059 26106
" />
<path d="M60153 25891
L60153 26096
" />
<path d="M60712 25891
L60712 26096
" />
<path d="M56413 25891
L56413 26096
" />
<path d="M56972 25891
L56972 26096
" />
<path d="M58070 31850
L58070 30314
" />
<path d="M58858 31850
L58858 30314
" />
<path d="M58070 31850
L58858 31850
" />
<path d="M57106 31885
L57106 30350
" />
<path d="M57893 31885
L57893 30350
" />
<path d="M57106 31885
L57893 31885
" />
<path d="M59842 30078
L59842 31614
" />
<path d="M59055 30078
L59055 31614
" />
<path d="M59842 30078
L59055 30078
" />
<path d="M69220 30900
L69220 31106
" />
<path d="M69779 30900
L69779 31106
" />
<path d="M67720 30900
L67720 31106
" />
<path d="M68279 30900
L68279 31106
" />
<path d="M71976 21456
L71976 22106
" />
<path d="M86023 21456
L71976 21456
" />
<path d="M86023 23543
L86023 21456
" />
<path d="M71976 23543
L86023 23543
" />
<path d="M71976 22893
L71976 23543
" />
<path d="M71976.4 22893.7 A393.701 393.701 0.0 0 0 71976.4 22106.3 " />
</g>
<g style="fill:#FFFFFF; fill-opacity:0.0; 
stroke:#FFFFFF; stroke-width:59.0551; stroke-opacity:1; 
stroke-linecap:round; stroke-linejoin:round;">
<path d="M70538 20974
L70538 20374
" />
<path d="M66453 20974
L66453 24025
" />
<path d="M70646 20974
L70646 24025
" />
<path d="M66453 20974
L66593 20974
" />
<path d="M66453 24025
L66593 24025
" />
<path d="M70646 24025
L70506 24025
" />
<path d="M70646 20974
L70538 20974
" />
<path d="M55886 21131
L56167 21131
L56224 21149
L56261 21187
L56280 21243
L56280 21281
" />
<path d="M56280 20737
L56280 20962
" />
<path d="M56280 20850
L55886 20850
L55943 20887
L55980 20925
L55999 20962
" />
<path d="M71031 33637
L71012 33674
L70975 33712
L70918 33768
L70900 33806
L70900 33843
" />
<path d="M70993 33824
L70975 33862
L70937 33899
L70862 33918
L70731 33918
L70656 33899
L70618 33862
L70600 33824
L70600 33749
L70618 33712
L70656 33674
L70731 33656
L70862 33656
L70937 33674
L70975 33712
L70993 33749
L70993 33824
" />
<path d="M70637 33506
L70618 33487
L70600 33450
L70600 33356
L70618 33318
L70637 33300
L70675 33281
L70712 33281
L70768 33300
L70993 33525
L70993 33281
" />
<path d="M66462 32231
L66425 32212
L66387 32175
L66331 32118
L66293 32100
L66256 32100
" />
<path d="M66275 32193
L66237 32175
L66200 32137
L66181 32062
L66181 31931
L66200 31856
L66237 31818
L66275 31800
L66350 31800
L66387 31818
L66425 31856
L66443 31931
L66443 32062
L66425 32137
L66387 32175
L66350 32193
L66275 32193
" />
<path d="M66818 32193
L66593 32193
" />
<path d="M66706 32193
L66706 31800
L66668 31856
L66631 31893
L66593 31912
" />
<path d="M84390 28234
L84409 28178
L84428 28159
L84465 28140
L84522 28140
L84559 28159
L84578 28178
L84597 28215
L84597 28365
L84203 28365
L84203 28234
L84222 28197
L84240 28178
L84278 28159
L84315 28159
L84353 28178
L84372 28197
L84390 28234
L84390 28365
" />
<path d="M84203 28028
L84203 27803
" />
<path d="M84597 27915
L84203 27915
" />
<path d="M84597 27465
L84597 27690
" />
<path d="M84597 27578
L84203 27578
L84259 27615
L84297 27653
L84315 27690
" />
<path d="M75281 33830
L75337 33848
L75356 33867
L75374 33905
L75374 33961
L75356 33998
L75337 34017
L75299 34036
L75149 34036
L75149 33642
L75281 33642
L75318 33661
L75337 33680
L75356 33717
L75356 33755
L75337 33792
L75318 33811
L75281 33830
L75149 33830
" />
<path d="M75487 33642
L75712 33642
" />
<path d="M75599 34036
L75599 33642
" />
<path d="M75824 33680
L75843 33661
L75881 33642
L75974 33642
L76012 33661
L76031 33680
L76049 33717
L76049 33755
L76031 33811
L75806 34036
L76049 34036
" />
<path d="M63191 26059
L63210 26078
L63229 26134
L63229 26172
L63210 26228
L63173 26265
L63135 26284
L63060 26303
L63004 26303
L62929 26284
L62891 26265
L62854 26228
L62835 26172
L62835 26134
L62854 26078
L62873 26059
" />
<path d="M63229 25684
L63229 25909
" />
<path d="M63229 25797
L62835 25797
L62891 25834
L62929 25872
L62948 25909
" />
<path d="M61735 31577
L61716 31596
L61660 31615
L61623 31615
L61566 31596
L61529 31558
L61510 31521
L61491 31446
L61491 31390
L61510 31315
L61529 31277
L61566 31240
L61623 31221
L61660 31221
L61716 31240
L61735 31258
" />
<path d="M61885 31258
L61904 31240
L61941 31221
L62035 31221
L62073 31240
L62091 31258
L62110 31296
L62110 31333
L62091 31390
L61866 31615
L62110 31615
" />
<path d="M60514 29209
L60533 29228
L60552 29284
L60552 29321
L60533 29378
L60495 29415
L60458 29434
L60383 29453
L60327 29453
L60252 29434
L60214 29415
L60177 29378
L60158 29321
L60158 29284
L60177 29228
L60195 29209
" />
<path d="M60158 29078
L60158 28834
L60308 28965
L60308 28909
L60327 28871
L60345 28853
L60383 28834
L60477 28834
L60514 28853
L60533 28871
L60552 28909
L60552 29021
L60533 29059
L60514 29078
" />
<path d="M65652 33146
L65671 33165
L65689 33221
L65689 33258
L65671 33315
L65633 33352
L65596 33371
L65521 33390
L65464 33390
L65389 33371
L65352 33352
L65314 33315
L65296 33258
L65296 33221
L65314 33165
L65333 33146
" />
<path d="M65427 32808
L65689 32808
" />
<path d="M65277 32902
L65558 32996
L65558 32752
" />
<path d="M60239 26059
L60257 26078
L60276 26134
L60276 26172
L60257 26228
L60220 26265
L60182 26284
L60107 26303
L60051 26303
L59976 26284
L59939 26265
L59901 26228
L59882 26172
L59882 26134
L59901 26078
L59920 26059
" />
<path d="M59882 25703
L59882 25890
L60070 25909
L60051 25890
L60032 25853
L60032 25759
L60051 25722
L60070 25703
L60107 25684
L60201 25684
L60239 25703
L60257 25722
L60276 25759
L60276 25853
L60257 25890
L60239 25909
" />
<path d="M56498 26065
L56517 26084
L56536 26140
L56536 26178
L56517 26234
L56480 26271
L56442 26290
L56367 26309
L56311 26309
L56236 26290
L56198 26271
L56161 26234
L56142 26178
L56142 26140
L56161 26084
L56180 26065
" />
<path d="M56142 25728
L56142 25803
L56161 25840
L56180 25859
L56236 25896
L56311 25915
L56461 25915
L56498 25896
L56517 25878
L56536 25840
L56536 25765
L56517 25728
L56498 25709
L56461 25690
L56367 25690
L56330 25709
L56311 25728
L56292 25765
L56292 25840
L56311 25878
L56330 25896
L56367 25915
" />
<path d="M65455 26065
L65474 26084
L65493 26140
L65493 26178
L65474 26234
L65436 26271
L65399 26290
L65324 26309
L65268 26309
L65193 26290
L65155 26271
L65118 26234
L65099 26178
L65099 26140
L65118 26084
L65136 26065
" />
<path d="M65099 25934
L65099 25671
L65493 25840
" />
<path d="M62207 26040
L62226 26058
L62245 26115
L62245 26152
L62226 26208
L62188 26246
L62151 26264
L62076 26283
L62020 26283
L61945 26264
L61907 26246
L61870 26208
L61851 26152
L61851 26115
L61870 26058
L61888 26040
" />
<path d="M62020 25815
L62001 25852
L61982 25871
L61945 25890
L61926 25890
L61888 25871
L61870 25852
L61851 25815
L61851 25740
L61870 25702
L61888 25683
L61926 25665
L61945 25665
L61982 25683
L62001 25702
L62020 25740
L62020 25815
L62038 25852
L62057 25871
L62095 25890
L62170 25890
L62207 25871
L62226 25852
L62245 25815
L62245 25740
L62226 25702
L62207 25683
L62170 25665
L62095 25665
L62057 25683
L62038 25702
L62020 25740
" />
<path d="M58762 26059
L58781 26078
L58800 26134
L58800 26172
L58781 26228
L58743 26265
L58706 26284
L58631 26303
L58575 26303
L58500 26284
L58462 26265
L58425 26228
L58406 26172
L58406 26134
L58425 26078
L58443 26059
" />
<path d="M58800 25872
L58800 25797
L58781 25759
L58762 25741
L58706 25703
L58631 25684
L58481 25684
L58443 25703
L58425 25722
L58406 25759
L58406 25834
L58425 25872
L58443 25890
L58481 25909
L58575 25909
L58612 25890
L58631 25872
L58650 25834
L58650 25759
L58631 25722
L58612 25703
L58575 25684
" />
<path d="M64569 26256
L64588 26275
L64607 26331
L64607 26369
L64588 26425
L64550 26462
L64513 26481
L64438 26500
L64382 26500
L64307 26481
L64269 26462
L64232 26425
L64213 26369
L64213 26331
L64232 26275
L64251 26256
" />
<path d="M64607 25881
L64607 26106
" />
<path d="M64607 25994
L64213 25994
L64269 26031
L64307 26069
L64326 26106
" />
<path d="M64213 25637
L64213 25600
L64232 25562
L64251 25544
L64288 25525
L64363 25506
L64457 25506
L64532 25525
L64569 25544
L64588 25562
L64607 25600
L64607 25637
L64588 25675
L64569 25694
L64532 25712
L64457 25731
L64363 25731
L64288 25712
L64251 25694
L64232 25675
L64213 25637
" />
<path d="M61223 26247
L61242 26265
L61260 26322
L61260 26359
L61242 26415
L61204 26453
L61167 26472
L61092 26490
L61035 26490
L60960 26472
L60923 26453
L60885 26415
L60867 26359
L60867 26322
L60885 26265
L60904 26247
" />
<path d="M61260 25872
L61260 26097
" />
<path d="M61260 25984
L60867 25984
L60923 26022
L60960 26059
L60979 26097
" />
<path d="M61260 25497
L61260 25722
" />
<path d="M61260 25609
L60867 25609
L60923 25647
L60960 25684
L60979 25722
" />
<path d="M57483 26247
L57501 26265
L57520 26322
L57520 26359
L57501 26415
L57464 26453
L57426 26472
L57351 26490
L57295 26490
L57220 26472
L57183 26453
L57145 26415
L57126 26359
L57126 26322
L57145 26265
L57164 26247
" />
<path d="M57520 25872
L57520 26097
" />
<path d="M57520 25984
L57126 25984
L57183 26022
L57220 26059
L57239 26097
" />
<path d="M57164 25722
L57145 25703
L57126 25666
L57126 25572
L57145 25534
L57164 25516
L57201 25497
L57239 25497
L57295 25516
L57520 25741
L57520 25497
" />
<path d="M57855 31255
L57461 31255
L57461 31161
L57480 31105
L57517 31067
L57555 31048
L57630 31030
L57686 31030
L57761 31048
L57799 31067
L57836 31105
L57855 31161
L57855 31255
" />
<path d="M57855 30655
L57855 30880
" />
<path d="M57855 30767
L57461 30767
L57517 30805
L57555 30842
L57574 30880
" />
<path d="M56890 31290
L56497 31290
L56497 31196
L56515 31140
L56553 31103
L56590 31084
L56665 31065
L56721 31065
L56796 31084
L56834 31103
L56871 31140
L56890 31196
L56890 31290
" />
<path d="M56534 30915
L56515 30896
L56497 30859
L56497 30765
L56515 30728
L56534 30709
L56571 30690
L56609 30690
L56665 30709
L56890 30934
L56890 30690
" />
<path d="M60414 31255
L60020 31255
L60020 31161
L60039 31105
L60076 31067
L60114 31048
L60189 31030
L60245 31030
L60320 31048
L60358 31067
L60395 31105
L60414 31161
L60414 31255
" />
<path d="M60020 30898
L60020 30655
L60170 30786
L60170 30730
L60189 30692
L60208 30673
L60245 30655
L60339 30655
L60376 30673
L60395 30692
L60414 30730
L60414 30842
L60395 30880
L60376 30898
" />
<path d="M63859 31752
L63672 31752
L63672 31359
" />
<path d="M64197 31752
L63972 31752
" />
<path d="M64084 31752
L64084 31359
L64047 31415
L64009 31452
L63972 31471
" />
<path d="M70327 31069
L70140 31200
" />
<path d="M70327 31294
L69934 31294
L69934 31144
L69952 31106
L69971 31087
L70008 31069
L70065 31069
L70102 31087
L70121 31106
L70140 31144
L70140 31294
" />
<path d="M70327 30694
L70327 30919
" />
<path d="M70327 30806
L69934 30806
L69990 30844
L70027 30881
L70046 30919
" />
<path d="M68827 31069
L68640 31200
" />
<path d="M68827 31294
L68434 31294
L68434 31144
L68452 31106
L68471 31087
L68508 31069
L68565 31069
L68602 31087
L68621 31106
L68640 31144
L68640 31294
" />
<path d="M68471 30919
L68452 30900
L68434 30862
L68434 30769
L68452 30731
L68471 30712
L68508 30694
L68546 30694
L68602 30712
L68827 30937
L68827 30694
" />
<path d="M71367 22799
L71685 22799
L71723 22781
L71742 22762
L71760 22724
L71760 22649
L71742 22612
L71723 22593
L71685 22574
L71367 22574
" />
<path d="M71760 22181
L71760 22406
" />
<path d="M71760 22293
L71367 22293
L71423 22331
L71460 22368
L71479 22406
" />
<path d="M70795 22799
L71113 22799
L71151 22781
L71169 22762
L71188 22724
L71188 22649
L71169 22612
L71151 22593
L71113 22574
L70795 22574
" />
<path d="M70832 22406
L70813 22387
L70795 22350
L70795 22256
L70813 22218
L70832 22200
L70870 22181
L70907 22181
L70963 22200
L71188 22425
L71188 22181
" />
</g> 
</svg>
