<?xml version="1.0" encoding="UTF-8" standalone="no"?>
<svg
   xmlns:dc="http://purl.org/dc/elements/1.1/"
   xmlns:cc="http://creativecommons.org/ns#"
   xmlns:rdf="http://www.w3.org/1999/02/22-rdf-syntax-ns#"
   xmlns:svg="http://www.w3.org/2000/svg"
   xmlns="http://www.w3.org/2000/svg"
   xmlns:sodipodi="http://sodipodi.sourceforge.net/DTD/sodipodi-0.dtd"
   xmlns:inkscape="http://www.inkscape.org/namespaces/inkscape"
   version="1.1"
   width="29.7002cm"
   height="21.0007cm"
   viewBox="0 0 116930 82680 "
   id="svg64"
   sodipodi:docname="OTP-v02-B_Mask.svg"
   inkscape:version="0.92.4 (unknown)">
  <metadata
     id="metadata70">
    <rdf:RDF>
      <cc:Work
         rdf:about="">
        <dc:format>image/svg+xml</dc:format>
        <dc:type
           rdf:resource="http://purl.org/dc/dcmitype/StillImage" />
      </cc:Work>
    </rdf:RDF>
  </metadata>
  <defs
     id="defs68" />
  <sodipodi:namedview
     pagecolor="#ffffff"
     bordercolor="#666666"
     borderopacity="1"
     objecttolerance="10"
     gridtolerance="10"
     guidetolerance="10"
     inkscape:pageopacity="0"
     inkscape:pageshadow="2"
     inkscape:window-width="724"
     inkscape:window-height="480"
     id="namedview66"
     showgrid="false"
     inkscape:zoom="0.21024502"
     inkscape:cx="604.26624"
     inkscape:cy="371.32257"
     inkscape:window-x="35"
     inkscape:window-y="27"
     inkscape:window-maximized="0"
     inkscape:current-layer="svg64" />
  <title
     id="title2">SVG Picture created as OTP-v02-B_Mask.svg date 2019/05/17 10:10:50 </title>
  <desc
     id="desc4">Picture generated by PCBNEW </desc>
  <g
     id="g909">
    <g
       id="g6"
       transform="translate(0 0) scale(1 1)"
       style="fill:#000000; fill-opacity:1;stroke:#000000; stroke-opacity:1; stroke-linecap:round; stroke-linejoin:round; " />
    <g
       id="g8"
       style="fill:#000000; fill-opacity:0.0;  stroke:#000000; stroke-width:-0.000393701; stroke-opacity:1;  stroke-linecap:round; stroke-linejoin:round;" />
    <g
       id="g62"
       style="fill:#000000; fill-opacity:1.0;  stroke:#000000; stroke-width:0; stroke-opacity:1;  stroke-linecap:round; stroke-linejoin:round;">
      <path
         id="path10"
         d="M 53010,41346 53010,41346 53010,41346 53045,41360 53062,41371 53078,41382 53105,41409 53127,41442 53142,41478 53149,41516 53149,41554 53142,41592 53142,41592 53127,41628 53105,41660 53078,41688 53045,41709 53045,41709 53045,41709 53010,41724 52972,41732 52933,41732 52895,41724 52859,41709 52859,41709 52859,41709 52827,41688 52799,41660 52778,41628 52763,41592 52763,41592 52755,41554 52755,41516 52763,41478 52778,41442 52799,41409 52827,41382 52843,41371 52859,41360 52895,41346 52895,41346 52895,41346 52933,41338 52972,41338 53010,41346 Z"
         style="fill:#000000; fill-opacity:1.0;  stroke:#000000; stroke-width:0; stroke-opacity:1;  stroke-linecap:round; stroke-linejoin:round;fill-rule:evenodd;" />
      <path
         id="path12"
         d="M 41297,41346 41297,41346 41297,41346 41333,41360 41349,41371 41365,41382 41393,41409 41414,41442 41429,41478 41437,41516 41437,41554 41429,41592 41429,41592 41414,41628 41393,41660 41365,41688 41333,41709 41333,41709 41333,41709 41297,41724 41259,41732 41220,41732 41182,41724 41146,41709 41146,41709 41146,41709 41114,41688 41087,41660 41065,41628 41050,41592 41050,41592 41043,41554 41043,41516 41050,41478 41065,41442 41087,41409 41114,41382 41130,41371 41146,41360 41182,41346 41182,41346 41182,41346 41220,41338 41259,41338 41297,41346 Z"
         style="fill:#000000; fill-opacity:1.0;  stroke:#000000; stroke-width:0; stroke-opacity:1;  stroke-linecap:round; stroke-linejoin:round;fill-rule:evenodd;" />
      <path
         id="path14"
         d="M 50952,39912 51006,39935 51054,39967 51095,40008 51127,40056 51150,40110 51161,40167 51161,40225 51150,40282 51127,40336 51095,40385 51054,40426 51006,40458 50952,40480 50895,40492 50837,40492 50780,40480 50726,40458 50677,40426 50636,40385 50604,40336 50582,40282 50570,40225 50570,40167 50582,40110 50604,40056 50636,40008 50677,39967 50726,39935 50780,39912 50837,39901 50895,39901 50952,39912 Z"
         style="fill:#000000; fill-opacity:1.0;  stroke:#000000; stroke-width:0; stroke-opacity:1;  stroke-linecap:round; stroke-linejoin:round;fill-rule:evenodd;" />
      <path
         id="path16"
         d="M 42251,39361 42305,39383 42353,39416 42394,39457 42427,39505 42449,39559 42460,39616 42460,39674 42449,39731 42427,39785 42394,39833 42353,39875 42305,39907 42251,39929 42194,39940 42136,39940 42079,39929 42025,39907 41977,39875 41935,39833 41903,39785 41881,39731 41870,39674 41870,39616 41881,39559 41903,39505 41935,39457 41977,39416 42025,39383 42079,39361 42136,39350 42194,39350 42251,39361 Z"
         style="fill:#000000; fill-opacity:1.0;  stroke:#000000; stroke-width:0; stroke-opacity:1;  stroke-linecap:round; stroke-linejoin:round;fill-rule:evenodd;" />
      <path
         id="path18"
         d="M 50558,39007 50612,39029 50660,39061 50701,39103 50734,39151 50756,39205 50767,39262 50767,39320 50756,39377 50734,39431 50701,39479 50660,39520 50612,39553 50558,39575 50501,39586 50443,39586 50386,39575 50332,39553 50284,39520 50243,39479 50210,39431 50188,39377 50177,39320 50177,39262 50188,39205 50210,39151 50243,39103 50284,39061 50332,39029 50386,39007 50443,38996 50501,38996 50558,39007 Z"
         style="fill:#000000; fill-opacity:1.0;  stroke:#000000; stroke-width:0; stroke-opacity:1;  stroke-linecap:round; stroke-linejoin:round;fill-rule:evenodd;" />
      <path
         id="path20"
         d="M 51464,39007 51517,39029 51566,39061 51607,39103 51639,39151 51661,39205 51673,39262 51673,39320 51661,39377 51639,39431 51607,39479 51566,39520 51517,39553 51464,39575 51407,39586 51348,39586 51291,39575 51238,39553 51189,39520 51148,39479 51116,39431 51094,39377 51082,39320 51082,39262 51094,39205 51116,39151 51148,39103 51189,39061 51238,39029 51291,39007 51348,38996 51407,38996 51464,39007 Z"
         style="fill:#000000; fill-opacity:1.0;  stroke:#000000; stroke-width:0; stroke-opacity:1;  stroke-linecap:round; stroke-linejoin:round;fill-rule:evenodd;" />
      <path
         id="path22"
         d="M 43078,34834 43131,34856 43180,34888 43221,34929 43253,34978 43276,35031 43287,35089 43287,35147 43276,35204 43253,35257 43221,35306 43180,35347 43131,35379 43078,35402 43021,35413 42963,35413 42905,35402 42852,35379 42803,35347 42762,35306 42730,35257 42708,35204 42696,35147 42696,35089 42708,35031 42730,34978 42762,34929 42803,34888 42852,34856 42905,34834 42963,34822 43021,34822 43078,34834 Z"
         style="fill:#000000; fill-opacity:1.0;  stroke:#000000; stroke-width:0; stroke-opacity:1;  stroke-linecap:round; stroke-linejoin:round;fill-rule:evenodd;" />
      <path
         id="path24"
         d="M 46680,34834 46734,34856 46782,34888 46823,34929 46856,34978 46878,35031 46889,35089 46889,35147 46878,35204 46856,35257 46823,35306 46782,35347 46734,35379 46680,35402 46623,35413 46565,35413 46508,35402 46454,35379 46406,35347 46365,35306 46332,35257 46310,35204 46299,35147 46299,35089 46310,35031 46332,34978 46365,34929 46406,34888 46454,34856 46508,34834 46565,34822 46623,34822 46680,34834 Z"
         style="fill:#000000; fill-opacity:1.0;  stroke:#000000; stroke-width:0; stroke-opacity:1;  stroke-linecap:round; stroke-linejoin:round;fill-rule:evenodd;" />
      <path
         id="path26"
         d="M 47960,34460 48013,34482 48062,34514 48103,34555 48135,34604 48157,34657 48169,34715 48169,34773 48157,34830 48135,34883 48103,34932 48062,34973 48013,35005 47960,35028 47903,35039 47844,35039 47787,35028 47734,35005 47685,34973 47644,34932 47612,34883 47590,34830 47578,34773 47578,34715 47590,34657 47612,34604 47644,34555 47685,34514 47734,34482 47787,34460 47844,34448 47903,34448 47960,34460 Z"
         style="fill:#000000; fill-opacity:1.0;  stroke:#000000; stroke-width:0; stroke-opacity:1;  stroke-linecap:round; stroke-linejoin:round;fill-rule:evenodd;" />
      <path
         id="path28"
         d="M 47310,34184 47364,34206 47412,34239 47453,34280 47486,34328 47508,34382 47519,34439 47519,34497 47508,34554 47486,34608 47453,34656 47412,34697 47364,34730 47310,34752 47253,34763 47195,34763 47138,34752 47084,34730 47036,34697 46995,34656 46962,34608 46940,34554 46929,34497 46929,34439 46940,34382 46962,34328 46995,34280 47036,34239 47084,34206 47138,34184 47195,34173 47253,34173 47310,34184 Z"
         style="fill:#000000; fill-opacity:1.0;  stroke:#000000; stroke-width:0; stroke-opacity:1;  stroke-linecap:round; stroke-linejoin:round;fill-rule:evenodd;" />
      <path
         id="path30"
         d="M 43590,33377 43643,33399 43692,33432 43733,33473 43765,33521 43787,33575 43799,33632 43799,33690 43787,33747 43765,33801 43733,33849 43692,33890 43643,33923 43590,33945 43533,33956 43474,33956 43417,33945 43364,33923 43315,33890 43274,33849 43242,33801 43220,33747 43208,33690 43208,33632 43220,33575 43242,33521 43274,33473 43315,33432 43364,33399 43417,33377 43474,33366 43533,33366 43590,33377 Z"
         style="fill:#000000; fill-opacity:1.0;  stroke:#000000; stroke-width:0; stroke-opacity:1;  stroke-linecap:round; stroke-linejoin:round;fill-rule:evenodd;" />
      <path
         id="path32"
         d="M 42212,32058 42265,32080 42314,32113 42355,32154 42387,32202 42409,32256 42421,32313 42421,32371 42409,32428 42387,32482 42355,32530 42314,32571 42265,32604 42212,32626 42155,32637 42096,32637 42039,32626 41986,32604 41937,32571 41896,32530 41864,32482 41842,32428 41830,32371 41830,32313 41842,32256 41864,32202 41896,32154 41937,32113 41986,32080 42039,32058 42096,32047 42155,32047 42212,32058 Z"
         style="fill:#000000; fill-opacity:1.0;  stroke:#000000; stroke-width:0; stroke-opacity:1;  stroke-linecap:round; stroke-linejoin:round;fill-rule:evenodd;" />
      <path
         id="path34"
         d="M 51875,29545 51939,29571 51997,29610 52046,29659 52085,29717 52085,29717 52112,29782 52118,29814 52125,29850 52125,29920 52112,29989 52085,30053 52046,30111 51997,30161 51939,30199 51939,30199 51939,30199 51875,30226 51806,30240 51736,30240 51668,30226 51603,30199 51603,30199 51603,30199 51545,30161 51496,30111 51457,30053 51430,29989 51417,29920 51417,29850 51424,29814 51430,29782 51457,29717 51458,29717 51496,29659 51545,29610 51603,29571 51668,29545 51736,29531 51806,29531 51875,29545 Z"
         style="fill:#000000; fill-opacity:1.0;  stroke:#000000; stroke-width:0; stroke-opacity:1;  stroke-linecap:round; stroke-linejoin:round;fill-rule:evenodd;" />
      <path
         id="path36"
         d="M 49259,29519 49313,29541 49361,29573 49402,29614 49434,29663 49457,29717 49468,29774 49468,29832 49457,29889 49434,29943 49402,29991 49361,30032 49313,30064 49259,30087 49202,30098 49144,30098 49087,30087 49033,30064 48985,30032 48943,29991 48911,29943 48889,29889 48877,29832 48877,29774 48889,29717 48911,29663 48943,29614 48985,29573 49033,29541 49087,29519 49144,29507 49202,29507 49259,29519 Z"
         style="fill:#000000; fill-opacity:1.0;  stroke:#000000; stroke-width:0; stroke-opacity:1;  stroke-linecap:round; stroke-linejoin:round;fill-rule:evenodd;" />
      <path
         id="path38"
         d="M 47408,29342 47462,29364 47511,29396 47552,29437 47584,29486 47606,29539 47618,29596 47618,29655 47606,29712 47584,29765 47552,29814 47511,29855 47462,29887 47408,29909 47351,29921 47293,29921 47236,29909 47182,29887 47134,29855 47093,29814 47061,29765 47038,29712 47027,29655 47027,29596 47038,29539 47061,29486 47093,29437 47134,29396 47182,29364 47236,29342 47293,29330 47351,29330 47408,29342 Z"
         style="fill:#000000; fill-opacity:1.0;  stroke:#000000; stroke-width:0; stroke-opacity:1;  stroke-linecap:round; stroke-linejoin:round;fill-rule:evenodd;" />
      <path
         id="path40"
         d="M 51875,28545 51939,28571 51997,28610 52046,28659 52081,28711 52085,28717 52112,28782 52125,28850 52125,28920 52116,28969 52112,28989 52085,29053 52046,29111 51997,29161 51939,29199 51939,29199 51939,29199 51875,29226 51806,29240 51736,29240 51668,29226 51603,29199 51603,29199 51603,29199 51545,29161 51496,29111 51457,29053 51430,28989 51427,28969 51417,28920 51417,28850 51430,28782 51457,28717 51462,28711 51496,28659 51545,28610 51603,28571 51668,28545 51736,28531 51806,28531 51875,28545 Z"
         style="fill:#000000; fill-opacity:1.0;  stroke:#000000; stroke-width:0; stroke-opacity:1;  stroke-linecap:round; stroke-linejoin:round;fill-rule:evenodd;" />
      <path
         id="path42"
         d="M 45263,28456 45317,28478 45365,28510 45406,28551 45438,28600 45461,28654 45472,28711 45472,28769 45461,28826 45438,28880 45406,28928 45365,28969 45317,29001 45263,29024 45206,29035 45148,29035 45091,29024 45037,29001 44988,28969 44947,28928 44915,28880 44893,28826 44881,28769 44881,28711 44893,28654 44915,28600 44947,28551 44988,28510 45037,28478 45091,28456 45148,28444 45206,28444 45263,28456 Z"
         style="fill:#000000; fill-opacity:1.0;  stroke:#000000; stroke-width:0; stroke-opacity:1;  stroke-linecap:round; stroke-linejoin:round;fill-rule:evenodd;" />
      <path
         id="path44"
         d="M 51875,27545 51939,27571 51997,27610 52046,27659 52085,27717 52112,27782 52125,27850 52125,27920 52112,27989 52085,28053 52046,28111 51997,28161 51939,28199 51939,28199 51939,28199 51875,28226 51806,28240 51736,28240 51668,28226 51603,28199 51603,28199 51603,28199 51545,28161 51496,28111 51457,28053 51430,27989 51417,27920 51417,27850 51430,27782 51457,27717 51496,27659 51545,27610 51603,27571 51668,27545 51736,27531 51806,27531 51875,27545 Z"
         style="fill:#000000; fill-opacity:1.0;  stroke:#000000; stroke-width:0; stroke-opacity:1;  stroke-linecap:round; stroke-linejoin:round;fill-rule:evenodd;" />
      <path
         id="path46"
         d="M 42883,26774 42902,26778 42957,26801 43006,26833 43047,26875 43080,26924 43103,26979 43114,27037 43114,27096 43103,27154 43080,27209 43047,27258 43006,27299 42957,27332 42902,27355 42883,27359 42844,27366 42785,27366 42746,27359 42727,27355 42672,27332 42623,27299 42581,27258 42549,27209 42526,27154 42514,27096 42514,27037 42526,26979 42549,26924 42581,26875 42623,26833 42672,26801 42727,26778 42746,26774 42785,26766 42844,26766 42883,26774 Z"
         style="fill:#000000; fill-opacity:1.0;  stroke:#000000; stroke-width:0; stroke-opacity:1;  stroke-linecap:round; stroke-linejoin:round;fill-rule:evenodd;" />
      <path
         id="path48"
         d="M 51875,26545 51939,26571 51997,26610 52046,26659 52085,26717 52085,26717 52112,26782 52125,26850 52125,26920 52125,26924 52112,26989 52085,27053 52046,27111 51997,27161 51939,27199 51939,27199 51939,27199 51875,27226 51806,27240 51736,27240 51668,27226 51603,27199 51603,27199 51603,27199 51545,27161 51496,27111 51457,27053 51430,26989 51418,26924 51417,26920 51417,26850 51430,26782 51457,26717 51457,26717 51496,26659 51545,26610 51603,26571 51668,26545 51736,26531 51806,26531 51875,26545 Z"
         style="fill:#000000; fill-opacity:1.0;  stroke:#000000; stroke-width:0; stroke-opacity:1;  stroke-linecap:round; stroke-linejoin:round;fill-rule:evenodd;" />
      <path
         id="path50"
         d="M 51875,25545 51939,25571 51997,25610 52046,25659 52085,25717 52112,25782 52125,25850 52125,25920 52112,25989 52085,26053 52046,26111 51997,26161 51939,26199 51939,26199 51939,26199 51875,26226 51806,26240 51736,26240 51668,26226 51603,26199 51603,26199 51603,26199 51545,26161 51496,26111 51457,26053 51430,25989 51417,25920 51417,25850 51430,25782 51457,25717 51496,25659 51545,25610 51603,25571 51668,25545 51736,25531 51806,25531 51875,25545 Z"
         style="fill:#000000; fill-opacity:1.0;  stroke:#000000; stroke-width:0; stroke-opacity:1;  stroke-linecap:round; stroke-linejoin:round;fill-rule:evenodd;" />
      <path
         id="path52"
         d="M 51875,24545 51939,24571 51997,24610 52046,24659 52085,24717 52112,24782 52125,24850 52125,24920 52112,24989 52085,25053 52046,25111 51997,25161 51939,25199 51939,25199 51939,25199 51875,25226 51806,25240 51736,25240 51668,25226 51603,25199 51603,25199 51603,25199 51545,25161 51496,25111 51457,25053 51430,24989 51417,24920 51417,24850 51430,24782 51457,24717 51496,24659 51545,24610 51603,24571 51668,24545 51736,24531 51806,24531 51875,24545 Z"
         style="fill:#000000; fill-opacity:1.0;  stroke:#000000; stroke-width:0; stroke-opacity:1;  stroke-linecap:round; stroke-linejoin:round;fill-rule:evenodd;" />
      <path
         id="path54"
         d="M 42883,23625 42902,23628 42957,23651 43006,23684 43047,23726 43080,23775 43103,23829 43103,23829 43112,23873 43114,23887 43114,23946 43103,24004 43080,24059 43047,24108 43006,24150 42957,24183 42902,24205 42883,24209 42844,24217 42785,24217 42746,24209 42727,24205 42672,24183 42623,24150 42581,24108 42549,24059 42526,24004 42514,23946 42514,23887 42517,23873 42526,23829 42526,23829 42549,23775 42581,23726 42623,23684 42672,23651 42727,23628 42746,23625 42785,23617 42844,23617 42883,23625 Z"
         style="fill:#000000; fill-opacity:1.0;  stroke:#000000; stroke-width:0; stroke-opacity:1;  stroke-linecap:round; stroke-linejoin:round;fill-rule:evenodd;" />
      <path
         id="path56"
         d="M 44361,23238 44386,23243 44458,23273 44522,23316 44577,23371 44620,23435 44650,23507 44665,23583 44665,23660 44650,23736 44620,23808 44577,23873 44522,23927 44458,23970 44386,24000 44365,24004 44310,24015 44232,24015 44177,24004 44156,24000 44085,23970 44020,23927 43965,23873 43922,23808 43893,23736 43877,23660 43877,23583 43893,23507 43922,23435 43965,23371 44020,23316 44085,23273 44156,23243 44182,23238 44232,23228 44310,23228 44361,23238 Z"
         style="fill:#000000; fill-opacity:1.0;  stroke:#000000; stroke-width:0; stroke-opacity:1;  stroke-linecap:round; stroke-linejoin:round;fill-rule:evenodd;" />
      <path
         id="path58"
         d="M 46329,23238 46354,23243 46426,23273 46491,23316 46545,23371 46589,23435 46618,23507 46633,23583 46633,23660 46618,23736 46589,23808 46545,23873 46491,23927 46426,23970 46354,24000 46333,24004 46278,24015 46201,24015 46146,24004 46125,24000 46053,23970 45989,23927 45934,23873 45891,23808 45861,23736 45846,23660 45846,23583 45861,23507 45891,23435 45934,23371 45989,23316 46053,23273 46125,23243 46150,23238 46201,23228 46278,23228 46329,23238 Z"
         style="fill:#000000; fill-opacity:1.0;  stroke:#000000; stroke-width:0; stroke-opacity:1;  stroke-linecap:round; stroke-linejoin:round;fill-rule:evenodd;" />
      <path
         id="path60"
         d="M 41297,22251 41297,22251 41297,22251 41333,22266 41349,22277 41365,22288 41393,22315 41414,22347 41429,22383 41437,22421 41437,22460 41429,22498 41429,22498 41414,22534 41393,22566 41365,22593 41333,22615 41333,22615 41333,22615 41297,22630 41259,22637 41220,22637 41182,22630 41146,22615 41146,22615 41146,22615 41114,22593 41087,22566 41065,22534 41050,22498 41050,22498 41043,22460 41043,22421 41050,22383 41065,22347 41087,22315 41114,22288 41130,22277 41146,22266 41182,22251 41182,22251 41182,22251 41220,22244 41259,22244 41297,22251 Z"
         style="fill:#000000; fill-opacity:1.0;  stroke:#000000; stroke-width:0; stroke-opacity:1;  stroke-linecap:round; stroke-linejoin:round;fill-rule:evenodd;" />
    </g>
  </g>
</svg>
