G04 #@! TF.GenerationSoftware,KiCad,Pcbnew,5.0.2-bee76a0~70~ubuntu16.04.1*
G04 #@! TF.CreationDate,2019-03-15T14:41:41+08:00*
G04 #@! TF.ProjectId,noname,6e6f6e61-6d65-42e6-9b69-6361645f7063,rev?*
G04 #@! TF.SameCoordinates,Original*
G04 #@! TF.FileFunction,Legend,Top*
G04 #@! TF.FilePolarity,Positive*
%FSLAX46Y46*%
G04 Gerber Fmt 4.6, Leading zero omitted, Abs format (unit mm)*
G04 Created by KiCad (PCBNEW 5.0.2-bee76a0~70~ubuntu16.04.1) date Friday, 15 March, 2019 02:41:41 PM PST*
%MOMM*%
%LPD*%
G01*
G04 APERTURE LIST*
%ADD10C,0.120000*%
%ADD11C,0.150000*%
G04 APERTURE END LIST*
D10*
G04 #@! TO.C,REF\002A\002A*
X154969936Y-97684000D02*
X156174064Y-97684000D01*
X154969936Y-95864000D02*
X156174064Y-95864000D01*
X142981936Y-98484000D02*
X147086064Y-98484000D01*
X142981936Y-95064000D02*
X147086064Y-95064000D01*
X143377936Y-93816000D02*
X146182064Y-93816000D01*
X143377936Y-91096000D02*
X146182064Y-91096000D01*
X143393748Y-89594000D02*
X146166252Y-89594000D01*
X143393748Y-86174000D02*
X146166252Y-86174000D01*
X143923936Y-84926000D02*
X145128064Y-84926000D01*
X143923936Y-82206000D02*
X145128064Y-82206000D01*
X155189422Y-94690000D02*
X155706578Y-94690000D01*
X155189422Y-93270000D02*
X155706578Y-93270000D01*
X155285221Y-91950000D02*
X155610779Y-91950000D01*
X155285221Y-90930000D02*
X155610779Y-90930000D01*
D11*
X133625000Y-103050000D02*
X132400000Y-103050000D01*
X138875000Y-102625000D02*
X138365000Y-102625000D01*
X138875000Y-107875000D02*
X138365000Y-107875000D01*
X133625000Y-107875000D02*
X134135000Y-107875000D01*
X133625000Y-102625000D02*
X134135000Y-102625000D01*
X133625000Y-107875000D02*
X133625000Y-107365000D01*
X138875000Y-107875000D02*
X138875000Y-107365000D01*
X138875000Y-102625000D02*
X138875000Y-103135000D01*
X133625000Y-102625000D02*
X133625000Y-103050000D01*
D10*
X144240000Y-102890000D02*
X143890000Y-102890000D01*
X148110000Y-107110000D02*
X148110000Y-106760000D01*
X147760000Y-107110000D02*
X148110000Y-107110000D01*
X143890000Y-107110000D02*
X143890000Y-106760000D01*
X144240000Y-107110000D02*
X143890000Y-107110000D01*
X148110000Y-102890000D02*
X148110000Y-103240000D01*
X147760000Y-102890000D02*
X148110000Y-102890000D01*
X154875000Y-112125000D02*
X154875000Y-102875000D01*
X165125000Y-112125000D02*
X154875000Y-112125000D01*
X165125000Y-101875000D02*
X165125000Y-112125000D01*
X155875000Y-101875000D02*
X165125000Y-101875000D01*
D11*
X154238666Y-95406380D02*
X153905333Y-94930190D01*
X153667238Y-95406380D02*
X153667238Y-94406380D01*
X154048190Y-94406380D01*
X154143428Y-94454000D01*
X154191047Y-94501619D01*
X154238666Y-94596857D01*
X154238666Y-94739714D01*
X154191047Y-94834952D01*
X154143428Y-94882571D01*
X154048190Y-94930190D01*
X153667238Y-94930190D01*
X154667238Y-94882571D02*
X155000571Y-94882571D01*
X155143428Y-95406380D02*
X154667238Y-95406380D01*
X154667238Y-94406380D01*
X155143428Y-94406380D01*
X155905333Y-94882571D02*
X155572000Y-94882571D01*
X155572000Y-95406380D02*
X155572000Y-94406380D01*
X156048190Y-94406380D01*
X156572000Y-94406380D02*
X156572000Y-94644476D01*
X156333904Y-94549238D02*
X156572000Y-94644476D01*
X156810095Y-94549238D01*
X156429142Y-94834952D02*
X156572000Y-94644476D01*
X156714857Y-94834952D01*
X157333904Y-94406380D02*
X157333904Y-94644476D01*
X157095809Y-94549238D02*
X157333904Y-94644476D01*
X157572000Y-94549238D01*
X157191047Y-94834952D02*
X157333904Y-94644476D01*
X157476761Y-94834952D01*
X143700666Y-94606380D02*
X143367333Y-94130190D01*
X143129238Y-94606380D02*
X143129238Y-93606380D01*
X143510190Y-93606380D01*
X143605428Y-93654000D01*
X143653047Y-93701619D01*
X143700666Y-93796857D01*
X143700666Y-93939714D01*
X143653047Y-94034952D01*
X143605428Y-94082571D01*
X143510190Y-94130190D01*
X143129238Y-94130190D01*
X144129238Y-94082571D02*
X144462571Y-94082571D01*
X144605428Y-94606380D02*
X144129238Y-94606380D01*
X144129238Y-93606380D01*
X144605428Y-93606380D01*
X145367333Y-94082571D02*
X145034000Y-94082571D01*
X145034000Y-94606380D02*
X145034000Y-93606380D01*
X145510190Y-93606380D01*
X146034000Y-93606380D02*
X146034000Y-93844476D01*
X145795904Y-93749238D02*
X146034000Y-93844476D01*
X146272095Y-93749238D01*
X145891142Y-94034952D02*
X146034000Y-93844476D01*
X146176857Y-94034952D01*
X146795904Y-93606380D02*
X146795904Y-93844476D01*
X146557809Y-93749238D02*
X146795904Y-93844476D01*
X147034000Y-93749238D01*
X146653047Y-94034952D02*
X146795904Y-93844476D01*
X146938761Y-94034952D01*
X143446666Y-90628380D02*
X143113333Y-90152190D01*
X142875238Y-90628380D02*
X142875238Y-89628380D01*
X143256190Y-89628380D01*
X143351428Y-89676000D01*
X143399047Y-89723619D01*
X143446666Y-89818857D01*
X143446666Y-89961714D01*
X143399047Y-90056952D01*
X143351428Y-90104571D01*
X143256190Y-90152190D01*
X142875238Y-90152190D01*
X143875238Y-90104571D02*
X144208571Y-90104571D01*
X144351428Y-90628380D02*
X143875238Y-90628380D01*
X143875238Y-89628380D01*
X144351428Y-89628380D01*
X145113333Y-90104571D02*
X144780000Y-90104571D01*
X144780000Y-90628380D02*
X144780000Y-89628380D01*
X145256190Y-89628380D01*
X145780000Y-89628380D02*
X145780000Y-89866476D01*
X145541904Y-89771238D02*
X145780000Y-89866476D01*
X146018095Y-89771238D01*
X145637142Y-90056952D02*
X145780000Y-89866476D01*
X145922857Y-90056952D01*
X146541904Y-89628380D02*
X146541904Y-89866476D01*
X146303809Y-89771238D02*
X146541904Y-89866476D01*
X146780000Y-89771238D01*
X146399047Y-90056952D02*
X146541904Y-89866476D01*
X146684761Y-90056952D01*
X143446666Y-85686380D02*
X143113333Y-85210190D01*
X142875238Y-85686380D02*
X142875238Y-84686380D01*
X143256190Y-84686380D01*
X143351428Y-84734000D01*
X143399047Y-84781619D01*
X143446666Y-84876857D01*
X143446666Y-85019714D01*
X143399047Y-85114952D01*
X143351428Y-85162571D01*
X143256190Y-85210190D01*
X142875238Y-85210190D01*
X143875238Y-85162571D02*
X144208571Y-85162571D01*
X144351428Y-85686380D02*
X143875238Y-85686380D01*
X143875238Y-84686380D01*
X144351428Y-84686380D01*
X145113333Y-85162571D02*
X144780000Y-85162571D01*
X144780000Y-85686380D02*
X144780000Y-84686380D01*
X145256190Y-84686380D01*
X145780000Y-84686380D02*
X145780000Y-84924476D01*
X145541904Y-84829238D02*
X145780000Y-84924476D01*
X146018095Y-84829238D01*
X145637142Y-85114952D02*
X145780000Y-84924476D01*
X145922857Y-85114952D01*
X146541904Y-84686380D02*
X146541904Y-84924476D01*
X146303809Y-84829238D02*
X146541904Y-84924476D01*
X146780000Y-84829238D01*
X146399047Y-85114952D02*
X146541904Y-84924476D01*
X146684761Y-85114952D01*
X143192666Y-81738380D02*
X142859333Y-81262190D01*
X142621238Y-81738380D02*
X142621238Y-80738380D01*
X143002190Y-80738380D01*
X143097428Y-80786000D01*
X143145047Y-80833619D01*
X143192666Y-80928857D01*
X143192666Y-81071714D01*
X143145047Y-81166952D01*
X143097428Y-81214571D01*
X143002190Y-81262190D01*
X142621238Y-81262190D01*
X143621238Y-81214571D02*
X143954571Y-81214571D01*
X144097428Y-81738380D02*
X143621238Y-81738380D01*
X143621238Y-80738380D01*
X144097428Y-80738380D01*
X144859333Y-81214571D02*
X144526000Y-81214571D01*
X144526000Y-81738380D02*
X144526000Y-80738380D01*
X145002190Y-80738380D01*
X145526000Y-80738380D02*
X145526000Y-80976476D01*
X145287904Y-80881238D02*
X145526000Y-80976476D01*
X145764095Y-80881238D01*
X145383142Y-81166952D02*
X145526000Y-80976476D01*
X145668857Y-81166952D01*
X146287904Y-80738380D02*
X146287904Y-80976476D01*
X146049809Y-80881238D02*
X146287904Y-80976476D01*
X146526000Y-80881238D01*
X146145047Y-81166952D02*
X146287904Y-80976476D01*
X146430761Y-81166952D01*
X154114666Y-92782380D02*
X153781333Y-92306190D01*
X153543238Y-92782380D02*
X153543238Y-91782380D01*
X153924190Y-91782380D01*
X154019428Y-91830000D01*
X154067047Y-91877619D01*
X154114666Y-91972857D01*
X154114666Y-92115714D01*
X154067047Y-92210952D01*
X154019428Y-92258571D01*
X153924190Y-92306190D01*
X153543238Y-92306190D01*
X154543238Y-92258571D02*
X154876571Y-92258571D01*
X155019428Y-92782380D02*
X154543238Y-92782380D01*
X154543238Y-91782380D01*
X155019428Y-91782380D01*
X155781333Y-92258571D02*
X155448000Y-92258571D01*
X155448000Y-92782380D02*
X155448000Y-91782380D01*
X155924190Y-91782380D01*
X156448000Y-91782380D02*
X156448000Y-92020476D01*
X156209904Y-91925238D02*
X156448000Y-92020476D01*
X156686095Y-91925238D01*
X156305142Y-92210952D02*
X156448000Y-92020476D01*
X156590857Y-92210952D01*
X157209904Y-91782380D02*
X157209904Y-92020476D01*
X156971809Y-91925238D02*
X157209904Y-92020476D01*
X157448000Y-91925238D01*
X157067047Y-92210952D02*
X157209904Y-92020476D01*
X157352761Y-92210952D01*
X154114666Y-90462380D02*
X153781333Y-89986190D01*
X153543238Y-90462380D02*
X153543238Y-89462380D01*
X153924190Y-89462380D01*
X154019428Y-89510000D01*
X154067047Y-89557619D01*
X154114666Y-89652857D01*
X154114666Y-89795714D01*
X154067047Y-89890952D01*
X154019428Y-89938571D01*
X153924190Y-89986190D01*
X153543238Y-89986190D01*
X154543238Y-89938571D02*
X154876571Y-89938571D01*
X155019428Y-90462380D02*
X154543238Y-90462380D01*
X154543238Y-89462380D01*
X155019428Y-89462380D01*
X155781333Y-89938571D02*
X155448000Y-89938571D01*
X155448000Y-90462380D02*
X155448000Y-89462380D01*
X155924190Y-89462380D01*
X156448000Y-89462380D02*
X156448000Y-89700476D01*
X156209904Y-89605238D02*
X156448000Y-89700476D01*
X156686095Y-89605238D01*
X156305142Y-89890952D02*
X156448000Y-89700476D01*
X156590857Y-89890952D01*
X157209904Y-89462380D02*
X157209904Y-89700476D01*
X156971809Y-89605238D02*
X157209904Y-89700476D01*
X157448000Y-89605238D01*
X157067047Y-89890952D02*
X157209904Y-89700476D01*
X157352761Y-89890952D01*
X154114666Y-88690380D02*
X153781333Y-88214190D01*
X153543238Y-88690380D02*
X153543238Y-87690380D01*
X153924190Y-87690380D01*
X154019428Y-87738000D01*
X154067047Y-87785619D01*
X154114666Y-87880857D01*
X154114666Y-88023714D01*
X154067047Y-88118952D01*
X154019428Y-88166571D01*
X153924190Y-88214190D01*
X153543238Y-88214190D01*
X154543238Y-88166571D02*
X154876571Y-88166571D01*
X155019428Y-88690380D02*
X154543238Y-88690380D01*
X154543238Y-87690380D01*
X155019428Y-87690380D01*
X155781333Y-88166571D02*
X155448000Y-88166571D01*
X155448000Y-88690380D02*
X155448000Y-87690380D01*
X155924190Y-87690380D01*
X156448000Y-87690380D02*
X156448000Y-87928476D01*
X156209904Y-87833238D02*
X156448000Y-87928476D01*
X156686095Y-87833238D01*
X156305142Y-88118952D02*
X156448000Y-87928476D01*
X156590857Y-88118952D01*
X157209904Y-87690380D02*
X157209904Y-87928476D01*
X156971809Y-87833238D02*
X157209904Y-87928476D01*
X157448000Y-87833238D01*
X157067047Y-88118952D02*
X157209904Y-87928476D01*
X157352761Y-88118952D01*
X154114666Y-86778380D02*
X153781333Y-86302190D01*
X153543238Y-86778380D02*
X153543238Y-85778380D01*
X153924190Y-85778380D01*
X154019428Y-85826000D01*
X154067047Y-85873619D01*
X154114666Y-85968857D01*
X154114666Y-86111714D01*
X154067047Y-86206952D01*
X154019428Y-86254571D01*
X153924190Y-86302190D01*
X153543238Y-86302190D01*
X154543238Y-86254571D02*
X154876571Y-86254571D01*
X155019428Y-86778380D02*
X154543238Y-86778380D01*
X154543238Y-85778380D01*
X155019428Y-85778380D01*
X155781333Y-86254571D02*
X155448000Y-86254571D01*
X155448000Y-86778380D02*
X155448000Y-85778380D01*
X155924190Y-85778380D01*
X156448000Y-85778380D02*
X156448000Y-86016476D01*
X156209904Y-85921238D02*
X156448000Y-86016476D01*
X156686095Y-85921238D01*
X156305142Y-86206952D02*
X156448000Y-86016476D01*
X156590857Y-86206952D01*
X157209904Y-85778380D02*
X157209904Y-86016476D01*
X156971809Y-85921238D02*
X157209904Y-86016476D01*
X157448000Y-85921238D01*
X157067047Y-86206952D02*
X157209904Y-86016476D01*
X157352761Y-86206952D01*
X134916666Y-100852380D02*
X134583333Y-100376190D01*
X134345238Y-100852380D02*
X134345238Y-99852380D01*
X134726190Y-99852380D01*
X134821428Y-99900000D01*
X134869047Y-99947619D01*
X134916666Y-100042857D01*
X134916666Y-100185714D01*
X134869047Y-100280952D01*
X134821428Y-100328571D01*
X134726190Y-100376190D01*
X134345238Y-100376190D01*
X135345238Y-100328571D02*
X135678571Y-100328571D01*
X135821428Y-100852380D02*
X135345238Y-100852380D01*
X135345238Y-99852380D01*
X135821428Y-99852380D01*
X136583333Y-100328571D02*
X136250000Y-100328571D01*
X136250000Y-100852380D02*
X136250000Y-99852380D01*
X136726190Y-99852380D01*
X137250000Y-99852380D02*
X137250000Y-100090476D01*
X137011904Y-99995238D02*
X137250000Y-100090476D01*
X137488095Y-99995238D01*
X137107142Y-100280952D02*
X137250000Y-100090476D01*
X137392857Y-100280952D01*
X138011904Y-99852380D02*
X138011904Y-100090476D01*
X137773809Y-99995238D02*
X138011904Y-100090476D01*
X138250000Y-99995238D01*
X137869047Y-100280952D02*
X138011904Y-100090476D01*
X138154761Y-100280952D01*
X144666666Y-102152380D02*
X144333333Y-101676190D01*
X144095238Y-102152380D02*
X144095238Y-101152380D01*
X144476190Y-101152380D01*
X144571428Y-101200000D01*
X144619047Y-101247619D01*
X144666666Y-101342857D01*
X144666666Y-101485714D01*
X144619047Y-101580952D01*
X144571428Y-101628571D01*
X144476190Y-101676190D01*
X144095238Y-101676190D01*
X145095238Y-101628571D02*
X145428571Y-101628571D01*
X145571428Y-102152380D02*
X145095238Y-102152380D01*
X145095238Y-101152380D01*
X145571428Y-101152380D01*
X146333333Y-101628571D02*
X146000000Y-101628571D01*
X146000000Y-102152380D02*
X146000000Y-101152380D01*
X146476190Y-101152380D01*
X147000000Y-101152380D02*
X147000000Y-101390476D01*
X146761904Y-101295238D02*
X147000000Y-101390476D01*
X147238095Y-101295238D01*
X146857142Y-101580952D02*
X147000000Y-101390476D01*
X147142857Y-101580952D01*
X147761904Y-101152380D02*
X147761904Y-101390476D01*
X147523809Y-101295238D02*
X147761904Y-101390476D01*
X148000000Y-101295238D01*
X147619047Y-101580952D02*
X147761904Y-101390476D01*
X147904761Y-101580952D01*
X158666666Y-101452380D02*
X158333333Y-100976190D01*
X158095238Y-101452380D02*
X158095238Y-100452380D01*
X158476190Y-100452380D01*
X158571428Y-100500000D01*
X158619047Y-100547619D01*
X158666666Y-100642857D01*
X158666666Y-100785714D01*
X158619047Y-100880952D01*
X158571428Y-100928571D01*
X158476190Y-100976190D01*
X158095238Y-100976190D01*
X159095238Y-100928571D02*
X159428571Y-100928571D01*
X159571428Y-101452380D02*
X159095238Y-101452380D01*
X159095238Y-100452380D01*
X159571428Y-100452380D01*
X160333333Y-100928571D02*
X160000000Y-100928571D01*
X160000000Y-101452380D02*
X160000000Y-100452380D01*
X160476190Y-100452380D01*
X161000000Y-100452380D02*
X161000000Y-100690476D01*
X160761904Y-100595238D02*
X161000000Y-100690476D01*
X161238095Y-100595238D01*
X160857142Y-100880952D02*
X161000000Y-100690476D01*
X161142857Y-100880952D01*
X161761904Y-100452380D02*
X161761904Y-100690476D01*
X161523809Y-100595238D02*
X161761904Y-100690476D01*
X162000000Y-100595238D01*
X161619047Y-100880952D02*
X161761904Y-100690476D01*
X161904761Y-100880952D01*
G04 #@! TD*
M02*
