<?xml version="1.0" standalone="no"?>
 <!DOCTYPE svg PUBLIC "-//W3C//DTD SVG 1.1//EN" 
 "http://www.w3.org/Graphics/SVG/1.1/DTD/svg11.dtd"> 
<svg xmlns="http://www.w3.org/2000/svg" version="1.1" 
    width="29.7002cm" height="21.0007cm" viewBox="0 0 116930 82680 ">
<title>SVG Picture created as progfpc24-F_Mask.svg date 2019/06/25 14:26:13 </title>
  <desc>Picture generated by PCBNEW </desc>
<g style="fill:#000000; fill-opacity:1;stroke:#000000; stroke-opacity:1;
stroke-linecap:round; stroke-linejoin:round; "
 transform="translate(0 0) scale(1 1)">
</g>
<g style="fill:#000000; fill-opacity:0.0; 
stroke:#000000; stroke-width:-0.000393701; stroke-opacity:1; 
stroke-linecap:round; stroke-linejoin:round;">
</g>
<g style="fill:#000000; fill-opacity:1.0; 
stroke:#000000; stroke-width:0; stroke-opacity:1; 
stroke-linecap:round; stroke-linejoin:round;">
<path style="fill:#000000; fill-opacity:1.0; 
stroke:#000000; stroke-width:0; stroke-opacity:1; 
stroke-linecap:round; stroke-linejoin:round;fill-rule:evenodd;"
d="M 62122,43685
62054,43713
62054,43713
61992,43754
61940,43806
61940,43806
61899,43868
61871,43936
61857,44008
61857,44082
61871,44154
61899,44223
61899,44223
61940,44284
61992,44336
62023,44357
62054,44377
62122,44405
62194,44420
62268,44420
62340,44405
62408,44377
62439,44357
62470,44336
62522,44284
62563,44223
62563,44223
62591,44154
62605,44082
62605,44008
62591,43936
62563,43868
62522,43806
62522,43806
62470,43754
62408,43713
62408,43713
62340,43685
62268,43671
62194,43671
62122,43685
Z" /> 
<path style="fill:#000000; fill-opacity:1.0; 
stroke:#000000; stroke-width:0; stroke-opacity:1; 
stroke-linecap:round; stroke-linejoin:round;fill-rule:evenodd;"
d="M 62122,42685
62054,42713
62054,42713
61992,42754
61940,42806
61940,42806
61899,42868
61871,42936
61857,43008
61857,43082
61871,43154
61899,43223
61899,43223
61940,43284
61992,43336
62023,43357
62054,43377
62122,43405
62194,43420
62268,43420
62340,43405
62408,43377
62439,43357
62470,43336
62522,43284
62563,43223
62563,43223
62591,43154
62605,43082
62605,43008
62591,42936
62563,42868
62522,42806
62522,42806
62470,42754
62408,42713
62408,42713
62340,42685
62268,42671
62194,42671
62122,42685
Z" /> 
<path style="fill:#000000; fill-opacity:1.0; 
stroke:#000000; stroke-width:0; stroke-opacity:1; 
stroke-linecap:round; stroke-linejoin:round;fill-rule:evenodd;"
d="M 62122,41685
62054,41713
62054,41713
61992,41754
61940,41806
61940,41806
61899,41868
61871,41936
61857,42008
61857,42082
61871,42154
61899,42223
61899,42223
61940,42284
61992,42336
62023,42357
62054,42377
62122,42405
62194,42420
62268,42420
62340,42405
62408,42377
62439,42357
62470,42336
62522,42284
62563,42223
62563,42223
62591,42154
62605,42082
62605,42008
62591,41936
62563,41868
62522,41806
62522,41806
62470,41754
62408,41713
62408,41713
62340,41685
62268,41671
62194,41671
62122,41685
Z" /> 
<path style="fill:#000000; fill-opacity:1.0; 
stroke:#000000; stroke-width:0; stroke-opacity:1; 
stroke-linecap:round; stroke-linejoin:round;fill-rule:evenodd;"
d="M 62122,40685
62054,40713
62054,40713
61992,40754
61940,40806
61940,40806
61899,40868
61871,40936
61857,41008
61857,41082
61871,41154
61899,41223
61899,41223
61940,41284
61992,41336
62023,41357
62054,41377
62122,41405
62194,41420
62268,41420
62340,41405
62408,41377
62439,41357
62470,41336
62522,41284
62563,41223
62563,41223
62591,41154
62605,41082
62605,41008
62591,40936
62563,40868
62522,40806
62522,40806
62470,40754
62408,40713
62408,40713
62340,40685
62268,40671
62194,40671
62122,40685
Z" /> 
<path style="fill:#000000; fill-opacity:1.0; 
stroke:#000000; stroke-width:0; stroke-opacity:1; 
stroke-linecap:round; stroke-linejoin:round;fill-rule:evenodd;"
d="M 62122,39685
62054,39713
62054,39713
61992,39754
61940,39806
61940,39806
61899,39868
61871,39936
61857,40008
61857,40082
61871,40154
61899,40223
61899,40223
61940,40284
61992,40336
62023,40357
62054,40377
62122,40405
62194,40420
62268,40420
62340,40405
62408,40377
62439,40357
62470,40336
62522,40284
62563,40223
62563,40223
62591,40154
62605,40082
62605,40008
62591,39936
62563,39868
62522,39806
62522,39806
62470,39754
62408,39713
62408,39713
62340,39685
62268,39671
62194,39671
62122,39685
Z" /> 
<path style="fill:#000000; fill-opacity:1.0; 
stroke:#000000; stroke-width:0; stroke-opacity:1; 
stroke-linecap:round; stroke-linejoin:round;fill-rule:evenodd;"
d="M 62122,38685
62054,38713
62054,38713
61992,38754
61940,38806
61940,38806
61899,38868
61871,38936
61857,39008
61857,39082
61871,39154
61899,39223
61899,39223
61940,39284
61992,39336
62023,39357
62054,39377
62122,39405
62194,39420
62268,39420
62340,39405
62408,39377
62439,39357
62470,39336
62522,39284
62563,39223
62563,39223
62591,39154
62605,39082
62605,39008
62591,38936
62563,38868
62522,38806
62522,38806
62470,38754
62408,38713
62408,38713
62340,38685
62268,38671
62194,38671
62122,38685
Z" /> 
<path style="fill:#000000; fill-opacity:1.0; 
stroke:#000000; stroke-width:0; stroke-opacity:1; 
stroke-linecap:round; stroke-linejoin:round;fill-rule:evenodd;"
d="M 62122,37685
62054,37713
62054,37713
61992,37754
61940,37806
61940,37806
61899,37868
61871,37936
61857,38008
61857,38082
61871,38154
61899,38223
61899,38223
61940,38284
61992,38336
62023,38357
62054,38377
62122,38405
62194,38420
62268,38420
62340,38405
62408,38377
62439,38357
62470,38336
62522,38284
62563,38223
62563,38223
62591,38154
62605,38082
62605,38008
62591,37936
62563,37868
62522,37806
62522,37806
62470,37754
62408,37713
62408,37713
62340,37685
62268,37671
62194,37671
62122,37685
Z" /> 
<path style="fill:#000000; fill-opacity:1.0; 
stroke:#000000; stroke-width:0; stroke-opacity:1; 
stroke-linecap:round; stroke-linejoin:round;fill-rule:evenodd;"
d="M 62122,36685
62054,36713
62054,36713
61992,36754
61940,36806
61940,36806
61899,36868
61871,36936
61857,37008
61857,37082
61871,37154
61899,37223
61899,37223
61940,37284
61992,37336
62023,37357
62054,37377
62122,37405
62194,37420
62268,37420
62340,37405
62408,37377
62439,37357
62470,37336
62522,37284
62563,37223
62563,37223
62591,37154
62605,37082
62605,37008
62591,36936
62563,36868
62522,36806
62522,36806
62470,36754
62408,36713
62408,36713
62340,36685
62268,36671
62194,36671
62122,36685
Z" /> 
<path style="fill:#000000; fill-opacity:1.0; 
stroke:#000000; stroke-width:0; stroke-opacity:1; 
stroke-linecap:round; stroke-linejoin:round;fill-rule:evenodd;"
d="M 62122,35685
62054,35713
62054,35713
61992,35754
61940,35806
61940,35806
61899,35868
61871,35936
61857,36008
61857,36082
61871,36154
61899,36223
61899,36223
61940,36284
61992,36336
62023,36357
62054,36377
62122,36405
62194,36420
62268,36420
62340,36405
62408,36377
62439,36357
62470,36336
62522,36284
62563,36223
62563,36223
62591,36154
62605,36082
62605,36008
62591,35936
62563,35868
62522,35806
62522,35806
62470,35754
62408,35713
62408,35713
62340,35685
62268,35671
62194,35671
62122,35685
Z" /> 
<path style="fill:#000000; fill-opacity:1.0; 
stroke:#000000; stroke-width:0; stroke-opacity:1; 
stroke-linecap:round; stroke-linejoin:round;fill-rule:evenodd;"
d="M 62122,34685
62054,34713
62054,34713
61992,34754
61940,34806
61940,34806
61899,34868
61871,34936
61857,35008
61857,35082
61871,35154
61899,35223
61899,35223
61940,35284
61992,35336
62023,35357
62054,35377
62122,35405
62194,35420
62268,35420
62340,35405
62408,35377
62439,35357
62470,35336
62522,35284
62563,35223
62563,35223
62591,35154
62605,35082
62605,35008
62591,34936
62563,34868
62522,34806
62522,34806
62470,34754
62408,34713
62408,34713
62340,34685
62268,34671
62194,34671
62122,34685
Z" /> 
<path style="fill:#000000; fill-opacity:1.0; 
stroke:#000000; stroke-width:0; stroke-opacity:1; 
stroke-linecap:round; stroke-linejoin:round;fill-rule:evenodd;"
d="M 55728,34901
56083,34901
56083,30255
55728,30255
55728,34901
Z" /> 
<path style="fill:#000000; fill-opacity:1.0; 
stroke:#000000; stroke-width:0; stroke-opacity:1; 
stroke-linecap:round; stroke-linejoin:round;fill-rule:evenodd;"
d="M 62122,33685
62054,33713
62023,33734
61992,33754
61940,33806
61940,33806
61899,33868
61871,33936
61857,34008
61857,34082
61871,34154
61899,34223
61899,34223
61940,34284
61992,34336
62023,34357
62054,34377
62122,34405
62194,34420
62268,34420
62340,34405
62408,34377
62439,34357
62470,34336
62522,34284
62563,34223
62563,34223
62591,34154
62605,34082
62605,34008
62591,33936
62563,33868
62522,33806
62522,33806
62470,33754
62439,33734
62408,33713
62340,33685
62268,33671
62194,33671
62122,33685
Z" /> 
<path style="fill:#000000; fill-opacity:1.0; 
stroke:#000000; stroke-width:0; stroke-opacity:1; 
stroke-linecap:round; stroke-linejoin:round;fill-rule:evenodd;"
d="M 62122,32685
62054,32713
62054,32713
61992,32754
61940,32806
61940,32806
61899,32868
61871,32936
61857,33008
61857,33082
61871,33154
61899,33223
61899,33223
61940,33284
61992,33336
62023,33357
62054,33377
62122,33405
62194,33420
62268,33420
62340,33405
62408,33377
62439,33357
62470,33336
62522,33284
62563,33223
62563,33223
62591,33154
62605,33082
62605,33008
62591,32936
62563,32868
62522,32806
62522,32806
62470,32754
62408,32713
62408,32713
62340,32685
62268,32671
62194,32671
62122,32685
Z" /> 
<path style="fill:#000000; fill-opacity:1.0; 
stroke:#000000; stroke-width:0; stroke-opacity:1; 
stroke-linecap:round; stroke-linejoin:round;fill-rule:evenodd;"
d="M 62122,31685
62054,31713
62054,31713
61992,31754
61940,31806
61940,31806
61899,31868
61871,31936
61857,32008
61857,32082
61871,32154
61899,32223
61899,32223
61940,32284
61992,32336
62002,32342
62054,32377
62122,32405
62194,32420
62268,32420
62340,32405
62408,32377
62460,32342
62470,32336
62522,32284
62563,32223
62563,32223
62591,32154
62605,32082
62605,32008
62591,31936
62563,31868
62522,31806
62522,31806
62470,31754
62408,31713
62408,31713
62340,31685
62268,31671
62194,31671
62122,31685
Z" /> 
<path style="fill:#000000; fill-opacity:1.0; 
stroke:#000000; stroke-width:0; stroke-opacity:1; 
stroke-linecap:round; stroke-linejoin:round;fill-rule:evenodd;"
d="M 62122,30685
62054,30713
62054,30713
61992,30754
61940,30806
61940,30806
61899,30868
61871,30936
61857,31008
61857,31082
61871,31154
61899,31223
61920,31253
61940,31284
61992,31336
62023,31357
62054,31377
62122,31405
62194,31420
62268,31420
62340,31405
62408,31377
62439,31357
62470,31336
62522,31284
62543,31253
62563,31223
62591,31154
62605,31082
62605,31008
62591,30936
62563,30868
62522,30806
62522,30806
62470,30754
62408,30713
62408,30713
62340,30685
62268,30671
62194,30671
62122,30685
Z" /> 
<path style="fill:#000000; fill-opacity:1.0; 
stroke:#000000; stroke-width:0; stroke-opacity:1; 
stroke-linecap:round; stroke-linejoin:round;fill-rule:evenodd;"
d="M 62122,29685
62054,29713
62054,29713
61992,29754
61940,29806
61940,29806
61899,29868
61871,29936
61857,30008
61857,30082
61871,30154
61899,30223
61899,30223
61940,30284
61992,30336
62023,30357
62054,30377
62122,30405
62194,30420
62268,30420
62340,30405
62408,30377
62439,30357
62470,30336
62522,30284
62563,30223
62563,30223
62591,30154
62605,30082
62605,30008
62591,29936
62563,29868
62522,29806
62522,29806
62470,29754
62408,29713
62408,29713
62340,29685
62268,29671
62194,29671
62122,29685
Z" /> 
<path style="fill:#000000; fill-opacity:1.0; 
stroke:#000000; stroke-width:0; stroke-opacity:1; 
stroke-linecap:round; stroke-linejoin:round;fill-rule:evenodd;"
d="M 62122,28685
62054,28713
62054,28713
61992,28754
61940,28806
61940,28806
61899,28868
61871,28936
61857,29008
61857,29082
61871,29154
61899,29223
61899,29223
61940,29284
61992,29336
62023,29357
62054,29377
62122,29405
62194,29420
62268,29420
62340,29405
62408,29377
62439,29357
62470,29336
62522,29284
62563,29223
62563,29223
62591,29154
62605,29082
62605,29008
62591,28936
62563,28868
62522,28806
62522,28806
62470,28754
62408,28713
62408,28713
62340,28685
62268,28671
62194,28671
62122,28685
Z" /> 
<path style="fill:#000000; fill-opacity:1.0; 
stroke:#000000; stroke-width:0; stroke-opacity:1; 
stroke-linecap:round; stroke-linejoin:round;fill-rule:evenodd;"
d="M 62122,27685
62054,27713
62054,27713
61992,27754
61940,27806
61940,27806
61899,27868
61871,27936
61857,28008
61857,28082
61871,28154
61899,28223
61899,28223
61940,28284
61992,28336
62023,28357
62054,28377
62122,28405
62194,28420
62268,28420
62340,28405
62408,28377
62439,28357
62470,28336
62522,28284
62563,28223
62563,28223
62591,28154
62605,28082
62605,28008
62591,27936
62563,27868
62522,27806
62522,27806
62470,27754
62408,27713
62408,27713
62340,27685
62268,27671
62194,27671
62122,27685
Z" /> 
<path style="fill:#000000; fill-opacity:1.0; 
stroke:#000000; stroke-width:0; stroke-opacity:1; 
stroke-linecap:round; stroke-linejoin:round;fill-rule:evenodd;"
d="M 62122,26685
62054,26713
62054,26713
61992,26754
61940,26806
61940,26806
61899,26868
61871,26936
61857,27008
61857,27082
61871,27154
61899,27223
61899,27223
61940,27284
61992,27336
62023,27357
62054,27377
62122,27405
62194,27420
62268,27420
62340,27405
62408,27377
62439,27357
62470,27336
62522,27284
62563,27223
62563,27223
62591,27154
62605,27082
62605,27008
62591,26936
62563,26868
62522,26806
62522,26806
62470,26754
62408,26713
62408,26713
62340,26685
62268,26671
62194,26671
62122,26685
Z" /> 
<path style="fill:#000000; fill-opacity:1.0; 
stroke:#000000; stroke-width:0; stroke-opacity:1; 
stroke-linecap:round; stroke-linejoin:round;fill-rule:evenodd;"
d="M 62122,25685
62054,25713
62054,25713
61992,25754
61940,25806
61940,25806
61899,25868
61871,25936
61857,26008
61857,26082
61871,26154
61899,26223
61899,26223
61940,26284
61992,26336
62023,26357
62054,26377
62122,26405
62194,26420
62268,26420
62340,26405
62408,26377
62439,26357
62470,26336
62522,26284
62563,26223
62563,26223
62591,26154
62605,26082
62605,26008
62591,25936
62563,25868
62522,25806
62522,25806
62470,25754
62408,25713
62408,25713
62340,25685
62268,25671
62194,25671
62122,25685
Z" /> 
<path style="fill:#000000; fill-opacity:1.0; 
stroke:#000000; stroke-width:0; stroke-opacity:1; 
stroke-linecap:round; stroke-linejoin:round;fill-rule:evenodd;"
d="M 62122,24685
62054,24713
62054,24713
61992,24754
61940,24806
61940,24806
61899,24868
61871,24936
61857,25008
61857,25082
61871,25154
61899,25223
61899,25223
61940,25284
61992,25336
62023,25357
62054,25377
62122,25405
62194,25420
62268,25420
62340,25405
62408,25377
62439,25357
62470,25336
62522,25284
62563,25223
62563,25223
62591,25154
62605,25082
62605,25008
62591,24936
62563,24868
62522,24806
62522,24806
62470,24754
62408,24713
62408,24713
62340,24685
62268,24671
62194,24671
62122,24685
Z" /> 
<path style="fill:#000000; fill-opacity:1.0; 
stroke:#000000; stroke-width:0; stroke-opacity:1; 
stroke-linecap:round; stroke-linejoin:round;fill-rule:evenodd;"
d="M 62122,23685
62054,23713
62054,23713
61992,23754
61940,23806
61940,23806
61899,23868
61871,23936
61857,24008
61857,24082
61871,24154
61899,24223
61899,24223
61940,24284
61992,24336
62023,24357
62054,24377
62122,24405
62194,24420
62268,24420
62340,24405
62408,24377
62439,24357
62470,24336
62522,24284
62563,24223
62563,24223
62591,24154
62605,24082
62605,24008
62591,23936
62563,23868
62522,23806
62522,23806
62470,23754
62408,23713
62408,23713
62340,23685
62268,23671
62194,23671
62122,23685
Z" /> 
<path style="fill:#000000; fill-opacity:1.0; 
stroke:#000000; stroke-width:0; stroke-opacity:1; 
stroke-linecap:round; stroke-linejoin:round;fill-rule:evenodd;"
d="M 62122,22685
62054,22713
62054,22713
61992,22754
61940,22806
61940,22806
61899,22868
61871,22936
61857,23008
61857,23082
61871,23154
61899,23223
61899,23223
61940,23284
61992,23336
62023,23357
62054,23377
62122,23405
62194,23420
62268,23420
62340,23405
62408,23377
62439,23357
62470,23336
62522,23284
62563,23223
62563,23223
62591,23154
62605,23082
62605,23008
62591,22936
62563,22868
62522,22806
62522,22806
62470,22754
62408,22713
62408,22713
62340,22685
62268,22671
62194,22671
62122,22685
Z" /> 
<path style="fill:#000000; fill-opacity:1.0; 
stroke:#000000; stroke-width:0; stroke-opacity:1; 
stroke-linecap:round; stroke-linejoin:round;fill-rule:evenodd;"
d="M 62122,21685
62054,21713
62054,21713
61992,21754
61940,21806
61940,21806
61899,21868
61871,21936
61857,22008
61857,22082
61871,22154
61899,22223
61899,22223
61940,22284
61992,22336
62023,22357
62054,22377
62122,22405
62194,22420
62268,22420
62340,22405
62408,22377
62439,22357
62470,22336
62522,22284
62563,22223
62563,22223
62591,22154
62605,22082
62605,22008
62591,21936
62563,21868
62522,21806
62522,21806
62470,21754
62408,21713
62408,21713
62340,21685
62268,21671
62194,21671
62122,21685
Z" /> 
<path style="fill:#000000; fill-opacity:1.0; 
stroke:#000000; stroke-width:0; stroke-opacity:1; 
stroke-linecap:round; stroke-linejoin:round;fill-rule:evenodd;"
d="M 62122,20685
62054,20713
62054,20713
61992,20754
61940,20806
61940,20806
61899,20868
61871,20936
61857,21008
61857,21082
61871,21154
61899,21223
61899,21223
61940,21284
61992,21336
62023,21357
62054,21377
62122,21405
62194,21420
62268,21420
62340,21405
62408,21377
62439,21357
62470,21336
62522,21284
62563,21223
62563,21223
62591,21154
62605,21082
62605,21008
62591,20936
62563,20868
62522,20806
62522,20806
62470,20754
62408,20713
62408,20713
62340,20685
62268,20671
62194,20671
62122,20685
Z" /> 
</g> 
</svg>
