G04 #@! TF.GenerationSoftware,KiCad,Pcbnew,5.1.2-f72e74a~84~ubuntu18.04.1*
G04 #@! TF.CreationDate,2019-05-02T14:33:04+08:00*
G04 #@! TF.ProjectId,epaper,65706170-6572-42e6-9b69-6361645f7063,rev?*
G04 #@! TF.SameCoordinates,Original*
G04 #@! TF.FileFunction,Copper,L1,Top*
G04 #@! TF.FilePolarity,Positive*
%FSLAX46Y46*%
G04 Gerber Fmt 4.6, Leading zero omitted, Abs format (unit mm)*
G04 Created by KiCad (PCBNEW 5.1.2-f72e74a~84~ubuntu18.04.1) date 2019-05-02 14:33:04*
%MOMM*%
%LPD*%
G04 APERTURE LIST*
%ADD10R,1.500000X1.250000*%
%ADD11C,2.500000*%
%ADD12C,2.000000*%
%ADD13R,1.250000X1.500000*%
%ADD14R,1.524000X1.524000*%
%ADD15C,1.524000*%
%ADD16C,0.400000*%
G04 APERTURE END LIST*
D10*
X115750000Y-68000000D03*
X118250000Y-68000000D03*
D11*
X108000000Y-85000000D03*
X113000000Y-85000000D03*
D12*
X107700000Y-67450000D03*
X105200000Y-67450000D03*
X102700000Y-67450000D03*
X100200000Y-67450000D03*
X97700000Y-67450000D03*
X95200000Y-67450000D03*
X85000000Y-63000000D03*
X87500000Y-63000000D03*
X90000000Y-63000000D03*
X92500000Y-63000000D03*
X95000000Y-63000000D03*
X97500000Y-63000000D03*
X100000000Y-63000000D03*
X102500000Y-63000000D03*
X107000000Y-63000000D03*
X109500000Y-63000000D03*
X112000000Y-63000000D03*
X114500000Y-63000000D03*
D10*
X120750000Y-84000000D03*
X123250000Y-84000000D03*
X110750000Y-68000000D03*
X113250000Y-68000000D03*
D13*
X105000000Y-85250000D03*
X105000000Y-82750000D03*
D14*
X123070000Y-80120000D03*
D15*
X120530000Y-80120000D03*
X117990000Y-80120000D03*
X115450000Y-80120000D03*
X112910000Y-80120000D03*
X110370000Y-80120000D03*
X107830000Y-80120000D03*
X105290000Y-80120000D03*
X102750000Y-80120000D03*
X100210000Y-80120000D03*
X97670000Y-80120000D03*
X95130000Y-80120000D03*
X92590000Y-80120000D03*
X90050000Y-80120000D03*
X90050000Y-72500000D03*
X92590000Y-72500000D03*
X95130000Y-72500000D03*
X97670000Y-72500000D03*
X100210000Y-72500000D03*
X102750000Y-72500000D03*
X105290000Y-72500000D03*
X107830000Y-72500000D03*
X110370000Y-72500000D03*
X112910000Y-72500000D03*
X115450000Y-72500000D03*
X117990000Y-72500000D03*
X120530000Y-72500000D03*
X123070000Y-72500000D03*
D16*
X102500000Y-63000000D02*
X107000000Y-63000000D01*
X107000000Y-66750000D02*
X107700000Y-67450000D01*
X107000000Y-63000000D02*
X107000000Y-66750000D01*
X107700000Y-72370000D02*
X107830000Y-72500000D01*
X107700000Y-67450000D02*
X107700000Y-72370000D01*
X105000000Y-80410000D02*
X105290000Y-80120000D01*
X105000000Y-82750000D02*
X105000000Y-80410000D01*
X104200001Y-66450001D02*
X105200000Y-67450000D01*
X102250001Y-64500001D02*
X104200001Y-66450001D01*
X101500001Y-64500001D02*
X102250001Y-64500001D01*
X100000000Y-63000000D02*
X101500001Y-64500001D01*
X100999999Y-62000001D02*
X100000000Y-63000000D01*
X102000000Y-61000000D02*
X100999999Y-62000001D01*
X107500000Y-61000000D02*
X102000000Y-61000000D01*
X109500000Y-63000000D02*
X107500000Y-61000000D01*
X105200000Y-72410000D02*
X105290000Y-72500000D01*
X105200000Y-67450000D02*
X105200000Y-72410000D01*
X105290000Y-72500000D02*
X102750000Y-72500000D01*
X105290000Y-77580000D02*
X107830000Y-80120000D01*
X105290000Y-72500000D02*
X105290000Y-77580000D01*
X119750000Y-85000000D02*
X120750000Y-84000000D01*
X113000000Y-85000000D02*
X119750000Y-85000000D01*
X114172001Y-80725761D02*
X114172001Y-79172001D01*
X113000000Y-85000000D02*
X113000000Y-81897762D01*
X113000000Y-81897762D02*
X114172001Y-80725761D01*
X114172001Y-79172001D02*
X112000000Y-77000000D01*
X110950000Y-77000000D02*
X107830000Y-80120000D01*
X112000000Y-77000000D02*
X110950000Y-77000000D01*
X118250000Y-64529998D02*
X114720002Y-61000000D01*
X118250000Y-68000000D02*
X118250000Y-64529998D01*
X111500000Y-61000000D02*
X109500000Y-63000000D01*
X114720002Y-61000000D02*
X111500000Y-61000000D01*
X109500000Y-63000000D02*
X109500000Y-64500000D01*
X110750000Y-65750000D02*
X110750000Y-68000000D01*
X109500000Y-64500000D02*
X110750000Y-65750000D01*
X123070000Y-83820000D02*
X123250000Y-84000000D01*
X123070000Y-80120000D02*
X123070000Y-83820000D01*
X101700001Y-68449999D02*
X102700000Y-67450000D01*
X101487999Y-68662001D02*
X101700001Y-68449999D01*
X123070000Y-80120000D02*
X123070000Y-83955002D01*
X104224999Y-86750001D02*
X101487999Y-84013001D01*
X120374999Y-86750001D02*
X104224999Y-86750001D01*
X101487999Y-84013001D02*
X101487999Y-83487999D01*
X123125000Y-84000000D02*
X120374999Y-86750001D01*
X123250000Y-84000000D02*
X123125000Y-84000000D01*
X101487999Y-84208001D02*
X101487999Y-83487999D01*
X101487999Y-83487999D02*
X101487999Y-68662001D01*
X100200000Y-72490000D02*
X100210000Y-72500000D01*
X100200000Y-67450000D02*
X100200000Y-72490000D01*
X100200000Y-66035787D02*
X99164213Y-65000000D01*
X100200000Y-67450000D02*
X100200000Y-66035787D01*
X99164213Y-64664213D02*
X97500000Y-63000000D01*
X99164213Y-65000000D02*
X99164213Y-64664213D01*
X97700000Y-72470000D02*
X97670000Y-72500000D01*
X97700000Y-67450000D02*
X97700000Y-72470000D01*
X95000000Y-67250000D02*
X95200000Y-67450000D01*
X95000000Y-63000000D02*
X95000000Y-67250000D01*
X95200000Y-68864213D02*
X95000000Y-69064213D01*
X95200000Y-67450000D02*
X95200000Y-68864213D01*
X95130000Y-69194213D02*
X95130000Y-72500000D01*
X95000000Y-69064213D02*
X95130000Y-69194213D01*
X85000000Y-76937762D02*
X87000000Y-78937762D01*
X85000000Y-63000000D02*
X85000000Y-76937762D01*
X87000000Y-78937762D02*
X87000000Y-80000000D01*
X87000000Y-80000000D02*
X90000000Y-83000000D01*
X90000000Y-83000000D02*
X91000000Y-83000000D01*
X92590000Y-81410000D02*
X92590000Y-80120000D01*
X91000000Y-83000000D02*
X92590000Y-81410000D01*
X87500000Y-77570000D02*
X90050000Y-80120000D01*
X87500000Y-63000000D02*
X87500000Y-77570000D01*
X90000000Y-72450000D02*
X90050000Y-72500000D01*
X90000000Y-63000000D02*
X90000000Y-72450000D01*
X92500000Y-72410000D02*
X92590000Y-72500000D01*
X92500000Y-63000000D02*
X92500000Y-72410000D01*
X112000000Y-63000000D02*
X112000000Y-65000000D01*
X113250000Y-66250000D02*
X113250000Y-68000000D01*
X112000000Y-65000000D02*
X113250000Y-66250000D01*
X120530000Y-72500000D02*
X119030000Y-71000000D01*
X116375000Y-71000000D02*
X113375000Y-68000000D01*
X113375000Y-68000000D02*
X113250000Y-68000000D01*
X119030000Y-71000000D02*
X116375000Y-71000000D01*
X123070000Y-72445000D02*
X123070000Y-72500000D01*
X114500000Y-63000000D02*
X114500000Y-64500000D01*
X115750000Y-65750000D02*
X115750000Y-68000000D01*
X114500000Y-64500000D02*
X115750000Y-65750000D01*
X117875000Y-70000000D02*
X115875000Y-68000000D01*
X121237999Y-71237999D02*
X120000000Y-70000000D01*
X115875000Y-68000000D02*
X115750000Y-68000000D01*
X120000000Y-70000000D02*
X117875000Y-70000000D01*
X121807999Y-71237999D02*
X121237999Y-71237999D01*
X123070000Y-72500000D02*
X121807999Y-71237999D01*
X108030000Y-85000000D02*
X108000000Y-85000000D01*
X112910000Y-80120000D02*
X108030000Y-85000000D01*
X105250000Y-85000000D02*
X105000000Y-85250000D01*
X108000000Y-85000000D02*
X105250000Y-85000000D01*
M02*
