<?xml version="1.0" standalone="no"?>
 <!DOCTYPE svg PUBLIC "-//W3C//DTD SVG 1.1//EN" 
 "http://www.w3.org/Graphics/SVG/1.1/DTD/svg11.dtd"> 
<svg xmlns="http://www.w3.org/2000/svg" version="1.1" 
    width="29.7002cm" height="21.0007cm" viewBox="0 0 116930 82680 ">
<title>SVG Picture created as Light Switch-F.Cu.svg date 2019/03/12 21:44:26 </title>
  <desc>Picture generated by PCBNEW </desc>
<g style="fill:#000000; fill-opacity:1;stroke:#000000; stroke-opacity:1;
stroke-linecap:round; stroke-linejoin:round; "
 transform="translate(0 0) scale(1 1)">
</g>
<g style="fill:#000000; fill-opacity:0.0; 
stroke:#000000; stroke-width:-0.000393701; stroke-opacity:1; 
stroke-linecap:round; stroke-linejoin:round;">
</g>
<g style="fill:#000000; fill-opacity:0.0; 
stroke:#000000; stroke-width:0; stroke-opacity:1; 
stroke-linecap:round; stroke-linejoin:round;">
</g>
<g style="fill:#000000; fill-opacity:1.0; 
stroke:#000000; stroke-width:0; stroke-opacity:1; 
stroke-linecap:round; stroke-linejoin:round;">
<polyline style="fill-rule:evenodd;"
points="50354,33424
50363,33426
50373,33428
50382,33431
50390,33436
50399,33440
50406,33446
50414,33453
50420,33460
50426,33468
50431,33476
50435,33485
50438,33494
50441,33503
50442,33513
50442,33522
50442,33877
50442,33886
50441,33896
50438,33905
50435,33914
50431,33923
50426,33931
50420,33939
50414,33946
50406,33953
50399,33959
50390,33963
50382,33968
50373,33971
50363,33973
50354,33975
50344,33975
50088,33975
50078,33975
50069,33973
50060,33971
50050,33968
50042,33963
50033,33959
50026,33953
50018,33946
50012,33939
50006,33931
50001,33923
49997,33914
49994,33905
49992,33896
49990,33886
49990,33877
49990,33522
49990,33513
49992,33503
49994,33494
49997,33485
50001,33476
50006,33468
50012,33460
50018,33453
50026,33446
50033,33440
50042,33436
50050,33431
50060,33428
50069,33426
50078,33424
50088,33424
50344,33424
50354,33424
" /> 
<polyline style="fill-rule:evenodd;"
points="49547,33424
49556,33426
49565,33428
49575,33431
49583,33436
49592,33440
49599,33446
49606,33453
49613,33460
49619,33468
49624,33476
49628,33485
49631,33494
49633,33503
49635,33513
49635,33522
49635,33877
49635,33886
49633,33896
49631,33905
49628,33914
49624,33923
49619,33931
49613,33939
49606,33946
49599,33953
49592,33959
49583,33963
49575,33968
49565,33971
49556,33973
49547,33975
49537,33975
49281,33975
49271,33975
49262,33973
49252,33971
49243,33968
49235,33963
49226,33959
49219,33953
49211,33946
49205,33939
49199,33931
49194,33923
49190,33914
49187,33905
49184,33896
49183,33886
49183,33877
49183,33522
49183,33513
49184,33503
49187,33494
49190,33485
49194,33476
49199,33468
49205,33460
49211,33453
49219,33446
49226,33440
49235,33436
49243,33431
49252,33428
49262,33426
49271,33424
49281,33424
49537,33424
49547,33424
" /> 
<polyline style="fill-rule:evenodd;"
points="50531,44803
50540,44805
50550,44807
50559,44810
50568,44814
50576,44819
50584,44825
50591,44831
50597,44839
50603,44846
50608,44855
50612,44863
50615,44873
50618,44882
50619,44891
50620,44901
50620,45255
50619,45265
50618,45275
50615,45284
50612,45293
50608,45302
50603,45310
50597,45318
50591,45325
50584,45331
50576,45337
50568,45342
50559,45346
50550,45350
50540,45352
50531,45353
50521,45354
50265,45354
50256,45353
50246,45352
50237,45350
50228,45346
50219,45342
50211,45337
50203,45331
50196,45325
50189,45318
50183,45310
50178,45302
50174,45293
50171,45284
50169,45275
50167,45265
50167,45255
50167,44901
50167,44891
50169,44882
50171,44873
50174,44863
50178,44855
50183,44846
50189,44839
50196,44831
50203,44825
50211,44819
50219,44814
50228,44810
50237,44807
50246,44805
50256,44803
50265,44803
50521,44803
50531,44803
" /> 
<polyline style="fill-rule:evenodd;"
points="49724,44803
49733,44805
49743,44807
49752,44810
49760,44814
49769,44819
49777,44825
49784,44831
49790,44839
49796,44846
49801,44855
49805,44863
49808,44873
49811,44882
49812,44891
49812,44901
49812,45255
49812,45265
49811,45275
49808,45284
49805,45293
49801,45302
49796,45310
49790,45318
49784,45325
49777,45331
49769,45337
49760,45342
49752,45346
49743,45350
49733,45352
49724,45353
49714,45354
49458,45354
49449,45353
49439,45352
49430,45350
49420,45346
49412,45342
49403,45337
49396,45331
49389,45325
49382,45318
49376,45310
49371,45302
49367,45293
49364,45284
49362,45275
49360,45265
49360,45255
49360,44901
49360,44891
49362,44882
49364,44873
49367,44863
49371,44855
49376,44846
49382,44839
49389,44831
49396,44825
49403,44819
49412,44814
49420,44810
49430,44807
49439,44805
49449,44803
49458,44803
49714,44803
49724,44803
" /> 
<polyline style="fill-rule:evenodd;"
points="49730,46224
49740,46226
49749,46228
49758,46231
49767,46236
49775,46240
49783,46246
49790,46253
49796,46260
49802,46268
49807,46276
49811,46285
49815,46294
49817,46303
49818,46313
49819,46322
49819,46677
49818,46686
49817,46696
49815,46705
49811,46714
49807,46723
49802,46731
49796,46739
49790,46746
49783,46753
49775,46759
49767,46763
49758,46768
49749,46771
49740,46773
49730,46775
49720,46775
49464,46775
49455,46775
49445,46773
49436,46771
49427,46768
49418,46763
49410,46759
49402,46753
49395,46746
49388,46739
49383,46731
49378,46723
49374,46714
49370,46705
49368,46696
49367,46686
49366,46677
49366,46322
49367,46313
49368,46303
49370,46294
49374,46285
49378,46276
49383,46268
49388,46260
49395,46253
49402,46246
49410,46240
49418,46236
49427,46231
49436,46228
49445,46226
49455,46224
49464,46224
49720,46224
49730,46224
" /> 
<polyline style="fill-rule:evenodd;"
points="50537,46224
50547,46226
50556,46228
50565,46231
50574,46236
50582,46240
50590,46246
50597,46253
50604,46260
50609,46268
50614,46276
50618,46285
50622,46294
50624,46303
50625,46313
50626,46322
50626,46677
50625,46686
50624,46696
50622,46705
50618,46714
50614,46723
50609,46731
50604,46739
50597,46746
50590,46753
50582,46759
50574,46763
50565,46768
50556,46771
50547,46773
50537,46775
50527,46775
50272,46775
50262,46775
50252,46773
50243,46771
50234,46768
50225,46763
50217,46759
50209,46753
50202,46746
50195,46739
50190,46731
50185,46723
50181,46714
50177,46705
50175,46696
50174,46686
50173,46677
50173,46322
50174,46313
50175,46303
50177,46294
50181,46285
50185,46276
50190,46268
50195,46260
50202,46253
50209,46246
50217,46240
50225,46236
50234,46231
50243,46228
50252,46226
50262,46224
50272,46224
50527,46224
50537,46224
" /> 
<polyline style="fill-rule:evenodd;"
points="46850,43602
46456,43602
46456,42224
46850,42224
46850,43602
" /> 
<polyline style="fill-rule:evenodd;"
points="46850,37303
46456,37303
46456,35925
46850,35925
46850,37303
" /> 
<polyline style="fill-rule:evenodd;"
points="47637,43602
47244,43602
47244,42224
47637,42224
47637,43602
" /> 
<polyline style="fill-rule:evenodd;"
points="48425,43602
48031,43602
48031,42224
48425,42224
48425,43602
" /> 
<polyline style="fill-rule:evenodd;"
points="49212,43602
48818,43602
48818,42224
49212,42224
49212,43602
" /> 
<polyline style="fill-rule:evenodd;"
points="50000,43602
49606,43602
49606,42224
50000,42224
50000,43602
" /> 
<polyline style="fill-rule:evenodd;"
points="50787,43602
50393,43602
50393,42224
50787,42224
50787,43602
" /> 
<polyline style="fill-rule:evenodd;"
points="51574,43602
51181,43602
51181,42224
51574,42224
51574,43602
" /> 
<polyline style="fill-rule:evenodd;"
points="52362,43602
51968,43602
51968,42224
52362,42224
52362,43602
" /> 
<polyline style="fill-rule:evenodd;"
points="51870,41929
51870,41535
53248,41535
53248,41929
51870,41929
" /> 
<polyline style="fill-rule:evenodd;"
points="51870,41141
51870,40748
53248,40748
53248,41141
51870,41141
" /> 
<polyline style="fill-rule:evenodd;"
points="51870,40354
51870,39960
53248,39960
53248,40354
51870,40354
" /> 
<polyline style="fill-rule:evenodd;"
points="51870,39566
51870,39173
53248,39173
53248,39566
51870,39566
" /> 
<polyline style="fill-rule:evenodd;"
points="51870,38779
51870,38385
53248,38385
53248,38779
51870,38779
" /> 
<polyline style="fill-rule:evenodd;"
points="53248,37598
53248,37992
51870,37992
51870,37598
53248,37598
" /> 
<polyline style="fill-rule:evenodd;"
points="47637,37303
47244,37303
47244,35925
47637,35925
47637,37303
" /> 
<polyline style="fill-rule:evenodd;"
points="48425,37303
48031,37303
48031,35925
48425,35925
48425,37303
" /> 
<polyline style="fill-rule:evenodd;"
points="49212,37303
48818,37303
48818,35925
49212,35925
49212,37303
" /> 
<polyline style="fill-rule:evenodd;"
points="50000,37303
49606,37303
49606,35925
50000,35925
50000,37303
" /> 
<polyline style="fill-rule:evenodd;"
points="50787,37303
50393,37303
50393,35925
50787,35925
50787,37303
" /> 
<polyline style="fill-rule:evenodd;"
points="51574,37303
51181,37303
51181,35925
51574,35925
51574,37303
" /> 
<polyline style="fill-rule:evenodd;"
points="52362,37303
51968,37303
51968,35925
52362,35925
52362,37303
" /> 
<polyline style="fill-rule:evenodd;"
points="47165,27519
46811,27519
46811,27204
47165,27204
47165,27519
" /> 
<polyline style="fill-rule:evenodd;"
points="47165,28267
46811,28267
46811,27952
47165,27952
47165,28267
" /> 
<polyline style="fill-rule:evenodd;"
points="46377,27893
46023,27893
46023,27578
46377,27578
46377,27893
" /> 
<polyline style="fill-rule:evenodd;"
points="56023,35354
56032,35356
56042,35358
56051,35361
56060,35365
56068,35370
56076,35376
56083,35383
56089,35390
56095,35398
56100,35406
56104,35415
56107,35424
56110,35433
56111,35443
56112,35452
56112,35807
56111,35816
56110,35826
56107,35835
56104,35844
56100,35853
56095,35861
56089,35869
56083,35876
56076,35883
56068,35888
56060,35893
56051,35898
56042,35901
56032,35903
56023,35905
56013,35905
55757,35905
55748,35905
55738,35903
55729,35901
55720,35898
55711,35893
55703,35888
55695,35883
55688,35876
55681,35869
55676,35861
55671,35853
55666,35844
55663,35835
55661,35826
55659,35816
55659,35807
55659,35452
55659,35443
55661,35433
55663,35424
55666,35415
55671,35406
55676,35398
55681,35390
55688,35383
55695,35376
55703,35370
55711,35365
55720,35361
55729,35358
55738,35356
55748,35354
55757,35354
56013,35354
56023,35354
" /> 
<polyline style="fill-rule:evenodd;"
points="56830,35354
56840,35356
56849,35358
56858,35361
56867,35365
56875,35370
56883,35376
56890,35383
56896,35390
56902,35398
56907,35406
56911,35415
56915,35424
56917,35433
56918,35443
56919,35452
56919,35807
56918,35816
56917,35826
56915,35835
56911,35844
56907,35853
56902,35861
56896,35869
56890,35876
56883,35883
56875,35888
56867,35893
56858,35898
56849,35901
56840,35903
56830,35905
56820,35905
56564,35905
56555,35905
56545,35903
56536,35901
56527,35898
56518,35893
56510,35888
56502,35883
56495,35876
56488,35869
56483,35861
56478,35853
56474,35844
56470,35835
56468,35826
56467,35816
56466,35807
56466,35452
56467,35443
56468,35433
56470,35424
56474,35415
56478,35406
56483,35398
56488,35390
56495,35383
56502,35376
56510,35370
56518,35365
56527,35361
56536,35358
56545,35356
56555,35354
56564,35354
56820,35354
56830,35354
" /> 
<polyline style="fill-rule:evenodd;"
points="54911,41693
54920,41694
54930,41697
54939,41700
54947,41704
54956,41709
54964,41715
54971,41721
54977,41728
54983,41736
54988,41744
54992,41753
54995,41762
54998,41772
54999,41781
55000,41791
55000,42047
54999,42056
54998,42066
54995,42075
54992,42084
54988,42093
54983,42101
54977,42109
54971,42116
54964,42123
54956,42129
54947,42134
54939,42138
54930,42141
54920,42143
54911,42145
54901,42145
54547,42145
54537,42145
54528,42143
54518,42141
54509,42138
54500,42134
54492,42129
54484,42123
54477,42116
54471,42109
54465,42101
54460,42093
54456,42084
54453,42075
54450,42066
54449,42056
54448,42047
54448,41791
54449,41781
54450,41772
54453,41762
54456,41753
54460,41744
54465,41736
54471,41728
54477,41721
54484,41715
54492,41709
54500,41704
54509,41700
54518,41697
54528,41694
54537,41693
54547,41692
54901,41692
54911,41693
" /> 
<polyline style="fill-rule:evenodd;"
points="54911,42500
54920,42501
54930,42504
54939,42507
54947,42511
54956,42516
54964,42522
54971,42528
54977,42535
54983,42543
54988,42552
54992,42560
54995,42569
54998,42579
54999,42588
55000,42598
55000,42854
54999,42863
54998,42873
54995,42882
54992,42891
54988,42900
54983,42909
54977,42916
54971,42923
54964,42930
54956,42936
54947,42941
54939,42945
54930,42948
54920,42950
54911,42952
54901,42952
54547,42952
54537,42952
54528,42950
54518,42948
54509,42945
54500,42941
54492,42936
54484,42930
54477,42923
54471,42916
54465,42909
54460,42900
54456,42891
54453,42882
54450,42873
54449,42863
54448,42854
54448,42598
54449,42588
54450,42579
54453,42569
54456,42560
54460,42552
54465,42543
54471,42535
54477,42528
54484,42522
54492,42516
54500,42511
54509,42507
54518,42504
54528,42501
54537,42500
54547,42500
54901,42500
54911,42500
" /> 
<polyline style="fill-rule:evenodd;"
points="49547,31811
49556,31812
49565,31815
49575,31818
49583,31822
49592,31827
49599,31833
49606,31839
49613,31847
49619,31854
49624,31863
49628,31871
49631,31880
49633,31890
49635,31899
49635,31909
49635,32263
49635,32273
49633,32282
49631,32292
49628,32301
49624,32310
49619,32318
49613,32326
49606,32333
49599,32339
49592,32345
49583,32350
49575,32354
49565,32357
49556,32360
49547,32361
49537,32362
49281,32362
49271,32361
49262,32360
49252,32357
49243,32354
49235,32350
49226,32345
49219,32339
49211,32333
49205,32326
49199,32318
49194,32310
49190,32301
49187,32292
49184,32282
49183,32273
49183,32263
49183,31909
49183,31899
49184,31890
49187,31880
49190,31871
49194,31863
49199,31854
49205,31847
49211,31839
49219,31833
49226,31827
49235,31822
49243,31818
49252,31815
49262,31812
49271,31811
49281,31811
49537,31811
49547,31811
" /> 
<polyline style="fill-rule:evenodd;"
points="50354,31811
50363,31812
50373,31815
50382,31818
50390,31822
50399,31827
50406,31833
50414,31839
50420,31847
50426,31854
50431,31863
50435,31871
50438,31880
50441,31890
50442,31899
50442,31909
50442,32263
50442,32273
50441,32282
50438,32292
50435,32301
50431,32310
50426,32318
50420,32326
50414,32333
50406,32339
50399,32345
50390,32350
50382,32354
50373,32357
50363,32360
50354,32361
50344,32362
50088,32362
50078,32361
50069,32360
50060,32357
50050,32354
50042,32350
50033,32345
50026,32339
50018,32333
50012,32326
50006,32318
50001,32310
49997,32301
49994,32292
49992,32282
49990,32273
49990,32263
49990,31909
49990,31899
49992,31890
49994,31880
49997,31871
50001,31863
50006,31854
50012,31847
50018,31839
50026,31833
50033,31827
50042,31822
50050,31818
50060,31815
50069,31812
50078,31811
50088,31811
50344,31811
50354,31811
" /> 
<circle cx="42913.4" cy="25393.7" r="300" /> 
</g>
<g style="fill:#000000; fill-opacity:1.0; 
stroke:#000000; stroke-width:39.3701; stroke-opacity:1; 
stroke-linecap:round; stroke-linejoin:round;">
</g>
<g style="fill:#000000; fill-opacity:1.0; 
stroke:#000000; stroke-width:0; stroke-opacity:1; 
stroke-linecap:round; stroke-linejoin:round;">
<circle cx="42913.4" cy="15944.9" r="300" /> 
</g>
<g style="fill:#000000; fill-opacity:1.0; 
stroke:#000000; stroke-width:39.3701; stroke-opacity:1; 
stroke-linecap:round; stroke-linejoin:round;">
</g>
<g style="fill:#000000; fill-opacity:1.0; 
stroke:#000000; stroke-width:0; stroke-opacity:1; 
stroke-linecap:round; stroke-linejoin:round;">
<circle cx="42913.4" cy="22244.1" r="300" /> 
</g>
<g style="fill:#000000; fill-opacity:1.0; 
stroke:#000000; stroke-width:39.3701; stroke-opacity:1; 
stroke-linecap:round; stroke-linejoin:round;">
</g>
<g style="fill:#000000; fill-opacity:1.0; 
stroke:#000000; stroke-width:0; stroke-opacity:1; 
stroke-linecap:round; stroke-linejoin:round;">
<circle cx="42913.4" cy="19094.5" r="300" /> 
</g>
<g style="fill:#000000; fill-opacity:1.0; 
stroke:#000000; stroke-width:39.3701; stroke-opacity:1; 
stroke-linecap:round; stroke-linejoin:round;">
</g>
<g style="fill:#000000; fill-opacity:1.0; 
stroke:#000000; stroke-width:0; stroke-opacity:1; 
stroke-linecap:round; stroke-linejoin:round;">
<circle cx="46653.5" cy="17519.7" r="300" /> 
</g>
<g style="fill:#000000; fill-opacity:1.0; 
stroke:#000000; stroke-width:39.3701; stroke-opacity:1; 
stroke-linecap:round; stroke-linejoin:round;">
</g>
<g style="fill:#000000; fill-opacity:1.0; 
stroke:#000000; stroke-width:0; stroke-opacity:1; 
stroke-linecap:round; stroke-linejoin:round;">
<circle cx="46653.5" cy="20669.3" r="300" /> 
</g>
<g style="fill:#000000; fill-opacity:1.0; 
stroke:#000000; stroke-width:39.3701; stroke-opacity:1; 
stroke-linecap:round; stroke-linejoin:round;">
</g>
<g style="fill:#000000; fill-opacity:1.0; 
stroke:#000000; stroke-width:0; stroke-opacity:1; 
stroke-linecap:round; stroke-linejoin:round;">
<circle cx="46653.5" cy="24606.3" r="300" /> 
</g>
<g style="fill:#000000; fill-opacity:1.0; 
stroke:#000000; stroke-width:39.3701; stroke-opacity:1; 
stroke-linecap:round; stroke-linejoin:round;">
</g>
<g style="fill:#000000; fill-opacity:1.0; 
stroke:#000000; stroke-width:0; stroke-opacity:1; 
stroke-linecap:round; stroke-linejoin:round;">
<circle cx="46653.5" cy="25590.6" r="300" /> 
</g>
<g style="fill:#000000; fill-opacity:1.0; 
stroke:#000000; stroke-width:39.3701; stroke-opacity:1; 
stroke-linecap:round; stroke-linejoin:round;">
</g>
<g style="fill:#000000; fill-opacity:1.0; 
stroke:#000000; stroke-width:0; stroke-opacity:1; 
stroke-linecap:round; stroke-linejoin:round;">
<polyline style="fill-rule:evenodd;"
points="52312,31811
52322,31812
52331,31815
52340,31818
52349,31822
52357,31827
52365,31833
52372,31839
52379,31847
52384,31854
52389,31863
52394,31871
52397,31880
52399,31890
52401,31899
52401,31909
52401,32263
52401,32273
52399,32282
52397,32292
52394,32301
52389,32310
52384,32318
52379,32326
52372,32333
52365,32339
52357,32345
52349,32350
52340,32354
52331,32357
52322,32360
52312,32361
52303,32362
52047,32362
52037,32361
52028,32360
52018,32357
52009,32354
52000,32350
51992,32345
51984,32339
51977,32333
51971,32326
51965,32318
51960,32310
51956,32301
51953,32292
51950,32282
51949,32273
51948,32263
51948,31909
51949,31899
51950,31890
51953,31880
51956,31871
51960,31863
51965,31854
51971,31847
51977,31839
51984,31833
51992,31827
52000,31822
52009,31818
52018,31815
52028,31812
52037,31811
52047,31811
52303,31811
52312,31811
" /> 
<polyline style="fill-rule:evenodd;"
points="51505,31811
51515,31812
51524,31815
51533,31818
51542,31822
51550,31827
51558,31833
51565,31839
51572,31847
51577,31854
51582,31863
51586,31871
51590,31880
51592,31890
51594,31899
51594,31909
51594,32263
51594,32273
51592,32282
51590,32292
51586,32301
51582,32310
51577,32318
51572,32326
51565,32333
51558,32339
51550,32345
51542,32350
51533,32354
51524,32357
51515,32360
51505,32361
51496,32362
51240,32362
51230,32361
51220,32360
51211,32357
51202,32354
51193,32350
51185,32345
51177,32339
51170,32333
51164,32326
51158,32318
51153,32310
51149,32301
51145,32292
51143,32282
51142,32273
51141,32263
51141,31909
51142,31899
51143,31890
51145,31880
51149,31871
51153,31863
51158,31854
51164,31847
51170,31839
51177,31833
51185,31827
51193,31822
51202,31818
51211,31815
51220,31812
51230,31811
51240,31811
51496,31811
51505,31811
" /> 
<polyline style="fill-rule:evenodd;"
points="55098,40610
54507,40610
54507,39822
55098,39822
55098,40610
" /> 
<polyline style="fill-rule:evenodd;"
points="56909,40610
56318,40610
56318,39822
56909,39822
56909,40610
" /> 
<polyline style="fill-rule:evenodd;"
points="56003,40610
55413,40610
55413,39822
56003,39822
56003,40610
" /> 
<polyline style="fill-rule:evenodd;"
points="56456,38129
54960,38129
54960,37342
56456,37342
56456,38129
" /> 
<circle cx="51181.1" cy="26574.8" r="300" /> 
</g>
<g style="fill:#000000; fill-opacity:1.0; 
stroke:#000000; stroke-width:39.3701; stroke-opacity:1; 
stroke-linecap:round; stroke-linejoin:round;">
</g>
<g style="fill:#000000; fill-opacity:1.0; 
stroke:#000000; stroke-width:0; stroke-opacity:1; 
stroke-linecap:round; stroke-linejoin:round;">
<circle cx="55118.1" cy="26574.8" r="300" /> 
</g>
<g style="fill:#000000; fill-opacity:1.0; 
stroke:#000000; stroke-width:39.3701; stroke-opacity:1; 
stroke-linecap:round; stroke-linejoin:round;">
</g>
<g style="fill:#000000; fill-opacity:1.0; 
stroke:#000000; stroke-width:0; stroke-opacity:1; 
stroke-linecap:round; stroke-linejoin:round;">
<circle cx="51181.1" cy="15944.9" r="300" /> 
</g>
<g style="fill:#000000; fill-opacity:1.0; 
stroke:#000000; stroke-width:39.3701; stroke-opacity:1; 
stroke-linecap:round; stroke-linejoin:round;">
</g>
<g style="fill:#000000; fill-opacity:1.0; 
stroke:#000000; stroke-width:0; stroke-opacity:1; 
stroke-linecap:round; stroke-linejoin:round;">
<circle cx="49212.6" cy="15944.9" r="300" /> 
</g>
<g style="fill:#000000; fill-opacity:1.0; 
stroke:#000000; stroke-width:39.3701; stroke-opacity:1; 
stroke-linecap:round; stroke-linejoin:round;">
</g>
<g style="fill:#000000; fill-opacity:1.0; 
stroke:#000000; stroke-width:0; stroke-opacity:1; 
stroke-linecap:round; stroke-linejoin:round;">
<circle cx="45078.7" cy="29330.7" r="393.701" /> 
</g>
<g style="fill:#000000; fill-opacity:1.0; 
stroke:#000000; stroke-width:39.3701; stroke-opacity:1; 
stroke-linecap:round; stroke-linejoin:round;">
</g>
<g style="fill:#000000; fill-opacity:1.0; 
stroke:#000000; stroke-width:0; stroke-opacity:1; 
stroke-linecap:round; stroke-linejoin:round;">
<circle cx="53937" cy="33464.6" r="393.701" /> 
</g>
<g style="fill:#000000; fill-opacity:1.0; 
stroke:#000000; stroke-width:39.3701; stroke-opacity:1; 
stroke-linecap:round; stroke-linejoin:round;">
</g>
<g style="fill:#000000; fill-opacity:1.0; 
stroke:#000000; stroke-width:0; stroke-opacity:1; 
stroke-linecap:round; stroke-linejoin:round;">
<circle cx="48425.2" cy="29133.9" r="393.701" /> 
</g>
<g style="fill:#000000; fill-opacity:1.0; 
stroke:#000000; stroke-width:39.3701; stroke-opacity:1; 
stroke-linecap:round; stroke-linejoin:round;">
</g>
<g style="fill:#000000; fill-opacity:1.0; 
stroke:#000000; stroke-width:0; stroke-opacity:1; 
stroke-linecap:round; stroke-linejoin:round;">
<circle cx="52165.4" cy="33464.6" r="393.701" /> 
</g>
<g style="fill:#000000; fill-opacity:1.0; 
stroke:#000000; stroke-width:39.3701; stroke-opacity:1; 
stroke-linecap:round; stroke-linejoin:round;">
</g>
<g style="fill:#000000; fill-opacity:1.0; 
stroke:#000000; stroke-width:0; stroke-opacity:1; 
stroke-linecap:round; stroke-linejoin:round;">
<circle cx="46988.2" cy="29271.7" r="393.701" /> 
</g>
<g style="fill:#000000; fill-opacity:1.0; 
stroke:#000000; stroke-width:39.3701; stroke-opacity:1; 
stroke-linecap:round; stroke-linejoin:round;">
</g>
<g style="fill:#000000; fill-opacity:1.0; 
stroke:#000000; stroke-width:0; stroke-opacity:1; 
stroke-linecap:round; stroke-linejoin:round;">
<circle cx="48031.5" cy="33464.6" r="393.701" /> 
</g>
<g style="fill:#000000; fill-opacity:1.0; 
stroke:#000000; stroke-width:39.3701; stroke-opacity:1; 
stroke-linecap:round; stroke-linejoin:round;">
</g>
<g style="fill:#000000; fill-opacity:1.0; 
stroke:#000000; stroke-width:236.22; stroke-opacity:1; 
stroke-linecap:round; stroke-linejoin:round;">
</g>
<g style="fill:#000000; fill-opacity:0.0; 
stroke:#000000; stroke-width:236.22; stroke-opacity:1; 
stroke-linecap:round; stroke-linejoin:round;">
<path d="M57480 31496
L53346 31496
" />
<path d="M41535 31496
L48425 31496
" />
</g>
<g style="fill:#000000; fill-opacity:0.0; 
stroke:#000000; stroke-width:98.4252; stroke-opacity:1; 
stroke-linecap:round; stroke-linejoin:round;">
<path d="M45078 29330
L45078 29330
" />
</g>
<g style="fill:#000000; fill-opacity:0.0; 
stroke:#000000; stroke-width:236.22; stroke-opacity:1; 
stroke-linecap:round; stroke-linejoin:round;">
<path d="M45078 29330
L45078 25393
" />
<path d="M45078 25393
L45866 24606
" />
<path d="M45866 24606
L46653 24606
" />
<path d="M55118 26574
L55118 25393
" />
<path d="M54330 24606
L46653 24606
" />
<path d="M55118 25393
L54330 24606
" />
</g>
<g style="fill:#000000; fill-opacity:0.0; 
stroke:#000000; stroke-width:1181.1; stroke-opacity:1; 
stroke-linecap:round; stroke-linejoin:round;">
<path d="M53937 34251
L53937 33464
" />
</g>
<g style="fill:#000000; fill-opacity:0.0; 
stroke:#000000; stroke-width:236.22; stroke-opacity:1; 
stroke-linecap:round; stroke-linejoin:round;">
<path d="M56692 35314
L56692 35629
" />
<path d="M56692 35157
L56692 35314
" />
<path d="M55787 34251
L56692 35157
" />
<path d="M53937 34251
L55787 34251
" />
<path d="M56614 40118
L56614 40216
" />
<path d="M56692 35629
L56692 35944
" />
<path d="M57283 39448
L56614 40118
" />
<path d="M56692 35944
L57283 36535
" />
<path d="M57283 36535
L57283 39448
" />
<path d="M55501 42726
L54724 42726
" />
<path d="M55708 42519
L55501 42726
" />
<path d="M55708 40216
L55708 42519
" />
<path d="M52352 42726
L52165 42913
" />
<path d="M54724 42726
L52352 42726
" />
<path d="M52165 45734
L52165 42913
" />
<path d="M51400 46500
L52165 45734
" />
<path d="M50400 46500
L51400 46500
" />
<path d="M50269 46503
L50400 46500
" />
</g>
<g style="fill:#000000; fill-opacity:0.0; 
stroke:#000000; stroke-width:98.4252; stroke-opacity:1; 
stroke-linecap:round; stroke-linejoin:round;">
<path d="M48425 29330
L48425 29330
" />
</g>
<g style="fill:#000000; fill-opacity:0.0; 
stroke:#000000; stroke-width:236.22; stroke-opacity:1; 
stroke-linecap:round; stroke-linejoin:round;">
<path d="M51181 26574
L49409 26574
" />
</g>
<g style="fill:#000000; fill-opacity:0.0; 
stroke:#000000; stroke-width:157.48; stroke-opacity:1; 
stroke-linecap:round; stroke-linejoin:round;">
<path d="M48425 27559
L48425 27578
" />
</g>
<g style="fill:#000000; fill-opacity:0.0; 
stroke:#000000; stroke-width:236.22; stroke-opacity:1; 
stroke-linecap:round; stroke-linejoin:round;">
<path d="M46988 27362
L48425 27362
" />
<path d="M48425 27362
L48425 27755
" />
<path d="M48425 27755
L48425 29330
" />
</g>
<g style="fill:#000000; fill-opacity:0.0; 
stroke:#000000; stroke-width:157.48; stroke-opacity:1; 
stroke-linecap:round; stroke-linejoin:round;">
<path d="M48425 27578
L48425 27755
" />
</g>
<g style="fill:#000000; fill-opacity:0.0; 
stroke:#000000; stroke-width:236.22; stroke-opacity:1; 
stroke-linecap:round; stroke-linejoin:round;">
<path d="M48425 27362
L49212 26574
" />
<path d="M49212 26574
L49409 26574
" />
</g>
<g style="fill:#000000; fill-opacity:0.0; 
stroke:#000000; stroke-width:1181.1; stroke-opacity:1; 
stroke-linecap:round; stroke-linejoin:round;">
<path d="M52165 33464
L52165 34251
" />
</g>
<g style="fill:#000000; fill-opacity:0.0; 
stroke:#000000; stroke-width:236.22; stroke-opacity:1; 
stroke-linecap:round; stroke-linejoin:round;">
<path d="M53543 36614
L52165 36614
" />
<path d="M55314 35629
L53937 37007
" />
<path d="M55885 35629
L55314 35629
" />
<path d="M53937 37007
L53543 36614
" />
<path d="M52165 34251
L52165 36614
" />
<path d="M52175 33454
L52165 33464
" />
<path d="M54133 39448
L54803 40118
" />
<path d="M54133 37204
L54133 39448
" />
<path d="M54803 40118
L54803 40216
" />
<path d="M53937 37007
L54133 37204
" />
<path d="M54803 40216
L54803 41840
" />
<path d="M52165 32096
L52175 32086
" />
<path d="M52165 33464
L52165 32096
" />
<path d="M51929 33700
L52165 33464
" />
<path d="M50216 33700
L51929 33700
" />
<path d="M54803 41840
L54724 41919
" />
</g>
<g style="fill:#000000; fill-opacity:0.0; 
stroke:#000000; stroke-width:787.402; stroke-opacity:1; 
stroke-linecap:round; stroke-linejoin:round;">
<path d="M42913 19094
L42913 22244
" />
<path d="M49212 17913
L49212 15944
" />
<path d="M48031 19094
L49212 17913
" />
<path d="M42913 19094
L48031 19094
" />
<path d="M45078 15944
L42913 15944
" />
<path d="M46653 17519
L45078 15944
" />
<path d="M43700 15157
L42913 15944
" />
<path d="M51181 15109
L50244 14173
" />
<path d="M44685 14173
L43700 15157
" />
<path d="M50244 14173
L44685 14173
" />
<path d="M51181 15944
L51181 15109
" />
<path d="M42913 25393
L46653 21653
" />
<path d="M46653 21653
L46653 20669
" />
</g>
<g style="fill:#000000; fill-opacity:0.0; 
stroke:#000000; stroke-width:157.48; stroke-opacity:1; 
stroke-linecap:round; stroke-linejoin:round;">
<path d="M46200 26043
L46259 25984
" />
</g>
<g style="fill:#000000; fill-opacity:0.0; 
stroke:#000000; stroke-width:236.22; stroke-opacity:1; 
stroke-linecap:round; stroke-linejoin:round;">
<path d="M46200 27736
L46200 26043
" />
<path d="M46259 25984
L46653 25590
" />
</g>
<g style="fill:#000000; fill-opacity:0.0; 
stroke:#000000; stroke-width:98.4252; stroke-opacity:1; 
stroke-linecap:round; stroke-linejoin:round;">
<path d="M46988 29271
L46988 29271
" />
</g>
<g style="fill:#000000; fill-opacity:0.0; 
stroke:#000000; stroke-width:157.48; stroke-opacity:1; 
stroke-linecap:round; stroke-linejoin:round;">
<path d="M46988 28326
L46988 29271
" />
<path d="M46988 28326
L46988 28110
" />
</g>
<g style="fill:#000000; fill-opacity:0.0; 
stroke:#000000; stroke-width:236.22; stroke-opacity:1; 
stroke-linecap:round; stroke-linejoin:round;">
<path d="M48228 35688
L48228 36614
" />
<path d="M48228 34448
L48228 35688
" />
<path d="M48031 34251
L48228 34448
" />
</g>
<g style="fill:#000000; fill-opacity:0.0; 
stroke:#000000; stroke-width:1181.1; stroke-opacity:1; 
stroke-linecap:round; stroke-linejoin:round;">
<path d="M48031 34251
L48031 33464
" />
</g>
<g style="fill:#000000; fill-opacity:0.0; 
stroke:#000000; stroke-width:236.22; stroke-opacity:1; 
stroke-linecap:round; stroke-linejoin:round;">
<path d="M51377 36614
L51377 35577
" />
<path d="M51377 35577
L51100 35300
" />
<path d="M51100 35300
L50200 35300
" />
<path d="M49409 34509
L49409 33700
" />
<path d="M50200 35300
L49409 34509
" />
<path d="M49409 33700
L49409 32086
" />
<path d="M50216 32086
L51368 32086
" />
<path d="M48803 46503
L49592 46500
" />
<path d="M48228 45928
L48803 46503
" />
<path d="M48228 42913
L48228 45928
" />
<path d="M49015 43838
L49015 42913
" />
<path d="M49320 45078
L49015 44773
" />
<path d="M49015 44773
L49015 43838
" />
<path d="M49586 45078
L49320 45078
" />
</g>
<g style="fill:#000000; fill-opacity:1.0; 
stroke:#000000; stroke-width:100; stroke-opacity:1; 
stroke-linecap:round; stroke-linejoin:round;">
<polyline style="fill-rule:evenodd;"
points="47229,32662
46983,33030
46918,33354
46918,34361
46983,34686
47229,35054
47587,35294
47587,35392
47244,35392
47047,35431
46850,35392
46456,35392
46252,35433
46080,35548
45964,35721
45924,35925
45924,37303
45964,37506
46080,37679
46252,37795
46456,37835
46850,37835
47047,37796
47244,37835
47637,37835
47834,37796
48031,37835
48425,37835
48622,37796
48818,37835
49212,37835
49409,37796
49606,37835
50000,37835
50196,37796
50393,37835
50787,37835
50984,37796
51181,37835
51337,37835
51337,37992
51376,38188
51337,38385
51337,38779
51376,38976
51337,39173
51337,39566
51376,39763
51337,39960
51337,40354
51376,40551
51337,40748
51337,41141
51376,41338
51337,41535
51337,41691
51181,41691
50984,41730
50787,41691
50393,41691
50189,41732
50017,41847
49932,41974
49915,41974
49853,42036
49853,42863
49861,42863
49861,42963
49853,42963
49853,43789
49915,43852
49932,43852
50017,43979
50189,44094
50393,44135
50787,44135
50984,44095
51181,44135
51524,44135
51524,45469
51134,45859
50948,45859
50769,45739
50527,45691
50272,45691
50135,45718
50160,45702
50226,45604
50281,45604
50343,45541
50343,45265
50345,45255
50345,45128
50443,45128
50443,45541
50506,45604
50669,45604
50761,45566
50832,45495
50870,45404
50870,45191
50807,45128
50443,45128
50345,45128
50345,44901
50343,44891
50343,44615
50443,44615
50443,45028
50807,45028
50870,44966
50870,44753
50832,44661
50761,44591
50669,44553
50506,44553
50443,44615
50343,44615
50281,44553
50226,44553
50160,44455
49956,44318
49714,44270
49656,44270
49656,43878
49673,43852
49690,43852
49753,43789
49753,42963
49745,42963
49745,42863
49753,42863
49753,42036
49690,41974
49673,41974
49589,41847
49416,41732
49212,41691
48818,41691
48622,41730
48425,41691
48031,41691
47834,41730
47637,41691
47244,41691
47047,41730
46850,41691
46456,41691
46252,41732
46080,41847
45964,42020
45924,42224
45924,43602
45964,43806
46080,43979
46252,44094
46456,44135
46850,44135
47047,44095
47244,44135
47587,44135
47587,45865
47575,45928
47624,46178
47677,46256
47766,46390
47820,46425
48307,46912
48343,46967
48448,47036
48553,47106
48555,47107
48556,47108
48679,47132
48803,47156
48868,47143
49048,47143
49223,47260
49464,47308
49720,47308
49962,47260
49996,47237
50030,47260
50272,47308
50527,47308
50769,47260
50948,47140
51336,47140
51400,47153
51463,47140
51463,47140
51649,47103
51861,46961
51897,46908
52573,46232
52627,46196
52768,45984
52805,45797
52805,45797
52818,45734
52805,45671
52805,43878
52854,43806
52894,43602
52894,43366
54200,43366
54305,43437
54547,43485
54901,43485
55143,43437
55248,43366
55438,43366
55501,43379
55565,43366
55565,43366
55751,43329
55963,43188
55999,43134
56116,43017
56170,42981
56312,42769
56349,42582
56349,42582
56361,42519
56349,42456
56349,41142
56909,41142
57113,41102
57286,40986
57401,40814
57442,40610
57442,40196
57691,39946
57745,39910
57886,39698
57924,39511
57924,39511
57936,39448
57924,39385
57924,36598
57936,36535
57924,36472
57924,36472
57886,36285
57745,36073
57691,36037
57451,35798
57451,35452
57403,35211
57336,35110
57296,34907
57190,34749
57190,34749
57154,34695
57101,34659
56284,33843
56249,33790
56037,33648
55850,33611
55850,33611
55787,33598
55724,33611
55050,33611
55050,33354
54985,33030
54739,32662
54542,32530
58391,32530
58391,58785
41214,58785
41214,36600
43050,36600
43050,42900
43053,42919
43064,42935
43080,42946
43100,42950
45500,42950
45519,42946
45535,42935
45546,42919
45550,42899
45538,36599
45534,36580
45523,36564
45507,36553
45488,36550
43100,36550
43080,36553
43064,36564
43053,36580
43050,36600
41214,36600
41214,32530
47426,32530
47229,32662
" /> 
<polyline style="fill-rule:evenodd;"
points="43797,13285
43728,13388
42128,14988
42025,15057
41753,15464
41658,15944
41753,16425
42025,16832
42433,17104
42792,17175
42913,17200
43034,17175
44568,17175
45256,17863
43034,17863
42913,17839
42792,17863
42433,17934
42025,18206
41753,18614
41658,19094
41682,19215
41682,22365
41753,22724
42025,23131
42433,23403
42913,23499
43104,23461
41957,24608
41753,24913
41658,25393
41753,25874
42025,26281
42433,26553
42913,26648
43393,26553
43698,26349
44438,25609
44438,28675
44302,28811
44162,29148
44162,29512
44302,29849
44559,30107
44896,30246
45260,30246
45597,30107
45855,29849
45994,29512
45994,29148
45855,28811
45719,28675
45719,28318
45819,28385
46023,28426
46309,28426
46318,28471
46387,28573
46387,28577
46211,28752
46072,29089
46072,29453
46211,29790
46469,30048
46805,30187
47170,30187
47507,30048
47764,29790
47771,29775
47906,29910
48242,30050
48607,30050
48944,29910
49201,29652
49341,29316
49341,28951
49201,28614
49065,28478
49065,27627
49477,27215
50658,27215
50715,27272
51017,27397
51344,27397
51646,27272
51878,27040
52003,26738
52003,26411
51878,26108
51646,25877
51344,25752
51017,25752
50715,25877
50658,25934
49275,25934
49212,25921
49149,25934
49149,25934
48962,25971
48750,26112
48715,26166
48159,26721
47382,26721
47369,26712
47165,26672
46841,26672
46841,26402
47119,26287
47350,26056
47475,25754
47475,25426
47401,25246
54065,25246
54477,25659
54477,26052
54420,26108
54295,26411
54295,26738
54420,27040
54652,27272
54954,27397
55281,27397
55583,27272
55815,27040
55940,26738
55940,26411
55815,26108
55758,26052
55758,25456
55771,25393
55758,25330
55758,25330
55721,25143
55579,24931
55526,24896
54828,24197
54792,24144
54580,24002
54393,23965
54393,23965
54330,23953
54267,23965
47176,23965
47119,23909
46817,23783
46489,23783
46187,23909
46130,23965
46082,23965
47438,22609
47541,22541
47813,22133
47884,21774
47884,21774
47908,21653
47884,21532
47884,20548
47840,20325
47910,20325
48031,20349
48152,20325
48511,20254
48919,19982
48987,19879
49997,18869
50100,18800
50372,18393
50443,18034
50443,18034
50467,17913
50443,17792
50443,16932
50700,17104
51181,17200
51661,17104
52068,16832
52340,16425
52412,16066
52412,15230
52436,15109
52406,14958
52340,14629
52068,14222
51965,14153
51200,13388
51132,13285
51096,13261
56423,13261
56423,14002
56423,14002
56423,29750
56438,29829
56498,29918
56587,29978
56642,29989
56642,30264
40994,30264
40994,29989
41050,29978
41139,29918
41198,29829
41214,29750
41214,13261
43833,13261
43797,13285
" /> 
<polyline style="fill-rule:evenodd;"
points="47784,28478
47648,28614
47642,28630
47589,28577
47589,28573
47657,28471
47698,28267
47698,28002
47784,28002
47784,28478
" /> 
<polyline style="fill-rule:evenodd;"
points="45422,20548
45422,21143
44130,22435
44144,22365
44144,20325
45466,20325
45422,20548
" /> 
<polyline style="fill-rule:evenodd;"
points="48052,15464
47981,15823
47981,17403
47901,17483
47813,17039
47609,16734
46279,15404
48093,15404
48052,15464
" /> 
</g> 
</svg>
