<?xml version="1.0" standalone="no"?>
 <!DOCTYPE svg PUBLIC "-//W3C//DTD SVG 1.1//EN" 
 "http://www.w3.org/Graphics/SVG/1.1/DTD/svg11.dtd"> 
<svg xmlns="http://www.w3.org/2000/svg" version="1.1" 
    width="29.7002cm" height="21.0007cm" viewBox="0 0 116930 82680 ">
<title>SVG Picture created as Light Switch-F.SilkS.svg date 2019/03/04 20:28:39 </title>
  <desc>Picture generated by PCBNEW </desc>
<g style="fill:#000000; fill-opacity:1;stroke:#000000; stroke-opacity:1;
stroke-linecap:round; stroke-linejoin:round; "
 transform="translate(0 0) scale(1 1)">
</g>
<g style="fill:#000000; fill-opacity:0.0; 
stroke:#000000; stroke-width:-0.000393701; stroke-opacity:1; 
stroke-linecap:round; stroke-linejoin:round;">
</g>
<g style="fill:#000000; fill-opacity:0.0; 
stroke:#000000; stroke-width:78.7402; stroke-opacity:1; 
stroke-linecap:round; stroke-linejoin:round;">
<path d="M40944 29724
L56692 29724
" />
</g>
<g style="fill:#000000; fill-opacity:0.0; 
stroke:#000000; stroke-width:59.0551; stroke-opacity:1; 
stroke-linecap:round; stroke-linejoin:round;">
<path d="M46338 27342
L46850 27342
" />
<path d="M46850 28562
L46338 28562
" />
</g>
<g style="fill:#000000; fill-opacity:0.0; 
stroke:#000000; stroke-width:47.2441; stroke-opacity:1; 
stroke-linecap:round; stroke-linejoin:round;">
<path d="M43194 32169
L43400 32169
" />
<path d="M43194 31610
L43400 31610
" />
<path d="M44197 37712
L43991 37712
" />
<path d="M44197 38271
L43991 38271
" />
<path d="M42141 39041
L42141 40167
" />
<path d="M42897 39041
L42141 39041
" />
<path d="M42897 40167
L42897 39041
" />
</g>
<g style="fill:#000000; fill-opacity:0.0; 
stroke:#000000; stroke-width:59.0551; stroke-opacity:1; 
stroke-linecap:round; stroke-linejoin:round;">
<path d="M44488 13976
L42913 13976
" />
<path d="M44488 27362
L44488 13976
" />
<path d="M40944 27362
L44488 27362
" />
<path d="M40944 13976
L40944 27362
" />
<path d="M42913 13976
L40944 13976
" />
<path d="M47047 26377
L46259 26377
" />
<path d="M47047 16929
L47047 26377
" />
<path d="M45472 16929
L47047 16929
" />
<path d="M45472 26377
L45472 16929
" />
<path d="M46259 26377
L45472 26377
" />
</g>
<g style="fill:#000000; fill-opacity:0.0; 
stroke:#000000; stroke-width:47.2441; stroke-opacity:1; 
stroke-linecap:round; stroke-linejoin:round;">
<path d="M42799 41648
L42799 41442
" />
<path d="M42240 41648
L42240 41442
" />
<path d="M42086 33696
L44452 33696
" />
<path d="M42972 36381
L44452 36381
" />
<path d="M44452 33696
L44452 34192
" />
<path d="M44452 36381
L44452 35885
" />
</g>
<g style="fill:#000000; fill-opacity:0.0; 
stroke:#000000; stroke-width:59.0551; stroke-opacity:1; 
stroke-linecap:round; stroke-linejoin:round;">
<path d="M47834 13976
L51771 13976
" />
<path d="M47834 25787
L47834 13976
" />
<path d="M55708 25787
L47834 25787
" />
<path d="M55708 13976
L55708 25787
" />
<path d="M51771 13976
L55708 13976
" />
<path d="M56102 39566
L56102 36417
" />
<path d="M46653 39566
L56102 39566
" />
<path d="M46653 33267
L46653 39566
" />
<path d="M56102 33267
L46653 33267
" />
<path d="M56102 36417
L56102 33267
" />
<path d="M48030 27970
L48011 28008
L47974 28045
L47918 28101
L47899 28139
L47899 28176
" />
<path d="M47993 28158
L47974 28195
L47936 28233
L47861 28251
L47730 28251
L47655 28233
L47618 28195
L47599 28158
L47599 28083
L47618 28045
L47655 28008
L47730 27989
L47861 27989
L47936 28008
L47974 28045
L47993 28083
L47993 28158
" />
<path d="M47993 27614
L47993 27839
" />
<path d="M47993 27726
L47599 27726
L47655 27764
L47693 27801
L47711 27839
" />
<path d="M43231 31380
L43212 31399
L43156 31418
L43119 31418
L43062 31399
L43025 31362
L43006 31324
L42987 31249
L42987 31193
L43006 31118
L43025 31080
L43062 31043
L43119 31024
L43156 31024
L43212 31043
L43231 31062
" />
<path d="M43606 31418
L43381 31418
" />
<path d="M43494 31418
L43494 31024
L43456 31080
L43419 31118
L43381 31137
" />
<path d="M44028 38782
L44010 38801
L43953 38819
L43916 38819
L43860 38801
L43822 38763
L43803 38726
L43785 38651
L43785 38594
L43803 38519
L43822 38482
L43860 38444
L43916 38426
L43953 38426
L44010 38444
L44028 38463
" />
<path d="M44178 38463
L44197 38444
L44235 38426
L44328 38426
L44366 38444
L44385 38463
L44403 38501
L44403 38538
L44385 38594
L44160 38819
L44403 38819
" />
<path d="M43347 40064
L42953 40064
L42953 39970
L42972 39914
L43009 39876
L43047 39857
L43122 39839
L43178 39839
L43253 39857
L43291 39876
L43328 39914
L43347 39970
L43347 40064
" />
<path d="M43347 39464
L43347 39689
" />
<path d="M43347 39576
L42953 39576
L43009 39614
L43047 39651
L43066 39689
" />
<path d="M39941 20800
L40223 20800
L40279 20819
L40316 20856
L40335 20913
L40335 20950
" />
<path d="M40335 20406
L40335 20631
" />
<path d="M40335 20519
L39941 20519
L39998 20556
L40035 20594
L40054 20631
" />
<path d="M48012 21944
L47619 21944
" />
<path d="M48012 21719
L47787 21887
" />
<path d="M47619 21719
L47844 21944
" />
<path d="M48012 21344
L48012 21569
" />
<path d="M48012 21456
L47619 21456
L47675 21494
L47712 21531
L47731 21569
" />
<path d="M42048 41610
L41860 41742
" />
<path d="M42048 41835
L41654 41835
L41654 41685
L41673 41648
L41691 41629
L41729 41610
L41785 41610
L41823 41629
L41841 41648
L41860 41685
L41860 41835
" />
<path d="M42048 41235
L42048 41460
" />
<path d="M42048 41348
L41654 41348
L41710 41385
L41748 41423
L41766 41460
" />
<path d="M43400 33052
L43400 33370
L43419 33408
L43438 33427
L43475 33445
L43550 33445
L43588 33427
L43607 33408
L43625 33370
L43625 33052
" />
<path d="M44019 33445
L43794 33445
" />
<path d="M43907 33445
L43907 33052
L43869 33108
L43832 33145
L43794 33164
" />
<path d="M49390 20181
L49709 20181
L49746 20163
L49765 20144
L49784 20106
L49784 20031
L49765 19994
L49746 19975
L49709 19956
L49390 19956
" />
<path d="M49428 19788
L49409 19769
L49390 19731
L49390 19638
L49409 19600
L49428 19581
L49465 19563
L49503 19563
L49559 19581
L49784 19806
L49784 19563
" />
<path d="M48715 52343
L48715 52662
L48734 52699
L48753 52718
L48790 52737
L48865 52737
L48903 52718
L48922 52699
L48940 52662
L48940 52343
" />
<path d="M49090 52343
L49334 52343
L49203 52493
L49259 52493
L49296 52512
L49315 52530
L49334 52568
L49334 52662
L49315 52699
L49296 52718
L49259 52737
L49146 52737
L49109 52718
L49090 52699
" />
<path d="M45256 36717
L45575 36717
L45613 36698
L45631 36679
L45650 36642
L45650 36567
L45631 36529
L45613 36511
L45575 36492
L45256 36492
" />
<path d="M45388 36136
L45650 36136
" />
<path d="M45238 36229
L45519 36323
L45519 36079
" />
</g> 
</svg>
