<?xml version="1.0" standalone="no"?>
 <!DOCTYPE svg PUBLIC "-//W3C//DTD SVG 1.1//EN" 
 "http://www.w3.org/Graphics/SVG/1.1/DTD/svg11.dtd"> 
<svg xmlns="http://www.w3.org/2000/svg" version="1.1" 
    width="29.7002cm" height="21.0007cm" viewBox="0 0 116930 82680 ">
<title>SVG Picture created as Light Switch-F.Mask.svg date 2019/03/09 18:31:06 </title>
  <desc>Picture generated by PCBNEW </desc>
<g style="fill:#000000; fill-opacity:1;stroke:#000000; stroke-opacity:1;
stroke-linecap:round; stroke-linejoin:round; "
 transform="translate(0 0) scale(1 1)">
</g>
<g style="fill:#000000; fill-opacity:0.0; 
stroke:#000000; stroke-width:-0.000393701; stroke-opacity:1; 
stroke-linecap:round; stroke-linejoin:round;">
</g>
<g style="fill:#000000; fill-opacity:0.0; 
stroke:#000000; stroke-width:118.11; stroke-opacity:1; 
stroke-linecap:round; stroke-linejoin:round;">
<path d="M54358 57494
L54330 57522
L54246 57550
L54190 57550
L54105 57522
L54049 57466
L54021 57410
L53993 57297
L53993 57213
L54021 57100
L54049 57044
L54105 56988
L54190 56960
L54246 56960
L54330 56988
L54358 57016
" />
<path d="M54893 57550
L54611 57550
L54611 56960
" />
<path d="M55061 57522
L55146 57550
L55286 57550
L55343 57522
L55371 57494
L55399 57438
L55399 57381
L55371 57325
L55343 57297
L55286 57269
L55174 57241
L55118 57213
L55089 57185
L55061 57128
L55061 57072
L55089 57016
L55118 56988
L55174 56960
L55314 56960
L55399 56988
" />
<path d="M56046 57156
L56186 57550
L56327 57156
" />
<path d="M56664 56960
L56721 56960
L56777 56988
L56805 57016
L56833 57072
L56861 57185
L56861 57325
L56833 57438
L56805 57494
L56777 57522
L56721 57550
L56664 57550
L56608 57522
L56580 57494
L56552 57438
L56524 57325
L56524 57185
L56552 57072
L56580 57016
L56608 56988
L56664 56960
" />
<path d="M57424 57550
L57086 57550
" />
<path d="M57255 57550
L57255 56960
L57199 57044
L57142 57100
L57086 57128
" />
</g>
<g style="fill:#000000; fill-opacity:0.0; 
stroke:#000000; stroke-width:1181.1; stroke-opacity:1; 
stroke-linecap:round; stroke-linejoin:round;">
<path d="M53937 33464
L53937 34251
" />
<path d="M52165 33464
L52165 34251
" />
<path d="M48031 33464
L48031 34251
" />
</g>
<g style="fill:#000000; fill-opacity:1.0; 
stroke:#000000; stroke-width:0; stroke-opacity:1; 
stroke-linecap:round; stroke-linejoin:round;">
<polyline style="fill-rule:evenodd;"
points="50569,46225
50582,46230
50594,46236
50605,46245
50614,46255
50620,46268
50624,46281
50626,46297
50626,46702
50624,46718
50620,46731
50614,46744
50605,46754
50594,46763
50582,46769
50569,46774
50553,46775
50246,46775
50230,46774
50217,46769
50205,46763
50194,46754
50185,46744
50179,46731
50175,46718
50173,46702
50173,46297
50175,46281
50179,46268
50185,46255
50194,46245
50205,46236
50217,46230
50230,46225
50246,46224
50553,46224
50569,46225
" /> 
<polyline style="fill-rule:evenodd;"
points="49762,46225
49775,46230
49787,46236
49798,46245
49807,46255
49813,46268
49817,46281
49819,46297
49819,46702
49817,46718
49813,46731
49807,46744
49798,46754
49787,46763
49775,46769
49762,46774
49746,46775
49439,46775
49423,46774
49410,46769
49398,46763
49387,46754
49378,46744
49372,46731
49368,46718
49366,46702
49366,46297
49368,46281
49372,46268
49378,46255
49387,46245
49398,46236
49410,46230
49423,46225
49439,46224
49746,46224
49762,46225
" /> 
<polyline style="fill-rule:evenodd;"
points="49756,44804
49769,44808
49781,44815
49792,44823
49800,44834
49807,44846
49811,44860
49812,44876
49812,45281
49811,45297
49807,45310
49800,45322
49792,45333
49781,45342
49769,45348
49756,45352
49739,45354
49433,45354
49417,45352
49403,45348
49391,45342
49381,45333
49372,45322
49365,45310
49361,45297
49360,45281
49360,44876
49361,44860
49365,44846
49372,44834
49381,44823
49391,44815
49403,44808
49417,44804
49433,44803
49739,44803
49756,44804
" /> 
<polyline style="fill-rule:evenodd;"
points="50563,44804
50576,44808
50588,44815
50599,44823
50607,44834
50614,44846
50618,44860
50620,44876
50620,45281
50618,45297
50614,45310
50607,45322
50599,45333
50588,45342
50576,45348
50563,45352
50547,45354
50240,45354
50224,45352
50211,45348
50198,45342
50188,45333
50179,45322
50172,45310
50168,45297
50167,45281
50167,44876
50168,44860
50172,44846
50179,44834
50188,44823
50198,44815
50211,44808
50224,44804
50240,44803
50547,44803
50563,44804
" /> 
<polyline style="fill-rule:evenodd;"
points="51574,43602
51181,43602
51181,42224
51574,42224
51574,43602
" /> 
<polyline style="fill-rule:evenodd;"
points="50787,43602
50393,43602
50393,42224
50787,42224
50787,43602
" /> 
<polyline style="fill-rule:evenodd;"
points="50000,43602
49606,43602
49606,42224
50000,42224
50000,43602
" /> 
<polyline style="fill-rule:evenodd;"
points="49212,43602
48818,43602
48818,42224
49212,42224
49212,43602
" /> 
<polyline style="fill-rule:evenodd;"
points="48425,43602
48031,43602
48031,42224
48425,42224
48425,43602
" /> 
<polyline style="fill-rule:evenodd;"
points="47637,43602
47244,43602
47244,42224
47637,42224
47637,43602
" /> 
<polyline style="fill-rule:evenodd;"
points="46850,43602
46456,43602
46456,42224
46850,42224
46850,43602
" /> 
<polyline style="fill-rule:evenodd;"
points="52362,43602
51968,43602
51968,42224
52362,42224
52362,43602
" /> 
<polyline style="fill-rule:evenodd;"
points="54943,42501
54956,42505
54968,42512
54979,42520
54987,42531
54994,42543
54998,42556
55000,42573
55000,42879
54998,42895
54994,42909
54987,42921
54979,42931
54968,42940
54956,42947
54943,42951
54926,42952
54521,42952
54505,42951
54492,42947
54480,42940
54469,42931
54460,42921
54454,42909
54450,42895
54448,42879
54448,42573
54450,42556
54454,42543
54460,42531
54469,42520
54480,42512
54492,42505
54505,42501
54521,42500
54926,42500
54943,42501
" /> 
<polyline style="fill-rule:evenodd;"
points="54943,41694
54956,41698
54968,41705
54979,41713
54987,41724
54994,41736
54998,41749
55000,41765
55000,42072
54998,42088
54994,42101
54987,42114
54979,42124
54968,42133
54956,42140
54943,42144
54926,42145
54521,42145
54505,42144
54492,42140
54480,42133
54469,42124
54460,42114
54454,42101
54450,42088
54448,42072
54448,41765
54450,41749
54454,41736
54460,41724
54469,41713
54480,41705
54492,41698
54505,41694
54521,41692
54926,41692
54943,41694
" /> 
<polyline style="fill-rule:evenodd;"
points="53248,41929
51870,41929
51870,41535
53248,41535
53248,41929
" /> 
<polyline style="fill-rule:evenodd;"
points="53248,41141
51870,41141
51870,40748
53248,40748
53248,41141
" /> 
<polyline style="fill-rule:evenodd;"
points="56909,40610
56318,40610
56318,39822
56909,39822
56909,40610
" /> 
<polyline style="fill-rule:evenodd;"
points="56003,40610
55413,40610
55413,39822
56003,39822
56003,40610
" /> 
<polyline style="fill-rule:evenodd;"
points="55098,40610
54507,40610
54507,39822
55098,39822
55098,40610
" /> 
<polyline style="fill-rule:evenodd;"
points="53248,40354
51870,40354
51870,39960
53248,39960
53248,40354
" /> 
<polyline style="fill-rule:evenodd;"
points="53248,39566
51870,39566
51870,39173
53248,39173
53248,39566
" /> 
<polyline style="fill-rule:evenodd;"
points="53248,38779
51870,38779
51870,38385
53248,38385
53248,38779
" /> 
<polyline style="fill-rule:evenodd;"
points="56456,38129
54960,38129
54960,37342
56456,37342
56456,38129
" /> 
<polyline style="fill-rule:evenodd;"
points="53248,37992
51870,37992
51870,37598
53248,37598
53248,37992
" /> 
<polyline style="fill-rule:evenodd;"
points="47637,37303
47244,37303
47244,35925
47637,35925
47637,37303
" /> 
<polyline style="fill-rule:evenodd;"
points="51574,37303
51181,37303
51181,35925
51574,35925
51574,37303
" /> 
<polyline style="fill-rule:evenodd;"
points="50787,37303
50393,37303
50393,35925
50787,35925
50787,37303
" /> 
<polyline style="fill-rule:evenodd;"
points="49212,37303
48818,37303
48818,35925
49212,35925
49212,37303
" /> 
<polyline style="fill-rule:evenodd;"
points="48425,37303
48031,37303
48031,35925
48425,35925
48425,37303
" /> 
<polyline style="fill-rule:evenodd;"
points="52362,37303
51968,37303
51968,35925
52362,35925
52362,37303
" /> 
<polyline style="fill-rule:evenodd;"
points="46850,37303
46456,37303
46456,35925
46850,35925
46850,37303
" /> 
<polyline style="fill-rule:evenodd;"
points="50000,37303
49606,37303
49606,35925
50000,35925
50000,37303
" /> 
<polyline style="fill-rule:evenodd;"
points="56862,35355
56875,35359
56887,35366
56898,35375
56907,35385
56913,35398
56917,35411
56919,35427
56919,35832
56917,35848
56913,35861
56907,35874
56898,35884
56887,35893
56875,35899
56862,35903
56846,35905
56539,35905
56523,35903
56510,35899
56498,35893
56487,35884
56478,35874
56472,35861
56468,35848
56466,35832
56466,35427
56468,35411
56472,35398
56478,35385
56487,35375
56498,35366
56510,35359
56523,35355
56539,35354
56846,35354
56862,35355
" /> 
<polyline style="fill-rule:evenodd;"
points="56055,35355
56068,35359
56080,35366
56091,35375
56100,35385
56106,35398
56110,35411
56112,35427
56112,35832
56110,35848
56106,35861
56100,35874
56091,35884
56080,35893
56068,35899
56055,35903
56039,35905
55732,35905
55716,35903
55703,35899
55690,35893
55680,35884
55671,35874
55665,35861
55661,35848
55659,35832
55659,35427
55661,35411
55665,35398
55671,35385
55680,35375
55690,35366
55703,35359
55716,35355
55732,35354
56039,35354
56055,35355
" /> 
<polyline style="fill-rule:evenodd;"
points="50386,33425
50399,33430
50411,33436
50422,33445
50430,33455
50437,33468
50441,33481
50442,33497
50442,33902
50441,33918
50437,33931
50430,33944
50422,33954
50411,33963
50399,33969
50386,33974
50369,33975
50063,33975
50047,33974
50033,33969
50021,33963
50011,33954
50002,33944
49995,33931
49991,33918
49990,33902
49990,33497
49991,33481
49995,33468
50002,33455
50011,33445
50021,33436
50033,33430
50047,33425
50063,33424
50369,33424
50386,33425
" /> 
<polyline style="fill-rule:evenodd;"
points="49578,33425
49592,33430
49604,33436
49614,33445
49623,33455
49630,33468
49634,33481
49635,33497
49635,33902
49634,33918
49630,33931
49623,33944
49614,33954
49604,33963
49592,33969
49578,33974
49562,33975
49256,33975
49239,33974
49226,33969
49214,33963
49203,33954
49195,33944
49188,33931
49184,33918
49183,33902
49183,33497
49184,33481
49188,33468
49195,33455
49203,33445
49214,33436
49226,33430
49239,33425
49256,33424
49562,33424
49578,33425
" /> 
<polyline style="fill-rule:evenodd;"
points="51537,31812
51550,31816
51562,31823
51573,31831
51582,31842
51588,31854
51592,31867
51594,31884
51594,32289
51592,32305
51588,32318
51582,32330
51573,32341
51562,32350
51550,32356
51537,32360
51521,32362
51214,32362
51198,32360
51185,32356
51173,32350
51162,32341
51153,32330
51147,32318
51143,32305
51141,32289
51141,31884
51143,31867
51147,31854
51153,31842
51162,31831
51173,31823
51185,31816
51198,31812
51214,31811
51521,31811
51537,31812
" /> 
<polyline style="fill-rule:evenodd;"
points="52344,31812
52357,31816
52370,31823
52380,31831
52389,31842
52395,31854
52399,31867
52401,31884
52401,32289
52399,32305
52395,32318
52389,32330
52380,32341
52370,32350
52357,32356
52344,32360
52328,32362
52021,32362
52005,32360
51992,32356
51980,32350
51969,32341
51960,32330
51954,32318
51950,32305
51948,32289
51948,31884
51950,31867
51954,31854
51960,31842
51969,31831
51980,31823
51992,31816
52005,31812
52021,31811
52328,31811
52344,31812
" /> 
<polyline style="fill-rule:evenodd;"
points="50386,31812
50399,31816
50411,31823
50422,31831
50430,31842
50437,31854
50441,31867
50442,31884
50442,32289
50441,32305
50437,32318
50430,32330
50422,32341
50411,32350
50399,32356
50386,32360
50369,32362
50063,32362
50047,32360
50033,32356
50021,32350
50011,32341
50002,32330
49995,32318
49991,32305
49990,32289
49990,31884
49991,31867
49995,31854
50002,31842
50011,31831
50021,31823
50033,31816
50047,31812
50063,31811
50369,31811
50386,31812
" /> 
<polyline style="fill-rule:evenodd;"
points="49578,31812
49592,31816
49604,31823
49614,31831
49623,31842
49630,31854
49634,31867
49635,31884
49635,32289
49634,32305
49630,32318
49623,32330
49614,32341
49604,32350
49592,32356
49578,32360
49562,32362
49256,32362
49239,32360
49226,32356
49214,32350
49203,32341
49195,32330
49188,32318
49184,32305
49183,32289
49183,31884
49184,31867
49188,31854
49195,31842
49203,31831
49214,31823
49226,31816
49239,31812
49256,31811
49562,31811
49578,31812
" /> 
<polyline style="fill-rule:evenodd;"
points="47165,28267
46811,28267
46811,27952
47165,27952
47165,28267
" /> 
<polyline style="fill-rule:evenodd;"
points="46377,27893
46023,27893
46023,27578
46377,27578
46377,27893
" /> 
<polyline style="fill-rule:evenodd;"
points="47165,27519
46811,27519
46811,27204
47165,27204
47165,27519
" /> 
<polyline style="fill-rule:evenodd;"
points="55186,26282
55205,26286
55260,26308
55309,26341
55351,26383
55383,26432
55406,26487
55418,26545
55418,26604
55406,26662
55383,26716
55351,26766
55309,26807
55309,26807
55260,26840
55205,26863
55186,26867
55147,26874
55088,26874
55049,26867
55030,26863
54976,26840
54926,26807
54926,26807
54885,26766
54852,26716
54829,26662
54818,26604
54818,26545
54829,26487
54852,26432
54885,26383
54926,26341
54976,26308
55030,26286
55049,26282
55088,26274
55147,26274
55186,26282
" /> 
<polyline style="fill-rule:evenodd;"
points="51249,26282
51268,26286
51323,26308
51372,26341
51414,26383
51446,26432
51469,26487
51481,26545
51481,26604
51469,26662
51446,26716
51414,26766
51372,26807
51372,26807
51323,26840
51268,26863
51249,26867
51210,26874
51151,26874
51112,26867
51093,26863
51038,26840
50989,26807
50989,26807
50948,26766
50915,26716
50892,26662
50881,26604
50881,26545
50892,26487
50915,26432
50948,26383
50989,26341
51038,26308
51093,26286
51112,26282
51151,26274
51210,26274
51249,26282
" /> 
<polyline style="fill-rule:evenodd;"
points="46721,25298
46741,25302
46795,25324
46844,25357
46886,25399
46919,25448
46942,25503
46953,25561
46953,25620
46942,25678
46919,25732
46886,25781
46844,25823
46844,25823
46795,25856
46741,25879
46721,25882
46683,25890
46623,25890
46585,25882
46566,25879
46511,25856
46462,25823
46462,25823
46420,25781
46387,25732
46365,25678
46353,25620
46353,25561
46365,25503
46387,25448
46420,25399
46462,25357
46511,25324
46566,25302
46585,25298
46623,25290
46683,25290
46721,25298
" /> 
<polyline style="fill-rule:evenodd;"
points="42981,25101
43000,25105
43055,25127
43104,25160
43146,25202
43179,25251
43201,25306
43213,25364
43213,25423
43201,25481
43179,25535
43146,25584
43104,25626
43104,25626
43055,25659
43000,25682
42981,25686
42942,25693
42883,25693
42845,25686
42825,25682
42771,25659
42722,25626
42722,25626
42680,25584
42647,25535
42624,25481
42613,25423
42613,25364
42624,25306
42647,25251
42680,25202
42722,25160
42771,25127
42825,25105
42845,25101
42883,25093
42942,25093
42981,25101
" /> 
<polyline style="fill-rule:evenodd;"
points="46721,24313
46741,24317
46795,24340
46844,24373
46886,24415
46919,24464
46942,24518
46953,24576
46953,24635
46942,24693
46919,24748
46886,24797
46844,24839
46844,24839
46795,24872
46741,24894
46721,24898
46683,24906
46623,24906
46585,24898
46566,24894
46511,24872
46462,24839
46462,24839
46420,24797
46387,24748
46365,24693
46353,24635
46353,24576
46365,24518
46387,24464
46420,24415
46462,24373
46511,24340
46566,24317
46585,24313
46623,24306
46683,24306
46721,24313
" /> 
<polyline style="fill-rule:evenodd;"
points="42981,21951
43000,21955
43055,21978
43104,22011
43146,22052
43179,22101
43201,22156
43213,22214
43213,22273
43201,22331
43179,22386
43146,22435
43104,22477
43104,22477
43055,22509
43000,22532
42981,22536
42942,22544
42883,22544
42845,22536
42825,22532
42771,22509
42722,22477
42722,22477
42680,22435
42647,22386
42624,22331
42613,22273
42613,22214
42624,22156
42647,22101
42680,22052
42722,22011
42771,21978
42825,21955
42845,21951
42883,21944
42942,21944
42981,21951
" /> 
<polyline style="fill-rule:evenodd;"
points="46721,20376
46741,20380
46795,20403
46844,20436
46886,20478
46919,20527
46942,20581
46953,20639
46953,20698
46942,20756
46919,20811
46886,20860
46844,20902
46844,20902
46795,20935
46741,20957
46721,20961
46683,20969
46623,20969
46585,20961
46566,20957
46511,20935
46462,20902
46462,20902
46420,20860
46387,20811
46365,20756
46353,20698
46353,20639
46365,20581
46387,20527
46420,20478
46462,20436
46511,20403
46566,20380
46585,20376
46623,20369
46683,20369
46721,20376
" /> 
<polyline style="fill-rule:evenodd;"
points="42981,18802
43000,18806
43055,18828
43104,18861
43146,18903
43179,18952
43201,19006
43213,19064
43213,19124
43201,19181
43179,19236
43146,19285
43104,19327
43104,19327
43055,19360
43000,19382
42981,19386
42942,19394
42883,19394
42845,19386
42825,19382
42771,19360
42722,19327
42722,19327
42680,19285
42647,19236
42624,19181
42613,19124
42613,19064
42624,19006
42647,18952
42680,18903
42722,18861
42771,18828
42825,18806
42845,18802
42883,18794
42942,18794
42981,18802
" /> 
<polyline style="fill-rule:evenodd;"
points="46721,17227
46741,17231
46795,17253
46844,17286
46886,17328
46919,17377
46942,17432
46953,17490
46953,17549
46942,17607
46919,17661
46886,17710
46844,17752
46844,17752
46795,17785
46741,17808
46721,17811
46683,17819
46623,17819
46585,17811
46566,17808
46511,17785
46462,17752
46462,17752
46420,17710
46387,17661
46365,17607
46353,17549
46353,17490
46365,17432
46387,17377
46420,17328
46462,17286
46511,17253
46566,17231
46585,17227
46623,17219
46683,17219
46721,17227
" /> 
<polyline style="fill-rule:evenodd;"
points="51249,15652
51268,15656
51323,15679
51372,15711
51414,15753
51446,15802
51469,15857
51481,15915
51481,15974
51469,16032
51446,16086
51414,16136
51372,16177
51372,16177
51323,16210
51268,16233
51249,16237
51210,16244
51151,16244
51112,16237
51093,16233
51038,16210
50989,16177
50989,16177
50948,16136
50915,16086
50892,16032
50881,15974
50881,15915
50892,15857
50915,15802
50948,15753
50989,15711
51038,15679
51093,15656
51112,15652
51151,15644
51210,15644
51249,15652
" /> 
<polyline style="fill-rule:evenodd;"
points="49280,15652
49300,15656
49354,15679
49403,15711
49445,15753
49478,15802
49501,15857
49512,15915
49512,15974
49501,16032
49478,16086
49445,16136
49403,16177
49403,16177
49354,16210
49300,16233
49280,16237
49242,16244
49183,16244
49144,16237
49125,16233
49070,16210
49021,16177
49021,16177
48979,16136
48946,16086
48924,16032
48912,15974
48912,15915
48924,15857
48946,15802
48979,15753
49021,15711
49070,15679
49125,15656
49144,15652
49183,15644
49242,15644
49280,15652
" /> 
<polyline style="fill-rule:evenodd;"
points="42981,15652
43000,15656
43055,15679
43104,15711
43146,15753
43179,15802
43201,15857
43213,15915
43213,15974
43201,16032
43179,16086
43146,16136
43104,16177
43104,16177
43055,16210
43000,16233
42981,16237
42942,16244
42883,16244
42845,16237
42825,16233
42771,16210
42722,16177
42722,16177
42680,16136
42647,16086
42624,16032
42613,15974
42613,15915
42624,15857
42647,15802
42680,15753
42722,15711
42771,15679
42825,15656
42845,15652
42883,15644
42942,15644
42981,15652
" /> 
</g> 
</svg>
