<?xml version="1.0" standalone="no"?>
 <!DOCTYPE svg PUBLIC "-//W3C//DTD SVG 1.1//EN" 
 "http://www.w3.org/Graphics/SVG/1.1/DTD/svg11.dtd"> 
<svg xmlns="http://www.w3.org/2000/svg" version="1.1" 
    width="29.7002cm" height="21.0007cm" viewBox="0 0 116930 82680 ">
<title>SVG Picture created as Light Switch-F.Paste.svg date 2019/03/04 20:28:39 </title>
  <desc>Picture generated by PCBNEW </desc>
<g style="fill:#000000; fill-opacity:1;stroke:#000000; stroke-opacity:1;
stroke-linecap:round; stroke-linejoin:round; "
 transform="translate(0 0) scale(1 1)">
</g>
<g style="fill:#000000; fill-opacity:0.0; 
stroke:#000000; stroke-width:-0.000393701; stroke-opacity:1; 
stroke-linecap:round; stroke-linejoin:round;">
</g>
<g style="fill:#000000; fill-opacity:0.0; 
stroke:#000000; stroke-width:0; stroke-opacity:1; 
stroke-linecap:round; stroke-linejoin:round;">
</g>
<g style="fill:#000000; fill-opacity:1.0; 
stroke:#000000; stroke-width:0; stroke-opacity:1; 
stroke-linecap:round; stroke-linejoin:round;">
<polyline style="fill-rule:evenodd;"
points="47165,27736
46811,27736
46811,27421
47165,27421
47165,27736
" /> 
<polyline style="fill-rule:evenodd;"
points="47165,28484
46811,28484
46811,28169
47165,28169
47165,28484
" /> 
<polyline style="fill-rule:evenodd;"
points="46377,28110
46023,28110
46023,27795
46377,27795
46377,28110
" /> 
<polyline style="fill-rule:evenodd;"
points="43838,31614
43847,31616
43857,31618
43866,31621
43875,31625
43883,31630
43891,31636
43898,31643
43904,31650
43910,31657
43915,31666
43919,31674
43922,31684
43925,31693
43926,31702
43927,31712
43927,32066
43926,32076
43925,32086
43922,32095
43919,32104
43915,32113
43910,32121
43904,32129
43898,32136
43891,32143
43883,32148
43875,32153
43866,32157
43857,32161
43847,32163
43838,32164
43828,32165
43572,32165
43563,32164
43553,32163
43544,32161
43535,32157
43526,32153
43518,32148
43510,32143
43503,32136
43496,32129
43490,32121
43486,32113
43481,32104
43478,32095
43476,32086
43474,32076
43474,32066
43474,31712
43474,31702
43476,31693
43478,31684
43481,31674
43486,31666
43490,31657
43496,31650
43503,31643
43510,31636
43518,31630
43526,31625
43535,31621
43544,31618
43553,31616
43563,31614
43572,31614
43828,31614
43838,31614
" /> 
<polyline style="fill-rule:evenodd;"
points="43031,31614
43040,31616
43050,31618
43059,31621
43068,31625
43076,31630
43084,31636
43091,31643
43097,31650
43103,31657
43108,31666
43112,31674
43115,31684
43118,31693
43119,31702
43120,31712
43120,32066
43119,32076
43118,32086
43115,32095
43112,32104
43108,32113
43103,32121
43097,32129
43091,32136
43084,32143
43076,32148
43068,32153
43059,32157
43050,32161
43040,32163
43031,32164
43021,32165
42765,32165
42756,32164
42746,32163
42737,32161
42728,32157
42719,32153
42711,32148
42703,32143
42696,32136
42689,32129
42683,32121
42678,32113
42674,32104
42671,32095
42669,32086
42667,32076
42667,32066
42667,31712
42667,31702
42669,31693
42671,31684
42674,31674
42678,31666
42683,31657
42689,31650
42696,31643
42703,31636
42711,31630
42719,31625
42728,31621
42737,31618
42746,31616
42756,31614
42765,31614
43021,31614
43031,31614
" /> 
<polyline style="fill-rule:evenodd;"
points="43828,37717
43838,37718
43847,37720
43856,37724
43865,37728
43873,37733
43881,37738
43888,37745
43894,37752
43900,37760
43905,37768
43909,37777
43913,37786
43915,37795
43916,37805
43917,37814
43917,38169
43916,38178
43915,38188
43913,38197
43909,38206
43905,38215
43900,38223
43894,38231
43888,38238
43881,38245
43873,38251
43865,38256
43856,38260
43847,38263
43838,38265
43828,38267
43818,38267
43562,38267
43553,38267
43543,38265
43534,38263
43525,38260
43516,38256
43508,38251
43500,38245
43493,38238
43486,38231
43481,38223
43476,38215
43472,38206
43468,38197
43466,38188
43465,38178
43464,38169
43464,37814
43465,37805
43466,37795
43468,37786
43472,37777
43476,37768
43481,37760
43486,37752
43493,37745
43500,37738
43508,37733
43516,37728
43525,37724
43534,37720
43543,37718
43553,37717
43562,37716
43818,37716
43828,37717
" /> 
<polyline style="fill-rule:evenodd;"
points="44635,37717
44645,37718
44654,37720
44663,37724
44672,37728
44680,37733
44688,37738
44695,37745
44702,37752
44707,37760
44712,37768
44716,37777
44720,37786
44722,37795
44723,37805
44724,37814
44724,38169
44723,38178
44722,38188
44720,38197
44716,38206
44712,38215
44707,38223
44702,38231
44695,38238
44688,38245
44680,38251
44672,38256
44663,38260
44654,38263
44645,38265
44635,38267
44625,38267
44370,38267
44360,38267
44350,38265
44341,38263
44332,38260
44323,38256
44315,38251
44307,38245
44300,38238
44293,38231
44288,38223
44283,38215
44279,38206
44275,38197
44273,38188
44272,38178
44271,38169
44271,37814
44272,37805
44273,37795
44275,37786
44279,37777
44283,37768
44288,37760
44293,37752
44300,37745
44307,37738
44315,37733
44323,37728
44332,37724
44341,37720
44350,37718
44360,37717
44370,37716
44625,37716
44635,37717
" /> 
<polyline style="fill-rule:evenodd;"
points="42706,39951
42716,39952
42725,39955
42734,39958
42743,39962
42751,39967
42759,39973
42766,39979
42772,39986
42778,39994
42783,40002
42787,40011
42791,40020
42793,40030
42794,40039
42795,40049
42795,40305
42794,40314
42793,40324
42791,40333
42787,40342
42783,40351
42778,40359
42772,40367
42766,40374
42759,40381
42751,40386
42743,40391
42734,40396
42725,40399
42716,40401
42706,40403
42696,40403
42342,40403
42332,40403
42323,40401
42313,40399
42304,40396
42296,40391
42287,40386
42280,40381
42272,40374
42266,40367
42260,40359
42255,40351
42251,40342
42248,40333
42245,40324
42244,40314
42244,40305
42244,40049
42244,40039
42245,40030
42248,40020
42251,40011
42255,40002
42260,39994
42266,39986
42272,39979
42280,39973
42287,39967
42296,39962
42304,39958
42313,39955
42323,39952
42332,39951
42342,39950
42696,39950
42706,39951
" /> 
<polyline style="fill-rule:evenodd;"
points="42706,39144
42716,39145
42725,39147
42734,39151
42743,39155
42751,39160
42759,39166
42766,39172
42772,39179
42778,39187
42783,39195
42787,39204
42791,39213
42793,39222
42794,39232
42795,39242
42795,39498
42794,39507
42793,39517
42791,39526
42787,39535
42783,39544
42778,39552
42772,39560
42766,39567
42759,39574
42751,39579
42743,39584
42734,39588
42725,39592
42716,39594
42706,39595
42696,39596
42342,39596
42332,39595
42323,39594
42313,39592
42304,39588
42296,39584
42287,39579
42280,39574
42272,39567
42266,39560
42260,39552
42255,39544
42251,39535
42248,39526
42245,39517
42244,39507
42244,39498
42244,39242
42244,39232
42245,39222
42248,39213
42251,39204
42255,39195
42260,39187
42266,39179
42272,39172
42280,39166
42287,39160
42296,39155
42304,39151
42313,39147
42323,39145
42332,39144
42342,39143
42696,39143
42706,39144
" /> 
<polyline style="fill-rule:evenodd;"
points="42706,40915
42716,40917
42725,40919
42734,40922
42743,40926
42751,40931
42759,40937
42766,40944
42772,40951
42778,40959
42783,40967
42787,40976
42791,40985
42793,40994
42794,41004
42795,41013
42795,41269
42794,41279
42793,41288
42791,41298
42787,41307
42783,41316
42778,41324
42772,41332
42766,41339
42759,41345
42751,41351
42743,41356
42734,41360
42725,41363
42716,41366
42706,41367
42696,41368
42342,41368
42332,41367
42323,41366
42313,41363
42304,41360
42296,41356
42287,41351
42280,41345
42272,41339
42266,41332
42260,41324
42255,41316
42251,41307
42248,41298
42245,41288
42244,41279
42244,41269
42244,41013
42244,41004
42245,40994
42248,40985
42251,40976
42255,40967
42260,40959
42266,40951
42272,40944
42280,40937
42287,40931
42296,40926
42304,40922
42313,40919
42323,40917
42332,40915
42342,40915
42696,40915
42706,40915
" /> 
<polyline style="fill-rule:evenodd;"
points="42706,41722
42716,41724
42725,41726
42734,41729
42743,41734
42751,41739
42759,41744
42766,41751
42772,41758
42778,41766
42783,41774
42787,41783
42791,41792
42793,41801
42794,41811
42795,41820
42795,42076
42794,42086
42793,42095
42791,42105
42787,42114
42783,42123
42778,42131
42772,42139
42766,42146
42759,42152
42751,42158
42743,42163
42734,42167
42725,42170
42716,42173
42706,42174
42696,42175
42342,42175
42332,42174
42323,42173
42313,42170
42304,42167
42296,42163
42287,42158
42280,42152
42272,42146
42266,42139
42260,42131
42255,42123
42251,42114
42248,42105
42245,42095
42244,42086
42244,42076
42244,41820
42244,41811
42245,41801
42248,41792
42251,41783
42255,41774
42260,41766
42266,41758
42272,41751
42280,41744
42287,41739
42296,41734
42304,41729
42313,41726
42323,41724
42332,41722
42342,41722
42696,41722
42706,41722
" /> 
<polyline style="fill-rule:evenodd;"
points="42066,34429
42066,33838
42854,33838
42854,34429
42066,34429
" /> 
<polyline style="fill-rule:evenodd;"
points="42066,36240
42066,35649
42854,35649
42854,36240
42066,36240
" /> 
<polyline style="fill-rule:evenodd;"
points="42066,35334
42066,34744
42854,34744
42854,35334
42066,35334
" /> 
<polyline style="fill-rule:evenodd;"
points="44547,35787
44547,34291
45334,34291
45334,35787
44547,35787
" /> 
<circle cx="49015.7" cy="46850.4" r="4921.26" /> 
</g>
<g style="fill:#000000; fill-opacity:1.0; 
stroke:#000000; stroke-width:39.3701; stroke-opacity:1; 
stroke-linecap:round; stroke-linejoin:round;">
</g>
<g style="fill:#000000; fill-opacity:1.0; 
stroke:#000000; stroke-width:0; stroke-opacity:1; 
stroke-linecap:round; stroke-linejoin:round;">
<polyline style="fill-rule:evenodd;"
points="52362,38877
52755,38877
52755,40255
52362,40255
52362,38877
" /> 
<polyline style="fill-rule:evenodd;"
points="52362,32578
52755,32578
52755,33956
52362,33956
52362,32578
" /> 
<polyline style="fill-rule:evenodd;"
points="51574,38877
51968,38877
51968,40255
51574,40255
51574,38877
" /> 
<polyline style="fill-rule:evenodd;"
points="50787,38877
51181,38877
51181,40255
50787,40255
50787,38877
" /> 
<polyline style="fill-rule:evenodd;"
points="50000,38877
50393,38877
50393,40255
50000,40255
50000,38877
" /> 
<polyline style="fill-rule:evenodd;"
points="49212,38877
49606,38877
49606,40255
49212,40255
49212,38877
" /> 
<polyline style="fill-rule:evenodd;"
points="48425,38877
48818,38877
48818,40255
48425,40255
48425,38877
" /> 
<polyline style="fill-rule:evenodd;"
points="47637,38877
48031,38877
48031,40255
47637,40255
47637,38877
" /> 
<polyline style="fill-rule:evenodd;"
points="46850,38877
47244,38877
47244,40255
46850,40255
46850,38877
" /> 
<polyline style="fill-rule:evenodd;"
points="45964,38582
45964,38188
47342,38188
47342,38582
45964,38582
" /> 
<polyline style="fill-rule:evenodd;"
points="45964,37795
45964,37401
47342,37401
47342,37795
45964,37795
" /> 
<polyline style="fill-rule:evenodd;"
points="45964,37007
45964,36614
47342,36614
47342,37007
45964,37007
" /> 
<polyline style="fill-rule:evenodd;"
points="45964,36220
45964,35826
47342,35826
47342,36220
45964,36220
" /> 
<polyline style="fill-rule:evenodd;"
points="45964,35433
45964,35039
47342,35039
47342,35433
45964,35433
" /> 
<polyline style="fill-rule:evenodd;"
points="47342,34251
47342,34645
45964,34645
45964,34251
47342,34251
" /> 
<polyline style="fill-rule:evenodd;"
points="51574,32578
51968,32578
51968,33956
51574,33956
51574,32578
" /> 
<polyline style="fill-rule:evenodd;"
points="50787,32578
51181,32578
51181,33956
50787,33956
50787,32578
" /> 
<polyline style="fill-rule:evenodd;"
points="50000,32578
50393,32578
50393,33956
50000,33956
50000,32578
" /> 
<polyline style="fill-rule:evenodd;"
points="49212,32578
49606,32578
49606,33956
49212,33956
49212,32578
" /> 
<polyline style="fill-rule:evenodd;"
points="48425,32578
48818,32578
48818,33956
48425,33956
48425,32578
" /> 
<polyline style="fill-rule:evenodd;"
points="47637,32578
48031,32578
48031,33956
47637,33956
47637,32578
" /> 
<polyline style="fill-rule:evenodd;"
points="46850,32578
47244,32578
47244,33956
46850,33956
46850,32578
" /> 
</g> 
</svg>
