<?xml version="1.0" standalone="no"?>
 <!DOCTYPE svg PUBLIC "-//W3C//DTD SVG 1.1//EN" 
 "http://www.w3.org/Graphics/SVG/1.1/DTD/svg11.dtd"> 
<svg xmlns="http://www.w3.org/2000/svg" version="1.1" 
    width="29.7002cm" height="21.0007cm" viewBox="0 0 116930 82680 ">
<title>SVG Picture created as Light Switch-B.Mask.svg date 2019/03/04 20:28:39 </title>
  <desc>Picture generated by PCBNEW </desc>
<g style="fill:#000000; fill-opacity:1;stroke:#000000; stroke-opacity:1;
stroke-linecap:round; stroke-linejoin:round; "
 transform="translate(0 0) scale(1 1)">
</g>
<g style="fill:#000000; fill-opacity:0.0; 
stroke:#000000; stroke-width:-0.000393701; stroke-opacity:1; 
stroke-linecap:round; stroke-linejoin:round;">
</g>
<g style="fill:#000000; fill-opacity:1.0; 
stroke:#000000; stroke-width:0; stroke-opacity:1; 
stroke-linecap:round; stroke-linejoin:round;">
<polyline style="fill-rule:evenodd;"
points="45934,25298
45953,25302
46008,25324
46057,25357
46099,25399
46131,25448
46154,25503
46166,25561
46166,25620
46154,25678
46131,25732
46099,25781
46057,25823
46057,25823
46008,25856
45953,25879
45934,25882
45895,25890
45836,25890
45797,25882
45778,25879
45724,25856
45674,25823
45674,25823
45633,25781
45600,25732
45577,25678
45566,25620
45566,25561
45577,25503
45600,25448
45633,25399
45674,25357
45724,25324
45778,25302
45797,25298
45836,25290
45895,25290
45934,25298
" /> 
<polyline style="fill-rule:evenodd;"
points="42981,25101
43000,25105
43055,25127
43104,25160
43146,25202
43179,25251
43201,25306
43213,25364
43213,25423
43201,25481
43179,25535
43146,25584
43104,25626
43104,25626
43055,25659
43000,25682
42981,25686
42942,25693
42883,25693
42845,25686
42825,25682
42771,25659
42722,25626
42722,25626
42680,25584
42647,25535
42624,25481
42613,25423
42613,25364
42624,25306
42647,25251
42680,25202
42722,25160
42771,25127
42825,25105
42845,25101
42883,25093
42942,25093
42981,25101
" /> 
<polyline style="fill-rule:evenodd;"
points="48887,24904
48906,24908
48961,24930
49010,24963
49051,25005
49084,25054
49107,25109
49118,25167
49118,25226
49107,25284
49084,25338
49051,25388
49010,25429
49010,25429
48961,25462
48906,25485
48887,25489
48848,25496
48789,25496
48750,25489
48731,25485
48676,25462
48627,25429
48627,25429
48585,25388
48553,25338
48530,25284
48518,25226
48518,25167
48530,25109
48553,25054
48585,25005
48627,24963
48676,24930
48731,24908
48750,24904
48789,24896
48848,24896
48887,24904
" /> 
<polyline style="fill-rule:evenodd;"
points="52824,24904
52843,24908
52898,24930
52947,24963
52988,25005
53021,25054
53044,25109
53055,25167
53055,25226
53044,25284
53021,25338
52988,25388
52947,25429
52947,25429
52898,25462
52843,25485
52824,25489
52785,25496
52726,25496
52687,25489
52668,25485
52613,25462
52564,25429
52564,25429
52522,25388
52490,25338
52467,25284
52455,25226
52455,25167
52467,25109
52490,25054
52522,25005
52564,24963
52613,24930
52668,24908
52687,24904
52726,24896
52785,24896
52824,24904
" /> 
<polyline style="fill-rule:evenodd;"
points="45934,24313
45953,24317
46008,24340
46057,24373
46099,24415
46131,24464
46154,24518
46166,24576
46166,24635
46154,24693
46131,24748
46099,24797
46057,24839
46057,24839
46008,24872
45953,24894
45943,24896
45895,24906
45836,24906
45789,24896
45778,24894
45724,24872
45674,24839
45674,24839
45633,24797
45600,24748
45577,24693
45566,24635
45566,24576
45577,24518
45600,24464
45633,24415
45674,24373
45724,24340
45778,24317
45797,24313
45836,24306
45895,24306
45934,24313
" /> 
<polyline style="fill-rule:evenodd;"
points="42981,21951
43000,21955
43055,21978
43104,22011
43146,22052
43179,22101
43201,22156
43213,22214
43213,22273
43201,22331
43179,22386
43146,22435
43104,22477
43104,22477
43055,22509
43000,22532
42981,22536
42942,22544
42883,22544
42845,22536
42825,22532
42771,22509
42722,22477
42722,22477
42680,22435
42647,22386
42624,22331
42613,22273
42613,22214
42624,22156
42647,22101
42680,22052
42722,22011
42771,21978
42825,21955
42845,21951
42883,21944
42942,21944
42981,21951
" /> 
<polyline style="fill-rule:evenodd;"
points="45934,20376
45953,20380
46008,20403
46057,20436
46099,20478
46131,20527
46154,20581
46166,20639
46166,20698
46154,20756
46131,20811
46099,20860
46057,20902
46057,20902
46008,20935
45953,20957
45934,20961
45895,20969
45836,20969
45797,20961
45778,20957
45724,20935
45674,20902
45674,20902
45633,20860
45600,20811
45577,20756
45566,20698
45566,20639
45577,20581
45600,20527
45633,20478
45674,20436
45724,20403
45778,20380
45797,20376
45836,20369
45895,20369
45934,20376
" /> 
<polyline style="fill-rule:evenodd;"
points="42981,18802
43000,18806
43055,18828
43104,18861
43146,18903
43179,18952
43201,19006
43213,19064
43213,19124
43201,19181
43179,19236
43146,19285
43104,19327
43104,19327
43055,19360
43000,19382
42981,19386
42942,19394
42883,19394
42845,19386
42825,19382
42771,19360
42722,19327
42722,19327
42680,19285
42647,19236
42624,19181
42613,19124
42613,19064
42624,19006
42647,18952
42680,18903
42722,18861
42771,18828
42825,18806
42845,18802
42883,18794
42942,18794
42981,18802
" /> 
<polyline style="fill-rule:evenodd;"
points="45934,17227
45953,17231
46008,17253
46057,17286
46099,17328
46131,17377
46154,17432
46166,17490
46166,17549
46154,17607
46131,17661
46099,17710
46057,17752
46057,17752
46008,17785
45953,17808
45934,17811
45895,17819
45836,17819
45797,17811
45778,17808
45724,17785
45674,17752
45674,17752
45633,17710
45600,17661
45577,17607
45566,17549
45566,17490
45577,17432
45600,17377
45633,17328
45674,17286
45724,17253
45778,17231
45797,17227
45836,17219
45895,17219
45934,17227
" /> 
<polyline style="fill-rule:evenodd;"
points="42981,15652
43000,15656
43055,15679
43104,15711
43146,15753
43179,15802
43201,15857
43213,15915
43213,15974
43201,16032
43179,16086
43146,16136
43104,16177
43104,16177
43055,16210
43000,16233
42981,16237
42942,16244
42883,16244
42845,16237
42825,16233
42771,16210
42722,16177
42722,16177
42680,16136
42647,16086
42624,16032
42613,15974
42613,15915
42624,15857
42647,15802
42680,15753
42722,15711
42771,15679
42825,15656
42845,15652
42883,15644
42942,15644
42981,15652
" /> 
<polyline style="fill-rule:evenodd;"
points="52824,14274
52843,14278
52898,14301
52947,14333
52988,14375
53021,14424
53044,14479
53055,14537
53055,14596
53044,14654
53021,14709
52988,14758
52947,14799
52947,14799
52898,14832
52843,14855
52824,14859
52785,14866
52726,14866
52687,14859
52668,14855
52613,14832
52564,14799
52564,14799
52522,14758
52490,14709
52467,14654
52455,14596
52455,14537
52467,14479
52490,14424
52522,14375
52564,14333
52613,14301
52668,14278
52687,14274
52726,14266
52785,14266
52824,14274
" /> 
<polyline style="fill-rule:evenodd;"
points="54792,14274
54811,14278
54866,14301
54915,14333
54957,14375
54990,14424
55012,14479
55024,14537
55024,14596
55012,14654
54990,14709
54957,14758
54915,14799
54915,14799
54866,14832
54811,14855
54792,14859
54753,14866
54694,14866
54656,14859
54636,14855
54582,14832
54533,14799
54533,14799
54491,14758
54458,14709
54435,14654
54424,14596
54424,14537
54435,14479
54458,14424
54491,14375
54533,14333
54582,14301
54636,14278
54656,14274
54694,14266
54753,14266
54792,14274
" /> 
</g> 
</svg>
