<?xml version="1.0" standalone="no"?>
 <!DOCTYPE svg PUBLIC "-//W3C//DTD SVG 1.1//EN" 
 "http://www.w3.org/Graphics/SVG/1.1/DTD/svg11.dtd"> 
<svg xmlns="http://www.w3.org/2000/svg" version="1.1" 
    width="29.7002cm" height="21.0007cm" viewBox="0 0 116930 82680 ">
<title>SVG Picture created as OTP-F.Cu.svg date 2019/03/12 22:33:11 </title>
  <desc>Picture generated by PCBNEW </desc>
<g style="fill:#000000; fill-opacity:1;stroke:#000000; stroke-opacity:1;
stroke-linecap:round; stroke-linejoin:round; "
 transform="translate(0 0) scale(1 1)">
</g>
<g style="fill:#000000; fill-opacity:0.0; 
stroke:#000000; stroke-width:-0.000393701; stroke-opacity:1; 
stroke-linecap:round; stroke-linejoin:round;">
</g>
<g style="fill:#000000; fill-opacity:0.0; 
stroke:#000000; stroke-width:118.11; stroke-opacity:1; 
stroke-linecap:round; stroke-linejoin:round;">
<path d="M80694 32353
L80807 32353
L80863 32381
L80919 32438
L80947 32550
L80947 32747
L80919 32859
L80863 32916
L80807 32944
L80694 32944
L80638 32916
L80582 32859
L80553 32747
L80553 32550
L80582 32438
L80638 32381
L80694 32353
" />
<path d="M81116 32353
L81453 32353
" />
<path d="M81285 32944
L81285 32353
" />
<path d="M81650 32944
L81650 32353
L81875 32353
L81931 32381
L81960 32410
L81988 32466
L81988 32550
L81960 32606
L81931 32634
L81875 32663
L81650 32663
" />
<path d="M82634 32550
L82775 32944
L82916 32550
" />
<path d="M83253 32353
L83309 32353
L83366 32381
L83394 32410
L83422 32466
L83450 32578
L83450 32719
L83422 32831
L83394 32888
L83366 32916
L83309 32944
L83253 32944
L83197 32916
L83169 32888
L83141 32831
L83113 32719
L83113 32578
L83141 32466
L83169 32410
L83197 32381
L83253 32353
" />
<path d="M84012 32944
L83675 32944
" />
<path d="M83844 32944
L83844 32353
L83787 32438
L83731 32494
L83675 32522
" />
</g>
<g style="fill:#000000; fill-opacity:0.0; 
stroke:#000000; stroke-width:0; stroke-opacity:1; 
stroke-linecap:round; stroke-linejoin:round;">
</g>
<g style="fill:#000000; fill-opacity:1.0; 
stroke:#000000; stroke-width:0; stroke-opacity:1; 
stroke-linecap:round; stroke-linejoin:round;">
<polyline style="fill-rule:evenodd;"
points="58031,20842
58110,20842
58110,21157
58031,21157
58031,20842
" /> 
<polyline style="fill-rule:evenodd;"
points="58228,20842
58307,20842
58307,21157
58228,21157
58228,20842
" /> 
<polyline style="fill-rule:evenodd;"
points="58425,20842
58503,20842
58503,21157
58425,21157
58425,20842
" /> 
<polyline style="fill-rule:evenodd;"
points="58622,20842
58700,20842
58700,21157
58622,21157
58622,20842
" /> 
<polyline style="fill-rule:evenodd;"
points="58818,20842
58897,20842
58897,21157
58818,21157
58818,20842
" /> 
<polyline style="fill-rule:evenodd;"
points="59015,20842
59094,20842
59094,21157
59015,21157
59015,20842
" /> 
<polyline style="fill-rule:evenodd;"
points="59212,20842
59291,20842
59291,21157
59212,21157
59212,20842
" /> 
<polyline style="fill-rule:evenodd;"
points="59409,20842
59488,20842
59488,21157
59409,21157
59409,20842
" /> 
<polyline style="fill-rule:evenodd;"
points="59606,20842
59685,20842
59685,21157
59606,21157
59606,20842
" /> 
<polyline style="fill-rule:evenodd;"
points="59803,20842
59881,20842
59881,21157
59803,21157
59803,20842
" /> 
<polyline style="fill-rule:evenodd;"
points="60000,20842
60078,20842
60078,21157
60000,21157
60000,20842
" /> 
<polyline style="fill-rule:evenodd;"
points="60196,20842
60275,20842
60275,21157
60196,21157
60196,20842
" /> 
<polyline style="fill-rule:evenodd;"
points="60393,20842
60472,20842
60472,21157
60393,21157
60393,20842
" /> 
<polyline style="fill-rule:evenodd;"
points="60590,20842
60669,20842
60669,21157
60590,21157
60590,20842
" /> 
<polyline style="fill-rule:evenodd;"
points="60787,20842
60866,20842
60866,21157
60787,21157
60787,20842
" /> 
<polyline style="fill-rule:evenodd;"
points="60984,20842
61062,20842
61062,21157
60984,21157
60984,20842
" /> 
<polyline style="fill-rule:evenodd;"
points="61181,20842
61259,20842
61259,21157
61181,21157
61181,20842
" /> 
<polyline style="fill-rule:evenodd;"
points="61377,20842
61456,20842
61456,21157
61377,21157
61377,20842
" /> 
<polyline style="fill-rule:evenodd;"
points="61574,20842
61653,20842
61653,21157
61574,21157
61574,20842
" /> 
<polyline style="fill-rule:evenodd;"
points="61771,20842
61850,20842
61850,21157
61771,21157
61771,20842
" /> 
<polyline style="fill-rule:evenodd;"
points="61968,20842
62047,20842
62047,21157
61968,21157
61968,20842
" /> 
<polyline style="fill-rule:evenodd;"
points="62165,20842
62244,20842
62244,21157
62165,21157
62165,20842
" /> 
<polyline style="fill-rule:evenodd;"
points="62362,20842
62440,20842
62440,21157
62362,21157
62362,20842
" /> 
<polyline style="fill-rule:evenodd;"
points="71957,33444
71642,33444
71642,33090
71957,33090
71957,33444
" /> 
<polyline style="fill-rule:evenodd;"
points="72331,34232
72016,34232
72016,33877
72331,33877
72331,34232
" /> 
<polyline style="fill-rule:evenodd;"
points="71583,34232
71268,34232
71268,33877
71583,33877
71583,34232
" /> 
<polyline style="fill-rule:evenodd;"
points="66716,33157
66716,32842
67070,32842
67070,33157
66716,33157
" /> 
<polyline style="fill-rule:evenodd;"
points="65929,33531
65929,33216
66283,33216
66283,33531
65929,33531
" /> 
<polyline style="fill-rule:evenodd;"
points="65929,32783
65929,32468
66283,32468
66283,32783
65929,32783
" /> 
<circle cx="85600" cy="26350.4" r="300" /> 
</g>
<g style="fill:#000000; fill-opacity:1.0; 
stroke:#000000; stroke-width:39.3701; stroke-opacity:1; 
stroke-linecap:round; stroke-linejoin:round;">
</g>
<g style="fill:#000000; fill-opacity:1.0; 
stroke:#000000; stroke-width:0; stroke-opacity:1; 
stroke-linecap:round; stroke-linejoin:round;">
<circle cx="85600" cy="29500" r="300" /> 
</g>
<g style="fill:#000000; fill-opacity:1.0; 
stroke:#000000; stroke-width:39.3701; stroke-opacity:1; 
stroke-linecap:round; stroke-linejoin:round;">
</g>
<g style="fill:#000000; fill-opacity:1.0; 
stroke:#000000; stroke-width:0; stroke-opacity:1; 
stroke-linecap:round; stroke-linejoin:round;">
<circle cx="70866.1" cy="29133.9" r="300" /> 
</g>
<g style="fill:#000000; fill-opacity:1.0; 
stroke:#000000; stroke-width:39.3701; stroke-opacity:1; 
stroke-linecap:round; stroke-linejoin:round;">
</g>
<g style="fill:#000000; fill-opacity:1.0; 
stroke:#000000; stroke-width:0; stroke-opacity:1; 
stroke-linecap:round; stroke-linejoin:round;">
<circle cx="78740.2" cy="29133.9" r="300" /> 
</g>
<g style="fill:#000000; fill-opacity:1.0; 
stroke:#000000; stroke-width:39.3701; stroke-opacity:1; 
stroke-linecap:round; stroke-linejoin:round;">
</g>
<g style="fill:#000000; fill-opacity:1.0; 
stroke:#000000; stroke-width:0; stroke-opacity:1; 
stroke-linecap:round; stroke-linejoin:round;">
<polyline style="fill-rule:evenodd;"
points="62588,26171
62597,26173
62607,26175
62616,26178
62625,26182
62633,26187
62641,26193
62648,26200
62654,26207
62660,26215
62665,26223
62669,26232
62672,26241
62675,26250
62676,26260
62677,26269
62677,26525
62676,26535
62675,26544
62672,26554
62669,26563
62665,26571
62660,26580
62654,26588
62648,26595
62641,26601
62633,26607
62625,26612
62616,26616
62607,26619
62597,26622
62588,26623
62578,26624
62224,26624
62214,26623
62205,26622
62195,26619
62186,26616
62178,26612
62169,26607
62161,26601
62154,26595
62148,26588
62142,26580
62137,26571
62133,26563
62130,26554
62127,26544
62126,26535
62125,26525
62125,26269
62126,26260
62127,26250
62130,26241
62133,26232
62137,26223
62142,26215
62148,26207
62154,26200
62161,26193
62169,26187
62178,26182
62186,26178
62195,26175
62205,26173
62214,26171
62224,26171
62578,26171
62588,26171
" /> 
<polyline style="fill-rule:evenodd;"
points="62588,25364
62597,25366
62607,25368
62616,25371
62625,25375
62633,25380
62641,25386
62648,25393
62654,25400
62660,25407
62665,25416
62669,25424
62672,25434
62675,25443
62676,25452
62677,25462
62677,25718
62676,25728
62675,25737
62672,25747
62669,25756
62665,25764
62660,25773
62654,25780
62648,25788
62641,25794
62633,25800
62625,25805
62616,25809
62607,25812
62597,25815
62588,25816
62578,25816
62224,25816
62214,25816
62205,25815
62195,25812
62186,25809
62178,25805
62169,25800
62161,25794
62154,25788
62148,25780
62142,25773
62137,25764
62133,25756
62130,25747
62127,25737
62126,25728
62125,25718
62125,25462
62126,25452
62127,25443
62130,25434
62133,25424
62137,25416
62142,25407
62148,25400
62154,25393
62161,25386
62169,25380
62178,25375
62186,25371
62195,25368
62205,25366
62214,25364
62224,25364
62578,25364
62588,25364
" /> 
<polyline style="fill-rule:evenodd;"
points="62342,31811
62351,31812
62361,31815
62370,31818
62379,31822
62387,31827
62395,31833
62402,31839
62408,31847
62414,31854
62419,31863
62423,31871
62426,31880
62429,31890
62430,31899
62431,31909
62431,32263
62430,32273
62429,32282
62426,32292
62423,32301
62419,32310
62414,32318
62408,32326
62402,32333
62395,32339
62387,32345
62379,32350
62370,32354
62361,32357
62351,32360
62342,32361
62332,32362
62076,32362
62067,32361
62057,32360
62048,32357
62039,32354
62030,32350
62022,32345
62014,32339
62007,32333
62000,32326
61994,32318
61989,32310
61985,32301
61982,32292
61980,32282
61978,32273
61978,32263
61978,31909
61978,31899
61980,31890
61982,31880
61985,31871
61989,31863
61994,31854
62000,31847
62007,31839
62014,31833
62022,31827
62030,31822
62039,31818
62048,31815
62057,31812
62067,31811
62076,31811
62332,31811
62342,31811
" /> 
<polyline style="fill-rule:evenodd;"
points="61535,31811
61544,31812
61554,31815
61563,31818
61571,31822
61580,31827
61588,31833
61595,31839
61601,31847
61607,31854
61612,31863
61616,31871
61619,31880
61622,31890
61623,31899
61624,31909
61624,32263
61623,32273
61622,32282
61619,32292
61616,32301
61612,32310
61607,32318
61601,32326
61595,32333
61588,32339
61580,32345
61571,32350
61563,32354
61554,32357
61544,32360
61535,32361
61525,32362
61269,32362
61260,32361
61250,32360
61241,32357
61232,32354
61223,32350
61215,32345
61207,32339
61200,32333
61193,32326
61187,32318
61182,32310
61178,32301
61175,32292
61173,32282
61171,32273
61171,32263
61171,31909
61171,31899
61173,31890
61175,31880
61178,31871
61182,31863
61187,31854
61193,31847
61200,31839
61207,31833
61215,31827
61223,31822
61232,31818
61241,31815
61250,31812
61260,31811
61269,31811
61525,31811
61535,31811
" /> 
<polyline style="fill-rule:evenodd;"
points="61210,28514
61219,28515
61229,28518
61238,28521
61247,28525
61255,28530
61263,28536
61270,28542
61276,28549
61282,28557
61287,28565
61291,28574
61294,28583
61297,28593
61298,28602
61299,28612
61299,28868
61298,28877
61297,28887
61294,28896
61291,28905
61287,28914
61282,28922
61276,28930
61270,28937
61263,28944
61255,28949
61247,28954
61238,28959
61229,28962
61219,28964
61210,28966
61200,28966
60846,28966
60836,28966
60827,28964
60817,28962
60808,28959
60800,28954
60791,28949
60784,28944
60776,28937
60770,28930
60764,28922
60759,28914
60755,28905
60752,28896
60749,28887
60748,28877
60748,28868
60748,28612
60748,28602
60749,28593
60752,28583
60755,28574
60759,28565
60764,28557
60770,28549
60776,28542
60784,28536
60791,28530
60800,28525
60808,28521
60817,28518
60827,28515
60836,28514
60846,28513
61200,28513
61210,28514
" /> 
<polyline style="fill-rule:evenodd;"
points="61210,29321
61219,29322
61229,29325
61238,29328
61247,29332
61255,29337
61263,29343
61270,29349
61276,29356
61282,29364
61287,29372
61291,29381
61294,29390
61297,29400
61298,29409
61299,29419
61299,29675
61298,29684
61297,29694
61294,29703
61291,29712
61287,29721
61282,29729
61276,29737
61270,29744
61263,29751
61255,29757
61247,29762
61238,29766
61229,29769
61219,29771
61210,29773
61200,29773
60846,29773
60836,29773
60827,29771
60817,29769
60808,29766
60800,29762
60791,29757
60784,29751
60776,29744
60770,29737
60764,29729
60759,29721
60755,29712
60752,29703
60749,29694
60748,29684
60748,29675
60748,29419
60748,29409
60749,29400
60752,29390
60755,29381
60759,29372
60764,29364
60770,29356
60776,29349
60784,29343
60791,29337
60800,29332
60808,29328
60817,29325
60827,29322
60836,29321
60846,29320
61200,29320
61210,29321
" /> 
<polyline style="fill-rule:evenodd;"
points="65049,33258
65058,33259
65067,33262
65077,33265
65085,33269
65094,33274
65101,33280
65108,33286
65115,33293
65121,33301
65126,33309
65130,33318
65133,33327
65135,33337
65137,33346
65137,33356
65137,33612
65137,33621
65135,33631
65133,33640
65130,33649
65126,33658
65121,33666
65115,33674
65108,33681
65101,33688
65094,33694
65085,33699
65077,33703
65067,33706
65058,33708
65049,33710
65039,33710
64685,33710
64675,33710
64665,33708
64656,33706
64647,33703
64638,33699
64630,33694
64622,33688
64615,33681
64608,33674
64603,33666
64598,33658
64594,33649
64590,33640
64588,33631
64587,33621
64586,33612
64586,33356
64587,33346
64588,33337
64590,33327
64594,33318
64598,33309
64603,33301
64608,33293
64615,33286
64622,33280
64630,33274
64638,33269
64647,33265
64656,33262
64665,33259
64675,33258
64685,33257
65039,33257
65049,33258
" /> 
<polyline style="fill-rule:evenodd;"
points="65049,32451
65058,32452
65067,32455
65077,32458
65085,32462
65094,32467
65101,32473
65108,32479
65115,32486
65121,32494
65126,32502
65130,32511
65133,32520
65135,32530
65137,32539
65137,32549
65137,32805
65137,32814
65135,32824
65133,32833
65130,32842
65126,32851
65121,32859
65115,32867
65108,32874
65101,32881
65094,32886
65085,32891
65077,32896
65067,32899
65058,32901
65049,32903
65039,32903
64685,32903
64675,32903
64665,32901
64656,32899
64647,32896
64638,32891
64630,32886
64622,32881
64615,32874
64608,32867
64603,32859
64598,32851
64594,32842
64590,32833
64588,32824
64587,32814
64586,32805
64586,32549
64587,32539
64588,32530
64590,32520
64594,32511
64598,32502
64603,32494
64608,32486
64615,32479
64622,32473
64630,32467
64638,32462
64647,32458
64656,32455
64665,32452
64675,32451
64685,32450
65039,32450
65049,32451
" /> 
<polyline style="fill-rule:evenodd;"
points="59635,26171
59645,26173
59654,26175
59663,26178
59672,26182
59680,26187
59688,26193
59695,26200
59702,26207
59707,26215
59712,26223
59716,26232
59720,26241
59722,26250
59723,26260
59724,26269
59724,26525
59723,26535
59722,26544
59720,26554
59716,26563
59712,26571
59707,26580
59702,26588
59695,26595
59688,26601
59680,26607
59672,26612
59663,26616
59654,26619
59645,26622
59635,26623
59625,26624
59271,26624
59262,26623
59252,26622
59243,26619
59233,26616
59225,26612
59216,26607
59209,26601
59202,26595
59195,26588
59189,26580
59184,26571
59180,26563
59177,26554
59175,26544
59173,26535
59173,26525
59173,26269
59173,26260
59175,26250
59177,26241
59180,26232
59184,26223
59189,26215
59195,26207
59202,26200
59209,26193
59216,26187
59225,26182
59233,26178
59243,26175
59252,26173
59262,26171
59271,26171
59625,26171
59635,26171
" /> 
<polyline style="fill-rule:evenodd;"
points="59635,25364
59645,25366
59654,25368
59663,25371
59672,25375
59680,25380
59688,25386
59695,25393
59702,25400
59707,25407
59712,25416
59716,25424
59720,25434
59722,25443
59723,25452
59724,25462
59724,25718
59723,25728
59722,25737
59720,25747
59716,25756
59712,25764
59707,25773
59702,25780
59695,25788
59688,25794
59680,25800
59672,25805
59663,25809
59654,25812
59645,25815
59635,25816
59625,25816
59271,25816
59262,25816
59252,25815
59243,25812
59233,25809
59225,25805
59216,25800
59209,25794
59202,25788
59195,25780
59189,25773
59184,25764
59180,25756
59177,25747
59175,25737
59173,25728
59173,25718
59173,25462
59173,25452
59175,25443
59177,25434
59180,25424
59184,25416
59189,25407
59195,25400
59202,25393
59209,25386
59216,25380
59225,25375
59233,25371
59243,25368
59252,25366
59262,25364
59271,25364
59625,25364
59635,25364
" /> 
<polyline style="fill-rule:evenodd;"
points="55895,26177
55905,26179
55914,26181
55923,26184
55932,26188
55940,26193
55948,26199
55955,26205
55961,26213
55967,26220
55972,26229
55976,26237
55980,26247
55982,26256
55983,26265
55984,26275
55984,26531
55983,26541
55982,26550
55980,26560
55976,26569
55972,26577
55967,26586
55961,26593
55955,26601
55948,26607
55940,26613
55932,26618
55923,26622
55914,26625
55905,26628
55895,26629
55885,26629
55531,26629
55521,26629
55512,26628
55502,26625
55493,26622
55485,26618
55476,26613
55469,26607
55461,26601
55455,26593
55449,26586
55444,26577
55440,26569
55437,26560
55434,26550
55433,26541
55433,26531
55433,26275
55433,26265
55434,26256
55437,26247
55440,26237
55444,26229
55449,26220
55455,26213
55461,26205
55469,26199
55476,26193
55485,26188
55493,26184
55502,26181
55512,26179
55521,26177
55531,26177
55885,26177
55895,26177
" /> 
<polyline style="fill-rule:evenodd;"
points="55895,25370
55905,25371
55914,25374
55923,25377
55932,25381
55940,25386
55948,25392
55955,25398
55961,25406
55967,25413
55972,25422
55976,25430
55980,25439
55982,25449
55983,25458
55984,25468
55984,25724
55983,25734
55982,25743
55980,25752
55976,25762
55972,25770
55967,25779
55961,25786
55955,25794
55948,25800
55940,25806
55932,25811
55923,25815
55914,25818
55905,25820
55895,25822
55885,25822
55531,25822
55521,25822
55512,25820
55502,25818
55493,25815
55485,25811
55476,25806
55469,25800
55461,25794
55455,25786
55449,25779
55444,25770
55440,25762
55437,25752
55434,25743
55433,25734
55433,25724
55433,25468
55433,25458
55434,25449
55437,25439
55440,25430
55444,25422
55449,25413
55455,25406
55461,25398
55469,25392
55476,25386
55485,25381
55493,25377
55502,25374
55512,25371
55521,25370
55531,25370
55885,25370
55895,25370
" /> 
<polyline style="fill-rule:evenodd;"
points="64852,26177
64861,26179
64871,26181
64880,26184
64888,26188
64897,26193
64904,26199
64912,26205
64918,26213
64924,26220
64929,26229
64933,26237
64936,26247
64939,26256
64940,26265
64940,26275
64940,26531
64940,26541
64939,26550
64936,26560
64933,26569
64929,26577
64924,26586
64918,26593
64912,26601
64904,26607
64897,26613
64888,26618
64880,26622
64871,26625
64861,26628
64852,26629
64842,26629
64488,26629
64478,26629
64468,26628
64459,26625
64450,26622
64441,26618
64433,26613
64425,26607
64418,26601
64412,26593
64406,26586
64401,26577
64397,26569
64394,26560
64391,26550
64390,26541
64389,26531
64389,26275
64390,26265
64391,26256
64394,26247
64397,26237
64401,26229
64406,26220
64412,26213
64418,26205
64425,26199
64433,26193
64441,26188
64450,26184
64459,26181
64468,26179
64478,26177
64488,26177
64842,26177
64852,26177
" /> 
<polyline style="fill-rule:evenodd;"
points="64852,25370
64861,25371
64871,25374
64880,25377
64888,25381
64897,25386
64904,25392
64912,25398
64918,25406
64924,25413
64929,25422
64933,25430
64936,25439
64939,25449
64940,25458
64940,25468
64940,25724
64940,25734
64939,25743
64936,25752
64933,25762
64929,25770
64924,25779
64918,25786
64912,25794
64904,25800
64897,25806
64888,25811
64880,25815
64871,25818
64861,25820
64852,25822
64842,25822
64488,25822
64478,25822
64468,25820
64459,25818
64450,25815
64441,25811
64433,25806
64425,25800
64418,25794
64412,25786
64406,25779
64401,25770
64397,25762
64394,25752
64391,25743
64390,25734
64389,25724
64389,25468
64390,25458
64391,25449
64394,25439
64397,25430
64401,25422
64406,25413
64412,25406
64418,25398
64425,25392
64433,25386
64441,25381
64450,25377
64459,25374
64468,25371
64478,25370
64488,25370
64842,25370
64852,25370
" /> 
<polyline style="fill-rule:evenodd;"
points="61604,26152
61613,26153
61623,26155
61632,26159
61640,26163
61649,26168
61656,26173
61664,26180
61670,26187
61676,26195
61681,26203
61685,26212
61688,26221
61691,26230
61692,26240
61692,26249
61692,26505
61692,26515
61691,26525
61688,26534
61685,26543
61681,26552
61676,26560
61670,26568
61664,26575
61656,26581
61649,26587
61640,26592
61632,26596
61623,26600
61613,26602
61604,26603
61594,26604
61240,26604
61230,26603
61220,26602
61211,26600
61202,26596
61193,26592
61185,26587
61177,26581
61170,26575
61164,26568
61158,26560
61153,26552
61149,26543
61145,26534
61143,26525
61142,26515
61141,26505
61141,26249
61142,26240
61143,26230
61145,26221
61149,26212
61153,26203
61158,26195
61164,26187
61170,26180
61177,26173
61185,26168
61193,26163
61202,26159
61211,26155
61220,26153
61230,26152
61240,26151
61594,26151
61604,26152
" /> 
<polyline style="fill-rule:evenodd;"
points="61604,25344
61613,25346
61623,25348
61632,25351
61640,25356
61649,25361
61656,25366
61664,25373
61670,25380
61676,25388
61681,25396
61685,25405
61688,25414
61691,25423
61692,25433
61692,25442
61692,25698
61692,25708
61691,25718
61688,25727
61685,25736
61681,25745
61676,25753
61670,25761
61664,25768
61656,25774
61649,25780
61640,25785
61632,25789
61623,25793
61613,25795
61604,25796
61594,25797
61240,25797
61230,25796
61220,25795
61211,25793
61202,25789
61193,25785
61185,25780
61177,25774
61170,25768
61164,25761
61158,25753
61153,25745
61149,25736
61145,25727
61143,25718
61142,25708
61141,25698
61141,25442
61142,25433
61143,25423
61145,25414
61149,25405
61153,25396
61158,25388
61164,25380
61170,25373
61177,25366
61185,25361
61193,25356
61202,25351
61211,25348
61220,25346
61230,25344
61240,25344
61594,25344
61604,25344
" /> 
<polyline style="fill-rule:evenodd;"
points="56879,19872
56889,19873
56898,19876
56907,19879
56916,19883
56924,19888
56932,19894
56939,19900
56946,19908
56951,19915
56956,19924
56961,19932
56964,19941
56966,19951
56968,19960
56968,19970
56968,20226
56968,20236
56966,20245
56964,20254
56961,20264
56956,20272
56951,20281
56946,20288
56939,20295
56932,20302
56924,20308
56916,20313
56907,20317
56898,20320
56889,20322
56879,20324
56870,20324
56515,20324
56506,20324
56496,20322
56487,20320
56478,20317
56469,20313
56461,20308
56453,20302
56446,20295
56439,20288
56433,20281
56428,20272
56424,20264
56421,20254
56419,20245
56417,20236
56417,20226
56417,19970
56417,19960
56419,19951
56421,19941
56424,19932
56428,19924
56433,19915
56439,19908
56446,19900
56453,19894
56461,19888
56469,19883
56478,19879
56487,19876
56496,19873
56506,19872
56515,19872
56870,19872
56879,19872
" /> 
<polyline style="fill-rule:evenodd;"
points="56879,19065
56889,19066
56898,19069
56907,19072
56916,19076
56924,19081
56932,19087
56939,19093
56946,19100
56951,19108
56956,19116
56961,19125
56964,19134
56966,19144
56968,19153
56968,19163
56968,19419
56968,19428
56966,19438
56964,19447
56961,19456
56956,19465
56951,19473
56946,19481
56939,19488
56932,19495
56924,19501
56916,19506
56907,19510
56898,19513
56889,19515
56879,19517
56870,19517
56515,19517
56506,19517
56496,19515
56487,19513
56478,19510
56469,19506
56461,19501
56453,19495
56446,19488
56439,19481
56433,19473
56428,19465
56424,19456
56421,19447
56419,19438
56417,19428
56417,19419
56417,19163
56417,19153
56419,19144
56421,19134
56424,19125
56428,19116
56433,19108
56439,19100
56446,19093
56453,19087
56461,19081
56469,19076
56478,19072
56487,19069
56496,19066
56506,19065
56515,19064
56870,19064
56879,19065
" /> 
<polyline style="fill-rule:evenodd;"
points="63966,26181
63975,26182
63985,26184
63994,26188
64003,26192
64011,26197
64019,26203
64026,26209
64032,26216
64038,26224
64043,26232
64047,26241
64050,26250
64053,26259
64054,26269
64055,26279
64055,26535
64054,26544
64053,26554
64050,26563
64047,26572
64043,26581
64038,26589
64032,26597
64026,26604
64019,26611
64011,26616
64003,26621
63994,26625
63985,26629
63975,26631
63966,26632
63956,26633
63602,26633
63592,26632
63583,26631
63573,26629
63564,26625
63555,26621
63547,26616
63539,26611
63532,26604
63526,26597
63520,26589
63515,26581
63511,26572
63508,26563
63505,26554
63504,26544
63503,26535
63503,26279
63504,26269
63505,26259
63508,26250
63511,26241
63515,26232
63520,26224
63526,26216
63532,26209
63539,26203
63547,26197
63555,26192
63564,26188
63573,26184
63583,26182
63592,26181
63602,26180
63956,26180
63966,26181
" /> 
<polyline style="fill-rule:evenodd;"
points="63966,25374
63975,25375
63985,25377
63994,25381
64003,25385
64011,25390
64019,25395
64026,25402
64032,25409
64038,25417
64043,25425
64047,25434
64050,25443
64053,25452
64054,25462
64055,25472
64055,25727
64054,25737
64053,25747
64050,25756
64047,25765
64043,25774
64038,25782
64032,25790
64026,25797
64019,25804
64011,25809
64003,25814
63994,25818
63985,25822
63975,25824
63966,25825
63956,25826
63602,25826
63592,25825
63583,25824
63573,25822
63564,25818
63555,25814
63547,25809
63539,25804
63532,25797
63526,25790
63520,25782
63515,25774
63511,25765
63508,25756
63505,25747
63504,25737
63503,25727
63503,25472
63504,25462
63505,25452
63508,25443
63511,25434
63515,25425
63520,25417
63526,25409
63532,25402
63539,25395
63547,25390
63555,25385
63564,25381
63573,25377
63583,25375
63592,25374
63602,25373
63956,25373
63966,25374
" /> 
<polyline style="fill-rule:evenodd;"
points="60619,26171
60629,26173
60638,26175
60647,26178
60656,26182
60664,26187
60672,26193
60679,26200
60686,26207
60692,26215
60697,26223
60701,26232
60704,26241
60706,26250
60708,26260
60708,26269
60708,26525
60708,26535
60706,26544
60704,26554
60701,26563
60697,26571
60692,26580
60686,26588
60679,26595
60672,26601
60664,26607
60656,26612
60647,26616
60638,26619
60629,26622
60619,26623
60610,26624
60255,26624
60246,26623
60236,26622
60227,26619
60218,26616
60209,26612
60201,26607
60193,26601
60186,26595
60179,26588
60174,26580
60169,26571
60164,26563
60161,26554
60159,26544
60157,26535
60157,26525
60157,26269
60157,26260
60159,26250
60161,26241
60164,26232
60169,26223
60174,26215
60179,26207
60186,26200
60193,26193
60201,26187
60209,26182
60218,26178
60227,26175
60236,26173
60246,26171
60255,26171
60610,26171
60619,26171
" /> 
<polyline style="fill-rule:evenodd;"
points="60619,25364
60629,25366
60638,25368
60647,25371
60656,25375
60664,25380
60672,25386
60679,25393
60686,25400
60692,25407
60697,25416
60701,25424
60704,25434
60706,25443
60708,25452
60708,25462
60708,25718
60708,25728
60706,25737
60704,25747
60701,25756
60697,25764
60692,25773
60686,25780
60679,25788
60672,25794
60664,25800
60656,25805
60647,25809
60638,25812
60629,25815
60619,25816
60610,25816
60255,25816
60246,25816
60236,25815
60227,25812
60218,25809
60209,25805
60201,25800
60193,25794
60186,25788
60179,25780
60174,25773
60169,25764
60164,25756
60161,25747
60159,25737
60157,25728
60157,25718
60157,25462
60157,25452
60159,25443
60161,25434
60164,25424
60169,25416
60174,25407
60179,25400
60186,25393
60193,25386
60201,25380
60209,25375
60218,25371
60227,25368
60236,25366
60246,25364
60255,25364
60610,25364
60619,25364
" /> 
<polyline style="fill-rule:evenodd;"
points="57076,26171
57086,26173
57095,26175
57104,26178
57113,26182
57121,26187
57129,26193
57136,26200
57143,26207
57148,26215
57153,26223
57157,26232
57161,26241
57163,26250
57164,26260
57165,26269
57165,26525
57164,26535
57163,26544
57161,26554
57157,26563
57153,26571
57148,26580
57143,26588
57136,26595
57129,26601
57121,26607
57113,26612
57104,26616
57095,26619
57086,26622
57076,26623
57066,26624
56712,26624
56702,26623
56693,26622
56684,26619
56674,26616
56666,26612
56657,26607
56650,26601
56643,26595
56636,26588
56630,26580
56625,26571
56621,26563
56618,26554
56616,26544
56614,26535
56614,26525
56614,26269
56614,26260
56616,26250
56618,26241
56621,26232
56625,26223
56630,26215
56636,26207
56643,26200
56650,26193
56657,26187
56666,26182
56674,26178
56684,26175
56693,26173
56702,26171
56712,26171
57066,26171
57076,26171
" /> 
<polyline style="fill-rule:evenodd;"
points="57076,25364
57086,25366
57095,25368
57104,25371
57113,25375
57121,25380
57129,25386
57136,25393
57143,25400
57148,25407
57153,25416
57157,25424
57161,25434
57163,25443
57164,25452
57165,25462
57165,25718
57164,25728
57163,25737
57161,25747
57157,25756
57153,25764
57148,25773
57143,25780
57136,25788
57129,25794
57121,25800
57113,25805
57104,25809
57095,25812
57086,25815
57076,25816
57066,25816
56712,25816
56702,25816
56693,25815
56684,25812
56674,25809
56666,25805
56657,25800
56650,25794
56643,25788
56636,25780
56630,25773
56625,25764
56621,25756
56618,25747
56616,25737
56614,25728
56614,25718
56614,25462
56614,25452
56616,25443
56618,25434
56621,25424
56625,25416
56630,25407
56636,25400
56643,25393
56650,25386
56657,25380
56666,25375
56674,25371
56684,25368
56693,25366
56702,25364
56712,25364
57066,25364
57076,25364
" /> 
<polyline style="fill-rule:evenodd;"
points="58700,30492
58228,30492
58228,30137
58700,30137
58700,30492
" /> 
<polyline style="fill-rule:evenodd;"
points="58700,31791
58228,31791
58228,31437
58700,31437
58700,31791
" /> 
<polyline style="fill-rule:evenodd;"
points="57736,30527
57263,30527
57263,30173
57736,30173
57736,30527
" /> 
<polyline style="fill-rule:evenodd;"
points="57736,31826
57263,31826
57263,31472
57736,31472
57736,31826
" /> 
<polyline style="fill-rule:evenodd;"
points="59212,31437
59685,31437
59685,31791
59212,31791
59212,31437
" /> 
<polyline style="fill-rule:evenodd;"
points="59212,30137
59685,30137
59685,30492
59212,30492
59212,30137
" /> 
<polyline style="fill-rule:evenodd;"
points="62409,31082
62409,28917
63590,28917
63590,31082
62409,31082
" /> 
<polyline style="fill-rule:evenodd;"
points="64259,31082
64259,28917
65440,28917
65440,31082
64259,31082
" /> 
<polyline style="fill-rule:evenodd;"
points="69686,31181
69696,31182
69705,31184
69714,31188
69723,31192
69731,31197
69739,31203
69746,31209
69753,31216
69759,31224
69763,31232
69768,31241
69771,31250
69773,31259
69775,31269
69775,31279
69775,31535
69775,31544
69773,31554
69771,31563
69768,31572
69763,31581
69759,31589
69753,31597
69746,31604
69739,31611
69731,31616
69723,31621
69714,31625
69705,31629
69696,31631
69686,31632
69677,31633
69322,31633
69313,31632
69303,31631
69294,31629
69285,31625
69276,31621
69268,31616
69260,31611
69253,31604
69246,31597
69240,31589
69236,31581
69231,31572
69228,31563
69226,31554
69224,31544
69224,31535
69224,31279
69224,31269
69226,31259
69228,31250
69231,31241
69236,31232
69240,31224
69246,31216
69253,31209
69260,31203
69268,31197
69276,31192
69285,31188
69294,31184
69303,31182
69313,31181
69322,31180
69677,31180
69686,31181
" /> 
<polyline style="fill-rule:evenodd;"
points="69686,30374
69696,30375
69705,30377
69714,30381
69723,30385
69731,30390
69739,30395
69746,30402
69753,30409
69759,30417
69763,30425
69768,30434
69771,30443
69773,30452
69775,30462
69775,30472
69775,30727
69775,30737
69773,30747
69771,30756
69768,30765
69763,30774
69759,30782
69753,30790
69746,30797
69739,30804
69731,30809
69723,30814
69714,30818
69705,30822
69696,30824
69686,30825
69677,30826
69322,30826
69313,30825
69303,30824
69294,30822
69285,30818
69276,30814
69268,30809
69260,30804
69253,30797
69246,30790
69240,30782
69236,30774
69231,30765
69228,30756
69226,30747
69224,30737
69224,30727
69224,30472
69224,30462
69226,30452
69228,30443
69231,30434
69236,30425
69240,30417
69246,30409
69253,30402
69260,30395
69268,30390
69276,30385
69285,30381
69294,30377
69303,30375
69313,30374
69322,30373
69677,30373
69686,30374
" /> 
<polyline style="fill-rule:evenodd;"
points="68186,31181
68196,31182
68205,31184
68214,31188
68223,31192
68231,31197
68239,31203
68246,31209
68253,31216
68259,31224
68263,31232
68268,31241
68271,31250
68273,31259
68275,31269
68275,31279
68275,31535
68275,31544
68273,31554
68271,31563
68268,31572
68263,31581
68259,31589
68253,31597
68246,31604
68239,31611
68231,31616
68223,31621
68214,31625
68205,31629
68196,31631
68186,31632
68177,31633
67822,31633
67813,31632
67803,31631
67794,31629
67785,31625
67776,31621
67768,31616
67760,31611
67753,31604
67746,31597
67740,31589
67736,31581
67731,31572
67728,31563
67726,31554
67724,31544
67724,31535
67724,31279
67724,31269
67726,31259
67728,31250
67731,31241
67736,31232
67740,31224
67746,31216
67753,31209
67760,31203
67768,31197
67776,31192
67785,31188
67794,31184
67803,31182
67813,31181
67822,31180
68177,31180
68186,31181
" /> 
<polyline style="fill-rule:evenodd;"
points="68186,30374
68196,30375
68205,30377
68214,30381
68223,30385
68231,30390
68239,30395
68246,30402
68253,30409
68259,30417
68263,30425
68268,30434
68271,30443
68273,30452
68275,30462
68275,30472
68275,30727
68275,30737
68273,30747
68271,30756
68268,30765
68263,30774
68259,30782
68253,30790
68246,30797
68239,30804
68231,30809
68223,30814
68214,30818
68205,30822
68196,30824
68186,30825
68177,30826
67822,30826
67813,30825
67803,30824
67794,30822
67785,30818
67776,30814
67768,30809
67760,30804
67753,30797
67746,30790
67740,30782
67736,30774
67731,30765
67728,30756
67726,30747
67724,30737
67724,30727
67724,30472
67724,30462
67726,30452
67728,30443
67731,30434
67736,30425
67740,30417
67746,30409
67753,30402
67760,30395
67768,30390
67776,30385
67785,30381
67794,30377
67803,30375
67813,30374
67822,30373
68177,30373
68186,30374
" /> 
</g>
<g style="fill:#000000; fill-opacity:1.0; 
stroke:#000000; stroke-width:629.921; stroke-opacity:1; 
stroke-linecap:round; stroke-linejoin:round;">
</g>
<g style="fill:#000000; fill-opacity:0.0; 
stroke:#000000; stroke-width:629.921; stroke-opacity:1; 
stroke-linecap:round; stroke-linejoin:round;">
<path d="M72500 21000
L72500 21000
" />
<path d="M85500 24000
L85500 24000
" />
<path d="M73500 21000
L73500 21000
" />
<path d="M84500 24000
L84500 24000
" />
<path d="M74500 21000
L74500 21000
" />
<path d="M83500 24000
L83500 24000
" />
<path d="M75500 21000
L75500 21000
" />
<path d="M82500 24000
L82500 24000
" />
<path d="M76500 21000
L76500 21000
" />
<path d="M81500 24000
L81500 24000
" />
<path d="M77500 21000
L77500 21000
" />
<path d="M80500 24000
L80500 24000
" />
<path d="M78500 21000
L78500 21000
" />
<path d="M79500 24000
L79500 24000
" />
<path d="M79500 21000
L79500 21000
" />
<path d="M78500 24000
L78500 24000
" />
<path d="M80500 21000
L80500 21000
" />
<path d="M77500 24000
L77500 24000
" />
<path d="M81500 21000
L81500 21000
" />
<path d="M76500 24000
L76500 24000
" />
<path d="M82500 21000
L82500 21000
" />
<path d="M75500 24000
L75500 24000
" />
<path d="M83500 21000
L83500 21000
" />
<path d="M74500 24000
L74500 24000
" />
<path d="M84500 21000
L84500 21000
" />
<path d="M73500 24000
L73500 24000
" />
<path d="M85500 21000
L85500 21000
" />
</g>
<g style="fill:#000000; fill-opacity:0.0; 
stroke:#000000; stroke-width:0; stroke-opacity:1; 
stroke-linecap:round; stroke-linejoin:round;">
</g>
<g style="fill:#000000; fill-opacity:1.0; 
stroke:#000000; stroke-width:0; stroke-opacity:1; 
stroke-linecap:round; stroke-linejoin:round;">
<polyline style="fill-rule:evenodd;"
points="72814,24314
72185,24314
72185,23685
72814,23685
72814,24314
" /> 
<polyline style="fill-rule:evenodd;"
points="70181,24035
70418,24035
70418,24625
70181,24625
70181,24035
" /> 
<polyline style="fill-rule:evenodd;"
points="69681,24035
69918,24035
69918,24625
69681,24625
69681,24035
" /> 
<polyline style="fill-rule:evenodd;"
points="69181,24035
69418,24035
69418,24625
69181,24625
69181,24035
" /> 
<polyline style="fill-rule:evenodd;"
points="68681,24035
68918,24035
68918,24625
68681,24625
68681,24035
" /> 
<polyline style="fill-rule:evenodd;"
points="68181,24035
68418,24035
68418,24625
68181,24625
68181,24035
" /> 
<polyline style="fill-rule:evenodd;"
points="67681,24035
67918,24035
67918,24625
67681,24625
67681,24035
" /> 
<polyline style="fill-rule:evenodd;"
points="67181,24035
67418,24035
67418,24625
67181,24625
67181,24035
" /> 
<polyline style="fill-rule:evenodd;"
points="66681,24035
66918,24035
66918,24625
66681,24625
66681,24035
" /> 
<polyline style="fill-rule:evenodd;"
points="66681,20374
66918,20374
66918,20964
66681,20964
66681,20374
" /> 
<polyline style="fill-rule:evenodd;"
points="67181,20374
67418,20374
67418,20964
67181,20964
67181,20374
" /> 
<polyline style="fill-rule:evenodd;"
points="67681,20374
67918,20374
67918,20964
67681,20964
67681,20374
" /> 
<polyline style="fill-rule:evenodd;"
points="68181,20374
68418,20374
68418,20964
68181,20964
68181,20374
" /> 
<polyline style="fill-rule:evenodd;"
points="68681,20374
68918,20374
68918,20964
68681,20964
68681,20374
" /> 
<polyline style="fill-rule:evenodd;"
points="69181,20374
69418,20374
69418,20964
69181,20964
69181,20374
" /> 
<polyline style="fill-rule:evenodd;"
points="69681,20374
69918,20374
69918,20964
69681,20964
69681,20374
" /> 
<polyline style="fill-rule:evenodd;"
points="70181,20374
70418,20374
70418,20964
70181,20964
70181,20374
" /> 
<circle cx="76476.4" cy="29232.3" r="157.48" /> 
</g>
<g style="fill:#000000; fill-opacity:1.0; 
stroke:#000000; stroke-width:39.3701; stroke-opacity:1; 
stroke-linecap:round; stroke-linejoin:round;">
</g>
<g style="fill:#000000; fill-opacity:1.0; 
stroke:#000000; stroke-width:0; stroke-opacity:1; 
stroke-linecap:round; stroke-linejoin:round;">
<circle cx="66043.3" cy="30807.1" r="157.48" /> 
</g>
<g style="fill:#000000; fill-opacity:1.0; 
stroke:#000000; stroke-width:39.3701; stroke-opacity:1; 
stroke-linecap:round; stroke-linejoin:round;">
</g>
<g style="fill:#000000; fill-opacity:1.0; 
stroke:#000000; stroke-width:0; stroke-opacity:1; 
stroke-linecap:round; stroke-linejoin:round;">
<circle cx="59252" cy="19881.9" r="157.48" /> 
</g>
<g style="fill:#000000; fill-opacity:1.0; 
stroke:#000000; stroke-width:39.3701; stroke-opacity:1; 
stroke-linecap:round; stroke-linejoin:round;">
</g>
<g style="fill:#000000; fill-opacity:1.0; 
stroke:#000000; stroke-width:0; stroke-opacity:1; 
stroke-linecap:round; stroke-linejoin:round;">
<circle cx="62401.6" cy="25000" r="157.48" /> 
</g>
<g style="fill:#000000; fill-opacity:1.0; 
stroke:#000000; stroke-width:39.3701; stroke-opacity:1; 
stroke-linecap:round; stroke-linejoin:round;">
</g>
<g style="fill:#000000; fill-opacity:1.0; 
stroke:#000000; stroke-width:0; stroke-opacity:1; 
stroke-linecap:round; stroke-linejoin:round;">
<circle cx="82100" cy="28100" r="157.48" /> 
</g>
<g style="fill:#000000; fill-opacity:1.0; 
stroke:#000000; stroke-width:39.3701; stroke-opacity:1; 
stroke-linecap:round; stroke-linejoin:round;">
</g>
<g style="fill:#000000; fill-opacity:1.0; 
stroke:#000000; stroke-width:0; stroke-opacity:1; 
stroke-linecap:round; stroke-linejoin:round;">
<circle cx="77559.1" cy="22834.6" r="157.48" /> 
</g>
<g style="fill:#000000; fill-opacity:1.0; 
stroke:#000000; stroke-width:39.3701; stroke-opacity:1; 
stroke-linecap:round; stroke-linejoin:round;">
</g>
<g style="fill:#000000; fill-opacity:1.0; 
stroke:#000000; stroke-width:0; stroke-opacity:1; 
stroke-linecap:round; stroke-linejoin:round;">
<circle cx="81496.1" cy="22834.6" r="157.48" /> 
</g>
<g style="fill:#000000; fill-opacity:1.0; 
stroke:#000000; stroke-width:39.3701; stroke-opacity:1; 
stroke-linecap:round; stroke-linejoin:round;">
</g>
<g style="fill:#000000; fill-opacity:1.0; 
stroke:#000000; stroke-width:0; stroke-opacity:1; 
stroke-linecap:round; stroke-linejoin:round;">
<circle cx="70275.6" cy="34153.5" r="157.48" /> 
</g>
<g style="fill:#000000; fill-opacity:1.0; 
stroke:#000000; stroke-width:39.3701; stroke-opacity:1; 
stroke-linecap:round; stroke-linejoin:round;">
</g>
<g style="fill:#000000; fill-opacity:1.0; 
stroke:#000000; stroke-width:0; stroke-opacity:1; 
stroke-linecap:round; stroke-linejoin:round;">
<circle cx="68996.1" cy="32775.6" r="157.48" /> 
</g>
<g style="fill:#000000; fill-opacity:1.0; 
stroke:#000000; stroke-width:39.3701; stroke-opacity:1; 
stroke-linecap:round; stroke-linejoin:round;">
</g>
<g style="fill:#000000; fill-opacity:1.0; 
stroke:#000000; stroke-width:0; stroke-opacity:1; 
stroke-linecap:round; stroke-linejoin:round;">
<circle cx="64566.9" cy="27263.8" r="157.48" /> 
</g>
<g style="fill:#000000; fill-opacity:1.0; 
stroke:#000000; stroke-width:39.3701; stroke-opacity:1; 
stroke-linecap:round; stroke-linejoin:round;">
</g>
<g style="fill:#000000; fill-opacity:1.0; 
stroke:#000000; stroke-width:0; stroke-opacity:1; 
stroke-linecap:round; stroke-linejoin:round;">
<circle cx="65551.2" cy="23326.8" r="157.48" /> 
</g>
<g style="fill:#000000; fill-opacity:1.0; 
stroke:#000000; stroke-width:39.3701; stroke-opacity:1; 
stroke-linecap:round; stroke-linejoin:round;">
</g>
<g style="fill:#000000; fill-opacity:1.0; 
stroke:#000000; stroke-width:0; stroke-opacity:1; 
stroke-linecap:round; stroke-linejoin:round;">
<circle cx="63385.8" cy="31889.8" r="157.48" /> 
</g>
<g style="fill:#000000; fill-opacity:1.0; 
stroke:#000000; stroke-width:39.3701; stroke-opacity:1; 
stroke-linecap:round; stroke-linejoin:round;">
</g>
<g style="fill:#000000; fill-opacity:1.0; 
stroke:#000000; stroke-width:0; stroke-opacity:1; 
stroke-linecap:round; stroke-linejoin:round;">
<circle cx="67618.1" cy="32972.4" r="157.48" /> 
</g>
<g style="fill:#000000; fill-opacity:1.0; 
stroke:#000000; stroke-width:39.3701; stroke-opacity:1; 
stroke-linecap:round; stroke-linejoin:round;">
</g>
<g style="fill:#000000; fill-opacity:1.0; 
stroke:#000000; stroke-width:0; stroke-opacity:1; 
stroke-linecap:round; stroke-linejoin:round;">
<circle cx="61318.9" cy="22637.8" r="157.48" /> 
</g>
<g style="fill:#000000; fill-opacity:1.0; 
stroke:#000000; stroke-width:39.3701; stroke-opacity:1; 
stroke-linecap:round; stroke-linejoin:round;">
</g>
<g style="fill:#000000; fill-opacity:1.0; 
stroke:#000000; stroke-width:0; stroke-opacity:1; 
stroke-linecap:round; stroke-linejoin:round;">
<circle cx="60826.8" cy="22244.1" r="157.48" /> 
</g>
<g style="fill:#000000; fill-opacity:1.0; 
stroke:#000000; stroke-width:39.3701; stroke-opacity:1; 
stroke-linecap:round; stroke-linejoin:round;">
</g>
<g style="fill:#000000; fill-opacity:1.0; 
stroke:#000000; stroke-width:0; stroke-opacity:1; 
stroke-linecap:round; stroke-linejoin:round;">
<circle cx="60433.1" cy="21752" r="157.48" /> 
</g>
<g style="fill:#000000; fill-opacity:1.0; 
stroke:#000000; stroke-width:39.3701; stroke-opacity:1; 
stroke-linecap:round; stroke-linejoin:round;">
</g>
<g style="fill:#000000; fill-opacity:1.0; 
stroke:#000000; stroke-width:0; stroke-opacity:1; 
stroke-linecap:round; stroke-linejoin:round;">
<circle cx="84500" cy="19685" r="157.48" /> 
</g>
<g style="fill:#000000; fill-opacity:1.0; 
stroke:#000000; stroke-width:39.3701; stroke-opacity:1; 
stroke-linecap:round; stroke-linejoin:round;">
</g>
<g style="fill:#000000; fill-opacity:1.0; 
stroke:#000000; stroke-width:0; stroke-opacity:1; 
stroke-linecap:round; stroke-linejoin:round;">
<circle cx="61417.3" cy="19881.9" r="157.48" /> 
</g>
<g style="fill:#000000; fill-opacity:1.0; 
stroke:#000000; stroke-width:39.3701; stroke-opacity:1; 
stroke-linecap:round; stroke-linejoin:round;">
</g>
<g style="fill:#000000; fill-opacity:1.0; 
stroke:#000000; stroke-width:0; stroke-opacity:1; 
stroke-linecap:round; stroke-linejoin:round;">
<circle cx="69300" cy="21546.5" r="157.48" /> 
</g>
<g style="fill:#000000; fill-opacity:1.0; 
stroke:#000000; stroke-width:39.3701; stroke-opacity:1; 
stroke-linecap:round; stroke-linejoin:round;">
</g>
<g style="fill:#000000; fill-opacity:1.0; 
stroke:#000000; stroke-width:0; stroke-opacity:1; 
stroke-linecap:round; stroke-linejoin:round;">
<circle cx="76500" cy="22244.1" r="157.48" /> 
</g>
<g style="fill:#000000; fill-opacity:1.0; 
stroke:#000000; stroke-width:39.3701; stroke-opacity:1; 
stroke-linecap:round; stroke-linejoin:round;">
</g>
<g style="fill:#000000; fill-opacity:1.0; 
stroke:#000000; stroke-width:98.4252; stroke-opacity:1; 
stroke-linecap:round; stroke-linejoin:round;">
</g>
<g style="fill:#000000; fill-opacity:0.0; 
stroke:#000000; stroke-width:98.4252; stroke-opacity:1; 
stroke-linecap:round; stroke-linejoin:round;">
<path d="M80500 22000
L80100 22400
" />
<path d="M80500 21000
L80500 22000
" />
<path d="M80100 22400
L79000 22400
" />
<path d="M79000 22400
L78500 22900
" />
<path d="M78500 22900
L78500 24000
" />
<path d="M78500 26000
L78500 24000
" />
<path d="M80500 28000
L78500 26000
" />
<path d="M62893 25590
L62401 25590
" />
<path d="M64850 30000
L64850 28818
" />
<path d="M63090 27059
L63090 25787
" />
<path d="M64850 28818
L63090 27059
" />
<path d="M63090 25787
L62893 25590
" />
<path d="M64850 32665
L64862 32677
" />
<path d="M64850 30000
L64850 32665
" />
<path d="M76476 29232
L76476 29232
" />
<path d="M65657 30807
L64850 30000
" />
<path d="M65657 30807
L66043 30807
" />
<path d="M69800 19963
L69800 20669
" />
<path d="M80500 21000
L80500 19968
" />
<path d="M85175 29500
L80500 29500
" />
<path d="M85600 29500
L85175 29500
" />
<path d="M80500 29500
L80500 28000
" />
<path d="M79685 30314
L80500 29500
" />
<path d="M76771 30314
L79685 30314
" />
<path d="M76476 30019
L76771 30314
" />
<path d="M76476 29232
L76476 30019
" />
<path d="M80500 19968
L80216 19685
" />
<path d="M80216 19685
L70078 19685
" />
<path d="M70078 19685
L69800 19963
" />
</g>
<g style="fill:#000000; fill-opacity:0.0; 
stroke:#000000; stroke-width:78.7402; stroke-opacity:1; 
stroke-linecap:round; stroke-linejoin:round;">
<path d="M59645 21000
L59842 21000
" />
<path d="M62401 25590
L62401 25000
" />
<path d="M59842 21000
L59842 20669
" />
<path d="M59842 20669
L59645 20472
" />
<path d="M59645 20472
L59645 20275
" />
<path d="M59645 20275
L59251 19881
" />
<path d="M59251 19881
L59251 19881
" />
<path d="M62401 25000
L62401 25000
" />
</g>
<g style="fill:#000000; fill-opacity:0.0; 
stroke:#000000; stroke-width:98.4252; stroke-opacity:1; 
stroke-linecap:round; stroke-linejoin:round;">
<path d="M71800 33186
L73600 31386
" />
<path d="M71800 33206
L71800 33186
" />
<path d="M73600 31386
L73600 24900
" />
<path d="M73600 24900
L73600 24800
" />
<path d="M69300 24724
L69300 24330
" />
<path d="M69300 25050
L69300 24724
" />
<path d="M70866 29133
L69300 27567
" />
<path d="M69300 27567
L69300 24330
" />
<path d="M61220 21000
L61220 20665
" />
<path d="M61220 20665
L61220 20314
" />
</g>
<g style="fill:#000000; fill-opacity:0.0; 
stroke:#000000; stroke-width:78.7402; stroke-opacity:1; 
stroke-linecap:round; stroke-linejoin:round;">
<path d="M59448 20669
L59251 20472
" />
<path d="M59448 20669
L59448 21062
" />
</g>
<g style="fill:#000000; fill-opacity:0.0; 
stroke:#000000; stroke-width:98.4252; stroke-opacity:1; 
stroke-linecap:round; stroke-linejoin:round;">
<path d="M71425 34055
L71170 34055
" />
<path d="M71170 34055
L70669 34055
" />
<path d="M57500 30625
L57779 30905
" />
<path d="M57500 30350
L57500 30625
" />
<path d="M57779 30905
L58267 30905
" />
<path d="M58464 31102
L58464 31614
" />
<path d="M58267 30905
L58464 31102
" />
<path d="M58464 31889
L58464 31614
" />
<path d="M58661 32086
L58464 31889
" />
<path d="M61397 32086
L58661 32086
" />
<path d="M59448 31614
L60511 31614
" />
<path d="M62125 30000
L63000 30000
" />
<path d="M60511 31614
L62125 30000
" />
<path d="M63000 31291
L63000 30000
" />
<path d="M62204 32086
L63000 31291
" />
<path d="M66893 33000
L67492 33000
" />
<path d="M63010 31291
L63000 31291
" />
<path d="M63385 31667
L63010 31291
" />
<path d="M63385 31889
L63385 31667
" />
<path d="M61023 29547
L61023 29921
" />
<path d="M60629 30314
L59448 30314
" />
<path d="M61023 29921
L60629 30314
" />
</g>
<g style="fill:#000000; fill-opacity:0.0; 
stroke:#000000; stroke-width:78.7402; stroke-opacity:1; 
stroke-linecap:round; stroke-linejoin:round;">
<path d="M58661 21000
L58661 21456
" />
</g>
<g style="fill:#000000; fill-opacity:0.0; 
stroke:#000000; stroke-width:98.4252; stroke-opacity:1; 
stroke-linecap:round; stroke-linejoin:round;">
<path d="M58267 26771
L58267 21850
" />
</g>
<g style="fill:#000000; fill-opacity:0.0; 
stroke:#000000; stroke-width:78.7402; stroke-opacity:1; 
stroke-linecap:round; stroke-linejoin:round;">
<path d="M58661 21456
L58267 21850
" />
</g>
<g style="fill:#000000; fill-opacity:0.0; 
stroke:#000000; stroke-width:98.4252; stroke-opacity:1; 
stroke-linecap:round; stroke-linejoin:round;">
<path d="M59448 27952
L58267 26771
" />
<path d="M59448 30314
L59448 27952
" />
</g>
<g style="fill:#000000; fill-opacity:0.0; 
stroke:#000000; stroke-width:78.7402; stroke-opacity:1; 
stroke-linecap:round; stroke-linejoin:round;">
<path d="M58858 21000
L58858 22244
" />
<path d="M58858 22244
L59448 22834
" />
<path d="M59448 22834
L59448 23031
" />
</g>
<g style="fill:#000000; fill-opacity:0.0; 
stroke:#000000; stroke-width:98.4252; stroke-opacity:1; 
stroke-linecap:round; stroke-linejoin:round;">
<path d="M59448 23031
L59448 25590
" />
<path d="M56559 21000
L58061 21000
" />
<path d="M55708 21850
L56559 21000
" />
<path d="M55708 25596
L55708 21850
" />
<path d="M64665 25596
L64665 24606
" />
</g>
<g style="fill:#000000; fill-opacity:0.0; 
stroke:#000000; stroke-width:78.7402; stroke-opacity:1; 
stroke-linecap:round; stroke-linejoin:round;">
<path d="M64665 24507
L64665 24606
" />
<path d="M62007 21850
L64665 24507
" />
<path d="M62007 21000
L62007 21850
" />
</g>
<g style="fill:#000000; fill-opacity:0.0; 
stroke:#000000; stroke-width:98.4252; stroke-opacity:1; 
stroke-linecap:round; stroke-linejoin:round;">
<path d="M61417 24409
L61417 25570
" />
</g>
<g style="fill:#000000; fill-opacity:0.0; 
stroke:#000000; stroke-width:78.7402; stroke-opacity:1; 
stroke-linecap:round; stroke-linejoin:round;">
<path d="M61417 23818
L61417 24015
" />
</g>
<g style="fill:#000000; fill-opacity:0.0; 
stroke:#000000; stroke-width:98.4252; stroke-opacity:1; 
stroke-linecap:round; stroke-linejoin:round;">
<path d="M61417 24015
L61417 24409
" />
</g>
<g style="fill:#000000; fill-opacity:0.0; 
stroke:#000000; stroke-width:78.7402; stroke-opacity:1; 
stroke-linecap:round; stroke-linejoin:round;">
<path d="M59251 21000
L59251 21259
" />
<path d="M59251 21259
L59645 21653
" />
<path d="M59645 21653
L59842 21850
" />
<path d="M59842 21850
L59842 22244
" />
<path d="M59842 22244
L61417 23818
" />
<path d="M58464 21000
L58464 20275
" />
<path d="M57480 19291
L56692 19291
" />
<path d="M58464 20275
L57480 19291
" />
</g>
<g style="fill:#000000; fill-opacity:0.0; 
stroke:#000000; stroke-width:98.4252; stroke-opacity:1; 
stroke-linecap:round; stroke-linejoin:round;">
<path d="M63779 25600
L63779 24409
" />
</g>
<g style="fill:#000000; fill-opacity:0.0; 
stroke:#000000; stroke-width:78.7402; stroke-opacity:1; 
stroke-linecap:round; stroke-linejoin:round;">
<path d="M63779 24212
L63779 24409
" />
<path d="M61811 21000
L61811 21259
" />
<path d="M61811 21259
L61614 21456
" />
<path d="M61614 21456
L61614 22047
" />
<path d="M61614 22047
L63779 24212
" />
<path d="M59055 21000
L59055 21653
" />
<path d="M59055 21653
L59448 22047
" />
<path d="M59448 22047
L59448 22440
" />
<path d="M59448 22440
L60433 23425
" />
<path d="M60433 23425
L60433 23622
" />
</g>
<g style="fill:#000000; fill-opacity:0.0; 
stroke:#000000; stroke-width:98.4252; stroke-opacity:1; 
stroke-linecap:round; stroke-linejoin:round;">
<path d="M60433 23622
L60433 25590
" />
<path d="M58464 30314
L58464 28149
" />
</g>
<g style="fill:#000000; fill-opacity:0.0; 
stroke:#000000; stroke-width:78.7402; stroke-opacity:1; 
stroke-linecap:round; stroke-linejoin:round;">
<path d="M58047 21456
L58267 21236
" />
<path d="M58267 21236
L58267 21000
" />
<path d="M57874 21456
L58047 21456
" />
</g>
<g style="fill:#000000; fill-opacity:0.0; 
stroke:#000000; stroke-width:98.4252; stroke-opacity:1; 
stroke-linecap:round; stroke-linejoin:round;">
<path d="M57874 21456
L57086 21456
" />
<path d="M57086 21456
L56889 21653
" />
<path d="M56889 21653
L56889 25590
" />
<path d="M56889 25590
L57283 25590
" />
<path d="M57283 25590
L57480 25787
" />
<path d="M57480 25787
L57480 27165
" />
<path d="M58464 28149
L57480 27165
" />
<path d="M66125 33374
L66451 33700
" />
<path d="M66106 33374
L66125 33374
" />
<path d="M66451 33700
L69600 33700
" />
<path d="M69600 33700
L70300 33000
" />
<path d="M70300 33000
L70300 30900
" />
<path d="M70000 30600
L69500 30600
" />
<path d="M70300 30900
L70000 30600
" />
<path d="M69500 30334
L69500 30600
" />
<path d="M69500 28433
L69500 30334
" />
</g>
<g style="fill:#000000; fill-opacity:0.0; 
stroke:#000000; stroke-width:78.7402; stroke-opacity:1; 
stroke-linecap:round; stroke-linejoin:round;">
<path d="M62401 21000
L63519 21000
" />
<path d="M63519 21000
L63779 21259
" />
<path d="M63779 21259
L63779 22712
" />
<path d="M63779 22712
L63901 22834
" />
</g>
<g style="fill:#000000; fill-opacity:0.0; 
stroke:#000000; stroke-width:98.4252; stroke-opacity:1; 
stroke-linecap:round; stroke-linejoin:round;">
<path d="M63901 22834
L69500 28433
" />
<path d="M67333 30600
L68000 30600
" />
<path d="M66106 31826
L67333 30600
" />
<path d="M66106 32625
L66106 31826
" />
<path d="M68000 30600
L68000 27400
" />
<path d="M68000 27400
L65354 24754
" />
<path d="M65400 24800
L65354 24754
" />
</g>
<g style="fill:#000000; fill-opacity:0.0; 
stroke:#000000; stroke-width:78.7402; stroke-opacity:1; 
stroke-linecap:round; stroke-linejoin:round;">
<path d="M62795 21850
L62795 22195
" />
<path d="M65354 24754
L62795 22195
" />
<path d="M62204 21000
L62204 21259
" />
<path d="M62204 21259
L62795 21850
" />
<path d="M61023 21000
L61023 21358
" />
<path d="M61023 21358
L61318 21653
" />
<path d="M61318 21653
L61318 21850
" />
<path d="M61318 21850
L61318 22637
" />
<path d="M60826 21000
L60826 21402
" />
<path d="M60826 21402
L60826 22244
" />
<path d="M60629 21000
L60629 21358
" />
<path d="M60629 21358
L60433 21555
" />
<path d="M60433 21555
L60433 21751
" />
</g>
<g style="fill:#000000; fill-opacity:0.0; 
stroke:#000000; stroke-width:98.4252; stroke-opacity:1; 
stroke-linecap:round; stroke-linejoin:round;">
<path d="M84500 19685
L84500 19637
" />
<path d="M84500 21000
L84500 19685
" />
<path d="M84500 19637
L84448 19586
" />
<path d="M60437 20665
L61122 19881
" />
<path d="M60433 21000
L60433 20665
" />
<path d="M61122 19881
L61417 19881
" />
</g>
<g style="fill:#000000; fill-opacity:0.0; 
stroke:#000000; stroke-width:78.7402; stroke-opacity:1; 
stroke-linecap:round; stroke-linejoin:round;">
<path d="M60236 20118
L60236 21000
" />
</g>
<g style="fill:#000000; fill-opacity:0.0; 
stroke:#000000; stroke-width:98.4252; stroke-opacity:1; 
stroke-linecap:round; stroke-linejoin:round;">
<path d="M81500 21000
L81500 20279
" />
<path d="M81500 20279
L80629 19409
" />
<path d="M80629 19409
L60944 19409
" />
</g>
<g style="fill:#000000; fill-opacity:0.0; 
stroke:#000000; stroke-width:78.7402; stroke-opacity:1; 
stroke-linecap:round; stroke-linejoin:round;">
<path d="M60236 20118
L60433 19921
" />
</g>
<g style="fill:#000000; fill-opacity:0.0; 
stroke:#000000; stroke-width:98.4252; stroke-opacity:1; 
stroke-linecap:round; stroke-linejoin:round;">
<path d="M60944 19409
L60433 19921
" />
<path d="M83500 20060
L82534 19094
" />
<path d="M83500 21000
L83500 20078
" />
<path d="M83500 20078
L83500 20060
" />
<path d="M83500 20078
L83500 20000
" />
<path d="M82534 19094
L82460 19094
" />
<path d="M82460 19094
L82480 19094
" />
<path d="M61220 19094
L82460 19094
" />
<path d="M60826 19094
L61220 19094
" />
</g>
<g style="fill:#000000; fill-opacity:0.0; 
stroke:#000000; stroke-width:78.7402; stroke-opacity:1; 
stroke-linecap:round; stroke-linejoin:round;">
<path d="M60039 21000
L60039 19881
" />
<path d="M60039 19881
L60236 19685
" />
</g>
<g style="fill:#000000; fill-opacity:0.0; 
stroke:#000000; stroke-width:98.4252; stroke-opacity:1; 
stroke-linecap:round; stroke-linejoin:round;">
<path d="M60236 19685
L60826 19094
" />
<path d="M75500 24445
L75500 24000
" />
<path d="M74544 34055
L72174 34055
" />
<path d="M75500 33100
L74544 34055
" />
<path d="M75500 24000
L75500 33100
" />
<path d="M69300 20669
L69300 21546
" />
<path d="M69300 21546
L69300 21546
" />
<path d="M76500 22800
L76500 22800
" />
<path d="M76500 22800
L76500 22244
" />
<path d="M76500 24000
L76500 22800
" />
<path d="M73500 22200
L73500 21000
" />
<path d="M71800 22600
L73100 22600
" />
<path d="M71400 24800
L71400 23000
" />
<path d="M69800 24330
L69800 25300
" />
<path d="M71400 23000
L71800 22600
" />
<path d="M69800 25300
L70000 25500
" />
<path d="M73100 22600
L73500 22200
" />
<path d="M70000 25500
L70700 25500
" />
<path d="M70700 25500
L71400 24800
" />
<path d="M72500 22000
L72500 21000
" />
<path d="M70300 24330
L70300 22700
" />
<path d="M70300 22700
L70700 22300
" />
<path d="M70700 22300
L72200 22300
" />
<path d="M72200 22300
L72500 22000
" />
</g>
<g style="fill:#000000; fill-opacity:1.0; 
stroke:#000000; stroke-width:100; stroke-opacity:1; 
stroke-linecap:round; stroke-linejoin:round;">
<polyline style="fill-rule:evenodd;"
points="65894,18795
60856,18795
60826,18789
60797,18795
60797,18795
60710,18812
60710,18812
60710,18812
60636,18862
60636,18862
60611,18878
60594,18903
60003,19494
59975,19536
59854,19657
59830,19673
59814,19697
59814,19697
59766,19768
59744,19881
59750,19910
59750,19970
59659,19880
59659,19800
59597,19651
59482,19536
59333,19474
59170,19474
59021,19536
58906,19651
58844,19800
58844,19962
58906,20112
59021,20227
59170,20289
59250,20289
59356,20395
59356,20443
59350,20472
59356,20500
59356,20500
59373,20585
59387,20606
59379,20605
59366,20592
59359,20592
59345,20598
59291,20587
59212,20587
59153,20599
59094,20587
59015,20587
58956,20599
58897,20587
58818,20587
58759,20599
58753,20598
58753,20304
58759,20275
58753,20247
58753,20247
58737,20162
58673,20066
58649,20050
57705,19106
57688,19082
57593,19018
57508,19001
57508,19001
57480,18996
57451,19001
57178,19001
57119,18913
57005,18836
56870,18810
56515,18810
56380,18836
56265,18913
56189,19028
56162,19163
56162,19419
56189,19554
56265,19669
56266,19669
56205,19730
56167,19822
56167,19985
56229,20048
56642,20048
56642,20040
56742,20040
56742,20048
57156,20048
57218,19985
57218,19822
57180,19730
57119,19669
57119,19669
57178,19580
57360,19580
58175,20395
58175,20598
58169,20599
58110,20587
58031,20587
57933,20607
57851,20662
57825,20700
56588,20700
56559,20694
56529,20700
56529,20700
56442,20718
56442,20718
56442,20718
56368,20767
56368,20767
56343,20784
56326,20809
55517,21617
55492,21634
55476,21659
55476,21659
55426,21733
55403,21850
55409,21879
55409,25139
55396,25142
55281,25218
55205,25333
55178,25468
55178,25724
55205,25859
55281,25974
55282,25974
55221,26035
55183,26127
55183,26291
55245,26353
55658,26353
55658,26345
55758,26345
55758,26353
56171,26353
56234,26291
56234,26127
56196,26035
56135,25974
56135,25974
56212,25859
56239,25724
56239,25468
56212,25333
56135,25218
56021,25142
56007,25139
56007,21974
56682,21299
56820,21299
56699,21421
56674,21437
56607,21536
56590,21624
56590,21624
56584,21653
56590,21683
56590,25133
56577,25136
56462,25212
56386,25327
56359,25462
56359,25718
56386,25853
56462,25968
56463,25968
56402,26029
56364,26121
56364,26285
56426,26347
56839,26347
56839,26339
56939,26339
56939,26347
56947,26347
56947,26447
56939,26447
56939,26811
57002,26874
57181,26874
57181,27135
57175,27165
57198,27282
57245,27351
57264,27381
57289,27397
58165,28273
58165,29895
58130,29902
58048,29957
57992,30040
57978,30111
57971,30075
57916,29992
57833,29937
57736,29918
57263,29918
57166,29937
57083,29992
57028,30075
57008,30173
57008,30527
57028,30625
57083,30707
57166,30763
57241,30778
57261,30807
57284,30841
57309,30858
57547,31096
57563,31121
57662,31187
57750,31204
57750,31204
57779,31210
57808,31204
58125,31204
58048,31256
57992,31339
57979,31406
57948,31330
57877,31260
57785,31222
57612,31222
57550,31284
57550,31599
57557,31599
57557,31699
57550,31699
57550,32014
57612,32076
57785,32076
57877,32038
57948,31968
57986,31876
57986,31855
57992,31888
58048,31971
58130,32026
58206,32041
58248,32105
58273,32122
58429,32277
58445,32302
58470,32319
58544,32368
58557,32370
58631,32385
58631,32385
58661,32391
58690,32385
60940,32385
60943,32398
61019,32513
61134,32590
61269,32617
61525,32617
61660,32590
61775,32513
61801,32475
61826,32513
61941,32590
62076,32617
62332,32617
62467,32590
62582,32513
62659,32398
62686,32263
62686,32028
63005,31709
63015,31719
62978,31808
62978,31970
63040,32120
63155,32235
63304,32297
63466,32297
63616,32235
63731,32120
63793,31970
63793,31808
63731,31658
63678,31606
63667,31550
63601,31451
63576,31434
63479,31337
63590,31337
63688,31318
63770,31262
63826,31180
63845,31082
63845,28917
63826,28819
63770,28737
63688,28681
63590,28662
62409,28662
62311,28681
62229,28737
62173,28819
62154,28917
62154,29700
62125,29694
62096,29700
62096,29700
62009,29718
61910,29784
61893,29809
60387,31314
59904,31314
59865,31256
59782,31201
59685,31182
59212,31182
59115,31201
59032,31256
58977,31339
58957,31437
58957,31787
58955,31787
58955,31437
58936,31339
58881,31256
58798,31201
58763,31194
58763,31131
58769,31102
58763,31072
58763,31072
58750,31004
58746,30985
58696,30911
58680,30886
58655,30869
58532,30747
58700,30747
58798,30727
58881,30672
58936,30589
58955,30492
58955,30137
58936,30040
58881,29957
58798,29902
58763,29895
58763,28179
58769,28149
58763,28120
58763,28120
58746,28032
58680,27933
58655,27917
57779,27041
57779,25816
57785,25787
57779,25757
57779,25757
57762,25670
57762,25670
57712,25596
57696,25571
57671,25554
57515,25399
57499,25374
57400,25308
57377,25304
57316,25212
57202,25136
57188,25133
57188,21777
57210,21755
57903,21755
57952,21746
57983,21746
57968,21820
57968,26742
57962,26771
57968,26801
57968,26801
57985,26888
58051,26987
58076,27004
59149,28076
59149,29895
59115,29902
59032,29957
58977,30040
58957,30137
58957,30492
58977,30589
59032,30672
59115,30727
59212,30747
59685,30747
59782,30727
59865,30672
59904,30614
60600,30614
60629,30620
60659,30614
60659,30614
60746,30596
60845,30530
60862,30505
61214,30153
61239,30136
61305,30038
61311,30006
61335,30001
61450,29925
61527,29810
61554,29675
61554,29419
61527,29284
61450,29169
61450,29169
61511,29108
61549,29016
61549,28852
61486,28790
61073,28790
61073,28798
60973,28798
60973,28790
60560,28790
60498,28852
60498,29016
60536,29108
60597,29169
60596,29169
60520,29284
60493,29419
60493,29675
60520,29810
60596,29925
60596,29925
60505,30015
59904,30015
59865,29957
59782,29902
59748,29895
59748,28464
60498,28464
60498,28627
60560,28690
60973,28690
60973,28326
61073,28326
61073,28690
61486,28690
61549,28627
61549,28464
61511,28372
61440,28301
61348,28263
61136,28263
61073,28326
60973,28326
60911,28263
60698,28263
60606,28301
60536,28372
60498,28464
59748,28464
59748,27982
59753,27952
59748,27923
59748,27923
59730,27836
59730,27836
59681,27762
59664,27737
59639,27720
58566,26647
58566,26510
58923,26510
58923,26673
58961,26765
59031,26835
59123,26874
59336,26874
59398,26811
59398,26447
59498,26447
59498,26811
59561,26874
59774,26874
59866,26835
59936,26765
59940,26754
59945,26765
60015,26835
60107,26874
60320,26874
60383,26811
60383,26447
60483,26447
60483,26811
60545,26874
60758,26874
60850,26835
60920,26765
60929,26744
60929,26745
61000,26816
61092,26854
61304,26854
61367,26791
61367,26427
61467,26427
61467,26791
61529,26854
61742,26854
61834,26816
61904,26745
61905,26744
61914,26765
61984,26835
62076,26874
62289,26874
62351,26811
62351,26447
61938,26447
61919,26466
61880,26427
61467,26427
61367,26427
60954,26427
60915,26466
60896,26447
60483,26447
60383,26447
59969,26447
59940,26476
59911,26447
59498,26447
59398,26447
58985,26447
58923,26510
58566,26510
58566,22262
58585,22357
58626,22418
58649,22452
58673,22468
59159,22954
59149,23002
59149,25133
59136,25136
59021,25212
58945,25327
58918,25462
58918,25718
58945,25853
59021,25968
59022,25968
58961,26029
58923,26121
58923,26285
58985,26347
59398,26347
59398,26339
59498,26339
59498,26347
59911,26347
59940,26318
59969,26347
60383,26347
60383,26339
60483,26339
60483,26347
60896,26347
60935,26308
60954,26327
61367,26327
61367,26320
61467,26320
61467,26327
61880,26327
61899,26308
61938,26347
62351,26347
62351,26339
62451,26339
62451,26347
62459,26347
62459,26447
62451,26447
62451,26811
62514,26874
62726,26874
62791,26847
62791,27029
62785,27059
62791,27088
62791,27088
62808,27175
62874,27274
62899,27291
64270,28662
64259,28662
64162,28681
64079,28737
64024,28819
64004,28917
64004,31082
64024,31180
64079,31262
64162,31318
64259,31337
64551,31337
64551,32222
64549,32222
64435,32299
64358,32414
64331,32549
64331,32805
64358,32940
64435,33054
64435,33055
64374,33116
64336,33208
64336,33371
64399,33434
64812,33434
64812,33426
64912,33426
64912,33434
65325,33434
65387,33371
65387,33208
65349,33116
65288,33055
65289,33054
65365,32940
65392,32805
65392,32549
65365,32414
65289,32299
65174,32222
65149,32217
65149,31337
65440,31337
65538,31318
65621,31262
65676,31180
65691,31106
65766,31106
65812,31152
65962,31214
66124,31214
66274,31152
66388,31037
66450,30888
66450,30726
66388,30576
66274,30461
66124,30399
65962,30399
65812,30461
65773,30500
65695,30422
65695,28917
65676,28819
65621,28737
65538,28681
65440,28662
65105,28662
65066,28603
65041,28586
63389,26935
63389,26856
63454,26883
63667,26883
63729,26820
63729,26457
63829,26457
63829,26820
63892,26883
64104,26883
64196,26845
64224,26817
64248,26841
64340,26879
64552,26879
64615,26817
64615,26453
64715,26453
64715,26817
64777,26879
64990,26879
65082,26841
65152,26771
65190,26679
65190,26516
65128,26453
64715,26453
64615,26453
64202,26453
64198,26457
63829,26457
63729,26457
63721,26457
63721,26357
63729,26357
63729,26349
63829,26349
63829,26357
64242,26357
64246,26353
64615,26353
64615,26345
64715,26345
64715,26353
65128,26353
65190,26291
65190,26127
65152,26035
65091,25974
65092,25974
65168,25859
65195,25724
65195,25468
65168,25333
65092,25218
64977,25142
64964,25139
64964,24773
65093,24903
65121,24945
65894,25718
65894,29921
65898,29940
65909,29956
65925,29967
65944,29971
67700,29971
67700,30143
67687,30145
67572,30222
67520,30300
67362,30300
67333,30294
67303,30300
67303,30300
67216,30318
67191,30334
67142,30367
67142,30367
67117,30384
67100,30409
65915,31594
65890,31611
65873,31636
65873,31636
65824,31710
65801,31826
65807,31856
65807,32249
65748,32288
65693,32370
65674,32468
65674,32783
65693,32881
65748,32963
65803,33000
65748,33036
65693,33118
65674,33216
65674,33531
65693,33629
65748,33711
65831,33766
65929,33786
66115,33786
66219,33890
66236,33915
66261,33932
66335,33981
66354,33985
66422,33999
66422,33999
66451,34005
66481,33999
69570,33999
69600,34005
69629,33999
69629,33999
69716,33981
69815,33915
69832,33890
70490,33232
70515,33215
70553,33158
70581,33116
70586,33092
70599,33029
70599,33029
70605,33000
70599,32970
70599,30929
70605,30900
70599,30870
70599,30870
70581,30783
70581,30783
70532,30709
70515,30684
70490,30667
70232,30409
70215,30384
70116,30318
70029,30300
70029,30300
70000,30294
69978,30299
69927,30222
69812,30145
69799,30143
69799,29971
70816,29971
70816,34595
55168,34595
55168,33596
64336,33596
64336,33760
64374,33852
64445,33922
64536,33960
64749,33960
64812,33898
64812,33534
64912,33534
64912,33898
64974,33960
65187,33960
65279,33922
65349,33852
65387,33760
65387,33596
65325,33534
64912,33534
64812,33534
64399,33534
64336,33596
55168,33596
55168,31762
57013,31762
57013,31876
57051,31968
57122,32038
57214,32076
57387,32076
57450,32014
57450,31699
57076,31699
57013,31762
55168,31762
55168,31422
57013,31422
57013,31537
57076,31599
57450,31599
57450,31284
57387,31222
57214,31222
57122,31260
57051,31330
57013,31422
55168,31422
55168,26516
55183,26516
55183,26679
55221,26771
55291,26841
55383,26879
55596,26879
55658,26817
55658,26453
55758,26453
55758,26817
55821,26879
56033,26879
56125,26841
56196,26771
56234,26679
56234,26516
56228,26510
56364,26510
56364,26673
56402,26765
56472,26835
56564,26874
56777,26874
56839,26811
56839,26447
56426,26447
56364,26510
56228,26510
56171,26453
55758,26453
55658,26453
55245,26453
55183,26516
55168,26516
55168,20210
56167,20210
56167,20374
56205,20466
56275,20536
56367,20574
56580,20574
56642,20512
56642,20148
56742,20148
56742,20512
56805,20574
57018,20574
57110,20536
57180,20466
57218,20374
57218,20210
57156,20148
56742,20148
56642,20148
56229,20148
56167,20210
55168,20210
55168,18553
65894,18553
65894,18795
" /> 
<polyline style="fill-rule:evenodd;"
points="69200,30143
69187,30145
69072,30222
68996,30336
68969,30472
68969,30727
68996,30863
69072,30977
69073,30978
69012,31039
68974,31130
68974,31294
69036,31357
69450,31357
69450,31349
69550,31349
69550,31357
69557,31357
69557,31457
69550,31457
69550,31820
69612,31883
69825,31883
69917,31845
69987,31775
70000,31743
70000,32876
69476,33400
67129,33400
67168,33392
67251,33337
67276,33299
67368,33299
67387,33317
67537,33379
67699,33379
67848,33317
67963,33203
68025,33053
68025,32891
67963,32741
67848,32626
67699,32564
67537,32564
67387,32626
67313,32700
67276,32700
67251,32662
67168,32607
67070,32587
66716,32587
66618,32607
66538,32660
66538,32468
66518,32370
66463,32288
66405,32249
66405,31950
66836,31519
67474,31519
67474,31683
67512,31775
67582,31845
67674,31883
67887,31883
67950,31820
67950,31457
68050,31457
68050,31820
68112,31883
68325,31883
68417,31845
68487,31775
68525,31683
68525,31519
68974,31519
68974,31683
69012,31775
69082,31845
69174,31883
69387,31883
69450,31820
69450,31457
69036,31457
68974,31519
68525,31519
68463,31457
68050,31457
67950,31457
67536,31457
67474,31519
66836,31519
67457,30899
67520,30899
67572,30977
67573,30978
67512,31039
67474,31130
67474,31294
67536,31357
67950,31357
67950,31349
68050,31349
68050,31357
68463,31357
68525,31294
68525,31130
68487,31039
68426,30978
68427,30977
68503,30863
68530,30727
68530,30472
68503,30336
68427,30222
68312,30145
68299,30143
68299,29971
69200,29971
69200,30143
" /> 
<polyline style="fill-rule:evenodd;"
points="65894,24404
64092,22602
64068,22586
64068,21288
64074,21259
64068,21231
64068,21231
64052,21146
63988,21051
63963,21035
63744,20815
63728,20791
63632,20727
63548,20710
63548,20710
63519,20704
63491,20710
62653,20710
62621,20662
62538,20607
62440,20587
62362,20587
62303,20599
62244,20587
62165,20587
62106,20599
62047,20587
61968,20587
61909,20599
61850,20587
61771,20587
61712,20599
61653,20587
61574,20587
61515,20599
61456,20587
61377,20587
61323,20598
61309,20592
61302,20592
61290,20605
61280,20607
61220,20647
61160,20607
61150,20605
61138,20592
61131,20592
61117,20598
61062,20587
60984,20587
60925,20599
60897,20593
61209,20236
61336,20289
61498,20289
61648,20227
61762,20112
61824,19962
61824,19800
61786,19708
65894,19708
65894,24404
" /> 
<polyline style="fill-rule:evenodd;"
points="86170,34595
71211,34595
71211,34475
71268,34487
71583,34487
71681,34467
71763,34412
71800,34358
71836,34412
71918,34467
72016,34487
72331,34487
72429,34467
72511,34412
72550,34354
74515,34354
74544,34360
74574,34354
74574,34354
74661,34336
74760,34270
74777,34245
75690,33332
75715,33315
75781,33216
75799,33129
75799,33129
75805,33100
75799,33070
75799,31972
80132,31972
80132,33476
84434,33476
84434,31972
80132,31972
75799,31972
75799,28747
78424,28747
78740,29063
79055,28747
79028,28652
78821,28579
78603,28590
78452,28652
78424,28747
75799,28747
75799,24479
75907,24407
76000,24268
76092,24407
76279,24532
76444,24564
76555,24564
76720,24532
76907,24407
77000,24268
77092,24407
77279,24532
77444,24564
77555,24564
77720,24532
77907,24407
78000,24268
78092,24407
78200,24479
78200,25970
78194,26000
78200,26029
78200,26029
78218,26116
78284,26215
78309,26232
80200,28123
80200,29376
79561,30015
76895,30015
76775,29895
76775,29519
78424,29519
78452,29615
78658,29688
78876,29677
79028,29615
79055,29519
78740,29204
78424,29519
76775,29519
76775,29509
76821,29463
76883,29313
76883,29151
76842,29052
78185,29052
78196,29270
78258,29421
78354,29449
78669,29133
78810,29133
79126,29449
79221,29421
79294,29215
79284,28997
79221,28846
79126,28818
78810,29133
78669,29133
78354,28818
78258,28846
78185,29052
76842,29052
76821,29001
76707,28886
76557,28824
76395,28824
76245,28886
76130,29001
76068,29151
76068,29313
76130,29463
76177,29509
76177,29990
76171,30019
76177,30049
76190,30118
76194,30136
76235,30198
76260,30235
76285,30252
76539,30505
76555,30530
76654,30596
76742,30614
76742,30614
76771,30620
76801,30614
79655,30614
79685,30620
79714,30614
79714,30614
79801,30596
79900,30530
79917,30505
80623,29799
85128,29799
85133,29811
85288,29966
85490,30050
85709,30050
85911,29966
86066,29811
86150,29609
86150,29390
86066,29188
85911,29033
85709,28950
85490,28950
85288,29033
85133,29188
85128,29200
80799,29200
80799,28029
80805,28000
80799,27970
80799,27970
80781,27883
80715,27784
80690,27767
79659,26736
85284,26736
85312,26831
85518,26905
85736,26894
85887,26831
85915,26736
85600,26421
85284,26736
79659,26736
79191,26268
85045,26268
85056,26487
85118,26638
85214,26665
85529,26350
85670,26350
85985,26665
86081,26638
86154,26432
86143,26213
86081,26062
85985,26035
85670,26350
85529,26350
85214,26035
85118,26062
85045,26268
79191,26268
78887,25964
85284,25964
85600,26279
85915,25964
85887,25869
85681,25795
85463,25806
85312,25869
85284,25964
78887,25964
78799,25876
78799,24479
78907,24407
79008,24256
79046,24336
79209,24484
79362,24547
79450,24499
79450,24050
79442,24050
79442,23950
79450,23950
79450,23500
79550,23500
79550,23950
79557,23950
79557,24050
79550,24050
79550,24499
79637,24547
79790,24484
79953,24336
79991,24256
80092,24407
80279,24532
80444,24564
80555,24564
80720,24532
80907,24407
81000,24268
81092,24407
81279,24532
81444,24564
81555,24564
81720,24532
81907,24407
82000,24268
82092,24407
82279,24532
82444,24564
82555,24564
82720,24532
82907,24407
83000,24268
83092,24407
83279,24532
83444,24564
83555,24564
83720,24532
83907,24407
84000,24268
84092,24407
84279,24532
84444,24564
84555,24564
84720,24532
84907,24407
85000,24268
85092,24407
85279,24532
85444,24564
85555,24564
85720,24532
85907,24407
86032,24220
86076,24000
86032,23779
85907,23592
85720,23467
85555,23435
85444,23435
85279,23467
85092,23592
85000,23731
84907,23592
84720,23467
84555,23435
84444,23435
84279,23467
84092,23592
84000,23731
83907,23592
83720,23467
83555,23435
83444,23435
83279,23467
83092,23592
83000,23731
82907,23592
82720,23467
82555,23435
82444,23435
82279,23467
82092,23592
82000,23731
81907,23592
81720,23467
81555,23435
81444,23435
81279,23467
81092,23592
81000,23731
80907,23592
80720,23467
80555,23435
80444,23435
80279,23467
80092,23592
79991,23743
79953,23663
79790,23515
79637,23452
79550,23500
79450,23500
79362,23452
79209,23515
79046,23663
79008,23743
78907,23592
78799,23520
78799,23023
79123,22699
80070,22699
80100,22705
80129,22699
80129,22699
80216,22681
80315,22615
80332,22590
80690,22232
80715,22215
80781,22116
80799,22029
80799,22029
80805,22000
80799,21970
80799,21479
80907,21407
81000,21268
81092,21407
81279,21532
81444,21564
81555,21564
81720,21532
81907,21407
82000,21268
82092,21407
82279,21532
82444,21564
82555,21564
82720,21532
82907,21407
83000,21268
83092,21407
83279,21532
83444,21564
83555,21564
83720,21532
83907,21407
84000,21268
84092,21407
84279,21532
84444,21564
84555,21564
84720,21532
84907,21407
85000,21268
85092,21407
85279,21532
85444,21564
85555,21564
85720,21532
85907,21407
86032,21220
86076,21000
86032,20779
85907,20592
85720,20467
85555,20435
85444,20435
85279,20467
85092,20592
85000,20731
84907,20592
84799,20520
84799,19962
84845,19915
84907,19766
84907,19603
84845,19454
84730,19339
84581,19277
84418,19277
84372,19296
84332,19304
84297,19327
84269,19339
84247,19361
84233,19370
84223,19385
84154,19454
84092,19603
84092,19766
84154,19915
84200,19962
84200,20520
84092,20592
84000,20731
83907,20592
83799,20520
83799,20089
83805,20060
83799,20031
83799,19970
83781,19883
83715,19784
83616,19718
83571,19709
82766,18903
82749,18878
82650,18812
82563,18795
82563,18795
82534,18789
82504,18795
66290,18795
66290,18553
86170,18553
86170,34595
" /> 
<polyline style="fill-rule:evenodd;"
points="69609,19731
69584,19748
69518,19847
69500,19934
69500,19934
69494,19963
69500,19993
69500,20135
69418,20119
69181,20119
69084,20138
69050,20161
69015,20138
68918,20119
68681,20119
68584,20138
68553,20159
68467,20124
68412,20124
68350,20186
68350,20619
68357,20619
68357,20719
68350,20719
68350,21152
68412,21214
68467,21214
68553,21179
68584,21200
68681,21219
68918,21219
69000,21203
69000,21269
68954,21315
68892,21465
68892,21627
68954,21777
69069,21891
69218,21953
69381,21953
69530,21891
69645,21777
69707,21627
69707,21465
69645,21315
69599,21269
69599,21203
69681,21219
69918,21219
70015,21200
70050,21177
70084,21200
70181,21219
70418,21219
70515,21200
70598,21144
70653,21062
70673,20964
70673,20374
70653,20276
70598,20193
70515,20138
70418,20119
70181,20119
70099,20135
70099,20087
70202,19984
80092,19984
80200,20092
80200,20520
80092,20592
79991,20743
79953,20663
79790,20515
79637,20452
79550,20500
79550,20950
79557,20950
79557,21050
79550,21050
79550,21499
79637,21547
79790,21484
79953,21336
79991,21256
80092,21407
80200,21479
80200,21876
79976,22100
79029,22100
78999,22094
78970,22100
78970,22100
78883,22118
78784,22184
78767,22209
78309,22667
78284,22684
78218,22783
78200,22870
78200,22870
78194,22900
78200,22929
78200,23520
78092,23592
78000,23731
77907,23592
77720,23467
77555,23435
77444,23435
77279,23467
77092,23592
77000,23731
76907,23592
76799,23520
76799,22829
76805,22800
76799,22770
76799,22521
76845,22474
76907,22325
76907,22163
76845,22013
76730,21898
76581,21836
76418,21836
76269,21898
76154,22013
76092,22163
76092,22325
76154,22474
76200,22521
76200,22770
76194,22800
76200,22829
76200,23520
76092,23592
76000,23731
75907,23592
75720,23467
75555,23435
75444,23435
75279,23467
75092,23592
75000,23731
74907,23592
74720,23467
74555,23435
74444,23435
74279,23467
74092,23592
74000,23731
73907,23592
73720,23467
73555,23435
73444,23435
73279,23467
73092,23592
73060,23640
73050,23587
72995,23504
72912,23449
72814,23430
72185,23430
72087,23449
72004,23504
71949,23587
71930,23685
71930,24314
71949,24412
72004,24495
72087,24550
72185,24569
72814,24569
72912,24550
72995,24495
73050,24412
73060,24359
73092,24407
73279,24532
73444,24564
73555,24564
73720,24532
73907,24407
74000,24268
74092,24407
74279,24532
74444,24564
74555,24564
74720,24532
74907,24407
75000,24268
75092,24407
75200,24479
75200,32976
74420,33755
72550,33755
72511,33697
72429,33642
72331,33623
72132,33623
72169,33586
72207,33494
72207,33380
72144,33317
71850,33317
71850,33632
71883,33666
71836,33697
71800,33752
71763,33697
71716,33666
71750,33632
71750,33317
71455,33317
71392,33380
71392,33494
71430,33586
71467,33623
71268,33623
71211,33634
71211,33040
71392,33040
71392,33155
71455,33217
71750,33217
71750,32903
71850,32903
71850,33217
72144,33217
72207,33155
72207,33040
72169,32948
72099,32878
72007,32840
71912,32840
71850,32903
71750,32903
71687,32840
71592,32840
71500,32878
71430,32948
71392,33040
71211,33040
71211,29625
71207,29606
71196,29590
71191,29586
71332,29445
71416,29243
71416,29024
71332,28822
71177,28667
70975,28583
70756,28583
70744,28588
69599,27443
69599,25525
69609,25532
69767,25690
69784,25715
69809,25732
69809,25732
69858,25765
69883,25781
69970,25799
69970,25799
69999,25805
70029,25799
70670,25799
70700,25805
70729,25799
70729,25799
70816,25781
70915,25715
70932,25690
71590,25032
71615,25015
71662,24945
71681,24916
71697,24837
71699,24829
71699,24829
71705,24800
71699,24770
71699,23123
71923,22899
73070,22899
73100,22905
73129,22899
73129,22899
73216,22881
73315,22815
73332,22790
73690,22432
73715,22415
73781,22316
73799,22229
73799,22229
73805,22200
73799,22170
73799,21479
73907,21407
74000,21268
74092,21407
74279,21532
74444,21564
74555,21564
74720,21532
74907,21407
75000,21268
75092,21407
75279,21532
75444,21564
75555,21564
75720,21532
75907,21407
76000,21268
76092,21407
76279,21532
76444,21564
76555,21564
76720,21532
76907,21407
77000,21268
77092,21407
77279,21532
77444,21564
77555,21564
77720,21532
77907,21407
78008,21256
78046,21336
78209,21484
78362,21547
78450,21499
78450,21050
78550,21050
78550,21499
78637,21547
78790,21484
78953,21336
79000,21238
79046,21336
79209,21484
79362,21547
79450,21499
79450,21050
78550,21050
78450,21050
78442,21050
78442,20950
78450,20950
78450,20500
78550,20500
78550,20950
79450,20950
79450,20500
79362,20452
79209,20515
79046,20663
79000,20761
78953,20663
78790,20515
78637,20452
78550,20500
78450,20500
78362,20452
78209,20515
78046,20663
78008,20743
77907,20592
77720,20467
77555,20435
77444,20435
77279,20467
77092,20592
77000,20731
76907,20592
76720,20467
76555,20435
76444,20435
76279,20467
76092,20592
76000,20731
75907,20592
75720,20467
75555,20435
75444,20435
75279,20467
75092,20592
75000,20731
74907,20592
74720,20467
74555,20435
74444,20435
74279,20467
74092,20592
74000,20731
73907,20592
73720,20467
73555,20435
73444,20435
73279,20467
73092,20592
73000,20731
72907,20592
72720,20467
72555,20435
72444,20435
72279,20467
72092,20592
71967,20779
71923,21000
71967,21220
72092,21407
72200,21479
72200,21876
72076,22000
70729,22000
70700,21994
70670,22000
70670,22000
70583,22018
70484,22084
70467,22109
70109,22467
70084,22484
70067,22509
70067,22509
70018,22583
69994,22700
70000,22729
70000,23796
69918,23780
69681,23780
69584,23799
69550,23822
69515,23799
69418,23780
69181,23780
69084,23799
69053,23820
68967,23785
68912,23785
68850,23847
68850,24280
68857,24280
68857,24380
68850,24380
68850,24813
68912,24875
68967,24875
69000,24862
69000,25080
69000,25080
69000,27510
66290,24800
66290,24443
66431,24443
66431,24675
66469,24767
66540,24837
66632,24875
66687,24875
66750,24813
66750,24380
66850,24380
66850,24813
66912,24875
66967,24875
67050,24841
67132,24875
67187,24875
67250,24813
67250,24380
67350,24380
67350,24813
67412,24875
67467,24875
67550,24841
67632,24875
67687,24875
67750,24813
67750,24380
67850,24380
67850,24813
67912,24875
67967,24875
68050,24841
68132,24875
68187,24875
68250,24813
68250,24380
68350,24380
68350,24813
68412,24875
68467,24875
68550,24841
68632,24875
68687,24875
68750,24813
68750,24380
68350,24380
68250,24380
67850,24380
67750,24380
67350,24380
67250,24380
66850,24380
66750,24380
66494,24380
66431,24443
66290,24443
66290,23985
66431,23985
66431,24218
66494,24280
66750,24280
66750,23847
66850,23847
66850,24280
67250,24280
67250,23847
67350,23847
67350,24280
67750,24280
67750,23847
67850,23847
67850,24280
68250,24280
68250,23847
68350,23847
68350,24280
68750,24280
68750,23847
68687,23785
68632,23785
68550,23819
68467,23785
68412,23785
68350,23847
68250,23847
68187,23785
68132,23785
68050,23819
67967,23785
67912,23785
67850,23847
67750,23847
67687,23785
67632,23785
67550,23819
67467,23785
67412,23785
67350,23847
67250,23847
67187,23785
67132,23785
67050,23819
66967,23785
66912,23785
66850,23847
66750,23847
66687,23785
66632,23785
66540,23823
66469,23893
66431,23985
66290,23985
66290,20781
66431,20781
66431,21014
66469,21106
66540,21176
66632,21214
66687,21214
66750,21152
66750,20719
66850,20719
66850,21152
66912,21214
66967,21214
67050,21180
67132,21214
67187,21214
67250,21152
67250,20719
67350,20719
67350,21152
67412,21214
67467,21214
67550,21180
67632,21214
67687,21214
67750,21152
67750,20719
67850,20719
67850,21152
67912,21214
67967,21214
68050,21180
68132,21214
68187,21214
68250,21152
68250,20719
67850,20719
67750,20719
67350,20719
67250,20719
66850,20719
66750,20719
66494,20719
66431,20781
66290,20781
66290,20324
66431,20324
66431,20556
66494,20619
66750,20619
66750,20186
66850,20186
66850,20619
67250,20619
67250,20186
67350,20186
67350,20619
67750,20619
67750,20186
67850,20186
67850,20619
68250,20619
68250,20186
68187,20124
68132,20124
68050,20158
67967,20124
67912,20124
67850,20186
67750,20186
67687,20124
67632,20124
67550,20158
67467,20124
67412,20124
67350,20186
67250,20186
67187,20124
67132,20124
67050,20158
66967,20124
66912,20124
66850,20186
66750,20186
66687,20124
66632,20124
66540,20162
66469,20232
66431,20324
66290,20324
66290,19708
69631,19708
69609,19731
" /> 
</g> 
</svg>
