G04 #@! TF.GenerationSoftware,KiCad,Pcbnew,5.0.2-bee76a0~70~ubuntu16.04.1*
G04 #@! TF.CreationDate,2019-03-02T11:38:04+08:00*
G04 #@! TF.ProjectId,OTP,4f54502e-6b69-4636-9164-5f7063625858,v01*
G04 #@! TF.SameCoordinates,Original*
G04 #@! TF.FileFunction,Copper,L2,Bot*
G04 #@! TF.FilePolarity,Positive*
%FSLAX46Y46*%
G04 Gerber Fmt 4.6, Leading zero omitted, Abs format (unit mm)*
G04 Created by KiCad (PCBNEW 5.0.2-bee76a0~70~ubuntu16.04.1) date Saturday, 02 March, 2019 11:38:04 AM PST*
%MOMM*%
%LPD*%
G01*
G04 APERTURE LIST*
G04 #@! TA.AperFunction,ComponentPad*
%ADD10C,1.524000*%
G04 #@! TD*
G04 #@! TA.AperFunction,ComponentPad*
%ADD11O,1.600000X1.600000*%
G04 #@! TD*
G04 #@! TA.AperFunction,ComponentPad*
%ADD12R,1.600000X1.600000*%
G04 #@! TD*
G04 #@! TA.AperFunction,ViaPad*
%ADD13C,0.800000*%
G04 #@! TD*
G04 #@! TA.AperFunction,Conductor*
%ADD14C,0.250000*%
G04 #@! TD*
G04 #@! TA.AperFunction,Conductor*
%ADD15C,0.200000*%
G04 #@! TD*
G04 APERTURE END LIST*
D10*
G04 #@! TO.P,BT1,2*
G04 #@! TO.N,GND*
X217424000Y-66930000D03*
G04 #@! TO.P,BT1,1*
G04 #@! TO.N,VDC*
X217424000Y-74930000D03*
G04 #@! TD*
G04 #@! TO.P,BT2,1*
G04 #@! TO.N,Batt*
X180000000Y-74000000D03*
G04 #@! TO.P,BT2,2*
G04 #@! TO.N,GND*
X200000000Y-74000000D03*
G04 #@! TD*
D11*
G04 #@! TO.P,U1,28*
G04 #@! TO.N,SCL*
X184150000Y-53340000D03*
G04 #@! TO.P,U1,14*
G04 #@! TO.N,RES*
X217170000Y-60960000D03*
G04 #@! TO.P,U1,27*
G04 #@! TO.N,SDA*
X186690000Y-53340000D03*
G04 #@! TO.P,U1,13*
G04 #@! TO.N,BUSY*
X214630000Y-60960000D03*
G04 #@! TO.P,U1,26*
G04 #@! TO.N,Net-(U1-Pad26)*
X189230000Y-53340000D03*
G04 #@! TO.P,U1,12*
G04 #@! TO.N,Net-(U1-Pad12)*
X212090000Y-60960000D03*
G04 #@! TO.P,U1,25*
G04 #@! TO.N,Net-(U1-Pad25)*
X191770000Y-53340000D03*
G04 #@! TO.P,U1,11*
G04 #@! TO.N,Net-(U1-Pad11)*
X209550000Y-60960000D03*
G04 #@! TO.P,U1,24*
G04 #@! TO.N,Net-(U1-Pad24)*
X194310000Y-53340000D03*
G04 #@! TO.P,U1,10*
G04 #@! TO.N,Net-(U1-Pad10)*
X207010000Y-60960000D03*
G04 #@! TO.P,U1,23*
G04 #@! TO.N,Net-(U1-Pad23)*
X196850000Y-53340000D03*
G04 #@! TO.P,U1,9*
G04 #@! TO.N,Net-(U1-Pad9)*
X204470000Y-60960000D03*
G04 #@! TO.P,U1,22*
G04 #@! TO.N,GND*
X199390000Y-53340000D03*
G04 #@! TO.P,U1,8*
X201930000Y-60960000D03*
G04 #@! TO.P,U1,21*
X201930000Y-53340000D03*
G04 #@! TO.P,U1,7*
G04 #@! TO.N,VDC*
X199390000Y-60960000D03*
G04 #@! TO.P,U1,20*
X204470000Y-53340000D03*
G04 #@! TO.P,U1,6*
G04 #@! TO.N,Net-(U1-Pad6)*
X196850000Y-60960000D03*
G04 #@! TO.P,U1,19*
G04 #@! TO.N,SCLK*
X207010000Y-53340000D03*
G04 #@! TO.P,U1,5*
G04 #@! TO.N,Net-(U1-Pad5)*
X194310000Y-60960000D03*
G04 #@! TO.P,U1,18*
G04 #@! TO.N,Net-(U1-Pad18)*
X209550000Y-53340000D03*
G04 #@! TO.P,U1,4*
G04 #@! TO.N,Net-(Q2-Pad2)*
X191770000Y-60960000D03*
G04 #@! TO.P,U1,17*
G04 #@! TO.N,SDI*
X212090000Y-53340000D03*
G04 #@! TO.P,U1,3*
G04 #@! TO.N,Net-(U1-Pad3)*
X189230000Y-60960000D03*
G04 #@! TO.P,U1,16*
G04 #@! TO.N,CS*
X214630000Y-53340000D03*
G04 #@! TO.P,U1,2*
G04 #@! TO.N,Net-(U1-Pad2)*
X186690000Y-60960000D03*
G04 #@! TO.P,U1,15*
G04 #@! TO.N,DC*
X217170000Y-53340000D03*
D12*
G04 #@! TO.P,U1,1*
G04 #@! TO.N,Net-(U1-Pad1)*
X184150000Y-60960000D03*
G04 #@! TD*
D13*
G04 #@! TO.N,VDC*
X194250000Y-74250000D03*
X167750000Y-78250000D03*
X150500000Y-50500000D03*
X158500000Y-63500000D03*
G04 #@! TO.N,GND*
X207000000Y-58000000D03*
X197000000Y-58000000D03*
X208534000Y-71374000D03*
G04 #@! TO.N,QGND*
X178500000Y-86750000D03*
X175250000Y-83250000D03*
X164000000Y-69250000D03*
X166500000Y-59250000D03*
G04 #@! TO.N,Net-(C2-Pad2)*
X161000000Y-81000000D03*
X171750000Y-83750000D03*
G04 #@! TO.N,BUSY*
X155750000Y-57500000D03*
G04 #@! TO.N,RES*
X154500000Y-56500000D03*
G04 #@! TO.N,DC*
X153500000Y-55250000D03*
G04 #@! TO.N,CS*
X214630000Y-50000000D03*
X156000000Y-50500000D03*
G04 #@! TO.N,Net-(U1-Pad5)*
X176022000Y-54728000D03*
X194310000Y-56500000D03*
G04 #@! TD*
D14*
G04 #@! TO.N,VDC*
X168000000Y-78250000D02*
X168000000Y-78250000D01*
X180576000Y-78250000D02*
X167750000Y-78250000D01*
X184576000Y-74250000D02*
X180576000Y-78250000D01*
X194250000Y-74250000D02*
X184576000Y-74250000D01*
D15*
X150500000Y-55500000D02*
X158500000Y-63500000D01*
X150500000Y-55500000D02*
X150500000Y-50500000D01*
D14*
G04 #@! TO.N,GND*
X207000000Y-58000000D02*
X197000000Y-58000000D01*
X202626000Y-71374000D02*
X200000000Y-74000000D01*
X208534000Y-71374000D02*
X202626000Y-71374000D01*
G04 #@! TO.N,QGND*
X175250000Y-83500000D02*
X175250000Y-83250000D01*
X178500000Y-86750000D02*
X175250000Y-83500000D01*
X165000000Y-59250000D02*
X166500000Y-59250000D01*
X164000000Y-60250000D02*
X165000000Y-59250000D01*
X164000000Y-69250000D02*
X164000000Y-60250000D01*
G04 #@! TO.N,Net-(C2-Pad2)*
X171750000Y-83750000D02*
X171750000Y-83750000D01*
X163750000Y-83750000D02*
X161000000Y-81000000D01*
X171750000Y-83750000D02*
X163750000Y-83750000D01*
G04 #@! TO.N,BUSY*
X178850001Y-59250000D02*
X177500000Y-57899999D01*
X158000000Y-57899999D02*
X177500000Y-57899999D01*
X212920000Y-59250000D02*
X178850001Y-59250000D01*
X214630000Y-60960000D02*
X212920000Y-59250000D01*
X158000000Y-57899999D02*
X157850001Y-57899999D01*
X157649999Y-57899999D02*
X158000000Y-57899999D01*
X156649999Y-57899999D02*
X157649999Y-57899999D01*
X156250000Y-57500000D02*
X156649999Y-57899999D01*
X155750000Y-57500000D02*
X156250000Y-57500000D01*
G04 #@! TO.N,RES*
X177407590Y-56750000D02*
X157250000Y-56750000D01*
X179157590Y-58500000D02*
X177407590Y-56750000D01*
X194795002Y-58500000D02*
X179157590Y-58500000D01*
X195274999Y-58020003D02*
X194795002Y-58500000D01*
X217170000Y-60960000D02*
X211460000Y-55250000D01*
X195274999Y-55901999D02*
X195274999Y-58020003D01*
X211460000Y-55250000D02*
X195926998Y-55250000D01*
X195926998Y-55250000D02*
X195274999Y-55901999D01*
X157000000Y-56500000D02*
X154500000Y-56500000D01*
X157250000Y-56750000D02*
X157000000Y-56500000D01*
G04 #@! TO.N,DC*
X217170000Y-51670000D02*
X216500000Y-51000000D01*
X216500000Y-51000000D02*
X158500000Y-51000000D01*
X217170000Y-53340000D02*
X217170000Y-51670000D01*
X158500000Y-51000000D02*
X154250000Y-55250000D01*
X154250000Y-55250000D02*
X153500000Y-55250000D01*
G04 #@! TO.N,CS*
X214630000Y-50000000D02*
X157500000Y-50000000D01*
X157500000Y-50000000D02*
X157000000Y-50500000D01*
X157000000Y-50500000D02*
X156000000Y-50500000D01*
G04 #@! TO.N,Net-(U1-Pad5)*
X193910001Y-56899999D02*
X179899999Y-56899999D01*
X194310000Y-56500000D02*
X193910001Y-56899999D01*
X177728000Y-54728000D02*
X176022000Y-54728000D01*
X179899999Y-56899999D02*
X177728000Y-54728000D01*
G04 #@! TD*
M02*
