G04 #@! TF.GenerationSoftware,KiCad,Pcbnew,5.0.2-bee76a0~70~ubuntu16.04.1*
G04 #@! TF.CreationDate,2019-03-02T11:38:04+08:00*
G04 #@! TF.ProjectId,OTP,4f54502e-6b69-4636-9164-5f7063625858,v01*
G04 #@! TF.SameCoordinates,Original*
G04 #@! TF.FileFunction,Soldermask,Bot*
G04 #@! TF.FilePolarity,Negative*
%FSLAX46Y46*%
G04 Gerber Fmt 4.6, Leading zero omitted, Abs format (unit mm)*
G04 Created by KiCad (PCBNEW 5.0.2-bee76a0~70~ubuntu16.04.1) date Saturday, 02 March, 2019 11:38:04 AM PST*
%MOMM*%
%LPD*%
G01*
G04 APERTURE LIST*
%ADD10C,0.100000*%
G04 APERTURE END LIST*
D10*
G36*
X178616676Y-86365372D02*
X178689468Y-86395523D01*
X178754989Y-86439303D01*
X178810697Y-86495011D01*
X178854477Y-86560532D01*
X178884628Y-86633324D01*
X178900000Y-86710604D01*
X178900000Y-86789396D01*
X178884628Y-86866676D01*
X178854477Y-86939468D01*
X178810697Y-87004989D01*
X178754989Y-87060697D01*
X178689468Y-87104477D01*
X178616676Y-87134628D01*
X178539397Y-87150000D01*
X178460603Y-87150000D01*
X178383324Y-87134628D01*
X178310532Y-87104477D01*
X178245011Y-87060697D01*
X178189303Y-87004989D01*
X178145523Y-86939468D01*
X178115372Y-86866676D01*
X178100000Y-86789396D01*
X178100000Y-86710604D01*
X178115372Y-86633324D01*
X178145523Y-86560532D01*
X178189303Y-86495011D01*
X178245011Y-86439303D01*
X178310532Y-86395523D01*
X178383324Y-86365372D01*
X178460603Y-86350000D01*
X178539397Y-86350000D01*
X178616676Y-86365372D01*
X178616676Y-86365372D01*
G37*
G36*
X171866676Y-83365372D02*
X171939468Y-83395523D01*
X172004989Y-83439303D01*
X172060697Y-83495011D01*
X172060699Y-83495014D01*
X172060700Y-83495015D01*
X172067364Y-83504989D01*
X172104477Y-83560532D01*
X172134628Y-83633324D01*
X172150000Y-83710604D01*
X172150000Y-83789396D01*
X172134628Y-83866676D01*
X172104477Y-83939468D01*
X172060697Y-84004989D01*
X172004989Y-84060697D01*
X171939468Y-84104477D01*
X171866676Y-84134628D01*
X171789397Y-84150000D01*
X171710603Y-84150000D01*
X171633324Y-84134628D01*
X171560532Y-84104477D01*
X171495011Y-84060697D01*
X171439303Y-84004989D01*
X171395523Y-83939468D01*
X171365372Y-83866676D01*
X171350000Y-83789396D01*
X171350000Y-83710604D01*
X171365372Y-83633324D01*
X171395523Y-83560532D01*
X171432636Y-83504989D01*
X171439300Y-83495015D01*
X171439301Y-83495014D01*
X171439303Y-83495011D01*
X171495011Y-83439303D01*
X171560532Y-83395523D01*
X171633324Y-83365372D01*
X171710603Y-83350000D01*
X171789397Y-83350000D01*
X171866676Y-83365372D01*
X171866676Y-83365372D01*
G37*
G36*
X175366676Y-82865372D02*
X175439468Y-82895523D01*
X175504989Y-82939303D01*
X175560697Y-82995011D01*
X175604477Y-83060532D01*
X175634628Y-83133324D01*
X175650000Y-83210604D01*
X175650000Y-83289396D01*
X175634628Y-83366676D01*
X175604477Y-83439468D01*
X175604475Y-83439471D01*
X175567362Y-83495015D01*
X175560697Y-83504989D01*
X175504989Y-83560697D01*
X175439468Y-83604477D01*
X175369824Y-83633324D01*
X175366676Y-83634628D01*
X175289397Y-83650000D01*
X175210603Y-83650000D01*
X175133324Y-83634628D01*
X175130176Y-83633324D01*
X175060532Y-83604477D01*
X174995011Y-83560697D01*
X174939303Y-83504989D01*
X174932639Y-83495015D01*
X174895525Y-83439471D01*
X174895523Y-83439468D01*
X174865372Y-83366676D01*
X174850000Y-83289396D01*
X174850000Y-83210604D01*
X174865372Y-83133324D01*
X174895523Y-83060532D01*
X174939303Y-82995011D01*
X174995011Y-82939303D01*
X175060532Y-82895523D01*
X175133324Y-82865372D01*
X175210603Y-82850000D01*
X175289397Y-82850000D01*
X175366676Y-82865372D01*
X175366676Y-82865372D01*
G37*
G36*
X161116676Y-80615372D02*
X161189468Y-80645523D01*
X161254989Y-80689303D01*
X161310697Y-80745011D01*
X161354477Y-80810532D01*
X161384628Y-80883324D01*
X161400000Y-80960604D01*
X161400000Y-81039396D01*
X161384628Y-81116676D01*
X161354477Y-81189468D01*
X161310697Y-81254989D01*
X161254989Y-81310697D01*
X161189468Y-81354477D01*
X161116676Y-81384628D01*
X161039397Y-81400000D01*
X160960603Y-81400000D01*
X160883324Y-81384628D01*
X160810532Y-81354477D01*
X160745011Y-81310697D01*
X160689303Y-81254989D01*
X160645523Y-81189468D01*
X160615372Y-81116676D01*
X160600000Y-81039396D01*
X160600000Y-80960604D01*
X160615372Y-80883324D01*
X160645523Y-80810532D01*
X160689303Y-80745011D01*
X160745011Y-80689303D01*
X160810532Y-80645523D01*
X160883324Y-80615372D01*
X160960603Y-80600000D01*
X161039397Y-80600000D01*
X161116676Y-80615372D01*
X161116676Y-80615372D01*
G37*
G36*
X167866676Y-77865372D02*
X167939468Y-77895523D01*
X168004989Y-77939303D01*
X168060697Y-77995011D01*
X168104477Y-78060532D01*
X168134628Y-78133324D01*
X168150000Y-78210604D01*
X168150000Y-78289396D01*
X168134628Y-78366676D01*
X168104477Y-78439468D01*
X168060697Y-78504989D01*
X168004989Y-78560697D01*
X167939468Y-78604477D01*
X167866676Y-78634628D01*
X167789397Y-78650000D01*
X167710603Y-78650000D01*
X167633324Y-78634628D01*
X167560532Y-78604477D01*
X167495011Y-78560697D01*
X167439303Y-78504989D01*
X167395523Y-78439468D01*
X167365372Y-78366676D01*
X167350000Y-78289396D01*
X167350000Y-78210604D01*
X167365372Y-78133324D01*
X167395523Y-78060532D01*
X167439303Y-77995011D01*
X167495011Y-77939303D01*
X167560532Y-77895523D01*
X167633324Y-77865372D01*
X167710603Y-77850000D01*
X167789397Y-77850000D01*
X167866676Y-77865372D01*
X167866676Y-77865372D01*
G37*
G36*
X217597195Y-74187522D02*
X217646267Y-74197283D01*
X217784942Y-74254724D01*
X217909750Y-74338118D01*
X218015882Y-74444250D01*
X218015884Y-74444253D01*
X218099276Y-74569058D01*
X218156717Y-74707733D01*
X218166478Y-74756805D01*
X218186000Y-74854948D01*
X218186000Y-75005052D01*
X218156717Y-75152266D01*
X218099276Y-75290942D01*
X218015882Y-75415750D01*
X217909750Y-75521882D01*
X217909747Y-75521884D01*
X217784942Y-75605276D01*
X217646267Y-75662717D01*
X217597195Y-75672478D01*
X217499052Y-75692000D01*
X217348948Y-75692000D01*
X217250805Y-75672478D01*
X217201733Y-75662717D01*
X217063058Y-75605276D01*
X216938253Y-75521884D01*
X216938250Y-75521882D01*
X216832118Y-75415750D01*
X216748724Y-75290942D01*
X216691283Y-75152266D01*
X216662000Y-75005052D01*
X216662000Y-74854948D01*
X216681522Y-74756805D01*
X216691283Y-74707733D01*
X216748724Y-74569058D01*
X216832116Y-74444253D01*
X216832118Y-74444250D01*
X216938250Y-74338118D01*
X217063058Y-74254724D01*
X217201733Y-74197283D01*
X217250805Y-74187522D01*
X217348948Y-74168000D01*
X217499052Y-74168000D01*
X217597195Y-74187522D01*
X217597195Y-74187522D01*
G37*
G36*
X180173195Y-73257522D02*
X180222267Y-73267283D01*
X180360942Y-73324724D01*
X180485750Y-73408118D01*
X180591882Y-73514250D01*
X180591884Y-73514253D01*
X180675276Y-73639058D01*
X180732717Y-73777733D01*
X180762000Y-73924950D01*
X180762000Y-74075050D01*
X180737687Y-74197283D01*
X180732717Y-74222266D01*
X180675276Y-74360942D01*
X180591882Y-74485750D01*
X180485750Y-74591882D01*
X180485747Y-74591884D01*
X180360942Y-74675276D01*
X180222267Y-74732717D01*
X180173195Y-74742478D01*
X180075052Y-74762000D01*
X179924948Y-74762000D01*
X179826805Y-74742478D01*
X179777733Y-74732717D01*
X179639058Y-74675276D01*
X179514253Y-74591884D01*
X179514250Y-74591882D01*
X179408118Y-74485750D01*
X179324724Y-74360942D01*
X179267283Y-74222266D01*
X179262314Y-74197283D01*
X179238000Y-74075050D01*
X179238000Y-73924950D01*
X179267283Y-73777733D01*
X179324724Y-73639058D01*
X179408116Y-73514253D01*
X179408118Y-73514250D01*
X179514250Y-73408118D01*
X179639058Y-73324724D01*
X179777733Y-73267283D01*
X179826805Y-73257522D01*
X179924948Y-73238000D01*
X180075052Y-73238000D01*
X180173195Y-73257522D01*
X180173195Y-73257522D01*
G37*
G36*
X200173195Y-73257522D02*
X200222267Y-73267283D01*
X200360942Y-73324724D01*
X200485750Y-73408118D01*
X200591882Y-73514250D01*
X200591884Y-73514253D01*
X200675276Y-73639058D01*
X200732717Y-73777733D01*
X200762000Y-73924950D01*
X200762000Y-74075050D01*
X200737687Y-74197283D01*
X200732717Y-74222266D01*
X200675276Y-74360942D01*
X200591882Y-74485750D01*
X200485750Y-74591882D01*
X200485747Y-74591884D01*
X200360942Y-74675276D01*
X200222267Y-74732717D01*
X200173195Y-74742478D01*
X200075052Y-74762000D01*
X199924948Y-74762000D01*
X199826805Y-74742478D01*
X199777733Y-74732717D01*
X199639058Y-74675276D01*
X199514253Y-74591884D01*
X199514250Y-74591882D01*
X199408118Y-74485750D01*
X199324724Y-74360942D01*
X199267283Y-74222266D01*
X199262314Y-74197283D01*
X199238000Y-74075050D01*
X199238000Y-73924950D01*
X199267283Y-73777733D01*
X199324724Y-73639058D01*
X199408116Y-73514253D01*
X199408118Y-73514250D01*
X199514250Y-73408118D01*
X199639058Y-73324724D01*
X199777733Y-73267283D01*
X199826805Y-73257522D01*
X199924948Y-73238000D01*
X200075052Y-73238000D01*
X200173195Y-73257522D01*
X200173195Y-73257522D01*
G37*
G36*
X194366676Y-73865372D02*
X194439468Y-73895523D01*
X194439471Y-73895525D01*
X194483509Y-73924950D01*
X194504989Y-73939303D01*
X194560697Y-73995011D01*
X194604477Y-74060532D01*
X194634628Y-74133324D01*
X194650000Y-74210604D01*
X194650000Y-74289396D01*
X194634628Y-74366676D01*
X194604477Y-74439468D01*
X194560697Y-74504989D01*
X194504989Y-74560697D01*
X194439468Y-74604477D01*
X194366676Y-74634628D01*
X194289397Y-74650000D01*
X194210603Y-74650000D01*
X194133324Y-74634628D01*
X194060532Y-74604477D01*
X193995011Y-74560697D01*
X193939303Y-74504989D01*
X193895523Y-74439468D01*
X193865372Y-74366676D01*
X193850000Y-74289396D01*
X193850000Y-74210604D01*
X193865372Y-74133324D01*
X193895523Y-74060532D01*
X193939303Y-73995011D01*
X193995011Y-73939303D01*
X194016492Y-73924950D01*
X194060529Y-73895525D01*
X194060532Y-73895523D01*
X194133324Y-73865372D01*
X194210603Y-73850000D01*
X194289397Y-73850000D01*
X194366676Y-73865372D01*
X194366676Y-73865372D01*
G37*
G36*
X208650676Y-70989372D02*
X208723468Y-71019523D01*
X208788989Y-71063303D01*
X208844697Y-71119011D01*
X208888477Y-71184532D01*
X208918628Y-71257324D01*
X208934000Y-71334604D01*
X208934000Y-71413396D01*
X208918628Y-71490676D01*
X208888477Y-71563468D01*
X208844697Y-71628989D01*
X208788989Y-71684697D01*
X208723468Y-71728477D01*
X208650676Y-71758628D01*
X208573397Y-71774000D01*
X208494603Y-71774000D01*
X208417324Y-71758628D01*
X208344532Y-71728477D01*
X208279011Y-71684697D01*
X208223303Y-71628989D01*
X208179523Y-71563468D01*
X208149372Y-71490676D01*
X208134000Y-71413396D01*
X208134000Y-71334604D01*
X208149372Y-71257324D01*
X208179523Y-71184532D01*
X208223303Y-71119011D01*
X208279011Y-71063303D01*
X208344532Y-71019523D01*
X208417324Y-70989372D01*
X208494603Y-70974000D01*
X208573397Y-70974000D01*
X208650676Y-70989372D01*
X208650676Y-70989372D01*
G37*
G36*
X164116676Y-68865372D02*
X164189468Y-68895523D01*
X164254989Y-68939303D01*
X164310697Y-68995011D01*
X164354477Y-69060532D01*
X164384628Y-69133324D01*
X164400000Y-69210604D01*
X164400000Y-69289396D01*
X164384628Y-69366676D01*
X164354477Y-69439468D01*
X164310697Y-69504989D01*
X164254989Y-69560697D01*
X164189468Y-69604477D01*
X164116676Y-69634628D01*
X164039397Y-69650000D01*
X163960603Y-69650000D01*
X163883324Y-69634628D01*
X163810532Y-69604477D01*
X163745011Y-69560697D01*
X163689303Y-69504989D01*
X163645523Y-69439468D01*
X163615372Y-69366676D01*
X163600000Y-69289396D01*
X163600000Y-69210604D01*
X163615372Y-69133324D01*
X163645523Y-69060532D01*
X163689303Y-68995011D01*
X163745011Y-68939303D01*
X163810532Y-68895523D01*
X163883324Y-68865372D01*
X163960603Y-68850000D01*
X164039397Y-68850000D01*
X164116676Y-68865372D01*
X164116676Y-68865372D01*
G37*
G36*
X217597195Y-66187522D02*
X217646267Y-66197283D01*
X217784942Y-66254724D01*
X217909750Y-66338118D01*
X218015882Y-66444250D01*
X218099276Y-66569058D01*
X218156717Y-66707734D01*
X218186000Y-66854948D01*
X218186000Y-67005052D01*
X218156717Y-67152266D01*
X218099276Y-67290942D01*
X218015882Y-67415750D01*
X217909750Y-67521882D01*
X217909747Y-67521884D01*
X217784942Y-67605276D01*
X217646267Y-67662717D01*
X217597195Y-67672478D01*
X217499052Y-67692000D01*
X217348948Y-67692000D01*
X217250805Y-67672478D01*
X217201733Y-67662717D01*
X217063058Y-67605276D01*
X216938253Y-67521884D01*
X216938250Y-67521882D01*
X216832118Y-67415750D01*
X216748724Y-67290942D01*
X216691283Y-67152266D01*
X216662000Y-67005052D01*
X216662000Y-66854948D01*
X216691283Y-66707734D01*
X216748724Y-66569058D01*
X216832118Y-66444250D01*
X216938250Y-66338118D01*
X217063058Y-66254724D01*
X217201733Y-66197283D01*
X217250805Y-66187522D01*
X217348948Y-66168000D01*
X217499052Y-66168000D01*
X217597195Y-66187522D01*
X217597195Y-66187522D01*
G37*
G36*
X158616676Y-63115372D02*
X158689468Y-63145523D01*
X158754989Y-63189303D01*
X158810697Y-63245011D01*
X158854477Y-63310532D01*
X158884628Y-63383324D01*
X158900000Y-63460604D01*
X158900000Y-63539396D01*
X158884628Y-63616676D01*
X158854477Y-63689468D01*
X158810697Y-63754989D01*
X158754989Y-63810697D01*
X158689468Y-63854477D01*
X158616676Y-63884628D01*
X158539397Y-63900000D01*
X158460603Y-63900000D01*
X158383324Y-63884628D01*
X158310532Y-63854477D01*
X158245011Y-63810697D01*
X158189303Y-63754989D01*
X158145523Y-63689468D01*
X158115372Y-63616676D01*
X158100000Y-63539396D01*
X158100000Y-63460604D01*
X158115372Y-63383324D01*
X158145523Y-63310532D01*
X158189303Y-63245011D01*
X158245011Y-63189303D01*
X158310532Y-63145523D01*
X158383324Y-63115372D01*
X158460603Y-63100000D01*
X158539397Y-63100000D01*
X158616676Y-63115372D01*
X158616676Y-63115372D01*
G37*
G36*
X184950000Y-61760000D02*
X183350000Y-61760000D01*
X183350000Y-60160000D01*
X184950000Y-60160000D01*
X184950000Y-61760000D01*
X184950000Y-61760000D01*
G37*
G36*
X186807649Y-60167717D02*
X186846827Y-60171576D01*
X186922227Y-60194448D01*
X186997629Y-60217321D01*
X187136608Y-60291608D01*
X187258422Y-60391578D01*
X187358392Y-60513392D01*
X187432679Y-60652371D01*
X187478424Y-60803174D01*
X187493870Y-60960000D01*
X187478424Y-61116826D01*
X187432679Y-61267629D01*
X187358392Y-61406608D01*
X187258422Y-61528422D01*
X187136608Y-61628392D01*
X186997629Y-61702679D01*
X186922228Y-61725551D01*
X186846827Y-61748424D01*
X186807649Y-61752283D01*
X186729295Y-61760000D01*
X186650705Y-61760000D01*
X186572351Y-61752283D01*
X186533173Y-61748424D01*
X186457772Y-61725551D01*
X186382371Y-61702679D01*
X186243392Y-61628392D01*
X186121578Y-61528422D01*
X186021608Y-61406608D01*
X185947321Y-61267629D01*
X185901576Y-61116826D01*
X185886130Y-60960000D01*
X185901576Y-60803174D01*
X185947321Y-60652371D01*
X186021608Y-60513392D01*
X186121578Y-60391578D01*
X186243392Y-60291608D01*
X186382371Y-60217321D01*
X186457773Y-60194448D01*
X186533173Y-60171576D01*
X186572351Y-60167717D01*
X186650705Y-60160000D01*
X186729295Y-60160000D01*
X186807649Y-60167717D01*
X186807649Y-60167717D01*
G37*
G36*
X191887649Y-60167717D02*
X191926827Y-60171576D01*
X192002227Y-60194448D01*
X192077629Y-60217321D01*
X192216608Y-60291608D01*
X192338422Y-60391578D01*
X192438392Y-60513392D01*
X192512679Y-60652371D01*
X192558424Y-60803174D01*
X192573870Y-60960000D01*
X192558424Y-61116826D01*
X192512679Y-61267629D01*
X192438392Y-61406608D01*
X192338422Y-61528422D01*
X192216608Y-61628392D01*
X192077629Y-61702679D01*
X192002228Y-61725551D01*
X191926827Y-61748424D01*
X191887649Y-61752283D01*
X191809295Y-61760000D01*
X191730705Y-61760000D01*
X191652351Y-61752283D01*
X191613173Y-61748424D01*
X191537772Y-61725551D01*
X191462371Y-61702679D01*
X191323392Y-61628392D01*
X191201578Y-61528422D01*
X191101608Y-61406608D01*
X191027321Y-61267629D01*
X190981576Y-61116826D01*
X190966130Y-60960000D01*
X190981576Y-60803174D01*
X191027321Y-60652371D01*
X191101608Y-60513392D01*
X191201578Y-60391578D01*
X191323392Y-60291608D01*
X191462371Y-60217321D01*
X191537773Y-60194448D01*
X191613173Y-60171576D01*
X191652351Y-60167717D01*
X191730705Y-60160000D01*
X191809295Y-60160000D01*
X191887649Y-60167717D01*
X191887649Y-60167717D01*
G37*
G36*
X204587649Y-60167717D02*
X204626827Y-60171576D01*
X204702227Y-60194448D01*
X204777629Y-60217321D01*
X204916608Y-60291608D01*
X205038422Y-60391578D01*
X205138392Y-60513392D01*
X205212679Y-60652371D01*
X205258424Y-60803174D01*
X205273870Y-60960000D01*
X205258424Y-61116826D01*
X205212679Y-61267629D01*
X205138392Y-61406608D01*
X205038422Y-61528422D01*
X204916608Y-61628392D01*
X204777629Y-61702679D01*
X204702228Y-61725551D01*
X204626827Y-61748424D01*
X204587649Y-61752283D01*
X204509295Y-61760000D01*
X204430705Y-61760000D01*
X204352351Y-61752283D01*
X204313173Y-61748424D01*
X204237772Y-61725551D01*
X204162371Y-61702679D01*
X204023392Y-61628392D01*
X203901578Y-61528422D01*
X203801608Y-61406608D01*
X203727321Y-61267629D01*
X203681576Y-61116826D01*
X203666130Y-60960000D01*
X203681576Y-60803174D01*
X203727321Y-60652371D01*
X203801608Y-60513392D01*
X203901578Y-60391578D01*
X204023392Y-60291608D01*
X204162371Y-60217321D01*
X204237773Y-60194448D01*
X204313173Y-60171576D01*
X204352351Y-60167717D01*
X204430705Y-60160000D01*
X204509295Y-60160000D01*
X204587649Y-60167717D01*
X204587649Y-60167717D01*
G37*
G36*
X207127649Y-60167717D02*
X207166827Y-60171576D01*
X207242227Y-60194448D01*
X207317629Y-60217321D01*
X207456608Y-60291608D01*
X207578422Y-60391578D01*
X207678392Y-60513392D01*
X207752679Y-60652371D01*
X207798424Y-60803174D01*
X207813870Y-60960000D01*
X207798424Y-61116826D01*
X207752679Y-61267629D01*
X207678392Y-61406608D01*
X207578422Y-61528422D01*
X207456608Y-61628392D01*
X207317629Y-61702679D01*
X207242228Y-61725551D01*
X207166827Y-61748424D01*
X207127649Y-61752283D01*
X207049295Y-61760000D01*
X206970705Y-61760000D01*
X206892351Y-61752283D01*
X206853173Y-61748424D01*
X206777772Y-61725551D01*
X206702371Y-61702679D01*
X206563392Y-61628392D01*
X206441578Y-61528422D01*
X206341608Y-61406608D01*
X206267321Y-61267629D01*
X206221576Y-61116826D01*
X206206130Y-60960000D01*
X206221576Y-60803174D01*
X206267321Y-60652371D01*
X206341608Y-60513392D01*
X206441578Y-60391578D01*
X206563392Y-60291608D01*
X206702371Y-60217321D01*
X206777773Y-60194448D01*
X206853173Y-60171576D01*
X206892351Y-60167717D01*
X206970705Y-60160000D01*
X207049295Y-60160000D01*
X207127649Y-60167717D01*
X207127649Y-60167717D01*
G37*
G36*
X209667649Y-60167717D02*
X209706827Y-60171576D01*
X209782227Y-60194448D01*
X209857629Y-60217321D01*
X209996608Y-60291608D01*
X210118422Y-60391578D01*
X210218392Y-60513392D01*
X210292679Y-60652371D01*
X210338424Y-60803174D01*
X210353870Y-60960000D01*
X210338424Y-61116826D01*
X210292679Y-61267629D01*
X210218392Y-61406608D01*
X210118422Y-61528422D01*
X209996608Y-61628392D01*
X209857629Y-61702679D01*
X209782228Y-61725551D01*
X209706827Y-61748424D01*
X209667649Y-61752283D01*
X209589295Y-61760000D01*
X209510705Y-61760000D01*
X209432351Y-61752283D01*
X209393173Y-61748424D01*
X209317772Y-61725551D01*
X209242371Y-61702679D01*
X209103392Y-61628392D01*
X208981578Y-61528422D01*
X208881608Y-61406608D01*
X208807321Y-61267629D01*
X208761576Y-61116826D01*
X208746130Y-60960000D01*
X208761576Y-60803174D01*
X208807321Y-60652371D01*
X208881608Y-60513392D01*
X208981578Y-60391578D01*
X209103392Y-60291608D01*
X209242371Y-60217321D01*
X209317773Y-60194448D01*
X209393173Y-60171576D01*
X209432351Y-60167717D01*
X209510705Y-60160000D01*
X209589295Y-60160000D01*
X209667649Y-60167717D01*
X209667649Y-60167717D01*
G37*
G36*
X212207649Y-60167717D02*
X212246827Y-60171576D01*
X212322227Y-60194448D01*
X212397629Y-60217321D01*
X212536608Y-60291608D01*
X212658422Y-60391578D01*
X212758392Y-60513392D01*
X212832679Y-60652371D01*
X212878424Y-60803174D01*
X212893870Y-60960000D01*
X212878424Y-61116826D01*
X212832679Y-61267629D01*
X212758392Y-61406608D01*
X212658422Y-61528422D01*
X212536608Y-61628392D01*
X212397629Y-61702679D01*
X212322228Y-61725551D01*
X212246827Y-61748424D01*
X212207649Y-61752283D01*
X212129295Y-61760000D01*
X212050705Y-61760000D01*
X211972351Y-61752283D01*
X211933173Y-61748424D01*
X211857772Y-61725551D01*
X211782371Y-61702679D01*
X211643392Y-61628392D01*
X211521578Y-61528422D01*
X211421608Y-61406608D01*
X211347321Y-61267629D01*
X211301576Y-61116826D01*
X211286130Y-60960000D01*
X211301576Y-60803174D01*
X211347321Y-60652371D01*
X211421608Y-60513392D01*
X211521578Y-60391578D01*
X211643392Y-60291608D01*
X211782371Y-60217321D01*
X211857773Y-60194448D01*
X211933173Y-60171576D01*
X211972351Y-60167717D01*
X212050705Y-60160000D01*
X212129295Y-60160000D01*
X212207649Y-60167717D01*
X212207649Y-60167717D01*
G37*
G36*
X217287649Y-60167717D02*
X217326827Y-60171576D01*
X217402227Y-60194448D01*
X217477629Y-60217321D01*
X217616608Y-60291608D01*
X217738422Y-60391578D01*
X217838392Y-60513392D01*
X217912679Y-60652371D01*
X217958424Y-60803174D01*
X217973870Y-60960000D01*
X217958424Y-61116826D01*
X217912679Y-61267629D01*
X217838392Y-61406608D01*
X217738422Y-61528422D01*
X217616608Y-61628392D01*
X217477629Y-61702679D01*
X217402228Y-61725551D01*
X217326827Y-61748424D01*
X217287649Y-61752283D01*
X217209295Y-61760000D01*
X217130705Y-61760000D01*
X217052351Y-61752283D01*
X217013173Y-61748424D01*
X216937772Y-61725551D01*
X216862371Y-61702679D01*
X216723392Y-61628392D01*
X216601578Y-61528422D01*
X216501608Y-61406608D01*
X216427321Y-61267629D01*
X216381576Y-61116826D01*
X216366130Y-60960000D01*
X216381576Y-60803174D01*
X216427321Y-60652371D01*
X216501608Y-60513392D01*
X216601578Y-60391578D01*
X216723392Y-60291608D01*
X216862371Y-60217321D01*
X216937773Y-60194448D01*
X217013173Y-60171576D01*
X217052351Y-60167717D01*
X217130705Y-60160000D01*
X217209295Y-60160000D01*
X217287649Y-60167717D01*
X217287649Y-60167717D01*
G37*
G36*
X202047649Y-60167717D02*
X202086827Y-60171576D01*
X202162227Y-60194448D01*
X202237629Y-60217321D01*
X202376608Y-60291608D01*
X202498422Y-60391578D01*
X202598392Y-60513392D01*
X202672679Y-60652371D01*
X202718424Y-60803174D01*
X202733870Y-60960000D01*
X202718424Y-61116826D01*
X202672679Y-61267629D01*
X202598392Y-61406608D01*
X202498422Y-61528422D01*
X202376608Y-61628392D01*
X202237629Y-61702679D01*
X202162228Y-61725551D01*
X202086827Y-61748424D01*
X202047649Y-61752283D01*
X201969295Y-61760000D01*
X201890705Y-61760000D01*
X201812351Y-61752283D01*
X201773173Y-61748424D01*
X201697772Y-61725551D01*
X201622371Y-61702679D01*
X201483392Y-61628392D01*
X201361578Y-61528422D01*
X201261608Y-61406608D01*
X201187321Y-61267629D01*
X201141576Y-61116826D01*
X201126130Y-60960000D01*
X201141576Y-60803174D01*
X201187321Y-60652371D01*
X201261608Y-60513392D01*
X201361578Y-60391578D01*
X201483392Y-60291608D01*
X201622371Y-60217321D01*
X201697773Y-60194448D01*
X201773173Y-60171576D01*
X201812351Y-60167717D01*
X201890705Y-60160000D01*
X201969295Y-60160000D01*
X202047649Y-60167717D01*
X202047649Y-60167717D01*
G37*
G36*
X199507649Y-60167717D02*
X199546827Y-60171576D01*
X199622227Y-60194448D01*
X199697629Y-60217321D01*
X199836608Y-60291608D01*
X199958422Y-60391578D01*
X200058392Y-60513392D01*
X200132679Y-60652371D01*
X200178424Y-60803174D01*
X200193870Y-60960000D01*
X200178424Y-61116826D01*
X200132679Y-61267629D01*
X200058392Y-61406608D01*
X199958422Y-61528422D01*
X199836608Y-61628392D01*
X199697629Y-61702679D01*
X199622228Y-61725551D01*
X199546827Y-61748424D01*
X199507649Y-61752283D01*
X199429295Y-61760000D01*
X199350705Y-61760000D01*
X199272351Y-61752283D01*
X199233173Y-61748424D01*
X199157772Y-61725551D01*
X199082371Y-61702679D01*
X198943392Y-61628392D01*
X198821578Y-61528422D01*
X198721608Y-61406608D01*
X198647321Y-61267629D01*
X198601576Y-61116826D01*
X198586130Y-60960000D01*
X198601576Y-60803174D01*
X198647321Y-60652371D01*
X198721608Y-60513392D01*
X198821578Y-60391578D01*
X198943392Y-60291608D01*
X199082371Y-60217321D01*
X199157773Y-60194448D01*
X199233173Y-60171576D01*
X199272351Y-60167717D01*
X199350705Y-60160000D01*
X199429295Y-60160000D01*
X199507649Y-60167717D01*
X199507649Y-60167717D01*
G37*
G36*
X196967649Y-60167717D02*
X197006827Y-60171576D01*
X197082227Y-60194448D01*
X197157629Y-60217321D01*
X197296608Y-60291608D01*
X197418422Y-60391578D01*
X197518392Y-60513392D01*
X197592679Y-60652371D01*
X197638424Y-60803174D01*
X197653870Y-60960000D01*
X197638424Y-61116826D01*
X197592679Y-61267629D01*
X197518392Y-61406608D01*
X197418422Y-61528422D01*
X197296608Y-61628392D01*
X197157629Y-61702679D01*
X197082228Y-61725551D01*
X197006827Y-61748424D01*
X196967649Y-61752283D01*
X196889295Y-61760000D01*
X196810705Y-61760000D01*
X196732351Y-61752283D01*
X196693173Y-61748424D01*
X196617772Y-61725551D01*
X196542371Y-61702679D01*
X196403392Y-61628392D01*
X196281578Y-61528422D01*
X196181608Y-61406608D01*
X196107321Y-61267629D01*
X196061576Y-61116826D01*
X196046130Y-60960000D01*
X196061576Y-60803174D01*
X196107321Y-60652371D01*
X196181608Y-60513392D01*
X196281578Y-60391578D01*
X196403392Y-60291608D01*
X196542371Y-60217321D01*
X196617773Y-60194448D01*
X196693173Y-60171576D01*
X196732351Y-60167717D01*
X196810705Y-60160000D01*
X196889295Y-60160000D01*
X196967649Y-60167717D01*
X196967649Y-60167717D01*
G37*
G36*
X189347649Y-60167717D02*
X189386827Y-60171576D01*
X189462227Y-60194448D01*
X189537629Y-60217321D01*
X189676608Y-60291608D01*
X189798422Y-60391578D01*
X189898392Y-60513392D01*
X189972679Y-60652371D01*
X190018424Y-60803174D01*
X190033870Y-60960000D01*
X190018424Y-61116826D01*
X189972679Y-61267629D01*
X189898392Y-61406608D01*
X189798422Y-61528422D01*
X189676608Y-61628392D01*
X189537629Y-61702679D01*
X189462228Y-61725551D01*
X189386827Y-61748424D01*
X189347649Y-61752283D01*
X189269295Y-61760000D01*
X189190705Y-61760000D01*
X189112351Y-61752283D01*
X189073173Y-61748424D01*
X188997772Y-61725551D01*
X188922371Y-61702679D01*
X188783392Y-61628392D01*
X188661578Y-61528422D01*
X188561608Y-61406608D01*
X188487321Y-61267629D01*
X188441576Y-61116826D01*
X188426130Y-60960000D01*
X188441576Y-60803174D01*
X188487321Y-60652371D01*
X188561608Y-60513392D01*
X188661578Y-60391578D01*
X188783392Y-60291608D01*
X188922371Y-60217321D01*
X188997773Y-60194448D01*
X189073173Y-60171576D01*
X189112351Y-60167717D01*
X189190705Y-60160000D01*
X189269295Y-60160000D01*
X189347649Y-60167717D01*
X189347649Y-60167717D01*
G37*
G36*
X194427649Y-60167717D02*
X194466827Y-60171576D01*
X194542227Y-60194448D01*
X194617629Y-60217321D01*
X194756608Y-60291608D01*
X194878422Y-60391578D01*
X194978392Y-60513392D01*
X195052679Y-60652371D01*
X195098424Y-60803174D01*
X195113870Y-60960000D01*
X195098424Y-61116826D01*
X195052679Y-61267629D01*
X194978392Y-61406608D01*
X194878422Y-61528422D01*
X194756608Y-61628392D01*
X194617629Y-61702679D01*
X194542228Y-61725551D01*
X194466827Y-61748424D01*
X194427649Y-61752283D01*
X194349295Y-61760000D01*
X194270705Y-61760000D01*
X194192351Y-61752283D01*
X194153173Y-61748424D01*
X194077772Y-61725551D01*
X194002371Y-61702679D01*
X193863392Y-61628392D01*
X193741578Y-61528422D01*
X193641608Y-61406608D01*
X193567321Y-61267629D01*
X193521576Y-61116826D01*
X193506130Y-60960000D01*
X193521576Y-60803174D01*
X193567321Y-60652371D01*
X193641608Y-60513392D01*
X193741578Y-60391578D01*
X193863392Y-60291608D01*
X194002371Y-60217321D01*
X194077773Y-60194448D01*
X194153173Y-60171576D01*
X194192351Y-60167717D01*
X194270705Y-60160000D01*
X194349295Y-60160000D01*
X194427649Y-60167717D01*
X194427649Y-60167717D01*
G37*
G36*
X214747649Y-60167717D02*
X214786827Y-60171576D01*
X214862227Y-60194448D01*
X214937629Y-60217321D01*
X215076608Y-60291608D01*
X215198422Y-60391578D01*
X215298392Y-60513392D01*
X215372679Y-60652371D01*
X215418424Y-60803174D01*
X215433870Y-60960000D01*
X215418424Y-61116826D01*
X215372679Y-61267629D01*
X215298392Y-61406608D01*
X215198422Y-61528422D01*
X215076608Y-61628392D01*
X214937629Y-61702679D01*
X214862228Y-61725551D01*
X214786827Y-61748424D01*
X214747649Y-61752283D01*
X214669295Y-61760000D01*
X214590705Y-61760000D01*
X214512351Y-61752283D01*
X214473173Y-61748424D01*
X214397772Y-61725551D01*
X214322371Y-61702679D01*
X214183392Y-61628392D01*
X214061578Y-61528422D01*
X213961608Y-61406608D01*
X213887321Y-61267629D01*
X213841576Y-61116826D01*
X213826130Y-60960000D01*
X213841576Y-60803174D01*
X213887321Y-60652371D01*
X213961608Y-60513392D01*
X214061578Y-60391578D01*
X214183392Y-60291608D01*
X214322371Y-60217321D01*
X214397773Y-60194448D01*
X214473173Y-60171576D01*
X214512351Y-60167717D01*
X214590705Y-60160000D01*
X214669295Y-60160000D01*
X214747649Y-60167717D01*
X214747649Y-60167717D01*
G37*
G36*
X166616676Y-58865372D02*
X166689468Y-58895523D01*
X166754989Y-58939303D01*
X166810697Y-58995011D01*
X166854477Y-59060532D01*
X166884628Y-59133324D01*
X166900000Y-59210604D01*
X166900000Y-59289396D01*
X166884628Y-59366676D01*
X166854477Y-59439468D01*
X166810697Y-59504989D01*
X166754989Y-59560697D01*
X166689468Y-59604477D01*
X166616676Y-59634628D01*
X166539397Y-59650000D01*
X166460603Y-59650000D01*
X166383324Y-59634628D01*
X166310532Y-59604477D01*
X166245011Y-59560697D01*
X166189303Y-59504989D01*
X166145523Y-59439468D01*
X166115372Y-59366676D01*
X166100000Y-59289396D01*
X166100000Y-59210604D01*
X166115372Y-59133324D01*
X166145523Y-59060532D01*
X166189303Y-58995011D01*
X166245011Y-58939303D01*
X166310532Y-58895523D01*
X166383324Y-58865372D01*
X166460603Y-58850000D01*
X166539397Y-58850000D01*
X166616676Y-58865372D01*
X166616676Y-58865372D01*
G37*
G36*
X207116676Y-57615372D02*
X207189468Y-57645523D01*
X207254989Y-57689303D01*
X207310697Y-57745011D01*
X207310699Y-57745014D01*
X207310700Y-57745015D01*
X207317364Y-57754989D01*
X207354477Y-57810532D01*
X207384628Y-57883324D01*
X207400000Y-57960604D01*
X207400000Y-58039396D01*
X207384628Y-58116676D01*
X207354477Y-58189468D01*
X207310697Y-58254989D01*
X207254989Y-58310697D01*
X207189468Y-58354477D01*
X207116676Y-58384628D01*
X207039397Y-58400000D01*
X206960603Y-58400000D01*
X206883324Y-58384628D01*
X206810532Y-58354477D01*
X206745011Y-58310697D01*
X206689303Y-58254989D01*
X206645523Y-58189468D01*
X206615372Y-58116676D01*
X206600000Y-58039396D01*
X206600000Y-57960604D01*
X206615372Y-57883324D01*
X206645523Y-57810532D01*
X206682636Y-57754989D01*
X206689300Y-57745015D01*
X206689301Y-57745014D01*
X206689303Y-57745011D01*
X206745011Y-57689303D01*
X206810532Y-57645523D01*
X206883324Y-57615372D01*
X206960603Y-57600000D01*
X207039397Y-57600000D01*
X207116676Y-57615372D01*
X207116676Y-57615372D01*
G37*
G36*
X197116676Y-57615372D02*
X197189468Y-57645523D01*
X197254989Y-57689303D01*
X197310697Y-57745011D01*
X197310699Y-57745014D01*
X197310700Y-57745015D01*
X197317364Y-57754989D01*
X197354477Y-57810532D01*
X197384628Y-57883324D01*
X197400000Y-57960604D01*
X197400000Y-58039396D01*
X197384628Y-58116676D01*
X197354477Y-58189468D01*
X197310697Y-58254989D01*
X197254989Y-58310697D01*
X197189468Y-58354477D01*
X197116676Y-58384628D01*
X197039397Y-58400000D01*
X196960603Y-58400000D01*
X196883324Y-58384628D01*
X196810532Y-58354477D01*
X196745011Y-58310697D01*
X196689303Y-58254989D01*
X196645523Y-58189468D01*
X196615372Y-58116676D01*
X196600000Y-58039396D01*
X196600000Y-57960604D01*
X196615372Y-57883324D01*
X196645523Y-57810532D01*
X196682636Y-57754989D01*
X196689300Y-57745015D01*
X196689301Y-57745014D01*
X196689303Y-57745011D01*
X196745011Y-57689303D01*
X196810532Y-57645523D01*
X196883324Y-57615372D01*
X196960603Y-57600000D01*
X197039397Y-57600000D01*
X197116676Y-57615372D01*
X197116676Y-57615372D01*
G37*
G36*
X155866676Y-57115372D02*
X155939468Y-57145523D01*
X156004989Y-57189303D01*
X156060697Y-57245011D01*
X156104477Y-57310532D01*
X156134628Y-57383324D01*
X156150000Y-57460604D01*
X156150000Y-57539396D01*
X156134628Y-57616676D01*
X156104477Y-57689468D01*
X156104475Y-57689471D01*
X156067362Y-57745015D01*
X156060697Y-57754989D01*
X156004989Y-57810697D01*
X155939468Y-57854477D01*
X155869824Y-57883324D01*
X155866676Y-57884628D01*
X155789397Y-57900000D01*
X155710603Y-57900000D01*
X155633324Y-57884628D01*
X155630176Y-57883324D01*
X155560532Y-57854477D01*
X155495011Y-57810697D01*
X155439303Y-57754989D01*
X155432639Y-57745015D01*
X155395525Y-57689471D01*
X155395523Y-57689468D01*
X155365372Y-57616676D01*
X155350000Y-57539396D01*
X155350000Y-57460604D01*
X155365372Y-57383324D01*
X155395523Y-57310532D01*
X155439303Y-57245011D01*
X155495011Y-57189303D01*
X155560532Y-57145523D01*
X155633324Y-57115372D01*
X155710603Y-57100000D01*
X155789397Y-57100000D01*
X155866676Y-57115372D01*
X155866676Y-57115372D01*
G37*
G36*
X194426676Y-56115372D02*
X194499468Y-56145523D01*
X194564989Y-56189303D01*
X194620697Y-56245011D01*
X194664477Y-56310532D01*
X194694628Y-56383324D01*
X194710000Y-56460604D01*
X194710000Y-56539396D01*
X194694628Y-56616676D01*
X194664477Y-56689468D01*
X194620697Y-56754989D01*
X194564989Y-56810697D01*
X194499468Y-56854477D01*
X194426676Y-56884628D01*
X194349397Y-56900000D01*
X194270603Y-56900000D01*
X194193324Y-56884628D01*
X194120532Y-56854477D01*
X194055011Y-56810697D01*
X193999303Y-56754989D01*
X193955523Y-56689468D01*
X193925372Y-56616676D01*
X193910000Y-56539396D01*
X193910000Y-56460604D01*
X193925372Y-56383324D01*
X193955523Y-56310532D01*
X193999303Y-56245011D01*
X194055011Y-56189303D01*
X194120532Y-56145523D01*
X194193324Y-56115372D01*
X194270603Y-56100000D01*
X194349397Y-56100000D01*
X194426676Y-56115372D01*
X194426676Y-56115372D01*
G37*
G36*
X154616676Y-56115372D02*
X154689468Y-56145523D01*
X154754989Y-56189303D01*
X154810697Y-56245011D01*
X154854477Y-56310532D01*
X154884628Y-56383324D01*
X154900000Y-56460604D01*
X154900000Y-56539396D01*
X154884628Y-56616676D01*
X154854477Y-56689468D01*
X154810697Y-56754989D01*
X154754989Y-56810697D01*
X154689468Y-56854477D01*
X154616676Y-56884628D01*
X154539397Y-56900000D01*
X154460603Y-56900000D01*
X154383324Y-56884628D01*
X154310532Y-56854477D01*
X154245011Y-56810697D01*
X154189303Y-56754989D01*
X154145523Y-56689468D01*
X154115372Y-56616676D01*
X154100000Y-56539396D01*
X154100000Y-56460604D01*
X154115372Y-56383324D01*
X154145523Y-56310532D01*
X154189303Y-56245011D01*
X154245011Y-56189303D01*
X154310532Y-56145523D01*
X154383324Y-56115372D01*
X154460603Y-56100000D01*
X154539397Y-56100000D01*
X154616676Y-56115372D01*
X154616676Y-56115372D01*
G37*
G36*
X153616676Y-54865372D02*
X153689468Y-54895523D01*
X153689471Y-54895525D01*
X153722316Y-54917471D01*
X153754989Y-54939303D01*
X153810697Y-54995011D01*
X153854477Y-55060532D01*
X153884628Y-55133324D01*
X153900000Y-55210604D01*
X153900000Y-55289396D01*
X153884628Y-55366676D01*
X153854477Y-55439468D01*
X153810697Y-55504989D01*
X153754989Y-55560697D01*
X153689468Y-55604477D01*
X153616676Y-55634628D01*
X153539397Y-55650000D01*
X153460603Y-55650000D01*
X153383324Y-55634628D01*
X153310532Y-55604477D01*
X153245011Y-55560697D01*
X153189303Y-55504989D01*
X153145523Y-55439468D01*
X153115372Y-55366676D01*
X153100000Y-55289396D01*
X153100000Y-55210604D01*
X153115372Y-55133324D01*
X153145523Y-55060532D01*
X153189303Y-54995011D01*
X153245011Y-54939303D01*
X153277685Y-54917471D01*
X153310529Y-54895525D01*
X153310532Y-54895523D01*
X153383324Y-54865372D01*
X153460603Y-54850000D01*
X153539397Y-54850000D01*
X153616676Y-54865372D01*
X153616676Y-54865372D01*
G37*
G36*
X176138676Y-54343372D02*
X176211468Y-54373523D01*
X176276989Y-54417303D01*
X176332697Y-54473011D01*
X176376477Y-54538532D01*
X176406628Y-54611324D01*
X176422000Y-54688604D01*
X176422000Y-54767396D01*
X176406628Y-54844676D01*
X176376477Y-54917468D01*
X176332697Y-54982989D01*
X176276989Y-55038697D01*
X176276986Y-55038699D01*
X176276985Y-55038700D01*
X176244311Y-55060532D01*
X176211468Y-55082477D01*
X176138676Y-55112628D01*
X176061397Y-55128000D01*
X175982603Y-55128000D01*
X175905324Y-55112628D01*
X175832532Y-55082477D01*
X175799689Y-55060532D01*
X175767015Y-55038700D01*
X175767014Y-55038699D01*
X175767011Y-55038697D01*
X175711303Y-54982989D01*
X175667523Y-54917468D01*
X175637372Y-54844676D01*
X175622000Y-54767396D01*
X175622000Y-54688604D01*
X175637372Y-54611324D01*
X175667523Y-54538532D01*
X175711303Y-54473011D01*
X175767011Y-54417303D01*
X175832532Y-54373523D01*
X175905324Y-54343372D01*
X175982603Y-54328000D01*
X176061397Y-54328000D01*
X176138676Y-54343372D01*
X176138676Y-54343372D01*
G37*
G36*
X207127649Y-52547717D02*
X207166827Y-52551576D01*
X207242228Y-52574449D01*
X207317629Y-52597321D01*
X207456608Y-52671608D01*
X207578422Y-52771578D01*
X207678392Y-52893392D01*
X207752679Y-53032371D01*
X207798424Y-53183174D01*
X207813870Y-53340000D01*
X207798424Y-53496826D01*
X207752679Y-53647629D01*
X207678392Y-53786608D01*
X207578422Y-53908422D01*
X207456608Y-54008392D01*
X207317629Y-54082679D01*
X207242227Y-54105552D01*
X207166827Y-54128424D01*
X207127649Y-54132283D01*
X207049295Y-54140000D01*
X206970705Y-54140000D01*
X206892351Y-54132283D01*
X206853173Y-54128424D01*
X206777772Y-54105551D01*
X206702371Y-54082679D01*
X206563392Y-54008392D01*
X206441578Y-53908422D01*
X206341608Y-53786608D01*
X206267321Y-53647629D01*
X206221576Y-53496826D01*
X206206130Y-53340000D01*
X206221576Y-53183174D01*
X206267321Y-53032371D01*
X206341608Y-52893392D01*
X206441578Y-52771578D01*
X206563392Y-52671608D01*
X206702371Y-52597321D01*
X206777772Y-52574449D01*
X206853173Y-52551576D01*
X206892351Y-52547717D01*
X206970705Y-52540000D01*
X207049295Y-52540000D01*
X207127649Y-52547717D01*
X207127649Y-52547717D01*
G37*
G36*
X217287649Y-52547717D02*
X217326827Y-52551576D01*
X217402228Y-52574449D01*
X217477629Y-52597321D01*
X217616608Y-52671608D01*
X217738422Y-52771578D01*
X217838392Y-52893392D01*
X217912679Y-53032371D01*
X217958424Y-53183174D01*
X217973870Y-53340000D01*
X217958424Y-53496826D01*
X217912679Y-53647629D01*
X217838392Y-53786608D01*
X217738422Y-53908422D01*
X217616608Y-54008392D01*
X217477629Y-54082679D01*
X217402227Y-54105552D01*
X217326827Y-54128424D01*
X217287649Y-54132283D01*
X217209295Y-54140000D01*
X217130705Y-54140000D01*
X217052351Y-54132283D01*
X217013173Y-54128424D01*
X216937772Y-54105551D01*
X216862371Y-54082679D01*
X216723392Y-54008392D01*
X216601578Y-53908422D01*
X216501608Y-53786608D01*
X216427321Y-53647629D01*
X216381576Y-53496826D01*
X216366130Y-53340000D01*
X216381576Y-53183174D01*
X216427321Y-53032371D01*
X216501608Y-52893392D01*
X216601578Y-52771578D01*
X216723392Y-52671608D01*
X216862371Y-52597321D01*
X216937772Y-52574449D01*
X217013173Y-52551576D01*
X217052351Y-52547717D01*
X217130705Y-52540000D01*
X217209295Y-52540000D01*
X217287649Y-52547717D01*
X217287649Y-52547717D01*
G37*
G36*
X204587649Y-52547717D02*
X204626827Y-52551576D01*
X204702228Y-52574449D01*
X204777629Y-52597321D01*
X204916608Y-52671608D01*
X205038422Y-52771578D01*
X205138392Y-52893392D01*
X205212679Y-53032371D01*
X205258424Y-53183174D01*
X205273870Y-53340000D01*
X205258424Y-53496826D01*
X205212679Y-53647629D01*
X205138392Y-53786608D01*
X205038422Y-53908422D01*
X204916608Y-54008392D01*
X204777629Y-54082679D01*
X204702227Y-54105552D01*
X204626827Y-54128424D01*
X204587649Y-54132283D01*
X204509295Y-54140000D01*
X204430705Y-54140000D01*
X204352351Y-54132283D01*
X204313173Y-54128424D01*
X204237772Y-54105551D01*
X204162371Y-54082679D01*
X204023392Y-54008392D01*
X203901578Y-53908422D01*
X203801608Y-53786608D01*
X203727321Y-53647629D01*
X203681576Y-53496826D01*
X203666130Y-53340000D01*
X203681576Y-53183174D01*
X203727321Y-53032371D01*
X203801608Y-52893392D01*
X203901578Y-52771578D01*
X204023392Y-52671608D01*
X204162371Y-52597321D01*
X204237772Y-52574449D01*
X204313173Y-52551576D01*
X204352351Y-52547717D01*
X204430705Y-52540000D01*
X204509295Y-52540000D01*
X204587649Y-52547717D01*
X204587649Y-52547717D01*
G37*
G36*
X202047649Y-52547717D02*
X202086827Y-52551576D01*
X202162228Y-52574449D01*
X202237629Y-52597321D01*
X202376608Y-52671608D01*
X202498422Y-52771578D01*
X202598392Y-52893392D01*
X202672679Y-53032371D01*
X202718424Y-53183174D01*
X202733870Y-53340000D01*
X202718424Y-53496826D01*
X202672679Y-53647629D01*
X202598392Y-53786608D01*
X202498422Y-53908422D01*
X202376608Y-54008392D01*
X202237629Y-54082679D01*
X202162227Y-54105552D01*
X202086827Y-54128424D01*
X202047649Y-54132283D01*
X201969295Y-54140000D01*
X201890705Y-54140000D01*
X201812351Y-54132283D01*
X201773173Y-54128424D01*
X201697772Y-54105551D01*
X201622371Y-54082679D01*
X201483392Y-54008392D01*
X201361578Y-53908422D01*
X201261608Y-53786608D01*
X201187321Y-53647629D01*
X201141576Y-53496826D01*
X201126130Y-53340000D01*
X201141576Y-53183174D01*
X201187321Y-53032371D01*
X201261608Y-52893392D01*
X201361578Y-52771578D01*
X201483392Y-52671608D01*
X201622371Y-52597321D01*
X201697772Y-52574449D01*
X201773173Y-52551576D01*
X201812351Y-52547717D01*
X201890705Y-52540000D01*
X201969295Y-52540000D01*
X202047649Y-52547717D01*
X202047649Y-52547717D01*
G37*
G36*
X199507649Y-52547717D02*
X199546827Y-52551576D01*
X199622228Y-52574449D01*
X199697629Y-52597321D01*
X199836608Y-52671608D01*
X199958422Y-52771578D01*
X200058392Y-52893392D01*
X200132679Y-53032371D01*
X200178424Y-53183174D01*
X200193870Y-53340000D01*
X200178424Y-53496826D01*
X200132679Y-53647629D01*
X200058392Y-53786608D01*
X199958422Y-53908422D01*
X199836608Y-54008392D01*
X199697629Y-54082679D01*
X199622227Y-54105552D01*
X199546827Y-54128424D01*
X199507649Y-54132283D01*
X199429295Y-54140000D01*
X199350705Y-54140000D01*
X199272351Y-54132283D01*
X199233173Y-54128424D01*
X199157772Y-54105551D01*
X199082371Y-54082679D01*
X198943392Y-54008392D01*
X198821578Y-53908422D01*
X198721608Y-53786608D01*
X198647321Y-53647629D01*
X198601576Y-53496826D01*
X198586130Y-53340000D01*
X198601576Y-53183174D01*
X198647321Y-53032371D01*
X198721608Y-52893392D01*
X198821578Y-52771578D01*
X198943392Y-52671608D01*
X199082371Y-52597321D01*
X199157772Y-52574449D01*
X199233173Y-52551576D01*
X199272351Y-52547717D01*
X199350705Y-52540000D01*
X199429295Y-52540000D01*
X199507649Y-52547717D01*
X199507649Y-52547717D01*
G37*
G36*
X196967649Y-52547717D02*
X197006827Y-52551576D01*
X197082228Y-52574449D01*
X197157629Y-52597321D01*
X197296608Y-52671608D01*
X197418422Y-52771578D01*
X197518392Y-52893392D01*
X197592679Y-53032371D01*
X197638424Y-53183174D01*
X197653870Y-53340000D01*
X197638424Y-53496826D01*
X197592679Y-53647629D01*
X197518392Y-53786608D01*
X197418422Y-53908422D01*
X197296608Y-54008392D01*
X197157629Y-54082679D01*
X197082227Y-54105552D01*
X197006827Y-54128424D01*
X196967649Y-54132283D01*
X196889295Y-54140000D01*
X196810705Y-54140000D01*
X196732351Y-54132283D01*
X196693173Y-54128424D01*
X196617772Y-54105551D01*
X196542371Y-54082679D01*
X196403392Y-54008392D01*
X196281578Y-53908422D01*
X196181608Y-53786608D01*
X196107321Y-53647629D01*
X196061576Y-53496826D01*
X196046130Y-53340000D01*
X196061576Y-53183174D01*
X196107321Y-53032371D01*
X196181608Y-52893392D01*
X196281578Y-52771578D01*
X196403392Y-52671608D01*
X196542371Y-52597321D01*
X196617772Y-52574449D01*
X196693173Y-52551576D01*
X196732351Y-52547717D01*
X196810705Y-52540000D01*
X196889295Y-52540000D01*
X196967649Y-52547717D01*
X196967649Y-52547717D01*
G37*
G36*
X194427649Y-52547717D02*
X194466827Y-52551576D01*
X194542228Y-52574449D01*
X194617629Y-52597321D01*
X194756608Y-52671608D01*
X194878422Y-52771578D01*
X194978392Y-52893392D01*
X195052679Y-53032371D01*
X195098424Y-53183174D01*
X195113870Y-53340000D01*
X195098424Y-53496826D01*
X195052679Y-53647629D01*
X194978392Y-53786608D01*
X194878422Y-53908422D01*
X194756608Y-54008392D01*
X194617629Y-54082679D01*
X194542227Y-54105552D01*
X194466827Y-54128424D01*
X194427649Y-54132283D01*
X194349295Y-54140000D01*
X194270705Y-54140000D01*
X194192351Y-54132283D01*
X194153173Y-54128424D01*
X194077772Y-54105551D01*
X194002371Y-54082679D01*
X193863392Y-54008392D01*
X193741578Y-53908422D01*
X193641608Y-53786608D01*
X193567321Y-53647629D01*
X193521576Y-53496826D01*
X193506130Y-53340000D01*
X193521576Y-53183174D01*
X193567321Y-53032371D01*
X193641608Y-52893392D01*
X193741578Y-52771578D01*
X193863392Y-52671608D01*
X194002371Y-52597321D01*
X194077772Y-52574449D01*
X194153173Y-52551576D01*
X194192351Y-52547717D01*
X194270705Y-52540000D01*
X194349295Y-52540000D01*
X194427649Y-52547717D01*
X194427649Y-52547717D01*
G37*
G36*
X191887649Y-52547717D02*
X191926827Y-52551576D01*
X192002228Y-52574449D01*
X192077629Y-52597321D01*
X192216608Y-52671608D01*
X192338422Y-52771578D01*
X192438392Y-52893392D01*
X192512679Y-53032371D01*
X192558424Y-53183174D01*
X192573870Y-53340000D01*
X192558424Y-53496826D01*
X192512679Y-53647629D01*
X192438392Y-53786608D01*
X192338422Y-53908422D01*
X192216608Y-54008392D01*
X192077629Y-54082679D01*
X192002227Y-54105552D01*
X191926827Y-54128424D01*
X191887649Y-54132283D01*
X191809295Y-54140000D01*
X191730705Y-54140000D01*
X191652351Y-54132283D01*
X191613173Y-54128424D01*
X191537772Y-54105551D01*
X191462371Y-54082679D01*
X191323392Y-54008392D01*
X191201578Y-53908422D01*
X191101608Y-53786608D01*
X191027321Y-53647629D01*
X190981576Y-53496826D01*
X190966130Y-53340000D01*
X190981576Y-53183174D01*
X191027321Y-53032371D01*
X191101608Y-52893392D01*
X191201578Y-52771578D01*
X191323392Y-52671608D01*
X191462371Y-52597321D01*
X191537772Y-52574449D01*
X191613173Y-52551576D01*
X191652351Y-52547717D01*
X191730705Y-52540000D01*
X191809295Y-52540000D01*
X191887649Y-52547717D01*
X191887649Y-52547717D01*
G37*
G36*
X189347649Y-52547717D02*
X189386827Y-52551576D01*
X189462228Y-52574449D01*
X189537629Y-52597321D01*
X189676608Y-52671608D01*
X189798422Y-52771578D01*
X189898392Y-52893392D01*
X189972679Y-53032371D01*
X190018424Y-53183174D01*
X190033870Y-53340000D01*
X190018424Y-53496826D01*
X189972679Y-53647629D01*
X189898392Y-53786608D01*
X189798422Y-53908422D01*
X189676608Y-54008392D01*
X189537629Y-54082679D01*
X189462227Y-54105552D01*
X189386827Y-54128424D01*
X189347649Y-54132283D01*
X189269295Y-54140000D01*
X189190705Y-54140000D01*
X189112351Y-54132283D01*
X189073173Y-54128424D01*
X188997772Y-54105551D01*
X188922371Y-54082679D01*
X188783392Y-54008392D01*
X188661578Y-53908422D01*
X188561608Y-53786608D01*
X188487321Y-53647629D01*
X188441576Y-53496826D01*
X188426130Y-53340000D01*
X188441576Y-53183174D01*
X188487321Y-53032371D01*
X188561608Y-52893392D01*
X188661578Y-52771578D01*
X188783392Y-52671608D01*
X188922371Y-52597321D01*
X188997772Y-52574449D01*
X189073173Y-52551576D01*
X189112351Y-52547717D01*
X189190705Y-52540000D01*
X189269295Y-52540000D01*
X189347649Y-52547717D01*
X189347649Y-52547717D01*
G37*
G36*
X186807649Y-52547717D02*
X186846827Y-52551576D01*
X186922228Y-52574449D01*
X186997629Y-52597321D01*
X187136608Y-52671608D01*
X187258422Y-52771578D01*
X187358392Y-52893392D01*
X187432679Y-53032371D01*
X187478424Y-53183174D01*
X187493870Y-53340000D01*
X187478424Y-53496826D01*
X187432679Y-53647629D01*
X187358392Y-53786608D01*
X187258422Y-53908422D01*
X187136608Y-54008392D01*
X186997629Y-54082679D01*
X186922227Y-54105552D01*
X186846827Y-54128424D01*
X186807649Y-54132283D01*
X186729295Y-54140000D01*
X186650705Y-54140000D01*
X186572351Y-54132283D01*
X186533173Y-54128424D01*
X186457772Y-54105551D01*
X186382371Y-54082679D01*
X186243392Y-54008392D01*
X186121578Y-53908422D01*
X186021608Y-53786608D01*
X185947321Y-53647629D01*
X185901576Y-53496826D01*
X185886130Y-53340000D01*
X185901576Y-53183174D01*
X185947321Y-53032371D01*
X186021608Y-52893392D01*
X186121578Y-52771578D01*
X186243392Y-52671608D01*
X186382371Y-52597321D01*
X186457772Y-52574449D01*
X186533173Y-52551576D01*
X186572351Y-52547717D01*
X186650705Y-52540000D01*
X186729295Y-52540000D01*
X186807649Y-52547717D01*
X186807649Y-52547717D01*
G37*
G36*
X184267649Y-52547717D02*
X184306827Y-52551576D01*
X184382228Y-52574449D01*
X184457629Y-52597321D01*
X184596608Y-52671608D01*
X184718422Y-52771578D01*
X184818392Y-52893392D01*
X184892679Y-53032371D01*
X184938424Y-53183174D01*
X184953870Y-53340000D01*
X184938424Y-53496826D01*
X184892679Y-53647629D01*
X184818392Y-53786608D01*
X184718422Y-53908422D01*
X184596608Y-54008392D01*
X184457629Y-54082679D01*
X184382227Y-54105552D01*
X184306827Y-54128424D01*
X184267649Y-54132283D01*
X184189295Y-54140000D01*
X184110705Y-54140000D01*
X184032351Y-54132283D01*
X183993173Y-54128424D01*
X183917772Y-54105551D01*
X183842371Y-54082679D01*
X183703392Y-54008392D01*
X183581578Y-53908422D01*
X183481608Y-53786608D01*
X183407321Y-53647629D01*
X183361576Y-53496826D01*
X183346130Y-53340000D01*
X183361576Y-53183174D01*
X183407321Y-53032371D01*
X183481608Y-52893392D01*
X183581578Y-52771578D01*
X183703392Y-52671608D01*
X183842371Y-52597321D01*
X183917772Y-52574449D01*
X183993173Y-52551576D01*
X184032351Y-52547717D01*
X184110705Y-52540000D01*
X184189295Y-52540000D01*
X184267649Y-52547717D01*
X184267649Y-52547717D01*
G37*
G36*
X209667649Y-52547717D02*
X209706827Y-52551576D01*
X209782228Y-52574449D01*
X209857629Y-52597321D01*
X209996608Y-52671608D01*
X210118422Y-52771578D01*
X210218392Y-52893392D01*
X210292679Y-53032371D01*
X210338424Y-53183174D01*
X210353870Y-53340000D01*
X210338424Y-53496826D01*
X210292679Y-53647629D01*
X210218392Y-53786608D01*
X210118422Y-53908422D01*
X209996608Y-54008392D01*
X209857629Y-54082679D01*
X209782227Y-54105552D01*
X209706827Y-54128424D01*
X209667649Y-54132283D01*
X209589295Y-54140000D01*
X209510705Y-54140000D01*
X209432351Y-54132283D01*
X209393173Y-54128424D01*
X209317772Y-54105551D01*
X209242371Y-54082679D01*
X209103392Y-54008392D01*
X208981578Y-53908422D01*
X208881608Y-53786608D01*
X208807321Y-53647629D01*
X208761576Y-53496826D01*
X208746130Y-53340000D01*
X208761576Y-53183174D01*
X208807321Y-53032371D01*
X208881608Y-52893392D01*
X208981578Y-52771578D01*
X209103392Y-52671608D01*
X209242371Y-52597321D01*
X209317772Y-52574449D01*
X209393173Y-52551576D01*
X209432351Y-52547717D01*
X209510705Y-52540000D01*
X209589295Y-52540000D01*
X209667649Y-52547717D01*
X209667649Y-52547717D01*
G37*
G36*
X212207649Y-52547717D02*
X212246827Y-52551576D01*
X212322228Y-52574449D01*
X212397629Y-52597321D01*
X212536608Y-52671608D01*
X212658422Y-52771578D01*
X212758392Y-52893392D01*
X212832679Y-53032371D01*
X212878424Y-53183174D01*
X212893870Y-53340000D01*
X212878424Y-53496826D01*
X212832679Y-53647629D01*
X212758392Y-53786608D01*
X212658422Y-53908422D01*
X212536608Y-54008392D01*
X212397629Y-54082679D01*
X212322227Y-54105552D01*
X212246827Y-54128424D01*
X212207649Y-54132283D01*
X212129295Y-54140000D01*
X212050705Y-54140000D01*
X211972351Y-54132283D01*
X211933173Y-54128424D01*
X211857772Y-54105551D01*
X211782371Y-54082679D01*
X211643392Y-54008392D01*
X211521578Y-53908422D01*
X211421608Y-53786608D01*
X211347321Y-53647629D01*
X211301576Y-53496826D01*
X211286130Y-53340000D01*
X211301576Y-53183174D01*
X211347321Y-53032371D01*
X211421608Y-52893392D01*
X211521578Y-52771578D01*
X211643392Y-52671608D01*
X211782371Y-52597321D01*
X211857772Y-52574449D01*
X211933173Y-52551576D01*
X211972351Y-52547717D01*
X212050705Y-52540000D01*
X212129295Y-52540000D01*
X212207649Y-52547717D01*
X212207649Y-52547717D01*
G37*
G36*
X214747649Y-52547717D02*
X214786827Y-52551576D01*
X214862228Y-52574449D01*
X214937629Y-52597321D01*
X215076608Y-52671608D01*
X215198422Y-52771578D01*
X215298392Y-52893392D01*
X215372679Y-53032371D01*
X215418424Y-53183174D01*
X215433870Y-53340000D01*
X215418424Y-53496826D01*
X215372679Y-53647629D01*
X215298392Y-53786608D01*
X215198422Y-53908422D01*
X215076608Y-54008392D01*
X214937629Y-54082679D01*
X214862227Y-54105552D01*
X214786827Y-54128424D01*
X214747649Y-54132283D01*
X214669295Y-54140000D01*
X214590705Y-54140000D01*
X214512351Y-54132283D01*
X214473173Y-54128424D01*
X214397772Y-54105551D01*
X214322371Y-54082679D01*
X214183392Y-54008392D01*
X214061578Y-53908422D01*
X213961608Y-53786608D01*
X213887321Y-53647629D01*
X213841576Y-53496826D01*
X213826130Y-53340000D01*
X213841576Y-53183174D01*
X213887321Y-53032371D01*
X213961608Y-52893392D01*
X214061578Y-52771578D01*
X214183392Y-52671608D01*
X214322371Y-52597321D01*
X214397772Y-52574449D01*
X214473173Y-52551576D01*
X214512351Y-52547717D01*
X214590705Y-52540000D01*
X214669295Y-52540000D01*
X214747649Y-52547717D01*
X214747649Y-52547717D01*
G37*
G36*
X156116676Y-50115372D02*
X156189468Y-50145523D01*
X156254989Y-50189303D01*
X156310697Y-50245011D01*
X156310699Y-50245014D01*
X156310700Y-50245015D01*
X156317364Y-50254989D01*
X156354477Y-50310532D01*
X156384628Y-50383324D01*
X156400000Y-50460604D01*
X156400000Y-50539396D01*
X156384628Y-50616676D01*
X156354477Y-50689468D01*
X156310697Y-50754989D01*
X156254989Y-50810697D01*
X156189468Y-50854477D01*
X156116676Y-50884628D01*
X156039397Y-50900000D01*
X155960603Y-50900000D01*
X155883324Y-50884628D01*
X155810532Y-50854477D01*
X155745011Y-50810697D01*
X155689303Y-50754989D01*
X155645523Y-50689468D01*
X155615372Y-50616676D01*
X155600000Y-50539396D01*
X155600000Y-50460604D01*
X155615372Y-50383324D01*
X155645523Y-50310532D01*
X155682636Y-50254989D01*
X155689300Y-50245015D01*
X155689301Y-50245014D01*
X155689303Y-50245011D01*
X155745011Y-50189303D01*
X155810532Y-50145523D01*
X155883324Y-50115372D01*
X155960603Y-50100000D01*
X156039397Y-50100000D01*
X156116676Y-50115372D01*
X156116676Y-50115372D01*
G37*
G36*
X150616676Y-50115372D02*
X150689468Y-50145523D01*
X150754989Y-50189303D01*
X150810697Y-50245011D01*
X150810699Y-50245014D01*
X150810700Y-50245015D01*
X150817364Y-50254989D01*
X150854477Y-50310532D01*
X150884628Y-50383324D01*
X150900000Y-50460604D01*
X150900000Y-50539396D01*
X150884628Y-50616676D01*
X150854477Y-50689468D01*
X150810697Y-50754989D01*
X150754989Y-50810697D01*
X150689468Y-50854477D01*
X150616676Y-50884628D01*
X150539397Y-50900000D01*
X150460603Y-50900000D01*
X150383324Y-50884628D01*
X150310532Y-50854477D01*
X150245011Y-50810697D01*
X150189303Y-50754989D01*
X150145523Y-50689468D01*
X150115372Y-50616676D01*
X150100000Y-50539396D01*
X150100000Y-50460604D01*
X150115372Y-50383324D01*
X150145523Y-50310532D01*
X150182636Y-50254989D01*
X150189300Y-50245015D01*
X150189301Y-50245014D01*
X150189303Y-50245011D01*
X150245011Y-50189303D01*
X150310532Y-50145523D01*
X150383324Y-50115372D01*
X150460603Y-50100000D01*
X150539397Y-50100000D01*
X150616676Y-50115372D01*
X150616676Y-50115372D01*
G37*
G36*
X214746676Y-49615372D02*
X214819468Y-49645523D01*
X214884989Y-49689303D01*
X214940697Y-49745011D01*
X214984477Y-49810532D01*
X215014628Y-49883324D01*
X215030000Y-49960604D01*
X215030000Y-50039396D01*
X215014628Y-50116676D01*
X214984477Y-50189468D01*
X214984475Y-50189471D01*
X214947362Y-50245015D01*
X214940697Y-50254989D01*
X214884989Y-50310697D01*
X214819468Y-50354477D01*
X214749824Y-50383324D01*
X214746676Y-50384628D01*
X214669397Y-50400000D01*
X214590603Y-50400000D01*
X214513324Y-50384628D01*
X214510176Y-50383324D01*
X214440532Y-50354477D01*
X214375011Y-50310697D01*
X214319303Y-50254989D01*
X214312639Y-50245015D01*
X214275525Y-50189471D01*
X214275523Y-50189468D01*
X214245372Y-50116676D01*
X214230000Y-50039396D01*
X214230000Y-49960604D01*
X214245372Y-49883324D01*
X214275523Y-49810532D01*
X214319303Y-49745011D01*
X214375011Y-49689303D01*
X214440532Y-49645523D01*
X214513324Y-49615372D01*
X214590603Y-49600000D01*
X214669397Y-49600000D01*
X214746676Y-49615372D01*
X214746676Y-49615372D01*
G37*
M02*
