G04 #@! TF.GenerationSoftware,KiCad,Pcbnew,5.0.2-bee76a0~70~ubuntu16.04.1*
G04 #@! TF.CreationDate,2019-03-02T11:38:04+08:00*
G04 #@! TF.ProjectId,OTP,4f54502e-6b69-4636-9164-5f7063625858,v01*
G04 #@! TF.SameCoordinates,Original*
G04 #@! TF.FileFunction,Paste,Top*
G04 #@! TF.FilePolarity,Positive*
%FSLAX46Y46*%
G04 Gerber Fmt 4.6, Leading zero omitted, Abs format (unit mm)*
G04 Created by KiCad (PCBNEW 5.0.2-bee76a0~70~ubuntu16.04.1) date Saturday, 02 March, 2019 11:38:04 AM PST*
%MOMM*%
%LPD*%
G01*
G04 APERTURE LIST*
%ADD10R,0.200000X0.800000*%
%ADD11R,0.800000X0.900000*%
%ADD12R,0.900000X0.800000*%
%ADD13C,0.100000*%
%ADD14C,1.150000*%
%ADD15R,1.200000X0.900000*%
%ADD16R,3.000000X5.500000*%
%ADD17R,0.600000X1.500000*%
G04 APERTURE END LIST*
D10*
G04 #@! TO.C,J1*
X147500000Y-53340000D03*
X148000000Y-53340000D03*
X148500000Y-53340000D03*
X149000000Y-53340000D03*
X149500000Y-53340000D03*
X150000000Y-53340000D03*
X150500000Y-53340000D03*
X151000000Y-53340000D03*
X151500000Y-53340000D03*
X152000000Y-53340000D03*
X152500000Y-53340000D03*
X153000000Y-53340000D03*
X153500000Y-53340000D03*
X154000000Y-53340000D03*
X154500000Y-53340000D03*
X155000000Y-53340000D03*
X155500000Y-53340000D03*
X156000000Y-53340000D03*
X156500000Y-53340000D03*
X157000000Y-53340000D03*
X157500000Y-53340000D03*
X158000000Y-53340000D03*
X158500000Y-53340000D03*
X159000000Y-53340000D03*
G04 #@! TD*
D11*
G04 #@! TO.C,Q2*
X182372000Y-84500000D03*
X183322000Y-86500000D03*
X181422000Y-86500000D03*
G04 #@! TD*
D12*
G04 #@! TO.C,Q1*
X169910000Y-83820000D03*
X167910000Y-84770000D03*
X167910000Y-82870000D03*
G04 #@! TD*
D13*
G04 #@! TO.C,C1*
G36*
X158974505Y-66476204D02*
X158998773Y-66479804D01*
X159022572Y-66485765D01*
X159045671Y-66494030D01*
X159067850Y-66504520D01*
X159088893Y-66517132D01*
X159108599Y-66531747D01*
X159126777Y-66548223D01*
X159143253Y-66566401D01*
X159157868Y-66586107D01*
X159170480Y-66607150D01*
X159180970Y-66629329D01*
X159189235Y-66652428D01*
X159195196Y-66676227D01*
X159198796Y-66700495D01*
X159200000Y-66724999D01*
X159200000Y-67375001D01*
X159198796Y-67399505D01*
X159195196Y-67423773D01*
X159189235Y-67447572D01*
X159180970Y-67470671D01*
X159170480Y-67492850D01*
X159157868Y-67513893D01*
X159143253Y-67533599D01*
X159126777Y-67551777D01*
X159108599Y-67568253D01*
X159088893Y-67582868D01*
X159067850Y-67595480D01*
X159045671Y-67605970D01*
X159022572Y-67614235D01*
X158998773Y-67620196D01*
X158974505Y-67623796D01*
X158950001Y-67625000D01*
X158049999Y-67625000D01*
X158025495Y-67623796D01*
X158001227Y-67620196D01*
X157977428Y-67614235D01*
X157954329Y-67605970D01*
X157932150Y-67595480D01*
X157911107Y-67582868D01*
X157891401Y-67568253D01*
X157873223Y-67551777D01*
X157856747Y-67533599D01*
X157842132Y-67513893D01*
X157829520Y-67492850D01*
X157819030Y-67470671D01*
X157810765Y-67447572D01*
X157804804Y-67423773D01*
X157801204Y-67399505D01*
X157800000Y-67375001D01*
X157800000Y-66724999D01*
X157801204Y-66700495D01*
X157804804Y-66676227D01*
X157810765Y-66652428D01*
X157819030Y-66629329D01*
X157829520Y-66607150D01*
X157842132Y-66586107D01*
X157856747Y-66566401D01*
X157873223Y-66548223D01*
X157891401Y-66531747D01*
X157911107Y-66517132D01*
X157932150Y-66504520D01*
X157954329Y-66494030D01*
X157977428Y-66485765D01*
X158001227Y-66479804D01*
X158025495Y-66476204D01*
X158049999Y-66475000D01*
X158950001Y-66475000D01*
X158974505Y-66476204D01*
X158974505Y-66476204D01*
G37*
D14*
X158500000Y-67050000D03*
D13*
G36*
X158974505Y-64426204D02*
X158998773Y-64429804D01*
X159022572Y-64435765D01*
X159045671Y-64444030D01*
X159067850Y-64454520D01*
X159088893Y-64467132D01*
X159108599Y-64481747D01*
X159126777Y-64498223D01*
X159143253Y-64516401D01*
X159157868Y-64536107D01*
X159170480Y-64557150D01*
X159180970Y-64579329D01*
X159189235Y-64602428D01*
X159195196Y-64626227D01*
X159198796Y-64650495D01*
X159200000Y-64674999D01*
X159200000Y-65325001D01*
X159198796Y-65349505D01*
X159195196Y-65373773D01*
X159189235Y-65397572D01*
X159180970Y-65420671D01*
X159170480Y-65442850D01*
X159157868Y-65463893D01*
X159143253Y-65483599D01*
X159126777Y-65501777D01*
X159108599Y-65518253D01*
X159088893Y-65532868D01*
X159067850Y-65545480D01*
X159045671Y-65555970D01*
X159022572Y-65564235D01*
X158998773Y-65570196D01*
X158974505Y-65573796D01*
X158950001Y-65575000D01*
X158049999Y-65575000D01*
X158025495Y-65573796D01*
X158001227Y-65570196D01*
X157977428Y-65564235D01*
X157954329Y-65555970D01*
X157932150Y-65545480D01*
X157911107Y-65532868D01*
X157891401Y-65518253D01*
X157873223Y-65501777D01*
X157856747Y-65483599D01*
X157842132Y-65463893D01*
X157829520Y-65442850D01*
X157819030Y-65420671D01*
X157810765Y-65397572D01*
X157804804Y-65373773D01*
X157801204Y-65349505D01*
X157800000Y-65325001D01*
X157800000Y-64674999D01*
X157801204Y-64650495D01*
X157804804Y-64626227D01*
X157810765Y-64602428D01*
X157819030Y-64579329D01*
X157829520Y-64557150D01*
X157842132Y-64536107D01*
X157856747Y-64516401D01*
X157873223Y-64498223D01*
X157891401Y-64481747D01*
X157911107Y-64467132D01*
X157932150Y-64454520D01*
X157954329Y-64444030D01*
X157977428Y-64435765D01*
X158001227Y-64429804D01*
X158025495Y-64426204D01*
X158049999Y-64425000D01*
X158950001Y-64425000D01*
X158974505Y-64426204D01*
X158974505Y-64426204D01*
G37*
D14*
X158500000Y-65000000D03*
G04 #@! TD*
D13*
G04 #@! TO.C,C2*
G36*
X158349505Y-80801204D02*
X158373773Y-80804804D01*
X158397572Y-80810765D01*
X158420671Y-80819030D01*
X158442850Y-80829520D01*
X158463893Y-80842132D01*
X158483599Y-80856747D01*
X158501777Y-80873223D01*
X158518253Y-80891401D01*
X158532868Y-80911107D01*
X158545480Y-80932150D01*
X158555970Y-80954329D01*
X158564235Y-80977428D01*
X158570196Y-81001227D01*
X158573796Y-81025495D01*
X158575000Y-81049999D01*
X158575000Y-81950001D01*
X158573796Y-81974505D01*
X158570196Y-81998773D01*
X158564235Y-82022572D01*
X158555970Y-82045671D01*
X158545480Y-82067850D01*
X158532868Y-82088893D01*
X158518253Y-82108599D01*
X158501777Y-82126777D01*
X158483599Y-82143253D01*
X158463893Y-82157868D01*
X158442850Y-82170480D01*
X158420671Y-82180970D01*
X158397572Y-82189235D01*
X158373773Y-82195196D01*
X158349505Y-82198796D01*
X158325001Y-82200000D01*
X157674999Y-82200000D01*
X157650495Y-82198796D01*
X157626227Y-82195196D01*
X157602428Y-82189235D01*
X157579329Y-82180970D01*
X157557150Y-82170480D01*
X157536107Y-82157868D01*
X157516401Y-82143253D01*
X157498223Y-82126777D01*
X157481747Y-82108599D01*
X157467132Y-82088893D01*
X157454520Y-82067850D01*
X157444030Y-82045671D01*
X157435765Y-82022572D01*
X157429804Y-81998773D01*
X157426204Y-81974505D01*
X157425000Y-81950001D01*
X157425000Y-81049999D01*
X157426204Y-81025495D01*
X157429804Y-81001227D01*
X157435765Y-80977428D01*
X157444030Y-80954329D01*
X157454520Y-80932150D01*
X157467132Y-80911107D01*
X157481747Y-80891401D01*
X157498223Y-80873223D01*
X157516401Y-80856747D01*
X157536107Y-80842132D01*
X157557150Y-80829520D01*
X157579329Y-80819030D01*
X157602428Y-80810765D01*
X157626227Y-80804804D01*
X157650495Y-80801204D01*
X157674999Y-80800000D01*
X158325001Y-80800000D01*
X158349505Y-80801204D01*
X158349505Y-80801204D01*
G37*
D14*
X158000000Y-81500000D03*
D13*
G36*
X156299505Y-80801204D02*
X156323773Y-80804804D01*
X156347572Y-80810765D01*
X156370671Y-80819030D01*
X156392850Y-80829520D01*
X156413893Y-80842132D01*
X156433599Y-80856747D01*
X156451777Y-80873223D01*
X156468253Y-80891401D01*
X156482868Y-80911107D01*
X156495480Y-80932150D01*
X156505970Y-80954329D01*
X156514235Y-80977428D01*
X156520196Y-81001227D01*
X156523796Y-81025495D01*
X156525000Y-81049999D01*
X156525000Y-81950001D01*
X156523796Y-81974505D01*
X156520196Y-81998773D01*
X156514235Y-82022572D01*
X156505970Y-82045671D01*
X156495480Y-82067850D01*
X156482868Y-82088893D01*
X156468253Y-82108599D01*
X156451777Y-82126777D01*
X156433599Y-82143253D01*
X156413893Y-82157868D01*
X156392850Y-82170480D01*
X156370671Y-82180970D01*
X156347572Y-82189235D01*
X156323773Y-82195196D01*
X156299505Y-82198796D01*
X156275001Y-82200000D01*
X155624999Y-82200000D01*
X155600495Y-82198796D01*
X155576227Y-82195196D01*
X155552428Y-82189235D01*
X155529329Y-82180970D01*
X155507150Y-82170480D01*
X155486107Y-82157868D01*
X155466401Y-82143253D01*
X155448223Y-82126777D01*
X155431747Y-82108599D01*
X155417132Y-82088893D01*
X155404520Y-82067850D01*
X155394030Y-82045671D01*
X155385765Y-82022572D01*
X155379804Y-81998773D01*
X155376204Y-81974505D01*
X155375000Y-81950001D01*
X155375000Y-81049999D01*
X155376204Y-81025495D01*
X155379804Y-81001227D01*
X155385765Y-80977428D01*
X155394030Y-80954329D01*
X155404520Y-80932150D01*
X155417132Y-80911107D01*
X155431747Y-80891401D01*
X155448223Y-80873223D01*
X155466401Y-80856747D01*
X155486107Y-80842132D01*
X155507150Y-80829520D01*
X155529329Y-80819030D01*
X155552428Y-80810765D01*
X155576227Y-80804804D01*
X155600495Y-80801204D01*
X155624999Y-80800000D01*
X156275001Y-80800000D01*
X156299505Y-80801204D01*
X156299505Y-80801204D01*
G37*
D14*
X155950000Y-81500000D03*
G04 #@! TD*
D13*
G04 #@! TO.C,C3*
G36*
X155474505Y-72426204D02*
X155498773Y-72429804D01*
X155522572Y-72435765D01*
X155545671Y-72444030D01*
X155567850Y-72454520D01*
X155588893Y-72467132D01*
X155608599Y-72481747D01*
X155626777Y-72498223D01*
X155643253Y-72516401D01*
X155657868Y-72536107D01*
X155670480Y-72557150D01*
X155680970Y-72579329D01*
X155689235Y-72602428D01*
X155695196Y-72626227D01*
X155698796Y-72650495D01*
X155700000Y-72674999D01*
X155700000Y-73325001D01*
X155698796Y-73349505D01*
X155695196Y-73373773D01*
X155689235Y-73397572D01*
X155680970Y-73420671D01*
X155670480Y-73442850D01*
X155657868Y-73463893D01*
X155643253Y-73483599D01*
X155626777Y-73501777D01*
X155608599Y-73518253D01*
X155588893Y-73532868D01*
X155567850Y-73545480D01*
X155545671Y-73555970D01*
X155522572Y-73564235D01*
X155498773Y-73570196D01*
X155474505Y-73573796D01*
X155450001Y-73575000D01*
X154549999Y-73575000D01*
X154525495Y-73573796D01*
X154501227Y-73570196D01*
X154477428Y-73564235D01*
X154454329Y-73555970D01*
X154432150Y-73545480D01*
X154411107Y-73532868D01*
X154391401Y-73518253D01*
X154373223Y-73501777D01*
X154356747Y-73483599D01*
X154342132Y-73463893D01*
X154329520Y-73442850D01*
X154319030Y-73420671D01*
X154310765Y-73397572D01*
X154304804Y-73373773D01*
X154301204Y-73349505D01*
X154300000Y-73325001D01*
X154300000Y-72674999D01*
X154301204Y-72650495D01*
X154304804Y-72626227D01*
X154310765Y-72602428D01*
X154319030Y-72579329D01*
X154329520Y-72557150D01*
X154342132Y-72536107D01*
X154356747Y-72516401D01*
X154373223Y-72498223D01*
X154391401Y-72481747D01*
X154411107Y-72467132D01*
X154432150Y-72454520D01*
X154454329Y-72444030D01*
X154477428Y-72435765D01*
X154501227Y-72429804D01*
X154525495Y-72426204D01*
X154549999Y-72425000D01*
X155450001Y-72425000D01*
X155474505Y-72426204D01*
X155474505Y-72426204D01*
G37*
D14*
X155000000Y-73000000D03*
D13*
G36*
X155474505Y-74476204D02*
X155498773Y-74479804D01*
X155522572Y-74485765D01*
X155545671Y-74494030D01*
X155567850Y-74504520D01*
X155588893Y-74517132D01*
X155608599Y-74531747D01*
X155626777Y-74548223D01*
X155643253Y-74566401D01*
X155657868Y-74586107D01*
X155670480Y-74607150D01*
X155680970Y-74629329D01*
X155689235Y-74652428D01*
X155695196Y-74676227D01*
X155698796Y-74700495D01*
X155700000Y-74724999D01*
X155700000Y-75375001D01*
X155698796Y-75399505D01*
X155695196Y-75423773D01*
X155689235Y-75447572D01*
X155680970Y-75470671D01*
X155670480Y-75492850D01*
X155657868Y-75513893D01*
X155643253Y-75533599D01*
X155626777Y-75551777D01*
X155608599Y-75568253D01*
X155588893Y-75582868D01*
X155567850Y-75595480D01*
X155545671Y-75605970D01*
X155522572Y-75614235D01*
X155498773Y-75620196D01*
X155474505Y-75623796D01*
X155450001Y-75625000D01*
X154549999Y-75625000D01*
X154525495Y-75623796D01*
X154501227Y-75620196D01*
X154477428Y-75614235D01*
X154454329Y-75605970D01*
X154432150Y-75595480D01*
X154411107Y-75582868D01*
X154391401Y-75568253D01*
X154373223Y-75551777D01*
X154356747Y-75533599D01*
X154342132Y-75513893D01*
X154329520Y-75492850D01*
X154319030Y-75470671D01*
X154310765Y-75447572D01*
X154304804Y-75423773D01*
X154301204Y-75399505D01*
X154300000Y-75375001D01*
X154300000Y-74724999D01*
X154301204Y-74700495D01*
X154304804Y-74676227D01*
X154310765Y-74652428D01*
X154319030Y-74629329D01*
X154329520Y-74607150D01*
X154342132Y-74586107D01*
X154356747Y-74566401D01*
X154373223Y-74548223D01*
X154391401Y-74531747D01*
X154411107Y-74517132D01*
X154432150Y-74504520D01*
X154454329Y-74494030D01*
X154477428Y-74485765D01*
X154501227Y-74479804D01*
X154525495Y-74476204D01*
X154549999Y-74475000D01*
X155450001Y-74475000D01*
X155474505Y-74476204D01*
X155474505Y-74476204D01*
G37*
D14*
X155000000Y-75050000D03*
G04 #@! TD*
D13*
G04 #@! TO.C,C4*
G36*
X165224505Y-84476204D02*
X165248773Y-84479804D01*
X165272572Y-84485765D01*
X165295671Y-84494030D01*
X165317850Y-84504520D01*
X165338893Y-84517132D01*
X165358599Y-84531747D01*
X165376777Y-84548223D01*
X165393253Y-84566401D01*
X165407868Y-84586107D01*
X165420480Y-84607150D01*
X165430970Y-84629329D01*
X165439235Y-84652428D01*
X165445196Y-84676227D01*
X165448796Y-84700495D01*
X165450000Y-84724999D01*
X165450000Y-85375001D01*
X165448796Y-85399505D01*
X165445196Y-85423773D01*
X165439235Y-85447572D01*
X165430970Y-85470671D01*
X165420480Y-85492850D01*
X165407868Y-85513893D01*
X165393253Y-85533599D01*
X165376777Y-85551777D01*
X165358599Y-85568253D01*
X165338893Y-85582868D01*
X165317850Y-85595480D01*
X165295671Y-85605970D01*
X165272572Y-85614235D01*
X165248773Y-85620196D01*
X165224505Y-85623796D01*
X165200001Y-85625000D01*
X164299999Y-85625000D01*
X164275495Y-85623796D01*
X164251227Y-85620196D01*
X164227428Y-85614235D01*
X164204329Y-85605970D01*
X164182150Y-85595480D01*
X164161107Y-85582868D01*
X164141401Y-85568253D01*
X164123223Y-85551777D01*
X164106747Y-85533599D01*
X164092132Y-85513893D01*
X164079520Y-85492850D01*
X164069030Y-85470671D01*
X164060765Y-85447572D01*
X164054804Y-85423773D01*
X164051204Y-85399505D01*
X164050000Y-85375001D01*
X164050000Y-84724999D01*
X164051204Y-84700495D01*
X164054804Y-84676227D01*
X164060765Y-84652428D01*
X164069030Y-84629329D01*
X164079520Y-84607150D01*
X164092132Y-84586107D01*
X164106747Y-84566401D01*
X164123223Y-84548223D01*
X164141401Y-84531747D01*
X164161107Y-84517132D01*
X164182150Y-84504520D01*
X164204329Y-84494030D01*
X164227428Y-84485765D01*
X164251227Y-84479804D01*
X164275495Y-84476204D01*
X164299999Y-84475000D01*
X165200001Y-84475000D01*
X165224505Y-84476204D01*
X165224505Y-84476204D01*
G37*
D14*
X164750000Y-85050000D03*
D13*
G36*
X165224505Y-82426204D02*
X165248773Y-82429804D01*
X165272572Y-82435765D01*
X165295671Y-82444030D01*
X165317850Y-82454520D01*
X165338893Y-82467132D01*
X165358599Y-82481747D01*
X165376777Y-82498223D01*
X165393253Y-82516401D01*
X165407868Y-82536107D01*
X165420480Y-82557150D01*
X165430970Y-82579329D01*
X165439235Y-82602428D01*
X165445196Y-82626227D01*
X165448796Y-82650495D01*
X165450000Y-82674999D01*
X165450000Y-83325001D01*
X165448796Y-83349505D01*
X165445196Y-83373773D01*
X165439235Y-83397572D01*
X165430970Y-83420671D01*
X165420480Y-83442850D01*
X165407868Y-83463893D01*
X165393253Y-83483599D01*
X165376777Y-83501777D01*
X165358599Y-83518253D01*
X165338893Y-83532868D01*
X165317850Y-83545480D01*
X165295671Y-83555970D01*
X165272572Y-83564235D01*
X165248773Y-83570196D01*
X165224505Y-83573796D01*
X165200001Y-83575000D01*
X164299999Y-83575000D01*
X164275495Y-83573796D01*
X164251227Y-83570196D01*
X164227428Y-83564235D01*
X164204329Y-83555970D01*
X164182150Y-83545480D01*
X164161107Y-83532868D01*
X164141401Y-83518253D01*
X164123223Y-83501777D01*
X164106747Y-83483599D01*
X164092132Y-83463893D01*
X164079520Y-83442850D01*
X164069030Y-83420671D01*
X164060765Y-83397572D01*
X164054804Y-83373773D01*
X164051204Y-83349505D01*
X164050000Y-83325001D01*
X164050000Y-82674999D01*
X164051204Y-82650495D01*
X164054804Y-82626227D01*
X164060765Y-82602428D01*
X164069030Y-82579329D01*
X164079520Y-82557150D01*
X164092132Y-82536107D01*
X164106747Y-82516401D01*
X164123223Y-82498223D01*
X164141401Y-82481747D01*
X164161107Y-82467132D01*
X164182150Y-82454520D01*
X164204329Y-82444030D01*
X164227428Y-82435765D01*
X164251227Y-82429804D01*
X164275495Y-82426204D01*
X164299999Y-82425000D01*
X165200001Y-82425000D01*
X165224505Y-82426204D01*
X165224505Y-82426204D01*
G37*
D14*
X164750000Y-83000000D03*
G04 #@! TD*
D13*
G04 #@! TO.C,C5*
G36*
X151474505Y-66476204D02*
X151498773Y-66479804D01*
X151522572Y-66485765D01*
X151545671Y-66494030D01*
X151567850Y-66504520D01*
X151588893Y-66517132D01*
X151608599Y-66531747D01*
X151626777Y-66548223D01*
X151643253Y-66566401D01*
X151657868Y-66586107D01*
X151670480Y-66607150D01*
X151680970Y-66629329D01*
X151689235Y-66652428D01*
X151695196Y-66676227D01*
X151698796Y-66700495D01*
X151700000Y-66724999D01*
X151700000Y-67375001D01*
X151698796Y-67399505D01*
X151695196Y-67423773D01*
X151689235Y-67447572D01*
X151680970Y-67470671D01*
X151670480Y-67492850D01*
X151657868Y-67513893D01*
X151643253Y-67533599D01*
X151626777Y-67551777D01*
X151608599Y-67568253D01*
X151588893Y-67582868D01*
X151567850Y-67595480D01*
X151545671Y-67605970D01*
X151522572Y-67614235D01*
X151498773Y-67620196D01*
X151474505Y-67623796D01*
X151450001Y-67625000D01*
X150549999Y-67625000D01*
X150525495Y-67623796D01*
X150501227Y-67620196D01*
X150477428Y-67614235D01*
X150454329Y-67605970D01*
X150432150Y-67595480D01*
X150411107Y-67582868D01*
X150391401Y-67568253D01*
X150373223Y-67551777D01*
X150356747Y-67533599D01*
X150342132Y-67513893D01*
X150329520Y-67492850D01*
X150319030Y-67470671D01*
X150310765Y-67447572D01*
X150304804Y-67423773D01*
X150301204Y-67399505D01*
X150300000Y-67375001D01*
X150300000Y-66724999D01*
X150301204Y-66700495D01*
X150304804Y-66676227D01*
X150310765Y-66652428D01*
X150319030Y-66629329D01*
X150329520Y-66607150D01*
X150342132Y-66586107D01*
X150356747Y-66566401D01*
X150373223Y-66548223D01*
X150391401Y-66531747D01*
X150411107Y-66517132D01*
X150432150Y-66504520D01*
X150454329Y-66494030D01*
X150477428Y-66485765D01*
X150501227Y-66479804D01*
X150525495Y-66476204D01*
X150549999Y-66475000D01*
X151450001Y-66475000D01*
X151474505Y-66476204D01*
X151474505Y-66476204D01*
G37*
D14*
X151000000Y-67050000D03*
D13*
G36*
X151474505Y-64426204D02*
X151498773Y-64429804D01*
X151522572Y-64435765D01*
X151545671Y-64444030D01*
X151567850Y-64454520D01*
X151588893Y-64467132D01*
X151608599Y-64481747D01*
X151626777Y-64498223D01*
X151643253Y-64516401D01*
X151657868Y-64536107D01*
X151670480Y-64557150D01*
X151680970Y-64579329D01*
X151689235Y-64602428D01*
X151695196Y-64626227D01*
X151698796Y-64650495D01*
X151700000Y-64674999D01*
X151700000Y-65325001D01*
X151698796Y-65349505D01*
X151695196Y-65373773D01*
X151689235Y-65397572D01*
X151680970Y-65420671D01*
X151670480Y-65442850D01*
X151657868Y-65463893D01*
X151643253Y-65483599D01*
X151626777Y-65501777D01*
X151608599Y-65518253D01*
X151588893Y-65532868D01*
X151567850Y-65545480D01*
X151545671Y-65555970D01*
X151522572Y-65564235D01*
X151498773Y-65570196D01*
X151474505Y-65573796D01*
X151450001Y-65575000D01*
X150549999Y-65575000D01*
X150525495Y-65573796D01*
X150501227Y-65570196D01*
X150477428Y-65564235D01*
X150454329Y-65555970D01*
X150432150Y-65545480D01*
X150411107Y-65532868D01*
X150391401Y-65518253D01*
X150373223Y-65501777D01*
X150356747Y-65483599D01*
X150342132Y-65463893D01*
X150329520Y-65442850D01*
X150319030Y-65420671D01*
X150310765Y-65397572D01*
X150304804Y-65373773D01*
X150301204Y-65349505D01*
X150300000Y-65325001D01*
X150300000Y-64674999D01*
X150301204Y-64650495D01*
X150304804Y-64626227D01*
X150310765Y-64602428D01*
X150319030Y-64579329D01*
X150329520Y-64557150D01*
X150342132Y-64536107D01*
X150356747Y-64516401D01*
X150373223Y-64498223D01*
X150391401Y-64481747D01*
X150411107Y-64467132D01*
X150432150Y-64454520D01*
X150454329Y-64444030D01*
X150477428Y-64435765D01*
X150501227Y-64429804D01*
X150525495Y-64426204D01*
X150549999Y-64425000D01*
X151450001Y-64425000D01*
X151474505Y-64426204D01*
X151474505Y-64426204D01*
G37*
D14*
X151000000Y-65000000D03*
G04 #@! TD*
D13*
G04 #@! TO.C,C6*
G36*
X141974505Y-66491204D02*
X141998773Y-66494804D01*
X142022572Y-66500765D01*
X142045671Y-66509030D01*
X142067850Y-66519520D01*
X142088893Y-66532132D01*
X142108599Y-66546747D01*
X142126777Y-66563223D01*
X142143253Y-66581401D01*
X142157868Y-66601107D01*
X142170480Y-66622150D01*
X142180970Y-66644329D01*
X142189235Y-66667428D01*
X142195196Y-66691227D01*
X142198796Y-66715495D01*
X142200000Y-66739999D01*
X142200000Y-67390001D01*
X142198796Y-67414505D01*
X142195196Y-67438773D01*
X142189235Y-67462572D01*
X142180970Y-67485671D01*
X142170480Y-67507850D01*
X142157868Y-67528893D01*
X142143253Y-67548599D01*
X142126777Y-67566777D01*
X142108599Y-67583253D01*
X142088893Y-67597868D01*
X142067850Y-67610480D01*
X142045671Y-67620970D01*
X142022572Y-67629235D01*
X141998773Y-67635196D01*
X141974505Y-67638796D01*
X141950001Y-67640000D01*
X141049999Y-67640000D01*
X141025495Y-67638796D01*
X141001227Y-67635196D01*
X140977428Y-67629235D01*
X140954329Y-67620970D01*
X140932150Y-67610480D01*
X140911107Y-67597868D01*
X140891401Y-67583253D01*
X140873223Y-67566777D01*
X140856747Y-67548599D01*
X140842132Y-67528893D01*
X140829520Y-67507850D01*
X140819030Y-67485671D01*
X140810765Y-67462572D01*
X140804804Y-67438773D01*
X140801204Y-67414505D01*
X140800000Y-67390001D01*
X140800000Y-66739999D01*
X140801204Y-66715495D01*
X140804804Y-66691227D01*
X140810765Y-66667428D01*
X140819030Y-66644329D01*
X140829520Y-66622150D01*
X140842132Y-66601107D01*
X140856747Y-66581401D01*
X140873223Y-66563223D01*
X140891401Y-66546747D01*
X140911107Y-66532132D01*
X140932150Y-66519520D01*
X140954329Y-66509030D01*
X140977428Y-66500765D01*
X141001227Y-66494804D01*
X141025495Y-66491204D01*
X141049999Y-66490000D01*
X141950001Y-66490000D01*
X141974505Y-66491204D01*
X141974505Y-66491204D01*
G37*
D14*
X141500000Y-67065000D03*
D13*
G36*
X141974505Y-64441204D02*
X141998773Y-64444804D01*
X142022572Y-64450765D01*
X142045671Y-64459030D01*
X142067850Y-64469520D01*
X142088893Y-64482132D01*
X142108599Y-64496747D01*
X142126777Y-64513223D01*
X142143253Y-64531401D01*
X142157868Y-64551107D01*
X142170480Y-64572150D01*
X142180970Y-64594329D01*
X142189235Y-64617428D01*
X142195196Y-64641227D01*
X142198796Y-64665495D01*
X142200000Y-64689999D01*
X142200000Y-65340001D01*
X142198796Y-65364505D01*
X142195196Y-65388773D01*
X142189235Y-65412572D01*
X142180970Y-65435671D01*
X142170480Y-65457850D01*
X142157868Y-65478893D01*
X142143253Y-65498599D01*
X142126777Y-65516777D01*
X142108599Y-65533253D01*
X142088893Y-65547868D01*
X142067850Y-65560480D01*
X142045671Y-65570970D01*
X142022572Y-65579235D01*
X141998773Y-65585196D01*
X141974505Y-65588796D01*
X141950001Y-65590000D01*
X141049999Y-65590000D01*
X141025495Y-65588796D01*
X141001227Y-65585196D01*
X140977428Y-65579235D01*
X140954329Y-65570970D01*
X140932150Y-65560480D01*
X140911107Y-65547868D01*
X140891401Y-65533253D01*
X140873223Y-65516777D01*
X140856747Y-65498599D01*
X140842132Y-65478893D01*
X140829520Y-65457850D01*
X140819030Y-65435671D01*
X140810765Y-65412572D01*
X140804804Y-65388773D01*
X140801204Y-65364505D01*
X140800000Y-65340001D01*
X140800000Y-64689999D01*
X140801204Y-64665495D01*
X140804804Y-64641227D01*
X140810765Y-64617428D01*
X140819030Y-64594329D01*
X140829520Y-64572150D01*
X140842132Y-64551107D01*
X140856747Y-64531401D01*
X140873223Y-64513223D01*
X140891401Y-64496747D01*
X140911107Y-64482132D01*
X140932150Y-64469520D01*
X140954329Y-64459030D01*
X140977428Y-64450765D01*
X141001227Y-64444804D01*
X141025495Y-64441204D01*
X141049999Y-64440000D01*
X141950001Y-64440000D01*
X141974505Y-64441204D01*
X141974505Y-64441204D01*
G37*
D14*
X141500000Y-65015000D03*
G04 #@! TD*
D13*
G04 #@! TO.C,C7*
G36*
X164724505Y-66491204D02*
X164748773Y-66494804D01*
X164772572Y-66500765D01*
X164795671Y-66509030D01*
X164817850Y-66519520D01*
X164838893Y-66532132D01*
X164858599Y-66546747D01*
X164876777Y-66563223D01*
X164893253Y-66581401D01*
X164907868Y-66601107D01*
X164920480Y-66622150D01*
X164930970Y-66644329D01*
X164939235Y-66667428D01*
X164945196Y-66691227D01*
X164948796Y-66715495D01*
X164950000Y-66739999D01*
X164950000Y-67390001D01*
X164948796Y-67414505D01*
X164945196Y-67438773D01*
X164939235Y-67462572D01*
X164930970Y-67485671D01*
X164920480Y-67507850D01*
X164907868Y-67528893D01*
X164893253Y-67548599D01*
X164876777Y-67566777D01*
X164858599Y-67583253D01*
X164838893Y-67597868D01*
X164817850Y-67610480D01*
X164795671Y-67620970D01*
X164772572Y-67629235D01*
X164748773Y-67635196D01*
X164724505Y-67638796D01*
X164700001Y-67640000D01*
X163799999Y-67640000D01*
X163775495Y-67638796D01*
X163751227Y-67635196D01*
X163727428Y-67629235D01*
X163704329Y-67620970D01*
X163682150Y-67610480D01*
X163661107Y-67597868D01*
X163641401Y-67583253D01*
X163623223Y-67566777D01*
X163606747Y-67548599D01*
X163592132Y-67528893D01*
X163579520Y-67507850D01*
X163569030Y-67485671D01*
X163560765Y-67462572D01*
X163554804Y-67438773D01*
X163551204Y-67414505D01*
X163550000Y-67390001D01*
X163550000Y-66739999D01*
X163551204Y-66715495D01*
X163554804Y-66691227D01*
X163560765Y-66667428D01*
X163569030Y-66644329D01*
X163579520Y-66622150D01*
X163592132Y-66601107D01*
X163606747Y-66581401D01*
X163623223Y-66563223D01*
X163641401Y-66546747D01*
X163661107Y-66532132D01*
X163682150Y-66519520D01*
X163704329Y-66509030D01*
X163727428Y-66500765D01*
X163751227Y-66494804D01*
X163775495Y-66491204D01*
X163799999Y-66490000D01*
X164700001Y-66490000D01*
X164724505Y-66491204D01*
X164724505Y-66491204D01*
G37*
D14*
X164250000Y-67065000D03*
D13*
G36*
X164724505Y-64441204D02*
X164748773Y-64444804D01*
X164772572Y-64450765D01*
X164795671Y-64459030D01*
X164817850Y-64469520D01*
X164838893Y-64482132D01*
X164858599Y-64496747D01*
X164876777Y-64513223D01*
X164893253Y-64531401D01*
X164907868Y-64551107D01*
X164920480Y-64572150D01*
X164930970Y-64594329D01*
X164939235Y-64617428D01*
X164945196Y-64641227D01*
X164948796Y-64665495D01*
X164950000Y-64689999D01*
X164950000Y-65340001D01*
X164948796Y-65364505D01*
X164945196Y-65388773D01*
X164939235Y-65412572D01*
X164930970Y-65435671D01*
X164920480Y-65457850D01*
X164907868Y-65478893D01*
X164893253Y-65498599D01*
X164876777Y-65516777D01*
X164858599Y-65533253D01*
X164838893Y-65547868D01*
X164817850Y-65560480D01*
X164795671Y-65570970D01*
X164772572Y-65579235D01*
X164748773Y-65585196D01*
X164724505Y-65588796D01*
X164700001Y-65590000D01*
X163799999Y-65590000D01*
X163775495Y-65588796D01*
X163751227Y-65585196D01*
X163727428Y-65579235D01*
X163704329Y-65570970D01*
X163682150Y-65560480D01*
X163661107Y-65547868D01*
X163641401Y-65533253D01*
X163623223Y-65516777D01*
X163606747Y-65498599D01*
X163592132Y-65478893D01*
X163579520Y-65457850D01*
X163569030Y-65435671D01*
X163560765Y-65412572D01*
X163554804Y-65388773D01*
X163551204Y-65364505D01*
X163550000Y-65340001D01*
X163550000Y-64689999D01*
X163551204Y-64665495D01*
X163554804Y-64641227D01*
X163560765Y-64617428D01*
X163569030Y-64594329D01*
X163579520Y-64572150D01*
X163592132Y-64551107D01*
X163606747Y-64531401D01*
X163623223Y-64513223D01*
X163641401Y-64496747D01*
X163661107Y-64482132D01*
X163682150Y-64469520D01*
X163704329Y-64459030D01*
X163727428Y-64450765D01*
X163751227Y-64444804D01*
X163775495Y-64441204D01*
X163799999Y-64440000D01*
X164700001Y-64440000D01*
X164724505Y-64441204D01*
X164724505Y-64441204D01*
G37*
D14*
X164250000Y-65015000D03*
G04 #@! TD*
D13*
G04 #@! TO.C,C8*
G36*
X156474505Y-66426204D02*
X156498773Y-66429804D01*
X156522572Y-66435765D01*
X156545671Y-66444030D01*
X156567850Y-66454520D01*
X156588893Y-66467132D01*
X156608599Y-66481747D01*
X156626777Y-66498223D01*
X156643253Y-66516401D01*
X156657868Y-66536107D01*
X156670480Y-66557150D01*
X156680970Y-66579329D01*
X156689235Y-66602428D01*
X156695196Y-66626227D01*
X156698796Y-66650495D01*
X156700000Y-66674999D01*
X156700000Y-67325001D01*
X156698796Y-67349505D01*
X156695196Y-67373773D01*
X156689235Y-67397572D01*
X156680970Y-67420671D01*
X156670480Y-67442850D01*
X156657868Y-67463893D01*
X156643253Y-67483599D01*
X156626777Y-67501777D01*
X156608599Y-67518253D01*
X156588893Y-67532868D01*
X156567850Y-67545480D01*
X156545671Y-67555970D01*
X156522572Y-67564235D01*
X156498773Y-67570196D01*
X156474505Y-67573796D01*
X156450001Y-67575000D01*
X155549999Y-67575000D01*
X155525495Y-67573796D01*
X155501227Y-67570196D01*
X155477428Y-67564235D01*
X155454329Y-67555970D01*
X155432150Y-67545480D01*
X155411107Y-67532868D01*
X155391401Y-67518253D01*
X155373223Y-67501777D01*
X155356747Y-67483599D01*
X155342132Y-67463893D01*
X155329520Y-67442850D01*
X155319030Y-67420671D01*
X155310765Y-67397572D01*
X155304804Y-67373773D01*
X155301204Y-67349505D01*
X155300000Y-67325001D01*
X155300000Y-66674999D01*
X155301204Y-66650495D01*
X155304804Y-66626227D01*
X155310765Y-66602428D01*
X155319030Y-66579329D01*
X155329520Y-66557150D01*
X155342132Y-66536107D01*
X155356747Y-66516401D01*
X155373223Y-66498223D01*
X155391401Y-66481747D01*
X155411107Y-66467132D01*
X155432150Y-66454520D01*
X155454329Y-66444030D01*
X155477428Y-66435765D01*
X155501227Y-66429804D01*
X155525495Y-66426204D01*
X155549999Y-66425000D01*
X156450001Y-66425000D01*
X156474505Y-66426204D01*
X156474505Y-66426204D01*
G37*
D14*
X156000000Y-67000000D03*
D13*
G36*
X156474505Y-64376204D02*
X156498773Y-64379804D01*
X156522572Y-64385765D01*
X156545671Y-64394030D01*
X156567850Y-64404520D01*
X156588893Y-64417132D01*
X156608599Y-64431747D01*
X156626777Y-64448223D01*
X156643253Y-64466401D01*
X156657868Y-64486107D01*
X156670480Y-64507150D01*
X156680970Y-64529329D01*
X156689235Y-64552428D01*
X156695196Y-64576227D01*
X156698796Y-64600495D01*
X156700000Y-64624999D01*
X156700000Y-65275001D01*
X156698796Y-65299505D01*
X156695196Y-65323773D01*
X156689235Y-65347572D01*
X156680970Y-65370671D01*
X156670480Y-65392850D01*
X156657868Y-65413893D01*
X156643253Y-65433599D01*
X156626777Y-65451777D01*
X156608599Y-65468253D01*
X156588893Y-65482868D01*
X156567850Y-65495480D01*
X156545671Y-65505970D01*
X156522572Y-65514235D01*
X156498773Y-65520196D01*
X156474505Y-65523796D01*
X156450001Y-65525000D01*
X155549999Y-65525000D01*
X155525495Y-65523796D01*
X155501227Y-65520196D01*
X155477428Y-65514235D01*
X155454329Y-65505970D01*
X155432150Y-65495480D01*
X155411107Y-65482868D01*
X155391401Y-65468253D01*
X155373223Y-65451777D01*
X155356747Y-65433599D01*
X155342132Y-65413893D01*
X155329520Y-65392850D01*
X155319030Y-65370671D01*
X155310765Y-65347572D01*
X155304804Y-65323773D01*
X155301204Y-65299505D01*
X155300000Y-65275001D01*
X155300000Y-64624999D01*
X155301204Y-64600495D01*
X155304804Y-64576227D01*
X155310765Y-64552428D01*
X155319030Y-64529329D01*
X155329520Y-64507150D01*
X155342132Y-64486107D01*
X155356747Y-64466401D01*
X155373223Y-64448223D01*
X155391401Y-64431747D01*
X155411107Y-64417132D01*
X155432150Y-64404520D01*
X155454329Y-64394030D01*
X155477428Y-64385765D01*
X155501227Y-64379804D01*
X155525495Y-64376204D01*
X155549999Y-64375000D01*
X156450001Y-64375000D01*
X156474505Y-64376204D01*
X156474505Y-64376204D01*
G37*
D14*
X156000000Y-64950000D03*
G04 #@! TD*
D13*
G04 #@! TO.C,C9*
G36*
X144474505Y-50476204D02*
X144498773Y-50479804D01*
X144522572Y-50485765D01*
X144545671Y-50494030D01*
X144567850Y-50504520D01*
X144588893Y-50517132D01*
X144608599Y-50531747D01*
X144626777Y-50548223D01*
X144643253Y-50566401D01*
X144657868Y-50586107D01*
X144670480Y-50607150D01*
X144680970Y-50629329D01*
X144689235Y-50652428D01*
X144695196Y-50676227D01*
X144698796Y-50700495D01*
X144700000Y-50724999D01*
X144700000Y-51375001D01*
X144698796Y-51399505D01*
X144695196Y-51423773D01*
X144689235Y-51447572D01*
X144680970Y-51470671D01*
X144670480Y-51492850D01*
X144657868Y-51513893D01*
X144643253Y-51533599D01*
X144626777Y-51551777D01*
X144608599Y-51568253D01*
X144588893Y-51582868D01*
X144567850Y-51595480D01*
X144545671Y-51605970D01*
X144522572Y-51614235D01*
X144498773Y-51620196D01*
X144474505Y-51623796D01*
X144450001Y-51625000D01*
X143549999Y-51625000D01*
X143525495Y-51623796D01*
X143501227Y-51620196D01*
X143477428Y-51614235D01*
X143454329Y-51605970D01*
X143432150Y-51595480D01*
X143411107Y-51582868D01*
X143391401Y-51568253D01*
X143373223Y-51551777D01*
X143356747Y-51533599D01*
X143342132Y-51513893D01*
X143329520Y-51492850D01*
X143319030Y-51470671D01*
X143310765Y-51447572D01*
X143304804Y-51423773D01*
X143301204Y-51399505D01*
X143300000Y-51375001D01*
X143300000Y-50724999D01*
X143301204Y-50700495D01*
X143304804Y-50676227D01*
X143310765Y-50652428D01*
X143319030Y-50629329D01*
X143329520Y-50607150D01*
X143342132Y-50586107D01*
X143356747Y-50566401D01*
X143373223Y-50548223D01*
X143391401Y-50531747D01*
X143411107Y-50517132D01*
X143432150Y-50504520D01*
X143454329Y-50494030D01*
X143477428Y-50485765D01*
X143501227Y-50479804D01*
X143525495Y-50476204D01*
X143549999Y-50475000D01*
X144450001Y-50475000D01*
X144474505Y-50476204D01*
X144474505Y-50476204D01*
G37*
D14*
X144000000Y-51050000D03*
D13*
G36*
X144474505Y-48426204D02*
X144498773Y-48429804D01*
X144522572Y-48435765D01*
X144545671Y-48444030D01*
X144567850Y-48454520D01*
X144588893Y-48467132D01*
X144608599Y-48481747D01*
X144626777Y-48498223D01*
X144643253Y-48516401D01*
X144657868Y-48536107D01*
X144670480Y-48557150D01*
X144680970Y-48579329D01*
X144689235Y-48602428D01*
X144695196Y-48626227D01*
X144698796Y-48650495D01*
X144700000Y-48674999D01*
X144700000Y-49325001D01*
X144698796Y-49349505D01*
X144695196Y-49373773D01*
X144689235Y-49397572D01*
X144680970Y-49420671D01*
X144670480Y-49442850D01*
X144657868Y-49463893D01*
X144643253Y-49483599D01*
X144626777Y-49501777D01*
X144608599Y-49518253D01*
X144588893Y-49532868D01*
X144567850Y-49545480D01*
X144545671Y-49555970D01*
X144522572Y-49564235D01*
X144498773Y-49570196D01*
X144474505Y-49573796D01*
X144450001Y-49575000D01*
X143549999Y-49575000D01*
X143525495Y-49573796D01*
X143501227Y-49570196D01*
X143477428Y-49564235D01*
X143454329Y-49555970D01*
X143432150Y-49545480D01*
X143411107Y-49532868D01*
X143391401Y-49518253D01*
X143373223Y-49501777D01*
X143356747Y-49483599D01*
X143342132Y-49463893D01*
X143329520Y-49442850D01*
X143319030Y-49420671D01*
X143310765Y-49397572D01*
X143304804Y-49373773D01*
X143301204Y-49349505D01*
X143300000Y-49325001D01*
X143300000Y-48674999D01*
X143301204Y-48650495D01*
X143304804Y-48626227D01*
X143310765Y-48602428D01*
X143319030Y-48579329D01*
X143329520Y-48557150D01*
X143342132Y-48536107D01*
X143356747Y-48516401D01*
X143373223Y-48498223D01*
X143391401Y-48481747D01*
X143411107Y-48467132D01*
X143432150Y-48454520D01*
X143454329Y-48444030D01*
X143477428Y-48435765D01*
X143501227Y-48429804D01*
X143525495Y-48426204D01*
X143549999Y-48425000D01*
X144450001Y-48425000D01*
X144474505Y-48426204D01*
X144474505Y-48426204D01*
G37*
D14*
X144000000Y-49000000D03*
G04 #@! TD*
D13*
G04 #@! TO.C,C10*
G36*
X162474505Y-66500204D02*
X162498773Y-66503804D01*
X162522572Y-66509765D01*
X162545671Y-66518030D01*
X162567850Y-66528520D01*
X162588893Y-66541132D01*
X162608599Y-66555747D01*
X162626777Y-66572223D01*
X162643253Y-66590401D01*
X162657868Y-66610107D01*
X162670480Y-66631150D01*
X162680970Y-66653329D01*
X162689235Y-66676428D01*
X162695196Y-66700227D01*
X162698796Y-66724495D01*
X162700000Y-66748999D01*
X162700000Y-67399001D01*
X162698796Y-67423505D01*
X162695196Y-67447773D01*
X162689235Y-67471572D01*
X162680970Y-67494671D01*
X162670480Y-67516850D01*
X162657868Y-67537893D01*
X162643253Y-67557599D01*
X162626777Y-67575777D01*
X162608599Y-67592253D01*
X162588893Y-67606868D01*
X162567850Y-67619480D01*
X162545671Y-67629970D01*
X162522572Y-67638235D01*
X162498773Y-67644196D01*
X162474505Y-67647796D01*
X162450001Y-67649000D01*
X161549999Y-67649000D01*
X161525495Y-67647796D01*
X161501227Y-67644196D01*
X161477428Y-67638235D01*
X161454329Y-67629970D01*
X161432150Y-67619480D01*
X161411107Y-67606868D01*
X161391401Y-67592253D01*
X161373223Y-67575777D01*
X161356747Y-67557599D01*
X161342132Y-67537893D01*
X161329520Y-67516850D01*
X161319030Y-67494671D01*
X161310765Y-67471572D01*
X161304804Y-67447773D01*
X161301204Y-67423505D01*
X161300000Y-67399001D01*
X161300000Y-66748999D01*
X161301204Y-66724495D01*
X161304804Y-66700227D01*
X161310765Y-66676428D01*
X161319030Y-66653329D01*
X161329520Y-66631150D01*
X161342132Y-66610107D01*
X161356747Y-66590401D01*
X161373223Y-66572223D01*
X161391401Y-66555747D01*
X161411107Y-66541132D01*
X161432150Y-66528520D01*
X161454329Y-66518030D01*
X161477428Y-66509765D01*
X161501227Y-66503804D01*
X161525495Y-66500204D01*
X161549999Y-66499000D01*
X162450001Y-66499000D01*
X162474505Y-66500204D01*
X162474505Y-66500204D01*
G37*
D14*
X162000000Y-67074000D03*
D13*
G36*
X162474505Y-64450204D02*
X162498773Y-64453804D01*
X162522572Y-64459765D01*
X162545671Y-64468030D01*
X162567850Y-64478520D01*
X162588893Y-64491132D01*
X162608599Y-64505747D01*
X162626777Y-64522223D01*
X162643253Y-64540401D01*
X162657868Y-64560107D01*
X162670480Y-64581150D01*
X162680970Y-64603329D01*
X162689235Y-64626428D01*
X162695196Y-64650227D01*
X162698796Y-64674495D01*
X162700000Y-64698999D01*
X162700000Y-65349001D01*
X162698796Y-65373505D01*
X162695196Y-65397773D01*
X162689235Y-65421572D01*
X162680970Y-65444671D01*
X162670480Y-65466850D01*
X162657868Y-65487893D01*
X162643253Y-65507599D01*
X162626777Y-65525777D01*
X162608599Y-65542253D01*
X162588893Y-65556868D01*
X162567850Y-65569480D01*
X162545671Y-65579970D01*
X162522572Y-65588235D01*
X162498773Y-65594196D01*
X162474505Y-65597796D01*
X162450001Y-65599000D01*
X161549999Y-65599000D01*
X161525495Y-65597796D01*
X161501227Y-65594196D01*
X161477428Y-65588235D01*
X161454329Y-65579970D01*
X161432150Y-65569480D01*
X161411107Y-65556868D01*
X161391401Y-65542253D01*
X161373223Y-65525777D01*
X161356747Y-65507599D01*
X161342132Y-65487893D01*
X161329520Y-65466850D01*
X161319030Y-65444671D01*
X161310765Y-65421572D01*
X161304804Y-65397773D01*
X161301204Y-65373505D01*
X161300000Y-65349001D01*
X161300000Y-64698999D01*
X161301204Y-64674495D01*
X161304804Y-64650227D01*
X161310765Y-64626428D01*
X161319030Y-64603329D01*
X161329520Y-64581150D01*
X161342132Y-64560107D01*
X161356747Y-64540401D01*
X161373223Y-64522223D01*
X161391401Y-64505747D01*
X161411107Y-64491132D01*
X161432150Y-64478520D01*
X161454329Y-64468030D01*
X161477428Y-64459765D01*
X161501227Y-64453804D01*
X161525495Y-64450204D01*
X161549999Y-64449000D01*
X162450001Y-64449000D01*
X162474505Y-64450204D01*
X162474505Y-64450204D01*
G37*
D14*
X162000000Y-65024000D03*
G04 #@! TD*
D13*
G04 #@! TO.C,C11*
G36*
X153974505Y-66476204D02*
X153998773Y-66479804D01*
X154022572Y-66485765D01*
X154045671Y-66494030D01*
X154067850Y-66504520D01*
X154088893Y-66517132D01*
X154108599Y-66531747D01*
X154126777Y-66548223D01*
X154143253Y-66566401D01*
X154157868Y-66586107D01*
X154170480Y-66607150D01*
X154180970Y-66629329D01*
X154189235Y-66652428D01*
X154195196Y-66676227D01*
X154198796Y-66700495D01*
X154200000Y-66724999D01*
X154200000Y-67375001D01*
X154198796Y-67399505D01*
X154195196Y-67423773D01*
X154189235Y-67447572D01*
X154180970Y-67470671D01*
X154170480Y-67492850D01*
X154157868Y-67513893D01*
X154143253Y-67533599D01*
X154126777Y-67551777D01*
X154108599Y-67568253D01*
X154088893Y-67582868D01*
X154067850Y-67595480D01*
X154045671Y-67605970D01*
X154022572Y-67614235D01*
X153998773Y-67620196D01*
X153974505Y-67623796D01*
X153950001Y-67625000D01*
X153049999Y-67625000D01*
X153025495Y-67623796D01*
X153001227Y-67620196D01*
X152977428Y-67614235D01*
X152954329Y-67605970D01*
X152932150Y-67595480D01*
X152911107Y-67582868D01*
X152891401Y-67568253D01*
X152873223Y-67551777D01*
X152856747Y-67533599D01*
X152842132Y-67513893D01*
X152829520Y-67492850D01*
X152819030Y-67470671D01*
X152810765Y-67447572D01*
X152804804Y-67423773D01*
X152801204Y-67399505D01*
X152800000Y-67375001D01*
X152800000Y-66724999D01*
X152801204Y-66700495D01*
X152804804Y-66676227D01*
X152810765Y-66652428D01*
X152819030Y-66629329D01*
X152829520Y-66607150D01*
X152842132Y-66586107D01*
X152856747Y-66566401D01*
X152873223Y-66548223D01*
X152891401Y-66531747D01*
X152911107Y-66517132D01*
X152932150Y-66504520D01*
X152954329Y-66494030D01*
X152977428Y-66485765D01*
X153001227Y-66479804D01*
X153025495Y-66476204D01*
X153049999Y-66475000D01*
X153950001Y-66475000D01*
X153974505Y-66476204D01*
X153974505Y-66476204D01*
G37*
D14*
X153500000Y-67050000D03*
D13*
G36*
X153974505Y-64426204D02*
X153998773Y-64429804D01*
X154022572Y-64435765D01*
X154045671Y-64444030D01*
X154067850Y-64454520D01*
X154088893Y-64467132D01*
X154108599Y-64481747D01*
X154126777Y-64498223D01*
X154143253Y-64516401D01*
X154157868Y-64536107D01*
X154170480Y-64557150D01*
X154180970Y-64579329D01*
X154189235Y-64602428D01*
X154195196Y-64626227D01*
X154198796Y-64650495D01*
X154200000Y-64674999D01*
X154200000Y-65325001D01*
X154198796Y-65349505D01*
X154195196Y-65373773D01*
X154189235Y-65397572D01*
X154180970Y-65420671D01*
X154170480Y-65442850D01*
X154157868Y-65463893D01*
X154143253Y-65483599D01*
X154126777Y-65501777D01*
X154108599Y-65518253D01*
X154088893Y-65532868D01*
X154067850Y-65545480D01*
X154045671Y-65555970D01*
X154022572Y-65564235D01*
X153998773Y-65570196D01*
X153974505Y-65573796D01*
X153950001Y-65575000D01*
X153049999Y-65575000D01*
X153025495Y-65573796D01*
X153001227Y-65570196D01*
X152977428Y-65564235D01*
X152954329Y-65555970D01*
X152932150Y-65545480D01*
X152911107Y-65532868D01*
X152891401Y-65518253D01*
X152873223Y-65501777D01*
X152856747Y-65483599D01*
X152842132Y-65463893D01*
X152829520Y-65442850D01*
X152819030Y-65420671D01*
X152810765Y-65397572D01*
X152804804Y-65373773D01*
X152801204Y-65349505D01*
X152800000Y-65325001D01*
X152800000Y-64674999D01*
X152801204Y-64650495D01*
X152804804Y-64626227D01*
X152810765Y-64602428D01*
X152819030Y-64579329D01*
X152829520Y-64557150D01*
X152842132Y-64536107D01*
X152856747Y-64516401D01*
X152873223Y-64498223D01*
X152891401Y-64481747D01*
X152911107Y-64467132D01*
X152932150Y-64454520D01*
X152954329Y-64444030D01*
X152977428Y-64435765D01*
X153001227Y-64429804D01*
X153025495Y-64426204D01*
X153049999Y-64425000D01*
X153950001Y-64425000D01*
X153974505Y-64426204D01*
X153974505Y-64426204D01*
G37*
D14*
X153500000Y-65000000D03*
G04 #@! TD*
D13*
G04 #@! TO.C,C12*
G36*
X144974505Y-66476204D02*
X144998773Y-66479804D01*
X145022572Y-66485765D01*
X145045671Y-66494030D01*
X145067850Y-66504520D01*
X145088893Y-66517132D01*
X145108599Y-66531747D01*
X145126777Y-66548223D01*
X145143253Y-66566401D01*
X145157868Y-66586107D01*
X145170480Y-66607150D01*
X145180970Y-66629329D01*
X145189235Y-66652428D01*
X145195196Y-66676227D01*
X145198796Y-66700495D01*
X145200000Y-66724999D01*
X145200000Y-67375001D01*
X145198796Y-67399505D01*
X145195196Y-67423773D01*
X145189235Y-67447572D01*
X145180970Y-67470671D01*
X145170480Y-67492850D01*
X145157868Y-67513893D01*
X145143253Y-67533599D01*
X145126777Y-67551777D01*
X145108599Y-67568253D01*
X145088893Y-67582868D01*
X145067850Y-67595480D01*
X145045671Y-67605970D01*
X145022572Y-67614235D01*
X144998773Y-67620196D01*
X144974505Y-67623796D01*
X144950001Y-67625000D01*
X144049999Y-67625000D01*
X144025495Y-67623796D01*
X144001227Y-67620196D01*
X143977428Y-67614235D01*
X143954329Y-67605970D01*
X143932150Y-67595480D01*
X143911107Y-67582868D01*
X143891401Y-67568253D01*
X143873223Y-67551777D01*
X143856747Y-67533599D01*
X143842132Y-67513893D01*
X143829520Y-67492850D01*
X143819030Y-67470671D01*
X143810765Y-67447572D01*
X143804804Y-67423773D01*
X143801204Y-67399505D01*
X143800000Y-67375001D01*
X143800000Y-66724999D01*
X143801204Y-66700495D01*
X143804804Y-66676227D01*
X143810765Y-66652428D01*
X143819030Y-66629329D01*
X143829520Y-66607150D01*
X143842132Y-66586107D01*
X143856747Y-66566401D01*
X143873223Y-66548223D01*
X143891401Y-66531747D01*
X143911107Y-66517132D01*
X143932150Y-66504520D01*
X143954329Y-66494030D01*
X143977428Y-66485765D01*
X144001227Y-66479804D01*
X144025495Y-66476204D01*
X144049999Y-66475000D01*
X144950001Y-66475000D01*
X144974505Y-66476204D01*
X144974505Y-66476204D01*
G37*
D14*
X144500000Y-67050000D03*
D13*
G36*
X144974505Y-64426204D02*
X144998773Y-64429804D01*
X145022572Y-64435765D01*
X145045671Y-64444030D01*
X145067850Y-64454520D01*
X145088893Y-64467132D01*
X145108599Y-64481747D01*
X145126777Y-64498223D01*
X145143253Y-64516401D01*
X145157868Y-64536107D01*
X145170480Y-64557150D01*
X145180970Y-64579329D01*
X145189235Y-64602428D01*
X145195196Y-64626227D01*
X145198796Y-64650495D01*
X145200000Y-64674999D01*
X145200000Y-65325001D01*
X145198796Y-65349505D01*
X145195196Y-65373773D01*
X145189235Y-65397572D01*
X145180970Y-65420671D01*
X145170480Y-65442850D01*
X145157868Y-65463893D01*
X145143253Y-65483599D01*
X145126777Y-65501777D01*
X145108599Y-65518253D01*
X145088893Y-65532868D01*
X145067850Y-65545480D01*
X145045671Y-65555970D01*
X145022572Y-65564235D01*
X144998773Y-65570196D01*
X144974505Y-65573796D01*
X144950001Y-65575000D01*
X144049999Y-65575000D01*
X144025495Y-65573796D01*
X144001227Y-65570196D01*
X143977428Y-65564235D01*
X143954329Y-65555970D01*
X143932150Y-65545480D01*
X143911107Y-65532868D01*
X143891401Y-65518253D01*
X143873223Y-65501777D01*
X143856747Y-65483599D01*
X143842132Y-65463893D01*
X143829520Y-65442850D01*
X143819030Y-65420671D01*
X143810765Y-65397572D01*
X143804804Y-65373773D01*
X143801204Y-65349505D01*
X143800000Y-65325001D01*
X143800000Y-64674999D01*
X143801204Y-64650495D01*
X143804804Y-64626227D01*
X143810765Y-64602428D01*
X143819030Y-64579329D01*
X143829520Y-64557150D01*
X143842132Y-64536107D01*
X143856747Y-64516401D01*
X143873223Y-64498223D01*
X143891401Y-64481747D01*
X143911107Y-64467132D01*
X143932150Y-64454520D01*
X143954329Y-64444030D01*
X143977428Y-64435765D01*
X144001227Y-64429804D01*
X144025495Y-64426204D01*
X144049999Y-64425000D01*
X144950001Y-64425000D01*
X144974505Y-64426204D01*
X144974505Y-64426204D01*
G37*
D14*
X144500000Y-65000000D03*
G04 #@! TD*
D15*
G04 #@! TO.C,D1*
X148500000Y-77000000D03*
X148500000Y-80300000D03*
G04 #@! TD*
G04 #@! TO.C,D2*
X146050000Y-77090000D03*
X146050000Y-80390000D03*
G04 #@! TD*
G04 #@! TO.C,D3*
X151000000Y-80300000D03*
X151000000Y-77000000D03*
G04 #@! TD*
D16*
G04 #@! TO.C,L1*
X160020000Y-76200000D03*
X164720000Y-76200000D03*
G04 #@! TD*
D13*
G04 #@! TO.C,R1*
G36*
X177004505Y-79200204D02*
X177028773Y-79203804D01*
X177052572Y-79209765D01*
X177075671Y-79218030D01*
X177097850Y-79228520D01*
X177118893Y-79241132D01*
X177138599Y-79255747D01*
X177156777Y-79272223D01*
X177173253Y-79290401D01*
X177187868Y-79310107D01*
X177200480Y-79331150D01*
X177210970Y-79353329D01*
X177219235Y-79376428D01*
X177225196Y-79400227D01*
X177228796Y-79424495D01*
X177230000Y-79448999D01*
X177230000Y-80099001D01*
X177228796Y-80123505D01*
X177225196Y-80147773D01*
X177219235Y-80171572D01*
X177210970Y-80194671D01*
X177200480Y-80216850D01*
X177187868Y-80237893D01*
X177173253Y-80257599D01*
X177156777Y-80275777D01*
X177138599Y-80292253D01*
X177118893Y-80306868D01*
X177097850Y-80319480D01*
X177075671Y-80329970D01*
X177052572Y-80338235D01*
X177028773Y-80344196D01*
X177004505Y-80347796D01*
X176980001Y-80349000D01*
X176079999Y-80349000D01*
X176055495Y-80347796D01*
X176031227Y-80344196D01*
X176007428Y-80338235D01*
X175984329Y-80329970D01*
X175962150Y-80319480D01*
X175941107Y-80306868D01*
X175921401Y-80292253D01*
X175903223Y-80275777D01*
X175886747Y-80257599D01*
X175872132Y-80237893D01*
X175859520Y-80216850D01*
X175849030Y-80194671D01*
X175840765Y-80171572D01*
X175834804Y-80147773D01*
X175831204Y-80123505D01*
X175830000Y-80099001D01*
X175830000Y-79448999D01*
X175831204Y-79424495D01*
X175834804Y-79400227D01*
X175840765Y-79376428D01*
X175849030Y-79353329D01*
X175859520Y-79331150D01*
X175872132Y-79310107D01*
X175886747Y-79290401D01*
X175903223Y-79272223D01*
X175921401Y-79255747D01*
X175941107Y-79241132D01*
X175962150Y-79228520D01*
X175984329Y-79218030D01*
X176007428Y-79209765D01*
X176031227Y-79203804D01*
X176055495Y-79200204D01*
X176079999Y-79199000D01*
X176980001Y-79199000D01*
X177004505Y-79200204D01*
X177004505Y-79200204D01*
G37*
D14*
X176530000Y-79774000D03*
D13*
G36*
X177004505Y-77150204D02*
X177028773Y-77153804D01*
X177052572Y-77159765D01*
X177075671Y-77168030D01*
X177097850Y-77178520D01*
X177118893Y-77191132D01*
X177138599Y-77205747D01*
X177156777Y-77222223D01*
X177173253Y-77240401D01*
X177187868Y-77260107D01*
X177200480Y-77281150D01*
X177210970Y-77303329D01*
X177219235Y-77326428D01*
X177225196Y-77350227D01*
X177228796Y-77374495D01*
X177230000Y-77398999D01*
X177230000Y-78049001D01*
X177228796Y-78073505D01*
X177225196Y-78097773D01*
X177219235Y-78121572D01*
X177210970Y-78144671D01*
X177200480Y-78166850D01*
X177187868Y-78187893D01*
X177173253Y-78207599D01*
X177156777Y-78225777D01*
X177138599Y-78242253D01*
X177118893Y-78256868D01*
X177097850Y-78269480D01*
X177075671Y-78279970D01*
X177052572Y-78288235D01*
X177028773Y-78294196D01*
X177004505Y-78297796D01*
X176980001Y-78299000D01*
X176079999Y-78299000D01*
X176055495Y-78297796D01*
X176031227Y-78294196D01*
X176007428Y-78288235D01*
X175984329Y-78279970D01*
X175962150Y-78269480D01*
X175941107Y-78256868D01*
X175921401Y-78242253D01*
X175903223Y-78225777D01*
X175886747Y-78207599D01*
X175872132Y-78187893D01*
X175859520Y-78166850D01*
X175849030Y-78144671D01*
X175840765Y-78121572D01*
X175834804Y-78097773D01*
X175831204Y-78073505D01*
X175830000Y-78049001D01*
X175830000Y-77398999D01*
X175831204Y-77374495D01*
X175834804Y-77350227D01*
X175840765Y-77326428D01*
X175849030Y-77303329D01*
X175859520Y-77281150D01*
X175872132Y-77260107D01*
X175886747Y-77240401D01*
X175903223Y-77222223D01*
X175921401Y-77205747D01*
X175941107Y-77191132D01*
X175962150Y-77178520D01*
X175984329Y-77168030D01*
X176007428Y-77159765D01*
X176031227Y-77153804D01*
X176055495Y-77150204D01*
X176079999Y-77149000D01*
X176980001Y-77149000D01*
X177004505Y-77150204D01*
X177004505Y-77150204D01*
G37*
D14*
X176530000Y-77724000D03*
G04 #@! TD*
D13*
G04 #@! TO.C,R2*
G36*
X173194505Y-79200204D02*
X173218773Y-79203804D01*
X173242572Y-79209765D01*
X173265671Y-79218030D01*
X173287850Y-79228520D01*
X173308893Y-79241132D01*
X173328599Y-79255747D01*
X173346777Y-79272223D01*
X173363253Y-79290401D01*
X173377868Y-79310107D01*
X173390480Y-79331150D01*
X173400970Y-79353329D01*
X173409235Y-79376428D01*
X173415196Y-79400227D01*
X173418796Y-79424495D01*
X173420000Y-79448999D01*
X173420000Y-80099001D01*
X173418796Y-80123505D01*
X173415196Y-80147773D01*
X173409235Y-80171572D01*
X173400970Y-80194671D01*
X173390480Y-80216850D01*
X173377868Y-80237893D01*
X173363253Y-80257599D01*
X173346777Y-80275777D01*
X173328599Y-80292253D01*
X173308893Y-80306868D01*
X173287850Y-80319480D01*
X173265671Y-80329970D01*
X173242572Y-80338235D01*
X173218773Y-80344196D01*
X173194505Y-80347796D01*
X173170001Y-80349000D01*
X172269999Y-80349000D01*
X172245495Y-80347796D01*
X172221227Y-80344196D01*
X172197428Y-80338235D01*
X172174329Y-80329970D01*
X172152150Y-80319480D01*
X172131107Y-80306868D01*
X172111401Y-80292253D01*
X172093223Y-80275777D01*
X172076747Y-80257599D01*
X172062132Y-80237893D01*
X172049520Y-80216850D01*
X172039030Y-80194671D01*
X172030765Y-80171572D01*
X172024804Y-80147773D01*
X172021204Y-80123505D01*
X172020000Y-80099001D01*
X172020000Y-79448999D01*
X172021204Y-79424495D01*
X172024804Y-79400227D01*
X172030765Y-79376428D01*
X172039030Y-79353329D01*
X172049520Y-79331150D01*
X172062132Y-79310107D01*
X172076747Y-79290401D01*
X172093223Y-79272223D01*
X172111401Y-79255747D01*
X172131107Y-79241132D01*
X172152150Y-79228520D01*
X172174329Y-79218030D01*
X172197428Y-79209765D01*
X172221227Y-79203804D01*
X172245495Y-79200204D01*
X172269999Y-79199000D01*
X173170001Y-79199000D01*
X173194505Y-79200204D01*
X173194505Y-79200204D01*
G37*
D14*
X172720000Y-79774000D03*
D13*
G36*
X173194505Y-77150204D02*
X173218773Y-77153804D01*
X173242572Y-77159765D01*
X173265671Y-77168030D01*
X173287850Y-77178520D01*
X173308893Y-77191132D01*
X173328599Y-77205747D01*
X173346777Y-77222223D01*
X173363253Y-77240401D01*
X173377868Y-77260107D01*
X173390480Y-77281150D01*
X173400970Y-77303329D01*
X173409235Y-77326428D01*
X173415196Y-77350227D01*
X173418796Y-77374495D01*
X173420000Y-77398999D01*
X173420000Y-78049001D01*
X173418796Y-78073505D01*
X173415196Y-78097773D01*
X173409235Y-78121572D01*
X173400970Y-78144671D01*
X173390480Y-78166850D01*
X173377868Y-78187893D01*
X173363253Y-78207599D01*
X173346777Y-78225777D01*
X173328599Y-78242253D01*
X173308893Y-78256868D01*
X173287850Y-78269480D01*
X173265671Y-78279970D01*
X173242572Y-78288235D01*
X173218773Y-78294196D01*
X173194505Y-78297796D01*
X173170001Y-78299000D01*
X172269999Y-78299000D01*
X172245495Y-78297796D01*
X172221227Y-78294196D01*
X172197428Y-78288235D01*
X172174329Y-78279970D01*
X172152150Y-78269480D01*
X172131107Y-78256868D01*
X172111401Y-78242253D01*
X172093223Y-78225777D01*
X172076747Y-78207599D01*
X172062132Y-78187893D01*
X172049520Y-78166850D01*
X172039030Y-78144671D01*
X172030765Y-78121572D01*
X172024804Y-78097773D01*
X172021204Y-78073505D01*
X172020000Y-78049001D01*
X172020000Y-77398999D01*
X172021204Y-77374495D01*
X172024804Y-77350227D01*
X172030765Y-77326428D01*
X172039030Y-77303329D01*
X172049520Y-77281150D01*
X172062132Y-77260107D01*
X172076747Y-77240401D01*
X172093223Y-77222223D01*
X172111401Y-77205747D01*
X172131107Y-77191132D01*
X172152150Y-77178520D01*
X172174329Y-77168030D01*
X172197428Y-77159765D01*
X172221227Y-77153804D01*
X172245495Y-77150204D01*
X172269999Y-77149000D01*
X173170001Y-77149000D01*
X173194505Y-77150204D01*
X173194505Y-77150204D01*
G37*
D14*
X172720000Y-77724000D03*
G04 #@! TD*
D17*
G04 #@! TO.C,U2*
X178562000Y-61800000D03*
X177292000Y-61800000D03*
X176022000Y-61800000D03*
X174752000Y-61800000D03*
X173482000Y-61800000D03*
X172212000Y-61800000D03*
X170942000Y-61800000D03*
X169672000Y-61800000D03*
X169672000Y-52500000D03*
X170942000Y-52500000D03*
X172212000Y-52500000D03*
X173482000Y-52500000D03*
X174752000Y-52500000D03*
X176022000Y-52500000D03*
X177292000Y-52500000D03*
X178562000Y-52500000D03*
G04 #@! TD*
M02*
