<?xml version="1.0" standalone="no"?>
 <!DOCTYPE svg PUBLIC "-//W3C//DTD SVG 1.1//EN" 
 "http://www.w3.org/Graphics/SVG/1.1/DTD/svg11.dtd"> 
<svg xmlns="http://www.w3.org/2000/svg" version="1.1" 
    width="29.7002cm" height="21.0007cm" viewBox="0 0 116930 82680 ">
<title>SVG Picture created as printer-F.Mask.svg date 2019/03/27 08:50:31 </title>
  <desc>Picture generated by PCBNEW </desc>
<g style="fill:#000000; fill-opacity:1;stroke:#000000; stroke-opacity:1;
stroke-linecap:round; stroke-linejoin:round; "
 transform="translate(0 0) scale(1 1)">
</g>
<g style="fill:#000000; fill-opacity:0.0; 
stroke:#000000; stroke-width:-0.000393701; stroke-opacity:1; 
stroke-linecap:round; stroke-linejoin:round;">
</g>
<g style="fill:#000000; fill-opacity:1.0; 
stroke:#000000; stroke-width:0; stroke-opacity:1; 
stroke-linecap:round; stroke-linejoin:round;">
<polyline style="fill-rule:evenodd;"
points="36981,34408
36996,34413
37010,34420
37022,34430
37032,34442
37039,34456
37043,34470
37045,34488
37045,34818
37043,34836
37039,34850
37032,34864
37022,34876
37010,34886
36996,34893
36981,34898
36963,34900
36536,34900
36518,34898
36503,34893
36489,34886
36477,34876
36467,34864
36460,34850
36456,34836
36454,34818
36454,34488
36456,34470
36460,34456
36467,34442
36477,34430
36489,34420
36503,34413
36518,34408
36536,34407
36963,34407
36981,34408
" /> 
<polyline style="fill-rule:evenodd;"
points="39481,34408
39496,34413
39510,34420
39522,34430
39532,34442
39539,34456
39543,34470
39545,34488
39545,34818
39543,34836
39539,34850
39532,34864
39522,34876
39510,34886
39496,34893
39481,34898
39463,34900
39036,34900
39018,34898
39003,34893
38989,34886
38977,34876
38967,34864
38960,34850
38956,34836
38954,34818
38954,34488
38956,34470
38960,34456
38967,34442
38977,34430
38989,34420
39003,34413
39018,34408
39036,34407
39463,34407
39481,34408
" /> 
<polyline style="fill-rule:evenodd;"
points="34481,34312
34496,34316
34510,34324
34522,34334
34532,34346
34539,34359
34543,34374
34545,34392
34545,34721
34543,34739
34539,34754
34532,34768
34522,34780
34510,34789
34496,34797
34481,34801
34463,34803
34036,34803
34018,34801
34003,34797
33989,34789
33977,34780
33967,34768
33960,34754
33956,34739
33954,34721
33954,34392
33956,34374
33960,34359
33967,34346
33977,34334
33989,34324
34003,34316
34018,34312
34036,34310
34463,34310
34481,34312
" /> 
<polyline style="fill-rule:evenodd;"
points="39481,33601
39496,33606
39510,33613
39522,33623
39532,33635
39539,33649
39543,33663
39545,33681
39545,34011
39543,34029
39539,34043
39532,34057
39522,34069
39510,34079
39496,34086
39481,34091
39463,34092
39036,34092
39018,34091
39003,34086
38989,34079
38977,34069
38967,34057
38960,34043
38956,34029
38954,34011
38954,33681
38956,33663
38960,33649
38967,33635
38977,33623
38989,33613
39003,33606
39018,33601
39036,33600
39463,33600
39481,33601
" /> 
<polyline style="fill-rule:evenodd;"
points="36981,33601
36996,33606
37010,33613
37022,33623
37032,33635
37039,33649
37043,33663
37045,33681
37045,34011
37043,34029
37039,34043
37032,34057
37022,34069
37010,34079
36996,34086
36981,34091
36963,34092
36536,34092
36518,34091
36503,34086
36489,34079
36477,34069
36467,34057
36460,34043
36456,34029
36454,34011
36454,33681
36456,33663
36460,33649
36467,33635
36477,33623
36489,33613
36503,33606
36518,33601
36536,33600
36963,33600
36981,33601
" /> 
<polyline style="fill-rule:evenodd;"
points="41477,32869
41516,32877
41627,32923
41727,32990
41812,33075
41879,33175
41925,33286
41949,33404
41949,33524
41925,33642
41879,33753
41812,33853
41727,33938
41627,34005
41516,34051
41487,34057
41398,34075
41278,34075
41189,34057
41160,34051
41049,34005
40949,33938
40864,33853
40797,33753
40751,33642
40727,33524
40727,33404
40751,33286
40797,33175
40864,33075
40949,32990
41049,32923
41160,32877
41199,32869
41278,32853
41398,32853
41477,32869
" /> 
<polyline style="fill-rule:evenodd;"
points="34481,33505
34496,33509
34510,33517
34522,33526
34532,33538
34539,33552
34543,33567
34545,33585
34545,33914
34543,33932
34539,33947
34532,33961
34522,33973
34510,33982
34496,33990
34481,33994
34463,33996
34036,33996
34018,33994
34003,33990
33989,33982
33977,33973
33967,33961
33960,33947
33956,33932
33954,33914
33954,33585
33956,33567
33960,33552
33967,33538
33977,33526
33989,33517
34003,33509
34018,33505
34036,33503
34463,33503
34481,33505
" /> 
<polyline style="fill-rule:evenodd;"
points="36643,33366
36250,33366
36250,31988
36643,31988
36643,33366
" /> 
<polyline style="fill-rule:evenodd;"
points="35856,33366
35462,33366
35462,31988
35856,31988
35856,33366
" /> 
<polyline style="fill-rule:evenodd;"
points="35068,33366
34675,33366
34675,31988
35068,31988
35068,33366
" /> 
<polyline style="fill-rule:evenodd;"
points="38218,33366
37824,33366
37824,31988
38218,31988
38218,33366
" /> 
<polyline style="fill-rule:evenodd;"
points="34281,33366
33887,33366
33887,31988
34281,31988
34281,33366
" /> 
<polyline style="fill-rule:evenodd;"
points="37431,33366
37037,33366
37037,31988
37431,31988
37431,33366
" /> 
<polyline style="fill-rule:evenodd;"
points="39911,32500
38493,32500
38493,32066
39911,32066
39911,32500
" /> 
<polyline style="fill-rule:evenodd;"
points="33612,32500
32194,32500
32194,32066
33612,32066
33612,32500
" /> 
<polyline style="fill-rule:evenodd;"
points="41477,30901
41516,30908
41627,30954
41727,31021
41812,31106
41879,31206
41925,31317
41949,31435
41949,31556
41925,31674
41879,31785
41812,31885
41727,31970
41627,32037
41516,32083
41477,32091
41398,32106
41278,32106
41199,32091
41160,32083
41049,32037
40949,31970
40864,31885
40797,31785
40751,31674
40727,31556
40727,31435
40751,31317
40797,31206
40864,31106
40949,31021
41049,30954
41160,30908
41199,30901
41278,30885
41398,30885
41477,30901
" /> 
<polyline style="fill-rule:evenodd;"
points="39911,31712
38493,31712
38493,31279
39911,31279
39911,31712
" /> 
<polyline style="fill-rule:evenodd;"
points="33612,31712
32194,31712
32194,31279
33612,31279
33612,31712
" /> 
<polyline style="fill-rule:evenodd;"
points="39911,30925
38493,30925
38493,30491
39911,30491
39911,30925
" /> 
<polyline style="fill-rule:evenodd;"
points="33612,30925
32194,30925
32194,30491
33612,30491
33612,30925
" /> 
<polyline style="fill-rule:evenodd;"
points="33612,30138
32194,30138
32194,29704
33612,29704
33612,30138
" /> 
<polyline style="fill-rule:evenodd;"
points="39911,30138
38493,30138
38493,29704
39911,29704
39911,30138
" /> 
<polyline style="fill-rule:evenodd;"
points="41477,28932
41516,28940
41627,28986
41727,29053
41812,29138
41879,29238
41925,29349
41949,29467
41949,29587
41925,29705
41879,29816
41812,29916
41727,30001
41627,30068
41516,30114
41477,30122
41398,30138
41278,30138
41199,30122
41160,30114
41049,30068
40949,30001
40864,29916
40797,29816
40751,29705
40727,29587
40727,29467
40751,29349
40797,29238
40864,29138
40949,29053
41049,28986
41160,28940
41199,28932
41278,28916
41398,28916
41477,28932
" /> 
<polyline style="fill-rule:evenodd;"
points="33612,29350
32194,29350
32194,28916
33612,28916
33612,29350
" /> 
<polyline style="fill-rule:evenodd;"
points="39911,29350
38493,29350
38493,28916
39911,28916
39911,29350
" /> 
<polyline style="fill-rule:evenodd;"
points="33612,28563
32194,28563
32194,28129
33612,28129
33612,28563
" /> 
<polyline style="fill-rule:evenodd;"
points="39911,28563
38493,28563
38493,28129
39911,28129
39911,28563
" /> 
<polyline style="fill-rule:evenodd;"
points="33612,27775
32194,27775
32194,27342
33612,27342
33612,27775
" /> 
<polyline style="fill-rule:evenodd;"
points="39911,27775
38493,27775
38493,27342
39911,27342
39911,27775
" /> 
<polyline style="fill-rule:evenodd;"
points="39911,26988
38493,26988
38493,26554
39911,26554
39911,26988
" /> 
<polyline style="fill-rule:evenodd;"
points="33612,26988
32194,26988
32194,26554
33612,26554
33612,26988
" /> 
<polyline style="fill-rule:evenodd;"
points="38370,21852
38445,21883
38513,21928
38571,21986
38616,22054
38647,22129
38663,22209
38663,22290
38647,22370
38616,22445
38571,22513
38513,22571
38445,22616
38370,22647
38290,22663
38209,22663
38129,22647
38054,22616
37986,22571
37928,22513
37883,22445
37852,22370
37836,22290
37836,22209
37852,22129
37883,22054
37928,21986
37986,21928
38054,21883
38129,21852
38209,21836
38290,21836
38370,21852
" /> 
<polyline style="fill-rule:evenodd;"
points="34370,21852
34445,21883
34513,21928
34571,21986
34616,22054
34647,22129
34663,22209
34663,22290
34647,22370
34616,22445
34571,22513
34513,22571
34445,22616
34370,22647
34290,22663
34209,22663
34129,22647
34054,22616
33986,22571
33928,22513
33883,22445
33852,22370
33836,22290
33836,22209
33852,22129
33883,22054
33928,21986
33986,21928
34054,21883
34129,21852
34209,21836
34290,21836
34370,21852
" /> 
<polyline style="fill-rule:evenodd;"
points="37370,21852
37445,21883
37513,21928
37571,21986
37616,22054
37647,22129
37663,22209
37663,22290
37647,22370
37616,22445
37571,22513
37513,22571
37445,22616
37370,22647
37290,22663
37209,22663
37129,22647
37054,22616
36986,22571
36928,22513
36883,22445
36852,22370
36836,22290
36836,22209
36852,22129
36883,22054
36928,21986
36986,21928
37054,21883
37129,21852
37209,21836
37290,21836
37370,21852
" /> 
<polyline style="fill-rule:evenodd;"
points="36370,21852
36445,21883
36513,21928
36571,21986
36616,22054
36647,22129
36663,22209
36663,22290
36647,22370
36616,22445
36571,22513
36513,22571
36445,22616
36370,22647
36290,22663
36209,22663
36129,22647
36054,22616
35986,22571
35928,22513
35883,22445
35852,22370
35836,22290
35836,22209
35852,22129
35883,22054
35928,21986
35986,21928
36054,21883
36129,21852
36209,21836
36290,21836
36370,21852
" /> 
<polyline style="fill-rule:evenodd;"
points="35370,21852
35445,21883
35513,21928
35571,21986
35616,22054
35647,22129
35663,22209
35663,22290
35647,22370
35616,22445
35571,22513
35513,22571
35445,22616
35370,22647
35290,22663
35209,22663
35129,22647
35054,22616
34986,22571
34928,22513
34883,22445
34852,22370
34836,22290
34836,22209
34852,22129
34883,22054
34928,21986
34986,21928
35054,21883
35129,21852
35209,21836
35290,21836
35370,21852
" /> 
<polyline style="fill-rule:evenodd;"
points="40370,21852
40445,21883
40513,21928
40571,21986
40616,22054
40647,22129
40663,22209
40663,22290
40647,22370
40616,22445
40571,22513
40513,22571
40445,22616
40370,22647
40290,22663
40209,22663
40129,22647
40054,22616
39986,22571
39928,22513
39883,22445
39852,22370
39836,22290
39836,22209
39852,22129
39883,22054
39928,21986
39986,21928
40054,21883
40129,21852
40209,21836
40290,21836
40370,21852
" /> 
<polyline style="fill-rule:evenodd;"
points="33370,21852
33445,21883
33513,21928
33571,21986
33616,22054
33647,22129
33663,22209
33663,22290
33647,22370
33616,22445
33571,22513
33513,22571
33445,22616
33370,22647
33290,22663
33209,22663
33129,22647
33054,22616
32986,22571
32928,22513
32883,22445
32852,22370
32836,22290
32836,22209
32852,22129
32883,22054
32928,21986
32986,21928
33054,21883
33129,21852
33209,21836
33290,21836
33370,21852
" /> 
<polyline style="fill-rule:evenodd;"
points="39301,22079
39334,22092
39334,22092
39334,22092
39363,22112
39363,22112
39387,22136
39387,22136
39387,22136
39407,22165
39407,22165
39407,22165
39420,22198
39427,22232
39427,22267
39420,22301
39407,22334
39407,22334
39387,22363
39387,22363
39363,22387
39363,22387
39363,22387
39334,22407
39334,22407
39334,22407
39301,22420
39267,22427
39232,22427
39198,22420
39165,22407
39165,22407
39165,22407
39136,22387
39136,22387
39136,22387
39112,22363
39112,22363
39092,22334
39092,22334
39079,22301
39072,22267
39072,22232
39079,22198
39092,22165
39092,22165
39092,22165
39112,22136
39112,22136
39112,22136
39136,22112
39136,22112
39165,22092
39165,22092
39165,22092
39198,22079
39232,22072
39267,22072
39301,22079
" /> 
</g> 
</svg>
