<?xml version="1.0" standalone="no"?>
 <!DOCTYPE svg PUBLIC "-//W3C//DTD SVG 1.1//EN" 
 "http://www.w3.org/Graphics/SVG/1.1/DTD/svg11.dtd"> 
<svg xmlns="http://www.w3.org/2000/svg" version="1.1" 
    width="29.7002cm" height="21.0007cm" viewBox="0 0 116930 82680 ">
<title>SVG Picture created as OTP-v02-F.Cu.svg date 2019/03/13 17:51:31 </title>
  <desc>Picture generated by PCBNEW </desc>
<g style="fill:#000000; fill-opacity:1;stroke:#000000; stroke-opacity:1;
stroke-linecap:round; stroke-linejoin:round; "
 transform="translate(0 0) scale(1 1)">
</g>
<g style="fill:#000000; fill-opacity:0.0; 
stroke:#000000; stroke-width:-0.000393701; stroke-opacity:1; 
stroke-linecap:round; stroke-linejoin:round;">
</g>
<g style="fill:#000000; fill-opacity:0.0; 
stroke:#000000; stroke-width:0; stroke-opacity:1; 
stroke-linecap:round; stroke-linejoin:round;">
</g>
<g style="fill:#000000; fill-opacity:1.0; 
stroke:#000000; stroke-width:0; stroke-opacity:1; 
stroke-linecap:round; stroke-linejoin:round;">
<polyline style="fill-rule:evenodd;"
points="72402,39133
72481,39133
72481,38818
72402,38818
72402,39133
" /> 
<polyline style="fill-rule:evenodd;"
points="72205,39133
72284,39133
72284,38818
72205,38818
72205,39133
" /> 
<polyline style="fill-rule:evenodd;"
points="72008,39133
72087,39133
72087,38818
72008,38818
72008,39133
" /> 
<polyline style="fill-rule:evenodd;"
points="71811,39133
71890,39133
71890,38818
71811,38818
71811,39133
" /> 
<polyline style="fill-rule:evenodd;"
points="71221,39133
71300,39133
71300,38818
71221,38818
71221,39133
" /> 
<polyline style="fill-rule:evenodd;"
points="71024,39133
71103,39133
71103,38818
71024,38818
71024,39133
" /> 
<polyline style="fill-rule:evenodd;"
points="70827,39133
70906,39133
70906,38818
70827,38818
70827,39133
" /> 
<polyline style="fill-rule:evenodd;"
points="70630,39133
70709,39133
70709,38818
70630,38818
70630,39133
" /> 
<polyline style="fill-rule:evenodd;"
points="70433,39133
70512,39133
70512,38818
70433,38818
70433,39133
" /> 
<polyline style="fill-rule:evenodd;"
points="70237,39133
70315,39133
70315,38818
70237,38818
70237,39133
" /> 
<polyline style="fill-rule:evenodd;"
points="70040,39133
70118,39133
70118,38818
70040,38818
70040,39133
" /> 
<polyline style="fill-rule:evenodd;"
points="69843,39133
69922,39133
69922,38818
69843,38818
69843,39133
" /> 
<polyline style="fill-rule:evenodd;"
points="69646,39133
69725,39133
69725,38818
69646,38818
69646,39133
" /> 
<polyline style="fill-rule:evenodd;"
points="69449,39133
69528,39133
69528,38818
69449,38818
69449,39133
" /> 
<polyline style="fill-rule:evenodd;"
points="69252,39133
69331,39133
69331,38818
69252,38818
69252,39133
" /> 
<polyline style="fill-rule:evenodd;"
points="69055,39133
69134,39133
69134,38818
69055,38818
69055,39133
" /> 
<polyline style="fill-rule:evenodd;"
points="68859,39133
68937,39133
68937,38818
68859,38818
68859,39133
" /> 
<polyline style="fill-rule:evenodd;"
points="68662,39133
68741,39133
68741,38818
68662,38818
68662,39133
" /> 
<polyline style="fill-rule:evenodd;"
points="68465,39133
68544,39133
68544,38818
68465,38818
68465,39133
" /> 
<polyline style="fill-rule:evenodd;"
points="68268,39133
68347,39133
68347,38818
68268,38818
68268,39133
" /> 
<polyline style="fill-rule:evenodd;"
points="68071,39133
68150,39133
68150,38818
68071,38818
68071,39133
" /> 
<polyline style="fill-rule:evenodd;"
points="68810,36211
68800,36212
68791,36214
68782,36218
68773,36222
68765,36227
68757,36232
68750,36239
68743,36246
68737,36254
68732,36262
68728,36271
68725,36280
68723,36289
68721,36299
68721,36309
68721,36564
68721,36574
68723,36584
68725,36593
68728,36602
68732,36611
68737,36619
68743,36627
68750,36634
68757,36641
68765,36646
68773,36651
68782,36655
68791,36659
68800,36661
68810,36662
68819,36663
69174,36663
69183,36662
69193,36661
69202,36659
69211,36655
69220,36651
69228,36646
69236,36641
69243,36634
69250,36627
69255,36619
69260,36611
69265,36602
69268,36593
69270,36584
69272,36574
69272,36564
69272,36309
69272,36299
69270,36289
69268,36280
69265,36271
69260,36262
69255,36254
69250,36246
69243,36239
69236,36232
69228,36227
69220,36222
69211,36218
69202,36214
69193,36212
69183,36211
69174,36210
68819,36210
68810,36211
" /> 
<polyline style="fill-rule:evenodd;"
points="68810,37018
68800,37019
68791,37021
68782,37025
68773,37029
68765,37034
68757,37040
68750,37046
68743,37053
68737,37061
68732,37069
68728,37078
68725,37087
68723,37096
68721,37106
68721,37116
68721,37372
68721,37381
68723,37391
68725,37400
68728,37409
68732,37418
68737,37426
68743,37434
68750,37441
68757,37448
68765,37453
68773,37458
68782,37462
68791,37466
68800,37468
68810,37469
68819,37470
69174,37470
69183,37469
69193,37468
69202,37466
69211,37462
69220,37458
69228,37453
69236,37448
69243,37441
69250,37434
69255,37426
69260,37418
69265,37409
69268,37400
69270,37391
69272,37381
69272,37372
69272,37116
69272,37106
69270,37096
69268,37087
69265,37078
69260,37069
69255,37061
69250,37053
69243,37046
69236,37040
69228,37034
69220,37029
69211,37025
69202,37021
69193,37019
69183,37018
69174,37017
68819,37017
68810,37018
" /> 
<polyline style="fill-rule:evenodd;"
points="68022,37018
68013,37019
68003,37021
67994,37025
67985,37029
67977,37034
67969,37040
67962,37046
67956,37053
67950,37061
67945,37069
67941,37078
67938,37087
67935,37096
67934,37106
67933,37116
67933,37372
67934,37381
67935,37391
67938,37400
67941,37409
67945,37418
67950,37426
67956,37434
67962,37441
67969,37448
67977,37453
67985,37458
67994,37462
68003,37466
68013,37468
68022,37469
68032,37470
68386,37470
68396,37469
68405,37468
68415,37466
68424,37462
68433,37458
68441,37453
68449,37448
68456,37441
68462,37434
68468,37426
68473,37418
68477,37409
68480,37400
68483,37391
68484,37381
68485,37372
68485,37116
68484,37106
68483,37096
68480,37087
68477,37078
68473,37069
68468,37061
68462,37053
68456,37046
68449,37040
68441,37034
68433,37029
68424,37025
68415,37021
68405,37019
68396,37018
68386,37017
68032,37017
68022,37018
" /> 
<polyline style="fill-rule:evenodd;"
points="68022,36211
68013,36212
68003,36214
67994,36218
67985,36222
67977,36227
67969,36232
67962,36239
67956,36246
67950,36254
67945,36262
67941,36271
67938,36280
67935,36289
67934,36299
67933,36309
67933,36564
67934,36574
67935,36584
67938,36593
67941,36602
67945,36611
67950,36619
67956,36627
67962,36634
67969,36641
67977,36646
67985,36651
67994,36655
68003,36659
68013,36661
68022,36662
68032,36663
68386,36663
68396,36662
68405,36661
68415,36659
68424,36655
68433,36651
68441,36646
68449,36641
68456,36634
68462,36627
68468,36619
68473,36611
68477,36602
68480,36593
68483,36584
68484,36574
68485,36564
68485,36309
68484,36299
68483,36289
68480,36280
68477,36271
68473,36262
68468,36254
68462,36246
68456,36239
68449,36232
68441,36227
68433,36222
68424,36218
68415,36214
68405,36212
68396,36211
68386,36210
68032,36210
68022,36211
" /> 
<circle cx="74213.5" cy="24015.7" r="300" /> 
</g>
<g style="fill:#000000; fill-opacity:1.0; 
stroke:#000000; stroke-width:39.3701; stroke-opacity:1; 
stroke-linecap:round; stroke-linejoin:round;">
</g>
<g style="fill:#000000; fill-opacity:1.0; 
stroke:#000000; stroke-width:0; stroke-opacity:1; 
stroke-linecap:round; stroke-linejoin:round;">
<circle cx="74213.5" cy="27165.4" r="300" /> 
</g>
<g style="fill:#000000; fill-opacity:1.0; 
stroke:#000000; stroke-width:39.3701; stroke-opacity:1; 
stroke-linecap:round; stroke-linejoin:round;">
</g>
<g style="fill:#000000; fill-opacity:1.0; 
stroke:#000000; stroke-width:0; stroke-opacity:1; 
stroke-linecap:round; stroke-linejoin:round;">
<polyline style="fill-rule:evenodd;"
points="68504,23622
68504,24409
69292,24409
69292,23622
68504,23622
" /> 
<polyline style="fill-rule:evenodd;"
points="70867,23622
70867,24409
71654,24409
71654,23622
70867,23622
" /> 
<polyline style="fill-rule:evenodd;"
points="66546,35030
66536,35031
66527,35033
66518,35037
66509,35041
66501,35046
66493,35051
66486,35058
66479,35065
66474,35073
66469,35081
66465,35090
66461,35099
66459,35108
66458,35118
66457,35127
66457,35383
66458,35393
66459,35403
66461,35412
66465,35421
66469,35430
66474,35438
66479,35446
66486,35453
66493,35459
66501,35465
66509,35470
66518,35474
66527,35478
66536,35480
66546,35481
66555,35482
66910,35482
66919,35481
66929,35480
66938,35478
66947,35474
66956,35470
66964,35465
66972,35459
66979,35453
66986,35446
66992,35438
66997,35430
67001,35421
67004,35412
67006,35403
67008,35393
67008,35383
67008,35127
67008,35118
67006,35108
67004,35099
67001,35090
66997,35081
66992,35073
66986,35065
66979,35058
66972,35051
66964,35046
66956,35041
66947,35037
66938,35033
66929,35031
66919,35030
66910,35029
66555,35029
66546,35030
" /> 
<polyline style="fill-rule:evenodd;"
points="66546,34222
66536,34224
66527,34226
66518,34229
66509,34234
66501,34239
66493,34244
66486,34251
66479,34258
66474,34266
66469,34274
66465,34283
66461,34292
66459,34301
66458,34311
66457,34320
66457,34576
66458,34586
66459,34595
66461,34605
66465,34614
66469,34623
66474,34631
66479,34639
66486,34646
66493,34652
66501,34658
66509,34663
66518,34667
66527,34670
66536,34673
66546,34674
66555,34675
66910,34675
66919,34674
66929,34673
66938,34670
66947,34667
66956,34663
66964,34658
66972,34652
66979,34646
66986,34639
66992,34631
66997,34623
67001,34614
67004,34605
67006,34595
67008,34586
67008,34576
67008,34320
67008,34311
67006,34301
67004,34292
67001,34283
66997,34274
66992,34266
66986,34258
66979,34251
66972,34244
66964,34239
66956,34234
66947,34229
66938,34226
66929,34224
66919,34222
66910,34222
66555,34222
66546,34222
" /> 
<polyline style="fill-rule:evenodd;"
points="74095,32500
74085,32501
74076,32504
74067,32507
74058,32511
74050,32516
74042,32522
74035,32528
74029,32535
74023,32543
74018,32552
74014,32560
74011,32569
74008,32579
74007,32588
74006,32598
74006,32952
74007,32962
74008,32971
74011,32981
74014,32990
74018,32999
74023,33007
74029,33015
74035,33022
74042,33028
74050,33034
74058,33039
74067,33043
74076,33046
74085,33049
74095,33050
74105,33051
74361,33051
74370,33050
74380,33049
74389,33046
74398,33043
74407,33039
74415,33034
74423,33028
74430,33022
74437,33015
74442,33007
74447,32999
74452,32990
74455,32981
74457,32971
74459,32962
74459,32952
74459,32598
74459,32588
74457,32579
74455,32569
74452,32560
74447,32552
74442,32543
74437,32535
74430,32528
74423,32522
74415,32516
74407,32511
74398,32507
74389,32504
74380,32501
74370,32500
74361,32500
74105,32500
74095,32500
" /> 
<polyline style="fill-rule:evenodd;"
points="73288,32500
73278,32501
73269,32504
73260,32507
73251,32511
73243,32516
73235,32522
73228,32528
73222,32535
73216,32543
73211,32552
73207,32560
73203,32569
73201,32579
73200,32588
73199,32598
73199,32952
73200,32962
73201,32971
73203,32981
73207,32990
73211,32999
73216,33007
73222,33015
73228,33022
73235,33028
73243,33034
73251,33039
73260,33043
73269,33046
73278,33049
73288,33050
73298,33051
73554,33051
73563,33050
73573,33049
73582,33046
73591,33043
73600,33039
73608,33034
73616,33028
73623,33022
73630,33015
73635,33007
73640,32999
73644,32990
73648,32981
73650,32971
73651,32962
73652,32952
73652,32598
73651,32588
73650,32579
73648,32569
73644,32560
73640,32552
73635,32543
73630,32535
73623,32528
73616,32522
73608,32516
73600,32511
73591,32507
73582,32504
73573,32501
73563,32500
73554,32500
73298,32500
73288,32500
" /> 
<polyline style="fill-rule:evenodd;"
points="67235,36998
67225,36999
67216,37002
67207,37005
67198,37009
67190,37014
67182,37020
67175,37026
67168,37034
67163,37041
67158,37050
67154,37058
67150,37067
67148,37077
67147,37086
67146,37096
67146,37352
67147,37362
67148,37371
67150,37380
67154,37390
67158,37398
67163,37407
67168,37414
67175,37421
67182,37428
67190,37434
67198,37439
67207,37443
67216,37446
67225,37448
67235,37450
67244,37450
67599,37450
67608,37450
67618,37448
67627,37446
67636,37443
67645,37439
67653,37434
67661,37428
67668,37421
67675,37414
67681,37407
67686,37398
67690,37390
67693,37380
67695,37371
67697,37362
67697,37352
67697,37096
67697,37086
67695,37077
67693,37067
67690,37058
67686,37050
67681,37041
67675,37034
67668,37026
67661,37020
67653,37014
67645,37009
67636,37005
67627,37002
67618,36999
67608,36998
67599,36998
67244,36998
67235,36998
" /> 
<polyline style="fill-rule:evenodd;"
points="67235,36191
67225,36192
67216,36195
67207,36198
67198,36202
67190,36207
67182,36213
67175,36219
67168,36226
67163,36234
67158,36242
67154,36251
67150,36260
67148,36270
67147,36279
67146,36289
67146,36545
67147,36554
67148,36564
67150,36573
67154,36582
67158,36591
67163,36599
67168,36607
67175,36614
67182,36621
67190,36627
67198,36632
67207,36636
67216,36639
67225,36641
67235,36643
67244,36643
67599,36643
67608,36643
67618,36641
67627,36639
67636,36636
67645,36632
67653,36627
67661,36621
67668,36614
67675,36607
67681,36599
67686,36591
67690,36582
67693,36573
67695,36564
67697,36554
67697,36545
67697,36289
67697,36279
67695,36270
67693,36260
67690,36251
67686,36242
67681,36234
67675,36226
67668,36219
67661,36213
67653,36207
67645,36202
67636,36198
67627,36195
67618,36192
67608,36191
67599,36190
67244,36190
67235,36191
" /> 
<polyline style="fill-rule:evenodd;"
points="67333,35010
67324,35011
67314,35014
67305,35017
67296,35021
67288,35026
67280,35032
67273,35038
67267,35045
67261,35053
67256,35061
67252,35070
67249,35079
67246,35089
67245,35098
67244,35108
67244,35364
67245,35373
67246,35383
67249,35392
67252,35401
67256,35410
67261,35418
67267,35426
67273,35433
67280,35440
67288,35446
67296,35450
67305,35455
67314,35458
67324,35460
67333,35462
67343,35462
67697,35462
67707,35462
67716,35460
67726,35458
67735,35455
67744,35450
67752,35446
67760,35440
67767,35433
67773,35426
67779,35418
67784,35410
67788,35401
67791,35392
67794,35383
67795,35373
67796,35364
67796,35108
67795,35098
67794,35089
67791,35079
67788,35070
67784,35061
67779,35053
67773,35045
67767,35038
67760,35032
67752,35026
67744,35021
67735,35017
67726,35014
67716,35011
67707,35010
67697,35009
67343,35009
67333,35010
" /> 
<polyline style="fill-rule:evenodd;"
points="67333,34203
67324,34204
67314,34206
67305,34210
67296,34214
67288,34219
67280,34225
67273,34231
67267,34238
67261,34246
67256,34254
67252,34263
67249,34272
67246,34281
67245,34291
67244,34301
67244,34557
67245,34566
67246,34576
67249,34585
67252,34594
67256,34603
67261,34611
67267,34619
67273,34626
67280,34633
67288,34638
67296,34643
67305,34648
67314,34651
67324,34653
67333,34655
67343,34655
67697,34655
67707,34655
67716,34653
67726,34651
67735,34648
67744,34643
67752,34638
67760,34633
67767,34626
67773,34619
67779,34611
67784,34603
67788,34594
67791,34585
67794,34576
67795,34566
67796,34557
67796,34301
67795,34291
67794,34281
67791,34272
67788,34263
67784,34254
67779,34246
67773,34238
67767,34231
67760,34225
67752,34219
67744,34214
67735,34210
67726,34206
67716,34204
67707,34203
67697,34202
67343,34202
67333,34203
" /> 
<polyline style="fill-rule:evenodd;"
points="66615,38209
66605,38210
66596,38212
66587,38216
66578,38220
66570,38225
66562,38231
66555,38237
66548,38244
66543,38252
66538,38260
66533,38269
66530,38278
66528,38287
66526,38297
66526,38307
66526,38661
66526,38671
66528,38680
66530,38689
66533,38699
66538,38707
66543,38716
66548,38723
66555,38731
66562,38737
66570,38743
66578,38748
66587,38752
66596,38755
66605,38757
66615,38759
66624,38759
66880,38759
66890,38759
66899,38757
66909,38755
66918,38752
66927,38748
66935,38743
66943,38737
66950,38731
66956,38723
66962,38716
66967,38707
66971,38699
66974,38689
66977,38680
66978,38671
66979,38661
66979,38307
66978,38297
66977,38287
66974,38278
66971,38269
66967,38260
66962,38252
66956,38244
66950,38237
66943,38231
66935,38225
66927,38220
66918,38216
66909,38212
66899,38210
66890,38209
66880,38208
66624,38208
66615,38209
" /> 
<polyline style="fill-rule:evenodd;"
points="65808,38209
65798,38210
65789,38212
65780,38216
65771,38220
65763,38225
65755,38231
65748,38237
65741,38244
65735,38252
65730,38260
65726,38269
65723,38278
65721,38287
65719,38297
65719,38307
65719,38661
65719,38671
65721,38680
65723,38689
65726,38699
65730,38707
65735,38716
65741,38723
65748,38731
65755,38737
65763,38743
65771,38748
65780,38752
65789,38755
65798,38757
65808,38759
65817,38759
66073,38759
66083,38759
66092,38757
66102,38755
66111,38752
66120,38748
66128,38743
66136,38737
66143,38731
66149,38723
66155,38716
66160,38707
66164,38699
66167,38689
66170,38680
66171,38671
66172,38661
66172,38307
66171,38297
66170,38287
66167,38278
66164,38269
66160,38260
66155,38252
66149,38244
66143,38237
66136,38231
66128,38225
66120,38220
66111,38216
66102,38212
66092,38210
66083,38209
66073,38208
65817,38208
65808,38209
" /> 
<polyline style="fill-rule:evenodd;"
points="73042,36181
73032,36182
73023,36185
73014,36188
73005,36192
72997,36197
72989,36203
72982,36209
72975,36217
72970,36224
72965,36233
72961,36241
72957,36250
72955,36260
72954,36269
72953,36279
72953,36535
72954,36545
72955,36554
72957,36564
72961,36573
72965,36581
72970,36590
72975,36597
72982,36605
72989,36611
72997,36617
73005,36622
73014,36626
73023,36629
73032,36631
73042,36633
73052,36633
73406,36633
73416,36633
73425,36631
73434,36629
73444,36626
73452,36622
73461,36617
73468,36611
73475,36605
73482,36597
73488,36590
73493,36581
73497,36573
73500,36564
73502,36554
73504,36545
73504,36535
73504,36279
73504,36269
73502,36260
73500,36250
73497,36241
73493,36233
73488,36224
73482,36217
73475,36209
73468,36203
73461,36197
73452,36192
73444,36188
73434,36185
73425,36182
73416,36181
73406,36181
73052,36181
73042,36181
" /> 
<polyline style="fill-rule:evenodd;"
points="73042,36988
73032,36990
73023,36992
73014,36995
73005,36999
72997,37004
72989,37010
72982,37017
72975,37024
72970,37031
72965,37040
72961,37048
72957,37058
72955,37067
72954,37076
72953,37086
72953,37342
72954,37352
72955,37361
72957,37371
72961,37380
72965,37388
72970,37397
72975,37404
72982,37412
72989,37418
72997,37424
73005,37429
73014,37433
73023,37436
73032,37439
73042,37440
73052,37440
73406,37440
73416,37440
73425,37439
73434,37436
73444,37433
73452,37429
73461,37424
73468,37418
73475,37412
73482,37404
73488,37397
73493,37388
73497,37380
73500,37371
73502,37361
73504,37352
73504,37342
73504,37086
73504,37076
73502,37067
73500,37058
73497,37048
73493,37040
73488,37031
73482,37024
73475,37017
73468,37010
73461,37004
73452,36999
73444,36995
73434,36992
73425,36990
73416,36988
73406,36988
73052,36988
73042,36988
" /> 
<polyline style="fill-rule:evenodd;"
points="66447,36181
66438,36182
66428,36185
66419,36188
66411,36192
66402,36197
66395,36203
66387,36209
66381,36217
66375,36224
66370,36233
66366,36241
66363,36250
66361,36260
66359,36269
66359,36279
66359,36535
66359,36545
66361,36554
66363,36564
66366,36573
66370,36581
66375,36590
66381,36597
66387,36605
66395,36611
66402,36617
66411,36622
66419,36626
66428,36629
66438,36631
66447,36633
66457,36633
66811,36633
66821,36633
66831,36631
66840,36629
66849,36626
66858,36622
66866,36617
66874,36611
66881,36605
66887,36597
66893,36590
66898,36581
66902,36573
66906,36564
66908,36554
66909,36545
66910,36535
66910,36279
66909,36269
66908,36260
66906,36250
66902,36241
66898,36233
66893,36224
66887,36217
66881,36209
66874,36203
66866,36197
66858,36192
66849,36188
66840,36185
66831,36182
66821,36181
66811,36181
66457,36181
66447,36181
" /> 
<polyline style="fill-rule:evenodd;"
points="66447,36988
66438,36990
66428,36992
66419,36995
66411,36999
66402,37004
66395,37010
66387,37017
66381,37024
66375,37031
66370,37040
66366,37048
66363,37058
66361,37067
66359,37076
66359,37086
66359,37342
66359,37352
66361,37361
66363,37371
66366,37380
66370,37388
66375,37397
66381,37404
66387,37412
66395,37418
66402,37424
66411,37429
66419,37433
66428,37436
66438,37439
66447,37440
66457,37440
66811,37440
66821,37440
66831,37439
66840,37436
66849,37433
66858,37429
66866,37424
66874,37418
66881,37412
66887,37404
66893,37397
66898,37388
66902,37380
66906,37371
66908,37361
66909,37352
66910,37342
66910,37086
66909,37076
66908,37067
66906,37058
66902,37048
66898,37040
66893,37031
66887,37024
66881,37017
66874,37010
66866,37004
66858,36999
66849,36995
66840,36992
66831,36990
66821,36988
66811,36988
66457,36988
66447,36988
" /> 
<polyline style="fill-rule:evenodd;"
points="72254,36988
72245,36990
72236,36992
72226,36995
72218,36999
72209,37004
72202,37010
72195,37017
72188,37024
72182,37031
72177,37040
72173,37048
72170,37058
72168,37067
72166,37076
72166,37086
72166,37342
72166,37352
72168,37361
72170,37371
72173,37380
72177,37388
72182,37397
72188,37404
72195,37412
72202,37418
72209,37424
72218,37429
72226,37433
72236,37436
72245,37439
72254,37440
72264,37440
72618,37440
72628,37440
72638,37439
72647,37436
72656,37433
72665,37429
72673,37424
72681,37418
72688,37412
72695,37404
72700,37397
72705,37388
72709,37380
72713,37371
72715,37361
72716,37352
72717,37342
72717,37086
72716,37076
72715,37067
72713,37058
72709,37048
72705,37040
72700,37031
72695,37024
72688,37017
72681,37010
72673,37004
72665,36999
72656,36995
72647,36992
72638,36990
72628,36988
72618,36988
72264,36988
72254,36988
" /> 
<polyline style="fill-rule:evenodd;"
points="72254,36181
72245,36182
72236,36185
72226,36188
72218,36192
72209,36197
72202,36203
72195,36209
72188,36217
72182,36224
72177,36233
72173,36241
72170,36250
72168,36260
72166,36269
72166,36279
72166,36535
72166,36545
72168,36554
72170,36564
72173,36573
72177,36581
72182,36590
72188,36597
72195,36605
72202,36611
72209,36617
72218,36622
72226,36626
72236,36629
72245,36631
72254,36633
72264,36633
72618,36633
72628,36633
72638,36631
72647,36629
72656,36626
72665,36622
72673,36617
72681,36611
72688,36605
72695,36597
72700,36590
72705,36581
72709,36573
72713,36564
72715,36554
72716,36545
72717,36535
72717,36279
72716,36269
72715,36260
72713,36250
72709,36241
72705,36233
72700,36224
72695,36217
72688,36209
72681,36203
72673,36197
72665,36192
72656,36188
72647,36185
72638,36182
72628,36181
72618,36181
72264,36181
72254,36181
" /> 
<polyline style="fill-rule:evenodd;"
points="65660,36988
65650,36990
65641,36992
65632,36995
65623,36999
65615,37004
65607,37010
65600,37017
65594,37024
65588,37031
65583,37040
65579,37048
65575,37058
65573,37067
65572,37076
65571,37086
65571,37342
65572,37352
65573,37361
65575,37371
65579,37380
65583,37388
65588,37397
65594,37404
65600,37412
65607,37418
65615,37424
65623,37429
65632,37433
65641,37436
65650,37439
65660,37440
65670,37440
66024,37440
66034,37440
66043,37439
66053,37436
66062,37433
66070,37429
66079,37424
66086,37418
66094,37412
66100,37404
66106,37397
66111,37388
66115,37380
66118,37371
66121,37361
66122,37352
66122,37342
66122,37086
66122,37076
66121,37067
66118,37058
66115,37048
66111,37040
66106,37031
66100,37024
66094,37017
66086,37010
66079,37004
66070,36999
66062,36995
66053,36992
66043,36990
66034,36988
66024,36988
65670,36988
65660,36988
" /> 
<polyline style="fill-rule:evenodd;"
points="65660,36181
65650,36182
65641,36185
65632,36188
65623,36192
65615,36197
65607,36203
65600,36209
65594,36217
65588,36224
65583,36233
65579,36241
65575,36250
65573,36260
65572,36269
65571,36279
65571,36535
65572,36545
65573,36554
65575,36564
65579,36573
65583,36581
65588,36590
65594,36597
65600,36605
65607,36611
65615,36617
65623,36622
65632,36626
65641,36629
65650,36631
65660,36633
65670,36633
66024,36633
66034,36633
66043,36631
66053,36629
66062,36626
66070,36622
66079,36617
66086,36611
66094,36605
66100,36597
66106,36590
66111,36581
66115,36573
66118,36564
66121,36554
66122,36545
66122,36535
66122,36279
66122,36269
66121,36260
66118,36250
66115,36241
66111,36233
66106,36224
66100,36217
66094,36209
66086,36203
66079,36197
66070,36192
66062,36188
66053,36185
66043,36182
66034,36181
66024,36181
65670,36181
65660,36181
" /> 
<polyline style="fill-rule:evenodd;"
points="72552,35319
73025,35319
73025,34965
72552,34965
72552,35319
" /> 
<polyline style="fill-rule:evenodd;"
points="72552,34020
73025,34020
73025,33666
72552,33666
72552,34020
" /> 
<polyline style="fill-rule:evenodd;"
points="71765,34020
72237,34020
72237,33666
71765,33666
71765,34020
" /> 
<polyline style="fill-rule:evenodd;"
points="71765,35319
72237,35319
72237,34965
71765,34965
71765,35319
" /> 
<polyline style="fill-rule:evenodd;"
points="74981,31929
74981,31456
74626,31456
74626,31929
74981,31929
" /> 
<polyline style="fill-rule:evenodd;"
points="73681,31929
73681,31456
73327,31456
73327,31929
73681,31929
" /> 
<polyline style="fill-rule:evenodd;"
points="72737,28937
74902,28937
74902,27755
72737,27755
72737,28937
" /> 
<polyline style="fill-rule:evenodd;"
points="72737,30787
74902,30787
74902,29606
72737,29606
72737,30787
" /> 
<polyline style="fill-rule:evenodd;"
points="74154,33937
74469,33937
74469,33582
74154,33582
74154,33937
" /> 
<polyline style="fill-rule:evenodd;"
points="73780,34724
74095,34724
74095,34370
73780,34370
73780,34724
" /> 
<polyline style="fill-rule:evenodd;"
points="74528,34724
74843,34724
74843,34370
74528,34370
74528,34724
" /> 
<polyline style="fill-rule:evenodd;"
points="65965,33385
65965,33700
66319,33700
66319,33385
65965,33385
" /> 
<polyline style="fill-rule:evenodd;"
points="65965,32637
65965,32952
66319,32952
66319,32637
65965,32637
" /> 
<polyline style="fill-rule:evenodd;"
points="66752,33011
66752,33326
67107,33326
67107,33011
66752,33011
" /> 
<polyline style="fill-rule:evenodd;"
points="73760,37913
73751,37915
73741,37917
73732,37920
73724,37925
73715,37929
73708,37935
73700,37942
73694,37949
73688,37957
73683,37965
73679,37974
73676,37983
73674,37992
73672,38002
73672,38011
73672,38366
73672,38375
73674,38385
73676,38394
73679,38403
73683,38412
73688,38420
73694,38428
73700,38435
73708,38442
73715,38447
73724,38452
73732,38457
73741,38460
73751,38462
73760,38464
73770,38464
74026,38464
74036,38464
74045,38462
74055,38460
74064,38457
74072,38452
74081,38447
74088,38442
74096,38435
74102,38428
74108,38420
74113,38412
74117,38403
74120,38394
74122,38385
74124,38375
74124,38366
74124,38011
74124,38002
74122,37992
74120,37983
74117,37974
74113,37965
74108,37957
74102,37949
74096,37942
74088,37935
74081,37929
74072,37925
74064,37920
74055,37917
74045,37915
74036,37913
74026,37913
73770,37913
73760,37913
" /> 
<polyline style="fill-rule:evenodd;"
points="74567,37913
74558,37915
74549,37917
74539,37920
74531,37925
74522,37929
74515,37935
74508,37942
74501,37949
74495,37957
74490,37965
74486,37974
74483,37983
74481,37992
74479,38002
74479,38011
74479,38366
74479,38375
74481,38385
74483,38394
74486,38403
74490,38412
74495,38420
74501,38428
74508,38435
74515,38442
74522,38447
74531,38452
74539,38457
74549,38460
74558,38462
74567,38464
74577,38464
74833,38464
74843,38464
74852,38462
74862,38460
74871,38457
74879,38452
74888,38447
74895,38442
74903,38435
74909,38428
74915,38420
74920,38412
74924,38403
74927,38394
74930,38385
74931,38375
74931,38366
74931,38011
74931,38002
74930,37992
74927,37983
74924,37974
74920,37965
74915,37957
74909,37949
74903,37942
74895,37935
74888,37929
74879,37925
74871,37920
74862,37917
74852,37915
74843,37913
74833,37913
74577,37913
74567,37913
" /> 
<polyline style="fill-rule:evenodd;"
points="73810,36984
73801,36985
73791,36987
73782,36991
73773,36995
73765,37000
73757,37006
73750,37012
73744,37019
73738,37027
73733,37035
73729,37044
73726,37053
73723,37062
73722,37072
73721,37082
73721,37338
73722,37347
73723,37357
73726,37366
73729,37375
73733,37384
73738,37392
73744,37400
73750,37407
73757,37414
73765,37419
73773,37424
73782,37428
73791,37432
73801,37434
73810,37435
73820,37436
74174,37436
74184,37435
74193,37434
74203,37432
74212,37428
74221,37424
74229,37419
74237,37414
74244,37407
74250,37400
74256,37392
74261,37384
74265,37375
74268,37366
74271,37357
74272,37347
74273,37338
74273,37082
74272,37072
74271,37062
74268,37053
74265,37044
74261,37035
74256,37027
74250,37019
74244,37012
74237,37006
74229,37000
74221,36995
74212,36991
74203,36987
74193,36985
74184,36984
74174,36983
73820,36983
73810,36984
" /> 
<polyline style="fill-rule:evenodd;"
points="73810,36177
73801,36178
73791,36180
73782,36184
73773,36188
73765,36193
73757,36198
73750,36205
73744,36212
73738,36220
73733,36228
73729,36237
73726,36246
73723,36255
73722,36265
73721,36275
73721,36530
73722,36540
73723,36550
73726,36559
73729,36568
73733,36577
73738,36585
73744,36593
73750,36600
73757,36607
73765,36612
73773,36617
73782,36621
73791,36625
73801,36627
73810,36628
73820,36629
74174,36629
74184,36628
74193,36627
74203,36625
74212,36621
74221,36617
74229,36612
74237,36607
74244,36600
74250,36593
74256,36585
74261,36577
74265,36568
74268,36559
74271,36550
74272,36540
74273,36530
74273,36275
74272,36265
74271,36255
74268,36246
74265,36237
74261,36228
74256,36220
74250,36212
74244,36205
74237,36198
74229,36193
74221,36188
74212,36184
74203,36180
74193,36178
74184,36177
74174,36176
73820,36176
73810,36177
" /> 
<polyline style="fill-rule:evenodd;"
points="70331,29916
70178,29763
69732,30208
69885,30361
70331,29916
" /> 
<polyline style="fill-rule:evenodd;"
points="70553,30138
70400,29985
69955,30431
70108,30584
70553,30138
" /> 
<polyline style="fill-rule:evenodd;"
points="70776,30361
70623,30208
70178,30653
70331,30806
70776,30361
" /> 
<polyline style="fill-rule:evenodd;"
points="70999,30584
70846,30431
70400,30876
70553,31029
70999,30584
" /> 
<polyline style="fill-rule:evenodd;"
points="71222,30806
71068,30653
70623,31099
70776,31252
71222,30806
" /> 
<polyline style="fill-rule:evenodd;"
points="71444,31029
71291,30876
70846,31321
70999,31475
71444,31029
" /> 
<polyline style="fill-rule:evenodd;"
points="71667,31252
71514,31099
71068,31544
71222,31697
71667,31252
" /> 
<polyline style="fill-rule:evenodd;"
points="71890,31475
71737,31321
71291,31767
71444,31920
71890,31475
" /> 
<polyline style="fill-rule:evenodd;"
points="71737,32727
71890,32574
71444,32129
71291,32282
71737,32727
" /> 
<polyline style="fill-rule:evenodd;"
points="71514,32950
71667,32797
71222,32352
71068,32505
71514,32950
" /> 
<polyline style="fill-rule:evenodd;"
points="71291,33173
71444,33020
70999,32574
70846,32727
71291,33173
" /> 
<polyline style="fill-rule:evenodd;"
points="71068,33395
71222,33242
70776,32797
70623,32950
71068,33395
" /> 
<polyline style="fill-rule:evenodd;"
points="70846,33618
70999,33465
70553,33020
70400,33173
70846,33618
" /> 
<polyline style="fill-rule:evenodd;"
points="70623,33841
70776,33688
70331,33242
70178,33395
70623,33841
" /> 
<polyline style="fill-rule:evenodd;"
points="70400,34064
70553,33911
70108,33465
69955,33618
70400,34064
" /> 
<polyline style="fill-rule:evenodd;"
points="70178,34286
70331,34133
69885,33688
69732,33841
70178,34286
" /> 
<polyline style="fill-rule:evenodd;"
points="69523,33841
69370,33688
68925,34133
69078,34286
69523,33841
" /> 
<polyline style="fill-rule:evenodd;"
points="69301,33618
69148,33465
68702,33911
68855,34064
69301,33618
" /> 
<polyline style="fill-rule:evenodd;"
points="69078,33395
68925,33242
68479,33688
68633,33841
69078,33395
" /> 
<polyline style="fill-rule:evenodd;"
points="68855,33173
68702,33020
68257,33465
68410,33618
68855,33173
" /> 
<polyline style="fill-rule:evenodd;"
points="68633,32950
68479,32797
68034,33242
68187,33395
68633,32950
" /> 
<polyline style="fill-rule:evenodd;"
points="68410,32727
68257,32574
67811,33020
67964,33173
68410,32727
" /> 
<polyline style="fill-rule:evenodd;"
points="68187,32505
68034,32352
67589,32797
67742,32950
68187,32505
" /> 
<polyline style="fill-rule:evenodd;"
points="67964,32282
67811,32129
67366,32574
67519,32727
67964,32282
" /> 
<polyline style="fill-rule:evenodd;"
points="67811,31920
67964,31767
67519,31321
67366,31475
67811,31920
" /> 
<polyline style="fill-rule:evenodd;"
points="68034,31697
68187,31544
67742,31099
67589,31252
68034,31697
" /> 
<polyline style="fill-rule:evenodd;"
points="68257,31475
68410,31321
67964,30876
67811,31029
68257,31475
" /> 
<polyline style="fill-rule:evenodd;"
points="68479,31252
68633,31099
68187,30653
68034,30806
68479,31252
" /> 
<polyline style="fill-rule:evenodd;"
points="68702,31029
68855,30876
68410,30431
68257,30584
68702,31029
" /> 
<polyline style="fill-rule:evenodd;"
points="68925,30806
69078,30653
68633,30208
68479,30361
68925,30806
" /> 
<polyline style="fill-rule:evenodd;"
points="69148,30584
69301,30431
68855,29985
68702,30138
69148,30584
" /> 
<polyline style="fill-rule:evenodd;"
points="69370,30361
69523,30208
69078,29763
68925,29916
69370,30361
" /> 
<polyline style="fill-rule:evenodd;"
points="71083,25405
71083,25169
70492,25169
70492,25405
71083,25405
" /> 
<polyline style="fill-rule:evenodd;"
points="71083,25905
71083,25669
70492,25669
70492,25905
71083,25905
" /> 
<polyline style="fill-rule:evenodd;"
points="71083,26405
71083,26169
70492,26169
70492,26405
71083,26405
" /> 
<polyline style="fill-rule:evenodd;"
points="71083,26905
71083,26669
70492,26669
70492,26905
71083,26905
" /> 
<polyline style="fill-rule:evenodd;"
points="71083,27405
71083,27169
70492,27169
70492,27405
71083,27405
" /> 
<polyline style="fill-rule:evenodd;"
points="71083,27905
71083,27669
70492,27669
70492,27905
71083,27905
" /> 
<polyline style="fill-rule:evenodd;"
points="71083,28405
71083,28169
70492,28169
70492,28405
71083,28405
" /> 
<polyline style="fill-rule:evenodd;"
points="71083,28905
71083,28669
70492,28669
70492,28905
71083,28905
" /> 
<polyline style="fill-rule:evenodd;"
points="67422,28905
67422,28669
66831,28669
66831,28905
67422,28905
" /> 
<polyline style="fill-rule:evenodd;"
points="67422,28405
67422,28169
66831,28169
66831,28405
67422,28405
" /> 
<polyline style="fill-rule:evenodd;"
points="67422,27905
67422,27669
66831,27669
66831,27905
67422,27905
" /> 
<polyline style="fill-rule:evenodd;"
points="67422,27405
67422,27169
66831,27169
66831,27405
67422,27405
" /> 
<polyline style="fill-rule:evenodd;"
points="67422,26905
67422,26669
66831,26669
66831,26905
67422,26905
" /> 
<polyline style="fill-rule:evenodd;"
points="67422,26405
67422,26169
66831,26169
66831,26405
67422,26405
" /> 
<polyline style="fill-rule:evenodd;"
points="67422,25905
67422,25669
66831,25669
66831,25905
67422,25905
" /> 
<polyline style="fill-rule:evenodd;"
points="67422,25405
67422,25169
66831,25169
66831,25405
67422,25405
" /> 
<polyline style="fill-rule:evenodd;"
points="69597,36998
69587,36999
69578,37002
69569,37005
69560,37009
69552,37014
69544,37020
69537,37026
69531,37034
69525,37041
69520,37050
69516,37058
69512,37067
69510,37077
69509,37086
69508,37096
69508,37352
69509,37362
69510,37371
69512,37380
69516,37390
69520,37398
69525,37407
69531,37414
69537,37421
69544,37428
69552,37434
69560,37439
69569,37443
69578,37446
69587,37448
69597,37450
69607,37450
69961,37450
69971,37450
69980,37448
69990,37446
69999,37443
70007,37439
70016,37434
70023,37428
70031,37421
70037,37414
70043,37407
70048,37398
70052,37390
70055,37380
70058,37371
70059,37362
70059,37352
70059,37096
70059,37086
70058,37077
70055,37067
70052,37058
70048,37050
70043,37041
70037,37034
70031,37026
70023,37020
70016,37014
70007,37009
69999,37005
69990,37002
69980,36999
69971,36998
69961,36998
69607,36998
69597,36998
" /> 
<polyline style="fill-rule:evenodd;"
points="69597,36191
69587,36192
69578,36195
69569,36198
69560,36202
69552,36207
69544,36213
69537,36219
69531,36226
69525,36234
69520,36242
69516,36251
69512,36260
69510,36270
69509,36279
69508,36289
69508,36545
69509,36554
69510,36564
69512,36573
69516,36582
69520,36591
69525,36599
69531,36607
69537,36614
69544,36621
69552,36627
69560,36632
69569,36636
69578,36639
69587,36641
69597,36643
69607,36643
69961,36643
69971,36643
69980,36641
69990,36639
69999,36636
70007,36632
70016,36627
70023,36621
70031,36614
70037,36607
70043,36599
70048,36591
70052,36582
70055,36573
70058,36564
70059,36554
70059,36545
70059,36289
70059,36279
70058,36270
70055,36260
70052,36251
70048,36242
70043,36234
70037,36226
70031,36219
70023,36213
70016,36207
70007,36202
69999,36198
69990,36195
69980,36192
69971,36191
69961,36190
69607,36190
69597,36191
" /> 
<circle cx="74804" cy="32283.5" r="196.85" /> 
</g>
<g style="fill:#000000; fill-opacity:1.0; 
stroke:#000000; stroke-width:39.3701; stroke-opacity:1; 
stroke-linecap:round; stroke-linejoin:round;">
</g>
<g style="fill:#000000; fill-opacity:1.0; 
stroke:#000000; stroke-width:0; stroke-opacity:1; 
stroke-linecap:round; stroke-linejoin:round;">
<circle cx="68701.7" cy="39566.9" r="196.85" /> 
</g>
<g style="fill:#000000; fill-opacity:1.0; 
stroke:#000000; stroke-width:39.3701; stroke-opacity:1; 
stroke-linecap:round; stroke-linejoin:round;">
</g>
<g style="fill:#000000; fill-opacity:1.0; 
stroke:#000000; stroke-width:0; stroke-opacity:1; 
stroke-linecap:round; stroke-linejoin:round;">
<circle cx="73426.1" cy="33661.4" r="196.85" /> 
</g>
<g style="fill:#000000; fill-opacity:1.0; 
stroke:#000000; stroke-width:39.3701; stroke-opacity:1; 
stroke-linecap:round; stroke-linejoin:round;">
</g>
<g style="fill:#000000; fill-opacity:1.0; 
stroke:#000000; stroke-width:0; stroke-opacity:1; 
stroke-linecap:round; stroke-linejoin:round;">
<circle cx="68111.1" cy="39566.9" r="196.85" /> 
</g>
<g style="fill:#000000; fill-opacity:1.0; 
stroke:#000000; stroke-width:39.3701; stroke-opacity:1; 
stroke-linecap:round; stroke-linejoin:round;">
</g>
<g style="fill:#000000; fill-opacity:1.0; 
stroke:#000000; stroke-width:0; stroke-opacity:1; 
stroke-linecap:round; stroke-linejoin:round;">
<circle cx="74705.6" cy="38976.4" r="196.85" /> 
</g>
<g style="fill:#000000; fill-opacity:1.0; 
stroke:#000000; stroke-width:39.3701; stroke-opacity:1; 
stroke-linecap:round; stroke-linejoin:round;">
</g>
<g style="fill:#000000; fill-opacity:1.0; 
stroke:#000000; stroke-width:0; stroke-opacity:1; 
stroke-linecap:round; stroke-linejoin:round;">
<circle cx="73937.9" cy="35118.1" r="196.85" /> 
</g>
<g style="fill:#000000; fill-opacity:1.0; 
stroke:#000000; stroke-width:39.3701; stroke-opacity:1; 
stroke-linecap:round; stroke-linejoin:round;">
</g>
<g style="fill:#000000; fill-opacity:1.0; 
stroke:#000000; stroke-width:0; stroke-opacity:1; 
stroke-linecap:round; stroke-linejoin:round;">
<circle cx="70079.6" cy="39468.5" r="196.85" /> 
</g>
<g style="fill:#000000; fill-opacity:1.0; 
stroke:#000000; stroke-width:39.3701; stroke-opacity:1; 
stroke-linecap:round; stroke-linejoin:round;">
</g>
<g style="fill:#000000; fill-opacity:1.0; 
stroke:#000000; stroke-width:0; stroke-opacity:1; 
stroke-linecap:round; stroke-linejoin:round;">
<circle cx="69882.8" cy="32874" r="196.85" /> 
</g>
<g style="fill:#000000; fill-opacity:1.0; 
stroke:#000000; stroke-width:39.3701; stroke-opacity:1; 
stroke-linecap:round; stroke-linejoin:round;">
</g>
<g style="fill:#000000; fill-opacity:1.0; 
stroke:#000000; stroke-width:157.48; stroke-opacity:1; 
stroke-linecap:round; stroke-linejoin:round;">
</g>
<g style="fill:#000000; fill-opacity:0.0; 
stroke:#000000; stroke-width:157.48; stroke-opacity:1; 
stroke-linecap:round; stroke-linejoin:round;">
<path d="M71241 25787
L70788 25787
" />
<path d="M72866 25787
L71241 25787
" />
<path d="M74213 24440
L72866 25787
" />
<path d="M74213 24015
L74213 24440
" />
<path d="M73819 27598
L72835 26614
" />
<path d="M73819 28346
L73819 27598
" />
<path d="M72835 26614
L72835 25885
" />
<path d="M73084 28346
L70965 30465
" />
<path d="M73819 28346
L73084 28346
" />
<path d="M70965 30465
L70700 30730
" />
<path d="M69252 33514
L69252 32178
" />
<path d="M69001 33764
L69252 33514
" />
<path d="M71145 31175
L70530 31791
" />
<path d="M70126 31791
L69882 31547
" />
<path d="M70530 31791
L70126 31791
" />
<path d="M69882 31547
L70700 30730
" />
<path d="M69252 32178
L69882 31547
" />
<path d="M68337 34429
L69001 33764
" />
<path d="M67520 34429
L68337 34429
" />
</g>
<g style="fill:#000000; fill-opacity:0.0; 
stroke:#000000; stroke-width:78.7402; stroke-opacity:1; 
stroke-linecap:round; stroke-linejoin:round;">
<path d="M69882 38976
L69685 38976
" />
<path d="M69685 38582
L69685 38976
" />
</g>
<g style="fill:#000000; fill-opacity:0.0; 
stroke:#000000; stroke-width:157.48; stroke-opacity:1; 
stroke-linecap:round; stroke-linejoin:round;">
<path d="M66752 34429
L66733 34448
" />
<path d="M67520 34429
L66752 34429
" />
</g>
<g style="fill:#000000; fill-opacity:0.0; 
stroke:#000000; stroke-width:78.7402; stroke-opacity:1; 
stroke-linecap:round; stroke-linejoin:round;">
<path d="M69685 38090
L69685 38582
" />
<path d="M70276 37500
L69685 38090
" />
<path d="M70276 36220
L70276 37500
" />
</g>
<g style="fill:#000000; fill-opacity:0.0; 
stroke:#000000; stroke-width:157.48; stroke-opacity:1; 
stroke-linecap:round; stroke-linejoin:round;">
<path d="M68337 34429
L68337 34675
" />
</g>
<g style="fill:#000000; fill-opacity:0.0; 
stroke:#000000; stroke-width:78.7402; stroke-opacity:1; 
stroke-linecap:round; stroke-linejoin:round;">
<path d="M69882 35826
L70276 36220
" />
</g>
<g style="fill:#000000; fill-opacity:0.0; 
stroke:#000000; stroke-width:157.48; stroke-opacity:1; 
stroke-linecap:round; stroke-linejoin:round;">
<path d="M68337 34675
L69489 35826
" />
<path d="M69489 35826
L69587 35826
" />
</g>
<g style="fill:#000000; fill-opacity:0.0; 
stroke:#000000; stroke-width:78.7402; stroke-opacity:1; 
stroke-linecap:round; stroke-linejoin:round;">
<path d="M69587 35826
L69882 35826
" />
<path d="M68898 24015
L66733 24015
" />
<path d="M66733 24015
L65945 24803
" />
<path d="M65945 24803
L65945 25984
" />
<path d="M66248 26287
L67126 26287
" />
<path d="M65945 25984
L66248 26287
" />
<path d="M66142 33779
L65847 34074
" />
<path d="M66142 33543
L66142 33779
" />
<path d="M65847 34074
L65847 35925
" />
<path d="M66733 35255
L66733 35826
" />
<path d="M66733 35826
L66733 35925
" />
<path d="M67520 35236
L67520 35925
" />
<path d="M65601 36652
L65513 36652
" />
<path d="M65847 36407
L65601 36652
" />
<path d="M65513 36652
L65453 36712
" />
<path d="M65453 36712
L65453 36811
" />
<path d="M72001 35398
L72146 35543
" />
<path d="M72001 35142
L72001 35398
" />
<path d="M72146 35543
L72146 35826
" />
<path d="M72146 35826
L72146 35925
" />
<path d="M73898 38188
L73898 37814
" />
<path d="M73898 37814
L74016 37696
" />
<path d="M72789 34886
L72789 35142
" />
<path d="M72001 34099
L72789 34886
" />
<path d="M72001 33843
L72001 34099
" />
<path d="M72638 32775
L73426 32775
" />
<path d="M72001 33412
L72638 32775
" />
<path d="M72001 33843
L72001 33412
" />
<path d="M73504 31771
L74233 32500
" />
<path d="M74233 32500
L74233 32775
" />
<path d="M73504 31692
L73504 31771
" />
<path d="M73504 30511
L73819 30196
" />
<path d="M73504 31692
L73504 30511
" />
<path d="M74233 32775
L74233 33287
" />
<path d="M74311 33366
L74311 33759
" />
<path d="M74233 33287
L74311 33366
" />
<path d="M74804 32007
L74804 31692
" />
<path d="M67422 37696
L67422 37224
" />
<path d="M68701 38976
L68701 38385
" />
<path d="M68701 38385
L68406 38090
" />
<path d="M68406 38090
L67815 38090
" />
<path d="M67815 38090
L67422 37696
" />
<path d="M74804 32007
L74804 32283
" />
<path d="M74804 32185
L74804 32283
" />
<path d="M74804 32283
L74804 32185
" />
<path d="M68701 38976
L68701 39566
" />
<path d="M68701 39566
L68701 39566
" />
<path d="M68209 37795
L68209 37244
" />
<path d="M68898 38976
L68898 38188
" />
<path d="M68898 38188
L68603 37893
" />
<path d="M68307 37893
L68209 37795
" />
<path d="M68603 37893
L68307 37893
" />
<path d="M66930 38976
L66644 38690
" />
<path d="M68111 38976
L66930 38976
" />
<path d="M73032 37696
L73032 37214
" />
<path d="M72048 38681
L73032 37696
" />
<path d="M72048 38976
L72048 38681
" />
<path d="M69292 38976
L69292 38582
" />
<path d="M69292 38582
L69390 38484
" />
<path d="M69390 38484
L69390 37992
" />
<path d="M69784 37598
L69784 37224
" />
<path d="M69390 37992
L69784 37598
" />
<path d="M66831 37795
L66634 37598
" />
<path d="M67126 37795
L66831 37795
" />
<path d="M67323 37992
L67126 37795
" />
<path d="M67323 38188
L67323 37992
" />
<path d="M68504 38976
L68504 38582
" />
<path d="M66634 37598
L66634 37214
" />
<path d="M68504 38582
L68307 38385
" />
<path d="M68307 38385
L67520 38385
" />
<path d="M67520 38385
L67323 38188
" />
<path d="M71851 38976
L71851 38484
" />
<path d="M71851 38484
L72244 38090
" />
<path d="M72244 38090
L72244 37214
" />
<path d="M68996 37795
L68996 37244
" />
<path d="M69095 37893
L68996 37795
" />
<path d="M69095 38976
L69095 37893
" />
<path d="M73243 33843
L73426 33661
" />
<path d="M72789 33843
L73243 33843
" />
<path d="M65847 37893
L65847 37214
" />
<path d="M65945 37992
L65847 37893
" />
<path d="M67028 37992
L65945 37992
" />
<path d="M68307 38976
L68307 38779
" />
<path d="M67126 38090
L67028 37992
" />
<path d="M67126 38287
L67126 38090
" />
<path d="M68111 38582
L67422 38582
" />
<path d="M68307 38779
L68111 38582
" />
<path d="M67422 38582
L67126 38287
" />
<path d="M68307 39212
L68111 39566
" />
<path d="M68307 38976
L68307 39212
" />
<path d="M68111 39409
L68111 39566
" />
<path d="M68111 39566
L68111 39409
" />
<path d="M72441 38976
L72441 38858
" />
<path d="M74705 38188
L74705 38503
" />
<path d="M74705 38503
L74705 38976
" />
<path d="M74705 38976
L74705 38976
" />
<path d="M73937 34547
L73937 35118
" />
<path d="M73937 35118
L73937 35118
" />
<path d="M72441 38976
L74705 38976
" />
<path d="M73800 37617
L73800 37210
" />
<path d="M73426 37696
L73721 37696
" />
<path d="M73327 37992
L73327 37795
" />
<path d="M73327 37795
L73426 37696
" />
<path d="M72244 38976
L72244 38779
" />
<path d="M72441 38582
L72737 38582
" />
<path d="M72244 38779
L72441 38582
" />
<path d="M73721 37696
L73800 37617
" />
<path d="M72737 38582
L73327 37992
" />
<path d="M74404 37210
L73997 37210
" />
<path d="M74685 34547
L74685 36521
" />
<path d="M74685 36521
L74705 36541
" />
<path d="M74705 36541
L74705 36909
" />
<path d="M74705 36909
L74404 37210
" />
<path d="M71145 32874
L71396 33124
" />
<path d="M71555 33267
L71555 35531
" />
<path d="M71555 35531
L71752 35728
" />
<path d="M71396 33124
L71412 33124
" />
<path d="M71412 33124
L71555 33267
" />
<path d="M71063 38976
L71063 38779
" />
<path d="M71063 38779
L71752 38090
" />
<path d="M71752 35728
L71752 38090
" />
<path d="M71260 33434
L70922 33096
" />
<path d="M71260 35629
L71260 35236
" />
<path d="M71437 35807
L71260 35629
" />
<path d="M71437 38011
L71437 35807
" />
<path d="M71260 35433
L71260 35236
" />
<path d="M71260 35236
L71260 33434
" />
<path d="M70867 38976
L70867 38582
" />
<path d="M70867 38582
L71437 38011
" />
<path d="M70670 38385
L70670 38976
" />
<path d="M71162 37893
L70670 38385
" />
<path d="M70700 33319
L70950 33569
" />
<path d="M70950 35615
L71162 35826
" />
<path d="M70950 33569
L70950 35615
" />
<path d="M71162 35826
L71162 37893
" />
<path d="M70727 34292
L70727 33792
" />
<path d="M70727 33792
L70477 33542
" />
<path d="M70670 34350
L70727 34292
" />
<path d="M70473 38976
L70473 38090
" />
<path d="M70473 38090
L70867 37696
" />
<path d="M70867 37696
L70867 35925
" />
<path d="M70670 35728
L70670 35137
" />
<path d="M70867 35925
L70670 35728
" />
<path d="M70670 35137
L70670 34350
" />
<path d="M70670 35236
L70670 35137
" />
<path d="M70079 38582
L70276 38779
" />
<path d="M70079 37992
L70079 38582
" />
<path d="M69224 33987
L70178 34940
" />
<path d="M70178 34940
L70178 35728
" />
<path d="M70276 38779
L70276 38976
" />
<path d="M70571 37500
L70079 37992
" />
<path d="M70178 35728
L70571 36122
" />
<path d="M70571 36122
L70571 37500
" />
<path d="M70079 38976
L70079 39468
" />
<path d="M70079 39271
L70079 39370
" />
<path d="M70079 39370
L70079 39468
" />
<path d="M70079 39468
L70079 39271
" />
<path d="M70254 33764
L69882 33392
" />
<path d="M69882 33392
L69882 32874
" />
<path d="M69882 32874
L69882 32874
" />
<path d="M66162 32795
L66674 32283
" />
<path d="M66142 32795
L66162 32795
" />
<path d="M67520 32283
L67665 32428
" />
<path d="M66674 32283
L67520 32283
" />
<path d="M70031 26669
L70031 29869
" />
<path d="M70031 29869
L70031 30062
" />
<path d="M70414 26287
L70031 26669
" />
<path d="M70788 26287
L70414 26287
" />
<path d="M67717 30782
L68111 31175
" />
<path d="M67717 30118
L67717 30782
" />
<path d="M67126 25787
L67717 25787
" />
<path d="M68307 26377
L68307 29527
" />
<path d="M67717 25787
L68307 26377
" />
<path d="M68307 29527
L67717 30118
" />
<path d="M67126 25287
L68004 25287
" />
<path d="M68004 25287
L68800 26082
" />
<path d="M68800 26082
L68800 29527
" />
<path d="M68083 30702
L68333 30953
" />
<path d="M68083 30244
L68083 30702
" />
<path d="M68800 29527
L68083 30244
" />
</g>
<g style="fill:#000000; fill-opacity:1.0; 
stroke:#000000; stroke-width:78.7402; stroke-opacity:1; 
stroke-linecap:round; stroke-linejoin:round;">
<polyline style="fill-rule:evenodd;"
points="74843,36465
74851,36480
74856,36497
74860,36510
74863,36541
74863,36549
74863,36901
74863,36909
74860,36940
74851,36970
74837,36997
74822,37015
74822,37015
74817,37021
74811,37026
74521,37315
74516,37321
74492,37341
74465,37356
74435,37365
74412,37367
74412,37367
74404,37368
74397,37367
74388,37367
74387,37380
74375,37421
74355,37458
74328,37491
74295,37518
74257,37538
74217,37550
74174,37555
73958,37555
73958,37609
73958,37617
73957,37636
73955,37648
73948,37674
73959,37674
73959,37733
74018,37674
74148,37674
74194,37683
74238,37701
74277,37727
74310,37760
74337,37800
74355,37843
74364,37889
74364,37974
74364,37969
74377,37928
74397,37891
74424,37858
74457,37831
74494,37811
74535,37798
74577,37794
74833,37794
74875,37798
74916,37811
74954,37831
74987,37858
75014,37891
75034,37928
75046,37969
75050,38011
75050,38366
75046,38408
75034,38449
75014,38486
74987,38519
74954,38546
74916,38566
74875,38579
74863,38580
74863,38702
74906,38731
74950,38775
74984,38827
75008,38884
75020,38945
75020,39007
75008,39068
74984,39125
74950,39177
74906,39221
74854,39255
74797,39279
74736,39291
74674,39291
74613,39279
74556,39255
74504,39221
74460,39177
74432,39133
72599,39133
72597,39157
72590,39179
72579,39199
72565,39217
72547,39232
72526,39243
72504,39250
72481,39252
72402,39252
72379,39250
72357,39243
72343,39236
72329,39243
72307,39250
72284,39252
72205,39252
72182,39250
72160,39243
72146,39236
72132,39243
72110,39250
72087,39252
72008,39252
71985,39250
71963,39243
71949,39236
71936,39243
71913,39250
71890,39252
71811,39252
71788,39250
71766,39243
71745,39232
71727,39217
71713,39199
71702,39179
71695,39157
71693,39133
71693,39096
71539,39096
71539,39157
71530,39203
71512,39247
71486,39286
71452,39319
71413,39345
71369,39364
71337,39370
71280,39313
71280,39037
71479,39037
71539,39096
71693,39096
71693,38818
71693,38813
71693,38491
71693,38484
71696,38453
71705,38423
71719,38396
71734,38378
71739,38372
71745,38367
72087,38025
72087,37467
72084,37463
72064,37425
72051,37384
72047,37342
72047,37086
72051,37044
72064,37003
72084,36965
72111,36933
72144,36906
72181,36886
72222,36873
72226,36873
72142,36873
72096,36864
72052,36845
72013,36819
71980,36786
71954,36747
71936,36703
71926,36657
71926,36527
71986,36468
72381,36468
72381,36475
72502,36475
72502,36468
73168,36468
73168,36475
73289,36475
73289,36468
73537,36468
73542,36463
73936,36463
73936,36471
74058,36471
74058,36463
74452,36463
74512,36523
74512,36652
74503,36699
74485,36742
74459,36781
74425,36815
74386,36841
74342,36859
74296,36868
74212,36868
74217,36869
74257,36881
74295,36901
74328,36928
74355,36961
74375,36999
74379,37012
74548,36844
74548,36597
74539,36582
74530,36552
74528,36529
74528,36529
74527,36521
74528,36513
74528,36153
74512,36153
74512,36282
74452,36342
74058,36342
74058,35997
73936,35997
73936,36342
73688,36342
73684,36346
73289,36346
73289,36001
73168,36001
73168,36346
72502,36346
72502,36001
72381,36001
72381,36346
71986,36346
71926,36287
71926,36157
71936,36111
71954,36067
71980,36028
72013,35995
72052,35968
72096,35950
72142,35941
72321,35941
72381,36001
72502,36001
72562,35941
72740,35941
72787,35950
72830,35968
72835,35972
72840,35968
72883,35950
72930,35941
73108,35941
73168,36001
73289,36001
73349,35941
73528,35941
73574,35950
73608,35964
73608,35964
73652,35946
73698,35937
73877,35937
73936,35997
74058,35997
74117,35937
74296,35937
74342,35946
74386,35964
74425,35990
74459,36024
74485,36063
74503,36106
74512,36153
74528,36153
74528,35866
71910,35866
71910,38082
71911,38090
71908,38121
71899,38151
71884,38178
71869,38196
71869,38196
71864,38202
71858,38207
71440,38625
71452,38632
71486,38666
71512,38705
71530,38749
71539,38795
71539,38855
71479,38915
71280,38915
71280,38907
71241,38907
71241,38915
71221,38915
71221,39037
71241,39037
71241,39313
71183,39370
71151,39364
71107,39345
71068,39319
71035,39286
71011,39251
71001,39250
70979,39243
70965,39236
70951,39243
70929,39250
70906,39252
70827,39252
70804,39250
70782,39243
70768,39236
70754,39243
70732,39250
70709,39252
70630,39252
70607,39250
70585,39243
70571,39236
70558,39243
70535,39250
70512,39252
70433,39252
70410,39250
70388,39243
70374,39236
70361,39243
70338,39250
70315,39252
70309,39252
70324,39267
70358,39319
70382,39376
70394,39437
70394,39499
70382,39560
70358,39617
70324,39669
70280,39713
70228,39747
70171,39771
70110,39783
70048,39783
69987,39771
69930,39747
69878,39713
69834,39669
69800,39617
69776,39560
69764,39499
69764,39437
69776,39376
69778,39373
69568,39373
69552,39373
69426,39373
69409,39373
69412,39370
69426,39373
69552,39373
69565,39370
69568,39373
69778,39373
69800,39319
69834,39267
69850,39252
69843,39252
69820,39250
69797,39243
69784,39236
69770,39243
69748,39250
69737,39251
69714,39286
69681,39319
69641,39345
69598,39364
69565,39370
69508,39313
69508,39037
69527,39037
69527,38978
69527,38976
69527,38974
69527,38915
69508,38915
69508,38907
69469,38907
69469,38915
69450,38915
69450,39037
69469,39037
69469,39313
69412,39370
69379,39364
69336,39345
69297,39319
69263,39286
69240,39251
69229,39250
69207,39243
69193,39236
69180,39243
69157,39250
69134,39252
69055,39252
69032,39250
69010,39243
68996,39236
68983,39243
68961,39250
68937,39252
68859,39252
68859,39293
68902,39322
68946,39366
68980,39417
69004,39475
69016,39535
69016,39597
69004,39658
68980,39716
68946,39767
68902,39811
68850,39846
68793,39869
68732,39881
68670,39881
68609,39869
68552,39846
68500,39811
68457,39767
68422,39716
68406,39677
68390,39716
68355,39767
68311,39811
68260,39846
68202,39869
68142,39881
68080,39881
68019,39869
67961,39846
67910,39811
67866,39767
67831,39716
67808,39658
67796,39597
67796,39535
67808,39475
67831,39417
67866,39366
67910,39322
67961,39287
68019,39264
68077,39252
68071,39252
68048,39250
68026,39243
68005,39232
67987,39217
67973,39199
67962,39179
67955,39157
67953,39133
66937,39133
66930,39134
66922,39133
66922,39133
66899,39131
66869,39122
66842,39107
66818,39088
66813,39082
66607,38876
66582,38874
66541,38861
66504,38841
66471,38814
66444,38782
66424,38744
66411,38703
66411,38699
66411,38783
66402,38829
66384,38873
66358,38912
66324,38945
66285,38971
66241,38990
66195,38999
66066,38999
66006,38939
66006,38544
65885,38544
65885,38939
65825,38999
65695,38999
65649,38990
65605,38971
65566,38945
65533,38912
65507,38873
65489,38829
65480,38783
65480,38604
65539,38544
65885,38544
66006,38544
66014,38544
66014,38423
66006,38423
66006,38415
65885,38415
65885,38423
65539,38423
65480,38363
65480,38185
65489,38138
65507,38095
65533,38056
65566,38022
65605,37996
65649,37978
65695,37969
65709,37969
65701,37954
65692,37924
65689,37901
65689,37901
65689,37893
65689,37885
65689,37559
65670,37559
65627,37555
65587,37543
65549,37523
65516,37496
65489,37463
65469,37425
65457,37384
65453,37342
65453,37086
65457,37044
65469,37003
65489,36965
65516,36933
65549,36906
65587,36886
65627,36873
65632,36873
65548,36873
65501,36864
65458,36845
65419,36819
65394,36795
65394,40118
75158,40118
75158,39373
71340,39373
71323,39373
71197,39373
71181,39373
71183,39370
71197,39373
71323,39373
71337,39370
71340,39373
75158,39373
75158,35866
74843,35866
74843,36465
" /> 
<polyline style="fill-rule:evenodd;"
points="73439,38104
73433,38108
72853,38688
72848,38694
72825,38714
72797,38728
72767,38737
72744,38740
72744,38740
72737,38740
72729,38740
72569,38740
72579,38752
72590,38773
72597,38795
72599,38818
74432,38818
74460,38775
74504,38731
74548,38702
74548,38580
74535,38579
74494,38566
74457,38546
74424,38519
74397,38486
74377,38449
74364,38408
74364,38403
74364,38488
74355,38534
74337,38577
74310,38617
74277,38650
74238,38676
74194,38694
74148,38703
74018,38703
73959,38644
73959,38249
73837,38249
73837,38644
73778,38703
73648,38703
73602,38694
73558,38676
73519,38650
73486,38617
73459,38577
73441,38534
73432,38488
73432,38309
73492,38249
73837,38249
73959,38249
73967,38249
73967,38128
73959,38128
73959,38120
73837,38120
73837,38128
73492,38128
73452,38088
73439,38104
" /> 
<polyline style="fill-rule:evenodd;"
points="65394,36019
65419,35995
65458,35968
65501,35950
65548,35941
65726,35941
65786,36001
65786,36346
65778,36346
65778,36468
65786,36468
65786,36475
65907,36475
65907,36468
66574,36468
66574,36475
66695,36475
66695,36468
67089,36468
67099,36477
67361,36477
67361,36485
67482,36485
67482,36477
67877,36477
67896,36497
68148,36497
68148,36505
68270,36505
68270,36497
68936,36497
68936,36505
69057,36505
69057,36497
69309,36497
69329,36477
69723,36477
69723,36485
69844,36485
69844,36477
69852,36477
69852,36356
69844,36356
69844,36348
69723,36348
69723,36356
69471,36356
69452,36376
69057,36376
69057,36031
68936,36031
68936,36376
68270,36376
68270,36031
68148,36031
68148,36376
67754,36376
67734,36356
67482,36356
67482,36011
67361,36011
67361,36356
66967,36356
66957,36346
66695,36346
66695,36001
66574,36001
66574,36346
65907,36346
65907,36001
65967,35941
66146,35941
66192,35950
66236,35968
66241,35972
66245,35968
66289,35950
66335,35941
66514,35941
66574,36001
66695,36001
66755,35941
66933,35941
66980,35950
67023,35968
67036,35977
67076,35960
67122,35951
67301,35951
67361,36011
67482,36011
67542,35951
67721,35951
67767,35960
67811,35978
67832,35993
67864,35980
67910,35971
68089,35971
68148,36031
68270,36031
68330,35971
68508,35971
68554,35980
68598,35998
68603,36001
68607,35998
68651,35980
68697,35971
68876,35971
68936,36031
69057,36031
69117,35971
69296,35971
69342,35980
69373,35993
69378,35990
69349,35966
69343,35959
69250,35866
65394,35866
65394,36019
" /> 
<polyline style="fill-rule:evenodd;"
points="71835,23464
71857,23486
71893,23574
71893,23895
71833,23955
71321,23955
71321,23947
71200,23947
71200,23955
70687,23955
70627,23895
70627,23622
69412,23622
69412,24409
69403,24455
69377,24494
69338,24520
69292,24529
68504,24529
68458,24520
68419,24494
68393,24455
68384,24409
68384,24173
66798,24173
66103,24868
66103,25919
66314,26129
66718,26129
66720,26123
66746,26084
66785,26058
66831,26048
67422,26048
67468,26058
67507,26084
67533,26123
67542,26169
67542,26405
67533,26451
67530,26455
67557,26466
67625,26533
67661,26621
67661,26668
67601,26728
67187,26728
67187,26718
67066,26718
67066,26728
66652,26728
66592,26668
66592,26621
66628,26533
66695,26466
66722,26455
66720,26451
66718,26444
66264,26444
66248,26447
66233,26444
66187,26435
66135,26400
66126,26387
65845,26106
65832,26097
65797,26045
65788,25999
65785,25984
65788,25968
65788,24818
65785,24803
65788,24787
65797,24741
65832,24689
65845,24680
66610,23915
66619,23902
66671,23867
66717,23858
66733,23855
66748,23858
68384,23858
68384,23622
68393,23575
68419,23536
68458,23510
68504,23501
69292,23501
69338,23510
69377,23536
69403,23575
69412,23622
70627,23622
70627,23574
70664,23486
70686,23464
65394,23464
65394,35492
65689,35492
65689,34090
65686,34074
65694,34037
65698,34013
65733,33961
65746,33952
65900,33799
65880,33785
65854,33746
65845,33700
65845,33385
65854,33339
65880,33300
65919,33274
65965,33265
66319,33265
66365,33274
66404,33300
66431,33339
66440,33385
66440,33700
66431,33746
66404,33785
66365,33812
66319,33821
66294,33821
66290,33840
66290,33841
66256,33893
66242,33901
66004,34140
66004,35492
66370,35492
66353,35467
66337,35383
66337,35127
66353,35044
66401,34973
66472,34925
66555,34909
66910,34909
66994,34925
67065,34973
67112,35044
67124,35106
67141,35024
67188,34953
67259,34906
67343,34889
67697,34889
67781,34906
67852,34953
67899,35024
67916,35108
67916,35364
67899,35447
67870,35492
68876,35492
68212,34828
68195,34817
68152,34752
68140,34694
68136,34675
68140,34656
68140,34625
67902,34625
67899,34640
67852,34711
67781,34759
67697,34775
67343,34775
67259,34759
67188,34711
67141,34640
67138,34625
67119,34625
67112,34660
67065,34731
66994,34778
66910,34795
66555,34795
66472,34778
66401,34731
66353,34660
66337,34576
66337,34320
66353,34237
66401,34166
66472,34118
66555,34102
66910,34102
66994,34118
67065,34166
67109,34232
67138,34232
67141,34217
67188,34146
67259,34098
67343,34082
67697,34082
67781,34098
67852,34146
67899,34217
67902,34232
68256,34232
68556,33932
68547,33926
68473,33851
68457,33858
68362,33858
68274,33821
68245,33792
68245,33707
68551,33400
68562,33410
68629,33343
68494,33343
68494,33427
68323,33598
68235,33635
68140,33635
68129,33630
68083,33630
68054,33601
68053,33599
68052,33598
68022,33569
68022,33524
68017,33513
68017,33417
68054,33329
68225,33158
68310,33158
68494,33343
68629,33343
68647,33325
68637,33314
68944,33008
69029,33008
69055,33034
69055,32902
68872,32902
68872,32998
68836,33086
68664,33257
68580,33257
68395,33073
68395,32988
68567,32817
68655,32780
68750,32780
68761,32785
68806,32785
68836,32814
68836,32816
68838,32817
68867,32846
68867,32891
68872,32902
69055,32902
69055,32197
69051,32178
69060,32135
69067,32101
69110,32036
69127,32025
69729,31422
69729,31422
69729,31422
69740,31405
69757,31394
70168,30983
70166,30980
70166,30895
70472,30588
70482,30599
70568,30513
70558,30503
70865,30196
70949,30196
70952,30199
72245,28906
71322,28906
71322,28953
71286,29041
71219,29108
71131,29144
70908,29144
70848,29085
70848,28846
70727,28846
70727,29085
70667,29144
70445,29144
70357,29108
70290,29041
70253,28953
70253,28906
70313,28846
70727,28846
70848,28846
71263,28846
71322,28906
72245,28906
72616,28535
72616,28406
71322,28406
71322,28453
71288,28537
71322,28621
71322,28668
71263,28728
70848,28728
70848,28346
70727,28346
70727,28728
70313,28728
70253,28668
70253,28621
70288,28537
70253,28453
70253,28406
70313,28346
70727,28346
70848,28346
71263,28346
71322,28406
72616,28406
72616,27906
71322,27906
71322,27953
71288,28037
71322,28121
71322,28168
71263,28228
70848,28228
70848,27846
70727,27846
70727,28228
70313,28228
70253,28168
70253,28121
70288,28037
70253,27953
70253,27906
70313,27846
70727,27846
70848,27846
71263,27846
71322,27906
72616,27906
72616,27755
72625,27709
72651,27670
72691,27644
72737,27635
73578,27635
73349,27406
71322,27406
71322,27453
71288,27537
71322,27621
71322,27668
71263,27728
70848,27728
70848,27346
70727,27346
70727,27728
70313,27728
70253,27668
70253,27621
70288,27537
70253,27453
70253,27406
70313,27346
70727,27346
70848,27346
71263,27346
71322,27406
73349,27406
73064,27121
71322,27121
71322,27168
71263,27228
70848,27228
70848,27218
70727,27218
70727,27228
70313,27228
70253,27168
70253,27121
70290,27033
70357,26966
70384,26955
70381,26951
70372,26905
70372,26669
70381,26623
70407,26584
70446,26558
70492,26548
71083,26548
71129,26558
71168,26584
71194,26623
71203,26669
71203,26905
71194,26951
71192,26955
71219,26966
71286,27033
71322,27121
73064,27121
72710,26767
72693,26756
72650,26690
72638,26633
72638,26633
72634,26614
72638,26594
72638,26169
71203,26169
71203,26405
71194,26451
71168,26490
71129,26516
71083,26525
70492,26525
70446,26516
70423,26501
70189,26734
70189,29644
70224,29651
70263,29677
70416,29830
70442,29870
70443,29873
70446,29874
70486,29900
70560,29975
70575,29969
70671,29969
70759,30005
70788,30035
70788,30119
70481,30426
70471,30416
70386,30502
70396,30512
70089,30819
70004,30819
69975,30789
69938,30701
69938,30606
69945,30591
69870,30516
69844,30477
69843,30473
69839,30472
69800,30446
69647,30293
69628,30264
69609,30293
69455,30446
69416,30472
69413,30473
69412,30477
69386,30516
69233,30669
69194,30695
69190,30696
69189,30699
69163,30739
69010,30892
68971,30918
68967,30918
68967,30922
68940,30961
68787,31114
68748,31140
68745,31141
68744,31145
68718,31184
68565,31337
68526,31363
68522,31364
68521,31368
68495,31407
68342,31560
68303,31586
68299,31587
68298,31590
68272,31629
68119,31782
68080,31809
68076,31809
68076,31813
68050,31852
67896,32005
67868,32024
67896,32044
68050,32197
68076,32236
68076,32240
68080,32240
68119,32266
68272,32419
68298,32459
68299,32462
68303,32463
68342,32489
68417,32564
68432,32558
68527,32558
68615,32594
68645,32624
68645,32708
68338,33015
68328,33005
68242,33091
68252,33101
67945,33408
67861,33408
67831,33378
67795,33290
67795,33289
67346,33289
67346,33374
67310,33462
67242,33529
67154,33566
67050,33566
66990,33506
66990,33229
66869,33229
66869,33506
66809,33566
66705,33566
66617,33529
66549,33462
66513,33374
66513,33289
66573,33229
66869,33229
66990,33229
67286,33229
67346,33289
67795,33289
67795,33195
67801,33180
67726,33105
67700,33066
67699,33062
67696,33061
67657,33035
67585,32964
67346,32964
67346,33048
67286,33108
66990,33108
66990,32832
66869,32832
66869,33108
66573,33108
66513,33048
66513,32964
66549,32876
66617,32808
66705,32772
66809,32772
66869,32832
66990,32832
67050,32772
67154,32772
67242,32808
67310,32876
67346,32964
67585,32964
67503,32882
67477,32843
67477,32839
67473,32839
67434,32813
67281,32659
67255,32620
67245,32574
67255,32528
67281,32489
67329,32440
66739,32440
66440,32740
66440,32952
66431,32998
66404,33037
66365,33064
66319,33073
65965,33073
65919,33064
65880,33037
65854,32998
65845,32952
65845,32637
65854,32591
65880,32552
65919,32526
65965,32517
66217,32517
66551,32183
66560,32169
66612,32135
66658,32125
66674,32122
66689,32125
67505,32125
67520,32122
67536,32125
67536,32125
67581,32135
67614,32156
67726,32044
67755,32024
67726,32005
67281,31560
67255,31521
67245,31475
67255,31429
67281,31389
67434,31236
67473,31210
67477,31210
67477,31206
67503,31167
67657,31014
67696,30988
67699,30987
67699,30987
67617,30904
67603,30895
67569,30843
67559,30797
67556,30782
67559,30766
67559,30133
67556,30118
67559,30102
67569,30056
67603,30004
67617,29995
68150,29462
68150,28906
67661,28906
67661,28953
67625,29041
67557,29108
67469,29144
67247,29144
67187,29085
67187,28846
67066,28846
67066,29085
67006,29144
66783,29144
66695,29108
66628,29041
66592,28953
66592,28906
66652,28846
67066,28846
67187,28846
67601,28846
67661,28906
68150,28906
68150,28406
67661,28406
67661,28453
67626,28537
67661,28621
67661,28668
67601,28728
67187,28728
67187,28346
67066,28346
67066,28728
66652,28728
66592,28668
66592,28621
66627,28537
66592,28453
66592,28406
66652,28346
67066,28346
67187,28346
67601,28346
67661,28406
68150,28406
68150,27906
67661,27906
67661,27953
67626,28037
67661,28121
67661,28168
67601,28228
67187,28228
67187,27846
67066,27846
67066,28228
66652,28228
66592,28168
66592,28121
66627,28037
66592,27953
66592,27906
66652,27846
67066,27846
67187,27846
67601,27846
67661,27906
68150,27906
68150,27406
67661,27406
67661,27453
67626,27537
67661,27621
67661,27668
67601,27728
67187,27728
67187,27346
67066,27346
67066,27728
66652,27728
66592,27668
66592,27621
66627,27537
66592,27453
66592,27406
66652,27346
67066,27346
67187,27346
67601,27346
67661,27406
68150,27406
68150,26906
67661,26906
67661,26953
67626,27037
67661,27121
67661,27168
67601,27228
67187,27228
67187,26846
67066,26846
67066,27228
66652,27228
66592,27168
66592,27121
66627,27037
66592,26953
66592,26906
66652,26846
67066,26846
67187,26846
67601,26846
67661,26906
68150,26906
68150,26443
67652,25944
67534,25944
67533,25951
67507,25990
67468,26016
67422,26025
66831,26025
66785,26016
66746,25990
66720,25951
66711,25905
66711,25669
66720,25623
66746,25584
66785,25558
66831,25548
67422,25548
67468,25558
67507,25584
67533,25623
67534,25629
67701,25629
67717,25626
67732,25629
67778,25639
67830,25673
67839,25687
68408,26255
68421,26264
68456,26316
68456,26316
68468,26377
68465,26393
68465,29512
68468,29527
68456,29589
68456,29589
68421,29641
68408,29649
67874,30183
67874,30716
67922,30764
67922,30764
67923,30760
67931,30748
67925,30718
67922,30702
67925,30687
67925,30259
67922,30244
67934,30182
67937,30179
67969,30130
67982,30122
68642,29462
68642,26147
67939,25444
67534,25444
67533,25451
67507,25490
67468,25516
67422,25525
66831,25525
66785,25516
66746,25490
66720,25451
66711,25405
66711,25169
66720,25123
66746,25084
66785,25058
66831,25048
67422,25048
67468,25058
67507,25084
67533,25123
67534,25129
67989,25129
68004,25126
68020,25129
68066,25139
68118,25173
68127,25187
68900,25960
68913,25969
68945,26016
68948,26021
68960,26082
68957,26098
68957,29512
68960,29527
68948,29589
68948,29589
68913,29641
68900,29649
68240,30309
68240,30430
68325,30346
68364,30319
68367,30319
68368,30315
68394,30276
68547,30123
68586,30097
68590,30096
68591,30092
68617,30053
68770,29900
68809,29874
68813,29873
68814,29870
68840,29830
68993,29677
69032,29651
69078,29642
69124,29651
69163,29677
69609,30123
69628,30152
69647,30123
69874,29896
69874,26685
69871,26669
69883,26608
69918,26556
69931,26547
70291,26187
70300,26173
70352,26139
70379,26133
70381,26123
70407,26084
70446,26058
70492,26048
71083,26048
71129,26058
71168,26084
71194,26123
71203,26169
72638,26169
72638,25984
71172,25984
71168,25990
71129,26016
71083,26025
70492,26025
70446,26016
70407,25990
70381,25951
70372,25905
70372,25669
70381,25623
70407,25584
70446,25558
70492,25548
71083,25548
71129,25558
71168,25584
71172,25590
72784,25590
73205,25169
71203,25169
71203,25405
71194,25451
71168,25490
71129,25516
71083,25525
70492,25525
70446,25516
70407,25490
70381,25451
70372,25405
70372,25169
70381,25123
70407,25084
70446,25058
70492,25048
71083,25048
71129,25058
71168,25084
71194,25123
71203,25169
73205,25169
73996,24378
73976,24370
73859,24252
73810,24136
71893,24136
71893,24457
71857,24545
71790,24612
71702,24648
71381,24648
71321,24588
71321,24076
71200,24076
71200,24588
71140,24648
70819,24648
70731,24612
70664,24545
70627,24457
70627,24136
70687,24076
71200,24076
71321,24076
71833,24076
71893,24136
73810,24136
73795,24098
73795,23932
73859,23778
73976,23661
74130,23597
74296,23597
74450,23661
74567,23778
74631,23932
74631,24098
74567,24252
74450,24370
74410,24386
74410,24420
74414,24440
74403,24494
74398,24516
74355,24581
74338,24592
73032,25899
73032,26532
73672,27172
73683,27019
73735,26893
73826,26864
74127,27165
74122,27170
74207,27256
74213,27251
74514,27552
74488,27635
74902,27635
74948,27644
74987,27670
75013,27709
75022,27755
75022,28937
75013,28983
74987,29022
74948,29048
74902,29057
72737,29057
72691,29048
72672,29036
71231,30477
71234,30480
71234,30565
70927,30871
70917,30861
70831,30947
70841,30957
70534,31264
70450,31264
70447,31261
70161,31547
70207,31594
70448,31594
70614,31428
70611,31425
70611,31341
70918,31034
70928,31044
71014,30958
71003,30948
71310,30641
71395,30641
71425,30671
71461,30759
71461,30854
71455,30869
71529,30944
71556,30983
71556,30987
71560,30988
71599,31014
71752,31167
71778,31206
71779,31210
71783,31210
71822,31236
71975,31389
72001,31429
72010,31475
72001,31521
71975,31560
71529,32005
71501,32024
71529,32044
71975,32489
72001,32528
72010,32574
72001,32620
71975,32659
71822,32813
71783,32839
71779,32839
71778,32843
71752,32882
71599,33035
71567,33056
71656,33145
71669,33154
71692,33188
71704,33206
71716,33267
71713,33283
71713,33559
71719,33555
71765,33545
71844,33545
71844,33428
71841,33412
71846,33385
71853,33351
71888,33299
71901,33290
72516,32675
72525,32662
72577,32627
72623,32618
72638,32615
72654,32618
73079,32618
73079,32598
73095,32514
73143,32443
73214,32396
73298,32379
73554,32379
73637,32396
73708,32443
73756,32514
73772,32598
73772,32952
73756,33036
73708,33107
73637,33154
73554,33171
73298,33171
73214,33154
73143,33107
73095,33036
73079,32952
73079,32933
72703,32933
72159,33477
72159,33545
72237,33545
72283,33555
72323,33581
72349,33620
72358,33666
72358,34020
72349,34066
72323,34105
72283,34131
72261,34136
72889,34764
72902,34773
72926,34809
72937,34825
72941,34845
73025,34845
73071,34854
73110,34880
73136,34919
73145,34965
73145,35319
73136,35365
73110,35405
73071,35431
73025,35440
72552,35440
72506,35431
72467,35405
72441,35365
72432,35319
72432,34965
72441,34919
72467,34880
72506,34854
72529,34849
71901,34221
71888,34212
71853,34160
71849,34141
71765,34141
71719,34131
71713,34127
71713,34858
71719,34854
71765,34845
72237,34845
72283,34854
72323,34880
72349,34919
72358,34965
72358,35319
72349,35365
72323,35405
72283,35431
72263,35435
72286,35470
72294,35482
72296,35492
74528,35492
74528,35055
74252,35055
74252,35180
74204,35296
74116,35385
74000,35433
73875,35433
73759,35385
73670,35296
73622,35180
73622,35055
73670,34939
73759,34851
73776,34844
73734,34835
73695,34809
73669,34770
73659,34724
73659,34370
73669,34323
73695,34284
73734,34258
73780,34249
74095,34249
74141,34258
74180,34284
74206,34323
74215,34370
74215,34724
74206,34770
74180,34809
74141,34835
74099,34844
74116,34851
74204,34939
74252,35055
74528,35055
74528,34844
74482,34835
74443,34809
74417,34770
74408,34724
74408,34370
74417,34323
74443,34284
74482,34258
74528,34249
74843,34249
74889,34258
74928,34284
74954,34323
74963,34370
74963,34724
74954,34770
74928,34809
74889,34835
74843,34844
74843,35492
75158,35492
75158,32220
75118,32220
75118,32346
75071,32461
74982,32550
74866,32598
74741,32598
74625,32550
74537,32461
74489,32346
74489,32220
74537,32105
74598,32043
74580,32040
74541,32014
74515,31975
74506,31929
74506,31456
74515,31410
74541,31371
74580,31345
74626,31336
74981,31336
75027,31345
75066,31371
75092,31410
75101,31456
75101,31929
75092,31975
75066,32014
75027,32040
75009,32043
75071,32105
75118,32220
75158,32220
75158,29606
75022,29606
75022,30787
75013,30833
74987,30872
74948,30898
74902,30907
73662,30907
73662,31336
73681,31336
73728,31345
73767,31371
73793,31410
73802,31456
73802,31846
74333,32377
74336,32379
74361,32379
74444,32396
74515,32443
74563,32514
74579,32598
74579,32952
74563,33036
74515,33107
74444,33154
74390,33165
74390,33222
74412,33243
74425,33252
74457,33300
74460,33304
74472,33366
74469,33381
74469,33462
74515,33471
74554,33497
74580,33536
74589,33582
74589,33937
74580,33983
74554,34022
74515,34048
74469,34057
74154,34057
74108,34048
74069,34022
74043,33983
74033,33937
74033,33598
73741,33598
73741,33724
73693,33839
73604,33928
73488,33976
73363,33976
73341,33967
73311,33987
73305,33991
73243,34004
73228,34000
73145,34000
73145,34020
73136,34066
73110,34105
73071,34131
73025,34141
72552,34141
72506,34131
72467,34105
72441,34066
72432,34020
72432,33666
72441,33620
72467,33581
72506,33555
72552,33545
73025,33545
73071,33555
73110,33581
73115,33588
73159,33483
73247,33394
73363,33346
73488,33346
73604,33394
73693,33483
73741,33598
74033,33598
74033,33582
74043,33536
74069,33497
74108,33471
74154,33462
74154,33431
74132,33409
74119,33400
74084,33348
74075,33302
74072,33287
74075,33271
74075,33165
74021,33154
73950,33107
73903,33036
73886,32952
73886,32598
73903,32514
73950,32443
73952,32442
73559,32049
73327,32049
73281,32040
73242,32014
73216,31975
73207,31929
73207,31456
73216,31410
73242,31371
73281,31345
73327,31336
73347,31336
73347,30907
72737,30907
72691,30898
72651,30872
72625,30833
72616,30787
72616,29606
72625,29560
72651,29521
72691,29495
72737,29485
74902,29485
74948,29495
74987,29521
75013,29560
75022,29606
75158,29606
75158,27096
74759,27096
74743,27310
74691,27437
74600,27466
74299,27165
74600,26864
74691,26893
74759,27096
75158,27096
75158,26778
74514,26778
74213,27079
73912,26778
73941,26687
74144,26619
74358,26634
74485,26687
74514,26778
75158,26778
75158,23464
71835,23464
" /> 
</g> 
</svg>
