<?xml version="1.0" standalone="no"?>
 <!DOCTYPE svg PUBLIC "-//W3C//DTD SVG 1.1//EN" 
 "http://www.w3.org/Graphics/SVG/1.1/DTD/svg11.dtd"> 
<svg xmlns="http://www.w3.org/2000/svg" version="1.1" 
    width="29.7002cm" height="21.0007cm" viewBox="0 0 116930 82680 ">
<title>SVG Picture created as OTP-v02-F.Mask.svg date 2019/03/13 19:14:55 </title>
  <desc>Picture generated by PCBNEW </desc>
<g style="fill:#000000; fill-opacity:1;stroke:#000000; stroke-opacity:1;
stroke-linecap:round; stroke-linejoin:round; "
 transform="translate(0 0) scale(1 1)">
</g>
<g style="fill:#000000; fill-opacity:0.0; 
stroke:#000000; stroke-width:-0.000393701; stroke-opacity:1; 
stroke-linecap:round; stroke-linejoin:round;">
</g>
<g style="fill:#000000; fill-opacity:1.0; 
stroke:#000000; stroke-width:39.3701; stroke-opacity:1; 
stroke-linecap:round; stroke-linejoin:round;">
<rect x="63386.7" y="21456.5" width="13779.5" height="20669.5" rx="0" />
</g>
<g style="fill:#FFFFFF; fill-opacity:1.0; 
stroke:#FFFFFF; stroke-width:39.3701; stroke-opacity:1; 
stroke-linecap:round; stroke-linejoin:round;">
</g>
<g style="fill:#FFFFFF; fill-opacity:0.0; 
stroke:#FFFFFF; stroke-width:393.701; stroke-opacity:1; 
stroke-linecap:round; stroke-linejoin:round;">
<circle cx="73426.1" cy="38976.4" r="196.85" /> 
</g>
<g style="fill:#FFFFFF; fill-opacity:0.0; 
stroke:#FFFFFF; stroke-width:196.85; stroke-opacity:1; 
stroke-linecap:round; stroke-linejoin:round;">
<path d="M73426 24015
L72638 24015
" />
<path d="M73032 24409
L73032 23622
" />
</g>
<g style="fill:#FFFFFF; fill-opacity:1.0; 
stroke:#FFFFFF; stroke-width:0; stroke-opacity:1; 
stroke-linecap:round; stroke-linejoin:round;">
<polyline style="fill-rule:evenodd;"
points="68053,39377
68017,39392
67990,39411
67985,39414
67958,39441
67958,39441
67936,39473
67921,39509
67914,39547
67914,39586
67921,39621
67921,39624
67936,39660
67958,39692
67985,39719
67985,39719
68017,39741
68053,39756
68091,39763
68130,39763
68168,39756
68204,39741
68236,39719
68236,39719
68264,39692
68285,39660
68300,39624
68300,39621
68307,39586
68307,39547
68300,39509
68285,39473
68264,39441
68264,39441
68236,39414
68232,39411
68204,39392
68168,39377
68130,39370
68091,39370
68053,39377
" /> 
<polyline style="fill-rule:evenodd;"
points="68644,39377
68608,39392
68580,39411
68576,39414
68548,39441
68548,39441
68527,39473
68512,39509
68504,39547
68504,39586
68511,39621
68512,39624
68527,39660
68548,39692
68576,39719
68576,39719
68608,39741
68644,39756
68682,39763
68721,39763
68759,39756
68794,39741
68827,39719
68827,39719
68854,39692
68876,39660
68890,39624
68891,39621
68898,39586
68898,39547
68890,39509
68876,39473
68854,39441
68854,39441
68827,39414
68822,39411
68794,39392
68759,39377
68721,39370
68682,39370
68644,39377
" /> 
<polyline style="fill-rule:evenodd;"
points="70022,39279
69986,39294
69954,39315
69954,39315
69926,39343
69926,39343
69905,39375
69890,39411
69884,39441
69882,39449
69882,39487
69890,39525
69905,39561
69926,39593
69954,39621
69954,39621
69986,39642
70022,39657
70060,39665
70098,39665
70137,39657
70172,39642
70205,39621
70205,39621
70232,39593
70254,39561
70268,39525
70276,39487
70276,39449
70274,39441
70268,39411
70254,39375
70232,39343
70232,39343
70205,39315
70204,39315
70172,39294
70137,39279
70098,39271
70060,39271
70022,39279
" /> 
<polyline style="fill-rule:evenodd;"
points="74648,38787
74612,38801
74586,38818
74580,38823
74552,38850
74531,38883
74516,38918
74508,38956
74508,38995
74516,39033
74531,39069
74552,39101
74580,39129
74580,39129
74612,39150
74648,39165
74686,39173
74724,39173
74763,39165
74798,39150
74831,39129
74831,39129
74858,39101
74880,39069
74894,39033
74902,38995
74902,38956
74894,38918
74880,38883
74858,38850
74831,38823
74824,38818
74798,38801
74763,38787
74724,38779
74686,38779
74648,38787
" /> 
<polyline style="fill-rule:evenodd;"
points="72599,39133
72678,39133
72678,38818
72599,38818
72599,39133
" /> 
<polyline style="fill-rule:evenodd;"
points="68071,39133
68150,39133
68150,38818
68071,38818
68071,39133
" /> 
<polyline style="fill-rule:evenodd;"
points="68268,39133
68347,39133
68347,38818
68268,38818
68268,39133
" /> 
<polyline style="fill-rule:evenodd;"
points="68465,39133
68544,39133
68544,38818
68465,38818
68465,39133
" /> 
<polyline style="fill-rule:evenodd;"
points="68662,39133
68741,39133
68741,38818
68662,38818
68662,39133
" /> 
<polyline style="fill-rule:evenodd;"
points="68859,39133
68937,39133
68937,38818
68859,38818
68859,39133
" /> 
<polyline style="fill-rule:evenodd;"
points="69055,39133
69134,39133
69134,38818
69055,38818
69055,39133
" /> 
<polyline style="fill-rule:evenodd;"
points="69252,39133
69331,39133
69331,38818
69252,38818
69252,39133
" /> 
<polyline style="fill-rule:evenodd;"
points="69449,39133
69528,39133
69528,38818
69449,38818
69449,39133
" /> 
<polyline style="fill-rule:evenodd;"
points="69646,39133
69725,39133
69725,38818
69646,38818
69646,39133
" /> 
<polyline style="fill-rule:evenodd;"
points="69843,39133
69922,39133
69922,38818
69843,38818
69843,39133
" /> 
<polyline style="fill-rule:evenodd;"
points="70040,39133
70118,39133
70118,38818
70040,38818
70040,39133
" /> 
<polyline style="fill-rule:evenodd;"
points="70237,39133
70315,39133
70315,38818
70237,38818
70237,39133
" /> 
<polyline style="fill-rule:evenodd;"
points="71811,39133
71890,39133
71890,38818
71811,38818
71811,39133
" /> 
<polyline style="fill-rule:evenodd;"
points="72402,39133
72481,39133
72481,38818
72402,38818
72402,39133
" /> 
<polyline style="fill-rule:evenodd;"
points="72205,39133
72284,39133
72284,38818
72205,38818
72205,39133
" /> 
<polyline style="fill-rule:evenodd;"
points="72008,39133
72087,39133
72087,38818
72008,38818
72008,39133
" /> 
<polyline style="fill-rule:evenodd;"
points="71615,39133
71693,39133
71693,38818
71615,38818
71615,39133
" /> 
<polyline style="fill-rule:evenodd;"
points="71418,39133
71496,39133
71496,38818
71418,38818
71418,39133
" /> 
<polyline style="fill-rule:evenodd;"
points="71221,39133
71300,39133
71300,38818
71221,38818
71221,39133
" /> 
<polyline style="fill-rule:evenodd;"
points="71024,39133
71103,39133
71103,38818
71024,38818
71024,39133
" /> 
<polyline style="fill-rule:evenodd;"
points="70827,39133
70906,39133
70906,38818
70827,38818
70827,39133
" /> 
<polyline style="fill-rule:evenodd;"
points="70630,39133
70709,39133
70709,38818
70630,38818
70630,39133
" /> 
<polyline style="fill-rule:evenodd;"
points="70433,39133
70512,39133
70512,38818
70433,38818
70433,39133
" /> 
<polyline style="fill-rule:evenodd;"
points="66583,38210
66570,38214
66557,38220
66547,38229
66538,38240
66532,38252
66528,38265
66526,38281
66526,38686
66528,38702
66532,38716
66538,38728
66547,38738
66557,38747
66570,38754
66583,38758
66599,38759
66906,38759
66922,38758
66935,38754
66947,38747
66958,38738
66967,38728
66973,38716
66977,38702
66979,38686
66979,38281
66977,38265
66973,38252
66967,38240
66958,38229
66947,38220
66935,38214
66922,38210
66906,38208
66599,38208
66583,38210
" /> 
<polyline style="fill-rule:evenodd;"
points="65776,38210
65763,38214
65750,38220
65740,38229
65731,38240
65724,38252
65720,38265
65719,38281
65719,38686
65720,38702
65724,38716
65731,38728
65740,38738
65750,38747
65763,38754
65776,38758
65792,38759
66099,38759
66115,38758
66128,38754
66140,38747
66151,38738
66160,38728
66166,38716
66170,38702
66172,38686
66172,38281
66170,38265
66166,38252
66160,38240
66151,38229
66140,38220
66128,38214
66115,38210
66099,38208
65792,38208
65776,38210
" /> 
<polyline style="fill-rule:evenodd;"
points="73729,37914
73715,37918
73703,37925
73692,37934
73684,37944
73677,37957
73673,37970
73672,37986
73672,38391
73673,38407
73677,38420
73684,38433
73692,38443
73703,38452
73715,38458
73729,38462
73745,38464
74051,38464
74068,38462
74081,38458
74093,38452
74104,38443
74112,38433
74119,38420
74123,38407
74124,38391
74124,37986
74123,37970
74119,37957
74112,37944
74104,37934
74093,37925
74081,37918
74068,37914
74051,37913
73745,37913
73729,37914
" /> 
<polyline style="fill-rule:evenodd;"
points="74536,37914
74522,37918
74510,37925
74500,37934
74491,37944
74484,37957
74480,37970
74479,37986
74479,38391
74480,38407
74484,38420
74491,38433
74500,38443
74510,38452
74522,38458
74536,38462
74552,38464
74858,38464
74875,38462
74888,38458
74900,38452
74911,38443
74919,38433
74926,38420
74930,38407
74931,38391
74931,37986
74930,37970
74926,37957
74919,37944
74911,37934
74900,37925
74888,37918
74875,37914
74858,37913
74552,37913
74536,37914
" /> 
<polyline style="fill-rule:evenodd;"
points="68778,37019
68765,37023
68752,37029
68742,37038
68733,37049
68726,37061
68722,37074
68721,37090
68721,37397
68722,37413
68726,37426
68733,37438
68742,37449
68752,37458
68765,37464
68778,37468
68794,37470
69199,37470
69215,37468
69228,37464
69241,37458
69251,37449
69260,37438
69266,37426
69270,37413
69272,37397
69272,37090
69270,37074
69266,37061
69260,37049
69251,37038
69241,37029
69228,37023
69215,37019
69199,37017
68794,37017
68778,37019
" /> 
<polyline style="fill-rule:evenodd;"
points="67990,37019
67977,37023
67965,37029
67954,37038
67946,37049
67939,37061
67935,37074
67933,37090
67933,37397
67935,37413
67939,37426
67946,37438
67954,37449
67965,37458
67977,37464
67990,37468
68006,37470
68412,37470
68428,37468
68441,37464
68453,37458
68464,37449
68473,37438
68479,37426
68483,37413
68485,37397
68485,37090
68483,37074
68479,37061
68473,37049
68464,37038
68453,37029
68441,37023
68428,37019
68412,37017
68006,37017
67990,37019
" /> 
<polyline style="fill-rule:evenodd;"
points="67203,36999
67190,37003
67178,37010
67167,37018
67158,37029
67152,37041
67148,37054
67146,37071
67146,37377
67148,37393
67152,37407
67158,37419
67167,37429
67178,37438
67190,37445
67203,37449
67219,37450
67624,37450
67640,37449
67654,37445
67666,37438
67676,37429
67685,37419
67692,37407
67696,37393
67697,37377
67697,37071
67696,37054
67692,37041
67685,37029
67676,37018
67666,37010
67654,37003
67640,36999
67624,36998
67219,36998
67203,36999
" /> 
<polyline style="fill-rule:evenodd;"
points="69565,36999
69552,37003
69540,37010
69529,37018
69520,37029
69514,37041
69510,37054
69508,37071
69508,37377
69510,37393
69514,37407
69520,37419
69529,37429
69540,37438
69552,37445
69565,37449
69581,37450
69986,37450
70003,37449
70016,37445
70028,37438
70039,37429
70047,37419
70054,37407
70058,37393
70059,37377
70059,37071
70058,37054
70054,37041
70047,37029
70039,37018
70028,37010
70016,37003
70003,36999
69986,36998
69581,36998
69565,36999
" /> 
<polyline style="fill-rule:evenodd;"
points="73010,36989
72997,36993
72985,37000
72974,37009
72965,37019
72959,37031
72955,37045
72953,37061
72953,37367
72955,37384
72959,37397
72965,37409
72974,37420
72985,37428
72997,37435
73010,37439
73026,37440
73431,37440
73447,37439
73461,37435
73473,37428
73483,37420
73492,37409
73499,37397
73503,37384
73504,37367
73504,37061
73503,37045
73499,37031
73492,37019
73483,37009
73473,37000
73461,36993
73447,36989
73431,36988
73026,36988
73010,36989
" /> 
<polyline style="fill-rule:evenodd;"
points="65628,36989
65615,36993
65603,37000
65592,37009
65583,37019
65577,37031
65573,37045
65571,37061
65571,37367
65573,37384
65577,37397
65583,37409
65592,37420
65603,37428
65615,37435
65628,37439
65644,37440
66049,37440
66066,37439
66079,37435
66091,37428
66102,37420
66110,37409
66117,37397
66121,37384
66122,37367
66122,37061
66121,37045
66117,37031
66110,37019
66102,37009
66091,37000
66079,36993
66066,36989
66049,36988
65644,36988
65628,36989
" /> 
<polyline style="fill-rule:evenodd;"
points="66416,36989
66402,36993
66390,37000
66379,37009
66371,37019
66364,37031
66360,37045
66359,37061
66359,37367
66360,37384
66364,37397
66371,37409
66379,37420
66390,37428
66402,37435
66416,37439
66432,37440
66837,37440
66853,37439
66866,37435
66878,37428
66889,37420
66898,37409
66904,37397
66908,37384
66910,37367
66910,37061
66908,37045
66904,37031
66898,37019
66889,37009
66878,37000
66866,36993
66853,36989
66837,36988
66432,36988
66416,36989
" /> 
<polyline style="fill-rule:evenodd;"
points="72223,36989
72209,36993
72197,37000
72187,37009
72178,37019
72171,37031
72167,37045
72166,37061
72166,37367
72167,37384
72171,37397
72178,37409
72187,37420
72197,37428
72209,37435
72223,37439
72239,37440
72644,37440
72660,37439
72673,37435
72685,37428
72696,37420
72705,37409
72711,37397
72715,37384
72717,37367
72717,37061
72715,37045
72711,37031
72705,37019
72696,37009
72685,37000
72673,36993
72660,36989
72644,36988
72239,36988
72223,36989
" /> 
<polyline style="fill-rule:evenodd;"
points="73778,36985
73765,36989
73753,36995
73742,37004
73734,37015
73727,37027
73723,37040
73721,37056
73721,37363
73723,37379
73727,37392
73734,37404
73742,37415
73753,37424
73765,37430
73778,37434
73794,37436
74200,37436
74216,37434
74229,37430
74241,37424
74252,37415
74261,37404
74267,37392
74271,37379
74273,37363
74273,37056
74271,37040
74267,37027
74261,37015
74252,37004
74241,36995
74229,36989
74216,36985
74200,36983
73794,36983
73778,36985
" /> 
<polyline style="fill-rule:evenodd;"
points="68778,36212
68765,36216
68752,36222
68742,36231
68733,36242
68726,36254
68722,36267
68721,36283
68721,36590
68722,36606
68726,36619
68733,36631
68742,36642
68752,36651
68765,36657
68778,36661
68794,36663
69199,36663
69215,36661
69228,36657
69241,36651
69251,36642
69260,36631
69266,36619
69270,36606
69272,36590
69272,36283
69270,36267
69266,36254
69260,36242
69251,36231
69241,36222
69228,36216
69215,36212
69199,36210
68794,36210
68778,36212
" /> 
<polyline style="fill-rule:evenodd;"
points="67990,36212
67977,36216
67965,36222
67954,36231
67946,36242
67939,36254
67935,36267
67933,36283
67933,36590
67935,36606
67939,36619
67946,36631
67954,36642
67965,36651
67977,36657
67990,36661
68006,36663
68412,36663
68428,36661
68441,36657
68453,36651
68464,36642
68473,36631
68479,36619
68483,36606
68485,36590
68485,36283
68483,36267
68479,36254
68473,36242
68464,36231
68453,36222
68441,36216
68428,36212
68412,36210
68006,36210
67990,36212
" /> 
<polyline style="fill-rule:evenodd;"
points="69565,36192
69552,36196
69540,36203
69529,36211
69520,36222
69514,36234
69510,36247
69508,36263
69508,36570
69510,36586
69514,36600
69520,36612
69529,36622
69540,36631
69552,36638
69565,36642
69581,36643
69986,36643
70003,36642
70016,36638
70028,36631
70039,36622
70047,36612
70054,36600
70058,36586
70059,36570
70059,36263
70058,36247
70054,36234
70047,36222
70039,36211
70028,36203
70016,36196
70003,36192
69986,36190
69581,36190
69565,36192
" /> 
<polyline style="fill-rule:evenodd;"
points="67203,36192
67190,36196
67178,36203
67167,36211
67158,36222
67152,36234
67148,36247
67146,36263
67146,36570
67148,36586
67152,36600
67158,36612
67167,36622
67178,36631
67190,36638
67203,36642
67219,36643
67624,36643
67640,36642
67654,36638
67666,36631
67676,36622
67685,36612
67692,36600
67696,36586
67697,36570
67697,36263
67696,36247
67692,36234
67685,36222
67676,36211
67666,36203
67654,36196
67640,36192
67624,36190
67219,36190
67203,36192
" /> 
<polyline style="fill-rule:evenodd;"
points="73010,36182
72997,36186
72985,36193
72974,36201
72965,36212
72959,36224
72955,36237
72953,36254
72953,36560
72955,36576
72959,36590
72965,36602
72974,36613
72985,36621
72997,36628
73010,36632
73026,36633
73431,36633
73447,36632
73461,36628
73473,36621
73483,36613
73492,36602
73499,36590
73503,36576
73504,36560
73504,36254
73503,36237
73499,36224
73492,36212
73483,36201
73473,36193
73461,36186
73447,36182
73431,36181
73026,36181
73010,36182
" /> 
<polyline style="fill-rule:evenodd;"
points="65628,36182
65615,36186
65603,36193
65592,36201
65583,36212
65577,36224
65573,36237
65571,36254
65571,36560
65573,36576
65577,36590
65583,36602
65592,36613
65603,36621
65615,36628
65628,36632
65644,36633
66049,36633
66066,36632
66079,36628
66091,36621
66102,36613
66110,36602
66117,36590
66121,36576
66122,36560
66122,36254
66121,36237
66117,36224
66110,36212
66102,36201
66091,36193
66079,36186
66066,36182
66049,36181
65644,36181
65628,36182
" /> 
<polyline style="fill-rule:evenodd;"
points="66416,36182
66402,36186
66390,36193
66379,36201
66371,36212
66364,36224
66360,36237
66359,36254
66359,36560
66360,36576
66364,36590
66371,36602
66379,36613
66390,36621
66402,36628
66416,36632
66432,36633
66837,36633
66853,36632
66866,36628
66878,36621
66889,36613
66898,36602
66904,36590
66908,36576
66910,36560
66910,36254
66908,36237
66904,36224
66898,36212
66889,36201
66878,36193
66866,36186
66853,36182
66837,36181
66432,36181
66416,36182
" /> 
<polyline style="fill-rule:evenodd;"
points="72223,36182
72209,36186
72197,36193
72187,36201
72178,36212
72171,36224
72167,36237
72166,36254
72166,36560
72167,36576
72171,36590
72178,36602
72187,36613
72197,36621
72209,36628
72223,36632
72239,36633
72644,36633
72660,36632
72673,36628
72685,36621
72696,36613
72705,36602
72711,36590
72715,36576
72717,36560
72717,36254
72715,36237
72711,36224
72705,36212
72696,36201
72685,36193
72673,36186
72660,36182
72644,36181
72239,36181
72223,36182
" /> 
<polyline style="fill-rule:evenodd;"
points="73778,36178
73765,36182
73753,36188
73742,36197
73734,36208
73727,36220
73723,36233
73721,36249
73721,36556
73723,36572
73727,36585
73734,36597
73742,36608
73753,36617
73765,36623
73778,36627
73794,36629
74200,36629
74216,36627
74229,36623
74241,36617
74252,36608
74261,36597
74267,36585
74271,36572
74273,36556
74273,36249
74271,36233
74267,36220
74261,36208
74252,36197
74241,36188
74229,36182
74216,36178
74200,36176
73794,36176
73778,36178
" /> 
<polyline style="fill-rule:evenodd;"
points="66514,35031
66501,35035
66489,35041
66478,35050
66469,35061
66463,35073
66459,35086
66457,35102
66457,35409
66459,35425
66463,35438
66469,35450
66478,35461
66489,35470
66501,35476
66514,35480
66530,35482
66935,35482
66951,35480
66965,35476
66977,35470
66987,35461
66996,35450
67003,35438
67007,35425
67008,35409
67008,35102
67007,35086
67003,35073
66996,35061
66987,35050
66977,35041
66965,35035
66951,35031
66935,35029
66530,35029
66514,35031
" /> 
<polyline style="fill-rule:evenodd;"
points="67301,35011
67288,35015
67276,35021
67265,35030
67257,35041
67250,35053
67246,35066
67244,35082
67244,35389
67246,35405
67250,35418
67257,35431
67265,35441
67276,35450
67288,35457
67301,35461
67317,35462
67723,35462
67739,35461
67752,35457
67764,35450
67775,35441
67784,35431
67790,35418
67794,35405
67796,35389
67796,35082
67794,35066
67790,35053
67784,35041
67775,35030
67764,35021
67752,35015
67739,35011
67723,35009
67317,35009
67301,35011
" /> 
<polyline style="fill-rule:evenodd;"
points="72552,35319
73025,35319
73025,34965
72552,34965
72552,35319
" /> 
<polyline style="fill-rule:evenodd;"
points="71765,35319
72237,35319
72237,34965
71765,34965
71765,35319
" /> 
<polyline style="fill-rule:evenodd;"
points="73880,34928
73844,34943
73812,34964
73812,34965
73784,34992
73763,35024
73748,35060
73741,35098
73741,35137
73748,35175
73763,35211
73784,35243
73812,35271
73812,35271
73844,35292
73880,35307
73918,35314
73957,35314
73995,35307
74031,35292
74063,35271
74063,35271
74090,35243
74112,35211
74127,35175
74134,35137
74134,35098
74127,35060
74112,35024
74090,34992
74063,34965
74062,34964
74031,34943
73995,34928
73957,34921
73918,34921
73880,34928
" /> 
<polyline style="fill-rule:evenodd;"
points="73780,34724
74095,34724
74095,34370
73780,34370
73780,34724
" /> 
<polyline style="fill-rule:evenodd;"
points="74528,34724
74843,34724
74843,34370
74528,34370
74528,34724
" /> 
<polyline style="fill-rule:evenodd;"
points="66514,34224
66501,34228
66489,34234
66478,34243
66469,34253
66463,34266
66459,34279
66457,34295
66457,34602
66459,34618
66463,34631
66469,34643
66478,34654
66489,34663
66501,34669
66514,34673
66530,34675
66935,34675
66951,34673
66965,34669
66977,34663
66987,34654
66996,34643
67003,34631
67007,34618
67008,34602
67008,34295
67007,34279
67003,34266
66996,34253
66987,34243
66977,34234
66965,34228
66951,34224
66935,34222
66530,34222
66514,34224
" /> 
<polyline style="fill-rule:evenodd;"
points="67301,34204
67288,34208
67276,34214
67265,34223
67257,34234
67250,34246
67246,34259
67244,34275
67244,34582
67246,34598
67250,34611
67257,34624
67265,34634
67276,34643
67288,34649
67301,34653
67317,34655
67723,34655
67739,34653
67752,34649
67764,34643
67775,34634
67784,34624
67790,34611
67794,34598
67796,34582
67796,34275
67794,34259
67790,34246
67784,34234
67775,34223
67764,34214
67752,34208
67739,34204
67723,34202
67317,34202
67301,34204
" /> 
<polyline style="fill-rule:evenodd;"
points="69732,33841
70178,34286
70331,34133
69885,33688
69732,33841
" /> 
<polyline style="fill-rule:evenodd;"
points="68925,34133
69078,34286
69523,33841
69370,33688
68925,34133
" /> 
<polyline style="fill-rule:evenodd;"
points="69955,33618
70400,34064
70553,33911
70108,33465
69955,33618
" /> 
<polyline style="fill-rule:evenodd;"
points="68702,33911
68855,34064
69301,33618
69148,33465
68702,33911
" /> 
<polyline style="fill-rule:evenodd;"
points="71765,34020
72237,34020
72237,33666
71765,33666
71765,34020
" /> 
<polyline style="fill-rule:evenodd;"
points="72552,34020
73025,34020
73025,33666
72552,33666
72552,34020
" /> 
<polyline style="fill-rule:evenodd;"
points="74154,33937
74469,33937
74469,33582
74154,33582
74154,33937
" /> 
<polyline style="fill-rule:evenodd;"
points="73368,33472
73332,33486
73301,33508
73300,33508
73273,33535
73251,33568
73236,33603
73229,33642
73229,33680
73236,33718
73251,33754
73273,33786
73300,33814
73300,33814
73332,33835
73368,33850
73406,33858
73445,33858
73483,33850
73519,33835
73551,33814
73551,33814
73578,33786
73600,33754
73615,33718
73622,33680
73622,33642
73615,33603
73600,33568
73578,33535
73551,33508
73551,33508
73519,33486
73483,33472
73445,33464
73406,33464
73368,33472
" /> 
<polyline style="fill-rule:evenodd;"
points="70178,33395
70623,33841
70999,33465
70553,33020
70178,33395
" /> 
<polyline style="fill-rule:evenodd;"
points="68257,33465
68633,33841
69078,33395
68702,33020
68257,33465
" /> 
<polyline style="fill-rule:evenodd;"
points="65965,33700
66319,33700
66319,33385
65965,33385
65965,33700
" /> 
<polyline style="fill-rule:evenodd;"
points="70623,32950
71068,33395
71444,33020
70999,32574
70623,32950
" /> 
<polyline style="fill-rule:evenodd;"
points="67811,33020
68187,33395
68633,32950
68257,32574
67811,33020
" /> 
<polyline style="fill-rule:evenodd;"
points="66752,33326
67107,33326
67107,33011
66752,33011
66752,33326
" /> 
<polyline style="fill-rule:evenodd;"
points="69825,32684
69789,32699
69757,32720
69757,32721
69729,32748
69708,32780
69693,32816
69685,32854
69685,32893
69693,32931
69701,32950
69708,32967
69723,32990
69729,32999
69757,33026
69757,33026
69789,33048
69789,33048
69789,33048
69825,33063
69863,33070
69902,33070
69940,33063
69975,33048
69975,33048
69975,33048
70008,33026
70008,33026
70035,32999
70041,32990
70057,32967
70064,32950
70072,32931
70079,32893
70079,32854
70072,32816
70057,32780
70035,32748
70008,32721
70007,32720
69975,32699
69940,32684
69902,32677
69863,32677
69825,32684
" /> 
<polyline style="fill-rule:evenodd;"
points="73256,32501
73243,32505
73231,32512
73220,32520
73211,32531
73205,32543
73201,32556
73199,32573
73199,32978
73201,32994
73205,33007
73211,33019
73220,33030
73231,33039
73243,33045
73256,33049
73272,33051
73579,33051
73595,33049
73608,33045
73620,33039
73631,33030
73640,33019
73646,33007
73650,32994
73652,32978
73652,32573
73650,32556
73646,32543
73640,32531
73631,32520
73620,32512
73608,32505
73595,32501
73579,32500
73272,32500
73256,32501
" /> 
<polyline style="fill-rule:evenodd;"
points="74063,32501
74050,32505
74038,32512
74027,32520
74018,32531
74012,32543
74008,32556
74006,32573
74006,32978
74008,32994
74012,33007
74018,33019
74027,33030
74038,33039
74050,33045
74063,33049
74079,33051
74386,33051
74402,33049
74415,33045
74428,33039
74438,33030
74447,33019
74453,33007
74457,32994
74459,32978
74459,32573
74457,32556
74453,32543
74447,32531
74438,32520
74428,32512
74415,32505
74402,32501
74386,32500
74079,32500
74063,32501
" /> 
<polyline style="fill-rule:evenodd;"
points="65965,32952
66319,32952
66319,32637
65965,32637
65965,32952
" /> 
<polyline style="fill-rule:evenodd;"
points="71068,32505
71514,32950
71667,32797
71222,32352
71068,32505
" /> 
<polyline style="fill-rule:evenodd;"
points="67589,32797
67742,32950
68187,32505
68034,32352
67589,32797
" /> 
<polyline style="fill-rule:evenodd;"
points="71291,32282
71737,32727
71890,32574
71444,32129
71291,32282
" /> 
<polyline style="fill-rule:evenodd;"
points="67366,32574
67519,32727
67964,32282
67811,32129
67366,32574
" /> 
<polyline style="fill-rule:evenodd;"
points="74746,32094
74710,32109
74680,32129
74678,32130
74651,32157
74629,32190
74614,32226
74607,32264
74607,32302
74614,32340
74629,32376
74651,32408
74678,32436
74678,32436
74710,32457
74746,32472
74784,32480
74823,32480
74861,32472
74897,32457
74929,32436
74929,32436
74956,32408
74978,32376
74993,32340
75000,32302
75000,32264
74993,32226
74978,32190
74956,32157
74929,32130
74927,32129
74897,32109
74861,32094
74823,32086
74784,32086
74746,32094
" /> 
<polyline style="fill-rule:evenodd;"
points="73327,31929
73681,31929
73681,31456
73327,31456
73327,31929
" /> 
<polyline style="fill-rule:evenodd;"
points="74626,31929
74981,31929
74981,31456
74626,31456
74626,31929
" /> 
<polyline style="fill-rule:evenodd;"
points="71291,31767
71444,31920
71890,31475
71737,31321
71291,31767
" /> 
<polyline style="fill-rule:evenodd;"
points="67366,31475
67811,31920
67964,31767
67519,31321
67366,31475
" /> 
<polyline style="fill-rule:evenodd;"
points="71068,31544
71222,31697
71667,31252
71514,31099
71068,31544
" /> 
<polyline style="fill-rule:evenodd;"
points="67589,31252
68034,31697
68187,31544
67742,31099
67589,31252
" /> 
<polyline style="fill-rule:evenodd;"
points="70623,31099
70999,31475
71444,31029
71068,30653
70623,31099
" /> 
<polyline style="fill-rule:evenodd;"
points="67811,31029
68257,31475
68633,31099
68187,30653
67811,31029
" /> 
<polyline style="fill-rule:evenodd;"
points="70178,30653
70553,31029
70999,30584
70623,30208
70178,30653
" /> 
<polyline style="fill-rule:evenodd;"
points="68257,30584
68702,31029
69078,30653
68633,30208
68257,30584
" /> 
<polyline style="fill-rule:evenodd;"
points="72737,30787
74902,30787
74902,29606
72737,29606
72737,30787
" /> 
<polyline style="fill-rule:evenodd;"
points="69955,30431
70108,30584
70553,30138
70400,29985
69955,30431
" /> 
<polyline style="fill-rule:evenodd;"
points="68702,30138
69148,30584
69301,30431
68855,29985
68702,30138
" /> 
<polyline style="fill-rule:evenodd;"
points="69732,30208
69885,30361
70331,29916
70178,29763
69732,30208
" /> 
<polyline style="fill-rule:evenodd;"
points="68925,29916
69370,30361
69523,30208
69078,29763
68925,29916
" /> 
<polyline style="fill-rule:evenodd;"
points="72737,28937
74902,28937
74902,27755
72737,27755
72737,28937
" /> 
<polyline style="fill-rule:evenodd;"
points="70492,28905
71083,28905
71083,28669
70492,28669
70492,28905
" /> 
<polyline style="fill-rule:evenodd;"
points="66831,28905
67422,28905
67422,28669
66831,28669
66831,28905
" /> 
<polyline style="fill-rule:evenodd;"
points="66831,28405
67422,28405
67422,28169
66831,28169
66831,28405
" /> 
<polyline style="fill-rule:evenodd;"
points="70492,28405
71083,28405
71083,28169
70492,28169
70492,28405
" /> 
<polyline style="fill-rule:evenodd;"
points="70492,27905
71083,27905
71083,27669
70492,27669
70492,27905
" /> 
<polyline style="fill-rule:evenodd;"
points="66831,27905
67422,27905
67422,27669
66831,27669
66831,27905
" /> 
<polyline style="fill-rule:evenodd;"
points="74145,26873
74125,26876
74071,26899
74022,26932
73980,26974
73947,27023
73924,27077
73913,27135
73913,27194
73924,27252
73947,27307
73980,27356
74022,27398
74022,27398
74071,27431
74125,27453
74145,27457
74183,27465
74243,27465
74281,27457
74300,27453
74355,27431
74404,27398
74404,27398
74446,27356
74479,27307
74501,27252
74513,27194
74513,27135
74501,27077
74479,27023
74446,26974
74404,26932
74355,26899
74300,26876
74281,26873
74243,26865
74183,26865
74145,26873
" /> 
<polyline style="fill-rule:evenodd;"
points="70492,27405
71083,27405
71083,27169
70492,27169
70492,27405
" /> 
<polyline style="fill-rule:evenodd;"
points="66831,27405
67422,27405
67422,27169
66831,27169
66831,27405
" /> 
<polyline style="fill-rule:evenodd;"
points="66831,26905
67422,26905
67422,26669
66831,26669
66831,26905
" /> 
<polyline style="fill-rule:evenodd;"
points="70492,26905
71083,26905
71083,26669
70492,26669
70492,26905
" /> 
<polyline style="fill-rule:evenodd;"
points="66831,26405
67422,26405
67422,26169
66831,26169
66831,26405
" /> 
<polyline style="fill-rule:evenodd;"
points="70492,26405
71083,26405
71083,26169
70492,26169
70492,26405
" /> 
<polyline style="fill-rule:evenodd;"
points="70492,25905
71083,25905
71083,25669
70492,25669
70492,25905
" /> 
<polyline style="fill-rule:evenodd;"
points="66831,25905
67422,25905
67422,25669
66831,25669
66831,25905
" /> 
<polyline style="fill-rule:evenodd;"
points="70492,25405
71083,25405
71083,25169
70492,25169
70492,25405
" /> 
<polyline style="fill-rule:evenodd;"
points="66831,25405
67422,25405
67422,25169
66831,25169
66831,25405
" /> 
<polyline style="fill-rule:evenodd;"
points="68504,24409
69292,24409
69292,23622
68504,23622
68504,24409
" /> 
<polyline style="fill-rule:evenodd;"
points="70867,24409
71654,24409
71654,23622
70867,23622
70867,24409
" /> 
<polyline style="fill-rule:evenodd;"
points="74145,23723
74125,23727
74071,23749
74022,23782
73980,23824
73947,23873
73924,23928
73913,23986
73913,24045
73924,24103
73947,24157
73980,24206
74022,24248
74022,24248
74071,24281
74125,24304
74145,24308
74183,24315
74243,24315
74281,24308
74300,24304
74355,24281
74404,24248
74404,24248
74446,24206
74479,24157
74501,24103
74513,24045
74513,23986
74501,23928
74479,23873
74446,23824
74404,23782
74355,23749
74300,23727
74281,23723
74243,23715
74183,23715
74145,23723
" /> 
</g> 
</svg>
