<?xml version="1.0" standalone="no"?>
 <!DOCTYPE svg PUBLIC "-//W3C//DTD SVG 1.1//EN" 
 "http://www.w3.org/Graphics/SVG/1.1/DTD/svg11.dtd"> 
<svg xmlns="http://www.w3.org/2000/svg" version="1.1" 
    width="29.7002cm" height="21.0007cm" viewBox="0 0 116930 82680 ">
<title>SVG Picture created as otp_milestone1-F_Cu.svg date 2019/07/05 15:54:32 </title>
  <desc>Picture generated by PCBNEW </desc>
<g style="fill:#000000; fill-opacity:1;stroke:#000000; stroke-opacity:1;
stroke-linecap:round; stroke-linejoin:round; "
 transform="translate(0 0) scale(1 1)">
</g>
<g style="fill:#000000; fill-opacity:0.0; 
stroke:#000000; stroke-width:-0.000393701; stroke-opacity:1; 
stroke-linecap:round; stroke-linejoin:round;">
</g>
<g style="fill:#000000; fill-opacity:1.0; 
stroke:#000000; stroke-width:39.3701; stroke-opacity:1; 
stroke-linecap:round; stroke-linejoin:round;">
<path style="fill:#000000; fill-opacity:1.0; 
stroke:#000000; stroke-width:39.3701; stroke-opacity:1; 
stroke-linecap:round; stroke-linejoin:round;fill-rule:evenodd;"
d="M 75591,33464
76575,33464
76575,31889
75591,31889
Z" /> 
<path style="fill:#000000; fill-opacity:1.0; 
stroke:#000000; stroke-width:39.3701; stroke-opacity:1; 
stroke-linecap:round; stroke-linejoin:round;fill-rule:evenodd;"
d="M 69685,33464
70670,33464
70670,31889
69685,31889
Z" /> 
<g >
</g>
<g style="fill:#000000; fill-opacity:1.0; 
stroke:#000000; stroke-width:0; stroke-opacity:1; 
stroke-linecap:round; stroke-linejoin:round;">
<circle cx="68701.7" cy="33464.6" r="393.701" /> 
</g>
<g style="fill:#000000; fill-opacity:1.0; 
stroke:#000000; stroke-width:39.3701; stroke-opacity:1; 
stroke-linecap:round; stroke-linejoin:round;">
</g>
<g style="fill:#000000; fill-opacity:1.0; 
stroke:#000000; stroke-width:0; stroke-opacity:1; 
stroke-linecap:round; stroke-linejoin:round;">
<circle cx="68701.7" cy="41338.6" r="393.701" /> 
</g>
<g style="fill:#000000; fill-opacity:1.0; 
stroke:#000000; stroke-width:39.3701; stroke-opacity:1; 
stroke-linecap:round; stroke-linejoin:round;">
</g>
<g >
</g>
<g style="fill:#000000; fill-opacity:1.0; 
stroke:#000000; stroke-width:0; stroke-opacity:1; 
stroke-linecap:round; stroke-linejoin:round;">
<circle cx="65748.9" cy="31496.1" r="393.701" /> 
</g>
<g style="fill:#000000; fill-opacity:1.0; 
stroke:#000000; stroke-width:39.3701; stroke-opacity:1; 
stroke-linecap:round; stroke-linejoin:round;">
</g>
<g style="fill:#000000; fill-opacity:1.0; 
stroke:#000000; stroke-width:0; stroke-opacity:1; 
stroke-linecap:round; stroke-linejoin:round;">
<circle cx="66733.1" cy="31496.1" r="393.701" /> 
</g>
<g style="fill:#000000; fill-opacity:1.0; 
stroke:#000000; stroke-width:39.3701; stroke-opacity:1; 
stroke-linecap:round; stroke-linejoin:round;">
</g>
<g >
</g>
<g style="fill:#000000; fill-opacity:1.0; 
stroke:#000000; stroke-width:0; stroke-opacity:1; 
stroke-linecap:round; stroke-linejoin:round;">
<path style="fill:#000000; fill-opacity:1.0; 
stroke:#000000; stroke-width:0; stroke-opacity:1; 
stroke-linecap:round; stroke-linejoin:round;fill-rule:evenodd;"
d="M 77258,34887
76680,34887
76680,35387
77258,35387
77258,34887
Z" /> 
<path style="fill:#000000; fill-opacity:1.0; 
stroke:#000000; stroke-width:0; stroke-opacity:1; 
stroke-linecap:round; stroke-linejoin:round;fill-rule:evenodd;"
d="M 77258,36411
76680,36411
76680,36911
77258,36911
77258,36411
Z" /> 
</g>
<g >
<path style="fill:#000000; fill-opacity:1.0; 
stroke:#000000; stroke-width:0; stroke-opacity:1; 
stroke-linecap:round; stroke-linejoin:round;fill-rule:evenodd;"
d="M 78735,32255
78156,32255
78156,32755
78735,32755
78735,32255
Z" /> 
<path style="fill:#000000; fill-opacity:1.0; 
stroke:#000000; stroke-width:0; stroke-opacity:1; 
stroke-linecap:round; stroke-linejoin:round;fill-rule:evenodd;"
d="M 78735,33779
78156,33779
78156,34279
78735,34279
78735,33779
Z" /> 
</g>
<g >
<path style="fill:#000000; fill-opacity:1.0; 
stroke:#000000; stroke-width:0; stroke-opacity:1; 
stroke-linecap:round; stroke-linejoin:round;fill-rule:evenodd;"
d="M 80664,31982
80664,31403
80164,31403
80164,31982
80664,31982
Z" /> 
<path style="fill:#000000; fill-opacity:1.0; 
stroke:#000000; stroke-width:0; stroke-opacity:1; 
stroke-linecap:round; stroke-linejoin:round;fill-rule:evenodd;"
d="M 79140,31982
79140,31403
78640,31403
78640,31982
79140,31982
Z" /> 
</g>
<g >
<circle cx="65847.3" cy="44094.5" r="492.126" /> 
</g>
<g style="fill:#000000; fill-opacity:1.0; 
stroke:#000000; stroke-width:39.3701; stroke-opacity:1; 
stroke-linecap:round; stroke-linejoin:round;">
</g>
<g style="fill:#000000; fill-opacity:1.0; 
stroke:#000000; stroke-width:0; stroke-opacity:1; 
stroke-linecap:round; stroke-linejoin:round;">
<circle cx="65847.3" cy="46063" r="492.126" /> 
</g>
<g style="fill:#000000; fill-opacity:1.0; 
stroke:#000000; stroke-width:39.3701; stroke-opacity:1; 
stroke-linecap:round; stroke-linejoin:round;">
</g>
<g >
</g>
<g style="fill:#000000; fill-opacity:1.0; 
stroke:#000000; stroke-width:0; stroke-opacity:1; 
stroke-linecap:round; stroke-linejoin:round;">
<path style="fill:#000000; fill-opacity:1.0; 
stroke:#000000; stroke-width:0; stroke-opacity:1; 
stroke-linecap:round; stroke-linejoin:round;fill-rule:evenodd;"
d="M 69636,39862
70128,39862
70128,39271
69636,39271
69636,39862
Z" /> 
<path style="fill:#000000; fill-opacity:1.0; 
stroke:#000000; stroke-width:0; stroke-opacity:1; 
stroke-linecap:round; stroke-linejoin:round;fill-rule:evenodd;"
d="M 69636,38877
70128,38877
70128,38287
69636,38287
69636,38877
Z" /> 
</g>
<g >
<path style="fill:#000000; fill-opacity:1.0; 
stroke:#000000; stroke-width:0; stroke-opacity:1; 
stroke-linecap:round; stroke-linejoin:round;fill-rule:evenodd;"
d="M 70620,38877
71113,38877
71113,38287
70620,38287
70620,38877
Z" /> 
<path style="fill:#000000; fill-opacity:1.0; 
stroke:#000000; stroke-width:0; stroke-opacity:1; 
stroke-linecap:round; stroke-linejoin:round;fill-rule:evenodd;"
d="M 70620,39862
71113,39862
71113,39271
70620,39271
70620,39862
Z" /> 
</g>
<g >
<path style="fill:#000000; fill-opacity:1.0; 
stroke:#000000; stroke-width:0; stroke-opacity:1; 
stroke-linecap:round; stroke-linejoin:round;fill-rule:evenodd;"
d="M 77609,38385
77117,38385
77117,38976
77609,38976
77609,38385
Z" /> 
<path style="fill:#000000; fill-opacity:1.0; 
stroke:#000000; stroke-width:0; stroke-opacity:1; 
stroke-linecap:round; stroke-linejoin:round;fill-rule:evenodd;"
d="M 77609,37401
77117,37401
77117,37992
77609,37992
77609,37401
Z" /> 
</g>
<g >
<path style="fill:#000000; fill-opacity:1.0; 
stroke:#000000; stroke-width:0; stroke-opacity:1; 
stroke-linecap:round; stroke-linejoin:round;fill-rule:evenodd;"
d="M 76132,42125
76624,42125
76624,41535
76132,41535
76132,42125
Z" /> 
<path style="fill:#000000; fill-opacity:1.0; 
stroke:#000000; stroke-width:0; stroke-opacity:1; 
stroke-linecap:round; stroke-linejoin:round;fill-rule:evenodd;"
d="M 76132,41141
76624,41141
76624,40551
76132,40551
76132,41141
Z" /> 
</g>
<g >
<path style="fill:#000000; fill-opacity:1.0; 
stroke:#000000; stroke-width:0; stroke-opacity:1; 
stroke-linecap:round; stroke-linejoin:round;fill-rule:evenodd;"
d="M 75443,34744
74951,34744
74951,35334
75443,35334
75443,34744
Z" /> 
<path style="fill:#000000; fill-opacity:1.0; 
stroke:#000000; stroke-width:0; stroke-opacity:1; 
stroke-linecap:round; stroke-linejoin:round;fill-rule:evenodd;"
d="M 75443,35728
74951,35728
74951,36318
75443,36318
75443,35728
Z" /> 
</g>
<g >
<path style="fill:#000000; fill-opacity:1.0; 
stroke:#000000; stroke-width:0; stroke-opacity:1; 
stroke-linecap:round; stroke-linejoin:round;fill-rule:evenodd;"
d="M 78199,34940
77707,34940
77707,35531
78199,35531
78199,34940
Z" /> 
<path style="fill:#000000; fill-opacity:1.0; 
stroke:#000000; stroke-width:0; stroke-opacity:1; 
stroke-linecap:round; stroke-linejoin:round;fill-rule:evenodd;"
d="M 78199,35925
77707,35925
77707,36515
78199,36515
78199,35925
Z" /> 
</g>
<g >
<path style="fill:#000000; fill-opacity:1.0; 
stroke:#000000; stroke-width:0; stroke-opacity:1; 
stroke-linecap:round; stroke-linejoin:round;fill-rule:evenodd;"
d="M 80561,34055
81054,34055
81054,33464
80561,33464
80561,34055
Z" /> 
<path style="fill:#000000; fill-opacity:1.0; 
stroke:#000000; stroke-width:0; stroke-opacity:1; 
stroke-linecap:round; stroke-linejoin:round;fill-rule:evenodd;"
d="M 80561,33070
81054,33070
81054,32480
80561,32480
80561,33070
Z" /> 
</g>
<g >
<path style="fill:#000000; fill-opacity:1.0; 
stroke:#000000; stroke-width:0; stroke-opacity:1; 
stroke-linecap:round; stroke-linejoin:round;fill-rule:evenodd;"
d="M 74262,35236
73770,35236
73770,35826
74262,35826
74262,35236
Z" /> 
<path style="fill:#000000; fill-opacity:1.0; 
stroke:#000000; stroke-width:0; stroke-opacity:1; 
stroke-linecap:round; stroke-linejoin:round;fill-rule:evenodd;"
d="M 74262,34251
73770,34251
73770,34842
74262,34842
74262,34251
Z" /> 
</g>
<g >
<path style="fill:#000000; fill-opacity:1.0; 
stroke:#000000; stroke-width:0; stroke-opacity:1; 
stroke-linecap:round; stroke-linejoin:round;fill-rule:evenodd;"
d="M 76231,35925
75739,35925
75739,36515
76231,36515
76231,35925
Z" /> 
<path style="fill:#000000; fill-opacity:1.0; 
stroke:#000000; stroke-width:0; stroke-opacity:1; 
stroke-linecap:round; stroke-linejoin:round;fill-rule:evenodd;"
d="M 76231,34940
75739,34940
75739,35531
76231,35531
76231,34940
Z" /> 
</g>
<g >
<path style="fill:#000000; fill-opacity:1.0; 
stroke:#000000; stroke-width:0; stroke-opacity:1; 
stroke-linecap:round; stroke-linejoin:round;fill-rule:evenodd;"
d="M 79282,33070
79774,33070
79774,32480
79282,32480
79282,33070
Z" /> 
<path style="fill:#000000; fill-opacity:1.0; 
stroke:#000000; stroke-width:0; stroke-opacity:1; 
stroke-linecap:round; stroke-linejoin:round;fill-rule:evenodd;"
d="M 79282,34055
79774,34055
79774,33464
79282,33464
79282,34055
Z" /> 
</g>
<g >
<path style="fill:#000000; fill-opacity:1.0; 
stroke:#000000; stroke-width:0; stroke-opacity:1; 
stroke-linecap:round; stroke-linejoin:round;fill-rule:evenodd;"
d="M 77313,33169
77805,33169
77805,32578
77313,32578
77313,33169
Z" /> 
<path style="fill:#000000; fill-opacity:1.0; 
stroke:#000000; stroke-width:0; stroke-opacity:1; 
stroke-linecap:round; stroke-linejoin:round;fill-rule:evenodd;"
d="M 77313,34153
77805,34153
77805,33562
77313,33562
77313,34153
Z" /> 
</g>
<g >
<path style="fill:#000000; fill-opacity:1.0; 
stroke:#000000; stroke-width:0; stroke-opacity:1; 
stroke-linecap:round; stroke-linejoin:round;fill-rule:evenodd;"
d="M 71900,36122
71408,36122
71408,36712
71900,36712
71900,36122
Z" /> 
<path style="fill:#000000; fill-opacity:1.0; 
stroke:#000000; stroke-width:0; stroke-opacity:1; 
stroke-linecap:round; stroke-linejoin:round;fill-rule:evenodd;"
d="M 71900,37106
71408,37106
71408,37696
71900,37696
71900,37106
Z" /> 
</g>
<g >
<path style="fill:#000000; fill-opacity:1.0; 
stroke:#000000; stroke-width:0; stroke-opacity:1; 
stroke-linecap:round; stroke-linejoin:round;fill-rule:evenodd;"
d="M 71113,37106
70620,37106
70620,37696
71113,37696
71113,37106
Z" /> 
<path style="fill:#000000; fill-opacity:1.0; 
stroke:#000000; stroke-width:0; stroke-opacity:1; 
stroke-linecap:round; stroke-linejoin:round;fill-rule:evenodd;"
d="M 71113,36122
70620,36122
70620,36712
71113,36712
71113,36122
Z" /> 
</g>
<g >
<path style="fill:#000000; fill-opacity:1.0; 
stroke:#000000; stroke-width:0; stroke-opacity:1; 
stroke-linecap:round; stroke-linejoin:round;fill-rule:evenodd;"
d="M 64587,38375
65453,38375
65453,38139
64587,38139
64587,38375
Z" /> 
<path style="fill:#000000; fill-opacity:1.0; 
stroke:#000000; stroke-width:0; stroke-opacity:1; 
stroke-linecap:round; stroke-linejoin:round;fill-rule:evenodd;"
d="M 68209,37375
69075,37375
69075,37139
68209,37139
68209,37375
Z" /> 
<path style="fill:#000000; fill-opacity:1.0; 
stroke:#000000; stroke-width:0; stroke-opacity:1; 
stroke-linecap:round; stroke-linejoin:round;fill-rule:evenodd;"
d="M 64587,38875
65453,38875
65453,38639
64587,38639
64587,38875
Z" /> 
<path style="fill:#000000; fill-opacity:1.0; 
stroke:#000000; stroke-width:0; stroke-opacity:1; 
stroke-linecap:round; stroke-linejoin:round;fill-rule:evenodd;"
d="M 64587,37875
65453,37875
65453,37639
64587,37639
64587,37875
Z" /> 
<path style="fill:#000000; fill-opacity:1.0; 
stroke:#000000; stroke-width:0; stroke-opacity:1; 
stroke-linecap:round; stroke-linejoin:round;fill-rule:evenodd;"
d="M 64587,37375
65453,37375
65453,37139
64587,37139
64587,37375
Z" /> 
<path style="fill:#000000; fill-opacity:1.0; 
stroke:#000000; stroke-width:0; stroke-opacity:1; 
stroke-linecap:round; stroke-linejoin:round;fill-rule:evenodd;"
d="M 68209,37875
69075,37875
69075,37639
68209,37639
68209,37875
Z" /> 
<path style="fill:#000000; fill-opacity:1.0; 
stroke:#000000; stroke-width:0; stroke-opacity:1; 
stroke-linecap:round; stroke-linejoin:round;fill-rule:evenodd;"
d="M 68209,36875
69075,36875
69075,36639
68209,36639
68209,36875
Z" /> 
<path style="fill:#000000; fill-opacity:1.0; 
stroke:#000000; stroke-width:0; stroke-opacity:1; 
stroke-linecap:round; stroke-linejoin:round;fill-rule:evenodd;"
d="M 68209,36375
69075,36375
69075,36139
68209,36139
68209,36375
Z" /> 
<path style="fill:#000000; fill-opacity:1.0; 
stroke:#000000; stroke-width:0; stroke-opacity:1; 
stroke-linecap:round; stroke-linejoin:round;fill-rule:evenodd;"
d="M 64587,36375
65453,36375
65453,36139
64587,36139
64587,36375
Z" /> 
<path style="fill:#000000; fill-opacity:1.0; 
stroke:#000000; stroke-width:0; stroke-opacity:1; 
stroke-linecap:round; stroke-linejoin:round;fill-rule:evenodd;"
d="M 68209,35375
69075,35375
69075,35139
68209,35139
68209,35375
Z" /> 
<path style="fill:#000000; fill-opacity:1.0; 
stroke:#000000; stroke-width:0; stroke-opacity:1; 
stroke-linecap:round; stroke-linejoin:round;fill-rule:evenodd;"
d="M 64587,36875
65453,36875
65453,36639
64587,36639
64587,36875
Z" /> 
<path style="fill:#000000; fill-opacity:1.0; 
stroke:#000000; stroke-width:0; stroke-opacity:1; 
stroke-linecap:round; stroke-linejoin:round;fill-rule:evenodd;"
d="M 64587,35875
65453,35875
65453,35639
64587,35639
64587,35875
Z" /> 
<path style="fill:#000000; fill-opacity:1.0; 
stroke:#000000; stroke-width:0; stroke-opacity:1; 
stroke-linecap:round; stroke-linejoin:round;fill-rule:evenodd;"
d="M 68209,35875
69075,35875
69075,35639
68209,35639
68209,35875
Z" /> 
<path style="fill:#000000; fill-opacity:1.0; 
stroke:#000000; stroke-width:0; stroke-opacity:1; 
stroke-linecap:round; stroke-linejoin:round;fill-rule:evenodd;"
d="M 64587,35375
65453,35375
65453,35139
64587,35139
64587,35375
Z" /> 
<path style="fill:#000000; fill-opacity:1.0; 
stroke:#000000; stroke-width:0; stroke-opacity:1; 
stroke-linecap:round; stroke-linejoin:round;fill-rule:evenodd;"
d="M 68209,38375
69075,38375
69075,38139
68209,38139
68209,38375
Z" /> 
<path style="fill:#000000; fill-opacity:1.0; 
stroke:#000000; stroke-width:0; stroke-opacity:1; 
stroke-linecap:round; stroke-linejoin:round;fill-rule:evenodd;"
d="M 68209,38875
69075,38875
69075,38639
68209,38639
68209,38875
Z" /> 
</g>
<g >
<circle cx="80512.7" cy="40452.8" r="393.701" /> 
</g>
<g style="fill:#000000; fill-opacity:1.0; 
stroke:#000000; stroke-width:39.3701; stroke-opacity:1; 
stroke-linecap:round; stroke-linejoin:round;">
</g>
<g style="fill:#000000; fill-opacity:1.0; 
stroke:#000000; stroke-width:0; stroke-opacity:1; 
stroke-linecap:round; stroke-linejoin:round;">
<circle cx="80512.7" cy="41437" r="393.701" /> 
</g>
<g style="fill:#000000; fill-opacity:1.0; 
stroke:#000000; stroke-width:39.3701; stroke-opacity:1; 
stroke-linecap:round; stroke-linejoin:round;">
</g>
<g style="fill:#000000; fill-opacity:1.0; 
stroke:#000000; stroke-width:0; stroke-opacity:1; 
stroke-linecap:round; stroke-linejoin:round;">
<circle cx="80512.7" cy="42421.3" r="393.701" /> 
</g>
<g style="fill:#000000; fill-opacity:1.0; 
stroke:#000000; stroke-width:39.3701; stroke-opacity:1; 
stroke-linecap:round; stroke-linejoin:round;">
</g>
<g style="fill:#000000; fill-opacity:1.0; 
stroke:#000000; stroke-width:0; stroke-opacity:1; 
stroke-linecap:round; stroke-linejoin:round;">
<circle cx="80512.7" cy="43405.5" r="393.701" /> 
</g>
<g style="fill:#000000; fill-opacity:1.0; 
stroke:#000000; stroke-width:39.3701; stroke-opacity:1; 
stroke-linecap:round; stroke-linejoin:round;">
</g>
<g style="fill:#000000; fill-opacity:1.0; 
stroke:#000000; stroke-width:0; stroke-opacity:1; 
stroke-linecap:round; stroke-linejoin:round;">
<circle cx="80512.7" cy="44389.8" r="393.701" /> 
</g>
<g style="fill:#000000; fill-opacity:1.0; 
stroke:#000000; stroke-width:39.3701; stroke-opacity:1; 
stroke-linecap:round; stroke-linejoin:round;">
</g>
<g style="fill:#000000; fill-opacity:1.0; 
stroke:#000000; stroke-width:0; stroke-opacity:1; 
stroke-linecap:round; stroke-linejoin:round;">
<circle cx="80512.7" cy="45374" r="393.701" /> 
</g>
<g style="fill:#000000; fill-opacity:1.0; 
stroke:#000000; stroke-width:39.3701; stroke-opacity:1; 
stroke-linecap:round; stroke-linejoin:round;">
</g>
<g >
</g>
<g style="fill:#000000; fill-opacity:1.0; 
stroke:#000000; stroke-width:0; stroke-opacity:1; 
stroke-linecap:round; stroke-linejoin:round;">
<path style="fill:#000000; fill-opacity:1.0; 
stroke:#000000; stroke-width:0; stroke-opacity:1; 
stroke-linecap:round; stroke-linejoin:round;fill-rule:evenodd;"
d="M 79508,38090
81477,38090
81477,36909
79508,36909
79508,38090
Z" /> 
<path style="fill:#000000; fill-opacity:1.0; 
stroke:#000000; stroke-width:0; stroke-opacity:1; 
stroke-linecap:round; stroke-linejoin:round;fill-rule:evenodd;"
d="M 79528,36023
81496,36023
81496,34842
79528,34842
79528,36023
Z" /> 
</g>
<g >
<path style="fill:#000000; fill-opacity:1.0; 
stroke:#000000; stroke-width:0; stroke-opacity:1; 
stroke-linecap:round; stroke-linejoin:round;fill-rule:evenodd;"
d="M 76201,37421
76201,37736
76555,37736
76555,37421
76201,37421
Z" /> 
<path style="fill:#000000; fill-opacity:1.0; 
stroke:#000000; stroke-width:0; stroke-opacity:1; 
stroke-linecap:round; stroke-linejoin:round;fill-rule:evenodd;"
d="M 75414,37047
75414,37362
75768,37362
75768,37047
75414,37047
Z" /> 
<path style="fill:#000000; fill-opacity:1.0; 
stroke:#000000; stroke-width:0; stroke-opacity:1; 
stroke-linecap:round; stroke-linejoin:round;fill-rule:evenodd;"
d="M 75414,37795
75414,38110
75768,38110
75768,37795
75414,37795
Z" /> 
</g>
<g >
<path style="fill:#000000; fill-opacity:1.0; 
stroke:#000000; stroke-width:0; stroke-opacity:1; 
stroke-linecap:round; stroke-linejoin:round;fill-rule:evenodd;"
d="M 77697,44133
78209,44133
78209,43543
77697,43543
77697,44133
Z" /> 
<path style="fill:#000000; fill-opacity:1.0; 
stroke:#000000; stroke-width:0; stroke-opacity:1; 
stroke-linecap:round; stroke-linejoin:round;fill-rule:evenodd;"
d="M 77697,43070
78209,43070
78209,42480
77697,42480
77697,43070
Z" /> 
</g>
<g >
<path style="fill:#000000; fill-opacity:1.0; 
stroke:#000000; stroke-width:0; stroke-opacity:1; 
stroke-linecap:round; stroke-linejoin:round;fill-rule:evenodd;"
d="M 70276,43661
70276,43149
69685,43149
69685,43661
70276,43661
Z" /> 
<path style="fill:#000000; fill-opacity:1.0; 
stroke:#000000; stroke-width:0; stroke-opacity:1; 
stroke-linecap:round; stroke-linejoin:round;fill-rule:evenodd;"
d="M 69213,43661
69213,43149
68622,43149
68622,43661
69213,43661
Z" /> 
</g>
<g >
<path style="fill:#000000; fill-opacity:1.0; 
stroke:#000000; stroke-width:0; stroke-opacity:1; 
stroke-linecap:round; stroke-linejoin:round;fill-rule:evenodd;"
d="M 77422,43543
76910,43543
76910,44133
77422,44133
77422,43543
Z" /> 
<path style="fill:#000000; fill-opacity:1.0; 
stroke:#000000; stroke-width:0; stroke-opacity:1; 
stroke-linecap:round; stroke-linejoin:round;fill-rule:evenodd;"
d="M 77422,42480
76910,42480
76910,43070
77422,43070
77422,42480
Z" /> 
</g>
<g >
<path style="fill:#000000; fill-opacity:1.0; 
stroke:#000000; stroke-width:0; stroke-opacity:1; 
stroke-linecap:round; stroke-linejoin:round;fill-rule:evenodd;"
d="M 76634,43543
76122,43543
76122,44133
76634,44133
76634,43543
Z" /> 
<path style="fill:#000000; fill-opacity:1.0; 
stroke:#000000; stroke-width:0; stroke-opacity:1; 
stroke-linecap:round; stroke-linejoin:round;fill-rule:evenodd;"
d="M 76634,42480
76122,42480
76122,43070
76634,43070
76634,42480
Z" /> 
</g>
<g >
<path style="fill:#000000; fill-opacity:1.0; 
stroke:#000000; stroke-width:0; stroke-opacity:1; 
stroke-linecap:round; stroke-linejoin:round;fill-rule:evenodd;"
d="M 69685,44035
69685,44547
70276,44547
70276,44035
69685,44035
Z" /> 
<path style="fill:#000000; fill-opacity:1.0; 
stroke:#000000; stroke-width:0; stroke-opacity:1; 
stroke-linecap:round; stroke-linejoin:round;fill-rule:evenodd;"
d="M 68622,44035
68622,44547
69213,44547
69213,44035
68622,44035
Z" /> 
</g>
<g >
<path style="fill:#000000; fill-opacity:1.0; 
stroke:#000000; stroke-width:0; stroke-opacity:1; 
stroke-linecap:round; stroke-linejoin:round;fill-rule:evenodd;"
d="M 76437,38543
75926,38543
75926,39133
76437,39133
76437,38543
Z" /> 
<path style="fill:#000000; fill-opacity:1.0; 
stroke:#000000; stroke-width:0; stroke-opacity:1; 
stroke-linecap:round; stroke-linejoin:round;fill-rule:evenodd;"
d="M 76437,39606
75926,39606
75926,40196
76437,40196
76437,39606
Z" /> 
</g>
<g >
<path style="fill:#000000; fill-opacity:1.0; 
stroke:#000000; stroke-width:0; stroke-opacity:1; 
stroke-linecap:round; stroke-linejoin:round;fill-rule:evenodd;"
d="M 70335,37185
69823,37185
69823,37775
70335,37775
70335,37185
Z" /> 
<path style="fill:#000000; fill-opacity:1.0; 
stroke:#000000; stroke-width:0; stroke-opacity:1; 
stroke-linecap:round; stroke-linejoin:round;fill-rule:evenodd;"
d="M 70335,36122
69823,36122
69823,36712
70335,36712
70335,36122
Z" /> 
</g>
<g >
<path style="fill:#000000; fill-opacity:1.0; 
stroke:#000000; stroke-width:0; stroke-opacity:1; 
stroke-linecap:round; stroke-linejoin:round;fill-rule:evenodd;"
d="M 70847,43513
70847,43730
71437,43730
71437,43513
70847,43513
Z" /> 
<path style="fill:#000000; fill-opacity:1.0; 
stroke:#000000; stroke-width:0; stroke-opacity:1; 
stroke-linecap:round; stroke-linejoin:round;fill-rule:evenodd;"
d="M 70847,43198
70847,43415
71437,43415
71437,43198
70847,43198
Z" /> 
<path style="fill:#000000; fill-opacity:1.0; 
stroke:#000000; stroke-width:0; stroke-opacity:1; 
stroke-linecap:round; stroke-linejoin:round;fill-rule:evenodd;"
d="M 70847,42883
70847,43100
71437,43100
71437,42883
70847,42883
Z" /> 
<path style="fill:#000000; fill-opacity:1.0; 
stroke:#000000; stroke-width:0; stroke-opacity:1; 
stroke-linecap:round; stroke-linejoin:round;fill-rule:evenodd;"
d="M 70847,42568
70847,42785
71437,42785
71437,42568
70847,42568
Z" /> 
<path style="fill:#000000; fill-opacity:1.0; 
stroke:#000000; stroke-width:0; stroke-opacity:1; 
stroke-linecap:round; stroke-linejoin:round;fill-rule:evenodd;"
d="M 70847,42253
70847,42470
71437,42470
71437,42253
70847,42253
Z" /> 
<path style="fill:#000000; fill-opacity:1.0; 
stroke:#000000; stroke-width:0; stroke-opacity:1; 
stroke-linecap:round; stroke-linejoin:round;fill-rule:evenodd;"
d="M 70847,41938
70847,42155
71437,42155
71437,41938
70847,41938
Z" /> 
<path style="fill:#000000; fill-opacity:1.0; 
stroke:#000000; stroke-width:0; stroke-opacity:1; 
stroke-linecap:round; stroke-linejoin:round;fill-rule:evenodd;"
d="M 70847,41624
70847,41840
71437,41840
71437,41624
70847,41624
Z" /> 
<path style="fill:#000000; fill-opacity:1.0; 
stroke:#000000; stroke-width:0; stroke-opacity:1; 
stroke-linecap:round; stroke-linejoin:round;fill-rule:evenodd;"
d="M 70847,41309
70847,41525
71437,41525
71437,41309
70847,41309
Z" /> 
<path style="fill:#000000; fill-opacity:1.0; 
stroke:#000000; stroke-width:0; stroke-opacity:1; 
stroke-linecap:round; stroke-linejoin:round;fill-rule:evenodd;"
d="M 71624,40531
71624,41122
71841,41122
71841,40531
71624,40531
Z" /> 
<path style="fill:#000000; fill-opacity:1.0; 
stroke:#000000; stroke-width:0; stroke-opacity:1; 
stroke-linecap:round; stroke-linejoin:round;fill-rule:evenodd;"
d="M 71939,40531
71939,41122
72156,41122
72156,40531
71939,40531
Z" /> 
<path style="fill:#000000; fill-opacity:1.0; 
stroke:#000000; stroke-width:0; stroke-opacity:1; 
stroke-linecap:round; stroke-linejoin:round;fill-rule:evenodd;"
d="M 72254,40531
72254,41122
72471,41122
72471,40531
72254,40531
Z" /> 
<path style="fill:#000000; fill-opacity:1.0; 
stroke:#000000; stroke-width:0; stroke-opacity:1; 
stroke-linecap:round; stroke-linejoin:round;fill-rule:evenodd;"
d="M 72569,40531
72569,41122
72786,41122
72786,40531
72569,40531
Z" /> 
<path style="fill:#000000; fill-opacity:1.0; 
stroke:#000000; stroke-width:0; stroke-opacity:1; 
stroke-linecap:round; stroke-linejoin:round;fill-rule:evenodd;"
d="M 72884,40531
72884,41122
73101,41122
73101,40531
72884,40531
Z" /> 
<path style="fill:#000000; fill-opacity:1.0; 
stroke:#000000; stroke-width:0; stroke-opacity:1; 
stroke-linecap:round; stroke-linejoin:round;fill-rule:evenodd;"
d="M 73199,40531
73199,41122
73416,41122
73416,40531
73199,40531
Z" /> 
<path style="fill:#000000; fill-opacity:1.0; 
stroke:#000000; stroke-width:0; stroke-opacity:1; 
stroke-linecap:round; stroke-linejoin:round;fill-rule:evenodd;"
d="M 73514,40531
73514,41122
73731,41122
73731,40531
73514,40531
Z" /> 
<path style="fill:#000000; fill-opacity:1.0; 
stroke:#000000; stroke-width:0; stroke-opacity:1; 
stroke-linecap:round; stroke-linejoin:round;fill-rule:evenodd;"
d="M 73829,40531
73829,41122
74046,41122
74046,40531
73829,40531
Z" /> 
<path style="fill:#000000; fill-opacity:1.0; 
stroke:#000000; stroke-width:0; stroke-opacity:1; 
stroke-linecap:round; stroke-linejoin:round;fill-rule:evenodd;"
d="M 74233,41309
74233,41525
74823,41525
74823,41309
74233,41309
Z" /> 
<path style="fill:#000000; fill-opacity:1.0; 
stroke:#000000; stroke-width:0; stroke-opacity:1; 
stroke-linecap:round; stroke-linejoin:round;fill-rule:evenodd;"
d="M 74233,41624
74233,41840
74823,41840
74823,41624
74233,41624
Z" /> 
<path style="fill:#000000; fill-opacity:1.0; 
stroke:#000000; stroke-width:0; stroke-opacity:1; 
stroke-linecap:round; stroke-linejoin:round;fill-rule:evenodd;"
d="M 74233,41938
74233,42155
74823,42155
74823,41938
74233,41938
Z" /> 
<path style="fill:#000000; fill-opacity:1.0; 
stroke:#000000; stroke-width:0; stroke-opacity:1; 
stroke-linecap:round; stroke-linejoin:round;fill-rule:evenodd;"
d="M 74233,42253
74233,42470
74823,42470
74823,42253
74233,42253
Z" /> 
<path style="fill:#000000; fill-opacity:1.0; 
stroke:#000000; stroke-width:0; stroke-opacity:1; 
stroke-linecap:round; stroke-linejoin:round;fill-rule:evenodd;"
d="M 74233,42568
74233,42785
74823,42785
74823,42568
74233,42568
Z" /> 
<path style="fill:#000000; fill-opacity:1.0; 
stroke:#000000; stroke-width:0; stroke-opacity:1; 
stroke-linecap:round; stroke-linejoin:round;fill-rule:evenodd;"
d="M 74233,42883
74233,43100
74823,43100
74823,42883
74233,42883
Z" /> 
<path style="fill:#000000; fill-opacity:1.0; 
stroke:#000000; stroke-width:0; stroke-opacity:1; 
stroke-linecap:round; stroke-linejoin:round;fill-rule:evenodd;"
d="M 74233,43198
74233,43415
74823,43415
74823,43198
74233,43198
Z" /> 
<path style="fill:#000000; fill-opacity:1.0; 
stroke:#000000; stroke-width:0; stroke-opacity:1; 
stroke-linecap:round; stroke-linejoin:round;fill-rule:evenodd;"
d="M 74233,43513
74233,43730
74823,43730
74823,43513
74233,43513
Z" /> 
<path style="fill:#000000; fill-opacity:1.0; 
stroke:#000000; stroke-width:0; stroke-opacity:1; 
stroke-linecap:round; stroke-linejoin:round;fill-rule:evenodd;"
d="M 73829,43917
73829,44507
74046,44507
74046,43917
73829,43917
Z" /> 
<path style="fill:#000000; fill-opacity:1.0; 
stroke:#000000; stroke-width:0; stroke-opacity:1; 
stroke-linecap:round; stroke-linejoin:round;fill-rule:evenodd;"
d="M 73514,43917
73514,44507
73731,44507
73731,43917
73514,43917
Z" /> 
<path style="fill:#000000; fill-opacity:1.0; 
stroke:#000000; stroke-width:0; stroke-opacity:1; 
stroke-linecap:round; stroke-linejoin:round;fill-rule:evenodd;"
d="M 73199,43917
73199,44507
73416,44507
73416,43917
73199,43917
Z" /> 
<path style="fill:#000000; fill-opacity:1.0; 
stroke:#000000; stroke-width:0; stroke-opacity:1; 
stroke-linecap:round; stroke-linejoin:round;fill-rule:evenodd;"
d="M 72884,43917
72884,44507
73101,44507
73101,43917
72884,43917
Z" /> 
<path style="fill:#000000; fill-opacity:1.0; 
stroke:#000000; stroke-width:0; stroke-opacity:1; 
stroke-linecap:round; stroke-linejoin:round;fill-rule:evenodd;"
d="M 72569,43917
72569,44507
72786,44507
72786,43917
72569,43917
Z" /> 
<path style="fill:#000000; fill-opacity:1.0; 
stroke:#000000; stroke-width:0; stroke-opacity:1; 
stroke-linecap:round; stroke-linejoin:round;fill-rule:evenodd;"
d="M 72254,43917
72254,44507
72471,44507
72471,43917
72254,43917
Z" /> 
<path style="fill:#000000; fill-opacity:1.0; 
stroke:#000000; stroke-width:0; stroke-opacity:1; 
stroke-linecap:round; stroke-linejoin:round;fill-rule:evenodd;"
d="M 71939,43917
71939,44507
72156,44507
72156,43917
71939,43917
Z" /> 
<path style="fill:#000000; fill-opacity:1.0; 
stroke:#000000; stroke-width:0; stroke-opacity:1; 
stroke-linecap:round; stroke-linejoin:round;fill-rule:evenodd;"
d="M 71624,43917
71624,44507
71841,44507
71841,43917
71624,43917
Z" /> 
</g>
<g >
<path style="fill:#000000; fill-opacity:1.0; 
stroke:#000000; stroke-width:0; stroke-opacity:1; 
stroke-linecap:round; stroke-linejoin:round;fill-rule:evenodd;"
d="M 75355,33818
75433,33818
75433,33503
75355,33503
75355,33818
Z" /> 
<path style="fill:#000000; fill-opacity:1.0; 
stroke:#000000; stroke-width:0; stroke-opacity:1; 
stroke-linecap:round; stroke-linejoin:round;fill-rule:evenodd;"
d="M 75158,33818
75237,33818
75237,33503
75158,33503
75158,33818
Z" /> 
<path style="fill:#000000; fill-opacity:1.0; 
stroke:#000000; stroke-width:0; stroke-opacity:1; 
stroke-linecap:round; stroke-linejoin:round;fill-rule:evenodd;"
d="M 74961,33818
75040,33818
75040,33503
74961,33503
74961,33818
Z" /> 
<path style="fill:#000000; fill-opacity:1.0; 
stroke:#000000; stroke-width:0; stroke-opacity:1; 
stroke-linecap:round; stroke-linejoin:round;fill-rule:evenodd;"
d="M 74764,33818
74843,33818
74843,33503
74764,33503
74764,33818
Z" /> 
<path style="fill:#000000; fill-opacity:1.0; 
stroke:#000000; stroke-width:0; stroke-opacity:1; 
stroke-linecap:round; stroke-linejoin:round;fill-rule:evenodd;"
d="M 74567,33818
74646,33818
74646,33503
74567,33503
74567,33818
Z" /> 
<path style="fill:#000000; fill-opacity:1.0; 
stroke:#000000; stroke-width:0; stroke-opacity:1; 
stroke-linecap:round; stroke-linejoin:round;fill-rule:evenodd;"
d="M 74370,33818
74449,33818
74449,33503
74370,33503
74370,33818
Z" /> 
<path style="fill:#000000; fill-opacity:1.0; 
stroke:#000000; stroke-width:0; stroke-opacity:1; 
stroke-linecap:round; stroke-linejoin:round;fill-rule:evenodd;"
d="M 74174,33818
74252,33818
74252,33503
74174,33503
74174,33818
Z" /> 
<path style="fill:#000000; fill-opacity:1.0; 
stroke:#000000; stroke-width:0; stroke-opacity:1; 
stroke-linecap:round; stroke-linejoin:round;fill-rule:evenodd;"
d="M 73977,33818
74055,33818
74055,33503
73977,33503
73977,33818
Z" /> 
<path style="fill:#000000; fill-opacity:1.0; 
stroke:#000000; stroke-width:0; stroke-opacity:1; 
stroke-linecap:round; stroke-linejoin:round;fill-rule:evenodd;"
d="M 73780,33818
73859,33818
73859,33503
73780,33503
73780,33818
Z" /> 
<path style="fill:#000000; fill-opacity:1.0; 
stroke:#000000; stroke-width:0; stroke-opacity:1; 
stroke-linecap:round; stroke-linejoin:round;fill-rule:evenodd;"
d="M 73583,33818
73662,33818
73662,33503
73583,33503
73583,33818
Z" /> 
<path style="fill:#000000; fill-opacity:1.0; 
stroke:#000000; stroke-width:0; stroke-opacity:1; 
stroke-linecap:round; stroke-linejoin:round;fill-rule:evenodd;"
d="M 73386,33818
73465,33818
73465,33503
73386,33503
73386,33818
Z" /> 
<path style="fill:#000000; fill-opacity:1.0; 
stroke:#000000; stroke-width:0; stroke-opacity:1; 
stroke-linecap:round; stroke-linejoin:round;fill-rule:evenodd;"
d="M 73189,33818
73268,33818
73268,33503
73189,33503
73189,33818
Z" /> 
<path style="fill:#000000; fill-opacity:1.0; 
stroke:#000000; stroke-width:0; stroke-opacity:1; 
stroke-linecap:round; stroke-linejoin:round;fill-rule:evenodd;"
d="M 72992,33818
73071,33818
73071,33503
72992,33503
72992,33818
Z" /> 
<path style="fill:#000000; fill-opacity:1.0; 
stroke:#000000; stroke-width:0; stroke-opacity:1; 
stroke-linecap:round; stroke-linejoin:round;fill-rule:evenodd;"
d="M 72796,33818
72874,33818
72874,33503
72796,33503
72796,33818
Z" /> 
<path style="fill:#000000; fill-opacity:1.0; 
stroke:#000000; stroke-width:0; stroke-opacity:1; 
stroke-linecap:round; stroke-linejoin:round;fill-rule:evenodd;"
d="M 72599,33818
72678,33818
72678,33503
72599,33503
72599,33818
Z" /> 
<path style="fill:#000000; fill-opacity:1.0; 
stroke:#000000; stroke-width:0; stroke-opacity:1; 
stroke-linecap:round; stroke-linejoin:round;fill-rule:evenodd;"
d="M 72402,33818
72481,33818
72481,33503
72402,33503
72402,33818
Z" /> 
<path style="fill:#000000; fill-opacity:1.0; 
stroke:#000000; stroke-width:0; stroke-opacity:1; 
stroke-linecap:round; stroke-linejoin:round;fill-rule:evenodd;"
d="M 72205,33818
72284,33818
72284,33503
72205,33503
72205,33818
Z" /> 
<path style="fill:#000000; fill-opacity:1.0; 
stroke:#000000; stroke-width:0; stroke-opacity:1; 
stroke-linecap:round; stroke-linejoin:round;fill-rule:evenodd;"
d="M 72008,33818
72087,33818
72087,33503
72008,33503
72008,33818
Z" /> 
<path style="fill:#000000; fill-opacity:1.0; 
stroke:#000000; stroke-width:0; stroke-opacity:1; 
stroke-linecap:round; stroke-linejoin:round;fill-rule:evenodd;"
d="M 71811,33818
71890,33818
71890,33503
71811,33503
71811,33818
Z" /> 
<path style="fill:#000000; fill-opacity:1.0; 
stroke:#000000; stroke-width:0; stroke-opacity:1; 
stroke-linecap:round; stroke-linejoin:round;fill-rule:evenodd;"
d="M 71615,33818
71693,33818
71693,33503
71615,33503
71615,33818
Z" /> 
<path style="fill:#000000; fill-opacity:1.0; 
stroke:#000000; stroke-width:0; stroke-opacity:1; 
stroke-linecap:round; stroke-linejoin:round;fill-rule:evenodd;"
d="M 71418,33818
71496,33818
71496,33503
71418,33503
71418,33818
Z" /> 
<path style="fill:#000000; fill-opacity:1.0; 
stroke:#000000; stroke-width:0; stroke-opacity:1; 
stroke-linecap:round; stroke-linejoin:round;fill-rule:evenodd;"
d="M 71221,33818
71300,33818
71300,33503
71221,33503
71221,33818
Z" /> 
<path style="fill:#000000; fill-opacity:1.0; 
stroke:#000000; stroke-width:0; stroke-opacity:1; 
stroke-linecap:round; stroke-linejoin:round;fill-rule:evenodd;"
d="M 71024,33818
71103,33818
71103,33503
71024,33503
71024,33818
Z" /> 
<path style="fill:#000000; fill-opacity:1.0; 
stroke:#000000; stroke-width:0; stroke-opacity:1; 
stroke-linecap:round; stroke-linejoin:round;fill-rule:evenodd;"
d="M 70827,33818
70906,33818
70906,33503
70827,33503
70827,33818
Z" /> 
</g>
<g >
<circle cx="79626.9" cy="39074.8" r="393.701" /> 
</g>
<g style="fill:#000000; fill-opacity:1.0; 
stroke:#000000; stroke-width:39.3701; stroke-opacity:1; 
stroke-linecap:round; stroke-linejoin:round;">
</g>
<g style="fill:#000000; fill-opacity:1.0; 
stroke:#000000; stroke-width:0; stroke-opacity:1; 
stroke-linecap:round; stroke-linejoin:round;">
<circle cx="78347.3" cy="37992.1" r="393.701" /> 
</g>
<g style="fill:#000000; fill-opacity:1.0; 
stroke:#000000; stroke-width:39.3701; stroke-opacity:1; 
stroke-linecap:round; stroke-linejoin:round;">
</g>
<g style="fill:#000000; fill-opacity:1.0; 
stroke:#000000; stroke-width:0; stroke-opacity:1; 
stroke-linecap:round; stroke-linejoin:round;">
<circle cx="77559.9" cy="31692.9" r="393.701" /> 
</g>
<g style="fill:#000000; fill-opacity:1.0; 
stroke:#000000; stroke-width:39.3701; stroke-opacity:1; 
stroke-linecap:round; stroke-linejoin:round;">
</g>
<g style="fill:#000000; fill-opacity:1.0; 
stroke:#000000; stroke-width:0; stroke-opacity:1; 
stroke-linecap:round; stroke-linejoin:round;">
<circle cx="74508.7" cy="45570.9" r="393.701" /> 
</g>
<g style="fill:#000000; fill-opacity:1.0; 
stroke:#000000; stroke-width:39.3701; stroke-opacity:1; 
stroke-linecap:round; stroke-linejoin:round;">
</g>
<g style="fill:#000000; fill-opacity:1.0; 
stroke:#000000; stroke-width:0; stroke-opacity:1; 
stroke-linecap:round; stroke-linejoin:round;">
<circle cx="68996.9" cy="40059.1" r="393.701" /> 
</g>
<g style="fill:#000000; fill-opacity:1.0; 
stroke:#000000; stroke-width:39.3701; stroke-opacity:1; 
stroke-linecap:round; stroke-linejoin:round;">
</g>
<g style="fill:#000000; fill-opacity:1.0; 
stroke:#000000; stroke-width:0; stroke-opacity:1; 
stroke-linecap:round; stroke-linejoin:round;">
<circle cx="76083.5" cy="44881.9" r="393.701" /> 
</g>
<g style="fill:#000000; fill-opacity:1.0; 
stroke:#000000; stroke-width:39.3701; stroke-opacity:1; 
stroke-linecap:round; stroke-linejoin:round;">
</g>
<g style="fill:#000000; fill-opacity:1.0; 
stroke:#000000; stroke-width:0; stroke-opacity:1; 
stroke-linecap:round; stroke-linejoin:round;">
<circle cx="73229.2" cy="45570.9" r="393.701" /> 
</g>
<g style="fill:#000000; fill-opacity:1.0; 
stroke:#000000; stroke-width:39.3701; stroke-opacity:1; 
stroke-linecap:round; stroke-linejoin:round;">
</g>
<g style="fill:#000000; fill-opacity:1.0; 
stroke:#000000; stroke-width:0; stroke-opacity:1; 
stroke-linecap:round; stroke-linejoin:round;">
<circle cx="67717.4" cy="39763.8" r="393.701" /> 
</g>
<g style="fill:#000000; fill-opacity:1.0; 
stroke:#000000; stroke-width:39.3701; stroke-opacity:1; 
stroke-linecap:round; stroke-linejoin:round;">
</g>
<g style="fill:#000000; fill-opacity:1.0; 
stroke:#000000; stroke-width:0; stroke-opacity:1; 
stroke-linecap:round; stroke-linejoin:round;">
<circle cx="77166.2" cy="44881.9" r="393.701" /> 
</g>
<g style="fill:#000000; fill-opacity:1.0; 
stroke:#000000; stroke-width:39.3701; stroke-opacity:1; 
stroke-linecap:round; stroke-linejoin:round;">
</g>
<g style="fill:#000000; fill-opacity:1.0; 
stroke:#000000; stroke-width:0; stroke-opacity:1; 
stroke-linecap:round; stroke-linejoin:round;">
<circle cx="75394.6" cy="40944.9" r="393.701" /> 
</g>
<g style="fill:#000000; fill-opacity:1.0; 
stroke:#000000; stroke-width:39.3701; stroke-opacity:1; 
stroke-linecap:round; stroke-linejoin:round;">
</g>
<g style="fill:#000000; fill-opacity:1.0; 
stroke:#000000; stroke-width:0; stroke-opacity:1; 
stroke-linecap:round; stroke-linejoin:round;">
<circle cx="73819.8" cy="38582.7" r="393.701" /> 
</g>
<g style="fill:#000000; fill-opacity:1.0; 
stroke:#000000; stroke-width:39.3701; stroke-opacity:1; 
stroke-linecap:round; stroke-linejoin:round;">
</g>
<g style="fill:#000000; fill-opacity:1.0; 
stroke:#000000; stroke-width:0; stroke-opacity:1; 
stroke-linecap:round; stroke-linejoin:round;">
<circle cx="74607.2" cy="40551.2" r="393.701" /> 
</g>
<g style="fill:#000000; fill-opacity:1.0; 
stroke:#000000; stroke-width:39.3701; stroke-opacity:1; 
stroke-linecap:round; stroke-linejoin:round;">
</g>
<g style="fill:#000000; fill-opacity:1.0; 
stroke:#000000; stroke-width:0; stroke-opacity:1; 
stroke-linecap:round; stroke-linejoin:round;">
<circle cx="75000.9" cy="39566.9" r="393.701" /> 
</g>
<g style="fill:#000000; fill-opacity:1.0; 
stroke:#000000; stroke-width:39.3701; stroke-opacity:1; 
stroke-linecap:round; stroke-linejoin:round;">
</g>
<g style="fill:#000000; fill-opacity:1.0; 
stroke:#000000; stroke-width:0; stroke-opacity:1; 
stroke-linecap:round; stroke-linejoin:round;">
<circle cx="71063.9" cy="45177.2" r="393.701" /> 
</g>
<g style="fill:#000000; fill-opacity:1.0; 
stroke:#000000; stroke-width:39.3701; stroke-opacity:1; 
stroke-linecap:round; stroke-linejoin:round;">
</g>
<g style="fill:#000000; fill-opacity:1.0; 
stroke:#000000; stroke-width:0; stroke-opacity:1; 
stroke-linecap:round; stroke-linejoin:round;">
<circle cx="74410.3" cy="36417.3" r="393.701" /> 
</g>
<g style="fill:#000000; fill-opacity:1.0; 
stroke:#000000; stroke-width:39.3701; stroke-opacity:1; 
stroke-linecap:round; stroke-linejoin:round;">
</g>
<g style="fill:#000000; fill-opacity:1.0; 
stroke:#000000; stroke-width:0; stroke-opacity:1; 
stroke-linecap:round; stroke-linejoin:round;">
<circle cx="70867" cy="35039.4" r="393.701" /> 
</g>
<g style="fill:#000000; fill-opacity:1.0; 
stroke:#000000; stroke-width:39.3701; stroke-opacity:1; 
stroke-linecap:round; stroke-linejoin:round;">
</g>
<g style="fill:#000000; fill-opacity:1.0; 
stroke:#000000; stroke-width:0; stroke-opacity:1; 
stroke-linecap:round; stroke-linejoin:round;">
<circle cx="74804" cy="37204.7" r="393.701" /> 
</g>
<g style="fill:#000000; fill-opacity:1.0; 
stroke:#000000; stroke-width:39.3701; stroke-opacity:1; 
stroke-linecap:round; stroke-linejoin:round;">
</g>
<g style="fill:#000000; fill-opacity:1.0; 
stroke:#000000; stroke-width:0; stroke-opacity:1; 
stroke-linecap:round; stroke-linejoin:round;">
<circle cx="69489.1" cy="34448.8" r="393.701" /> 
</g>
<g style="fill:#000000; fill-opacity:1.0; 
stroke:#000000; stroke-width:39.3701; stroke-opacity:1; 
stroke-linecap:round; stroke-linejoin:round;">
</g>
<g style="fill:#000000; fill-opacity:1.0; 
stroke:#000000; stroke-width:0; stroke-opacity:1; 
stroke-linecap:round; stroke-linejoin:round;">
<circle cx="69784.3" cy="45374" r="393.701" /> 
</g>
<g style="fill:#000000; fill-opacity:1.0; 
stroke:#000000; stroke-width:39.3701; stroke-opacity:1; 
stroke-linecap:round; stroke-linejoin:round;">
</g>
<g >
</g>
<g style="fill:#000000; fill-opacity:1.0; 
stroke:#000000; stroke-width:98.4252; stroke-opacity:1; 
stroke-linecap:round; stroke-linejoin:round;">
</g>
<g style="fill:#000000; fill-opacity:0.0; 
stroke:#000000; stroke-width:98.4252; stroke-opacity:1; 
stroke-linecap:round; stroke-linejoin:round;">
<path d="M74016 33661
L74016 33267
" />
<path d="M72244 33661
L72244 33267
" />
<path d="M75788 36023
L75985 36220
" />
<path d="M75197 36023
L75788 36023
" />
<path d="M77953 36171
L77953 36220
" />
<path d="M76526 35629
L77412 35629
" />
<path d="M75985 36220
L75985 36171
" />
<path d="M74016 33661
L74016 33917
" />
<path d="M73878 34055
L73737 34055
" />
<path d="M73737 34055
L73622 34169
" />
<path d="M74016 33917
L73878 34055
" />
<path d="M73622 34169
L73622 35088
" />
<path d="M74016 35482
L74016 35531
" />
<path d="M73622 35088
L74016 35482
" />
<path d="M74853 36023
L74607 35777
" />
<path d="M75197 36023
L74853 36023
" />
<path d="M74607 35777
L74607 35629
" />
<path d="M74361 35531
L74016 35531
" />
<path d="M74508 35531
L74361 35531
" />
<path d="M74607 35629
L74508 35531
" />
<path d="M74016 35580
L74016 35531
" />
<path d="M73672 35925
L74016 35580
" />
<path d="M73672 36844
L73672 35925
" />
<path d="M76181 39901
L76181 39862
" />
<path d="M76181 39862
L75000 38681
" />
<path d="M74784 37972
L74784 37957
" />
<path d="M75000 38681
L75000 38188
" />
<path d="M75000 38188
L74784 37972
" />
<path d="M74784 37957
L73672 36844
" />
<path d="M70748 42362
L70670 42440
" />
<path d="M71142 42362
L70748 42362
" />
<path d="M70670 42440
L70552 42440
" />
<path d="M71142 42992
L73150 42992
" />
<path d="M73465 42677
L74528 42677
" />
<path d="M73150 42992
L73465 42677
" />
<path d="M71142 42992
L70689 42992
" />
<path d="M70689 42992
L70670 43011
" />
<path d="M70670 43011
L70571 42913
" />
<path d="M74528 42677
L75158 42677
" />
<path d="M75158 42677
L75197 42716
" />
<path d="M73819 33661
L73622 33661
" />
<path d="M74922 41732
L75315 42125
" />
<path d="M74528 41732
L74922 41732
" />
<path d="M75158 42362
L75394 42125
" />
<path d="M75315 42125
L75394 42125
" />
<path d="M74528 42362
L75158 42362
" />
<path d="M80492 37500
L80099 37500
" />
<path d="M72048 41929
L73426 41929
" />
<path d="M74410 41732
L74489 41811
" />
<path d="M73426 41929
L73622 41732
" />
<path d="M73622 41732
L74410 41732
" />
<path d="M74489 41811
L74607 41811
" />
<path d="M74528 42362
L73859 42362
" />
<path d="M73859 42362
L73426 41929
" />
<path d="M71536 42677
L71575 42716
" />
<path d="M71142 42677
L71536 42677
" />
<path d="M71575 42716
L71851 42716
" />
<path d="M71851 42716
L72638 41929
" />
<path d="M70867 39960
L70867 39566
" />
<path d="M80512 45374
L81201 45374
" />
<path d="M81624 39320
L80492 38188
" />
<path d="M81624 44950
L81624 39320
" />
<path d="M80492 38188
L80492 37500
" />
<path d="M81201 45374
L81624 44950
" />
<path d="M80886 37500
L80492 37500
" />
<path d="M82481 32677
L82481 35905
" />
<path d="M82481 35905
L80886 37500
" />
<path d="M80512 30708
L82481 32677
" />
<path d="M75788 30708
L75886 30708
" />
<path d="M75886 30708
L80512 30708
" />
<path d="M73622 31003
L73918 30708
" />
<path d="M73622 33661
L73622 31003
" />
<path d="M74311 30708
L75099 30708
" />
<path d="M73918 30708
L75099 30708
" />
<path d="M75099 30708
L75886 30708
" />
<path d="M71654 41929
L72048 41929
" />
<path d="M71536 42047
L71654 41929
" />
<path d="M71142 42047
L71536 42047
" />
<path d="M71142 42047
L70748 42047
" />
<path d="M70748 42047
L70473 41771
" />
<path d="M70473 40452
L70473 40354
" />
<path d="M70473 40354
L70867 39960
" />
<path d="M76378 42775
L76378 41830
" />
<path d="M76378 42775
L77953 42775
" />
<path d="M68701 41338
L69258 41338
" />
<path d="M69258 41338
L70473 41338
" />
<path d="M70473 41771
L70473 41338
" />
<path d="M70473 41338
L70473 40452
" />
<path d="M70867 39566
L69882 39566
" />
<path d="M75689 41830
L76378 41830
" />
<path d="M75394 42125
L75689 41830
" />
<path d="M76723 41830
L76378 41830
" />
<path d="M77427 41830
L76723 41830
" />
<path d="M79626 39631
L77427 41830
" />
<path d="M79626 39074
L79626 39631
" />
<path d="M66733 31496
L66733 32052
" />
<path d="M66733 37007
L66733 31496
" />
<path d="M68642 37757
L67483 37757
" />
<path d="M67483 37757
L66733 37007
" />
<path d="M76398 37578
L76378 37578
" />
<path d="M76969 37007
L76398 37578
" />
<path d="M76378 37834
L76378 37578
" />
<path d="M76378 38041
L76378 37834
" />
<path d="M77018 38681
L76378 38041
" />
<path d="M77363 38681
L77018 38681
" />
<path d="M80118 35433
L78544 37007
" />
<path d="M80512 35433
L80118 35433
" />
<path d="M78544 37007
L76969 37007
" />
<path d="M76969 36661
L76969 37007
" />
<path d="M78347 31692
L78347 31692
" />
<path d="M78052 37696
L78347 37992
" />
<path d="M77363 37696
L78052 37696
" />
<path d="M78347 31692
L78248 31692
" />
<path d="M77559 31692
L78248 31692
" />
<path d="M78248 31692
L78890 31692
" />
<path d="M78445 32157
L78445 32505
" />
<path d="M78445 31789
L78445 32157
" />
<path d="M78542 31692
L78445 31789
" />
<path d="M78890 31692
L78542 31692
" />
<path d="M74804 35039
L75197 35039
" />
<path d="M74410 33661
L74410 34645
" />
<path d="M74410 34645
L74804 35039
" />
<path d="M77953 35236
L77363 35236
" />
<path d="M76949 35236
L76969 35236
" />
<path d="M75187 34438
L76152 34438
" />
<path d="M74804 34055
L75187 34438
" />
<path d="M76152 34438
L76949 35236
" />
<path d="M74804 33661
L74804 34055
" />
<path d="M76969 35236
L77363 35236
" />
<path d="M75197 33661
L75197 33891
" />
<path d="M75197 33891
L75361 34055
" />
<path d="M77953 34448
L78347 34055
" />
<path d="M75361 34055
L76772 34055
" />
<path d="M76772 34055
L77166 34448
" />
<path d="M77166 34448
L77953 34448
" />
<path d="M80807 33710
L80807 33759
" />
<path d="M80365 33267
L80807 33710
" />
<path d="M78859 33267
L80365 33267
" />
<path d="M78445 33681
L78859 33267
" />
<path d="M78445 34029
L78445 33681
" />
<path d="M74213 34350
L74213 33661
" />
<path d="M74016 34547
L74213 34350
" />
<path d="M75758 34616
L75985 34842
" />
<path d="M75985 34842
L75985 35236
" />
<path d="M75197 34616
L75365 34616
" />
<path d="M74607 34251
L74971 34616
" />
<path d="M74607 33661
L74607 34251
" />
<path d="M75305 34616
L75365 34616
" />
<path d="M74971 34616
L75197 34616
" />
<path d="M75365 34616
L75758 34616
" />
<path d="M75000 33945
L75307 34251
" />
<path d="M75000 33661
L75000 33945
" />
<path d="M75307 34251
L76575 34251
" />
<path d="M76575 34251
L76969 34645
" />
<path d="M79528 33759
L79528 33858
" />
<path d="M79528 33858
L79134 34251
" />
<path d="M79134 34251
L78741 34645
" />
<path d="M76969 34645
L78741 34645
" />
<path d="M75394 33779
L75473 33858
" />
<path d="M75394 33661
L75394 33779
" />
<path d="M75473 33858
L77559 33858
" />
<path d="M71654 36368
L71851 36171
" />
<path d="M71654 36417
L71654 36368
" />
<path d="M71851 36171
L71851 35629
" />
<path d="M71851 35629
L72048 35433
" />
<path d="M72048 35433
L72048 34448
" />
<path d="M71654 34055
L71654 33661
" />
<path d="M72048 34448
L71654 34055
" />
<path d="M71457 33661
L71457 34448
" />
<path d="M71457 34448
L71654 34645
" />
<path d="M71654 34645
L71654 35236
" />
<path d="M71654 35236
L70867 36023
" />
<path d="M70867 36023
L70867 36417
" />
<path d="M70748 43307
L71142 43307
" />
<path d="M70473 43307
L70748 43307
" />
<path d="M70374 43405
L70473 43307
" />
<path d="M69981 43405
L70374 43405
" />
<path d="M69252 42322
L69981 43051
" />
<path d="M69193 42322
L69252 42322
" />
<path d="M68996 42125
L69193 42322
" />
<path d="M68012 42125
L68996 42125
" />
<path d="M67422 41535
L68012 42125
" />
<path d="M65453 41535
L67422 41535
" />
<path d="M69981 43051
L69981 43405
" />
<path d="M65020 38257
L66014 38257
" />
<path d="M66241 38877
L65158 39960
" />
<path d="M66014 38257
L66241 38484
" />
<path d="M66241 38484
L66241 38877
" />
<path d="M65158 39960
L65158 41240
" />
<path d="M65158 41240
L65453 41535
" />
<path d="M76378 43877
L76378 43838
" />
<path d="M76378 44586
L76083 44881
" />
<path d="M76378 43838
L76378 44586
" />
<path d="M74115 45177
L74508 45570
" />
<path d="M73878 45177
L74115 45177
" />
<path d="M73307 44606
L73878 45177
" />
<path d="M73307 44212
L73307 44606
" />
<path d="M69262 38257
L68642 38257
" />
<path d="M69390 39108
L69390 38385
" />
<path d="M68996 40059
L68996 39502
" />
<path d="M69390 38385
L69262 38257
" />
<path d="M68996 39502
L69390 39108
" />
<path d="M77166 43838
L77166 43877
" />
<path d="M77166 43838
L77166 44881
" />
<path d="M72992 44777
L72992 44724
" />
<path d="M73229 45014
L72992 44777
" />
<path d="M73229 45570
L73229 45014
" />
<path d="M72992 44822
L72992 44724
" />
<path d="M72992 44724
L72992 44212
" />
<path d="M67853 39763
L67717 39763
" />
<path d="M68642 38974
L67853 39763
" />
<path d="M68642 38757
L68642 38974
" />
<path d="M73229 37992
L73819 38582
" />
<path d="M73229 33661
L73229 37992
" />
<path d="M74922 41417
L75394 40944
" />
<path d="M74528 41417
L74922 41417
" />
<path d="M74331 40826
L74607 40551
" />
<path d="M73937 40826
L74331 40826
" />
<path d="M73426 33661
L73426 37007
" />
<path d="M73426 37007
L74607 38188
" />
<path d="M74607 38188
L74607 39173
" />
<path d="M73622 40157
L73622 40826
" />
<path d="M74607 39173
L73622 40157
" />
<path d="M75000 39566
L74607 39173
" />
<path d="M77953 43838
L77953 43877
" />
<path d="M78406 43838
L77953 43838
" />
<path d="M78839 43405
L78406 43838
" />
<path d="M80512 43405
L78839 43405
" />
<path d="M72678 44212
L72678 44842
" />
<path d="M72343 45177
L71063 45177
" />
<path d="M72678 44842
L72343 45177
" />
<path d="M73307 39055
L73307 40826
" />
<path d="M73032 33661
L73032 38779
" />
<path d="M73032 38779
L73307 39055
" />
<path d="M72835 33661
L72835 39370
" />
<path d="M72992 40433
L72992 40826
" />
<path d="M72992 39527
L72992 40433
" />
<path d="M72835 39370
L72992 39527
" />
<path d="M72638 40787
L72678 40826
" />
<path d="M72638 33661
L72638 40787
" />
<path d="M72441 33661
L72441 39960
" />
<path d="M72363 40039
L72363 40826
" />
<path d="M72441 39960
L72363 40039
" />
<path d="M71260 33917
L71260 33661
" />
<path d="M71260 34088
L71260 33917
" />
<path d="M70867 34482
L71260 34088
" />
<path d="M70867 35039
L70867 34482
" />
<path d="M70079 35826
L70079 36417
" />
<path d="M70867 35039
L70079 35826
" />
<path d="M75571 37204
L75591 37204
" />
<path d="M75315 36948
L75571 37204
" />
<path d="M74804 36417
L75315 36929
" />
<path d="M75315 36929
L75315 36948
" />
<path d="M70045 34448
L69489 34448
" />
<path d="M70506 34448
L70045 34448
" />
<path d="M71063 33891
L70506 34448
" />
<path d="M71063 33661
L71063 33891
" />
<path d="M75355 37952
L75591 37952
" />
<path d="M74607 37204
L75355 37952
" />
<path d="M75827 38838
L76181 38838
" />
<path d="M75591 38602
L75827 38838
" />
<path d="M75591 37952
L75591 38602
" />
<path d="M71142 43828
L71142 43622
" />
<path d="M70680 44291
L71142 43828
" />
<path d="M69981 44291
L69981 44291
" />
<path d="M69981 44291
L69941 44291
" />
<path d="M69981 44291
L70680 44291
" />
<path d="M69981 45177
L69784 45374
" />
<path d="M69981 44291
L69981 45177
" />
</g>
<g >
</g>
<g style="fill:#000000; fill-opacity:1.0; 
stroke:#000000; stroke-width:100; stroke-opacity:1; 
stroke-linecap:round; stroke-linejoin:round;">
<path style="fill:#000000; fill-opacity:1.0; 
stroke:#000000; stroke-width:100; stroke-opacity:1; 
stroke-linecap:round; stroke-linejoin:round;fill-rule:evenodd;"
d="M 67472,32086
67471,32096
67468,32105
67463,32114
67457,32121
67449,32128
67441,32132
67431,32135
67422,32136
67048,32136
67048,36877
67613,37442
67968,37442
67963,37424
67958,37375
67959,37370
68022,37307
68592,37307
68592,37315
68692,37315
68692,37307
69263,37307
69325,37370
69326,37375
69322,37424
69307,37472
69297,37490
69298,37490
69323,37537
69338,37587
69343,37639
69343,37875
69338,37928
69332,37948
69342,37952
69384,37964
69438,37994
69487,38033
69496,38045
69518,38067
69540,38055
69587,38041
69636,38036
69770,38037
69832,38099
69832,38532
69824,38532
69824,38632
69832,38632
69832,38640
69932,38640
69932,38632
70316,38632
70374,38691
70433,38632
70817,38632
70817,38640
70917,38640
70917,38632
71300,38632
71363,38695
71364,38877
71359,38926
71345,38974
71321,39017
71290,39055
71280,39064
71302,39082
71335,39122
71360,39169
71375,39219
71380,39271
71380,39862
71375,39914
71360,39964
71335,40011
71302,40051
71261,40084
71215,40109
71165,40124
71135,40127
71130,40136
71091,40184
71079,40194
70789,40485
70789,41048
70795,41046
70847,41041
71357,41041
71357,40531
71362,40479
71377,40429
71402,40382
71435,40342
71476,40308
71522,40284
71572,40268
71624,40263
71841,40263
71890,40268
71939,40263
72047,40263
72047,40054
72045,40039
72047,40023
72047,40023
72051,39977
72052,39976
72069,39917
72069,39917
72099,39863
72126,39830
72126,38287
71364,38287
71363,38470
71300,38532
70917,38532
70917,38099
70817,38099
70817,38532
70433,38532
70374,38474
70316,38532
69932,38532
69932,38099
69995,38037
70128,38036
70177,38041
70224,38055
70268,38078
70306,38109
70337,38147
70360,38191
70374,38237
70388,38191
70412,38147
70443,38109
70481,38078
70524,38055
70571,38041
70620,38036
70754,38037
70817,38099
70917,38099
70979,38037
71113,38036
71162,38041
71209,38055
71252,38078
71290,38109
71321,38147
71345,38191
71359,38238
71364,38287
72126,38287
72126,37805
72109,37836
72078,37874
72040,37905
71996,37928
71949,37943
71900,37948
71766,37946
71704,37884
71704,37451
71604,37451
71604,37884
71541,37946
71408,37948
71359,37943
71312,37928
71268,37905
71260,37899
71252,37905
71209,37928
71162,37943
71113,37948
70979,37946
70917,37884
70917,37451
71604,37451
71704,37451
71712,37451
71712,37351
71704,37351
71704,37343
71604,37343
71604,37351
70917,37351
70917,37343
70817,37343
70817,37351
70809,37351
70809,37451
70817,37451
70817,37884
70754,37946
70620,37948
70571,37943
70531,37930
70513,37953
70475,37984
70431,38007
70384,38021
70335,38026
70192,38025
70129,37963
70129,37530
70029,37530
70029,37963
69967,38025
69823,38026
69774,38021
69727,38007
69684,37984
69646,37953
69614,37915
69591,37871
69577,37824
69572,37775
69573,37592
69636,37530
70029,37530
70129,37530
70137,37530
70137,37430
70129,37430
70129,37422
70029,37422
70029,37430
69636,37430
69573,37367
69572,37185
69577,37136
69591,37088
69614,37045
69646,37007
69684,36976
69717,36958
69674,36935
69634,36901
69612,36875
69326,36875
69322,36924
69307,36972
69288,37007
69307,37043
69322,37090
69326,37139
69325,37145
69263,37207
68692,37207
68692,36807
68592,36807
68592,37207
68022,37207
67959,37145
67958,37139
67963,37090
67977,37043
67996,37007
67977,36972
67963,36924
67958,36875
67959,36870
68022,36807
68592,36807
68692,36807
69263,36807
69325,36870
69326,36875
69612,36875
69601,36861
69576,36815
69561,36764
69555,36712
69555,36375
69326,36375
69322,36424
69307,36472
69288,36507
69307,36543
69322,36590
69326,36639
69325,36645
69263,36707
68692,36707
68692,36307
68592,36307
68592,36707
68022,36707
67959,36645
67958,36639
67963,36590
67977,36543
67996,36507
67977,36472
67963,36424
67958,36375
67959,36370
68022,36307
68592,36307
68692,36307
69263,36307
69325,36370
69326,36375
69555,36375
69555,36122
69561,36069
69576,36019
69601,35973
69634,35932
69674,35899
69718,35875
69326,35875
69322,35924
69307,35972
69288,36007
69307,36043
69322,36090
69326,36139
69325,36145
69263,36207
68692,36207
68692,35807
68592,35807
68592,36207
68022,36207
67959,36145
67958,36139
67963,36090
67977,36043
67996,36007
67977,35972
67963,35924
67958,35875
67959,35870
68022,35807
68592,35807
68692,35807
69263,35807
69325,35870
69326,35875
69718,35875
69721,35874
69763,35861
69763,35842
69762,35826
69763,35811
69763,35811
69768,35764
69786,35705
69815,35650
69855,35602
69867,35592
70083,35375
69326,35375
69322,35424
69307,35472
69288,35507
69307,35543
69322,35590
69326,35639
69325,35645
69263,35707
68692,35707
68692,35307
68592,35307
68592,35707
68022,35707
67959,35645
67958,35639
67963,35590
67977,35543
67996,35507
67977,35472
67963,35424
67958,35375
67959,35370
68022,35307
68592,35307
68692,35307
69263,35307
69325,35370
69326,35375
70083,35375
70231,35228
70206,35104
70206,34974
70232,34846
70266,34764
70072,34764
70001,34869
69909,34961
69801,35033
69681,35083
69554,35109
69424,35109
69321,35088
69322,35090
69326,35139
69325,35145
69263,35207
68692,35207
68692,34952
68592,34952
68592,35207
68022,35207
67959,35145
67958,35139
67963,35090
67977,35043
68000,35000
68031,34962
68069,34930
68113,34907
68160,34893
68209,34888
68530,34889
68592,34952
68692,34952
68755,34889
68995,34888
68976,34869
68903,34761
68854,34641
68828,34513
68828,34383
68854,34256
68903,34136
68957,34055
68926,34071
68803,34103
68677,34110
68551,34093
68431,34052
68363,34015
68325,33911
68701,33535
68707,33540
68777,33470
68772,33464
68630,33464
68254,33840
68150,33803
68095,33689
68062,33566
68055,33439
68072,33314
68113,33194
68150,33125
68254,33088
68630,33464
68772,33464
69148,33088
69252,33125
69308,33239
69340,33362
69347,33489
69330,33614
69289,33734
69252,33803
69148,33840
69173,33865
69176,33863
69296,33813
69424,33788
69554,33788
69681,33813
69801,33863
69909,33935
70001,34027
70072,34133
70375,34133
70582,33926
70580,33921
70564,33871
70559,33818
70559,33750
69685,33750
69659,33748
69632,33745
69631,33745
69630,33745
69604,33737
69578,33729
69577,33729
69576,33729
69553,33716
69529,33704
69528,33703
69527,33702
69506,33685
69485,33669
69485,33668
69484,33667
69467,33646
69449,33626
69449,33625
69448,33624
69435,33600
69422,33577
69422,33576
69422,33575
69414,33549
69405,33524
69405,33523
69405,33522
69402,33495
69399,33468
69399,33466
69399,33466
69399,33466
69399,33464
69399,33017
69077,33017
68701,33393
68325,33017
68363,32913
68477,32857
68599,32825
68726,32818
68851,32835
68971,32876
69040,32913
69077,33017
69399,33017
69399,31889
69402,31862
69404,31836
69405,31835
69405,31834
69412,31808
69420,31782
69420,31781
69421,31780
69433,31756
69446,31733
69447,31732
69447,31731
69464,31710
69481,31689
69482,31688
69482,31688
69503,31670
69524,31653
69525,31653
69525,31652
69549,31639
69573,31626
69574,31626
69574,31625
69600,31617
69626,31609
69627,31609
69628,31609
69655,31606
69681,31603
69683,31603
69683,31603
69683,31603
69685,31603
70670,31603
70696,31606
70723,31608
70724,31608
70725,31608
70751,31616
70777,31624
70778,31624
70779,31625
70803,31637
70826,31650
70827,31650
70828,31651
70849,31668
70870,31685
70871,31686
70871,31686
70888,31707
70906,31728
70906,31728
70907,31729
70920,31753
70933,31777
70933,31777
70934,31778
70941,31804
70950,31830
70950,31831
70950,31832
70953,31858
70956,31885
70956,31887
70956,31887
70956,31887
70956,31889
70956,33241
70958,33241
70965,33243
70972,33241
71024,33236
71103,33236
71155,33241
71162,33243
71169,33241
71221,33236
71300,33236
71352,33241
71359,33243
71365,33241
71418,33236
71496,33236
71549,33241
71555,33243
71562,33241
71615,33236
71693,33236
71746,33241
71752,33243
71759,33241
71811,33236
71890,33236
71942,33241
71949,33243
71956,33241
72008,33236
72087,33236
72139,33241
72181,33254
72182,33253
72182,33254
72189,33256
72236,33281
72244,33288
72253,33281
72299,33256
72307,33254
72307,33253
72308,33254
72350,33241
72402,33236
72481,33236
72533,33241
72540,33243
72547,33241
72599,33236
72678,33236
72730,33241
72737,33243
72743,33241
72796,33236
72874,33236
72927,33241
72933,33243
72940,33241
72992,33236
73071,33236
73123,33241
73130,33243
73137,33241
73189,33236
73268,33236
73307,33239
73307,31019
73305,31003
73307,30988
73307,30988
73311,30942
73329,30882
73359,30827
73398,30779
73410,30769
73683,30496
73693,30484
73741,30444
73796,30415
73856,30397
73902,30392
73902,30392
73918,30391
73933,30392
80497,30392
80512,30391
80528,30392
80528,30392
80569,30396
80574,30397
80634,30415
80688,30444
80737,30484
80746,30496
82693,32442
82705,32452
82744,32500
82774,32555
82792,32615
82796,32661
82796,32661
82798,32677
82796,32692
82796,35890
82798,35905
82792,35967
82774,36026
82744,36081
82722,36109
82705,36129
82693,36139
81745,37088
81745,38090
81739,38142
81724,38193
81699,38239
81666,38279
81626,38313
81579,38337
81529,38353
81477,38358
81108,38358
81837,39086
81849,39096
81859,39108
81888,39144
81918,39199
81936,39258
81942,39320
81940,39336
81940,44935
81942,44950
81940,44966
81940,44966
81937,44999
81936,45012
81934,45018
81918,45072
81888,45127
81849,45175
81837,45185
81435,45586
81426,45598
81377,45637
81323,45667
81263,45685
81258,45685
81217,45689
81217,45689
81201,45691
81186,45689
81095,45689
81025,45794
80933,45886
80825,45959
80705,46008
80577,46034
80447,46034
80320,46008
80199,45959
80091,45886
79999,45794
79927,45686
79877,45566
79852,45439
79852,45308
79877,45181
79927,45061
79999,44953
80091,44861
80152,44820
80512,44460
80872,44820
80933,44861
81025,44953
81085,45043
81309,44820
81309,44414
81159,44414
81141,44540
81100,44659
81063,44728
80959,44766
80583,44389
80441,44389
80065,44766
79961,44728
79906,44614
79873,44491
79866,44365
79883,44239
79924,44119
79961,44051
80065,44013
80441,44389
80583,44389
80959,44013
81063,44051
81119,44165
81151,44287
81159,44414
81309,44414
81309,39451
80280,38423
80268,38413
80258,38401
80258,38401
80240,38379
80229,38365
80225,38358
79508,38358
79456,38353
79406,38337
79359,38313
79319,38279
79286,38239
79261,38193
79246,38142
79240,38090
79240,36909
79246,36857
79261,36806
79286,36760
79319,36720
79359,36686
79406,36662
79456,36646
79508,36641
81298,36641
82165,35774
82165,32807
81837,32480
81305,32480
81304,32663
81241,32725
80857,32725
80857,32292
80920,32230
81054,32229
81103,32233
81150,32248
81193,32271
81231,32302
81262,32340
81286,32384
81300,32431
81305,32480
81837,32480
81339,31982
80915,31982
80910,32031
80896,32078
80873,32121
80841,32159
80803,32191
80760,32214
80713,32228
80695,32230
80757,32292
80757,32725
80374,32725
80311,32663
80310,32480
80025,32480
80024,32663
79961,32725
79578,32725
79578,32292
79478,32292
79478,32725
79094,32725
79032,32663
79031,32480
79035,32431
79050,32384
79073,32340
79104,32302
79142,32271
79186,32248
79233,32233
79282,32229
79415,32230
79478,32292
79578,32292
79640,32230
79774,32229
79823,32233
79870,32248
79914,32271
79952,32302
79983,32340
80006,32384
80020,32431
80025,32480
80310,32480
80315,32431
80329,32384
80353,32340
80384,32302
80422,32271
80465,32248
80512,32233
80529,32232
80526,32232
80464,32169
80464,31742
80364,31742
80364,32169
80301,32232
80164,32233
80115,32228
80068,32214
80024,32191
79986,32159
79955,32121
79932,32078
79917,32031
79913,31982
79914,31805
79976,31742
80364,31742
80464,31742
80851,31742
80914,31805
80915,31982
81339,31982
80914,31556
80914,31580
80851,31642
80464,31642
80464,31216
80364,31216
80364,31642
79976,31642
79914,31580
79913,31403
79917,31354
79932,31307
79955,31263
79986,31225
80024,31194
80068,31171
80115,31157
80164,31152
80301,31153
80364,31216
80464,31216
80518,31161
80381,31024
74048,31024
73938,31134
73938,33249
73953,33254
73954,33253
73954,33254
73961,33256
74007,33281
74016,33288
74025,33281
74071,33256
74078,33254
74079,33253
74079,33254
74121,33241
74174,33236
74252,33236
74305,33241
74311,33243
74318,33241
74370,33236
74449,33236
74501,33241
74508,33243
74515,33241
74567,33236
74646,33236
74698,33241
74705,33243
74712,33241
74764,33236
74843,33236
74895,33241
74902,33243
74909,33241
74961,33236
75040,33236
75092,33241
75099,33243
75106,33241
75158,33236
75237,33236
75289,33241
75296,33243
75302,33241
75305,33241
75305,31889
75307,31862
75310,31836
75310,31835
75310,31834
75318,31808
75326,31782
75326,31781
75326,31780
75339,31756
75351,31733
75352,31732
75353,31731
75370,31710
75386,31689
75387,31688
75388,31688
75409,31670
75429,31653
75430,31653
75431,31652
75455,31639
75478,31626
75479,31626
75480,31625
75506,31617
75531,31609
75532,31609
75533,31609
75560,31606
75587,31603
75589,31603
75589,31603
75589,31603
75591,31603
76575,31603
76602,31606
76629,31608
76630,31608
76631,31608
76657,31616
76682,31624
76683,31624
76684,31625
76708,31637
76732,31650
76733,31650
76734,31651
76754,31668
76775,31685
76776,31686
76777,31686
76794,31707
76811,31728
76812,31728
76812,31729
76825,31753
76838,31777
76839,31777
76839,31778
76847,31804
76855,31830
76855,31831
76856,31832
76858,31858
76861,31885
76861,31887
76861,31887
76861,31887
76861,31889
76861,33464
76859,33491
76856,33518
76856,33519
76856,33520
76849,33542
77048,33542
77051,33510
77066,33460
77091,33414
77124,33373
77146,33355
77136,33346
77104,33308
77081,33265
77067,33218
77062,33169
77063,32986
77126,32924
77509,32924
77509,32931
77609,32931
77609,32924
77617,32924
77617,32824
77609,32824
77609,32816
77509,32816
77509,32824
77126,32824
77063,32761
77062,32578
77067,32529
77081,32482
77104,32439
77136,32401
77174,32369
77217,32346
77264,32332
77313,32327
77368,32328
77367,32327
77247,32278
77139,32205
77047,32113
76974,32005
76925,31885
76899,31757
76899,31627
76925,31500
76974,31380
77047,31272
77139,31180
77247,31107
77367,31058
77494,31032
77624,31032
77752,31058
77872,31107
77980,31180
78072,31272
78143,31377
78375,31377
78377,31351
78393,31301
78417,31254
78451,31214
78491,31180
78538,31156
78588,31140
78640,31135
79140,31135
79192,31140
79243,31156
79289,31180
79330,31214
79363,31254
79388,31301
79403,31351
79408,31403
79408,31982
79403,32034
79388,32084
79363,32131
79330,32171
79289,32204
79243,32229
79192,32244
79140,32250
79002,32250
79002,32255
79002,32755
78997,32808
78982,32858
78957,32904
78924,32945
78916,32951
79031,32951
79032,32888
79094,32825
79478,32825
79478,32833
79578,32833
79578,32825
79961,32825
80024,32888
80024,32951
80311,32951
80311,32888
80374,32825
80757,32825
80757,32833
80857,32833
80857,32825
81241,32825
81304,32888
81305,33070
81300,33119
81286,33167
81262,33210
81231,33248
81221,33257
81243,33275
81276,33315
81301,33362
81316,33412
81321,33464
81321,34055
81316,34107
81301,34157
81276,34203
81243,34244
81202,34277
81156,34302
81106,34317
81054,34322
80561,34322
80509,34317
80459,34302
80413,34277
80372,34244
80339,34203
80314,34157
80299,34107
80294,34055
80294,33643
80234,33583
80042,33583
80042,34055
80037,34107
80021,34157
79997,34203
79963,34244
79923,34277
79876,34302
79826,34317
79774,34322
79510,34322
79347,34486
79347,34486
78975,34857
78965,34870
78917,34909
78872,34933
78862,34938
78802,34956
78741,34962
78725,34961
78467,34961
78467,35531
78462,35583
78447,35633
78422,35680
78389,35720
78366,35739
78377,35747
78408,35785
78431,35829
78446,35876
78450,35925
78449,36107
78387,36170
78003,36170
78003,36162
77903,36162
77903,36170
77520,36170
77457,36107
77456,35925
77461,35876
77475,35829
77498,35785
77529,35747
77540,35739
77518,35720
77484,35680
77460,35633
77444,35583
77444,35580
77407,35610
77361,35635
77310,35650
77258,35655
76680,35655
76627,35650
76577,35635
76531,35610
76494,35580
76493,35583
76478,35633
76453,35680
76420,35720
76398,35739
76408,35747
76440,35785
76463,35829
76477,35876
76482,35925
76481,36107
76418,36170
76035,36170
76035,36162
75935,36162
75935,36170
75927,36170
75927,36270
75935,36270
75935,36703
75872,36765
75739,36766
75690,36762
75642,36747
75599,36724
75561,36693
75530,36655
75506,36611
75492,36565
75492,36565
75443,36570
75402,36569
75528,36694
75540,36704
75579,36752
75593,36779
75768,36779
75820,36784
75871,36799
75917,36824
75957,36857
75991,36898
76016,36944
76031,36994
76036,37047
76036,37212
76052,37198
76099,37173
76149,37158
76201,37153
76377,37153
76463,37067
76457,37060
76432,37013
76417,36963
76412,36911
76412,36689
76408,36693
76370,36724
76327,36747
76280,36762
76231,36766
76097,36765
76035,36703
76035,36270
76418,36270
76441,36292
76457,36262
76490,36222
76531,36188
76577,36163
76627,36148
76680,36143
77258,36143
77310,36148
77361,36163
77407,36188
77448,36222
77481,36262
77497,36292
77520,36270
77903,36270
77903,36278
78003,36278
78003,36270
78387,36270
78449,36332
78450,36515
78446,36564
78431,36611
78408,36655
78378,36692
78413,36692
79260,35844
79260,34842
79265,34790
79280,34740
79305,34693
79339,34653
79379,34619
79425,34595
79476,34579
79528,34574
81496,34574
81549,34579
81599,34595
81645,34619
81686,34653
81719,34693
81744,34740
81759,34790
81764,34842
81764,36023
81759,36075
81744,36126
81719,36172
81686,36213
81645,36246
81599,36271
81549,36286
81496,36291
79707,36291
78778,37220
78768,37232
78756,37242
78756,37242
78734,37259
78720,37271
78665,37300
78624,37313
78606,37319
78600,37319
78559,37323
78559,37323
78544,37325
78528,37323
77864,37323
77871,37349
77874,37381
78036,37381
78052,37379
78067,37381
78067,37381
78091,37383
78154,37357
78282,37331
78412,37331
78539,37357
78660,37407
78768,37479
78860,37571
78932,37679
78982,37799
79007,37927
79007,38057
78982,38184
78932,38304
78860,38413
78768,38504
78660,38577
78539,38626
78412,38652
78282,38652
78154,38626
78034,38577
77926,38504
77876,38455
77876,38976
77871,39028
77856,39078
77831,39125
77798,39165
77757,39199
77711,39223
77661,39239
77609,39244
77117,39244
77064,39239
77014,39223
76968,39199
76927,39165
76894,39125
76869,39078
76854,39028
76849,38976
76849,38948
76842,38944
76794,38905
76784,38893
76705,38814
76705,39133
76700,39186
76685,39236
76660,39282
76627,39323
76586,39356
76543,39379
76577,39397
76615,39428
76646,39466
76669,39510
76684,39557
76689,39606
76687,39789
76625,39851
76231,39851
76231,39843
76131,39843
76131,39851
75738,39851
75676,39789
75674,39606
75679,39557
75693,39510
75717,39466
75748,39428
75786,39397
75820,39379
75777,39356
75736,39323
75703,39282
75678,39236
75663,39186
75658,39133
75658,39106
75651,39102
75603,39062
75593,39050
75379,38836
75367,38826
75327,38778
75298,38723
75280,38664
75280,38663
75279,38652
75275,38617
75275,38617
75274,38602
75275,38586
75275,38338
75265,38332
75224,38299
75191,38259
75166,38212
75164,38204
75130,38177
75120,38165
74820,37864
74738,37864
74727,37862
74819,37954
74831,37964
74870,38012
74899,38065
74900,38067
74913,38110
74918,38127
74922,38173
74922,38173
74924,38188
74922,38204
74922,38909
74935,38906
75065,38906
75193,38932
75313,38981
75421,39054
75513,39146
75585,39254
75635,39374
75661,39501
75661,39631
75635,39759
75585,39879
75513,39987
75421,40079
75313,40152
75193,40201
75170,40206
75192,40238
75220,40306
75329,40284
75459,40284
75587,40310
75707,40359
75815,40432
75886,40502
75886,40502
75900,40455
75905,40446
75877,40443
75829,40428
75786,40405
75748,40374
75717,40336
75693,40292
75679,40245
75674,40196
75676,40014
75738,39951
76131,39951
76131,39959
76231,39959
76231,39951
76625,39951
76687,40014
76689,40196
76684,40245
76669,40292
76664,40303
76673,40304
76721,40319
76764,40342
76802,40373
76833,40411
76856,40455
76871,40502
76876,40551
76874,40733
76812,40796
76428,40796
76428,40788
76328,40788
76328,40796
76320,40796
76320,40896
76328,40896
76328,40904
76428,40904
76428,40896
76812,40896
76874,40958
76876,41141
76871,41190
76856,41237
76833,41281
76802,41319
76792,41327
76814,41346
76847,41386
76872,41432
76887,41483
76890,41514
77296,41514
79216,39594
79205,39587
79114,39495
79041,39387
78991,39267
78966,39139
78966,39009
78991,38882
79041,38762
79114,38653
79205,38561
79314,38489
79434,38439
79561,38414
79691,38414
79819,38439
79939,38489
80047,38561
80139,38653
80211,38762
80261,38882
80287,39009
80287,39139
80261,39267
80211,39387
80139,39495
80047,39587
79941,39658
79938,39693
79919,39752
79890,39807
79851,39855
79839,39865
77661,42043
77652,42055
77603,42094
77552,42122
77549,42123
77489,42141
77484,42142
77443,42146
77443,42146
77427,42147
77412,42146
76890,42146
76887,42178
76876,42215
76910,42212
77422,42212
77474,42217
77524,42232
77559,42251
77595,42232
77645,42217
77697,42212
78209,42212
78261,42217
78312,42232
78358,42257
78398,42290
78432,42331
78456,42377
78472,42428
78477,42480
78477,43070
78472,43123
78456,43173
78432,43219
78398,43260
78358,43293
78333,43307
78358,43320
78398,43353
78419,43378
78605,43193
78615,43181
78663,43141
78718,43112
78777,43094
78823,43089
78823,43089
78839,43088
78854,43089
79929,43089
79999,42984
80071,42913
79999,42842
79927,42733
79877,42613
79852,42486
79852,42356
79877,42228
79927,42108
79999,42000
80071,41929
79999,41857
79927,41749
79877,41629
79852,41502
79852,41371
79877,41244
79927,41124
79999,41016
80071,40944
79999,40873
79927,40765
79877,40645
79852,40517
79852,40387
79877,40260
79927,40140
79999,40031
80091,39939
80199,39867
80320,39817
80447,39792
80577,39792
80705,39817
80825,39867
80933,39939
81025,40031
81097,40140
81147,40260
81172,40387
81172,40517
81147,40645
81097,40765
81025,40873
80954,40944
81025,41016
81097,41124
81147,41244
81172,41371
81172,41502
81147,41629
81097,41749
81025,41857
80954,41929
81025,42000
81097,42108
81147,42228
81172,42356
81172,42486
81147,42613
81097,42733
81025,42842
80954,42913
81025,42984
81097,43092
81147,43212
81172,43340
81172,43470
81147,43598
81097,43718
81025,43826
80933,43918
80872,43958
80512,44319
80152,43958
80091,43918
79999,43826
79929,43721
78970,43721
78640,44050
78630,44062
78582,44102
78527,44131
78476,44147
78472,44186
78456,44236
78432,44282
78398,44323
78358,44356
78312,44381
78261,44396
78209,44401
77697,44401
77645,44396
77601,44383
77679,44461
77751,44569
77801,44689
77826,44816
77826,44946
77801,45074
77751,45194
77679,45302
77587,45394
77478,45466
77358,45516
77231,45542
77101,45542
76973,45516
76853,45466
76745,45394
76653,45302
76624,45260
76596,45302
76504,45394
76396,45466
76276,45516
76148,45542
76018,45542
75890,45516
75770,45466
75662,45394
75570,45302
75498,45194
75448,45074
75423,44946
75423,44816
75448,44689
75498,44569
75570,44461
75662,44369
75770,44296
75882,44250
75875,44236
75860,44186
75855,44133
75855,43543
75860,43491
75875,43440
75900,43394
75933,43353
75974,43320
75999,43307
75974,43293
75933,43260
75900,43219
75875,43173
75860,43123
75855,43070
75855,42480
75860,42428
75875,42377
75900,42331
75928,42297
75910,42274
75885,42228
75870,42178
75866,42146
75820,42146
75628,42338
75618,42350
75606,42360
75392,42574
75382,42586
75334,42626
75279,42655
75234,42669
75220,42673
75214,42673
75173,42677
75173,42677
75158,42679
75142,42677
75073,42677
75073,42727
75039,42727
75046,42735
75071,42781
75073,42789
75073,42789
75073,42789
75086,42831
75091,42883
75091,43100
75086,43149
75091,43198
75091,43415
75086,43464
75091,43513
75091,43730
75086,43782
75071,43832
75046,43879
75013,43919
74972,43953
74926,43977
74875,43992
74823,43998
74313,43998
74313,44507
74308,44560
74293,44610
74268,44656
74235,44697
74194,44730
74148,44755
74098,44770
74046,44775
73923,44775
74009,44861
74099,44861
74115,44859
74130,44861
74130,44861
74171,44865
74176,44865
74190,44870
74236,44884
74291,44913
74318,44935
74443,44910
74573,44910
74701,44936
74821,44985
74929,45058
75021,45149
75093,45258
75143,45378
75168,45505
75168,45635
75143,45763
75093,45883
75021,45991
74929,46083
74821,46155
74701,46205
74573,46231
74443,46231
74316,46205
74196,46155
74087,46083
73995,45991
73923,45883
73873,45763
73868,45738
73864,45763
73814,45883
73742,45991
73650,46083
73541,46155
73421,46205
73294,46231
73164,46231
73036,46205
72916,46155
72808,46083
72716,45991
72644,45883
72594,45763
72568,45635
72568,45505
72594,45378
72598,45368
72577,45389
72567,45401
72519,45440
72464,45470
72405,45488
72343,45494
72327,45492
71646,45492
71576,45598
71484,45690
71376,45762
71256,45812
71128,45837
70998,45837
70871,45812
70751,45762
70642,45690
70551,45598
70478,45489
70444,45407
70444,45439
70419,45566
70369,45686
70297,45794
70205,45886
70097,45959
69976,46008
69849,46034
69719,46034
69591,46008
69541,45988
66605,45988
66605,46137
66576,46284
66519,46422
66436,46546
66330,46652
66206,46735
66068,46792
65922,46821
65772,46821
65626,46792
65487,46735
65363,46652
65258,46546
65175,46422
65117,46284
65088,46137
65088,45988
65117,45841
65175,45703
65258,45579
65363,45473
65487,45390
65626,45333
65772,45304
65922,45304
66068,45333
66206,45390
66330,45473
66436,45579
66519,45703
66576,45841
66605,45988
69541,45988
69471,45959
69363,45886
69271,45794
69199,45686
69149,45566
69124,45439
69124,45308
69149,45181
69199,45061
69271,44953
69363,44861
69471,44788
69530,44764
69496,44736
69463,44696
69440,44653
69422,44686
69391,44724
69353,44756
69309,44779
69262,44793
69213,44798
69030,44797
68968,44734
68968,44341
68868,44341
68868,44734
68805,44797
68622,44798
68573,44793
68526,44779
68483,44756
68445,44724
68414,44686
68390,44643
68376,44596
68371,44547
68372,44403
68435,44341
68868,44341
68968,44341
68976,44341
68976,44241
68968,44241
68968,43455
68868,43455
68868,44241
68435,44241
68372,44178
68371,44035
68373,44019
66605,44019
66605,44169
66576,44315
66519,44453
66436,44578
66330,44683
66206,44766
66068,44823
65922,44853
65772,44853
65626,44823
65487,44766
65363,44683
65258,44578
65175,44453
65117,44315
65088,44169
65088,44019
65117,43873
65175,43735
65258,43610
65363,43505
65487,43422
65626,43364
65772,43335
65922,43335
66068,43364
66206,43422
66330,43505
66436,43610
66519,43735
66576,43873
66605,44019
68373,44019
68376,43986
68390,43939
68414,43895
68445,43857
68456,43848
68445,43839
68414,43800
68390,43757
68376,43710
68371,43661
68372,43518
68435,43455
68868,43455
68968,43455
68976,43455
68976,43355
68968,43355
68968,42962
68868,42962
68868,43355
68435,43355
68372,43293
68371,43149
68376,43100
68390,43053
68414,43010
68445,42971
68483,42940
68526,42917
68573,42903
68622,42898
68805,42899
68868,42962
68968,42962
69030,42899
69213,42898
69262,42903
69309,42917
69353,42940
69391,42971
69422,43010
69440,43043
69463,43000
69472,42989
69111,42627
69072,42615
69017,42586
68969,42547
68959,42535
68866,42441
68028,42441
68012,42443
67997,42441
67997,42441
67950,42437
67891,42419
67836,42389
67788,42350
67778,42338
67291,41851
65469,41851
65453,41852
65438,41851
65438,41851
65391,41846
65332,41828
65277,41799
65229,41759
65219,41747
64946,41474
64933,41464
64894,41416
64865,41361
64847,41302
64842,41255
64842,41255
64841,41240
64842,41224
64842,39976
64841,39960
64842,39945
64842,39945
64847,39898
64865,39839
64894,39784
64911,39763
64924,39748
64924,39748
64933,39736
64946,39726
65545,39126
65505,39138
65453,39143
64587,39143
64535,39138
64484,39123
64438,39098
64398,39065
64364,39024
64340,38978
64324,38928
64319,38875
64319,38639
64324,38587
64340,38537
64355,38507
64340,38478
64324,38428
64319,38375
64319,38139
64324,38087
64340,38037
64355,38007
64340,37978
64324,37928
64319,37875
64319,37639
64324,37587
64340,37537
64364,37490
64365,37490
64355,37472
64341,37424
64336,37375
64337,37370
64399,37307
64970,37307
64970,37315
65070,37315
65070,37307
65641,37307
65703,37370
65704,37375
65700,37424
65685,37472
65675,37490
65676,37490
65701,37537
65716,37587
65721,37639
65721,37875
65716,37928
65712,37942
65999,37942
66014,37940
66030,37942
66030,37942
66071,37946
66076,37946
66116,37958
66136,37964
66190,37994
66238,38033
66248,38045
66453,38250
66465,38259
66504,38307
66531,38358
66534,38362
66549,38414
66552,38422
66556,38468
66556,38468
66558,38484
66556,38499
66556,38862
66558,38877
66552,38939
66534,38999
66508,39046
66504,39054
66465,39102
66453,39112
65474,40091
65474,41109
65584,41219
67406,41219
67422,41218
67437,41219
67437,41219
67478,41223
67484,41224
67502,41229
67543,41242
67598,41271
67604,41276
67634,41301
67634,41301
67646,41311
67656,41323
68143,41810
68239,41810
68188,41759
68116,41651
68066,41531
68041,41403
68041,41273
68066,41145
68116,41025
68188,40917
68280,40825
68388,40753
68509,40703
68636,40678
68766,40678
68766,40678
68684,40644
68576,40571
68484,40479
68411,40371
68362,40251
68336,40124
68336,39994
68336,39993
68302,40076
68230,40184
68138,40276
68030,40348
67909,40398
67782,40424
67652,40424
67524,40398
67404,40348
67296,40276
67204,40184
67132,40076
67082,39956
67057,39828
67057,39698
67082,39571
67132,39451
67204,39342
67296,39250
67404,39178
67524,39128
67652,39103
67782,39103
67909,39128
68003,39167
68067,39102
68060,39098
68020,39065
67986,39024
67962,38978
67946,38928
67941,38875
67941,38639
67946,38587
67962,38537
67977,38507
67962,38478
67946,38428
67941,38375
67941,38139
67946,38087
67951,38073
67498,38073
67483,38075
67467,38073
67467,38073
67421,38069
67361,38050
67306,38021
67258,37982
67248,37970
66520,37242
66508,37232
66469,37184
66440,37129
66433,37108
66421,37069
66420,37057
66417,37023
66417,37023
66415,37007
66417,36992
66417,36875
65704,36875
65700,36924
65685,36972
65666,37007
65685,37043
65700,37090
65704,37139
65703,37145
65641,37207
65070,37207
65070,36807
64970,36807
64970,37207
64399,37207
64337,37145
64336,37139
64341,37090
64355,37043
64374,37007
64355,36972
64341,36924
64336,36875
64337,36870
64399,36807
64970,36807
65070,36807
65641,36807
65703,36870
65704,36875
66417,36875
66417,36375
65704,36375
65700,36424
65685,36472
65666,36507
65685,36543
65700,36590
65704,36639
65703,36645
65641,36707
65070,36707
65070,36307
64970,36307
64970,36707
64399,36707
64337,36645
64336,36639
64341,36590
64355,36543
64374,36507
64355,36472
64341,36424
64336,36375
64337,36370
64399,36307
64970,36307
65070,36307
65641,36307
65703,36370
65704,36375
66417,36375
66417,35875
65704,35875
65700,35924
65685,35972
65666,36007
65685,36043
65700,36090
65704,36139
65703,36145
65641,36207
65070,36207
65070,35807
64970,35807
64970,36207
64399,36207
64337,36145
64336,36139
64341,36090
64355,36043
64374,36007
64355,35972
64341,35924
64336,35875
64337,35870
64399,35807
64970,35807
65070,35807
65641,35807
65703,35870
65704,35875
66417,35875
66417,35375
65704,35375
65700,35424
65685,35472
65666,35507
65685,35543
65700,35590
65704,35639
65703,35645
65641,35707
65070,35707
65070,35307
64970,35307
64970,35707
64399,35707
64337,35645
64336,35639
64341,35590
64355,35543
64374,35507
64355,35472
64341,35424
64336,35375
64337,35370
64399,35307
64970,35307
65070,35307
65641,35307
65703,35370
65704,35375
66417,35375
66417,35139
65704,35139
65703,35145
65641,35207
65070,35207
65070,34952
64970,34952
64970,35207
64399,35207
64337,35145
64336,35139
64341,35090
64355,35043
64378,35000
64409,34962
64447,34930
64491,34907
64538,34893
64587,34888
64908,34889
64970,34952
65070,34952
65133,34889
65453,34888
65502,34893
65549,34907
65593,34930
65631,34962
65662,35000
65685,35043
65700,35090
65704,35139
66417,35139
66417,32079
66312,32008
66246,31943
66125,31943
66087,32047
65973,32102
65850,32134
65724,32142
65598,32125
65478,32083
65410,32047
65372,31943
65748,31566
66125,31943
66246,31943
66220,31916
66179,31856
65819,31496
65678,31496
65301,31872
65197,31834
65142,31720
65110,31597
65102,31471
65119,31345
65161,31225
65197,31157
65301,31119
65678,31496
65819,31496
65825,31490
65754,31419
65748,31425
65372,31049
65410,30944
65524,30889
65646,30857
65773,30849
65899,30866
66019,30908
66087,30944
66125,31049
66170,31003
66201,31034
66199,31031
66194,31023
66191,31013
66191,31003
66191,30197
64056,30197
64056,47755
83189,47755
83189,30197
67472,30197
67472,32086
Z" /> 
<path style="fill:#000000; fill-opacity:1.0; 
stroke:#000000; stroke-width:100; stroke-opacity:1; 
stroke-linecap:round; stroke-linejoin:round;fill-rule:evenodd;"
d="M 72085,42928
72075,42940
72027,42980
71972,43009
71927,43023
71913,43027
71907,43028
71866,43032
71866,43032
71851,43033
71835,43032
71687,43032
71687,43042
71654,43042
71660,43050
71685,43096
71687,43104
71687,43104
71687,43104
71700,43146
71705,43198
71705,43415
71700,43464
71705,43513
71705,43649
71841,43649
71890,43654
71939,43649
72156,43649
72205,43654
72254,43649
72471,43649
72520,43654
72569,43649
72786,43649
72835,43654
72884,43649
73101,43649
73150,43654
73199,43649
73416,43649
73465,43654
73514,43649
73731,43649
73780,43654
73829,43649
73965,43649
73965,43513
73970,43464
73965,43415
73965,43198
73970,43149
73965,43100
73965,42883
73970,42831
73983,42789
73983,42789
73983,42789
73985,42781
74010,42735
74016,42727
73983,42727
73983,42677
73874,42677
73859,42679
73843,42677
73843,42677
73797,42673
73737,42655
73682,42626
73634,42586
73624,42574
73295,42244
72769,42244
72085,42928
Z" /> 
<path style="fill:#000000; fill-opacity:1.0; 
stroke:#000000; stroke-width:100; stroke-opacity:1; 
stroke-linecap:round; stroke-linejoin:round;fill-rule:evenodd;"
d="M 69214,41759
69133,41840
69173,41862
69221,41901
69231,41913
69335,42017
69360,42025
69374,42029
69429,42059
69477,42098
69487,42110
70193,42816
70205,42826
70244,42874
70248,42881
70276,42881
70328,42886
70378,42902
70425,42926
70465,42960
70491,42991
70597,42991
70597,42942
70631,42942
70624,42934
70599,42887
70597,42879
70597,42879
70597,42879
70584,42837
70579,42785
70579,42568
70584,42516
70597,42474
70597,42474
70597,42474
70599,42466
70624,42420
70657,42379
70679,42362
70667,42352
70627,42340
70572,42311
70524,42271
70514,42259
70261,42005
70248,41996
70239,41983
70239,41983
70216,41956
70209,41947
70180,41893
70162,41833
70157,41787
70157,41787
70156,41771
70157,41756
70157,41654
69284,41654
69214,41759
Z" /> 
<path style="fill:#000000; fill-opacity:1.0; 
stroke:#000000; stroke-width:100; stroke-opacity:1; 
stroke-linecap:round; stroke-linejoin:round;fill-rule:evenodd;"
d="M 73741,36877
74146,37281
74143,37269
74143,37139
74165,37030
74097,37002
73989,36930
73897,36838
73825,36730
73775,36609
73750,36482
73750,36352
73775,36224
73825,36104
73843,36077
73770,36077
73741,36075
73741,36877
Z" /> 
<path style="fill:#000000; fill-opacity:1.0; 
stroke:#000000; stroke-width:100; stroke-opacity:1; 
stroke-linecap:round; stroke-linejoin:round;fill-rule:evenodd;"
d="M 75147,35973
75139,35973
75139,36073
75147,36073
75147,36081
75247,36081
75247,36073
75255,36073
75255,35973
75247,35973
75247,35965
75147,35965
75147,35973
Z" /> 
<path style="fill:#000000; fill-opacity:1.0; 
stroke:#000000; stroke-width:100; stroke-opacity:1; 
stroke-linecap:round; stroke-linejoin:round;fill-rule:evenodd;"
d="M 74513,35236
74512,35418
74450,35481
74066,35481
74066,35473
73966,35473
73966,35481
73958,35481
73958,35581
73966,35581
73966,35589
74066,35589
74066,35581
74450,35581
74512,35643
74513,35764
74602,35782
74701,35823
74700,35728
74705,35679
74719,35632
74742,35588
74774,35550
74784,35542
74762,35524
74728,35483
74704,35437
74688,35386
74683,35334
74683,35332
74682,35332
74627,35303
74579,35263
74569,35251
74509,35191
74513,35236
Z" /> 
</g>
</g> 
</svg>
