G04 #@! TF.GenerationSoftware,KiCad,Pcbnew,5.0.2-bee76a0~70~ubuntu16.04.1*
G04 #@! TF.CreationDate,2019-03-15T02:00:50+08:00*
G04 #@! TF.ProjectId,OTP-v02,4f54502d-7630-4322-9e6b-696361645f70,v01*
G04 #@! TF.SameCoordinates,Original*
G04 #@! TF.FileFunction,Soldermask,Top*
G04 #@! TF.FilePolarity,Negative*
%FSLAX46Y46*%
G04 Gerber Fmt 4.6, Leading zero omitted, Abs format (unit mm)*
G04 Created by KiCad (PCBNEW 5.0.2-bee76a0~70~ubuntu16.04.1) date Friday, 15 March, 2019 02:00:50 AM PST*
%MOMM*%
%LPD*%
G01*
G04 APERTURE LIST*
%ADD10C,1.000000*%
%ADD11C,0.500000*%
%ADD12C,0.100000*%
G04 APERTURE END LIST*
D10*
G04 #@! TO.C,J1*
X111000000Y-99000000D02*
G75*
G03X111000000Y-99000000I-500000J0D01*
G01*
D11*
G04 #@! TO.C,BT1*
X110500000Y-61000000D02*
X112500000Y-61000000D01*
X111500000Y-62000000D02*
X111500000Y-60000000D01*
D12*
G36*
X124145845Y-100019215D02*
X124236839Y-100056906D01*
X124307551Y-100104155D01*
X124318734Y-100111627D01*
X124388373Y-100181266D01*
X124388375Y-100181269D01*
X124443094Y-100263161D01*
X124480785Y-100354155D01*
X124500000Y-100450754D01*
X124500000Y-100549246D01*
X124482271Y-100638373D01*
X124480785Y-100645845D01*
X124443095Y-100736837D01*
X124388373Y-100818734D01*
X124318734Y-100888373D01*
X124318731Y-100888375D01*
X124236839Y-100943094D01*
X124145845Y-100980785D01*
X124049246Y-101000000D01*
X123950754Y-101000000D01*
X123854155Y-100980785D01*
X123763161Y-100943094D01*
X123681269Y-100888375D01*
X123681266Y-100888373D01*
X123611627Y-100818734D01*
X123556905Y-100736837D01*
X123519215Y-100645845D01*
X123517729Y-100638373D01*
X123500000Y-100549246D01*
X123500000Y-100450754D01*
X123519215Y-100354155D01*
X123556906Y-100263161D01*
X123611625Y-100181269D01*
X123611627Y-100181266D01*
X123681266Y-100111627D01*
X123692449Y-100104155D01*
X123763161Y-100056906D01*
X123854155Y-100019215D01*
X123950754Y-100000000D01*
X124049246Y-100000000D01*
X124145845Y-100019215D01*
X124145845Y-100019215D01*
G37*
G36*
X122645845Y-100019215D02*
X122736839Y-100056906D01*
X122807551Y-100104155D01*
X122818734Y-100111627D01*
X122888373Y-100181266D01*
X122888375Y-100181269D01*
X122943094Y-100263161D01*
X122980785Y-100354155D01*
X123000000Y-100450754D01*
X123000000Y-100549246D01*
X122982271Y-100638373D01*
X122980785Y-100645845D01*
X122943095Y-100736837D01*
X122888373Y-100818734D01*
X122818734Y-100888373D01*
X122818731Y-100888375D01*
X122736839Y-100943094D01*
X122645845Y-100980785D01*
X122549246Y-101000000D01*
X122450754Y-101000000D01*
X122354155Y-100980785D01*
X122263161Y-100943094D01*
X122181269Y-100888375D01*
X122181266Y-100888373D01*
X122111627Y-100818734D01*
X122056905Y-100736837D01*
X122019215Y-100645845D01*
X122017729Y-100638373D01*
X122000000Y-100549246D01*
X122000000Y-100450754D01*
X122019215Y-100354155D01*
X122056906Y-100263161D01*
X122111625Y-100181269D01*
X122111627Y-100181266D01*
X122181266Y-100111627D01*
X122192449Y-100104155D01*
X122263161Y-100056906D01*
X122354155Y-100019215D01*
X122450754Y-100000000D01*
X122549246Y-100000000D01*
X122645845Y-100019215D01*
X122645845Y-100019215D01*
G37*
G36*
X119145845Y-99769215D02*
X119236839Y-99806906D01*
X119317640Y-99860896D01*
X119318734Y-99861627D01*
X119388373Y-99931266D01*
X119388375Y-99931269D01*
X119443094Y-100013161D01*
X119480785Y-100104155D01*
X119496124Y-100181266D01*
X119500000Y-100200755D01*
X119500000Y-100299245D01*
X119480785Y-100395845D01*
X119443095Y-100486837D01*
X119388373Y-100568734D01*
X119318734Y-100638373D01*
X119318731Y-100638375D01*
X119236839Y-100693094D01*
X119145845Y-100730785D01*
X119049246Y-100750000D01*
X118950754Y-100750000D01*
X118854155Y-100730785D01*
X118763161Y-100693094D01*
X118681269Y-100638375D01*
X118681266Y-100638373D01*
X118611627Y-100568734D01*
X118556905Y-100486837D01*
X118519215Y-100395845D01*
X118500000Y-100299245D01*
X118500000Y-100200755D01*
X118503877Y-100181266D01*
X118519215Y-100104155D01*
X118556906Y-100013161D01*
X118611625Y-99931269D01*
X118611627Y-99931266D01*
X118681266Y-99861627D01*
X118682360Y-99860896D01*
X118763161Y-99806906D01*
X118854155Y-99769215D01*
X118950754Y-99750000D01*
X119049246Y-99750000D01*
X119145845Y-99769215D01*
X119145845Y-99769215D01*
G37*
G36*
X107395845Y-98519215D02*
X107486839Y-98556906D01*
X107551333Y-98600000D01*
X107568734Y-98611627D01*
X107638373Y-98681266D01*
X107693095Y-98763163D01*
X107730785Y-98854155D01*
X107750000Y-98950755D01*
X107750000Y-99049245D01*
X107730785Y-99145845D01*
X107693095Y-99236837D01*
X107638373Y-99318734D01*
X107568734Y-99388373D01*
X107568731Y-99388375D01*
X107486839Y-99443094D01*
X107395845Y-99480785D01*
X107299246Y-99500000D01*
X107200754Y-99500000D01*
X107104155Y-99480785D01*
X107013161Y-99443094D01*
X106931269Y-99388375D01*
X106931266Y-99388373D01*
X106861627Y-99318734D01*
X106806905Y-99236837D01*
X106769215Y-99145845D01*
X106750000Y-99049245D01*
X106750000Y-98950755D01*
X106769215Y-98854155D01*
X106806905Y-98763163D01*
X106861627Y-98681266D01*
X106931266Y-98611627D01*
X106948667Y-98600000D01*
X107013161Y-98556906D01*
X107104155Y-98519215D01*
X107200754Y-98500000D01*
X107299246Y-98500000D01*
X107395845Y-98519215D01*
X107395845Y-98519215D01*
G37*
G36*
X112600000Y-99400000D02*
X112400000Y-99400000D01*
X112400000Y-98600000D01*
X112600000Y-98600000D01*
X112600000Y-99400000D01*
X112600000Y-99400000D01*
G37*
G36*
X124100000Y-99400000D02*
X123900000Y-99400000D01*
X123900000Y-98600000D01*
X124100000Y-98600000D01*
X124100000Y-99400000D01*
X124100000Y-99400000D01*
G37*
G36*
X123600000Y-99400000D02*
X123400000Y-99400000D01*
X123400000Y-98600000D01*
X123600000Y-98600000D01*
X123600000Y-99400000D01*
X123600000Y-99400000D01*
G37*
G36*
X123100000Y-99400000D02*
X122900000Y-99400000D01*
X122900000Y-98600000D01*
X123100000Y-98600000D01*
X123100000Y-99400000D01*
X123100000Y-99400000D01*
G37*
G36*
X122600000Y-99400000D02*
X122400000Y-99400000D01*
X122400000Y-98600000D01*
X122600000Y-98600000D01*
X122600000Y-99400000D01*
X122600000Y-99400000D01*
G37*
G36*
X122100000Y-99400000D02*
X121900000Y-99400000D01*
X121900000Y-98600000D01*
X122100000Y-98600000D01*
X122100000Y-99400000D01*
X122100000Y-99400000D01*
G37*
G36*
X121600000Y-99400000D02*
X121400000Y-99400000D01*
X121400000Y-98600000D01*
X121600000Y-98600000D01*
X121600000Y-99400000D01*
X121600000Y-99400000D01*
G37*
G36*
X121100000Y-99400000D02*
X120900000Y-99400000D01*
X120900000Y-98600000D01*
X121100000Y-98600000D01*
X121100000Y-99400000D01*
X121100000Y-99400000D01*
G37*
G36*
X120600000Y-99400000D02*
X120400000Y-99400000D01*
X120400000Y-98600000D01*
X120600000Y-98600000D01*
X120600000Y-99400000D01*
X120600000Y-99400000D01*
G37*
G36*
X120100000Y-99400000D02*
X119900000Y-99400000D01*
X119900000Y-98600000D01*
X120100000Y-98600000D01*
X120100000Y-99400000D01*
X120100000Y-99400000D01*
G37*
G36*
X119600000Y-99400000D02*
X119400000Y-99400000D01*
X119400000Y-98600000D01*
X119600000Y-98600000D01*
X119600000Y-99400000D01*
X119600000Y-99400000D01*
G37*
G36*
X119100000Y-99400000D02*
X118900000Y-99400000D01*
X118900000Y-98600000D01*
X119100000Y-98600000D01*
X119100000Y-99400000D01*
X119100000Y-99400000D01*
G37*
G36*
X118600000Y-99400000D02*
X118400000Y-99400000D01*
X118400000Y-98600000D01*
X118600000Y-98600000D01*
X118600000Y-99400000D01*
X118600000Y-99400000D01*
G37*
G36*
X114600000Y-99400000D02*
X114400000Y-99400000D01*
X114400000Y-98600000D01*
X114600000Y-98600000D01*
X114600000Y-99400000D01*
X114600000Y-99400000D01*
G37*
G36*
X113100000Y-99400000D02*
X112900000Y-99400000D01*
X112900000Y-98600000D01*
X113100000Y-98600000D01*
X113100000Y-99400000D01*
X113100000Y-99400000D01*
G37*
G36*
X113600000Y-99400000D02*
X113400000Y-99400000D01*
X113400000Y-98600000D01*
X113600000Y-98600000D01*
X113600000Y-99400000D01*
X113600000Y-99400000D01*
G37*
G36*
X114100000Y-99400000D02*
X113900000Y-99400000D01*
X113900000Y-98600000D01*
X114100000Y-98600000D01*
X114100000Y-99400000D01*
X114100000Y-99400000D01*
G37*
G36*
X115100000Y-99400000D02*
X114900000Y-99400000D01*
X114900000Y-98600000D01*
X115100000Y-98600000D01*
X115100000Y-99400000D01*
X115100000Y-99400000D01*
G37*
G36*
X115600000Y-99400000D02*
X115400000Y-99400000D01*
X115400000Y-98600000D01*
X115600000Y-98600000D01*
X115600000Y-99400000D01*
X115600000Y-99400000D01*
G37*
G36*
X116100000Y-99400000D02*
X115900000Y-99400000D01*
X115900000Y-98600000D01*
X116100000Y-98600000D01*
X116100000Y-99400000D01*
X116100000Y-99400000D01*
G37*
G36*
X116600000Y-99400000D02*
X116400000Y-99400000D01*
X116400000Y-98600000D01*
X116600000Y-98600000D01*
X116600000Y-99400000D01*
X116600000Y-99400000D01*
G37*
G36*
X117100000Y-99400000D02*
X116900000Y-99400000D01*
X116900000Y-98600000D01*
X117100000Y-98600000D01*
X117100000Y-99400000D01*
X117100000Y-99400000D01*
G37*
G36*
X117600000Y-99400000D02*
X117400000Y-99400000D01*
X117400000Y-98600000D01*
X117600000Y-98600000D01*
X117600000Y-99400000D01*
X117600000Y-99400000D01*
G37*
G36*
X118100000Y-99400000D02*
X117900000Y-99400000D01*
X117900000Y-98600000D01*
X118100000Y-98600000D01*
X118100000Y-99400000D01*
X118100000Y-99400000D01*
G37*
G36*
X127880522Y-97054039D02*
X127914053Y-97064211D01*
X127944960Y-97080731D01*
X127972043Y-97102957D01*
X127994269Y-97130040D01*
X128010789Y-97160947D01*
X128020961Y-97194478D01*
X128025000Y-97235487D01*
X128025000Y-98264513D01*
X128020961Y-98305522D01*
X128010789Y-98339053D01*
X127994269Y-98369960D01*
X127972043Y-98397043D01*
X127944960Y-98419269D01*
X127914053Y-98435789D01*
X127880522Y-98445961D01*
X127839513Y-98450000D01*
X127060487Y-98450000D01*
X127019478Y-98445961D01*
X126985947Y-98435789D01*
X126955040Y-98419269D01*
X126927957Y-98397043D01*
X126905731Y-98369960D01*
X126889211Y-98339053D01*
X126879039Y-98305522D01*
X126875000Y-98264513D01*
X126875000Y-97235487D01*
X126879039Y-97194478D01*
X126889211Y-97160947D01*
X126905731Y-97130040D01*
X126927957Y-97102957D01*
X126955040Y-97080731D01*
X126985947Y-97064211D01*
X127019478Y-97054039D01*
X127060487Y-97050000D01*
X127839513Y-97050000D01*
X127880522Y-97054039D01*
X127880522Y-97054039D01*
G37*
G36*
X129930522Y-97054039D02*
X129964053Y-97064211D01*
X129994960Y-97080731D01*
X130022043Y-97102957D01*
X130044269Y-97130040D01*
X130060789Y-97160947D01*
X130070961Y-97194478D01*
X130075000Y-97235487D01*
X130075000Y-98264513D01*
X130070961Y-98305522D01*
X130060789Y-98339053D01*
X130044269Y-98369960D01*
X130022043Y-98397043D01*
X129994960Y-98419269D01*
X129964053Y-98435789D01*
X129930522Y-98445961D01*
X129889513Y-98450000D01*
X129110487Y-98450000D01*
X129069478Y-98445961D01*
X129035947Y-98435789D01*
X129005040Y-98419269D01*
X128977957Y-98397043D01*
X128955731Y-98369960D01*
X128939211Y-98339053D01*
X128929039Y-98305522D01*
X128925000Y-98264513D01*
X128925000Y-97235487D01*
X128929039Y-97194478D01*
X128939211Y-97160947D01*
X128955731Y-97130040D01*
X128977957Y-97102957D01*
X129005040Y-97080731D01*
X129035947Y-97064211D01*
X129069478Y-97054039D01*
X129110487Y-97050000D01*
X129889513Y-97050000D01*
X129930522Y-97054039D01*
X129930522Y-97054039D01*
G37*
G36*
X109730522Y-96304039D02*
X109764053Y-96314211D01*
X109794960Y-96330731D01*
X109822043Y-96352957D01*
X109844269Y-96380040D01*
X109860789Y-96410947D01*
X109870961Y-96444478D01*
X109875000Y-96485487D01*
X109875000Y-97514513D01*
X109870961Y-97555522D01*
X109860789Y-97589053D01*
X109844269Y-97619960D01*
X109822043Y-97647043D01*
X109794960Y-97669269D01*
X109764053Y-97685789D01*
X109730522Y-97695961D01*
X109689513Y-97700000D01*
X108910487Y-97700000D01*
X108869478Y-97695961D01*
X108835947Y-97685789D01*
X108805040Y-97669269D01*
X108777957Y-97647043D01*
X108755731Y-97619960D01*
X108739211Y-97589053D01*
X108729039Y-97555522D01*
X108725000Y-97514513D01*
X108725000Y-96485487D01*
X108729039Y-96444478D01*
X108739211Y-96410947D01*
X108755731Y-96380040D01*
X108777957Y-96352957D01*
X108805040Y-96330731D01*
X108835947Y-96314211D01*
X108869478Y-96304039D01*
X108910487Y-96300000D01*
X109689513Y-96300000D01*
X109730522Y-96304039D01*
X109730522Y-96304039D01*
G37*
G36*
X107680522Y-96304039D02*
X107714053Y-96314211D01*
X107744960Y-96330731D01*
X107772043Y-96352957D01*
X107794269Y-96380040D01*
X107810789Y-96410947D01*
X107820961Y-96444478D01*
X107825000Y-96485487D01*
X107825000Y-97514513D01*
X107820961Y-97555522D01*
X107810789Y-97589053D01*
X107794269Y-97619960D01*
X107772043Y-97647043D01*
X107744960Y-97669269D01*
X107714053Y-97685789D01*
X107680522Y-97695961D01*
X107639513Y-97700000D01*
X106860487Y-97700000D01*
X106819478Y-97695961D01*
X106785947Y-97685789D01*
X106755040Y-97669269D01*
X106727957Y-97647043D01*
X106705731Y-97619960D01*
X106689211Y-97589053D01*
X106679039Y-97555522D01*
X106675000Y-97514513D01*
X106675000Y-96485487D01*
X106679039Y-96444478D01*
X106689211Y-96410947D01*
X106705731Y-96380040D01*
X106727957Y-96352957D01*
X106755040Y-96330731D01*
X106785947Y-96314211D01*
X106819478Y-96304039D01*
X106860487Y-96300000D01*
X107639513Y-96300000D01*
X107680522Y-96304039D01*
X107680522Y-96304039D01*
G37*
G36*
X122305522Y-94029039D02*
X122339053Y-94039211D01*
X122369960Y-94055731D01*
X122397043Y-94077957D01*
X122419269Y-94105040D01*
X122435789Y-94135947D01*
X122445961Y-94169478D01*
X122450000Y-94210487D01*
X122450000Y-94989513D01*
X122445961Y-95030522D01*
X122435789Y-95064053D01*
X122419269Y-95094960D01*
X122397043Y-95122043D01*
X122369960Y-95144269D01*
X122339053Y-95160789D01*
X122305522Y-95170961D01*
X122264513Y-95175000D01*
X121235487Y-95175000D01*
X121194478Y-95170961D01*
X121160947Y-95160789D01*
X121130040Y-95144269D01*
X121102957Y-95122043D01*
X121080731Y-95094960D01*
X121064211Y-95064053D01*
X121054039Y-95030522D01*
X121050000Y-94989513D01*
X121050000Y-94210487D01*
X121054039Y-94169478D01*
X121064211Y-94135947D01*
X121080731Y-94105040D01*
X121102957Y-94077957D01*
X121130040Y-94055731D01*
X121160947Y-94039211D01*
X121194478Y-94029039D01*
X121235487Y-94025000D01*
X122264513Y-94025000D01*
X122305522Y-94029039D01*
X122305522Y-94029039D01*
G37*
G36*
X124305522Y-94029039D02*
X124339053Y-94039211D01*
X124369960Y-94055731D01*
X124397043Y-94077957D01*
X124419269Y-94105040D01*
X124435789Y-94135947D01*
X124445961Y-94169478D01*
X124450000Y-94210487D01*
X124450000Y-94989513D01*
X124445961Y-95030522D01*
X124435789Y-95064053D01*
X124419269Y-95094960D01*
X124397043Y-95122043D01*
X124369960Y-95144269D01*
X124339053Y-95160789D01*
X124305522Y-95170961D01*
X124264513Y-95175000D01*
X123235487Y-95175000D01*
X123194478Y-95170961D01*
X123160947Y-95160789D01*
X123130040Y-95144269D01*
X123102957Y-95122043D01*
X123080731Y-95094960D01*
X123064211Y-95064053D01*
X123054039Y-95030522D01*
X123050000Y-94989513D01*
X123050000Y-94210487D01*
X123054039Y-94169478D01*
X123064211Y-94135947D01*
X123080731Y-94105040D01*
X123102957Y-94077957D01*
X123130040Y-94055731D01*
X123160947Y-94039211D01*
X123194478Y-94029039D01*
X123235487Y-94025000D01*
X124264513Y-94025000D01*
X124305522Y-94029039D01*
X124305522Y-94029039D01*
G37*
G36*
X126305522Y-93979039D02*
X126339053Y-93989211D01*
X126369960Y-94005731D01*
X126397043Y-94027957D01*
X126419269Y-94055040D01*
X126435789Y-94085947D01*
X126445961Y-94119478D01*
X126450000Y-94160487D01*
X126450000Y-94939513D01*
X126445961Y-94980522D01*
X126435789Y-95014053D01*
X126419269Y-95044960D01*
X126397043Y-95072043D01*
X126369960Y-95094269D01*
X126339053Y-95110789D01*
X126305522Y-95120961D01*
X126264513Y-95125000D01*
X125235487Y-95125000D01*
X125194478Y-95120961D01*
X125160947Y-95110789D01*
X125130040Y-95094269D01*
X125102957Y-95072043D01*
X125080731Y-95044960D01*
X125064211Y-95014053D01*
X125054039Y-94980522D01*
X125050000Y-94939513D01*
X125050000Y-94160487D01*
X125054039Y-94119478D01*
X125064211Y-94085947D01*
X125080731Y-94055040D01*
X125102957Y-94027957D01*
X125130040Y-94005731D01*
X125160947Y-93989211D01*
X125194478Y-93979039D01*
X125235487Y-93975000D01*
X126264513Y-93975000D01*
X126305522Y-93979039D01*
X126305522Y-93979039D01*
G37*
G36*
X120305522Y-93979039D02*
X120339053Y-93989211D01*
X120369960Y-94005731D01*
X120397043Y-94027957D01*
X120419269Y-94055040D01*
X120435789Y-94085947D01*
X120445961Y-94119478D01*
X120450000Y-94160487D01*
X120450000Y-94939513D01*
X120445961Y-94980522D01*
X120435789Y-95014053D01*
X120419269Y-95044960D01*
X120397043Y-95072043D01*
X120369960Y-95094269D01*
X120339053Y-95110789D01*
X120305522Y-95120961D01*
X120264513Y-95125000D01*
X119235487Y-95125000D01*
X119194478Y-95120961D01*
X119160947Y-95110789D01*
X119130040Y-95094269D01*
X119102957Y-95072043D01*
X119080731Y-95044960D01*
X119064211Y-95014053D01*
X119054039Y-94980522D01*
X119050000Y-94939513D01*
X119050000Y-94160487D01*
X119054039Y-94119478D01*
X119064211Y-94085947D01*
X119080731Y-94055040D01*
X119102957Y-94027957D01*
X119130040Y-94005731D01*
X119160947Y-93989211D01*
X119194478Y-93979039D01*
X119235487Y-93975000D01*
X120264513Y-93975000D01*
X120305522Y-93979039D01*
X120305522Y-93979039D01*
G37*
G36*
X111555522Y-93954039D02*
X111589053Y-93964211D01*
X111619960Y-93980731D01*
X111647043Y-94002957D01*
X111669269Y-94030040D01*
X111685789Y-94060947D01*
X111695961Y-94094478D01*
X111700000Y-94135487D01*
X111700000Y-94914513D01*
X111695961Y-94955522D01*
X111685789Y-94989053D01*
X111669269Y-95019960D01*
X111647043Y-95047043D01*
X111619960Y-95069269D01*
X111589053Y-95085789D01*
X111555522Y-95095961D01*
X111514513Y-95100000D01*
X110485487Y-95100000D01*
X110444478Y-95095961D01*
X110410947Y-95085789D01*
X110380040Y-95069269D01*
X110352957Y-95047043D01*
X110330731Y-95019960D01*
X110314211Y-94989053D01*
X110304039Y-94955522D01*
X110300000Y-94914513D01*
X110300000Y-94135487D01*
X110304039Y-94094478D01*
X110314211Y-94060947D01*
X110330731Y-94030040D01*
X110352957Y-94002957D01*
X110380040Y-93980731D01*
X110410947Y-93964211D01*
X110444478Y-93954039D01*
X110485487Y-93950000D01*
X111514513Y-93950000D01*
X111555522Y-93954039D01*
X111555522Y-93954039D01*
G37*
G36*
X130305522Y-93954039D02*
X130339053Y-93964211D01*
X130369960Y-93980731D01*
X130397043Y-94002957D01*
X130419269Y-94030040D01*
X130435789Y-94060947D01*
X130445961Y-94094478D01*
X130450000Y-94135487D01*
X130450000Y-94914513D01*
X130445961Y-94955522D01*
X130435789Y-94989053D01*
X130419269Y-95019960D01*
X130397043Y-95047043D01*
X130369960Y-95069269D01*
X130339053Y-95085789D01*
X130305522Y-95095961D01*
X130264513Y-95100000D01*
X129235487Y-95100000D01*
X129194478Y-95095961D01*
X129160947Y-95085789D01*
X129130040Y-95069269D01*
X129102957Y-95047043D01*
X129080731Y-95019960D01*
X129064211Y-94989053D01*
X129054039Y-94955522D01*
X129050000Y-94914513D01*
X129050000Y-94135487D01*
X129054039Y-94094478D01*
X129064211Y-94060947D01*
X129080731Y-94030040D01*
X129102957Y-94002957D01*
X129130040Y-93980731D01*
X129160947Y-93964211D01*
X129194478Y-93954039D01*
X129235487Y-93950000D01*
X130264513Y-93950000D01*
X130305522Y-93954039D01*
X130305522Y-93954039D01*
G37*
G36*
X128305522Y-93954039D02*
X128339053Y-93964211D01*
X128369960Y-93980731D01*
X128397043Y-94002957D01*
X128419269Y-94030040D01*
X128435789Y-94060947D01*
X128445961Y-94094478D01*
X128450000Y-94135487D01*
X128450000Y-94914513D01*
X128445961Y-94955522D01*
X128435789Y-94989053D01*
X128419269Y-95019960D01*
X128397043Y-95047043D01*
X128369960Y-95069269D01*
X128339053Y-95085789D01*
X128305522Y-95095961D01*
X128264513Y-95100000D01*
X127235487Y-95100000D01*
X127194478Y-95095961D01*
X127160947Y-95085789D01*
X127130040Y-95069269D01*
X127102957Y-95047043D01*
X127080731Y-95019960D01*
X127064211Y-94989053D01*
X127054039Y-94955522D01*
X127050000Y-94914513D01*
X127050000Y-94135487D01*
X127054039Y-94094478D01*
X127064211Y-94060947D01*
X127080731Y-94030040D01*
X127102957Y-94002957D01*
X127130040Y-93980731D01*
X127160947Y-93964211D01*
X127194478Y-93954039D01*
X127235487Y-93950000D01*
X128264513Y-93950000D01*
X128305522Y-93954039D01*
X128305522Y-93954039D01*
G37*
G36*
X113555522Y-93954039D02*
X113589053Y-93964211D01*
X113619960Y-93980731D01*
X113647043Y-94002957D01*
X113669269Y-94030040D01*
X113685789Y-94060947D01*
X113695961Y-94094478D01*
X113700000Y-94135487D01*
X113700000Y-94914513D01*
X113695961Y-94955522D01*
X113685789Y-94989053D01*
X113669269Y-95019960D01*
X113647043Y-95047043D01*
X113619960Y-95069269D01*
X113589053Y-95085789D01*
X113555522Y-95095961D01*
X113514513Y-95100000D01*
X112485487Y-95100000D01*
X112444478Y-95095961D01*
X112410947Y-95085789D01*
X112380040Y-95069269D01*
X112352957Y-95047043D01*
X112330731Y-95019960D01*
X112314211Y-94989053D01*
X112304039Y-94955522D01*
X112300000Y-94914513D01*
X112300000Y-94135487D01*
X112304039Y-94094478D01*
X112314211Y-94060947D01*
X112330731Y-94030040D01*
X112352957Y-94002957D01*
X112380040Y-93980731D01*
X112410947Y-93964211D01*
X112444478Y-93954039D01*
X112485487Y-93950000D01*
X113514513Y-93950000D01*
X113555522Y-93954039D01*
X113555522Y-93954039D01*
G37*
G36*
X109604046Y-93942675D02*
X109637577Y-93952847D01*
X109668484Y-93969367D01*
X109695567Y-93991593D01*
X109717793Y-94018676D01*
X109734313Y-94049583D01*
X109744485Y-94083114D01*
X109748524Y-94124123D01*
X109748524Y-94903149D01*
X109744485Y-94944158D01*
X109734313Y-94977689D01*
X109717793Y-95008596D01*
X109695567Y-95035679D01*
X109668484Y-95057905D01*
X109637577Y-95074425D01*
X109604046Y-95084597D01*
X109563037Y-95088636D01*
X108534011Y-95088636D01*
X108493002Y-95084597D01*
X108459471Y-95074425D01*
X108428564Y-95057905D01*
X108401481Y-95035679D01*
X108379255Y-95008596D01*
X108362735Y-94977689D01*
X108352563Y-94944158D01*
X108348524Y-94903149D01*
X108348524Y-94124123D01*
X108352563Y-94083114D01*
X108362735Y-94049583D01*
X108379255Y-94018676D01*
X108401481Y-93991593D01*
X108428564Y-93969367D01*
X108459471Y-93952847D01*
X108493002Y-93942675D01*
X108534011Y-93938636D01*
X109563037Y-93938636D01*
X109604046Y-93942675D01*
X109604046Y-93942675D01*
G37*
G36*
X122305522Y-91979039D02*
X122339053Y-91989211D01*
X122369960Y-92005731D01*
X122397043Y-92027957D01*
X122419269Y-92055040D01*
X122435789Y-92085947D01*
X122445961Y-92119478D01*
X122450000Y-92160487D01*
X122450000Y-92939513D01*
X122445961Y-92980522D01*
X122435789Y-93014053D01*
X122419269Y-93044960D01*
X122397043Y-93072043D01*
X122369960Y-93094269D01*
X122339053Y-93110789D01*
X122305522Y-93120961D01*
X122264513Y-93125000D01*
X121235487Y-93125000D01*
X121194478Y-93120961D01*
X121160947Y-93110789D01*
X121130040Y-93094269D01*
X121102957Y-93072043D01*
X121080731Y-93044960D01*
X121064211Y-93014053D01*
X121054039Y-92980522D01*
X121050000Y-92939513D01*
X121050000Y-92160487D01*
X121054039Y-92119478D01*
X121064211Y-92085947D01*
X121080731Y-92055040D01*
X121102957Y-92027957D01*
X121130040Y-92005731D01*
X121160947Y-91989211D01*
X121194478Y-91979039D01*
X121235487Y-91975000D01*
X122264513Y-91975000D01*
X122305522Y-91979039D01*
X122305522Y-91979039D01*
G37*
G36*
X124305522Y-91979039D02*
X124339053Y-91989211D01*
X124369960Y-92005731D01*
X124397043Y-92027957D01*
X124419269Y-92055040D01*
X124435789Y-92085947D01*
X124445961Y-92119478D01*
X124450000Y-92160487D01*
X124450000Y-92939513D01*
X124445961Y-92980522D01*
X124435789Y-93014053D01*
X124419269Y-93044960D01*
X124397043Y-93072043D01*
X124369960Y-93094269D01*
X124339053Y-93110789D01*
X124305522Y-93120961D01*
X124264513Y-93125000D01*
X123235487Y-93125000D01*
X123194478Y-93120961D01*
X123160947Y-93110789D01*
X123130040Y-93094269D01*
X123102957Y-93072043D01*
X123080731Y-93044960D01*
X123064211Y-93014053D01*
X123054039Y-92980522D01*
X123050000Y-92939513D01*
X123050000Y-92160487D01*
X123054039Y-92119478D01*
X123064211Y-92085947D01*
X123080731Y-92055040D01*
X123102957Y-92027957D01*
X123130040Y-92005731D01*
X123160947Y-91989211D01*
X123194478Y-91979039D01*
X123235487Y-91975000D01*
X124264513Y-91975000D01*
X124305522Y-91979039D01*
X124305522Y-91979039D01*
G37*
G36*
X120305522Y-91929039D02*
X120339053Y-91939211D01*
X120369960Y-91955731D01*
X120397043Y-91977957D01*
X120419269Y-92005040D01*
X120435789Y-92035947D01*
X120445961Y-92069478D01*
X120450000Y-92110487D01*
X120450000Y-92889513D01*
X120445961Y-92930522D01*
X120435789Y-92964053D01*
X120419269Y-92994960D01*
X120397043Y-93022043D01*
X120369960Y-93044269D01*
X120339053Y-93060789D01*
X120305522Y-93070961D01*
X120264513Y-93075000D01*
X119235487Y-93075000D01*
X119194478Y-93070961D01*
X119160947Y-93060789D01*
X119130040Y-93044269D01*
X119102957Y-93022043D01*
X119080731Y-92994960D01*
X119064211Y-92964053D01*
X119054039Y-92930522D01*
X119050000Y-92889513D01*
X119050000Y-92110487D01*
X119054039Y-92069478D01*
X119064211Y-92035947D01*
X119080731Y-92005040D01*
X119102957Y-91977957D01*
X119130040Y-91955731D01*
X119160947Y-91939211D01*
X119194478Y-91929039D01*
X119235487Y-91925000D01*
X120264513Y-91925000D01*
X120305522Y-91929039D01*
X120305522Y-91929039D01*
G37*
G36*
X126305522Y-91929039D02*
X126339053Y-91939211D01*
X126369960Y-91955731D01*
X126397043Y-91977957D01*
X126419269Y-92005040D01*
X126435789Y-92035947D01*
X126445961Y-92069478D01*
X126450000Y-92110487D01*
X126450000Y-92889513D01*
X126445961Y-92930522D01*
X126435789Y-92964053D01*
X126419269Y-92994960D01*
X126397043Y-93022043D01*
X126369960Y-93044269D01*
X126339053Y-93060789D01*
X126305522Y-93070961D01*
X126264513Y-93075000D01*
X125235487Y-93075000D01*
X125194478Y-93070961D01*
X125160947Y-93060789D01*
X125130040Y-93044269D01*
X125102957Y-93022043D01*
X125080731Y-92994960D01*
X125064211Y-92964053D01*
X125054039Y-92930522D01*
X125050000Y-92889513D01*
X125050000Y-92110487D01*
X125054039Y-92069478D01*
X125064211Y-92035947D01*
X125080731Y-92005040D01*
X125102957Y-91977957D01*
X125130040Y-91955731D01*
X125160947Y-91939211D01*
X125194478Y-91929039D01*
X125235487Y-91925000D01*
X126264513Y-91925000D01*
X126305522Y-91929039D01*
X126305522Y-91929039D01*
G37*
G36*
X111555522Y-91904039D02*
X111589053Y-91914211D01*
X111619960Y-91930731D01*
X111647043Y-91952957D01*
X111669269Y-91980040D01*
X111685789Y-92010947D01*
X111695961Y-92044478D01*
X111700000Y-92085487D01*
X111700000Y-92864513D01*
X111695961Y-92905522D01*
X111685789Y-92939053D01*
X111669269Y-92969960D01*
X111647043Y-92997043D01*
X111619960Y-93019269D01*
X111589053Y-93035789D01*
X111555522Y-93045961D01*
X111514513Y-93050000D01*
X110485487Y-93050000D01*
X110444478Y-93045961D01*
X110410947Y-93035789D01*
X110380040Y-93019269D01*
X110352957Y-92997043D01*
X110330731Y-92969960D01*
X110314211Y-92939053D01*
X110304039Y-92905522D01*
X110300000Y-92864513D01*
X110300000Y-92085487D01*
X110304039Y-92044478D01*
X110314211Y-92010947D01*
X110330731Y-91980040D01*
X110352957Y-91952957D01*
X110380040Y-91930731D01*
X110410947Y-91914211D01*
X110444478Y-91904039D01*
X110485487Y-91900000D01*
X111514513Y-91900000D01*
X111555522Y-91904039D01*
X111555522Y-91904039D01*
G37*
G36*
X130305522Y-91904039D02*
X130339053Y-91914211D01*
X130369960Y-91930731D01*
X130397043Y-91952957D01*
X130419269Y-91980040D01*
X130435789Y-92010947D01*
X130445961Y-92044478D01*
X130450000Y-92085487D01*
X130450000Y-92864513D01*
X130445961Y-92905522D01*
X130435789Y-92939053D01*
X130419269Y-92969960D01*
X130397043Y-92997043D01*
X130369960Y-93019269D01*
X130339053Y-93035789D01*
X130305522Y-93045961D01*
X130264513Y-93050000D01*
X129235487Y-93050000D01*
X129194478Y-93045961D01*
X129160947Y-93035789D01*
X129130040Y-93019269D01*
X129102957Y-92997043D01*
X129080731Y-92969960D01*
X129064211Y-92939053D01*
X129054039Y-92905522D01*
X129050000Y-92864513D01*
X129050000Y-92085487D01*
X129054039Y-92044478D01*
X129064211Y-92010947D01*
X129080731Y-91980040D01*
X129102957Y-91952957D01*
X129130040Y-91930731D01*
X129160947Y-91914211D01*
X129194478Y-91904039D01*
X129235487Y-91900000D01*
X130264513Y-91900000D01*
X130305522Y-91904039D01*
X130305522Y-91904039D01*
G37*
G36*
X128305522Y-91904039D02*
X128339053Y-91914211D01*
X128369960Y-91930731D01*
X128397043Y-91952957D01*
X128419269Y-91980040D01*
X128435789Y-92010947D01*
X128445961Y-92044478D01*
X128450000Y-92085487D01*
X128450000Y-92864513D01*
X128445961Y-92905522D01*
X128435789Y-92939053D01*
X128419269Y-92969960D01*
X128397043Y-92997043D01*
X128369960Y-93019269D01*
X128339053Y-93035789D01*
X128305522Y-93045961D01*
X128264513Y-93050000D01*
X127235487Y-93050000D01*
X127194478Y-93045961D01*
X127160947Y-93035789D01*
X127130040Y-93019269D01*
X127102957Y-92997043D01*
X127080731Y-92969960D01*
X127064211Y-92939053D01*
X127054039Y-92905522D01*
X127050000Y-92864513D01*
X127050000Y-92085487D01*
X127054039Y-92044478D01*
X127064211Y-92010947D01*
X127080731Y-91980040D01*
X127102957Y-91952957D01*
X127130040Y-91930731D01*
X127160947Y-91914211D01*
X127194478Y-91904039D01*
X127235487Y-91900000D01*
X128264513Y-91900000D01*
X128305522Y-91904039D01*
X128305522Y-91904039D01*
G37*
G36*
X113555522Y-91904039D02*
X113589053Y-91914211D01*
X113619960Y-91930731D01*
X113647043Y-91952957D01*
X113669269Y-91980040D01*
X113685789Y-92010947D01*
X113695961Y-92044478D01*
X113700000Y-92085487D01*
X113700000Y-92864513D01*
X113695961Y-92905522D01*
X113685789Y-92939053D01*
X113669269Y-92969960D01*
X113647043Y-92997043D01*
X113619960Y-93019269D01*
X113589053Y-93035789D01*
X113555522Y-93045961D01*
X113514513Y-93050000D01*
X112485487Y-93050000D01*
X112444478Y-93045961D01*
X112410947Y-93035789D01*
X112380040Y-93019269D01*
X112352957Y-92997043D01*
X112330731Y-92969960D01*
X112314211Y-92939053D01*
X112304039Y-92905522D01*
X112300000Y-92864513D01*
X112300000Y-92085487D01*
X112304039Y-92044478D01*
X112314211Y-92010947D01*
X112330731Y-91980040D01*
X112352957Y-91952957D01*
X112380040Y-91930731D01*
X112410947Y-91914211D01*
X112444478Y-91904039D01*
X112485487Y-91900000D01*
X113514513Y-91900000D01*
X113555522Y-91904039D01*
X113555522Y-91904039D01*
G37*
G36*
X109604046Y-91892675D02*
X109637577Y-91902847D01*
X109668484Y-91919367D01*
X109695567Y-91941593D01*
X109717793Y-91968676D01*
X109734313Y-91999583D01*
X109744485Y-92033114D01*
X109748524Y-92074123D01*
X109748524Y-92853149D01*
X109744485Y-92894158D01*
X109734313Y-92927689D01*
X109717793Y-92958596D01*
X109695567Y-92985679D01*
X109668484Y-93007905D01*
X109637577Y-93024425D01*
X109604046Y-93034597D01*
X109563037Y-93038636D01*
X108534011Y-93038636D01*
X108493002Y-93034597D01*
X108459471Y-93024425D01*
X108428564Y-93007905D01*
X108401481Y-92985679D01*
X108379255Y-92958596D01*
X108362735Y-92927689D01*
X108352563Y-92894158D01*
X108348524Y-92853149D01*
X108348524Y-92074123D01*
X108352563Y-92033114D01*
X108362735Y-91999583D01*
X108379255Y-91968676D01*
X108401481Y-91941593D01*
X108428564Y-91919367D01*
X108459471Y-91902847D01*
X108493002Y-91892675D01*
X108534011Y-91888636D01*
X109563037Y-91888636D01*
X109604046Y-91892675D01*
X109604046Y-91892675D01*
G37*
G36*
X128055522Y-88979039D02*
X128089053Y-88989211D01*
X128119960Y-89005731D01*
X128147043Y-89027957D01*
X128169269Y-89055040D01*
X128185789Y-89085947D01*
X128195961Y-89119478D01*
X128200000Y-89160487D01*
X128200000Y-89939513D01*
X128195961Y-89980522D01*
X128185789Y-90014053D01*
X128169269Y-90044960D01*
X128147043Y-90072043D01*
X128119960Y-90094269D01*
X128089053Y-90110789D01*
X128055522Y-90120961D01*
X128014513Y-90125000D01*
X126985487Y-90125000D01*
X126944478Y-90120961D01*
X126910947Y-90110789D01*
X126880040Y-90094269D01*
X126852957Y-90072043D01*
X126830731Y-90044960D01*
X126814211Y-90014053D01*
X126804039Y-89980522D01*
X126800000Y-89939513D01*
X126800000Y-89160487D01*
X126804039Y-89119478D01*
X126814211Y-89085947D01*
X126830731Y-89055040D01*
X126852957Y-89027957D01*
X126880040Y-89005731D01*
X126910947Y-88989211D01*
X126944478Y-88979039D01*
X126985487Y-88975000D01*
X128014513Y-88975000D01*
X128055522Y-88979039D01*
X128055522Y-88979039D01*
G37*
G36*
X126055522Y-88929039D02*
X126089053Y-88939211D01*
X126119960Y-88955731D01*
X126147043Y-88977957D01*
X126169269Y-89005040D01*
X126185789Y-89035947D01*
X126195961Y-89069478D01*
X126200000Y-89110487D01*
X126200000Y-89889513D01*
X126195961Y-89930522D01*
X126185789Y-89964053D01*
X126169269Y-89994960D01*
X126147043Y-90022043D01*
X126119960Y-90044269D01*
X126089053Y-90060789D01*
X126055522Y-90070961D01*
X126014513Y-90075000D01*
X124985487Y-90075000D01*
X124944478Y-90070961D01*
X124910947Y-90060789D01*
X124880040Y-90044269D01*
X124852957Y-90022043D01*
X124830731Y-89994960D01*
X124814211Y-89964053D01*
X124804039Y-89930522D01*
X124800000Y-89889513D01*
X124800000Y-89110487D01*
X124804039Y-89069478D01*
X124814211Y-89035947D01*
X124830731Y-89005040D01*
X124852957Y-88977957D01*
X124880040Y-88955731D01*
X124910947Y-88939211D01*
X124944478Y-88929039D01*
X124985487Y-88925000D01*
X126014513Y-88925000D01*
X126055522Y-88929039D01*
X126055522Y-88929039D01*
G37*
G36*
X112717973Y-89712500D02*
X111517973Y-89712500D01*
X111517973Y-88812500D01*
X112717973Y-88812500D01*
X112717973Y-89712500D01*
X112717973Y-89712500D01*
G37*
G36*
X114717973Y-89712500D02*
X113517973Y-89712500D01*
X113517973Y-88812500D01*
X114717973Y-88812500D01*
X114717973Y-89712500D01*
X114717973Y-89712500D01*
G37*
G36*
X109345845Y-88719215D02*
X109436839Y-88756906D01*
X109517640Y-88810896D01*
X109518734Y-88811627D01*
X109588373Y-88881266D01*
X109643095Y-88963163D01*
X109680785Y-89054155D01*
X109700000Y-89150755D01*
X109700000Y-89249245D01*
X109680785Y-89345845D01*
X109643095Y-89436837D01*
X109588373Y-89518734D01*
X109518734Y-89588373D01*
X109518731Y-89588375D01*
X109436839Y-89643094D01*
X109345845Y-89680785D01*
X109249246Y-89700000D01*
X109150754Y-89700000D01*
X109054155Y-89680785D01*
X108963161Y-89643094D01*
X108881269Y-89588375D01*
X108881266Y-89588373D01*
X108811627Y-89518734D01*
X108756905Y-89436837D01*
X108719215Y-89345845D01*
X108700000Y-89249245D01*
X108700000Y-89150755D01*
X108719215Y-89054155D01*
X108756905Y-88963163D01*
X108811627Y-88881266D01*
X108881266Y-88811627D01*
X108882360Y-88810896D01*
X108963161Y-88756906D01*
X109054155Y-88719215D01*
X109150754Y-88700000D01*
X109249246Y-88700000D01*
X109345845Y-88719215D01*
X109345845Y-88719215D01*
G37*
G36*
X109600000Y-88200000D02*
X108800000Y-88200000D01*
X108800000Y-87300000D01*
X109600000Y-87300000D01*
X109600000Y-88200000D01*
X109600000Y-88200000D01*
G37*
G36*
X107700000Y-88200000D02*
X106900000Y-88200000D01*
X106900000Y-87300000D01*
X107700000Y-87300000D01*
X107700000Y-88200000D01*
X107700000Y-88200000D01*
G37*
G36*
X128055522Y-86929039D02*
X128089053Y-86939211D01*
X128119960Y-86955731D01*
X128147043Y-86977957D01*
X128169269Y-87005040D01*
X128185789Y-87035947D01*
X128195961Y-87069478D01*
X128200000Y-87110487D01*
X128200000Y-87889513D01*
X128195961Y-87930522D01*
X128185789Y-87964053D01*
X128169269Y-87994960D01*
X128147043Y-88022043D01*
X128119960Y-88044269D01*
X128089053Y-88060789D01*
X128055522Y-88070961D01*
X128014513Y-88075000D01*
X126985487Y-88075000D01*
X126944478Y-88070961D01*
X126910947Y-88060789D01*
X126880040Y-88044269D01*
X126852957Y-88022043D01*
X126830731Y-87994960D01*
X126814211Y-87964053D01*
X126804039Y-87930522D01*
X126800000Y-87889513D01*
X126800000Y-87110487D01*
X126804039Y-87069478D01*
X126814211Y-87035947D01*
X126830731Y-87005040D01*
X126852957Y-86977957D01*
X126880040Y-86955731D01*
X126910947Y-86939211D01*
X126944478Y-86929039D01*
X126985487Y-86925000D01*
X128014513Y-86925000D01*
X128055522Y-86929039D01*
X128055522Y-86929039D01*
G37*
G36*
X126055522Y-86879039D02*
X126089053Y-86889211D01*
X126119960Y-86905731D01*
X126147043Y-86927957D01*
X126169269Y-86955040D01*
X126185789Y-86985947D01*
X126195961Y-87019478D01*
X126200000Y-87060487D01*
X126200000Y-87839513D01*
X126195961Y-87880522D01*
X126185789Y-87914053D01*
X126169269Y-87944960D01*
X126147043Y-87972043D01*
X126119960Y-87994269D01*
X126089053Y-88010789D01*
X126055522Y-88020961D01*
X126014513Y-88025000D01*
X124985487Y-88025000D01*
X124944478Y-88020961D01*
X124910947Y-88010789D01*
X124880040Y-87994269D01*
X124852957Y-87972043D01*
X124830731Y-87944960D01*
X124814211Y-87914053D01*
X124804039Y-87880522D01*
X124800000Y-87839513D01*
X124800000Y-87060487D01*
X124804039Y-87019478D01*
X124814211Y-86985947D01*
X124830731Y-86955040D01*
X124852957Y-86927957D01*
X124880040Y-86905731D01*
X124910947Y-86889211D01*
X124944478Y-86879039D01*
X124985487Y-86875000D01*
X126014513Y-86875000D01*
X126055522Y-86879039D01*
X126055522Y-86879039D01*
G37*
G36*
X119881103Y-85957196D02*
X118749732Y-87088567D01*
X118360823Y-86699658D01*
X119492194Y-85568287D01*
X119881103Y-85957196D01*
X119881103Y-85957196D01*
G37*
G36*
X121931713Y-86699658D02*
X121542804Y-87088567D01*
X120411433Y-85957196D01*
X120800342Y-85568287D01*
X121931713Y-86699658D01*
X121931713Y-86699658D01*
G37*
G36*
X119315418Y-85391510D02*
X118184047Y-86522881D01*
X117795138Y-86133972D01*
X118926509Y-85002601D01*
X119315418Y-85391510D01*
X119315418Y-85391510D01*
G37*
G36*
X122497398Y-86133972D02*
X122108489Y-86522881D01*
X120977118Y-85391510D01*
X121366027Y-85002601D01*
X122497398Y-86133972D01*
X122497398Y-86133972D01*
G37*
G36*
X114717973Y-86412500D02*
X113517973Y-86412500D01*
X113517973Y-85512500D01*
X114717973Y-85512500D01*
X114717973Y-86412500D01*
X114717973Y-86412500D01*
G37*
G36*
X112717973Y-86412500D02*
X111517973Y-86412500D01*
X111517973Y-85512500D01*
X112717973Y-85512500D01*
X112717973Y-86412500D01*
X112717973Y-86412500D01*
G37*
G36*
X108650000Y-86200000D02*
X107850000Y-86200000D01*
X107850000Y-85300000D01*
X108650000Y-85300000D01*
X108650000Y-86200000D01*
X108650000Y-86200000D01*
G37*
G36*
X110645845Y-85019215D02*
X110736839Y-85056906D01*
X110817640Y-85110896D01*
X110818734Y-85111627D01*
X110888373Y-85181266D01*
X110943095Y-85263163D01*
X110980785Y-85354155D01*
X111000000Y-85450755D01*
X111000000Y-85549245D01*
X110980785Y-85645845D01*
X110943095Y-85736837D01*
X110888373Y-85818734D01*
X110818734Y-85888373D01*
X110818731Y-85888375D01*
X110736839Y-85943094D01*
X110645845Y-85980785D01*
X110549246Y-86000000D01*
X110450754Y-86000000D01*
X110354155Y-85980785D01*
X110263161Y-85943094D01*
X110181269Y-85888375D01*
X110181266Y-85888373D01*
X110111627Y-85818734D01*
X110056905Y-85736837D01*
X110019215Y-85645845D01*
X110000000Y-85549245D01*
X110000000Y-85450755D01*
X110019215Y-85354155D01*
X110056905Y-85263163D01*
X110111627Y-85181266D01*
X110181266Y-85111627D01*
X110182360Y-85110896D01*
X110263161Y-85056906D01*
X110354155Y-85019215D01*
X110450754Y-85000000D01*
X110549246Y-85000000D01*
X110645845Y-85019215D01*
X110645845Y-85019215D01*
G37*
G36*
X118749732Y-84825825D02*
X117618361Y-85957196D01*
X116663767Y-85002602D01*
X117795138Y-83871231D01*
X118749732Y-84825825D01*
X118749732Y-84825825D01*
G37*
G36*
X123628769Y-85002602D02*
X122674175Y-85957196D01*
X121542804Y-84825825D01*
X122497398Y-83871231D01*
X123628769Y-85002602D01*
X123628769Y-85002602D01*
G37*
G36*
X129450000Y-85600000D02*
X128550000Y-85600000D01*
X128550000Y-84800000D01*
X129450000Y-84800000D01*
X129450000Y-85600000D01*
X129450000Y-85600000D01*
G37*
G36*
X117618361Y-83694454D02*
X116486990Y-84825825D01*
X115532396Y-83871231D01*
X116663767Y-82739860D01*
X117618361Y-83694454D01*
X117618361Y-83694454D01*
G37*
G36*
X124760140Y-83871231D02*
X123805546Y-84825825D01*
X122674175Y-83694454D01*
X123628769Y-82739860D01*
X124760140Y-83871231D01*
X124760140Y-83871231D01*
G37*
G36*
X127450000Y-84650000D02*
X126550000Y-84650000D01*
X126550000Y-83850000D01*
X127450000Y-83850000D01*
X127450000Y-84650000D01*
X127450000Y-84650000D01*
G37*
G36*
X119645845Y-83019215D02*
X119736839Y-83056906D01*
X119817640Y-83110896D01*
X119818734Y-83111627D01*
X119888373Y-83181266D01*
X119943095Y-83263163D01*
X119980785Y-83354155D01*
X120000000Y-83450755D01*
X120000000Y-83549245D01*
X119980785Y-83645845D01*
X119960651Y-83694454D01*
X119943094Y-83736839D01*
X119903783Y-83795671D01*
X119888373Y-83818734D01*
X119818734Y-83888373D01*
X119818731Y-83888375D01*
X119736839Y-83943094D01*
X119736838Y-83943095D01*
X119736837Y-83943095D01*
X119645845Y-83980785D01*
X119549246Y-84000000D01*
X119450754Y-84000000D01*
X119354155Y-83980785D01*
X119263163Y-83943095D01*
X119263162Y-83943095D01*
X119263161Y-83943094D01*
X119181269Y-83888375D01*
X119181266Y-83888373D01*
X119111627Y-83818734D01*
X119096217Y-83795671D01*
X119056906Y-83736839D01*
X119039350Y-83694454D01*
X119019215Y-83645845D01*
X119000000Y-83549245D01*
X119000000Y-83450755D01*
X119019215Y-83354155D01*
X119056905Y-83263163D01*
X119111627Y-83181266D01*
X119181266Y-83111627D01*
X119182360Y-83110896D01*
X119263161Y-83056906D01*
X119354155Y-83019215D01*
X119450754Y-83000000D01*
X119549246Y-83000000D01*
X119645845Y-83019215D01*
X119645845Y-83019215D01*
G37*
G36*
X110930522Y-82554039D02*
X110964053Y-82564211D01*
X110994960Y-82580731D01*
X111022043Y-82602957D01*
X111044269Y-82630040D01*
X111060789Y-82660947D01*
X111070961Y-82694478D01*
X111075000Y-82735487D01*
X111075000Y-83764513D01*
X111070961Y-83805522D01*
X111060789Y-83839053D01*
X111044269Y-83869960D01*
X111022043Y-83897043D01*
X110994960Y-83919269D01*
X110964053Y-83935789D01*
X110930522Y-83945961D01*
X110889513Y-83950000D01*
X110110487Y-83950000D01*
X110069478Y-83945961D01*
X110035947Y-83935789D01*
X110005040Y-83919269D01*
X109977957Y-83897043D01*
X109955731Y-83869960D01*
X109939211Y-83839053D01*
X109929039Y-83805522D01*
X109925000Y-83764513D01*
X109925000Y-82735487D01*
X109929039Y-82694478D01*
X109939211Y-82660947D01*
X109955731Y-82630040D01*
X109977957Y-82602957D01*
X110005040Y-82580731D01*
X110035947Y-82564211D01*
X110069478Y-82554039D01*
X110110487Y-82550000D01*
X110889513Y-82550000D01*
X110930522Y-82554039D01*
X110930522Y-82554039D01*
G37*
G36*
X108880522Y-82554039D02*
X108914053Y-82564211D01*
X108944960Y-82580731D01*
X108972043Y-82602957D01*
X108994269Y-82630040D01*
X109010789Y-82660947D01*
X109020961Y-82694478D01*
X109025000Y-82735487D01*
X109025000Y-83764513D01*
X109020961Y-83805522D01*
X109010789Y-83839053D01*
X108994269Y-83869960D01*
X108972043Y-83897043D01*
X108944960Y-83919269D01*
X108914053Y-83935789D01*
X108880522Y-83945961D01*
X108839513Y-83950000D01*
X108060487Y-83950000D01*
X108019478Y-83945961D01*
X107985947Y-83935789D01*
X107955040Y-83919269D01*
X107927957Y-83897043D01*
X107905731Y-83869960D01*
X107889211Y-83839053D01*
X107879039Y-83805522D01*
X107875000Y-83764513D01*
X107875000Y-82735487D01*
X107879039Y-82694478D01*
X107889211Y-82660947D01*
X107905731Y-82630040D01*
X107927957Y-82602957D01*
X107955040Y-82580731D01*
X107985947Y-82564211D01*
X108019478Y-82554039D01*
X108060487Y-82550000D01*
X108839513Y-82550000D01*
X108880522Y-82554039D01*
X108880522Y-82554039D01*
G37*
G36*
X129450000Y-83700000D02*
X128550000Y-83700000D01*
X128550000Y-82900000D01*
X129450000Y-82900000D01*
X129450000Y-83700000D01*
X129450000Y-83700000D01*
G37*
G36*
X116486991Y-82563083D02*
X115355620Y-83694454D01*
X114966711Y-83305545D01*
X116098082Y-82174174D01*
X116486991Y-82563083D01*
X116486991Y-82563083D01*
G37*
G36*
X125325825Y-83305545D02*
X124936916Y-83694454D01*
X123805545Y-82563083D01*
X124194454Y-82174174D01*
X125325825Y-83305545D01*
X125325825Y-83305545D01*
G37*
G36*
X115921305Y-81997398D02*
X114789934Y-83128769D01*
X114401025Y-82739860D01*
X115532396Y-81608489D01*
X115921305Y-81997398D01*
X115921305Y-81997398D01*
G37*
G36*
X125891511Y-82739860D02*
X125502602Y-83128769D01*
X124371231Y-81997398D01*
X124760140Y-81608489D01*
X125891511Y-82739860D01*
X125891511Y-82739860D01*
G37*
G36*
X107145845Y-81519215D02*
X107236839Y-81556906D01*
X107314038Y-81608489D01*
X107318734Y-81611627D01*
X107388373Y-81681266D01*
X107443095Y-81763163D01*
X107480785Y-81854155D01*
X107500000Y-81950755D01*
X107500000Y-82049245D01*
X107480785Y-82145845D01*
X107443095Y-82236837D01*
X107388373Y-82318734D01*
X107318734Y-82388373D01*
X107318731Y-82388375D01*
X107236839Y-82443094D01*
X107145845Y-82480785D01*
X107049246Y-82500000D01*
X106950754Y-82500000D01*
X106854155Y-82480785D01*
X106763161Y-82443094D01*
X106681269Y-82388375D01*
X106681266Y-82388373D01*
X106611627Y-82318734D01*
X106556905Y-82236837D01*
X106519215Y-82145845D01*
X106500000Y-82049245D01*
X106500000Y-81950755D01*
X106519215Y-81854155D01*
X106556905Y-81763163D01*
X106611627Y-81681266D01*
X106681266Y-81611627D01*
X106685962Y-81608489D01*
X106763161Y-81556906D01*
X106854155Y-81519215D01*
X106950754Y-81500000D01*
X107049246Y-81500000D01*
X107145845Y-81519215D01*
X107145845Y-81519215D01*
G37*
G36*
X110750000Y-81100000D02*
X109850000Y-81100000D01*
X109850000Y-79900000D01*
X110750000Y-79900000D01*
X110750000Y-81100000D01*
X110750000Y-81100000D01*
G37*
G36*
X107450000Y-81100000D02*
X106550000Y-81100000D01*
X106550000Y-79900000D01*
X107450000Y-79900000D01*
X107450000Y-81100000D01*
X107450000Y-81100000D01*
G37*
G36*
X115921305Y-80689250D02*
X115532396Y-81078159D01*
X114401025Y-79946788D01*
X114789934Y-79557879D01*
X115921305Y-80689250D01*
X115921305Y-80689250D01*
G37*
G36*
X125891511Y-79946788D02*
X124760140Y-81078159D01*
X124371231Y-80689250D01*
X125502602Y-79557879D01*
X125891511Y-79946788D01*
X125891511Y-79946788D01*
G37*
G36*
X116486991Y-80123565D02*
X116098082Y-80512474D01*
X114966711Y-79381103D01*
X115355620Y-78992194D01*
X116486991Y-80123565D01*
X116486991Y-80123565D01*
G37*
G36*
X125325825Y-79381103D02*
X124194454Y-80512474D01*
X123805545Y-80123565D01*
X124936916Y-78992194D01*
X125325825Y-79381103D01*
X125325825Y-79381103D01*
G37*
G36*
X117618361Y-78992194D02*
X116663767Y-79946788D01*
X115532396Y-78815417D01*
X116486990Y-77860823D01*
X117618361Y-78992194D01*
X117618361Y-78992194D01*
G37*
G36*
X124760140Y-78815417D02*
X123628769Y-79946788D01*
X122674175Y-78992194D01*
X123805546Y-77860823D01*
X124760140Y-78815417D01*
X124760140Y-78815417D01*
G37*
G36*
X118749732Y-77860823D02*
X117795138Y-78815417D01*
X116663767Y-77684046D01*
X117618361Y-76729452D01*
X118749732Y-77860823D01*
X118749732Y-77860823D01*
G37*
G36*
X123628769Y-77684046D02*
X122497398Y-78815417D01*
X121542804Y-77860823D01*
X122674175Y-76729452D01*
X123628769Y-77684046D01*
X123628769Y-77684046D01*
G37*
G36*
X112250000Y-78200000D02*
X106750000Y-78200000D01*
X106750000Y-75200000D01*
X112250000Y-75200000D01*
X112250000Y-78200000D01*
X112250000Y-78200000D01*
G37*
G36*
X119315418Y-77295138D02*
X118926509Y-77684047D01*
X117795138Y-76552676D01*
X118184047Y-76163767D01*
X119315418Y-77295138D01*
X119315418Y-77295138D01*
G37*
G36*
X122497398Y-76552676D02*
X121366027Y-77684047D01*
X120977118Y-77295138D01*
X122108489Y-76163767D01*
X122497398Y-76552676D01*
X122497398Y-76552676D01*
G37*
G36*
X119881103Y-76729452D02*
X119492194Y-77118361D01*
X118360823Y-75986990D01*
X118749732Y-75598081D01*
X119881103Y-76729452D01*
X119881103Y-76729452D01*
G37*
G36*
X121931713Y-75986990D02*
X120800342Y-77118361D01*
X120411433Y-76729452D01*
X121542804Y-75598081D01*
X121931713Y-75986990D01*
X121931713Y-75986990D01*
G37*
G36*
X112250000Y-73500000D02*
X106750000Y-73500000D01*
X106750000Y-70500000D01*
X112250000Y-70500000D01*
X112250000Y-73500000D01*
X112250000Y-73500000D01*
G37*
G36*
X117950000Y-73420000D02*
X116450000Y-73420000D01*
X116450000Y-72820000D01*
X117950000Y-72820000D01*
X117950000Y-73420000D01*
X117950000Y-73420000D01*
G37*
G36*
X127250000Y-73420000D02*
X125750000Y-73420000D01*
X125750000Y-72820000D01*
X127250000Y-72820000D01*
X127250000Y-73420000D01*
X127250000Y-73420000D01*
G37*
G36*
X127250000Y-72150000D02*
X125750000Y-72150000D01*
X125750000Y-71550000D01*
X127250000Y-71550000D01*
X127250000Y-72150000D01*
X127250000Y-72150000D01*
G37*
G36*
X117950000Y-72150000D02*
X116450000Y-72150000D01*
X116450000Y-71550000D01*
X117950000Y-71550000D01*
X117950000Y-72150000D01*
X117950000Y-72150000D01*
G37*
G36*
X117950000Y-70880000D02*
X116450000Y-70880000D01*
X116450000Y-70280000D01*
X117950000Y-70280000D01*
X117950000Y-70880000D01*
X117950000Y-70880000D01*
G37*
G36*
X127250000Y-70880000D02*
X125750000Y-70880000D01*
X125750000Y-70280000D01*
X127250000Y-70280000D01*
X127250000Y-70880000D01*
X127250000Y-70880000D01*
G37*
G36*
X108673195Y-68257522D02*
X108722267Y-68267283D01*
X108860942Y-68324724D01*
X108985750Y-68408118D01*
X109091882Y-68514250D01*
X109175276Y-68639058D01*
X109232717Y-68777734D01*
X109262000Y-68924948D01*
X109262000Y-69075052D01*
X109232717Y-69222266D01*
X109175276Y-69360942D01*
X109091882Y-69485750D01*
X108985750Y-69591882D01*
X108985747Y-69591884D01*
X108860942Y-69675276D01*
X108722267Y-69732717D01*
X108673195Y-69742478D01*
X108575052Y-69762000D01*
X108424948Y-69762000D01*
X108326805Y-69742478D01*
X108277733Y-69732717D01*
X108139058Y-69675276D01*
X108014253Y-69591884D01*
X108014250Y-69591882D01*
X107908118Y-69485750D01*
X107824724Y-69360942D01*
X107767283Y-69222266D01*
X107738000Y-69075052D01*
X107738000Y-68924948D01*
X107767283Y-68777734D01*
X107824724Y-68639058D01*
X107908118Y-68514250D01*
X108014250Y-68408118D01*
X108139058Y-68324724D01*
X108277733Y-68267283D01*
X108326805Y-68257522D01*
X108424948Y-68238000D01*
X108575052Y-68238000D01*
X108673195Y-68257522D01*
X108673195Y-68257522D01*
G37*
G36*
X117950000Y-69610000D02*
X116450000Y-69610000D01*
X116450000Y-69010000D01*
X117950000Y-69010000D01*
X117950000Y-69610000D01*
X117950000Y-69610000D01*
G37*
G36*
X127250000Y-69610000D02*
X125750000Y-69610000D01*
X125750000Y-69010000D01*
X127250000Y-69010000D01*
X127250000Y-69610000D01*
X127250000Y-69610000D01*
G37*
G36*
X127250000Y-68340000D02*
X125750000Y-68340000D01*
X125750000Y-67740000D01*
X127250000Y-67740000D01*
X127250000Y-68340000D01*
X127250000Y-68340000D01*
G37*
G36*
X117950000Y-68340000D02*
X116450000Y-68340000D01*
X116450000Y-67740000D01*
X117950000Y-67740000D01*
X117950000Y-68340000D01*
X117950000Y-68340000D01*
G37*
G36*
X127250000Y-67070000D02*
X125750000Y-67070000D01*
X125750000Y-66470000D01*
X127250000Y-66470000D01*
X127250000Y-67070000D01*
X127250000Y-67070000D01*
G37*
G36*
X117950000Y-67070000D02*
X116450000Y-67070000D01*
X116450000Y-66470000D01*
X117950000Y-66470000D01*
X117950000Y-67070000D01*
X117950000Y-67070000D01*
G37*
G36*
X117950000Y-65800000D02*
X116450000Y-65800000D01*
X116450000Y-65200000D01*
X117950000Y-65200000D01*
X117950000Y-65800000D01*
X117950000Y-65800000D01*
G37*
G36*
X127250000Y-65800000D02*
X125750000Y-65800000D01*
X125750000Y-65200000D01*
X127250000Y-65200000D01*
X127250000Y-65800000D01*
X127250000Y-65800000D01*
G37*
G36*
X117950000Y-64530000D02*
X116450000Y-64530000D01*
X116450000Y-63930000D01*
X117950000Y-63930000D01*
X117950000Y-64530000D01*
X117950000Y-64530000D01*
G37*
G36*
X127250000Y-64530000D02*
X125750000Y-64530000D01*
X125750000Y-63930000D01*
X127250000Y-63930000D01*
X127250000Y-64530000D01*
X127250000Y-64530000D01*
G37*
G36*
X123000000Y-62000000D02*
X121000000Y-62000000D01*
X121000000Y-60000000D01*
X123000000Y-60000000D01*
X123000000Y-62000000D01*
X123000000Y-62000000D01*
G37*
G36*
X117000000Y-62000000D02*
X115000000Y-62000000D01*
X115000000Y-60000000D01*
X117000000Y-60000000D01*
X117000000Y-62000000D01*
X117000000Y-62000000D01*
G37*
G36*
X108673195Y-60257522D02*
X108722267Y-60267283D01*
X108860942Y-60324724D01*
X108985750Y-60408118D01*
X109091882Y-60514250D01*
X109175276Y-60639058D01*
X109232717Y-60777734D01*
X109262000Y-60924948D01*
X109262000Y-61075052D01*
X109232717Y-61222266D01*
X109175276Y-61360942D01*
X109091882Y-61485750D01*
X108985750Y-61591882D01*
X108985747Y-61591884D01*
X108860942Y-61675276D01*
X108722267Y-61732717D01*
X108673195Y-61742478D01*
X108575052Y-61762000D01*
X108424948Y-61762000D01*
X108326805Y-61742478D01*
X108277733Y-61732717D01*
X108139058Y-61675276D01*
X108014253Y-61591884D01*
X108014250Y-61591882D01*
X107908118Y-61485750D01*
X107824724Y-61360942D01*
X107767283Y-61222266D01*
X107738000Y-61075052D01*
X107738000Y-60924948D01*
X107767283Y-60777734D01*
X107824724Y-60639058D01*
X107908118Y-60514250D01*
X108014250Y-60408118D01*
X108139058Y-60324724D01*
X108277733Y-60267283D01*
X108326805Y-60257522D01*
X108424948Y-60238000D01*
X108575052Y-60238000D01*
X108673195Y-60257522D01*
X108673195Y-60257522D01*
G37*
M02*
