G04 #@! TF.GenerationSoftware,KiCad,Pcbnew,5.0.2-bee76a0~70~ubuntu16.04.1*
G04 #@! TF.CreationDate,2019-03-15T02:00:50+08:00*
G04 #@! TF.ProjectId,OTP-v02,4f54502d-7630-4322-9e6b-696361645f70,v01*
G04 #@! TF.SameCoordinates,Original*
G04 #@! TF.FileFunction,Legend,Top*
G04 #@! TF.FilePolarity,Positive*
%FSLAX46Y46*%
G04 Gerber Fmt 4.6, Leading zero omitted, Abs format (unit mm)*
G04 Created by KiCad (PCBNEW 5.0.2-bee76a0~70~ubuntu16.04.1) date Friday, 15 March, 2019 02:00:50 AM PST*
%MOMM*%
%LPD*%
G01*
G04 APERTURE LIST*
%ADD10C,0.120000*%
%ADD11C,0.150000*%
G04 APERTURE END LIST*
D10*
G04 #@! TO.C,C11*
X122460000Y-93836252D02*
X122460000Y-93313748D01*
X121040000Y-93836252D02*
X121040000Y-93313748D01*
G04 #@! TO.C,C5*
X123040000Y-93836252D02*
X123040000Y-93313748D01*
X124460000Y-93836252D02*
X124460000Y-93313748D01*
G04 #@! TO.C,C1*
X126790000Y-88263748D02*
X126790000Y-88786252D01*
X128210000Y-88263748D02*
X128210000Y-88786252D01*
G04 #@! TO.C,C2*
X109736252Y-82540000D02*
X109213748Y-82540000D01*
X109736252Y-83960000D02*
X109213748Y-83960000D01*
G04 #@! TO.C,C3*
X125040000Y-93786252D02*
X125040000Y-93263748D01*
X126460000Y-93786252D02*
X126460000Y-93263748D01*
G04 #@! TO.C,C4*
X124790000Y-88213748D02*
X124790000Y-88736252D01*
X126210000Y-88213748D02*
X126210000Y-88736252D01*
G04 #@! TO.C,C6*
X128213748Y-97040000D02*
X128736252Y-97040000D01*
X128213748Y-98460000D02*
X128736252Y-98460000D01*
G04 #@! TO.C,C7*
X111710000Y-93761252D02*
X111710000Y-93238748D01*
X110290000Y-93761252D02*
X110290000Y-93238748D01*
G04 #@! TO.C,C9*
X128460000Y-93761252D02*
X128460000Y-93238748D01*
X127040000Y-93761252D02*
X127040000Y-93238748D01*
G04 #@! TO.C,C10*
X112290000Y-93761252D02*
X112290000Y-93238748D01*
X113710000Y-93761252D02*
X113710000Y-93238748D01*
G04 #@! TO.C,C12*
X129040000Y-93761252D02*
X129040000Y-93238748D01*
X130460000Y-93761252D02*
X130460000Y-93238748D01*
G04 #@! TO.C,D1*
X111117973Y-89862500D02*
X113117973Y-89862500D01*
X113117973Y-89862500D02*
X113117973Y-85962500D01*
X111117973Y-89862500D02*
X111117973Y-85962500D01*
G04 #@! TO.C,D2*
X113117973Y-89862500D02*
X113117973Y-85962500D01*
X115117973Y-89862500D02*
X115117973Y-85962500D01*
X113117973Y-89862500D02*
X115117973Y-89862500D01*
G04 #@! TO.C,D3*
X106400000Y-79500000D02*
X106400000Y-81500000D01*
X106400000Y-81500000D02*
X110300000Y-81500000D01*
X106400000Y-79500000D02*
X110300000Y-79500000D01*
G04 #@! TO.C,Q1*
X109830000Y-85990000D02*
X109830000Y-87450000D01*
X106670000Y-85990000D02*
X106670000Y-88150000D01*
X106670000Y-85990000D02*
X107600000Y-85990000D01*
X109830000Y-85990000D02*
X108900000Y-85990000D01*
G04 #@! TO.C,Q2*
X127240000Y-82670000D02*
X127240000Y-83600000D01*
X127240000Y-85830000D02*
X127240000Y-84900000D01*
X127240000Y-85830000D02*
X129400000Y-85830000D01*
X127240000Y-82670000D02*
X128700000Y-82670000D01*
G04 #@! TO.C,R1*
X108013748Y-97710000D02*
X108536252Y-97710000D01*
X108013748Y-96290000D02*
X108536252Y-96290000D01*
G04 #@! TO.C,R2*
X108338524Y-93749888D02*
X108338524Y-93227384D01*
X109758524Y-93749888D02*
X109758524Y-93227384D01*
D11*
G04 #@! TO.C,U1*
X120146268Y-76216800D02*
X119987169Y-76375899D01*
X125272792Y-81343324D02*
X125042982Y-81573134D01*
X120146268Y-86469848D02*
X120376078Y-86240038D01*
X115019744Y-81343324D02*
X115249554Y-81113514D01*
X120146268Y-76216800D02*
X120376078Y-76446610D01*
X115019744Y-81343324D02*
X115249554Y-81573134D01*
X120146268Y-86469848D02*
X119916458Y-86240038D01*
X125272792Y-81343324D02*
X125042982Y-81113514D01*
X119987169Y-76375899D02*
X118979542Y-75368272D01*
G04 #@! TO.C,U2*
X117975000Y-63350000D02*
X117975000Y-63625000D01*
X125725000Y-63350000D02*
X125725000Y-63705000D01*
X125725000Y-74000000D02*
X125725000Y-73645000D01*
X117975000Y-74000000D02*
X117975000Y-73645000D01*
X117975000Y-63350000D02*
X125725000Y-63350000D01*
X117975000Y-74000000D02*
X125725000Y-74000000D01*
X117975000Y-63625000D02*
X116450000Y-63625000D01*
D10*
G04 #@! TO.C,C8*
X119040000Y-93786252D02*
X119040000Y-93263748D01*
X120460000Y-93786252D02*
X120460000Y-93263748D01*
G04 #@! TO.C,J1*
D11*
X128452380Y-99333333D02*
X129166666Y-99333333D01*
X129309523Y-99380952D01*
X129404761Y-99476190D01*
X129452380Y-99619047D01*
X129452380Y-99714285D01*
X129452380Y-98333333D02*
X129452380Y-98904761D01*
X129452380Y-98619047D02*
X128452380Y-98619047D01*
X128595238Y-98714285D01*
X128690476Y-98809523D01*
X128738095Y-98904761D01*
G04 #@! TO.C,C11*
X120457142Y-94217857D02*
X120504761Y-94265476D01*
X120552380Y-94408333D01*
X120552380Y-94503571D01*
X120504761Y-94646428D01*
X120409523Y-94741666D01*
X120314285Y-94789285D01*
X120123809Y-94836904D01*
X119980952Y-94836904D01*
X119790476Y-94789285D01*
X119695238Y-94741666D01*
X119600000Y-94646428D01*
X119552380Y-94503571D01*
X119552380Y-94408333D01*
X119600000Y-94265476D01*
X119647619Y-94217857D01*
X120552380Y-93265476D02*
X120552380Y-93836904D01*
X120552380Y-93551190D02*
X119552380Y-93551190D01*
X119695238Y-93646428D01*
X119790476Y-93741666D01*
X119838095Y-93836904D01*
X120552380Y-92313095D02*
X120552380Y-92884523D01*
X120552380Y-92598809D02*
X119552380Y-92598809D01*
X119695238Y-92694047D01*
X119790476Y-92789285D01*
X119838095Y-92884523D01*
G04 #@! TO.C,C5*
X122457142Y-93741666D02*
X122504761Y-93789285D01*
X122552380Y-93932142D01*
X122552380Y-94027380D01*
X122504761Y-94170238D01*
X122409523Y-94265476D01*
X122314285Y-94313095D01*
X122123809Y-94360714D01*
X121980952Y-94360714D01*
X121790476Y-94313095D01*
X121695238Y-94265476D01*
X121600000Y-94170238D01*
X121552380Y-94027380D01*
X121552380Y-93932142D01*
X121600000Y-93789285D01*
X121647619Y-93741666D01*
X121552380Y-92836904D02*
X121552380Y-93313095D01*
X122028571Y-93360714D01*
X121980952Y-93313095D01*
X121933333Y-93217857D01*
X121933333Y-92979761D01*
X121980952Y-92884523D01*
X122028571Y-92836904D01*
X122123809Y-92789285D01*
X122361904Y-92789285D01*
X122457142Y-92836904D01*
X122504761Y-92884523D01*
X122552380Y-92979761D01*
X122552380Y-93217857D01*
X122504761Y-93313095D01*
X122457142Y-93360714D01*
G04 #@! TO.C,BT1*
X111428571Y-65785714D02*
X111476190Y-65642857D01*
X111523809Y-65595238D01*
X111619047Y-65547619D01*
X111761904Y-65547619D01*
X111857142Y-65595238D01*
X111904761Y-65642857D01*
X111952380Y-65738095D01*
X111952380Y-66119047D01*
X110952380Y-66119047D01*
X110952380Y-65785714D01*
X111000000Y-65690476D01*
X111047619Y-65642857D01*
X111142857Y-65595238D01*
X111238095Y-65595238D01*
X111333333Y-65642857D01*
X111380952Y-65690476D01*
X111428571Y-65785714D01*
X111428571Y-66119047D01*
X110952380Y-65261904D02*
X110952380Y-64690476D01*
X111952380Y-64976190D02*
X110952380Y-64976190D01*
X111952380Y-63833333D02*
X111952380Y-64404761D01*
X111952380Y-64119047D02*
X110952380Y-64119047D01*
X111095238Y-64214285D01*
X111190476Y-64309523D01*
X111238095Y-64404761D01*
G04 #@! TO.C,BT2*
X118224285Y-54718571D02*
X118367142Y-54766190D01*
X118414761Y-54813809D01*
X118462380Y-54909047D01*
X118462380Y-55051904D01*
X118414761Y-55147142D01*
X118367142Y-55194761D01*
X118271904Y-55242380D01*
X117890952Y-55242380D01*
X117890952Y-54242380D01*
X118224285Y-54242380D01*
X118319523Y-54290000D01*
X118367142Y-54337619D01*
X118414761Y-54432857D01*
X118414761Y-54528095D01*
X118367142Y-54623333D01*
X118319523Y-54670952D01*
X118224285Y-54718571D01*
X117890952Y-54718571D01*
X118748095Y-54242380D02*
X119319523Y-54242380D01*
X119033809Y-55242380D02*
X119033809Y-54242380D01*
X119605238Y-54337619D02*
X119652857Y-54290000D01*
X119748095Y-54242380D01*
X119986190Y-54242380D01*
X120081428Y-54290000D01*
X120129047Y-54337619D01*
X120176666Y-54432857D01*
X120176666Y-54528095D01*
X120129047Y-54670952D01*
X119557619Y-55242380D01*
X120176666Y-55242380D01*
X123619047Y-61071428D02*
X124380952Y-61071428D01*
X124000000Y-61452380D02*
X124000000Y-60690476D01*
G04 #@! TO.C,C1*
X129507142Y-88691666D02*
X129554761Y-88739285D01*
X129602380Y-88882142D01*
X129602380Y-88977380D01*
X129554761Y-89120238D01*
X129459523Y-89215476D01*
X129364285Y-89263095D01*
X129173809Y-89310714D01*
X129030952Y-89310714D01*
X128840476Y-89263095D01*
X128745238Y-89215476D01*
X128650000Y-89120238D01*
X128602380Y-88977380D01*
X128602380Y-88882142D01*
X128650000Y-88739285D01*
X128697619Y-88691666D01*
X129602380Y-87739285D02*
X129602380Y-88310714D01*
X129602380Y-88025000D02*
X128602380Y-88025000D01*
X128745238Y-88120238D01*
X128840476Y-88215476D01*
X128888095Y-88310714D01*
G04 #@! TO.C,C2*
X109308333Y-85257142D02*
X109260714Y-85304761D01*
X109117857Y-85352380D01*
X109022619Y-85352380D01*
X108879761Y-85304761D01*
X108784523Y-85209523D01*
X108736904Y-85114285D01*
X108689285Y-84923809D01*
X108689285Y-84780952D01*
X108736904Y-84590476D01*
X108784523Y-84495238D01*
X108879761Y-84400000D01*
X109022619Y-84352380D01*
X109117857Y-84352380D01*
X109260714Y-84400000D01*
X109308333Y-84447619D01*
X109689285Y-84447619D02*
X109736904Y-84400000D01*
X109832142Y-84352380D01*
X110070238Y-84352380D01*
X110165476Y-84400000D01*
X110213095Y-84447619D01*
X110260714Y-84542857D01*
X110260714Y-84638095D01*
X110213095Y-84780952D01*
X109641666Y-85352380D01*
X110260714Y-85352380D01*
G04 #@! TO.C,C3*
X124457142Y-93691666D02*
X124504761Y-93739285D01*
X124552380Y-93882142D01*
X124552380Y-93977380D01*
X124504761Y-94120238D01*
X124409523Y-94215476D01*
X124314285Y-94263095D01*
X124123809Y-94310714D01*
X123980952Y-94310714D01*
X123790476Y-94263095D01*
X123695238Y-94215476D01*
X123600000Y-94120238D01*
X123552380Y-93977380D01*
X123552380Y-93882142D01*
X123600000Y-93739285D01*
X123647619Y-93691666D01*
X123552380Y-93358333D02*
X123552380Y-92739285D01*
X123933333Y-93072619D01*
X123933333Y-92929761D01*
X123980952Y-92834523D01*
X124028571Y-92786904D01*
X124123809Y-92739285D01*
X124361904Y-92739285D01*
X124457142Y-92786904D01*
X124504761Y-92834523D01*
X124552380Y-92929761D01*
X124552380Y-93215476D01*
X124504761Y-93310714D01*
X124457142Y-93358333D01*
G04 #@! TO.C,C4*
X127507142Y-88641666D02*
X127554761Y-88689285D01*
X127602380Y-88832142D01*
X127602380Y-88927380D01*
X127554761Y-89070238D01*
X127459523Y-89165476D01*
X127364285Y-89213095D01*
X127173809Y-89260714D01*
X127030952Y-89260714D01*
X126840476Y-89213095D01*
X126745238Y-89165476D01*
X126650000Y-89070238D01*
X126602380Y-88927380D01*
X126602380Y-88832142D01*
X126650000Y-88689285D01*
X126697619Y-88641666D01*
X126935714Y-87784523D02*
X127602380Y-87784523D01*
X126554761Y-88022619D02*
X127269047Y-88260714D01*
X127269047Y-87641666D01*
G04 #@! TO.C,C6*
X128308333Y-96457142D02*
X128260714Y-96504761D01*
X128117857Y-96552380D01*
X128022619Y-96552380D01*
X127879761Y-96504761D01*
X127784523Y-96409523D01*
X127736904Y-96314285D01*
X127689285Y-96123809D01*
X127689285Y-95980952D01*
X127736904Y-95790476D01*
X127784523Y-95695238D01*
X127879761Y-95600000D01*
X128022619Y-95552380D01*
X128117857Y-95552380D01*
X128260714Y-95600000D01*
X128308333Y-95647619D01*
X129165476Y-95552380D02*
X128975000Y-95552380D01*
X128879761Y-95600000D01*
X128832142Y-95647619D01*
X128736904Y-95790476D01*
X128689285Y-95980952D01*
X128689285Y-96361904D01*
X128736904Y-96457142D01*
X128784523Y-96504761D01*
X128879761Y-96552380D01*
X129070238Y-96552380D01*
X129165476Y-96504761D01*
X129213095Y-96457142D01*
X129260714Y-96361904D01*
X129260714Y-96123809D01*
X129213095Y-96028571D01*
X129165476Y-95980952D01*
X129070238Y-95933333D01*
X128879761Y-95933333D01*
X128784523Y-95980952D01*
X128736904Y-96028571D01*
X128689285Y-96123809D01*
G04 #@! TO.C,C7*
X109707142Y-93666666D02*
X109754761Y-93714285D01*
X109802380Y-93857142D01*
X109802380Y-93952380D01*
X109754761Y-94095238D01*
X109659523Y-94190476D01*
X109564285Y-94238095D01*
X109373809Y-94285714D01*
X109230952Y-94285714D01*
X109040476Y-94238095D01*
X108945238Y-94190476D01*
X108850000Y-94095238D01*
X108802380Y-93952380D01*
X108802380Y-93857142D01*
X108850000Y-93714285D01*
X108897619Y-93666666D01*
X108802380Y-93333333D02*
X108802380Y-92666666D01*
X109802380Y-93095238D01*
G04 #@! TO.C,C9*
X126457142Y-93666666D02*
X126504761Y-93714285D01*
X126552380Y-93857142D01*
X126552380Y-93952380D01*
X126504761Y-94095238D01*
X126409523Y-94190476D01*
X126314285Y-94238095D01*
X126123809Y-94285714D01*
X125980952Y-94285714D01*
X125790476Y-94238095D01*
X125695238Y-94190476D01*
X125600000Y-94095238D01*
X125552380Y-93952380D01*
X125552380Y-93857142D01*
X125600000Y-93714285D01*
X125647619Y-93666666D01*
X126552380Y-93190476D02*
X126552380Y-93000000D01*
X126504761Y-92904761D01*
X126457142Y-92857142D01*
X126314285Y-92761904D01*
X126123809Y-92714285D01*
X125742857Y-92714285D01*
X125647619Y-92761904D01*
X125600000Y-92809523D01*
X125552380Y-92904761D01*
X125552380Y-93095238D01*
X125600000Y-93190476D01*
X125647619Y-93238095D01*
X125742857Y-93285714D01*
X125980952Y-93285714D01*
X126076190Y-93238095D01*
X126123809Y-93190476D01*
X126171428Y-93095238D01*
X126171428Y-92904761D01*
X126123809Y-92809523D01*
X126076190Y-92761904D01*
X125980952Y-92714285D01*
G04 #@! TO.C,C10*
X111707142Y-94142857D02*
X111754761Y-94190476D01*
X111802380Y-94333333D01*
X111802380Y-94428571D01*
X111754761Y-94571428D01*
X111659523Y-94666666D01*
X111564285Y-94714285D01*
X111373809Y-94761904D01*
X111230952Y-94761904D01*
X111040476Y-94714285D01*
X110945238Y-94666666D01*
X110850000Y-94571428D01*
X110802380Y-94428571D01*
X110802380Y-94333333D01*
X110850000Y-94190476D01*
X110897619Y-94142857D01*
X111802380Y-93190476D02*
X111802380Y-93761904D01*
X111802380Y-93476190D02*
X110802380Y-93476190D01*
X110945238Y-93571428D01*
X111040476Y-93666666D01*
X111088095Y-93761904D01*
X110802380Y-92571428D02*
X110802380Y-92476190D01*
X110850000Y-92380952D01*
X110897619Y-92333333D01*
X110992857Y-92285714D01*
X111183333Y-92238095D01*
X111421428Y-92238095D01*
X111611904Y-92285714D01*
X111707142Y-92333333D01*
X111754761Y-92380952D01*
X111802380Y-92476190D01*
X111802380Y-92571428D01*
X111754761Y-92666666D01*
X111707142Y-92714285D01*
X111611904Y-92761904D01*
X111421428Y-92809523D01*
X111183333Y-92809523D01*
X110992857Y-92761904D01*
X110897619Y-92714285D01*
X110850000Y-92666666D01*
X110802380Y-92571428D01*
G04 #@! TO.C,C12*
X128457142Y-94142857D02*
X128504761Y-94190476D01*
X128552380Y-94333333D01*
X128552380Y-94428571D01*
X128504761Y-94571428D01*
X128409523Y-94666666D01*
X128314285Y-94714285D01*
X128123809Y-94761904D01*
X127980952Y-94761904D01*
X127790476Y-94714285D01*
X127695238Y-94666666D01*
X127600000Y-94571428D01*
X127552380Y-94428571D01*
X127552380Y-94333333D01*
X127600000Y-94190476D01*
X127647619Y-94142857D01*
X128552380Y-93190476D02*
X128552380Y-93761904D01*
X128552380Y-93476190D02*
X127552380Y-93476190D01*
X127695238Y-93571428D01*
X127790476Y-93666666D01*
X127838095Y-93761904D01*
X127647619Y-92809523D02*
X127600000Y-92761904D01*
X127552380Y-92666666D01*
X127552380Y-92428571D01*
X127600000Y-92333333D01*
X127647619Y-92285714D01*
X127742857Y-92238095D01*
X127838095Y-92238095D01*
X127980952Y-92285714D01*
X128552380Y-92857142D01*
X128552380Y-92238095D01*
G04 #@! TO.C,D1*
X110570353Y-88350595D02*
X109570353Y-88350595D01*
X109570353Y-88112500D01*
X109617973Y-87969642D01*
X109713211Y-87874404D01*
X109808449Y-87826785D01*
X109998925Y-87779166D01*
X110141782Y-87779166D01*
X110332258Y-87826785D01*
X110427496Y-87874404D01*
X110522734Y-87969642D01*
X110570353Y-88112500D01*
X110570353Y-88350595D01*
X110570353Y-86826785D02*
X110570353Y-87398214D01*
X110570353Y-87112500D02*
X109570353Y-87112500D01*
X109713211Y-87207738D01*
X109808449Y-87302976D01*
X109856068Y-87398214D01*
G04 #@! TO.C,D2*
X112570353Y-88350595D02*
X111570353Y-88350595D01*
X111570353Y-88112500D01*
X111617973Y-87969642D01*
X111713211Y-87874404D01*
X111808449Y-87826785D01*
X111998925Y-87779166D01*
X112141782Y-87779166D01*
X112332258Y-87826785D01*
X112427496Y-87874404D01*
X112522734Y-87969642D01*
X112570353Y-88112500D01*
X112570353Y-88350595D01*
X111665592Y-87398214D02*
X111617973Y-87350595D01*
X111570353Y-87255357D01*
X111570353Y-87017261D01*
X111617973Y-86922023D01*
X111665592Y-86874404D01*
X111760830Y-86826785D01*
X111856068Y-86826785D01*
X111998925Y-86874404D01*
X112570353Y-87445833D01*
X112570353Y-86826785D01*
G04 #@! TO.C,D3*
X107911904Y-78952380D02*
X107911904Y-77952380D01*
X108150000Y-77952380D01*
X108292857Y-78000000D01*
X108388095Y-78095238D01*
X108435714Y-78190476D01*
X108483333Y-78380952D01*
X108483333Y-78523809D01*
X108435714Y-78714285D01*
X108388095Y-78809523D01*
X108292857Y-78904761D01*
X108150000Y-78952380D01*
X107911904Y-78952380D01*
X108816666Y-77952380D02*
X109435714Y-77952380D01*
X109102380Y-78333333D01*
X109245238Y-78333333D01*
X109340476Y-78380952D01*
X109388095Y-78428571D01*
X109435714Y-78523809D01*
X109435714Y-78761904D01*
X109388095Y-78857142D01*
X109340476Y-78904761D01*
X109245238Y-78952380D01*
X108959523Y-78952380D01*
X108864285Y-78904761D01*
X108816666Y-78857142D01*
G04 #@! TO.C,L1*
X113952380Y-74516666D02*
X113952380Y-74992857D01*
X112952380Y-74992857D01*
X113952380Y-73659523D02*
X113952380Y-74230952D01*
X113952380Y-73945238D02*
X112952380Y-73945238D01*
X113095238Y-74040476D01*
X113190476Y-74135714D01*
X113238095Y-74230952D01*
G04 #@! TO.C,Q1*
X106297619Y-86845238D02*
X106250000Y-86940476D01*
X106154761Y-87035714D01*
X106011904Y-87178571D01*
X105964285Y-87273809D01*
X105964285Y-87369047D01*
X106202380Y-87321428D02*
X106154761Y-87416666D01*
X106059523Y-87511904D01*
X105869047Y-87559523D01*
X105535714Y-87559523D01*
X105345238Y-87511904D01*
X105250000Y-87416666D01*
X105202380Y-87321428D01*
X105202380Y-87130952D01*
X105250000Y-87035714D01*
X105345238Y-86940476D01*
X105535714Y-86892857D01*
X105869047Y-86892857D01*
X106059523Y-86940476D01*
X106154761Y-87035714D01*
X106202380Y-87130952D01*
X106202380Y-87321428D01*
X106202380Y-85940476D02*
X106202380Y-86511904D01*
X106202380Y-86226190D02*
X105202380Y-86226190D01*
X105345238Y-86321428D01*
X105440476Y-86416666D01*
X105488095Y-86511904D01*
G04 #@! TO.C,Q2*
X127904761Y-87297619D02*
X127809523Y-87250000D01*
X127714285Y-87154761D01*
X127571428Y-87011904D01*
X127476190Y-86964285D01*
X127380952Y-86964285D01*
X127428571Y-87202380D02*
X127333333Y-87154761D01*
X127238095Y-87059523D01*
X127190476Y-86869047D01*
X127190476Y-86535714D01*
X127238095Y-86345238D01*
X127333333Y-86250000D01*
X127428571Y-86202380D01*
X127619047Y-86202380D01*
X127714285Y-86250000D01*
X127809523Y-86345238D01*
X127857142Y-86535714D01*
X127857142Y-86869047D01*
X127809523Y-87059523D01*
X127714285Y-87154761D01*
X127619047Y-87202380D01*
X127428571Y-87202380D01*
X128238095Y-86297619D02*
X128285714Y-86250000D01*
X128380952Y-86202380D01*
X128619047Y-86202380D01*
X128714285Y-86250000D01*
X128761904Y-86297619D01*
X128809523Y-86392857D01*
X128809523Y-86488095D01*
X128761904Y-86630952D01*
X128190476Y-87202380D01*
X128809523Y-87202380D01*
G04 #@! TO.C,R1*
X108108333Y-95802380D02*
X107775000Y-95326190D01*
X107536904Y-95802380D02*
X107536904Y-94802380D01*
X107917857Y-94802380D01*
X108013095Y-94850000D01*
X108060714Y-94897619D01*
X108108333Y-94992857D01*
X108108333Y-95135714D01*
X108060714Y-95230952D01*
X108013095Y-95278571D01*
X107917857Y-95326190D01*
X107536904Y-95326190D01*
X109060714Y-95802380D02*
X108489285Y-95802380D01*
X108775000Y-95802380D02*
X108775000Y-94802380D01*
X108679761Y-94945238D01*
X108584523Y-95040476D01*
X108489285Y-95088095D01*
G04 #@! TO.C,R2*
X107850904Y-93655302D02*
X107374714Y-93988636D01*
X107850904Y-94226731D02*
X106850904Y-94226731D01*
X106850904Y-93845778D01*
X106898524Y-93750540D01*
X106946143Y-93702921D01*
X107041381Y-93655302D01*
X107184238Y-93655302D01*
X107279476Y-93702921D01*
X107327095Y-93750540D01*
X107374714Y-93845778D01*
X107374714Y-94226731D01*
X106946143Y-93274350D02*
X106898524Y-93226731D01*
X106850904Y-93131493D01*
X106850904Y-92893397D01*
X106898524Y-92798159D01*
X106946143Y-92750540D01*
X107041381Y-92702921D01*
X107136619Y-92702921D01*
X107279476Y-92750540D01*
X107850904Y-93321969D01*
X107850904Y-92702921D01*
G04 #@! TO.C,U1*
X124272741Y-76139354D02*
X123700321Y-76711774D01*
X123666649Y-76812789D01*
X123666649Y-76880133D01*
X123700321Y-76981148D01*
X123835008Y-77115835D01*
X123936023Y-77149507D01*
X124003367Y-77149507D01*
X124104382Y-77115835D01*
X124676802Y-76543415D01*
X124676802Y-77957629D02*
X124272741Y-77553568D01*
X124474771Y-77755598D02*
X125181878Y-77048492D01*
X125013519Y-77082163D01*
X124878832Y-77082163D01*
X124777817Y-77048492D01*
G04 #@! TO.C,U2*
X121088095Y-61877380D02*
X121088095Y-62686904D01*
X121135714Y-62782142D01*
X121183333Y-62829761D01*
X121278571Y-62877380D01*
X121469047Y-62877380D01*
X121564285Y-62829761D01*
X121611904Y-62782142D01*
X121659523Y-62686904D01*
X121659523Y-61877380D01*
X122088095Y-61972619D02*
X122135714Y-61925000D01*
X122230952Y-61877380D01*
X122469047Y-61877380D01*
X122564285Y-61925000D01*
X122611904Y-61972619D01*
X122659523Y-62067857D01*
X122659523Y-62163095D01*
X122611904Y-62305952D01*
X122040476Y-62877380D01*
X122659523Y-62877380D01*
G04 #@! TO.C,C8*
X118457142Y-93691666D02*
X118504761Y-93739285D01*
X118552380Y-93882142D01*
X118552380Y-93977380D01*
X118504761Y-94120238D01*
X118409523Y-94215476D01*
X118314285Y-94263095D01*
X118123809Y-94310714D01*
X117980952Y-94310714D01*
X117790476Y-94263095D01*
X117695238Y-94215476D01*
X117600000Y-94120238D01*
X117552380Y-93977380D01*
X117552380Y-93882142D01*
X117600000Y-93739285D01*
X117647619Y-93691666D01*
X117980952Y-93120238D02*
X117933333Y-93215476D01*
X117885714Y-93263095D01*
X117790476Y-93310714D01*
X117742857Y-93310714D01*
X117647619Y-93263095D01*
X117600000Y-93215476D01*
X117552380Y-93120238D01*
X117552380Y-92929761D01*
X117600000Y-92834523D01*
X117647619Y-92786904D01*
X117742857Y-92739285D01*
X117790476Y-92739285D01*
X117885714Y-92786904D01*
X117933333Y-92834523D01*
X117980952Y-92929761D01*
X117980952Y-93120238D01*
X118028571Y-93215476D01*
X118076190Y-93263095D01*
X118171428Y-93310714D01*
X118361904Y-93310714D01*
X118457142Y-93263095D01*
X118504761Y-93215476D01*
X118552380Y-93120238D01*
X118552380Y-92929761D01*
X118504761Y-92834523D01*
X118457142Y-92786904D01*
X118361904Y-92739285D01*
X118171428Y-92739285D01*
X118076190Y-92786904D01*
X118028571Y-92834523D01*
X117980952Y-92929761D01*
G04 #@! TD*
M02*
