G04 #@! TF.GenerationSoftware,KiCad,Pcbnew,5.0.2-bee76a0~70~ubuntu16.04.1*
G04 #@! TF.CreationDate,2019-03-15T02:00:50+08:00*
G04 #@! TF.ProjectId,OTP-v02,4f54502d-7630-4322-9e6b-696361645f70,v01*
G04 #@! TF.SameCoordinates,Original*
G04 #@! TF.FileFunction,Other,User*
%FSLAX46Y46*%
G04 Gerber Fmt 4.6, Leading zero omitted, Abs format (unit mm)*
G04 Created by KiCad (PCBNEW 5.0.2-bee76a0~70~ubuntu16.04.1) date Friday, 15 March, 2019 02:00:50 AM PST*
%MOMM*%
%LPD*%
G01*
G04 APERTURE LIST*
%ADD10C,0.050000*%
G04 APERTURE END LIST*
D10*
G04 #@! TO.C,C11*
X122700000Y-91725000D02*
X122700000Y-95425000D01*
X120800000Y-91725000D02*
X122700000Y-91725000D01*
X120800000Y-95425000D02*
X120800000Y-91725000D01*
X122700000Y-95425000D02*
X120800000Y-95425000D01*
G04 #@! TO.C,C5*
X124700000Y-95425000D02*
X122800000Y-95425000D01*
X122800000Y-95425000D02*
X122800000Y-91725000D01*
X122800000Y-91725000D02*
X124700000Y-91725000D01*
X124700000Y-91725000D02*
X124700000Y-95425000D01*
G04 #@! TO.C,C1*
X126550000Y-90375000D02*
X126550000Y-86675000D01*
X128450000Y-90375000D02*
X126550000Y-90375000D01*
X128450000Y-86675000D02*
X128450000Y-90375000D01*
X126550000Y-86675000D02*
X128450000Y-86675000D01*
G04 #@! TO.C,C2*
X107625000Y-82300000D02*
X111325000Y-82300000D01*
X107625000Y-84200000D02*
X107625000Y-82300000D01*
X111325000Y-84200000D02*
X107625000Y-84200000D01*
X111325000Y-82300000D02*
X111325000Y-84200000D01*
G04 #@! TO.C,C3*
X126700000Y-95375000D02*
X124800000Y-95375000D01*
X124800000Y-95375000D02*
X124800000Y-91675000D01*
X124800000Y-91675000D02*
X126700000Y-91675000D01*
X126700000Y-91675000D02*
X126700000Y-95375000D01*
G04 #@! TO.C,C4*
X124550000Y-90325000D02*
X124550000Y-86625000D01*
X126450000Y-90325000D02*
X124550000Y-90325000D01*
X126450000Y-86625000D02*
X126450000Y-90325000D01*
X124550000Y-86625000D02*
X126450000Y-86625000D01*
G04 #@! TO.C,C6*
X126625000Y-98700000D02*
X126625000Y-96800000D01*
X126625000Y-96800000D02*
X130325000Y-96800000D01*
X130325000Y-96800000D02*
X130325000Y-98700000D01*
X130325000Y-98700000D02*
X126625000Y-98700000D01*
G04 #@! TO.C,C7*
X111950000Y-91650000D02*
X111950000Y-95350000D01*
X110050000Y-91650000D02*
X111950000Y-91650000D01*
X110050000Y-95350000D02*
X110050000Y-91650000D01*
X111950000Y-95350000D02*
X110050000Y-95350000D01*
G04 #@! TO.C,C9*
X128700000Y-91650000D02*
X128700000Y-95350000D01*
X126800000Y-91650000D02*
X128700000Y-91650000D01*
X126800000Y-95350000D02*
X126800000Y-91650000D01*
X128700000Y-95350000D02*
X126800000Y-95350000D01*
G04 #@! TO.C,C10*
X113950000Y-95350000D02*
X112050000Y-95350000D01*
X112050000Y-95350000D02*
X112050000Y-91650000D01*
X112050000Y-91650000D02*
X113950000Y-91650000D01*
X113950000Y-91650000D02*
X113950000Y-95350000D01*
G04 #@! TO.C,C12*
X130700000Y-95350000D02*
X128800000Y-95350000D01*
X128800000Y-95350000D02*
X128800000Y-91650000D01*
X128800000Y-91650000D02*
X130700000Y-91650000D01*
X130700000Y-91650000D02*
X130700000Y-95350000D01*
G04 #@! TO.C,D1*
X110967973Y-89962500D02*
X110967973Y-85262500D01*
X110967973Y-85262500D02*
X113267973Y-85262500D01*
X113267973Y-85262500D02*
X113267973Y-89962500D01*
X110967973Y-89962500D02*
X113267973Y-89962500D01*
G04 #@! TO.C,D2*
X112967973Y-89962500D02*
X115267973Y-89962500D01*
X115267973Y-85262500D02*
X115267973Y-89962500D01*
X112967973Y-85262500D02*
X115267973Y-85262500D01*
X112967973Y-89962500D02*
X112967973Y-85262500D01*
G04 #@! TO.C,D3*
X106300000Y-79350000D02*
X111000000Y-79350000D01*
X111000000Y-79350000D02*
X111000000Y-81650000D01*
X111000000Y-81650000D02*
X106300000Y-81650000D01*
X106300000Y-79350000D02*
X106300000Y-81650000D01*
G04 #@! TO.C,Q1*
X110000000Y-88450000D02*
X106500000Y-88450000D01*
X110000000Y-85050000D02*
X110000000Y-88450000D01*
X106500000Y-85050000D02*
X110000000Y-85050000D01*
X106500000Y-88450000D02*
X106500000Y-85050000D01*
G04 #@! TO.C,Q2*
X129700000Y-86000000D02*
X126300000Y-86000000D01*
X126300000Y-86000000D02*
X126300000Y-82500000D01*
X126300000Y-82500000D02*
X129700000Y-82500000D01*
X129700000Y-82500000D02*
X129700000Y-86000000D01*
G04 #@! TO.C,R1*
X110125000Y-97950000D02*
X106425000Y-97950000D01*
X110125000Y-96050000D02*
X110125000Y-97950000D01*
X106425000Y-96050000D02*
X110125000Y-96050000D01*
X106425000Y-97950000D02*
X106425000Y-96050000D01*
G04 #@! TO.C,R2*
X109998524Y-95338636D02*
X108098524Y-95338636D01*
X108098524Y-95338636D02*
X108098524Y-91638636D01*
X108098524Y-91638636D02*
X109998524Y-91638636D01*
X109998524Y-91638636D02*
X109998524Y-95338636D01*
G04 #@! TO.C,U1*
X120146268Y-73847992D02*
X112650936Y-81343324D01*
X127641600Y-81343324D02*
X120146268Y-88838656D01*
X120146268Y-73847992D02*
X127641600Y-81343324D01*
X112650936Y-81343324D02*
X120146268Y-88838656D01*
G04 #@! TO.C,U2*
X116200000Y-63175000D02*
X116200000Y-74175000D01*
X127500000Y-63175000D02*
X127500000Y-74175000D01*
X116200000Y-63175000D02*
X127500000Y-63175000D01*
X116200000Y-74175000D02*
X127500000Y-74175000D01*
G04 #@! TO.C,C8*
X120700000Y-95375000D02*
X118800000Y-95375000D01*
X118800000Y-95375000D02*
X118800000Y-91675000D01*
X118800000Y-91675000D02*
X120700000Y-91675000D01*
X120700000Y-91675000D02*
X120700000Y-95375000D01*
G04 #@! TD*
M02*
