<?xml version="1.0" standalone="no"?>
 <!DOCTYPE svg PUBLIC "-//W3C//DTD SVG 1.1//EN" 
 "http://www.w3.org/Graphics/SVG/1.1/DTD/svg11.dtd"> 
<svg xmlns="http://www.w3.org/2000/svg" version="1.1" 
    width="29.7002cm" height="21.0007cm" viewBox="0 0 116930 82680 ">
<title>SVG Picture created as printer-F.Cu.svg date 2019/03/21 19:10:23 </title>
  <desc>Picture generated by PCBNEW </desc>
<g style="fill:#000000; fill-opacity:1;stroke:#000000; stroke-opacity:1;
stroke-linecap:round; stroke-linejoin:round; "
 transform="translate(0 0) scale(1 1)">
</g>
<g style="fill:#000000; fill-opacity:0.0; 
stroke:#000000; stroke-width:-0.000393701; stroke-opacity:1; 
stroke-linecap:round; stroke-linejoin:round;">
</g>
<g style="fill:#000000; fill-opacity:0.0; 
stroke:#000000; stroke-width:0; stroke-opacity:1; 
stroke-linecap:round; stroke-linejoin:round;">
</g>
<g style="fill:#000000; fill-opacity:1.0; 
stroke:#000000; stroke-width:0; stroke-opacity:1; 
stroke-linecap:round; stroke-linejoin:round;">
<polyline style="fill-rule:evenodd;"
points="78416,32480
78416,32086
77038,32086
77038,32480
78416,32480
" /> 
<polyline style="fill-rule:evenodd;"
points="78416,31692
78416,31299
77038,31299
77038,31692
78416,31692
" /> 
<polyline style="fill-rule:evenodd;"
points="78416,30905
78416,30511
77038,30511
77038,30905
78416,30905
" /> 
<polyline style="fill-rule:evenodd;"
points="78416,30118
78416,29724
77038,29724
77038,30118
78416,30118
" /> 
<polyline style="fill-rule:evenodd;"
points="78416,29330
78416,28937
77038,28937
77038,29330
78416,29330
" /> 
<polyline style="fill-rule:evenodd;"
points="78416,28543
78416,28149
77038,28149
77038,28543
78416,28543
" /> 
<polyline style="fill-rule:evenodd;"
points="78416,27755
78416,27362
77038,27362
77038,27755
78416,27755
" /> 
<polyline style="fill-rule:evenodd;"
points="84715,32480
84715,32086
83337,32086
83337,32480
84715,32480
" /> 
<polyline style="fill-rule:evenodd;"
points="84715,31692
84715,31299
83337,31299
83337,31692
84715,31692
" /> 
<polyline style="fill-rule:evenodd;"
points="84715,30905
84715,30511
83337,30511
83337,30905
84715,30905
" /> 
<polyline style="fill-rule:evenodd;"
points="84715,30118
84715,29724
83337,29724
83337,30118
84715,30118
" /> 
<polyline style="fill-rule:evenodd;"
points="84715,29330
84715,28937
83337,28937
83337,29330
84715,29330
" /> 
<polyline style="fill-rule:evenodd;"
points="84715,28543
84715,28149
83337,28149
83337,28543
84715,28543
" /> 
<polyline style="fill-rule:evenodd;"
points="84715,27755
84715,27362
83337,27362
83337,27755
84715,27755
" /> 
<polyline style="fill-rule:evenodd;"
points="78416,26968
78416,26574
77038,26574
77038,26968
78416,26968
" /> 
<polyline style="fill-rule:evenodd;"
points="84715,26968
84715,26574
83337,26574
83337,26968
84715,26968
" /> 
<polyline style="fill-rule:evenodd;"
points="79993,33620
79983,33621
79974,33624
79965,33627
79956,33631
79948,33636
79940,33642
79933,33648
79926,33656
79920,33663
79916,33672
79911,33680
79908,33689
79906,33699
79904,33708
79904,33718
79904,33974
79904,33984
79906,33993
79908,34002
79911,34012
79916,34020
79920,34029
79926,34036
79933,34044
79940,34050
79948,34056
79956,34061
79965,34065
79974,34068
79983,34070
79993,34072
80002,34072
80357,34072
80366,34072
80376,34070
80385,34068
80394,34065
80403,34061
80411,34056
80419,34050
80426,34044
80433,34036
80439,34029
80443,34020
80448,34012
80451,34002
80453,33993
80455,33984
80455,33974
80455,33718
80455,33708
80453,33699
80451,33689
80448,33680
80443,33672
80439,33663
80433,33656
80426,33648
80419,33642
80411,33636
80403,33631
80394,33627
80385,33624
80376,33621
80366,33620
80357,33620
80002,33620
79993,33620
" /> 
<polyline style="fill-rule:evenodd;"
points="79993,34427
79983,34429
79974,34431
79965,34434
79956,34438
79948,34443
79940,34449
79933,34455
79926,34463
79920,34470
79916,34479
79911,34487
79908,34497
79906,34506
79904,34515
79904,34525
79904,34781
79904,34791
79906,34800
79908,34810
79911,34819
79916,34827
79920,34836
79926,34843
79933,34851
79940,34857
79948,34863
79956,34868
79965,34872
79974,34875
79983,34878
79993,34879
80002,34879
80357,34879
80366,34879
80376,34878
80385,34875
80394,34872
80403,34868
80411,34863
80419,34857
80426,34851
80433,34843
80439,34836
80443,34827
80448,34819
80451,34810
80453,34800
80455,34791
80455,34781
80455,34525
80455,34515
80453,34506
80451,34497
80448,34487
80443,34479
80439,34470
80433,34463
80426,34455
80419,34449
80411,34443
80403,34438
80394,34434
80385,34431
80376,34429
80366,34427
80357,34427
80002,34427
79993,34427
" /> 
<polyline style="fill-rule:evenodd;"
points="82493,34331
82483,34332
82474,34334
82465,34338
82456,34342
82448,34347
82440,34353
82433,34359
82426,34366
82420,34374
82416,34382
82411,34391
82408,34400
82406,34409
82404,34419
82404,34429
82404,34685
82404,34694
82406,34704
82408,34713
82411,34722
82416,34731
82420,34739
82426,34747
82433,34754
82440,34761
82448,34766
82456,34771
82465,34775
82474,34779
82483,34781
82493,34782
82502,34783
82857,34783
82866,34782
82876,34781
82885,34779
82894,34775
82903,34771
82911,34766
82919,34761
82926,34754
82933,34747
82939,34739
82943,34731
82948,34722
82951,34713
82953,34704
82955,34694
82955,34685
82955,34429
82955,34419
82953,34409
82951,34400
82948,34391
82943,34382
82939,34374
82933,34366
82926,34359
82919,34353
82911,34347
82903,34342
82894,34338
82885,34334
82876,34332
82866,34331
82857,34330
82502,34330
82493,34331
" /> 
<polyline style="fill-rule:evenodd;"
points="82493,33524
82483,33525
82474,33527
82465,33531
82456,33535
82448,33540
82440,33545
82433,33552
82426,33559
82420,33567
82416,33575
82411,33584
82408,33593
82406,33602
82404,33612
82404,33622
82404,33877
82404,33887
82406,33897
82408,33906
82411,33915
82416,33924
82420,33932
82426,33940
82433,33947
82440,33954
82448,33959
82456,33964
82465,33968
82474,33972
82483,33974
82493,33975
82502,33976
82857,33976
82866,33975
82876,33974
82885,33972
82894,33968
82903,33964
82911,33959
82919,33954
82926,33947
82933,33940
82939,33932
82943,33924
82948,33915
82951,33906
82953,33897
82955,33887
82955,33877
82955,33622
82955,33612
82953,33602
82951,33593
82948,33584
82943,33575
82939,33567
82933,33559
82926,33552
82919,33545
82911,33540
82903,33535
82894,33531
82885,33527
82876,33525
82866,33524
82857,33523
82502,33523
82493,33524
" /> 
<polyline style="fill-rule:evenodd;"
points="77493,33620
77483,33621
77474,33624
77465,33627
77456,33631
77448,33636
77440,33642
77433,33648
77426,33656
77420,33663
77416,33672
77411,33680
77408,33689
77406,33699
77404,33708
77404,33718
77404,33974
77404,33984
77406,33993
77408,34002
77411,34012
77416,34020
77420,34029
77426,34036
77433,34044
77440,34050
77448,34056
77456,34061
77465,34065
77474,34068
77483,34070
77493,34072
77502,34072
77857,34072
77866,34072
77876,34070
77885,34068
77894,34065
77903,34061
77911,34056
77919,34050
77926,34044
77933,34036
77939,34029
77943,34020
77948,34012
77951,34002
77953,33993
77955,33984
77955,33974
77955,33718
77955,33708
77953,33699
77951,33689
77948,33680
77943,33672
77939,33663
77933,33656
77926,33648
77919,33642
77911,33636
77903,33631
77894,33627
77885,33624
77876,33621
77866,33620
77857,33620
77502,33620
77493,33620
" /> 
<polyline style="fill-rule:evenodd;"
points="77493,34427
77483,34429
77474,34431
77465,34434
77456,34438
77448,34443
77440,34449
77433,34455
77426,34463
77420,34470
77416,34479
77411,34487
77408,34497
77406,34506
77404,34515
77404,34525
77404,34781
77404,34791
77406,34800
77408,34810
77411,34819
77416,34827
77420,34836
77426,34843
77433,34851
77440,34857
77448,34863
77456,34868
77465,34872
77474,34875
77483,34878
77493,34879
77502,34879
77857,34879
77866,34879
77876,34878
77885,34875
77894,34872
77903,34868
77911,34863
77919,34857
77926,34851
77933,34843
77939,34836
77943,34827
77948,34819
77951,34810
77953,34800
77955,34791
77955,34781
77955,34525
77955,34515
77953,34506
77951,34497
77948,34487
77943,34479
77939,34470
77933,34463
77926,34455
77919,34449
77911,34443
77903,34438
77894,34434
77885,34431
77876,34429
77866,34427
77857,34427
77502,34427
77493,34427
" /> 
<circle cx="75591.4" cy="31496.1" r="590.551" /> 
</g>
<g style="fill:#000000; fill-opacity:1.0; 
stroke:#000000; stroke-width:39.3701; stroke-opacity:1; 
stroke-linecap:round; stroke-linejoin:round;">
</g>
<g style="fill:#000000; fill-opacity:1.0; 
stroke:#000000; stroke-width:0; stroke-opacity:1; 
stroke-linecap:round; stroke-linejoin:round;">
<circle cx="77680" cy="22250" r="157.48" /> 
</g>
<g style="fill:#000000; fill-opacity:1.0; 
stroke:#000000; stroke-width:39.3701; stroke-opacity:1; 
stroke-linecap:round; stroke-linejoin:round;">
</g>
<g style="fill:#000000; fill-opacity:1.0; 
stroke:#000000; stroke-width:0; stroke-opacity:1; 
stroke-linecap:round; stroke-linejoin:round;">
<circle cx="76680" cy="22250" r="393.701" /> 
</g>
<g style="fill:#000000; fill-opacity:1.0; 
stroke:#000000; stroke-width:39.3701; stroke-opacity:1; 
stroke-linecap:round; stroke-linejoin:round;">
</g>
<g style="fill:#000000; fill-opacity:1.0; 
stroke:#000000; stroke-width:0; stroke-opacity:1; 
stroke-linecap:round; stroke-linejoin:round;">
<circle cx="83680" cy="22250" r="393.701" /> 
</g>
<g style="fill:#000000; fill-opacity:1.0; 
stroke:#000000; stroke-width:39.3701; stroke-opacity:1; 
stroke-linecap:round; stroke-linejoin:round;">
</g>
<g style="fill:#000000; fill-opacity:1.0; 
stroke:#000000; stroke-width:0; stroke-opacity:1; 
stroke-linecap:round; stroke-linejoin:round;">
<circle cx="75591.4" cy="33464.6" r="590.551" /> 
</g>
<g style="fill:#000000; fill-opacity:1.0; 
stroke:#000000; stroke-width:39.3701; stroke-opacity:1; 
stroke-linecap:round; stroke-linejoin:round;">
</g>
<g style="fill:#000000; fill-opacity:1.0; 
stroke:#000000; stroke-width:0; stroke-opacity:1; 
stroke-linecap:round; stroke-linejoin:round;">
<circle cx="81680" cy="22250" r="393.701" /> 
</g>
<g style="fill:#000000; fill-opacity:1.0; 
stroke:#000000; stroke-width:39.3701; stroke-opacity:1; 
stroke-linecap:round; stroke-linejoin:round;">
</g>
<g style="fill:#000000; fill-opacity:1.0; 
stroke:#000000; stroke-width:0; stroke-opacity:1; 
stroke-linecap:round; stroke-linejoin:round;">
<circle cx="75591.4" cy="29527.6" r="590.551" /> 
</g>
<g style="fill:#000000; fill-opacity:1.0; 
stroke:#000000; stroke-width:39.3701; stroke-opacity:1; 
stroke-linecap:round; stroke-linejoin:round;">
</g>
<g style="fill:#000000; fill-opacity:1.0; 
stroke:#000000; stroke-width:0; stroke-opacity:1; 
stroke-linecap:round; stroke-linejoin:round;">
<circle cx="78680" cy="22250" r="393.701" /> 
</g>
<g style="fill:#000000; fill-opacity:1.0; 
stroke:#000000; stroke-width:39.3701; stroke-opacity:1; 
stroke-linecap:round; stroke-linejoin:round;">
</g>
<g style="fill:#000000; fill-opacity:1.0; 
stroke:#000000; stroke-width:0; stroke-opacity:1; 
stroke-linecap:round; stroke-linejoin:round;">
<circle cx="79680" cy="22250" r="393.701" /> 
</g>
<g style="fill:#000000; fill-opacity:1.0; 
stroke:#000000; stroke-width:39.3701; stroke-opacity:1; 
stroke-linecap:round; stroke-linejoin:round;">
</g>
<g style="fill:#000000; fill-opacity:1.0; 
stroke:#000000; stroke-width:0; stroke-opacity:1; 
stroke-linecap:round; stroke-linejoin:round;">
<circle cx="80680" cy="22250" r="393.701" /> 
</g>
<g style="fill:#000000; fill-opacity:1.0; 
stroke:#000000; stroke-width:39.3701; stroke-opacity:1; 
stroke-linecap:round; stroke-linejoin:round;">
</g>
<g style="fill:#000000; fill-opacity:1.0; 
stroke:#000000; stroke-width:0; stroke-opacity:1; 
stroke-linecap:round; stroke-linejoin:round;">
<circle cx="82680" cy="22250" r="393.701" /> 
</g>
<g style="fill:#000000; fill-opacity:1.0; 
stroke:#000000; stroke-width:39.3701; stroke-opacity:1; 
stroke-linecap:round; stroke-linejoin:round;">
</g>
<g style="fill:#000000; fill-opacity:1.0; 
stroke:#000000; stroke-width:98.4252; stroke-opacity:1; 
stroke-linecap:round; stroke-linejoin:round;">
</g>
<g style="fill:#000000; fill-opacity:0.0; 
stroke:#000000; stroke-width:98.4252; stroke-opacity:1; 
stroke-linecap:round; stroke-linejoin:round;">
<path d="M77727 32283
L77235 32283
" />
<path d="M77235 32283
L76772 32283
" />
<path d="M76772 32283
L75985 31496
" />
<path d="M75985 31496
L75591 31496
" />
<path d="M75591 31496
L75591 31496
" />
</g>
<g style="fill:#000000; fill-opacity:0.0; 
stroke:#000000; stroke-width:196.85; stroke-opacity:1; 
stroke-linecap:round; stroke-linejoin:round;">
<path d="M83680 22250
L85180 22250
" />
<path d="M84646 32283
L84026 32283
" />
<path d="M81680 22250
L81680 22250
" />
<path d="M81680 22250
L81680 22250
" />
<path d="M81680 27250
L81680 22250
" />
<path d="M84026 32283
L84026 35153
" />
<path d="M84026 35153
L83680 35500
" />
<path d="M82930 35500
L82680 35250
" />
<path d="M83680 35500
L82930 35500
" />
<path d="M82680 34557
L82680 35250
" />
<path d="M79930 35500
L80180 35250
" />
<path d="M75930 35500
L79930 35500
" />
<path d="M75591 33464
L75591 35161
" />
<path d="M75591 35161
L75930 35500
" />
<path d="M80180 34653
L80180 35250
" />
<path d="M82430 35500
L82680 35250
" />
<path d="M81930 35500
L82430 35500
" />
<path d="M80180 35250
L80430 35500
" />
<path d="M80430 35500
L80930 35500
" />
<path d="M81930 35500
L81430 35000
" />
<path d="M81430 35000
L80930 35500
" />
<path d="M81487 27442
L81680 27250
" />
<path d="M81430 27500
L81680 27250
" />
<path d="M81430 35000
L81430 27500
" />
</g>
<g style="fill:#000000; fill-opacity:0.0; 
stroke:#000000; stroke-width:98.4252; stroke-opacity:1; 
stroke-linecap:round; stroke-linejoin:round;">
<path d="M82680 33250
L82680 33750
" />
<path d="M84026 28346
L83071 28346
" />
<path d="M82294 29124
L82294 32864
" />
<path d="M83071 28346
L82294 29124
" />
<path d="M82294 32864
L82680 33250
" />
<path d="M78333 33846
L77680 33846
" />
<path d="M77727 31496
L78741 31496
" />
<path d="M78741 31496
L79154 31909
" />
<path d="M79154 33025
L78333 33846
" />
<path d="M79154 31909
L79154 33025
" />
<path d="M77727 30708
L79138 30708
" />
<path d="M79138 30708
L80180 31750
" />
<path d="M80180 31750
L80180 33846
" />
<path d="M77727 26771
L77235 26771
" />
<path d="M77235 26771
L76378 26771
" />
<path d="M76378 26771
L75591 27559
" />
<path d="M75591 27559
L75591 28346
" />
<path d="M75591 28346
L75591 29527
" />
<path d="M75591 29527
L75591 29527
" />
<path d="M78680 22250
L78680 22250
" />
<path d="M77727 26771
L77727 25702
" />
<path d="M78680 24750
L78680 22250
" />
<path d="M77727 25702
L78680 24750
" />
<path d="M77727 27559
L78219 27559
" />
<path d="M79680 22250
L79680 22250
" />
<path d="M77727 27559
L79120 27559
" />
<path d="M79680 27000
L79680 22250
" />
<path d="M79120 27559
L79680 27000
" />
<path d="M80680 22250
L80680 22250
" />
<path d="M77727 29921
L79258 29921
" />
<path d="M80680 28500
L80680 22250
" />
<path d="M79258 29921
L80680 28500
" />
<path d="M84026 26771
L84026 24346
" />
<path d="M82680 22250
L82680 22250
" />
<path d="M84026 24346
L82680 23000
" />
<path d="M82680 23000
L82680 22250
" />
</g>
<g style="fill:#000000; fill-opacity:1.0; 
stroke:#000000; stroke-width:100; stroke-opacity:1; 
stroke-linecap:round; stroke-linejoin:round;">
<polyline style="fill-rule:evenodd;"
points="74730,35700
75637,35700
75369,35432
75340,35412
75315,35375
75263,35297
75259,35277
75242,35195
75242,35195
75236,35161
75242,35127
75242,34230
75115,34177
74878,33940
74750,33631
74750,33297
74878,32988
75115,32751
75424,32624
75758,32624
76067,32751
76304,32988
76431,33297
76431,33631
76304,33940
76067,34177
75939,34230
75939,35017
76074,35151
79785,35151
79831,35105
79831,35083
79752,35031
79676,34916
79649,34781
79649,34766
78205,34766
78205,34929
78167,35021
78097,35091
78005,35129
77792,35129
77730,35067
77730,34703
77630,34703
77630,35067
77567,35129
77354,35129
77262,35091
77192,35021
77154,34929
77154,34766
77216,34703
77630,34703
77730,34703
78143,34703
78205,34766
79649,34766
79649,34525
79676,34390
79752,34275
79791,34250
79752,34224
79676,34109
79649,33974
79649,33718
79676,33583
79752,33468
79867,33392
79880,33389
79880,31873
79014,31007
78648,31007
78596,31085
78571,31102
78596,31118
78648,31196
78711,31196
78741,31190
78770,31196
78770,31196
78857,31214
78956,31280
78973,31305
79345,31677
79370,31693
79436,31792
79453,31879
79453,31879
79459,31909
79453,31938
79453,32996
79459,33025
79453,33055
79436,33142
79370,33241
79345,33258
78565,34037
78549,34062
78450,34128
78363,34145
78363,34145
78333,34151
78304,34145
78159,34145
78107,34224
78106,34224
78167,34285
78205,34377
78205,34541
78143,34603
77730,34603
77730,34595
77630,34595
77630,34603
77216,34603
77154,34541
77154,34377
77192,34285
77253,34224
77252,34224
77176,34109
77149,33974
77149,33718
77176,33583
77252,33468
77367,33392
77502,33365
77857,33365
77992,33392
78107,33468
78159,33547
78209,33547
78855,32901
78855,32395
78666,32395
78666,32530
78628,32621
78557,32692
78465,32730
77839,32730
77777,32667
77777,32333
77677,32333
77677,32667
77614,32730
76988,32730
76896,32692
76826,32621
76788,32530
76788,32395
76850,32333
77677,32333
77777,32333
78603,32333
78666,32395
78855,32395
78855,32033
78635,31814
78596,31873
78572,31889
78628,31945
78666,32036
78666,32170
78603,32233
77777,32233
77777,32225
77677,32225
77677,32233
76850,32233
76788,32170
76788,32036
76826,31945
76882,31889
76858,31873
76802,31790
76783,31692
76783,31299
76802,31201
76858,31118
76882,31102
76858,31085
76802,31003
76783,30905
76783,30511
76802,30414
76858,30331
76882,30314
76858,30298
76802,30215
76783,30118
76783,29724
76802,29626
76858,29544
76882,29527
76858,29510
76802,29428
76783,29330
76783,28937
76802,28839
76858,28756
76882,28740
76858,28723
76802,28640
76783,28543
76783,28149
76802,28052
76858,27969
76882,27952
76858,27936
76802,27853
76783,27755
76783,27362
76802,27264
76858,27181
76882,27165
76858,27148
76805,27070
76502,27070
75890,27682
75890,28316
75890,28316
75890,28741
76067,28814
76304,29051
76431,29360
76431,29694
76304,30003
76067,30240
75758,30368
75424,30368
75115,30240
74878,30003
74750,29694
74750,29360
74878,29051
75115,28814
75292,28741
75292,27588
75286,27559
75292,27529
75292,27529
75309,27442
75375,27343
75400,27326
76146,26580
76163,26555
76262,26489
76349,26472
76349,26472
76378,26466
76408,26472
76805,26472
76835,26427
76772,26427
76753,26424
76737,26413
76726,26397
76722,26377
76722,22893
76551,22893
76315,22795
76134,22614
76036,22378
76036,22121
76134,21885
76315,21704
76551,21606
76808,21606
77034,21700
78325,21700
78551,21606
78808,21606
79034,21700
79325,21700
79551,21606
79808,21606
80034,21700
80325,21700
80551,21606
80808,21606
81034,21700
81325,21700
81551,21606
81808,21606
82034,21700
82325,21700
82551,21606
82808,21606
83034,21700
85040,21700
85059,21703
85075,21714
85086,21730
85090,21750
85090,26377
85086,26397
85075,26413
85059,26424
85040,26427
84917,26427
84950,26477
84970,26574
84970,26968
84950,27066
84895,27148
84870,27165
84895,27181
84950,27264
84970,27362
84970,27755
84950,27853
84895,27936
84870,27952
84895,27969
84950,28052
84970,28149
84970,28543
84950,28640
84895,28723
84870,28740
84895,28756
84950,28839
84970,28937
84970,29330
84950,29428
84895,29510
84870,29527
84895,29544
84950,29626
84970,29724
84970,30118
84950,30215
84895,30298
84870,30314
84895,30331
84950,30414
84970,30511
84970,30905
84950,31003
84895,31085
84870,31102
84895,31118
84950,31201
84970,31299
84970,31692
84950,31790
84895,31873
84870,31889
84895,31906
84950,31989
84970,32086
84970,32140
84974,32147
85001,32283
84974,32419
84970,32426
84970,32480
84950,32577
84895,32660
84812,32715
84715,32735
84374,32735
84374,35119
84381,35153
84354,35289
84297,35375
84297,35375
84277,35404
84248,35424
83972,35700
85630,35700
85630,21550
74730,21550
74730,35700
" /> 
</g> 
</svg>
