<?xml version="1.0" standalone="no"?>
 <!DOCTYPE svg PUBLIC "-//W3C//DTD SVG 1.1//EN" 
 "http://www.w3.org/Graphics/SVG/1.1/DTD/svg11.dtd"> 
<svg xmlns="http://www.w3.org/2000/svg" version="1.1" 
    width="29.7002cm" height="21.0007cm" viewBox="0 0 116930 82680 ">
<title>SVG Picture created as printer-F.Mask.svg date 2019/03/25 13:53:42 </title>
  <desc>Picture generated by PCBNEW </desc>
<g style="fill:#000000; fill-opacity:1;stroke:#000000; stroke-opacity:1;
stroke-linecap:round; stroke-linejoin:round; "
 transform="translate(0 0) scale(1 1)">
</g>
<g style="fill:#000000; fill-opacity:0.0; 
stroke:#000000; stroke-width:-0.000393701; stroke-opacity:1; 
stroke-linecap:round; stroke-linejoin:round;">
</g>
<g style="fill:#000000; fill-opacity:1.0; 
stroke:#000000; stroke-width:0; stroke-opacity:1; 
stroke-linecap:round; stroke-linejoin:round;">
<polyline style="fill-rule:evenodd;"
points="39481,34408
39496,34413
39510,34420
39522,34430
39532,34442
39539,34456
39543,34470
39545,34488
39545,34818
39543,34836
39539,34850
39532,34864
39522,34876
39510,34886
39496,34893
39481,34898
39463,34900
39036,34900
39018,34898
39003,34893
38989,34886
38977,34876
38967,34864
38960,34850
38956,34836
38954,34818
38954,34488
38956,34470
38960,34456
38967,34442
38977,34430
38989,34420
39003,34413
39018,34408
39036,34407
39463,34407
39481,34408
" /> 
<polyline style="fill-rule:evenodd;"
points="36981,34408
36996,34413
37010,34420
37022,34430
37032,34442
37039,34456
37043,34470
37045,34488
37045,34818
37043,34836
37039,34850
37032,34864
37022,34876
37010,34886
36996,34893
36981,34898
36963,34900
36536,34900
36518,34898
36503,34893
36489,34886
36477,34876
36467,34864
36460,34850
36456,34836
36454,34818
36454,34488
36456,34470
36460,34456
36467,34442
36477,34430
36489,34420
36503,34413
36518,34408
36536,34407
36963,34407
36981,34408
" /> 
<polyline style="fill-rule:evenodd;"
points="34481,34312
34496,34316
34510,34324
34522,34334
34532,34346
34539,34359
34543,34374
34545,34392
34545,34721
34543,34739
34539,34754
34532,34768
34522,34780
34510,34789
34496,34797
34481,34801
34463,34803
34036,34803
34018,34801
34003,34797
33989,34789
33977,34780
33967,34768
33960,34754
33956,34739
33954,34721
33954,34392
33956,34374
33960,34359
33967,34346
33977,34334
33989,34324
34003,34316
34018,34312
34036,34310
34463,34310
34481,34312
" /> 
<polyline style="fill-rule:evenodd;"
points="36981,33601
36996,33606
37010,33613
37022,33623
37032,33635
37039,33649
37043,33663
37045,33681
37045,34011
37043,34029
37039,34043
37032,34057
37022,34069
37010,34079
36996,34086
36981,34091
36963,34092
36536,34092
36518,34091
36503,34086
36489,34079
36477,34069
36467,34057
36460,34043
36456,34029
36454,34011
36454,33681
36456,33663
36460,33649
36467,33635
36477,33623
36489,33613
36503,33606
36518,33601
36536,33600
36963,33600
36981,33601
" /> 
<polyline style="fill-rule:evenodd;"
points="39481,33601
39496,33606
39510,33613
39522,33623
39532,33635
39539,33649
39543,33663
39545,33681
39545,34011
39543,34029
39539,34043
39532,34057
39522,34069
39510,34079
39496,34086
39481,34091
39463,34092
39036,34092
39018,34091
39003,34086
38989,34079
38977,34069
38967,34057
38960,34043
38956,34029
38954,34011
38954,33681
38956,33663
38960,33649
38967,33635
38977,33623
38989,33613
39003,33606
39018,33601
39036,33600
39463,33600
39481,33601
" /> 
<polyline style="fill-rule:evenodd;"
points="34481,33505
34496,33509
34510,33517
34522,33526
34532,33538
34539,33552
34543,33567
34545,33585
34545,33914
34543,33932
34539,33947
34532,33961
34522,33973
34510,33982
34496,33990
34481,33994
34463,33996
34036,33996
34018,33994
34003,33990
33989,33982
33977,33973
33967,33961
33960,33947
33956,33932
33954,33914
33954,33585
33956,33567
33960,33552
33967,33538
33977,33526
33989,33517
34003,33509
34018,33505
34036,33503
34463,33503
34481,33505
" /> 
<polyline style="fill-rule:evenodd;"
points="35068,33366
34675,33366
34675,31988
35068,31988
35068,33366
" /> 
<polyline style="fill-rule:evenodd;"
points="38218,33366
37824,33366
37824,31988
38218,31988
38218,33366
" /> 
<polyline style="fill-rule:evenodd;"
points="37431,33366
37037,33366
37037,31988
37431,31988
37431,33366
" /> 
<polyline style="fill-rule:evenodd;"
points="36643,33366
36250,33366
36250,31988
36643,31988
36643,33366
" /> 
<polyline style="fill-rule:evenodd;"
points="34281,33366
33887,33366
33887,31988
34281,31988
34281,33366
" /> 
<polyline style="fill-rule:evenodd;"
points="35856,33366
35462,33366
35462,31988
35856,31988
35856,33366
" /> 
<polyline style="fill-rule:evenodd;"
points="39911,32500
38493,32500
38493,32066
39911,32066
39911,32500
" /> 
<polyline style="fill-rule:evenodd;"
points="33612,32500
32194,32500
32194,32066
33612,32066
33612,32500
" /> 
<polyline style="fill-rule:evenodd;"
points="39911,31712
38493,31712
38493,31279
39911,31279
39911,31712
" /> 
<polyline style="fill-rule:evenodd;"
points="33612,31712
32194,31712
32194,31279
33612,31279
33612,31712
" /> 
<polyline style="fill-rule:evenodd;"
points="33612,30925
32194,30925
32194,30491
33612,30491
33612,30925
" /> 
<polyline style="fill-rule:evenodd;"
points="39911,30925
38493,30925
38493,30491
39911,30491
39911,30925
" /> 
<polyline style="fill-rule:evenodd;"
points="33612,30138
32194,30138
32194,29704
33612,29704
33612,30138
" /> 
<polyline style="fill-rule:evenodd;"
points="39911,30138
38493,30138
38493,29704
39911,29704
39911,30138
" /> 
<polyline style="fill-rule:evenodd;"
points="39911,29350
38493,29350
38493,28916
39911,28916
39911,29350
" /> 
<polyline style="fill-rule:evenodd;"
points="33612,29350
32194,29350
32194,28916
33612,28916
33612,29350
" /> 
<polyline style="fill-rule:evenodd;"
points="39911,28563
38493,28563
38493,28129
39911,28129
39911,28563
" /> 
<polyline style="fill-rule:evenodd;"
points="33612,28563
32194,28563
32194,28129
33612,28129
33612,28563
" /> 
<polyline style="fill-rule:evenodd;"
points="39911,27775
38493,27775
38493,27342
39911,27342
39911,27775
" /> 
<polyline style="fill-rule:evenodd;"
points="33612,27775
32194,27775
32194,27342
33612,27342
33612,27775
" /> 
<polyline style="fill-rule:evenodd;"
points="39911,26988
38493,26988
38493,26554
39911,26554
39911,26988
" /> 
<polyline style="fill-rule:evenodd;"
points="33612,26988
32194,26988
32194,26554
33612,26554
33612,26988
" /> 
</g> 
</svg>
