M48
;DRILL file {KiCad 5.0.2-bee76a0~70~ubuntu16.04.1} date Saturday, 02 March, 2019 11:38:08 AM PST
;FORMAT={-:-/ absolute / inch / decimal}
FMAT,2
INCH,TZ
T1C0.0157
T2C0.0300
T3C0.0315
%
G90
G05
T1
X5.9252Y-1.9882
X6.0433Y-2.1752
X6.0827Y-2.2244
X6.1319Y-2.2638
X6.1417Y-1.9882
X6.2402Y-2.5
X6.3386Y-3.189
X6.4567Y-2.7264
X6.5551Y-2.3327
X6.6043Y-3.0807
X6.7618Y-3.2972
X6.8996Y-3.2776
X6.93Y-2.1546
X7.0276Y-3.4154
X7.6476Y-2.9232
X7.65Y-2.2244
X7.7559Y-2.2835
X8.1496Y-2.2835
X8.21Y-2.81
X8.45Y-1.9685
T2
X7.0866Y-2.9134
X7.874Y-2.9134
X8.56Y-2.635
X8.56Y-2.95
T3
X7.25Y-2.1
X7.25Y-2.4
X7.35Y-2.1
X7.35Y-2.4
X7.45Y-2.1
X7.45Y-2.4
X7.55Y-2.1
X7.55Y-2.4
X7.65Y-2.1
X7.65Y-2.4
X7.75Y-2.1
X7.75Y-2.4
X7.85Y-2.1
X7.85Y-2.4
X7.95Y-2.1
X7.95Y-2.4
X8.05Y-2.1
X8.05Y-2.4
X8.15Y-2.1
X8.15Y-2.4
X8.25Y-2.1
X8.25Y-2.4
X8.35Y-2.1
X8.35Y-2.4
X8.45Y-2.1
X8.45Y-2.4
X8.55Y-2.1
X8.55Y-2.4
T0
M30
