G04 #@! TF.GenerationSoftware,KiCad,Pcbnew,5.0.2-bee76a0~70~ubuntu16.04.1*
G04 #@! TF.CreationDate,2019-03-02T11:38:04+08:00*
G04 #@! TF.ProjectId,OTP,4f54502e-6b69-4636-9164-5f7063625858,v01*
G04 #@! TF.SameCoordinates,Original*
G04 #@! TF.FileFunction,Soldermask,Top*
G04 #@! TF.FilePolarity,Negative*
%FSLAX46Y46*%
G04 Gerber Fmt 4.6, Leading zero omitted, Abs format (unit mm)*
G04 Created by KiCad (PCBNEW 5.0.2-bee76a0~70~ubuntu16.04.1) date Saturday, 02 March, 2019 11:38:04 AM PST*
%MOMM*%
%LPD*%
G01*
G04 APERTURE LIST*
%ADD10C,1.000000*%
%ADD11C,0.500000*%
%ADD12C,0.100000*%
G04 APERTURE END LIST*
D10*
G04 #@! TO.C,J1*
X161500000Y-53340000D02*
G75*
G03X161500000Y-53340000I-500000J0D01*
G01*
D11*
G04 #@! TO.C,BT1*
X214424000Y-73930000D02*
X214424000Y-75930000D01*
X215424000Y-74930000D02*
X213424000Y-74930000D01*
G04 #@! TO.C,BT2*
X180000000Y-67000000D02*
X180000000Y-69000000D01*
X179000000Y-68000000D02*
X181000000Y-68000000D01*
D12*
G36*
X178616676Y-86365372D02*
X178689468Y-86395523D01*
X178754989Y-86439303D01*
X178810697Y-86495011D01*
X178854477Y-86560532D01*
X178884628Y-86633324D01*
X178900000Y-86710604D01*
X178900000Y-86789396D01*
X178884628Y-86866676D01*
X178854477Y-86939468D01*
X178810697Y-87004989D01*
X178754989Y-87060697D01*
X178689468Y-87104477D01*
X178616676Y-87134628D01*
X178539397Y-87150000D01*
X178460603Y-87150000D01*
X178383324Y-87134628D01*
X178310532Y-87104477D01*
X178245011Y-87060697D01*
X178189303Y-87004989D01*
X178145523Y-86939468D01*
X178115372Y-86866676D01*
X178100000Y-86789396D01*
X178100000Y-86710604D01*
X178115372Y-86633324D01*
X178145523Y-86560532D01*
X178189303Y-86495011D01*
X178245011Y-86439303D01*
X178310532Y-86395523D01*
X178383324Y-86365372D01*
X178460603Y-86350000D01*
X178539397Y-86350000D01*
X178616676Y-86365372D01*
X178616676Y-86365372D01*
G37*
G36*
X183722000Y-86950000D02*
X182922000Y-86950000D01*
X182922000Y-86050000D01*
X183722000Y-86050000D01*
X183722000Y-86950000D01*
X183722000Y-86950000D01*
G37*
G36*
X181822000Y-86950000D02*
X181022000Y-86950000D01*
X181022000Y-86050000D01*
X181822000Y-86050000D01*
X181822000Y-86950000D01*
X181822000Y-86950000D01*
G37*
G36*
X165305522Y-84479039D02*
X165339053Y-84489211D01*
X165369960Y-84505731D01*
X165397043Y-84527957D01*
X165419269Y-84555040D01*
X165435789Y-84585947D01*
X165445961Y-84619478D01*
X165450000Y-84660487D01*
X165450000Y-85439513D01*
X165445961Y-85480522D01*
X165435789Y-85514053D01*
X165419269Y-85544960D01*
X165397043Y-85572043D01*
X165369960Y-85594269D01*
X165339053Y-85610789D01*
X165305522Y-85620961D01*
X165264513Y-85625000D01*
X164235487Y-85625000D01*
X164194478Y-85620961D01*
X164160947Y-85610789D01*
X164130040Y-85594269D01*
X164102957Y-85572043D01*
X164080731Y-85544960D01*
X164064211Y-85514053D01*
X164054039Y-85480522D01*
X164050000Y-85439513D01*
X164050000Y-84660487D01*
X164054039Y-84619478D01*
X164064211Y-84585947D01*
X164080731Y-84555040D01*
X164102957Y-84527957D01*
X164130040Y-84505731D01*
X164160947Y-84489211D01*
X164194478Y-84479039D01*
X164235487Y-84475000D01*
X165264513Y-84475000D01*
X165305522Y-84479039D01*
X165305522Y-84479039D01*
G37*
G36*
X168360000Y-85170000D02*
X167460000Y-85170000D01*
X167460000Y-84370000D01*
X168360000Y-84370000D01*
X168360000Y-85170000D01*
X168360000Y-85170000D01*
G37*
G36*
X182772000Y-84950000D02*
X181972000Y-84950000D01*
X181972000Y-84050000D01*
X182772000Y-84050000D01*
X182772000Y-84950000D01*
X182772000Y-84950000D01*
G37*
G36*
X170360000Y-84220000D02*
X169460000Y-84220000D01*
X169460000Y-83420000D01*
X170360000Y-83420000D01*
X170360000Y-84220000D01*
X170360000Y-84220000D01*
G37*
G36*
X171866676Y-83365372D02*
X171939468Y-83395523D01*
X171939471Y-83395525D01*
X171991848Y-83430522D01*
X172004989Y-83439303D01*
X172060697Y-83495011D01*
X172060699Y-83495014D01*
X172060700Y-83495015D01*
X172093610Y-83544269D01*
X172104477Y-83560532D01*
X172134628Y-83633324D01*
X172150000Y-83710604D01*
X172150000Y-83789396D01*
X172134628Y-83866676D01*
X172104477Y-83939468D01*
X172060697Y-84004989D01*
X172004989Y-84060697D01*
X171939468Y-84104477D01*
X171866676Y-84134628D01*
X171789397Y-84150000D01*
X171710603Y-84150000D01*
X171633324Y-84134628D01*
X171560532Y-84104477D01*
X171495011Y-84060697D01*
X171439303Y-84004989D01*
X171395523Y-83939468D01*
X171365372Y-83866676D01*
X171350000Y-83789396D01*
X171350000Y-83710604D01*
X171365372Y-83633324D01*
X171395523Y-83560532D01*
X171406390Y-83544269D01*
X171439300Y-83495015D01*
X171439301Y-83495014D01*
X171439303Y-83495011D01*
X171495011Y-83439303D01*
X171508153Y-83430522D01*
X171560529Y-83395525D01*
X171560532Y-83395523D01*
X171633324Y-83365372D01*
X171710603Y-83350000D01*
X171789397Y-83350000D01*
X171866676Y-83365372D01*
X171866676Y-83365372D01*
G37*
G36*
X175366676Y-82865372D02*
X175439468Y-82895523D01*
X175504989Y-82939303D01*
X175560697Y-82995011D01*
X175604477Y-83060532D01*
X175634628Y-83133324D01*
X175650000Y-83210604D01*
X175650000Y-83289396D01*
X175634628Y-83366676D01*
X175604477Y-83439468D01*
X175604475Y-83439471D01*
X175562844Y-83501777D01*
X175560697Y-83504989D01*
X175504989Y-83560697D01*
X175504986Y-83560699D01*
X175504985Y-83560700D01*
X175439471Y-83604475D01*
X175439468Y-83604477D01*
X175369824Y-83633324D01*
X175366676Y-83634628D01*
X175289397Y-83650000D01*
X175210603Y-83650000D01*
X175133324Y-83634628D01*
X175130176Y-83633324D01*
X175060532Y-83604477D01*
X175060529Y-83604475D01*
X174995015Y-83560700D01*
X174995014Y-83560699D01*
X174995011Y-83560697D01*
X174939303Y-83504989D01*
X174937157Y-83501777D01*
X174895525Y-83439471D01*
X174895523Y-83439468D01*
X174865372Y-83366676D01*
X174850000Y-83289396D01*
X174850000Y-83210604D01*
X174865372Y-83133324D01*
X174895523Y-83060532D01*
X174939303Y-82995011D01*
X174995011Y-82939303D01*
X175060532Y-82895523D01*
X175133324Y-82865372D01*
X175210603Y-82850000D01*
X175289397Y-82850000D01*
X175366676Y-82865372D01*
X175366676Y-82865372D01*
G37*
G36*
X165305522Y-82429039D02*
X165339053Y-82439211D01*
X165369960Y-82455731D01*
X165397043Y-82477957D01*
X165419269Y-82505040D01*
X165435789Y-82535947D01*
X165445961Y-82569478D01*
X165450000Y-82610487D01*
X165450000Y-83389513D01*
X165445961Y-83430522D01*
X165435789Y-83464053D01*
X165419269Y-83494960D01*
X165397043Y-83522043D01*
X165369960Y-83544269D01*
X165339053Y-83560789D01*
X165305522Y-83570961D01*
X165264513Y-83575000D01*
X164235487Y-83575000D01*
X164194478Y-83570961D01*
X164160947Y-83560789D01*
X164130040Y-83544269D01*
X164102957Y-83522043D01*
X164080731Y-83494960D01*
X164064211Y-83464053D01*
X164054039Y-83430522D01*
X164050000Y-83389513D01*
X164050000Y-82610487D01*
X164054039Y-82569478D01*
X164064211Y-82535947D01*
X164080731Y-82505040D01*
X164102957Y-82477957D01*
X164130040Y-82455731D01*
X164160947Y-82439211D01*
X164194478Y-82429039D01*
X164235487Y-82425000D01*
X165264513Y-82425000D01*
X165305522Y-82429039D01*
X165305522Y-82429039D01*
G37*
G36*
X168360000Y-83270000D02*
X167460000Y-83270000D01*
X167460000Y-82470000D01*
X168360000Y-82470000D01*
X168360000Y-83270000D01*
X168360000Y-83270000D01*
G37*
G36*
X158430522Y-80804039D02*
X158464053Y-80814211D01*
X158494960Y-80830731D01*
X158522043Y-80852957D01*
X158544269Y-80880040D01*
X158560789Y-80910947D01*
X158570961Y-80944478D01*
X158575000Y-80985487D01*
X158575000Y-82014513D01*
X158570961Y-82055522D01*
X158560789Y-82089053D01*
X158544269Y-82119960D01*
X158522043Y-82147043D01*
X158494960Y-82169269D01*
X158464053Y-82185789D01*
X158430522Y-82195961D01*
X158389513Y-82200000D01*
X157610487Y-82200000D01*
X157569478Y-82195961D01*
X157535947Y-82185789D01*
X157505040Y-82169269D01*
X157477957Y-82147043D01*
X157455731Y-82119960D01*
X157439211Y-82089053D01*
X157429039Y-82055522D01*
X157425000Y-82014513D01*
X157425000Y-80985487D01*
X157429039Y-80944478D01*
X157439211Y-80910947D01*
X157455731Y-80880040D01*
X157477957Y-80852957D01*
X157505040Y-80830731D01*
X157535947Y-80814211D01*
X157569478Y-80804039D01*
X157610487Y-80800000D01*
X158389513Y-80800000D01*
X158430522Y-80804039D01*
X158430522Y-80804039D01*
G37*
G36*
X156380522Y-80804039D02*
X156414053Y-80814211D01*
X156444960Y-80830731D01*
X156472043Y-80852957D01*
X156494269Y-80880040D01*
X156510789Y-80910947D01*
X156520961Y-80944478D01*
X156525000Y-80985487D01*
X156525000Y-82014513D01*
X156520961Y-82055522D01*
X156510789Y-82089053D01*
X156494269Y-82119960D01*
X156472043Y-82147043D01*
X156444960Y-82169269D01*
X156414053Y-82185789D01*
X156380522Y-82195961D01*
X156339513Y-82200000D01*
X155560487Y-82200000D01*
X155519478Y-82195961D01*
X155485947Y-82185789D01*
X155455040Y-82169269D01*
X155427957Y-82147043D01*
X155405731Y-82119960D01*
X155389211Y-82089053D01*
X155379039Y-82055522D01*
X155375000Y-82014513D01*
X155375000Y-80985487D01*
X155379039Y-80944478D01*
X155389211Y-80910947D01*
X155405731Y-80880040D01*
X155427957Y-80852957D01*
X155455040Y-80830731D01*
X155485947Y-80814211D01*
X155519478Y-80804039D01*
X155560487Y-80800000D01*
X156339513Y-80800000D01*
X156380522Y-80804039D01*
X156380522Y-80804039D01*
G37*
G36*
X161116676Y-80615372D02*
X161189468Y-80645523D01*
X161254989Y-80689303D01*
X161310697Y-80745011D01*
X161310699Y-80745014D01*
X161310700Y-80745015D01*
X161350650Y-80804804D01*
X161354477Y-80810532D01*
X161384628Y-80883324D01*
X161400000Y-80960604D01*
X161400000Y-81039396D01*
X161384628Y-81116676D01*
X161354477Y-81189468D01*
X161310697Y-81254989D01*
X161254989Y-81310697D01*
X161189468Y-81354477D01*
X161116676Y-81384628D01*
X161039397Y-81400000D01*
X160960603Y-81400000D01*
X160883324Y-81384628D01*
X160810532Y-81354477D01*
X160745011Y-81310697D01*
X160689303Y-81254989D01*
X160645523Y-81189468D01*
X160615372Y-81116676D01*
X160600000Y-81039396D01*
X160600000Y-80960604D01*
X160615372Y-80883324D01*
X160645523Y-80810532D01*
X160649350Y-80804804D01*
X160689300Y-80745015D01*
X160689301Y-80745014D01*
X160689303Y-80745011D01*
X160745011Y-80689303D01*
X160810532Y-80645523D01*
X160883324Y-80615372D01*
X160960603Y-80600000D01*
X161039397Y-80600000D01*
X161116676Y-80615372D01*
X161116676Y-80615372D01*
G37*
G36*
X146650000Y-80840000D02*
X145450000Y-80840000D01*
X145450000Y-79940000D01*
X146650000Y-79940000D01*
X146650000Y-80840000D01*
X146650000Y-80840000D01*
G37*
G36*
X149100000Y-80750000D02*
X147900000Y-80750000D01*
X147900000Y-79850000D01*
X149100000Y-79850000D01*
X149100000Y-80750000D01*
X149100000Y-80750000D01*
G37*
G36*
X151600000Y-80750000D02*
X150400000Y-80750000D01*
X150400000Y-79850000D01*
X151600000Y-79850000D01*
X151600000Y-80750000D01*
X151600000Y-80750000D01*
G37*
G36*
X173275522Y-79203039D02*
X173309053Y-79213211D01*
X173339960Y-79229731D01*
X173367043Y-79251957D01*
X173389269Y-79279040D01*
X173405789Y-79309947D01*
X173415961Y-79343478D01*
X173420000Y-79384487D01*
X173420000Y-80163513D01*
X173415961Y-80204522D01*
X173405789Y-80238053D01*
X173389269Y-80268960D01*
X173367043Y-80296043D01*
X173339960Y-80318269D01*
X173309053Y-80334789D01*
X173275522Y-80344961D01*
X173234513Y-80349000D01*
X172205487Y-80349000D01*
X172164478Y-80344961D01*
X172130947Y-80334789D01*
X172100040Y-80318269D01*
X172072957Y-80296043D01*
X172050731Y-80268960D01*
X172034211Y-80238053D01*
X172024039Y-80204522D01*
X172020000Y-80163513D01*
X172020000Y-79384487D01*
X172024039Y-79343478D01*
X172034211Y-79309947D01*
X172050731Y-79279040D01*
X172072957Y-79251957D01*
X172100040Y-79229731D01*
X172130947Y-79213211D01*
X172164478Y-79203039D01*
X172205487Y-79199000D01*
X173234513Y-79199000D01*
X173275522Y-79203039D01*
X173275522Y-79203039D01*
G37*
G36*
X177085522Y-79203039D02*
X177119053Y-79213211D01*
X177149960Y-79229731D01*
X177177043Y-79251957D01*
X177199269Y-79279040D01*
X177215789Y-79309947D01*
X177225961Y-79343478D01*
X177230000Y-79384487D01*
X177230000Y-80163513D01*
X177225961Y-80204522D01*
X177215789Y-80238053D01*
X177199269Y-80268960D01*
X177177043Y-80296043D01*
X177149960Y-80318269D01*
X177119053Y-80334789D01*
X177085522Y-80344961D01*
X177044513Y-80349000D01*
X176015487Y-80349000D01*
X175974478Y-80344961D01*
X175940947Y-80334789D01*
X175910040Y-80318269D01*
X175882957Y-80296043D01*
X175860731Y-80268960D01*
X175844211Y-80238053D01*
X175834039Y-80204522D01*
X175830000Y-80163513D01*
X175830000Y-79384487D01*
X175834039Y-79343478D01*
X175844211Y-79309947D01*
X175860731Y-79279040D01*
X175882957Y-79251957D01*
X175910040Y-79229731D01*
X175940947Y-79213211D01*
X175974478Y-79203039D01*
X176015487Y-79199000D01*
X177044513Y-79199000D01*
X177085522Y-79203039D01*
X177085522Y-79203039D01*
G37*
G36*
X161520000Y-78950000D02*
X158520000Y-78950000D01*
X158520000Y-73450000D01*
X161520000Y-73450000D01*
X161520000Y-78950000D01*
X161520000Y-78950000D01*
G37*
G36*
X166220000Y-78950000D02*
X163220000Y-78950000D01*
X163220000Y-73450000D01*
X166220000Y-73450000D01*
X166220000Y-78950000D01*
X166220000Y-78950000D01*
G37*
G36*
X167866676Y-77865372D02*
X167939468Y-77895523D01*
X168004989Y-77939303D01*
X168060697Y-77995011D01*
X168104477Y-78060532D01*
X168126422Y-78113513D01*
X168134628Y-78133324D01*
X168145483Y-78187893D01*
X168150000Y-78210604D01*
X168150000Y-78289396D01*
X168134628Y-78366676D01*
X168104477Y-78439468D01*
X168060697Y-78504989D01*
X168004989Y-78560697D01*
X167939468Y-78604477D01*
X167866676Y-78634628D01*
X167789397Y-78650000D01*
X167710603Y-78650000D01*
X167633324Y-78634628D01*
X167560532Y-78604477D01*
X167495011Y-78560697D01*
X167439303Y-78504989D01*
X167395523Y-78439468D01*
X167365372Y-78366676D01*
X167350000Y-78289396D01*
X167350000Y-78210604D01*
X167354518Y-78187893D01*
X167365372Y-78133324D01*
X167373578Y-78113513D01*
X167395523Y-78060532D01*
X167439303Y-77995011D01*
X167495011Y-77939303D01*
X167560532Y-77895523D01*
X167633324Y-77865372D01*
X167710603Y-77850000D01*
X167789397Y-77850000D01*
X167866676Y-77865372D01*
X167866676Y-77865372D01*
G37*
G36*
X173275522Y-77153039D02*
X173309053Y-77163211D01*
X173339960Y-77179731D01*
X173367043Y-77201957D01*
X173389269Y-77229040D01*
X173405789Y-77259947D01*
X173415961Y-77293478D01*
X173420000Y-77334487D01*
X173420000Y-78113513D01*
X173415961Y-78154522D01*
X173405789Y-78188053D01*
X173389269Y-78218960D01*
X173367043Y-78246043D01*
X173339960Y-78268269D01*
X173309053Y-78284789D01*
X173275522Y-78294961D01*
X173234513Y-78299000D01*
X172205487Y-78299000D01*
X172164478Y-78294961D01*
X172130947Y-78284789D01*
X172100040Y-78268269D01*
X172072957Y-78246043D01*
X172050731Y-78218960D01*
X172034211Y-78188053D01*
X172024039Y-78154522D01*
X172020000Y-78113513D01*
X172020000Y-77334487D01*
X172024039Y-77293478D01*
X172034211Y-77259947D01*
X172050731Y-77229040D01*
X172072957Y-77201957D01*
X172100040Y-77179731D01*
X172130947Y-77163211D01*
X172164478Y-77153039D01*
X172205487Y-77149000D01*
X173234513Y-77149000D01*
X173275522Y-77153039D01*
X173275522Y-77153039D01*
G37*
G36*
X177085522Y-77153039D02*
X177119053Y-77163211D01*
X177149960Y-77179731D01*
X177177043Y-77201957D01*
X177199269Y-77229040D01*
X177215789Y-77259947D01*
X177225961Y-77293478D01*
X177230000Y-77334487D01*
X177230000Y-78113513D01*
X177225961Y-78154522D01*
X177215789Y-78188053D01*
X177199269Y-78218960D01*
X177177043Y-78246043D01*
X177149960Y-78268269D01*
X177119053Y-78284789D01*
X177085522Y-78294961D01*
X177044513Y-78299000D01*
X176015487Y-78299000D01*
X175974478Y-78294961D01*
X175940947Y-78284789D01*
X175910040Y-78268269D01*
X175882957Y-78246043D01*
X175860731Y-78218960D01*
X175844211Y-78188053D01*
X175834039Y-78154522D01*
X175830000Y-78113513D01*
X175830000Y-77334487D01*
X175834039Y-77293478D01*
X175844211Y-77259947D01*
X175860731Y-77229040D01*
X175882957Y-77201957D01*
X175910040Y-77179731D01*
X175940947Y-77163211D01*
X175974478Y-77153039D01*
X176015487Y-77149000D01*
X177044513Y-77149000D01*
X177085522Y-77153039D01*
X177085522Y-77153039D01*
G37*
G36*
X146650000Y-77540000D02*
X145450000Y-77540000D01*
X145450000Y-76640000D01*
X146650000Y-76640000D01*
X146650000Y-77540000D01*
X146650000Y-77540000D01*
G37*
G36*
X151600000Y-77450000D02*
X150400000Y-77450000D01*
X150400000Y-76550000D01*
X151600000Y-76550000D01*
X151600000Y-77450000D01*
X151600000Y-77450000D01*
G37*
G36*
X149100000Y-77450000D02*
X147900000Y-77450000D01*
X147900000Y-76550000D01*
X149100000Y-76550000D01*
X149100000Y-77450000D01*
X149100000Y-77450000D01*
G37*
G36*
X217597195Y-74187522D02*
X217646267Y-74197283D01*
X217784942Y-74254724D01*
X217909750Y-74338118D01*
X218015882Y-74444250D01*
X218015884Y-74444253D01*
X218099276Y-74569058D01*
X218156717Y-74707733D01*
X218166478Y-74756805D01*
X218186000Y-74854948D01*
X218186000Y-75005052D01*
X218156717Y-75152266D01*
X218099276Y-75290942D01*
X218015882Y-75415750D01*
X217909750Y-75521882D01*
X217909747Y-75521884D01*
X217784942Y-75605276D01*
X217646267Y-75662717D01*
X217597195Y-75672478D01*
X217499052Y-75692000D01*
X217348948Y-75692000D01*
X217250805Y-75672478D01*
X217201733Y-75662717D01*
X217063058Y-75605276D01*
X216938253Y-75521884D01*
X216938250Y-75521882D01*
X216832118Y-75415750D01*
X216748724Y-75290942D01*
X216691283Y-75152266D01*
X216662000Y-75005052D01*
X216662000Y-74854948D01*
X216681522Y-74756805D01*
X216691283Y-74707733D01*
X216748724Y-74569058D01*
X216832116Y-74444253D01*
X216832118Y-74444250D01*
X216938250Y-74338118D01*
X217063058Y-74254724D01*
X217201733Y-74197283D01*
X217250805Y-74187522D01*
X217348948Y-74168000D01*
X217499052Y-74168000D01*
X217597195Y-74187522D01*
X217597195Y-74187522D01*
G37*
G36*
X155555522Y-74479039D02*
X155589053Y-74489211D01*
X155619960Y-74505731D01*
X155647043Y-74527957D01*
X155669269Y-74555040D01*
X155685789Y-74585947D01*
X155695961Y-74619478D01*
X155700000Y-74660487D01*
X155700000Y-75439513D01*
X155695961Y-75480522D01*
X155685789Y-75514053D01*
X155669269Y-75544960D01*
X155647043Y-75572043D01*
X155619960Y-75594269D01*
X155589053Y-75610789D01*
X155555522Y-75620961D01*
X155514513Y-75625000D01*
X154485487Y-75625000D01*
X154444478Y-75620961D01*
X154410947Y-75610789D01*
X154380040Y-75594269D01*
X154352957Y-75572043D01*
X154330731Y-75544960D01*
X154314211Y-75514053D01*
X154304039Y-75480522D01*
X154300000Y-75439513D01*
X154300000Y-74660487D01*
X154304039Y-74619478D01*
X154314211Y-74585947D01*
X154330731Y-74555040D01*
X154352957Y-74527957D01*
X154380040Y-74505731D01*
X154410947Y-74489211D01*
X154444478Y-74479039D01*
X154485487Y-74475000D01*
X155514513Y-74475000D01*
X155555522Y-74479039D01*
X155555522Y-74479039D01*
G37*
G36*
X180173195Y-73257522D02*
X180222267Y-73267283D01*
X180360942Y-73324724D01*
X180485750Y-73408118D01*
X180591882Y-73514250D01*
X180591884Y-73514253D01*
X180675276Y-73639058D01*
X180732717Y-73777733D01*
X180762000Y-73924950D01*
X180762000Y-74075050D01*
X180737687Y-74197283D01*
X180732717Y-74222266D01*
X180675276Y-74360942D01*
X180591882Y-74485750D01*
X180485750Y-74591882D01*
X180485747Y-74591884D01*
X180360942Y-74675276D01*
X180222267Y-74732717D01*
X180173195Y-74742478D01*
X180075052Y-74762000D01*
X179924948Y-74762000D01*
X179826805Y-74742478D01*
X179777733Y-74732717D01*
X179639058Y-74675276D01*
X179514253Y-74591884D01*
X179514250Y-74591882D01*
X179408118Y-74485750D01*
X179324724Y-74360942D01*
X179267283Y-74222266D01*
X179262314Y-74197283D01*
X179238000Y-74075050D01*
X179238000Y-73924950D01*
X179267283Y-73777733D01*
X179324724Y-73639058D01*
X179408116Y-73514253D01*
X179408118Y-73514250D01*
X179514250Y-73408118D01*
X179639058Y-73324724D01*
X179777733Y-73267283D01*
X179826805Y-73257522D01*
X179924948Y-73238000D01*
X180075052Y-73238000D01*
X180173195Y-73257522D01*
X180173195Y-73257522D01*
G37*
G36*
X200173195Y-73257522D02*
X200222267Y-73267283D01*
X200360942Y-73324724D01*
X200485750Y-73408118D01*
X200591882Y-73514250D01*
X200591884Y-73514253D01*
X200675276Y-73639058D01*
X200732717Y-73777733D01*
X200762000Y-73924950D01*
X200762000Y-74075050D01*
X200737687Y-74197283D01*
X200732717Y-74222266D01*
X200675276Y-74360942D01*
X200591882Y-74485750D01*
X200485750Y-74591882D01*
X200485747Y-74591884D01*
X200360942Y-74675276D01*
X200222267Y-74732717D01*
X200173195Y-74742478D01*
X200075052Y-74762000D01*
X199924948Y-74762000D01*
X199826805Y-74742478D01*
X199777733Y-74732717D01*
X199639058Y-74675276D01*
X199514253Y-74591884D01*
X199514250Y-74591882D01*
X199408118Y-74485750D01*
X199324724Y-74360942D01*
X199267283Y-74222266D01*
X199262314Y-74197283D01*
X199238000Y-74075050D01*
X199238000Y-73924950D01*
X199267283Y-73777733D01*
X199324724Y-73639058D01*
X199408116Y-73514253D01*
X199408118Y-73514250D01*
X199514250Y-73408118D01*
X199639058Y-73324724D01*
X199777733Y-73267283D01*
X199826805Y-73257522D01*
X199924948Y-73238000D01*
X200075052Y-73238000D01*
X200173195Y-73257522D01*
X200173195Y-73257522D01*
G37*
G36*
X194366676Y-73865372D02*
X194439468Y-73895523D01*
X194439471Y-73895525D01*
X194483509Y-73924950D01*
X194504989Y-73939303D01*
X194560697Y-73995011D01*
X194604477Y-74060532D01*
X194634628Y-74133324D01*
X194650000Y-74210604D01*
X194650000Y-74289396D01*
X194634628Y-74366676D01*
X194604477Y-74439468D01*
X194604475Y-74439471D01*
X194578037Y-74479039D01*
X194560697Y-74504989D01*
X194504989Y-74560697D01*
X194504986Y-74560699D01*
X194504985Y-74560700D01*
X194458318Y-74591882D01*
X194439468Y-74604477D01*
X194379469Y-74629329D01*
X194366676Y-74634628D01*
X194289397Y-74650000D01*
X194210603Y-74650000D01*
X194133324Y-74634628D01*
X194120531Y-74629329D01*
X194060532Y-74604477D01*
X194041682Y-74591882D01*
X193995015Y-74560700D01*
X193995014Y-74560699D01*
X193995011Y-74560697D01*
X193939303Y-74504989D01*
X193921964Y-74479039D01*
X193895525Y-74439471D01*
X193895523Y-74439468D01*
X193865372Y-74366676D01*
X193850000Y-74289396D01*
X193850000Y-74210604D01*
X193865372Y-74133324D01*
X193895523Y-74060532D01*
X193939303Y-73995011D01*
X193995011Y-73939303D01*
X194016492Y-73924950D01*
X194060529Y-73895525D01*
X194060532Y-73895523D01*
X194133324Y-73865372D01*
X194210603Y-73850000D01*
X194289397Y-73850000D01*
X194366676Y-73865372D01*
X194366676Y-73865372D01*
G37*
G36*
X155555522Y-72429039D02*
X155589053Y-72439211D01*
X155619960Y-72455731D01*
X155647043Y-72477957D01*
X155669269Y-72505040D01*
X155685789Y-72535947D01*
X155695961Y-72569478D01*
X155700000Y-72610487D01*
X155700000Y-73389513D01*
X155695961Y-73430522D01*
X155685789Y-73464053D01*
X155669269Y-73494960D01*
X155647043Y-73522043D01*
X155619960Y-73544269D01*
X155589053Y-73560789D01*
X155555522Y-73570961D01*
X155514513Y-73575000D01*
X154485487Y-73575000D01*
X154444478Y-73570961D01*
X154410947Y-73560789D01*
X154380040Y-73544269D01*
X154352957Y-73522043D01*
X154330731Y-73494960D01*
X154314211Y-73464053D01*
X154304039Y-73430522D01*
X154300000Y-73389513D01*
X154300000Y-72610487D01*
X154304039Y-72569478D01*
X154314211Y-72535947D01*
X154330731Y-72505040D01*
X154352957Y-72477957D01*
X154380040Y-72455731D01*
X154410947Y-72439211D01*
X154444478Y-72429039D01*
X154485487Y-72425000D01*
X155514513Y-72425000D01*
X155555522Y-72429039D01*
X155555522Y-72429039D01*
G37*
G36*
X208650676Y-70989372D02*
X208723468Y-71019523D01*
X208788989Y-71063303D01*
X208844697Y-71119011D01*
X208888477Y-71184532D01*
X208918628Y-71257324D01*
X208934000Y-71334604D01*
X208934000Y-71413396D01*
X208918628Y-71490676D01*
X208888477Y-71563468D01*
X208844697Y-71628989D01*
X208788989Y-71684697D01*
X208723468Y-71728477D01*
X208650676Y-71758628D01*
X208573397Y-71774000D01*
X208494603Y-71774000D01*
X208417324Y-71758628D01*
X208344532Y-71728477D01*
X208279011Y-71684697D01*
X208223303Y-71628989D01*
X208179523Y-71563468D01*
X208149372Y-71490676D01*
X208134000Y-71413396D01*
X208134000Y-71334604D01*
X208149372Y-71257324D01*
X208179523Y-71184532D01*
X208223303Y-71119011D01*
X208279011Y-71063303D01*
X208344532Y-71019523D01*
X208417324Y-70989372D01*
X208494603Y-70974000D01*
X208573397Y-70974000D01*
X208650676Y-70989372D01*
X208650676Y-70989372D01*
G37*
G36*
X164116676Y-68865372D02*
X164189468Y-68895523D01*
X164254989Y-68939303D01*
X164310697Y-68995011D01*
X164354477Y-69060532D01*
X164384628Y-69133324D01*
X164400000Y-69210604D01*
X164400000Y-69289396D01*
X164384628Y-69366676D01*
X164354477Y-69439468D01*
X164310697Y-69504989D01*
X164254989Y-69560697D01*
X164189468Y-69604477D01*
X164116676Y-69634628D01*
X164039397Y-69650000D01*
X163960603Y-69650000D01*
X163883324Y-69634628D01*
X163810532Y-69604477D01*
X163745011Y-69560697D01*
X163689303Y-69504989D01*
X163645523Y-69439468D01*
X163615372Y-69366676D01*
X163600000Y-69289396D01*
X163600000Y-69210604D01*
X163615372Y-69133324D01*
X163645523Y-69060532D01*
X163689303Y-68995011D01*
X163745011Y-68939303D01*
X163810532Y-68895523D01*
X163883324Y-68865372D01*
X163960603Y-68850000D01*
X164039397Y-68850000D01*
X164116676Y-68865372D01*
X164116676Y-68865372D01*
G37*
G36*
X217597195Y-66187522D02*
X217646267Y-66197283D01*
X217784942Y-66254724D01*
X217909750Y-66338118D01*
X218015882Y-66444250D01*
X218015884Y-66444253D01*
X218099276Y-66569058D01*
X218143667Y-66676227D01*
X218156717Y-66707734D01*
X218186000Y-66854948D01*
X218186000Y-67005052D01*
X218156717Y-67152266D01*
X218099276Y-67290942D01*
X218015882Y-67415750D01*
X217909750Y-67521882D01*
X217909747Y-67521884D01*
X217784942Y-67605276D01*
X217646267Y-67662717D01*
X217597195Y-67672478D01*
X217499052Y-67692000D01*
X217348948Y-67692000D01*
X217250805Y-67672478D01*
X217201733Y-67662717D01*
X217063058Y-67605276D01*
X216938253Y-67521884D01*
X216938250Y-67521882D01*
X216832118Y-67415750D01*
X216748724Y-67290942D01*
X216691283Y-67152266D01*
X216662000Y-67005052D01*
X216662000Y-66854948D01*
X216691283Y-66707734D01*
X216704334Y-66676227D01*
X216748724Y-66569058D01*
X216832116Y-66444253D01*
X216832118Y-66444250D01*
X216938250Y-66338118D01*
X217063058Y-66254724D01*
X217201733Y-66197283D01*
X217250805Y-66187522D01*
X217348948Y-66168000D01*
X217499052Y-66168000D01*
X217597195Y-66187522D01*
X217597195Y-66187522D01*
G37*
G36*
X162555522Y-66503039D02*
X162589053Y-66513211D01*
X162619960Y-66529731D01*
X162647043Y-66551957D01*
X162669269Y-66579040D01*
X162685789Y-66609947D01*
X162695961Y-66643478D01*
X162700000Y-66684487D01*
X162700000Y-67463513D01*
X162695961Y-67504522D01*
X162685789Y-67538053D01*
X162669269Y-67568960D01*
X162647043Y-67596043D01*
X162619960Y-67618269D01*
X162589053Y-67634789D01*
X162555522Y-67644961D01*
X162514513Y-67649000D01*
X161485487Y-67649000D01*
X161444478Y-67644961D01*
X161410947Y-67634789D01*
X161380040Y-67618269D01*
X161352957Y-67596043D01*
X161330731Y-67568960D01*
X161314211Y-67538053D01*
X161304039Y-67504522D01*
X161300000Y-67463513D01*
X161300000Y-66684487D01*
X161304039Y-66643478D01*
X161314211Y-66609947D01*
X161330731Y-66579040D01*
X161352957Y-66551957D01*
X161380040Y-66529731D01*
X161410947Y-66513211D01*
X161444478Y-66503039D01*
X161485487Y-66499000D01*
X162514513Y-66499000D01*
X162555522Y-66503039D01*
X162555522Y-66503039D01*
G37*
G36*
X142055522Y-66494039D02*
X142089053Y-66504211D01*
X142119960Y-66520731D01*
X142147043Y-66542957D01*
X142169269Y-66570040D01*
X142185789Y-66600947D01*
X142195961Y-66634478D01*
X142200000Y-66675487D01*
X142200000Y-67454513D01*
X142195961Y-67495522D01*
X142185789Y-67529053D01*
X142169269Y-67559960D01*
X142147043Y-67587043D01*
X142119960Y-67609269D01*
X142089053Y-67625789D01*
X142055522Y-67635961D01*
X142014513Y-67640000D01*
X140985487Y-67640000D01*
X140944478Y-67635961D01*
X140910947Y-67625789D01*
X140880040Y-67609269D01*
X140852957Y-67587043D01*
X140830731Y-67559960D01*
X140814211Y-67529053D01*
X140804039Y-67495522D01*
X140800000Y-67454513D01*
X140800000Y-66675487D01*
X140804039Y-66634478D01*
X140814211Y-66600947D01*
X140830731Y-66570040D01*
X140852957Y-66542957D01*
X140880040Y-66520731D01*
X140910947Y-66504211D01*
X140944478Y-66494039D01*
X140985487Y-66490000D01*
X142014513Y-66490000D01*
X142055522Y-66494039D01*
X142055522Y-66494039D01*
G37*
G36*
X164805522Y-66494039D02*
X164839053Y-66504211D01*
X164869960Y-66520731D01*
X164897043Y-66542957D01*
X164919269Y-66570040D01*
X164935789Y-66600947D01*
X164945961Y-66634478D01*
X164950000Y-66675487D01*
X164950000Y-67454513D01*
X164945961Y-67495522D01*
X164935789Y-67529053D01*
X164919269Y-67559960D01*
X164897043Y-67587043D01*
X164869960Y-67609269D01*
X164839053Y-67625789D01*
X164805522Y-67635961D01*
X164764513Y-67640000D01*
X163735487Y-67640000D01*
X163694478Y-67635961D01*
X163660947Y-67625789D01*
X163630040Y-67609269D01*
X163602957Y-67587043D01*
X163580731Y-67559960D01*
X163564211Y-67529053D01*
X163554039Y-67495522D01*
X163550000Y-67454513D01*
X163550000Y-66675487D01*
X163554039Y-66634478D01*
X163564211Y-66600947D01*
X163580731Y-66570040D01*
X163602957Y-66542957D01*
X163630040Y-66520731D01*
X163660947Y-66504211D01*
X163694478Y-66494039D01*
X163735487Y-66490000D01*
X164764513Y-66490000D01*
X164805522Y-66494039D01*
X164805522Y-66494039D01*
G37*
G36*
X151555522Y-66479039D02*
X151589053Y-66489211D01*
X151619960Y-66505731D01*
X151647043Y-66527957D01*
X151669269Y-66555040D01*
X151685789Y-66585947D01*
X151695961Y-66619478D01*
X151700000Y-66660487D01*
X151700000Y-67439513D01*
X151695961Y-67480522D01*
X151685789Y-67514053D01*
X151669269Y-67544960D01*
X151647043Y-67572043D01*
X151619960Y-67594269D01*
X151589053Y-67610789D01*
X151555522Y-67620961D01*
X151514513Y-67625000D01*
X150485487Y-67625000D01*
X150444478Y-67620961D01*
X150410947Y-67610789D01*
X150380040Y-67594269D01*
X150352957Y-67572043D01*
X150330731Y-67544960D01*
X150314211Y-67514053D01*
X150304039Y-67480522D01*
X150300000Y-67439513D01*
X150300000Y-66660487D01*
X150304039Y-66619478D01*
X150314211Y-66585947D01*
X150330731Y-66555040D01*
X150352957Y-66527957D01*
X150380040Y-66505731D01*
X150410947Y-66489211D01*
X150444478Y-66479039D01*
X150485487Y-66475000D01*
X151514513Y-66475000D01*
X151555522Y-66479039D01*
X151555522Y-66479039D01*
G37*
G36*
X145055522Y-66479039D02*
X145089053Y-66489211D01*
X145119960Y-66505731D01*
X145147043Y-66527957D01*
X145169269Y-66555040D01*
X145185789Y-66585947D01*
X145195961Y-66619478D01*
X145200000Y-66660487D01*
X145200000Y-67439513D01*
X145195961Y-67480522D01*
X145185789Y-67514053D01*
X145169269Y-67544960D01*
X145147043Y-67572043D01*
X145119960Y-67594269D01*
X145089053Y-67610789D01*
X145055522Y-67620961D01*
X145014513Y-67625000D01*
X143985487Y-67625000D01*
X143944478Y-67620961D01*
X143910947Y-67610789D01*
X143880040Y-67594269D01*
X143852957Y-67572043D01*
X143830731Y-67544960D01*
X143814211Y-67514053D01*
X143804039Y-67480522D01*
X143800000Y-67439513D01*
X143800000Y-66660487D01*
X143804039Y-66619478D01*
X143814211Y-66585947D01*
X143830731Y-66555040D01*
X143852957Y-66527957D01*
X143880040Y-66505731D01*
X143910947Y-66489211D01*
X143944478Y-66479039D01*
X143985487Y-66475000D01*
X145014513Y-66475000D01*
X145055522Y-66479039D01*
X145055522Y-66479039D01*
G37*
G36*
X154055522Y-66479039D02*
X154089053Y-66489211D01*
X154119960Y-66505731D01*
X154147043Y-66527957D01*
X154169269Y-66555040D01*
X154185789Y-66585947D01*
X154195961Y-66619478D01*
X154200000Y-66660487D01*
X154200000Y-67439513D01*
X154195961Y-67480522D01*
X154185789Y-67514053D01*
X154169269Y-67544960D01*
X154147043Y-67572043D01*
X154119960Y-67594269D01*
X154089053Y-67610789D01*
X154055522Y-67620961D01*
X154014513Y-67625000D01*
X152985487Y-67625000D01*
X152944478Y-67620961D01*
X152910947Y-67610789D01*
X152880040Y-67594269D01*
X152852957Y-67572043D01*
X152830731Y-67544960D01*
X152814211Y-67514053D01*
X152804039Y-67480522D01*
X152800000Y-67439513D01*
X152800000Y-66660487D01*
X152804039Y-66619478D01*
X152814211Y-66585947D01*
X152830731Y-66555040D01*
X152852957Y-66527957D01*
X152880040Y-66505731D01*
X152910947Y-66489211D01*
X152944478Y-66479039D01*
X152985487Y-66475000D01*
X154014513Y-66475000D01*
X154055522Y-66479039D01*
X154055522Y-66479039D01*
G37*
G36*
X159055522Y-66479039D02*
X159089053Y-66489211D01*
X159119960Y-66505731D01*
X159147043Y-66527957D01*
X159169269Y-66555040D01*
X159185789Y-66585947D01*
X159195961Y-66619478D01*
X159200000Y-66660487D01*
X159200000Y-67439513D01*
X159195961Y-67480522D01*
X159185789Y-67514053D01*
X159169269Y-67544960D01*
X159147043Y-67572043D01*
X159119960Y-67594269D01*
X159089053Y-67610789D01*
X159055522Y-67620961D01*
X159014513Y-67625000D01*
X157985487Y-67625000D01*
X157944478Y-67620961D01*
X157910947Y-67610789D01*
X157880040Y-67594269D01*
X157852957Y-67572043D01*
X157830731Y-67544960D01*
X157814211Y-67514053D01*
X157804039Y-67480522D01*
X157800000Y-67439513D01*
X157800000Y-66660487D01*
X157804039Y-66619478D01*
X157814211Y-66585947D01*
X157830731Y-66555040D01*
X157852957Y-66527957D01*
X157880040Y-66505731D01*
X157910947Y-66489211D01*
X157944478Y-66479039D01*
X157985487Y-66475000D01*
X159014513Y-66475000D01*
X159055522Y-66479039D01*
X159055522Y-66479039D01*
G37*
G36*
X156555522Y-66429039D02*
X156589053Y-66439211D01*
X156619960Y-66455731D01*
X156647043Y-66477957D01*
X156669269Y-66505040D01*
X156685789Y-66535947D01*
X156695961Y-66569478D01*
X156700000Y-66610487D01*
X156700000Y-67389513D01*
X156695961Y-67430522D01*
X156685789Y-67464053D01*
X156669269Y-67494960D01*
X156647043Y-67522043D01*
X156619960Y-67544269D01*
X156589053Y-67560789D01*
X156555522Y-67570961D01*
X156514513Y-67575000D01*
X155485487Y-67575000D01*
X155444478Y-67570961D01*
X155410947Y-67560789D01*
X155380040Y-67544269D01*
X155352957Y-67522043D01*
X155330731Y-67494960D01*
X155314211Y-67464053D01*
X155304039Y-67430522D01*
X155300000Y-67389513D01*
X155300000Y-66610487D01*
X155304039Y-66569478D01*
X155314211Y-66535947D01*
X155330731Y-66505040D01*
X155352957Y-66477957D01*
X155380040Y-66455731D01*
X155410947Y-66439211D01*
X155444478Y-66429039D01*
X155485487Y-66425000D01*
X156514513Y-66425000D01*
X156555522Y-66429039D01*
X156555522Y-66429039D01*
G37*
G36*
X162555522Y-64453039D02*
X162589053Y-64463211D01*
X162619960Y-64479731D01*
X162647043Y-64501957D01*
X162669269Y-64529040D01*
X162685789Y-64559947D01*
X162695961Y-64593478D01*
X162700000Y-64634487D01*
X162700000Y-65413513D01*
X162695961Y-65454522D01*
X162685789Y-65488053D01*
X162669269Y-65518960D01*
X162647043Y-65546043D01*
X162619960Y-65568269D01*
X162589053Y-65584789D01*
X162555522Y-65594961D01*
X162514513Y-65599000D01*
X161485487Y-65599000D01*
X161444478Y-65594961D01*
X161410947Y-65584789D01*
X161380040Y-65568269D01*
X161352957Y-65546043D01*
X161330731Y-65518960D01*
X161314211Y-65488053D01*
X161304039Y-65454522D01*
X161300000Y-65413513D01*
X161300000Y-64634487D01*
X161304039Y-64593478D01*
X161314211Y-64559947D01*
X161330731Y-64529040D01*
X161352957Y-64501957D01*
X161380040Y-64479731D01*
X161410947Y-64463211D01*
X161444478Y-64453039D01*
X161485487Y-64449000D01*
X162514513Y-64449000D01*
X162555522Y-64453039D01*
X162555522Y-64453039D01*
G37*
G36*
X164805522Y-64444039D02*
X164839053Y-64454211D01*
X164869960Y-64470731D01*
X164897043Y-64492957D01*
X164919269Y-64520040D01*
X164935789Y-64550947D01*
X164945961Y-64584478D01*
X164950000Y-64625487D01*
X164950000Y-65404513D01*
X164945961Y-65445522D01*
X164935789Y-65479053D01*
X164919269Y-65509960D01*
X164897043Y-65537043D01*
X164869960Y-65559269D01*
X164839053Y-65575789D01*
X164805522Y-65585961D01*
X164764513Y-65590000D01*
X163735487Y-65590000D01*
X163694478Y-65585961D01*
X163660947Y-65575789D01*
X163630040Y-65559269D01*
X163602957Y-65537043D01*
X163580731Y-65509960D01*
X163564211Y-65479053D01*
X163554039Y-65445522D01*
X163550000Y-65404513D01*
X163550000Y-64625487D01*
X163554039Y-64584478D01*
X163564211Y-64550947D01*
X163580731Y-64520040D01*
X163602957Y-64492957D01*
X163630040Y-64470731D01*
X163660947Y-64454211D01*
X163694478Y-64444039D01*
X163735487Y-64440000D01*
X164764513Y-64440000D01*
X164805522Y-64444039D01*
X164805522Y-64444039D01*
G37*
G36*
X142055522Y-64444039D02*
X142089053Y-64454211D01*
X142119960Y-64470731D01*
X142147043Y-64492957D01*
X142169269Y-64520040D01*
X142185789Y-64550947D01*
X142195961Y-64584478D01*
X142200000Y-64625487D01*
X142200000Y-65404513D01*
X142195961Y-65445522D01*
X142185789Y-65479053D01*
X142169269Y-65509960D01*
X142147043Y-65537043D01*
X142119960Y-65559269D01*
X142089053Y-65575789D01*
X142055522Y-65585961D01*
X142014513Y-65590000D01*
X140985487Y-65590000D01*
X140944478Y-65585961D01*
X140910947Y-65575789D01*
X140880040Y-65559269D01*
X140852957Y-65537043D01*
X140830731Y-65509960D01*
X140814211Y-65479053D01*
X140804039Y-65445522D01*
X140800000Y-65404513D01*
X140800000Y-64625487D01*
X140804039Y-64584478D01*
X140814211Y-64550947D01*
X140830731Y-64520040D01*
X140852957Y-64492957D01*
X140880040Y-64470731D01*
X140910947Y-64454211D01*
X140944478Y-64444039D01*
X140985487Y-64440000D01*
X142014513Y-64440000D01*
X142055522Y-64444039D01*
X142055522Y-64444039D01*
G37*
G36*
X151555522Y-64429039D02*
X151589053Y-64439211D01*
X151619960Y-64455731D01*
X151647043Y-64477957D01*
X151669269Y-64505040D01*
X151685789Y-64535947D01*
X151695961Y-64569478D01*
X151700000Y-64610487D01*
X151700000Y-65389513D01*
X151695961Y-65430522D01*
X151685789Y-65464053D01*
X151669269Y-65494960D01*
X151647043Y-65522043D01*
X151619960Y-65544269D01*
X151589053Y-65560789D01*
X151555522Y-65570961D01*
X151514513Y-65575000D01*
X150485487Y-65575000D01*
X150444478Y-65570961D01*
X150410947Y-65560789D01*
X150380040Y-65544269D01*
X150352957Y-65522043D01*
X150330731Y-65494960D01*
X150314211Y-65464053D01*
X150304039Y-65430522D01*
X150300000Y-65389513D01*
X150300000Y-64610487D01*
X150304039Y-64569478D01*
X150314211Y-64535947D01*
X150330731Y-64505040D01*
X150352957Y-64477957D01*
X150380040Y-64455731D01*
X150410947Y-64439211D01*
X150444478Y-64429039D01*
X150485487Y-64425000D01*
X151514513Y-64425000D01*
X151555522Y-64429039D01*
X151555522Y-64429039D01*
G37*
G36*
X159055522Y-64429039D02*
X159089053Y-64439211D01*
X159119960Y-64455731D01*
X159147043Y-64477957D01*
X159169269Y-64505040D01*
X159185789Y-64535947D01*
X159195961Y-64569478D01*
X159200000Y-64610487D01*
X159200000Y-65389513D01*
X159195961Y-65430522D01*
X159185789Y-65464053D01*
X159169269Y-65494960D01*
X159147043Y-65522043D01*
X159119960Y-65544269D01*
X159089053Y-65560789D01*
X159055522Y-65570961D01*
X159014513Y-65575000D01*
X157985487Y-65575000D01*
X157944478Y-65570961D01*
X157910947Y-65560789D01*
X157880040Y-65544269D01*
X157852957Y-65522043D01*
X157830731Y-65494960D01*
X157814211Y-65464053D01*
X157804039Y-65430522D01*
X157800000Y-65389513D01*
X157800000Y-64610487D01*
X157804039Y-64569478D01*
X157814211Y-64535947D01*
X157830731Y-64505040D01*
X157852957Y-64477957D01*
X157880040Y-64455731D01*
X157910947Y-64439211D01*
X157944478Y-64429039D01*
X157985487Y-64425000D01*
X159014513Y-64425000D01*
X159055522Y-64429039D01*
X159055522Y-64429039D01*
G37*
G36*
X154055522Y-64429039D02*
X154089053Y-64439211D01*
X154119960Y-64455731D01*
X154147043Y-64477957D01*
X154169269Y-64505040D01*
X154185789Y-64535947D01*
X154195961Y-64569478D01*
X154200000Y-64610487D01*
X154200000Y-65389513D01*
X154195961Y-65430522D01*
X154185789Y-65464053D01*
X154169269Y-65494960D01*
X154147043Y-65522043D01*
X154119960Y-65544269D01*
X154089053Y-65560789D01*
X154055522Y-65570961D01*
X154014513Y-65575000D01*
X152985487Y-65575000D01*
X152944478Y-65570961D01*
X152910947Y-65560789D01*
X152880040Y-65544269D01*
X152852957Y-65522043D01*
X152830731Y-65494960D01*
X152814211Y-65464053D01*
X152804039Y-65430522D01*
X152800000Y-65389513D01*
X152800000Y-64610487D01*
X152804039Y-64569478D01*
X152814211Y-64535947D01*
X152830731Y-64505040D01*
X152852957Y-64477957D01*
X152880040Y-64455731D01*
X152910947Y-64439211D01*
X152944478Y-64429039D01*
X152985487Y-64425000D01*
X154014513Y-64425000D01*
X154055522Y-64429039D01*
X154055522Y-64429039D01*
G37*
G36*
X145055522Y-64429039D02*
X145089053Y-64439211D01*
X145119960Y-64455731D01*
X145147043Y-64477957D01*
X145169269Y-64505040D01*
X145185789Y-64535947D01*
X145195961Y-64569478D01*
X145200000Y-64610487D01*
X145200000Y-65389513D01*
X145195961Y-65430522D01*
X145185789Y-65464053D01*
X145169269Y-65494960D01*
X145147043Y-65522043D01*
X145119960Y-65544269D01*
X145089053Y-65560789D01*
X145055522Y-65570961D01*
X145014513Y-65575000D01*
X143985487Y-65575000D01*
X143944478Y-65570961D01*
X143910947Y-65560789D01*
X143880040Y-65544269D01*
X143852957Y-65522043D01*
X143830731Y-65494960D01*
X143814211Y-65464053D01*
X143804039Y-65430522D01*
X143800000Y-65389513D01*
X143800000Y-64610487D01*
X143804039Y-64569478D01*
X143814211Y-64535947D01*
X143830731Y-64505040D01*
X143852957Y-64477957D01*
X143880040Y-64455731D01*
X143910947Y-64439211D01*
X143944478Y-64429039D01*
X143985487Y-64425000D01*
X145014513Y-64425000D01*
X145055522Y-64429039D01*
X145055522Y-64429039D01*
G37*
G36*
X156555522Y-64379039D02*
X156589053Y-64389211D01*
X156619960Y-64405731D01*
X156647043Y-64427957D01*
X156669269Y-64455040D01*
X156685789Y-64485947D01*
X156695961Y-64519478D01*
X156700000Y-64560487D01*
X156700000Y-65339513D01*
X156695961Y-65380522D01*
X156685789Y-65414053D01*
X156669269Y-65444960D01*
X156647043Y-65472043D01*
X156619960Y-65494269D01*
X156589053Y-65510789D01*
X156555522Y-65520961D01*
X156514513Y-65525000D01*
X155485487Y-65525000D01*
X155444478Y-65520961D01*
X155410947Y-65510789D01*
X155380040Y-65494269D01*
X155352957Y-65472043D01*
X155330731Y-65444960D01*
X155314211Y-65414053D01*
X155304039Y-65380522D01*
X155300000Y-65339513D01*
X155300000Y-64560487D01*
X155304039Y-64519478D01*
X155314211Y-64485947D01*
X155330731Y-64455040D01*
X155352957Y-64427957D01*
X155380040Y-64405731D01*
X155410947Y-64389211D01*
X155444478Y-64379039D01*
X155485487Y-64375000D01*
X156514513Y-64375000D01*
X156555522Y-64379039D01*
X156555522Y-64379039D01*
G37*
G36*
X158616676Y-63115372D02*
X158689468Y-63145523D01*
X158754989Y-63189303D01*
X158810697Y-63245011D01*
X158854477Y-63310532D01*
X158884628Y-63383324D01*
X158900000Y-63460604D01*
X158900000Y-63539396D01*
X158884628Y-63616676D01*
X158854477Y-63689468D01*
X158810697Y-63754989D01*
X158754989Y-63810697D01*
X158689468Y-63854477D01*
X158616676Y-63884628D01*
X158539397Y-63900000D01*
X158460603Y-63900000D01*
X158383324Y-63884628D01*
X158310532Y-63854477D01*
X158245011Y-63810697D01*
X158189303Y-63754989D01*
X158145523Y-63689468D01*
X158115372Y-63616676D01*
X158100000Y-63539396D01*
X158100000Y-63460604D01*
X158115372Y-63383324D01*
X158145523Y-63310532D01*
X158189303Y-63245011D01*
X158245011Y-63189303D01*
X158310532Y-63145523D01*
X158383324Y-63115372D01*
X158460603Y-63100000D01*
X158539397Y-63100000D01*
X158616676Y-63115372D01*
X158616676Y-63115372D01*
G37*
G36*
X172512000Y-62550000D02*
X171912000Y-62550000D01*
X171912000Y-61050000D01*
X172512000Y-61050000D01*
X172512000Y-62550000D01*
X172512000Y-62550000D01*
G37*
G36*
X177592000Y-62550000D02*
X176992000Y-62550000D01*
X176992000Y-61050000D01*
X177592000Y-61050000D01*
X177592000Y-62550000D01*
X177592000Y-62550000D01*
G37*
G36*
X176322000Y-62550000D02*
X175722000Y-62550000D01*
X175722000Y-61050000D01*
X176322000Y-61050000D01*
X176322000Y-62550000D01*
X176322000Y-62550000D01*
G37*
G36*
X175052000Y-62550000D02*
X174452000Y-62550000D01*
X174452000Y-61050000D01*
X175052000Y-61050000D01*
X175052000Y-62550000D01*
X175052000Y-62550000D01*
G37*
G36*
X173782000Y-62550000D02*
X173182000Y-62550000D01*
X173182000Y-61050000D01*
X173782000Y-61050000D01*
X173782000Y-62550000D01*
X173782000Y-62550000D01*
G37*
G36*
X171242000Y-62550000D02*
X170642000Y-62550000D01*
X170642000Y-61050000D01*
X171242000Y-61050000D01*
X171242000Y-62550000D01*
X171242000Y-62550000D01*
G37*
G36*
X169972000Y-62550000D02*
X169372000Y-62550000D01*
X169372000Y-61050000D01*
X169972000Y-61050000D01*
X169972000Y-62550000D01*
X169972000Y-62550000D01*
G37*
G36*
X178862000Y-62550000D02*
X178262000Y-62550000D01*
X178262000Y-61050000D01*
X178862000Y-61050000D01*
X178862000Y-62550000D01*
X178862000Y-62550000D01*
G37*
G36*
X186807649Y-60167717D02*
X186846827Y-60171576D01*
X186922227Y-60194448D01*
X186997629Y-60217321D01*
X187136608Y-60291608D01*
X187258422Y-60391578D01*
X187358392Y-60513392D01*
X187432679Y-60652371D01*
X187478424Y-60803174D01*
X187493870Y-60960000D01*
X187478424Y-61116826D01*
X187432679Y-61267629D01*
X187358392Y-61406608D01*
X187258422Y-61528422D01*
X187136608Y-61628392D01*
X186997629Y-61702679D01*
X186922228Y-61725551D01*
X186846827Y-61748424D01*
X186807649Y-61752283D01*
X186729295Y-61760000D01*
X186650705Y-61760000D01*
X186572351Y-61752283D01*
X186533173Y-61748424D01*
X186457772Y-61725551D01*
X186382371Y-61702679D01*
X186243392Y-61628392D01*
X186121578Y-61528422D01*
X186021608Y-61406608D01*
X185947321Y-61267629D01*
X185901576Y-61116826D01*
X185886130Y-60960000D01*
X185901576Y-60803174D01*
X185947321Y-60652371D01*
X186021608Y-60513392D01*
X186121578Y-60391578D01*
X186243392Y-60291608D01*
X186382371Y-60217321D01*
X186457773Y-60194448D01*
X186533173Y-60171576D01*
X186572351Y-60167717D01*
X186650705Y-60160000D01*
X186729295Y-60160000D01*
X186807649Y-60167717D01*
X186807649Y-60167717D01*
G37*
G36*
X184950000Y-61760000D02*
X183350000Y-61760000D01*
X183350000Y-60160000D01*
X184950000Y-60160000D01*
X184950000Y-61760000D01*
X184950000Y-61760000D01*
G37*
G36*
X217287649Y-60167717D02*
X217326827Y-60171576D01*
X217402227Y-60194448D01*
X217477629Y-60217321D01*
X217616608Y-60291608D01*
X217738422Y-60391578D01*
X217838392Y-60513392D01*
X217912679Y-60652371D01*
X217958424Y-60803174D01*
X217973870Y-60960000D01*
X217958424Y-61116826D01*
X217912679Y-61267629D01*
X217838392Y-61406608D01*
X217738422Y-61528422D01*
X217616608Y-61628392D01*
X217477629Y-61702679D01*
X217402228Y-61725551D01*
X217326827Y-61748424D01*
X217287649Y-61752283D01*
X217209295Y-61760000D01*
X217130705Y-61760000D01*
X217052351Y-61752283D01*
X217013173Y-61748424D01*
X216937772Y-61725551D01*
X216862371Y-61702679D01*
X216723392Y-61628392D01*
X216601578Y-61528422D01*
X216501608Y-61406608D01*
X216427321Y-61267629D01*
X216381576Y-61116826D01*
X216366130Y-60960000D01*
X216381576Y-60803174D01*
X216427321Y-60652371D01*
X216501608Y-60513392D01*
X216601578Y-60391578D01*
X216723392Y-60291608D01*
X216862371Y-60217321D01*
X216937773Y-60194448D01*
X217013173Y-60171576D01*
X217052351Y-60167717D01*
X217130705Y-60160000D01*
X217209295Y-60160000D01*
X217287649Y-60167717D01*
X217287649Y-60167717D01*
G37*
G36*
X214747649Y-60167717D02*
X214786827Y-60171576D01*
X214862227Y-60194448D01*
X214937629Y-60217321D01*
X215076608Y-60291608D01*
X215198422Y-60391578D01*
X215298392Y-60513392D01*
X215372679Y-60652371D01*
X215418424Y-60803174D01*
X215433870Y-60960000D01*
X215418424Y-61116826D01*
X215372679Y-61267629D01*
X215298392Y-61406608D01*
X215198422Y-61528422D01*
X215076608Y-61628392D01*
X214937629Y-61702679D01*
X214862228Y-61725551D01*
X214786827Y-61748424D01*
X214747649Y-61752283D01*
X214669295Y-61760000D01*
X214590705Y-61760000D01*
X214512351Y-61752283D01*
X214473173Y-61748424D01*
X214397772Y-61725551D01*
X214322371Y-61702679D01*
X214183392Y-61628392D01*
X214061578Y-61528422D01*
X213961608Y-61406608D01*
X213887321Y-61267629D01*
X213841576Y-61116826D01*
X213826130Y-60960000D01*
X213841576Y-60803174D01*
X213887321Y-60652371D01*
X213961608Y-60513392D01*
X214061578Y-60391578D01*
X214183392Y-60291608D01*
X214322371Y-60217321D01*
X214397773Y-60194448D01*
X214473173Y-60171576D01*
X214512351Y-60167717D01*
X214590705Y-60160000D01*
X214669295Y-60160000D01*
X214747649Y-60167717D01*
X214747649Y-60167717D01*
G37*
G36*
X189347649Y-60167717D02*
X189386827Y-60171576D01*
X189462227Y-60194448D01*
X189537629Y-60217321D01*
X189676608Y-60291608D01*
X189798422Y-60391578D01*
X189898392Y-60513392D01*
X189972679Y-60652371D01*
X190018424Y-60803174D01*
X190033870Y-60960000D01*
X190018424Y-61116826D01*
X189972679Y-61267629D01*
X189898392Y-61406608D01*
X189798422Y-61528422D01*
X189676608Y-61628392D01*
X189537629Y-61702679D01*
X189462228Y-61725551D01*
X189386827Y-61748424D01*
X189347649Y-61752283D01*
X189269295Y-61760000D01*
X189190705Y-61760000D01*
X189112351Y-61752283D01*
X189073173Y-61748424D01*
X188997772Y-61725551D01*
X188922371Y-61702679D01*
X188783392Y-61628392D01*
X188661578Y-61528422D01*
X188561608Y-61406608D01*
X188487321Y-61267629D01*
X188441576Y-61116826D01*
X188426130Y-60960000D01*
X188441576Y-60803174D01*
X188487321Y-60652371D01*
X188561608Y-60513392D01*
X188661578Y-60391578D01*
X188783392Y-60291608D01*
X188922371Y-60217321D01*
X188997773Y-60194448D01*
X189073173Y-60171576D01*
X189112351Y-60167717D01*
X189190705Y-60160000D01*
X189269295Y-60160000D01*
X189347649Y-60167717D01*
X189347649Y-60167717D01*
G37*
G36*
X209667649Y-60167717D02*
X209706827Y-60171576D01*
X209782227Y-60194448D01*
X209857629Y-60217321D01*
X209996608Y-60291608D01*
X210118422Y-60391578D01*
X210218392Y-60513392D01*
X210292679Y-60652371D01*
X210338424Y-60803174D01*
X210353870Y-60960000D01*
X210338424Y-61116826D01*
X210292679Y-61267629D01*
X210218392Y-61406608D01*
X210118422Y-61528422D01*
X209996608Y-61628392D01*
X209857629Y-61702679D01*
X209782228Y-61725551D01*
X209706827Y-61748424D01*
X209667649Y-61752283D01*
X209589295Y-61760000D01*
X209510705Y-61760000D01*
X209432351Y-61752283D01*
X209393173Y-61748424D01*
X209317772Y-61725551D01*
X209242371Y-61702679D01*
X209103392Y-61628392D01*
X208981578Y-61528422D01*
X208881608Y-61406608D01*
X208807321Y-61267629D01*
X208761576Y-61116826D01*
X208746130Y-60960000D01*
X208761576Y-60803174D01*
X208807321Y-60652371D01*
X208881608Y-60513392D01*
X208981578Y-60391578D01*
X209103392Y-60291608D01*
X209242371Y-60217321D01*
X209317773Y-60194448D01*
X209393173Y-60171576D01*
X209432351Y-60167717D01*
X209510705Y-60160000D01*
X209589295Y-60160000D01*
X209667649Y-60167717D01*
X209667649Y-60167717D01*
G37*
G36*
X204587649Y-60167717D02*
X204626827Y-60171576D01*
X204702227Y-60194448D01*
X204777629Y-60217321D01*
X204916608Y-60291608D01*
X205038422Y-60391578D01*
X205138392Y-60513392D01*
X205212679Y-60652371D01*
X205258424Y-60803174D01*
X205273870Y-60960000D01*
X205258424Y-61116826D01*
X205212679Y-61267629D01*
X205138392Y-61406608D01*
X205038422Y-61528422D01*
X204916608Y-61628392D01*
X204777629Y-61702679D01*
X204702228Y-61725551D01*
X204626827Y-61748424D01*
X204587649Y-61752283D01*
X204509295Y-61760000D01*
X204430705Y-61760000D01*
X204352351Y-61752283D01*
X204313173Y-61748424D01*
X204237772Y-61725551D01*
X204162371Y-61702679D01*
X204023392Y-61628392D01*
X203901578Y-61528422D01*
X203801608Y-61406608D01*
X203727321Y-61267629D01*
X203681576Y-61116826D01*
X203666130Y-60960000D01*
X203681576Y-60803174D01*
X203727321Y-60652371D01*
X203801608Y-60513392D01*
X203901578Y-60391578D01*
X204023392Y-60291608D01*
X204162371Y-60217321D01*
X204237773Y-60194448D01*
X204313173Y-60171576D01*
X204352351Y-60167717D01*
X204430705Y-60160000D01*
X204509295Y-60160000D01*
X204587649Y-60167717D01*
X204587649Y-60167717D01*
G37*
G36*
X202047649Y-60167717D02*
X202086827Y-60171576D01*
X202162227Y-60194448D01*
X202237629Y-60217321D01*
X202376608Y-60291608D01*
X202498422Y-60391578D01*
X202598392Y-60513392D01*
X202672679Y-60652371D01*
X202718424Y-60803174D01*
X202733870Y-60960000D01*
X202718424Y-61116826D01*
X202672679Y-61267629D01*
X202598392Y-61406608D01*
X202498422Y-61528422D01*
X202376608Y-61628392D01*
X202237629Y-61702679D01*
X202162228Y-61725551D01*
X202086827Y-61748424D01*
X202047649Y-61752283D01*
X201969295Y-61760000D01*
X201890705Y-61760000D01*
X201812351Y-61752283D01*
X201773173Y-61748424D01*
X201697772Y-61725551D01*
X201622371Y-61702679D01*
X201483392Y-61628392D01*
X201361578Y-61528422D01*
X201261608Y-61406608D01*
X201187321Y-61267629D01*
X201141576Y-61116826D01*
X201126130Y-60960000D01*
X201141576Y-60803174D01*
X201187321Y-60652371D01*
X201261608Y-60513392D01*
X201361578Y-60391578D01*
X201483392Y-60291608D01*
X201622371Y-60217321D01*
X201697773Y-60194448D01*
X201773173Y-60171576D01*
X201812351Y-60167717D01*
X201890705Y-60160000D01*
X201969295Y-60160000D01*
X202047649Y-60167717D01*
X202047649Y-60167717D01*
G37*
G36*
X199507649Y-60167717D02*
X199546827Y-60171576D01*
X199622227Y-60194448D01*
X199697629Y-60217321D01*
X199836608Y-60291608D01*
X199958422Y-60391578D01*
X200058392Y-60513392D01*
X200132679Y-60652371D01*
X200178424Y-60803174D01*
X200193870Y-60960000D01*
X200178424Y-61116826D01*
X200132679Y-61267629D01*
X200058392Y-61406608D01*
X199958422Y-61528422D01*
X199836608Y-61628392D01*
X199697629Y-61702679D01*
X199622228Y-61725551D01*
X199546827Y-61748424D01*
X199507649Y-61752283D01*
X199429295Y-61760000D01*
X199350705Y-61760000D01*
X199272351Y-61752283D01*
X199233173Y-61748424D01*
X199157772Y-61725551D01*
X199082371Y-61702679D01*
X198943392Y-61628392D01*
X198821578Y-61528422D01*
X198721608Y-61406608D01*
X198647321Y-61267629D01*
X198601576Y-61116826D01*
X198586130Y-60960000D01*
X198601576Y-60803174D01*
X198647321Y-60652371D01*
X198721608Y-60513392D01*
X198821578Y-60391578D01*
X198943392Y-60291608D01*
X199082371Y-60217321D01*
X199157773Y-60194448D01*
X199233173Y-60171576D01*
X199272351Y-60167717D01*
X199350705Y-60160000D01*
X199429295Y-60160000D01*
X199507649Y-60167717D01*
X199507649Y-60167717D01*
G37*
G36*
X196967649Y-60167717D02*
X197006827Y-60171576D01*
X197082227Y-60194448D01*
X197157629Y-60217321D01*
X197296608Y-60291608D01*
X197418422Y-60391578D01*
X197518392Y-60513392D01*
X197592679Y-60652371D01*
X197638424Y-60803174D01*
X197653870Y-60960000D01*
X197638424Y-61116826D01*
X197592679Y-61267629D01*
X197518392Y-61406608D01*
X197418422Y-61528422D01*
X197296608Y-61628392D01*
X197157629Y-61702679D01*
X197082228Y-61725551D01*
X197006827Y-61748424D01*
X196967649Y-61752283D01*
X196889295Y-61760000D01*
X196810705Y-61760000D01*
X196732351Y-61752283D01*
X196693173Y-61748424D01*
X196617772Y-61725551D01*
X196542371Y-61702679D01*
X196403392Y-61628392D01*
X196281578Y-61528422D01*
X196181608Y-61406608D01*
X196107321Y-61267629D01*
X196061576Y-61116826D01*
X196046130Y-60960000D01*
X196061576Y-60803174D01*
X196107321Y-60652371D01*
X196181608Y-60513392D01*
X196281578Y-60391578D01*
X196403392Y-60291608D01*
X196542371Y-60217321D01*
X196617773Y-60194448D01*
X196693173Y-60171576D01*
X196732351Y-60167717D01*
X196810705Y-60160000D01*
X196889295Y-60160000D01*
X196967649Y-60167717D01*
X196967649Y-60167717D01*
G37*
G36*
X194427649Y-60167717D02*
X194466827Y-60171576D01*
X194542227Y-60194448D01*
X194617629Y-60217321D01*
X194756608Y-60291608D01*
X194878422Y-60391578D01*
X194978392Y-60513392D01*
X195052679Y-60652371D01*
X195098424Y-60803174D01*
X195113870Y-60960000D01*
X195098424Y-61116826D01*
X195052679Y-61267629D01*
X194978392Y-61406608D01*
X194878422Y-61528422D01*
X194756608Y-61628392D01*
X194617629Y-61702679D01*
X194542228Y-61725551D01*
X194466827Y-61748424D01*
X194427649Y-61752283D01*
X194349295Y-61760000D01*
X194270705Y-61760000D01*
X194192351Y-61752283D01*
X194153173Y-61748424D01*
X194077772Y-61725551D01*
X194002371Y-61702679D01*
X193863392Y-61628392D01*
X193741578Y-61528422D01*
X193641608Y-61406608D01*
X193567321Y-61267629D01*
X193521576Y-61116826D01*
X193506130Y-60960000D01*
X193521576Y-60803174D01*
X193567321Y-60652371D01*
X193641608Y-60513392D01*
X193741578Y-60391578D01*
X193863392Y-60291608D01*
X194002371Y-60217321D01*
X194077773Y-60194448D01*
X194153173Y-60171576D01*
X194192351Y-60167717D01*
X194270705Y-60160000D01*
X194349295Y-60160000D01*
X194427649Y-60167717D01*
X194427649Y-60167717D01*
G37*
G36*
X191887649Y-60167717D02*
X191926827Y-60171576D01*
X192002227Y-60194448D01*
X192077629Y-60217321D01*
X192216608Y-60291608D01*
X192338422Y-60391578D01*
X192438392Y-60513392D01*
X192512679Y-60652371D01*
X192558424Y-60803174D01*
X192573870Y-60960000D01*
X192558424Y-61116826D01*
X192512679Y-61267629D01*
X192438392Y-61406608D01*
X192338422Y-61528422D01*
X192216608Y-61628392D01*
X192077629Y-61702679D01*
X192002228Y-61725551D01*
X191926827Y-61748424D01*
X191887649Y-61752283D01*
X191809295Y-61760000D01*
X191730705Y-61760000D01*
X191652351Y-61752283D01*
X191613173Y-61748424D01*
X191537772Y-61725551D01*
X191462371Y-61702679D01*
X191323392Y-61628392D01*
X191201578Y-61528422D01*
X191101608Y-61406608D01*
X191027321Y-61267629D01*
X190981576Y-61116826D01*
X190966130Y-60960000D01*
X190981576Y-60803174D01*
X191027321Y-60652371D01*
X191101608Y-60513392D01*
X191201578Y-60391578D01*
X191323392Y-60291608D01*
X191462371Y-60217321D01*
X191537773Y-60194448D01*
X191613173Y-60171576D01*
X191652351Y-60167717D01*
X191730705Y-60160000D01*
X191809295Y-60160000D01*
X191887649Y-60167717D01*
X191887649Y-60167717D01*
G37*
G36*
X212207649Y-60167717D02*
X212246827Y-60171576D01*
X212322227Y-60194448D01*
X212397629Y-60217321D01*
X212536608Y-60291608D01*
X212658422Y-60391578D01*
X212758392Y-60513392D01*
X212832679Y-60652371D01*
X212878424Y-60803174D01*
X212893870Y-60960000D01*
X212878424Y-61116826D01*
X212832679Y-61267629D01*
X212758392Y-61406608D01*
X212658422Y-61528422D01*
X212536608Y-61628392D01*
X212397629Y-61702679D01*
X212322228Y-61725551D01*
X212246827Y-61748424D01*
X212207649Y-61752283D01*
X212129295Y-61760000D01*
X212050705Y-61760000D01*
X211972351Y-61752283D01*
X211933173Y-61748424D01*
X211857772Y-61725551D01*
X211782371Y-61702679D01*
X211643392Y-61628392D01*
X211521578Y-61528422D01*
X211421608Y-61406608D01*
X211347321Y-61267629D01*
X211301576Y-61116826D01*
X211286130Y-60960000D01*
X211301576Y-60803174D01*
X211347321Y-60652371D01*
X211421608Y-60513392D01*
X211521578Y-60391578D01*
X211643392Y-60291608D01*
X211782371Y-60217321D01*
X211857773Y-60194448D01*
X211933173Y-60171576D01*
X211972351Y-60167717D01*
X212050705Y-60160000D01*
X212129295Y-60160000D01*
X212207649Y-60167717D01*
X212207649Y-60167717D01*
G37*
G36*
X207127649Y-60167717D02*
X207166827Y-60171576D01*
X207242227Y-60194448D01*
X207317629Y-60217321D01*
X207456608Y-60291608D01*
X207578422Y-60391578D01*
X207678392Y-60513392D01*
X207752679Y-60652371D01*
X207798424Y-60803174D01*
X207813870Y-60960000D01*
X207798424Y-61116826D01*
X207752679Y-61267629D01*
X207678392Y-61406608D01*
X207578422Y-61528422D01*
X207456608Y-61628392D01*
X207317629Y-61702679D01*
X207242228Y-61725551D01*
X207166827Y-61748424D01*
X207127649Y-61752283D01*
X207049295Y-61760000D01*
X206970705Y-61760000D01*
X206892351Y-61752283D01*
X206853173Y-61748424D01*
X206777772Y-61725551D01*
X206702371Y-61702679D01*
X206563392Y-61628392D01*
X206441578Y-61528422D01*
X206341608Y-61406608D01*
X206267321Y-61267629D01*
X206221576Y-61116826D01*
X206206130Y-60960000D01*
X206221576Y-60803174D01*
X206267321Y-60652371D01*
X206341608Y-60513392D01*
X206441578Y-60391578D01*
X206563392Y-60291608D01*
X206702371Y-60217321D01*
X206777773Y-60194448D01*
X206853173Y-60171576D01*
X206892351Y-60167717D01*
X206970705Y-60160000D01*
X207049295Y-60160000D01*
X207127649Y-60167717D01*
X207127649Y-60167717D01*
G37*
G36*
X166616676Y-58865372D02*
X166689468Y-58895523D01*
X166754989Y-58939303D01*
X166810697Y-58995011D01*
X166854477Y-59060532D01*
X166884628Y-59133324D01*
X166900000Y-59210604D01*
X166900000Y-59289396D01*
X166884628Y-59366676D01*
X166854477Y-59439468D01*
X166810697Y-59504989D01*
X166754989Y-59560697D01*
X166689468Y-59604477D01*
X166616676Y-59634628D01*
X166539397Y-59650000D01*
X166460603Y-59650000D01*
X166383324Y-59634628D01*
X166310532Y-59604477D01*
X166245011Y-59560697D01*
X166189303Y-59504989D01*
X166145523Y-59439468D01*
X166115372Y-59366676D01*
X166100000Y-59289396D01*
X166100000Y-59210604D01*
X166115372Y-59133324D01*
X166145523Y-59060532D01*
X166189303Y-58995011D01*
X166245011Y-58939303D01*
X166310532Y-58895523D01*
X166383324Y-58865372D01*
X166460603Y-58850000D01*
X166539397Y-58850000D01*
X166616676Y-58865372D01*
X166616676Y-58865372D01*
G37*
G36*
X197116676Y-57615372D02*
X197189468Y-57645523D01*
X197254989Y-57689303D01*
X197310697Y-57745011D01*
X197310699Y-57745014D01*
X197310700Y-57745015D01*
X197317364Y-57754989D01*
X197354477Y-57810532D01*
X197384628Y-57883324D01*
X197400000Y-57960604D01*
X197400000Y-58039396D01*
X197384628Y-58116676D01*
X197354477Y-58189468D01*
X197310697Y-58254989D01*
X197254989Y-58310697D01*
X197189468Y-58354477D01*
X197116676Y-58384628D01*
X197039397Y-58400000D01*
X196960603Y-58400000D01*
X196883324Y-58384628D01*
X196810532Y-58354477D01*
X196745011Y-58310697D01*
X196689303Y-58254989D01*
X196645523Y-58189468D01*
X196615372Y-58116676D01*
X196600000Y-58039396D01*
X196600000Y-57960604D01*
X196615372Y-57883324D01*
X196645523Y-57810532D01*
X196682636Y-57754989D01*
X196689300Y-57745015D01*
X196689301Y-57745014D01*
X196689303Y-57745011D01*
X196745011Y-57689303D01*
X196810532Y-57645523D01*
X196883324Y-57615372D01*
X196960603Y-57600000D01*
X197039397Y-57600000D01*
X197116676Y-57615372D01*
X197116676Y-57615372D01*
G37*
G36*
X207116676Y-57615372D02*
X207189468Y-57645523D01*
X207254989Y-57689303D01*
X207310697Y-57745011D01*
X207310699Y-57745014D01*
X207310700Y-57745015D01*
X207317364Y-57754989D01*
X207354477Y-57810532D01*
X207384628Y-57883324D01*
X207400000Y-57960604D01*
X207400000Y-58039396D01*
X207384628Y-58116676D01*
X207354477Y-58189468D01*
X207310697Y-58254989D01*
X207254989Y-58310697D01*
X207189468Y-58354477D01*
X207116676Y-58384628D01*
X207039397Y-58400000D01*
X206960603Y-58400000D01*
X206883324Y-58384628D01*
X206810532Y-58354477D01*
X206745011Y-58310697D01*
X206689303Y-58254989D01*
X206645523Y-58189468D01*
X206615372Y-58116676D01*
X206600000Y-58039396D01*
X206600000Y-57960604D01*
X206615372Y-57883324D01*
X206645523Y-57810532D01*
X206682636Y-57754989D01*
X206689300Y-57745015D01*
X206689301Y-57745014D01*
X206689303Y-57745011D01*
X206745011Y-57689303D01*
X206810532Y-57645523D01*
X206883324Y-57615372D01*
X206960603Y-57600000D01*
X207039397Y-57600000D01*
X207116676Y-57615372D01*
X207116676Y-57615372D01*
G37*
G36*
X155866676Y-57115372D02*
X155939468Y-57145523D01*
X156004989Y-57189303D01*
X156060697Y-57245011D01*
X156104477Y-57310532D01*
X156134628Y-57383324D01*
X156150000Y-57460604D01*
X156150000Y-57539396D01*
X156134628Y-57616676D01*
X156104477Y-57689468D01*
X156104475Y-57689471D01*
X156067362Y-57745015D01*
X156060697Y-57754989D01*
X156004989Y-57810697D01*
X155939468Y-57854477D01*
X155869824Y-57883324D01*
X155866676Y-57884628D01*
X155789397Y-57900000D01*
X155710603Y-57900000D01*
X155633324Y-57884628D01*
X155630176Y-57883324D01*
X155560532Y-57854477D01*
X155495011Y-57810697D01*
X155439303Y-57754989D01*
X155432639Y-57745015D01*
X155395525Y-57689471D01*
X155395523Y-57689468D01*
X155365372Y-57616676D01*
X155350000Y-57539396D01*
X155350000Y-57460604D01*
X155365372Y-57383324D01*
X155395523Y-57310532D01*
X155439303Y-57245011D01*
X155495011Y-57189303D01*
X155560532Y-57145523D01*
X155633324Y-57115372D01*
X155710603Y-57100000D01*
X155789397Y-57100000D01*
X155866676Y-57115372D01*
X155866676Y-57115372D01*
G37*
G36*
X154616676Y-56115372D02*
X154689468Y-56145523D01*
X154754989Y-56189303D01*
X154810697Y-56245011D01*
X154854477Y-56310532D01*
X154884628Y-56383324D01*
X154900000Y-56460604D01*
X154900000Y-56539396D01*
X154884628Y-56616676D01*
X154854477Y-56689468D01*
X154810697Y-56754989D01*
X154754989Y-56810697D01*
X154689468Y-56854477D01*
X154616676Y-56884628D01*
X154539397Y-56900000D01*
X154460603Y-56900000D01*
X154383324Y-56884628D01*
X154310532Y-56854477D01*
X154245011Y-56810697D01*
X154189303Y-56754989D01*
X154145523Y-56689468D01*
X154115372Y-56616676D01*
X154100000Y-56539396D01*
X154100000Y-56460604D01*
X154115372Y-56383324D01*
X154145523Y-56310532D01*
X154189303Y-56245011D01*
X154245011Y-56189303D01*
X154310532Y-56145523D01*
X154383324Y-56115372D01*
X154460603Y-56100000D01*
X154539397Y-56100000D01*
X154616676Y-56115372D01*
X154616676Y-56115372D01*
G37*
G36*
X194426676Y-56115372D02*
X194499468Y-56145523D01*
X194564989Y-56189303D01*
X194620697Y-56245011D01*
X194664477Y-56310532D01*
X194694628Y-56383324D01*
X194710000Y-56460604D01*
X194710000Y-56539396D01*
X194694628Y-56616676D01*
X194664477Y-56689468D01*
X194620697Y-56754989D01*
X194564989Y-56810697D01*
X194499468Y-56854477D01*
X194426676Y-56884628D01*
X194349397Y-56900000D01*
X194270603Y-56900000D01*
X194193324Y-56884628D01*
X194120532Y-56854477D01*
X194055011Y-56810697D01*
X193999303Y-56754989D01*
X193955523Y-56689468D01*
X193925372Y-56616676D01*
X193910000Y-56539396D01*
X193910000Y-56460604D01*
X193925372Y-56383324D01*
X193955523Y-56310532D01*
X193999303Y-56245011D01*
X194055011Y-56189303D01*
X194120532Y-56145523D01*
X194193324Y-56115372D01*
X194270603Y-56100000D01*
X194349397Y-56100000D01*
X194426676Y-56115372D01*
X194426676Y-56115372D01*
G37*
G36*
X153616676Y-54865372D02*
X153689468Y-54895523D01*
X153689471Y-54895525D01*
X153722316Y-54917471D01*
X153754989Y-54939303D01*
X153810697Y-54995011D01*
X153854477Y-55060532D01*
X153884628Y-55133324D01*
X153900000Y-55210604D01*
X153900000Y-55289396D01*
X153884628Y-55366676D01*
X153854477Y-55439468D01*
X153810697Y-55504989D01*
X153754989Y-55560697D01*
X153689468Y-55604477D01*
X153616676Y-55634628D01*
X153539397Y-55650000D01*
X153460603Y-55650000D01*
X153383324Y-55634628D01*
X153310532Y-55604477D01*
X153245011Y-55560697D01*
X153189303Y-55504989D01*
X153145523Y-55439468D01*
X153115372Y-55366676D01*
X153100000Y-55289396D01*
X153100000Y-55210604D01*
X153115372Y-55133324D01*
X153145523Y-55060532D01*
X153189303Y-54995011D01*
X153245011Y-54939303D01*
X153277685Y-54917471D01*
X153310529Y-54895525D01*
X153310532Y-54895523D01*
X153383324Y-54865372D01*
X153460603Y-54850000D01*
X153539397Y-54850000D01*
X153616676Y-54865372D01*
X153616676Y-54865372D01*
G37*
G36*
X176138676Y-54343372D02*
X176211468Y-54373523D01*
X176276989Y-54417303D01*
X176332697Y-54473011D01*
X176376477Y-54538532D01*
X176406628Y-54611324D01*
X176422000Y-54688604D01*
X176422000Y-54767396D01*
X176406628Y-54844676D01*
X176376477Y-54917468D01*
X176332697Y-54982989D01*
X176276989Y-55038697D01*
X176276986Y-55038699D01*
X176276985Y-55038700D01*
X176244311Y-55060532D01*
X176211468Y-55082477D01*
X176138676Y-55112628D01*
X176061397Y-55128000D01*
X175982603Y-55128000D01*
X175905324Y-55112628D01*
X175832532Y-55082477D01*
X175799689Y-55060532D01*
X175767015Y-55038700D01*
X175767014Y-55038699D01*
X175767011Y-55038697D01*
X175711303Y-54982989D01*
X175667523Y-54917468D01*
X175637372Y-54844676D01*
X175622000Y-54767396D01*
X175622000Y-54688604D01*
X175637372Y-54611324D01*
X175667523Y-54538532D01*
X175711303Y-54473011D01*
X175767011Y-54417303D01*
X175832532Y-54373523D01*
X175905324Y-54343372D01*
X175982603Y-54328000D01*
X176061397Y-54328000D01*
X176138676Y-54343372D01*
X176138676Y-54343372D01*
G37*
G36*
X207127649Y-52547717D02*
X207166827Y-52551576D01*
X207242228Y-52574449D01*
X207317629Y-52597321D01*
X207456608Y-52671608D01*
X207578422Y-52771578D01*
X207678392Y-52893392D01*
X207752679Y-53032371D01*
X207798424Y-53183174D01*
X207813870Y-53340000D01*
X207798424Y-53496826D01*
X207752679Y-53647629D01*
X207678392Y-53786608D01*
X207578422Y-53908422D01*
X207456608Y-54008392D01*
X207317629Y-54082679D01*
X207242227Y-54105552D01*
X207166827Y-54128424D01*
X207127649Y-54132283D01*
X207049295Y-54140000D01*
X206970705Y-54140000D01*
X206892351Y-54132283D01*
X206853173Y-54128424D01*
X206777772Y-54105551D01*
X206702371Y-54082679D01*
X206563392Y-54008392D01*
X206441578Y-53908422D01*
X206341608Y-53786608D01*
X206267321Y-53647629D01*
X206221576Y-53496826D01*
X206206130Y-53340000D01*
X206221576Y-53183174D01*
X206267321Y-53032371D01*
X206341608Y-52893392D01*
X206441578Y-52771578D01*
X206563392Y-52671608D01*
X206702371Y-52597321D01*
X206777772Y-52574449D01*
X206853173Y-52551576D01*
X206892351Y-52547717D01*
X206970705Y-52540000D01*
X207049295Y-52540000D01*
X207127649Y-52547717D01*
X207127649Y-52547717D01*
G37*
G36*
X196967649Y-52547717D02*
X197006827Y-52551576D01*
X197082228Y-52574449D01*
X197157629Y-52597321D01*
X197296608Y-52671608D01*
X197418422Y-52771578D01*
X197518392Y-52893392D01*
X197592679Y-53032371D01*
X197638424Y-53183174D01*
X197653870Y-53340000D01*
X197638424Y-53496826D01*
X197592679Y-53647629D01*
X197518392Y-53786608D01*
X197418422Y-53908422D01*
X197296608Y-54008392D01*
X197157629Y-54082679D01*
X197082227Y-54105552D01*
X197006827Y-54128424D01*
X196967649Y-54132283D01*
X196889295Y-54140000D01*
X196810705Y-54140000D01*
X196732351Y-54132283D01*
X196693173Y-54128424D01*
X196617772Y-54105551D01*
X196542371Y-54082679D01*
X196403392Y-54008392D01*
X196281578Y-53908422D01*
X196181608Y-53786608D01*
X196107321Y-53647629D01*
X196061576Y-53496826D01*
X196046130Y-53340000D01*
X196061576Y-53183174D01*
X196107321Y-53032371D01*
X196181608Y-52893392D01*
X196281578Y-52771578D01*
X196403392Y-52671608D01*
X196542371Y-52597321D01*
X196617772Y-52574449D01*
X196693173Y-52551576D01*
X196732351Y-52547717D01*
X196810705Y-52540000D01*
X196889295Y-52540000D01*
X196967649Y-52547717D01*
X196967649Y-52547717D01*
G37*
G36*
X186807649Y-52547717D02*
X186846827Y-52551576D01*
X186922228Y-52574449D01*
X186997629Y-52597321D01*
X187136608Y-52671608D01*
X187258422Y-52771578D01*
X187358392Y-52893392D01*
X187432679Y-53032371D01*
X187478424Y-53183174D01*
X187493870Y-53340000D01*
X187478424Y-53496826D01*
X187432679Y-53647629D01*
X187358392Y-53786608D01*
X187258422Y-53908422D01*
X187136608Y-54008392D01*
X186997629Y-54082679D01*
X186922227Y-54105552D01*
X186846827Y-54128424D01*
X186807649Y-54132283D01*
X186729295Y-54140000D01*
X186650705Y-54140000D01*
X186572351Y-54132283D01*
X186533173Y-54128424D01*
X186457772Y-54105551D01*
X186382371Y-54082679D01*
X186243392Y-54008392D01*
X186121578Y-53908422D01*
X186021608Y-53786608D01*
X185947321Y-53647629D01*
X185901576Y-53496826D01*
X185886130Y-53340000D01*
X185901576Y-53183174D01*
X185947321Y-53032371D01*
X186021608Y-52893392D01*
X186121578Y-52771578D01*
X186243392Y-52671608D01*
X186382371Y-52597321D01*
X186457772Y-52574449D01*
X186533173Y-52551576D01*
X186572351Y-52547717D01*
X186650705Y-52540000D01*
X186729295Y-52540000D01*
X186807649Y-52547717D01*
X186807649Y-52547717D01*
G37*
G36*
X189347649Y-52547717D02*
X189386827Y-52551576D01*
X189462228Y-52574449D01*
X189537629Y-52597321D01*
X189676608Y-52671608D01*
X189798422Y-52771578D01*
X189898392Y-52893392D01*
X189972679Y-53032371D01*
X190018424Y-53183174D01*
X190033870Y-53340000D01*
X190018424Y-53496826D01*
X189972679Y-53647629D01*
X189898392Y-53786608D01*
X189798422Y-53908422D01*
X189676608Y-54008392D01*
X189537629Y-54082679D01*
X189462227Y-54105552D01*
X189386827Y-54128424D01*
X189347649Y-54132283D01*
X189269295Y-54140000D01*
X189190705Y-54140000D01*
X189112351Y-54132283D01*
X189073173Y-54128424D01*
X188997772Y-54105551D01*
X188922371Y-54082679D01*
X188783392Y-54008392D01*
X188661578Y-53908422D01*
X188561608Y-53786608D01*
X188487321Y-53647629D01*
X188441576Y-53496826D01*
X188426130Y-53340000D01*
X188441576Y-53183174D01*
X188487321Y-53032371D01*
X188561608Y-52893392D01*
X188661578Y-52771578D01*
X188783392Y-52671608D01*
X188922371Y-52597321D01*
X188997772Y-52574449D01*
X189073173Y-52551576D01*
X189112351Y-52547717D01*
X189190705Y-52540000D01*
X189269295Y-52540000D01*
X189347649Y-52547717D01*
X189347649Y-52547717D01*
G37*
G36*
X191887649Y-52547717D02*
X191926827Y-52551576D01*
X192002228Y-52574449D01*
X192077629Y-52597321D01*
X192216608Y-52671608D01*
X192338422Y-52771578D01*
X192438392Y-52893392D01*
X192512679Y-53032371D01*
X192558424Y-53183174D01*
X192573870Y-53340000D01*
X192558424Y-53496826D01*
X192512679Y-53647629D01*
X192438392Y-53786608D01*
X192338422Y-53908422D01*
X192216608Y-54008392D01*
X192077629Y-54082679D01*
X192002227Y-54105552D01*
X191926827Y-54128424D01*
X191887649Y-54132283D01*
X191809295Y-54140000D01*
X191730705Y-54140000D01*
X191652351Y-54132283D01*
X191613173Y-54128424D01*
X191537772Y-54105551D01*
X191462371Y-54082679D01*
X191323392Y-54008392D01*
X191201578Y-53908422D01*
X191101608Y-53786608D01*
X191027321Y-53647629D01*
X190981576Y-53496826D01*
X190966130Y-53340000D01*
X190981576Y-53183174D01*
X191027321Y-53032371D01*
X191101608Y-52893392D01*
X191201578Y-52771578D01*
X191323392Y-52671608D01*
X191462371Y-52597321D01*
X191537772Y-52574449D01*
X191613173Y-52551576D01*
X191652351Y-52547717D01*
X191730705Y-52540000D01*
X191809295Y-52540000D01*
X191887649Y-52547717D01*
X191887649Y-52547717D01*
G37*
G36*
X194427649Y-52547717D02*
X194466827Y-52551576D01*
X194542228Y-52574449D01*
X194617629Y-52597321D01*
X194756608Y-52671608D01*
X194878422Y-52771578D01*
X194978392Y-52893392D01*
X195052679Y-53032371D01*
X195098424Y-53183174D01*
X195113870Y-53340000D01*
X195098424Y-53496826D01*
X195052679Y-53647629D01*
X194978392Y-53786608D01*
X194878422Y-53908422D01*
X194756608Y-54008392D01*
X194617629Y-54082679D01*
X194542227Y-54105552D01*
X194466827Y-54128424D01*
X194427649Y-54132283D01*
X194349295Y-54140000D01*
X194270705Y-54140000D01*
X194192351Y-54132283D01*
X194153173Y-54128424D01*
X194077772Y-54105551D01*
X194002371Y-54082679D01*
X193863392Y-54008392D01*
X193741578Y-53908422D01*
X193641608Y-53786608D01*
X193567321Y-53647629D01*
X193521576Y-53496826D01*
X193506130Y-53340000D01*
X193521576Y-53183174D01*
X193567321Y-53032371D01*
X193641608Y-52893392D01*
X193741578Y-52771578D01*
X193863392Y-52671608D01*
X194002371Y-52597321D01*
X194077772Y-52574449D01*
X194153173Y-52551576D01*
X194192351Y-52547717D01*
X194270705Y-52540000D01*
X194349295Y-52540000D01*
X194427649Y-52547717D01*
X194427649Y-52547717D01*
G37*
G36*
X199507649Y-52547717D02*
X199546827Y-52551576D01*
X199622228Y-52574449D01*
X199697629Y-52597321D01*
X199836608Y-52671608D01*
X199958422Y-52771578D01*
X200058392Y-52893392D01*
X200132679Y-53032371D01*
X200178424Y-53183174D01*
X200193870Y-53340000D01*
X200178424Y-53496826D01*
X200132679Y-53647629D01*
X200058392Y-53786608D01*
X199958422Y-53908422D01*
X199836608Y-54008392D01*
X199697629Y-54082679D01*
X199622227Y-54105552D01*
X199546827Y-54128424D01*
X199507649Y-54132283D01*
X199429295Y-54140000D01*
X199350705Y-54140000D01*
X199272351Y-54132283D01*
X199233173Y-54128424D01*
X199157772Y-54105551D01*
X199082371Y-54082679D01*
X198943392Y-54008392D01*
X198821578Y-53908422D01*
X198721608Y-53786608D01*
X198647321Y-53647629D01*
X198601576Y-53496826D01*
X198586130Y-53340000D01*
X198601576Y-53183174D01*
X198647321Y-53032371D01*
X198721608Y-52893392D01*
X198821578Y-52771578D01*
X198943392Y-52671608D01*
X199082371Y-52597321D01*
X199157772Y-52574449D01*
X199233173Y-52551576D01*
X199272351Y-52547717D01*
X199350705Y-52540000D01*
X199429295Y-52540000D01*
X199507649Y-52547717D01*
X199507649Y-52547717D01*
G37*
G36*
X204587649Y-52547717D02*
X204626827Y-52551576D01*
X204702228Y-52574449D01*
X204777629Y-52597321D01*
X204916608Y-52671608D01*
X205038422Y-52771578D01*
X205138392Y-52893392D01*
X205212679Y-53032371D01*
X205258424Y-53183174D01*
X205273870Y-53340000D01*
X205258424Y-53496826D01*
X205212679Y-53647629D01*
X205138392Y-53786608D01*
X205038422Y-53908422D01*
X204916608Y-54008392D01*
X204777629Y-54082679D01*
X204702227Y-54105552D01*
X204626827Y-54128424D01*
X204587649Y-54132283D01*
X204509295Y-54140000D01*
X204430705Y-54140000D01*
X204352351Y-54132283D01*
X204313173Y-54128424D01*
X204237772Y-54105551D01*
X204162371Y-54082679D01*
X204023392Y-54008392D01*
X203901578Y-53908422D01*
X203801608Y-53786608D01*
X203727321Y-53647629D01*
X203681576Y-53496826D01*
X203666130Y-53340000D01*
X203681576Y-53183174D01*
X203727321Y-53032371D01*
X203801608Y-52893392D01*
X203901578Y-52771578D01*
X204023392Y-52671608D01*
X204162371Y-52597321D01*
X204237772Y-52574449D01*
X204313173Y-52551576D01*
X204352351Y-52547717D01*
X204430705Y-52540000D01*
X204509295Y-52540000D01*
X204587649Y-52547717D01*
X204587649Y-52547717D01*
G37*
G36*
X202047649Y-52547717D02*
X202086827Y-52551576D01*
X202162228Y-52574449D01*
X202237629Y-52597321D01*
X202376608Y-52671608D01*
X202498422Y-52771578D01*
X202598392Y-52893392D01*
X202672679Y-53032371D01*
X202718424Y-53183174D01*
X202733870Y-53340000D01*
X202718424Y-53496826D01*
X202672679Y-53647629D01*
X202598392Y-53786608D01*
X202498422Y-53908422D01*
X202376608Y-54008392D01*
X202237629Y-54082679D01*
X202162227Y-54105552D01*
X202086827Y-54128424D01*
X202047649Y-54132283D01*
X201969295Y-54140000D01*
X201890705Y-54140000D01*
X201812351Y-54132283D01*
X201773173Y-54128424D01*
X201697772Y-54105551D01*
X201622371Y-54082679D01*
X201483392Y-54008392D01*
X201361578Y-53908422D01*
X201261608Y-53786608D01*
X201187321Y-53647629D01*
X201141576Y-53496826D01*
X201126130Y-53340000D01*
X201141576Y-53183174D01*
X201187321Y-53032371D01*
X201261608Y-52893392D01*
X201361578Y-52771578D01*
X201483392Y-52671608D01*
X201622371Y-52597321D01*
X201697772Y-52574449D01*
X201773173Y-52551576D01*
X201812351Y-52547717D01*
X201890705Y-52540000D01*
X201969295Y-52540000D01*
X202047649Y-52547717D01*
X202047649Y-52547717D01*
G37*
G36*
X209667649Y-52547717D02*
X209706827Y-52551576D01*
X209782228Y-52574449D01*
X209857629Y-52597321D01*
X209996608Y-52671608D01*
X210118422Y-52771578D01*
X210218392Y-52893392D01*
X210292679Y-53032371D01*
X210338424Y-53183174D01*
X210353870Y-53340000D01*
X210338424Y-53496826D01*
X210292679Y-53647629D01*
X210218392Y-53786608D01*
X210118422Y-53908422D01*
X209996608Y-54008392D01*
X209857629Y-54082679D01*
X209782227Y-54105552D01*
X209706827Y-54128424D01*
X209667649Y-54132283D01*
X209589295Y-54140000D01*
X209510705Y-54140000D01*
X209432351Y-54132283D01*
X209393173Y-54128424D01*
X209317772Y-54105551D01*
X209242371Y-54082679D01*
X209103392Y-54008392D01*
X208981578Y-53908422D01*
X208881608Y-53786608D01*
X208807321Y-53647629D01*
X208761576Y-53496826D01*
X208746130Y-53340000D01*
X208761576Y-53183174D01*
X208807321Y-53032371D01*
X208881608Y-52893392D01*
X208981578Y-52771578D01*
X209103392Y-52671608D01*
X209242371Y-52597321D01*
X209317772Y-52574449D01*
X209393173Y-52551576D01*
X209432351Y-52547717D01*
X209510705Y-52540000D01*
X209589295Y-52540000D01*
X209667649Y-52547717D01*
X209667649Y-52547717D01*
G37*
G36*
X212207649Y-52547717D02*
X212246827Y-52551576D01*
X212322228Y-52574449D01*
X212397629Y-52597321D01*
X212536608Y-52671608D01*
X212658422Y-52771578D01*
X212758392Y-52893392D01*
X212832679Y-53032371D01*
X212878424Y-53183174D01*
X212893870Y-53340000D01*
X212878424Y-53496826D01*
X212832679Y-53647629D01*
X212758392Y-53786608D01*
X212658422Y-53908422D01*
X212536608Y-54008392D01*
X212397629Y-54082679D01*
X212322227Y-54105552D01*
X212246827Y-54128424D01*
X212207649Y-54132283D01*
X212129295Y-54140000D01*
X212050705Y-54140000D01*
X211972351Y-54132283D01*
X211933173Y-54128424D01*
X211857772Y-54105551D01*
X211782371Y-54082679D01*
X211643392Y-54008392D01*
X211521578Y-53908422D01*
X211421608Y-53786608D01*
X211347321Y-53647629D01*
X211301576Y-53496826D01*
X211286130Y-53340000D01*
X211301576Y-53183174D01*
X211347321Y-53032371D01*
X211421608Y-52893392D01*
X211521578Y-52771578D01*
X211643392Y-52671608D01*
X211782371Y-52597321D01*
X211857772Y-52574449D01*
X211933173Y-52551576D01*
X211972351Y-52547717D01*
X212050705Y-52540000D01*
X212129295Y-52540000D01*
X212207649Y-52547717D01*
X212207649Y-52547717D01*
G37*
G36*
X214747649Y-52547717D02*
X214786827Y-52551576D01*
X214862228Y-52574449D01*
X214937629Y-52597321D01*
X215076608Y-52671608D01*
X215198422Y-52771578D01*
X215298392Y-52893392D01*
X215372679Y-53032371D01*
X215418424Y-53183174D01*
X215433870Y-53340000D01*
X215418424Y-53496826D01*
X215372679Y-53647629D01*
X215298392Y-53786608D01*
X215198422Y-53908422D01*
X215076608Y-54008392D01*
X214937629Y-54082679D01*
X214862227Y-54105552D01*
X214786827Y-54128424D01*
X214747649Y-54132283D01*
X214669295Y-54140000D01*
X214590705Y-54140000D01*
X214512351Y-54132283D01*
X214473173Y-54128424D01*
X214397772Y-54105551D01*
X214322371Y-54082679D01*
X214183392Y-54008392D01*
X214061578Y-53908422D01*
X213961608Y-53786608D01*
X213887321Y-53647629D01*
X213841576Y-53496826D01*
X213826130Y-53340000D01*
X213841576Y-53183174D01*
X213887321Y-53032371D01*
X213961608Y-52893392D01*
X214061578Y-52771578D01*
X214183392Y-52671608D01*
X214322371Y-52597321D01*
X214397772Y-52574449D01*
X214473173Y-52551576D01*
X214512351Y-52547717D01*
X214590705Y-52540000D01*
X214669295Y-52540000D01*
X214747649Y-52547717D01*
X214747649Y-52547717D01*
G37*
G36*
X184267649Y-52547717D02*
X184306827Y-52551576D01*
X184382228Y-52574449D01*
X184457629Y-52597321D01*
X184596608Y-52671608D01*
X184718422Y-52771578D01*
X184818392Y-52893392D01*
X184892679Y-53032371D01*
X184938424Y-53183174D01*
X184953870Y-53340000D01*
X184938424Y-53496826D01*
X184892679Y-53647629D01*
X184818392Y-53786608D01*
X184718422Y-53908422D01*
X184596608Y-54008392D01*
X184457629Y-54082679D01*
X184382227Y-54105552D01*
X184306827Y-54128424D01*
X184267649Y-54132283D01*
X184189295Y-54140000D01*
X184110705Y-54140000D01*
X184032351Y-54132283D01*
X183993173Y-54128424D01*
X183917772Y-54105551D01*
X183842371Y-54082679D01*
X183703392Y-54008392D01*
X183581578Y-53908422D01*
X183481608Y-53786608D01*
X183407321Y-53647629D01*
X183361576Y-53496826D01*
X183346130Y-53340000D01*
X183361576Y-53183174D01*
X183407321Y-53032371D01*
X183481608Y-52893392D01*
X183581578Y-52771578D01*
X183703392Y-52671608D01*
X183842371Y-52597321D01*
X183917772Y-52574449D01*
X183993173Y-52551576D01*
X184032351Y-52547717D01*
X184110705Y-52540000D01*
X184189295Y-52540000D01*
X184267649Y-52547717D01*
X184267649Y-52547717D01*
G37*
G36*
X217287649Y-52547717D02*
X217326827Y-52551576D01*
X217402228Y-52574449D01*
X217477629Y-52597321D01*
X217616608Y-52671608D01*
X217738422Y-52771578D01*
X217838392Y-52893392D01*
X217912679Y-53032371D01*
X217958424Y-53183174D01*
X217973870Y-53340000D01*
X217958424Y-53496826D01*
X217912679Y-53647629D01*
X217838392Y-53786608D01*
X217738422Y-53908422D01*
X217616608Y-54008392D01*
X217477629Y-54082679D01*
X217402227Y-54105552D01*
X217326827Y-54128424D01*
X217287649Y-54132283D01*
X217209295Y-54140000D01*
X217130705Y-54140000D01*
X217052351Y-54132283D01*
X217013173Y-54128424D01*
X216937772Y-54105551D01*
X216862371Y-54082679D01*
X216723392Y-54008392D01*
X216601578Y-53908422D01*
X216501608Y-53786608D01*
X216427321Y-53647629D01*
X216381576Y-53496826D01*
X216366130Y-53340000D01*
X216381576Y-53183174D01*
X216427321Y-53032371D01*
X216501608Y-52893392D01*
X216601578Y-52771578D01*
X216723392Y-52671608D01*
X216862371Y-52597321D01*
X216937772Y-52574449D01*
X217013173Y-52551576D01*
X217052351Y-52547717D01*
X217130705Y-52540000D01*
X217209295Y-52540000D01*
X217287649Y-52547717D01*
X217287649Y-52547717D01*
G37*
G36*
X150100000Y-53740000D02*
X149900000Y-53740000D01*
X149900000Y-52940000D01*
X150100000Y-52940000D01*
X150100000Y-53740000D01*
X150100000Y-53740000D01*
G37*
G36*
X150600000Y-53740000D02*
X150400000Y-53740000D01*
X150400000Y-52940000D01*
X150600000Y-52940000D01*
X150600000Y-53740000D01*
X150600000Y-53740000D01*
G37*
G36*
X151100000Y-53740000D02*
X150900000Y-53740000D01*
X150900000Y-52940000D01*
X151100000Y-52940000D01*
X151100000Y-53740000D01*
X151100000Y-53740000D01*
G37*
G36*
X156600000Y-53740000D02*
X156400000Y-53740000D01*
X156400000Y-52940000D01*
X156600000Y-52940000D01*
X156600000Y-53740000D01*
X156600000Y-53740000D01*
G37*
G36*
X152100000Y-53740000D02*
X151900000Y-53740000D01*
X151900000Y-52940000D01*
X152100000Y-52940000D01*
X152100000Y-53740000D01*
X152100000Y-53740000D01*
G37*
G36*
X152600000Y-53740000D02*
X152400000Y-53740000D01*
X152400000Y-52940000D01*
X152600000Y-52940000D01*
X152600000Y-53740000D01*
X152600000Y-53740000D01*
G37*
G36*
X153100000Y-53740000D02*
X152900000Y-53740000D01*
X152900000Y-52940000D01*
X153100000Y-52940000D01*
X153100000Y-53740000D01*
X153100000Y-53740000D01*
G37*
G36*
X153600000Y-53740000D02*
X153400000Y-53740000D01*
X153400000Y-52940000D01*
X153600000Y-52940000D01*
X153600000Y-53740000D01*
X153600000Y-53740000D01*
G37*
G36*
X154100000Y-53740000D02*
X153900000Y-53740000D01*
X153900000Y-52940000D01*
X154100000Y-52940000D01*
X154100000Y-53740000D01*
X154100000Y-53740000D01*
G37*
G36*
X154600000Y-53740000D02*
X154400000Y-53740000D01*
X154400000Y-52940000D01*
X154600000Y-52940000D01*
X154600000Y-53740000D01*
X154600000Y-53740000D01*
G37*
G36*
X155100000Y-53740000D02*
X154900000Y-53740000D01*
X154900000Y-52940000D01*
X155100000Y-52940000D01*
X155100000Y-53740000D01*
X155100000Y-53740000D01*
G37*
G36*
X156100000Y-53740000D02*
X155900000Y-53740000D01*
X155900000Y-52940000D01*
X156100000Y-52940000D01*
X156100000Y-53740000D01*
X156100000Y-53740000D01*
G37*
G36*
X149100000Y-53740000D02*
X148900000Y-53740000D01*
X148900000Y-52940000D01*
X149100000Y-52940000D01*
X149100000Y-53740000D01*
X149100000Y-53740000D01*
G37*
G36*
X159100000Y-53740000D02*
X158900000Y-53740000D01*
X158900000Y-52940000D01*
X159100000Y-52940000D01*
X159100000Y-53740000D01*
X159100000Y-53740000D01*
G37*
G36*
X158600000Y-53740000D02*
X158400000Y-53740000D01*
X158400000Y-52940000D01*
X158600000Y-52940000D01*
X158600000Y-53740000D01*
X158600000Y-53740000D01*
G37*
G36*
X158100000Y-53740000D02*
X157900000Y-53740000D01*
X157900000Y-52940000D01*
X158100000Y-52940000D01*
X158100000Y-53740000D01*
X158100000Y-53740000D01*
G37*
G36*
X157600000Y-53740000D02*
X157400000Y-53740000D01*
X157400000Y-52940000D01*
X157600000Y-52940000D01*
X157600000Y-53740000D01*
X157600000Y-53740000D01*
G37*
G36*
X157100000Y-53740000D02*
X156900000Y-53740000D01*
X156900000Y-52940000D01*
X157100000Y-52940000D01*
X157100000Y-53740000D01*
X157100000Y-53740000D01*
G37*
G36*
X148600000Y-53740000D02*
X148400000Y-53740000D01*
X148400000Y-52940000D01*
X148600000Y-52940000D01*
X148600000Y-53740000D01*
X148600000Y-53740000D01*
G37*
G36*
X148100000Y-53740000D02*
X147900000Y-53740000D01*
X147900000Y-52940000D01*
X148100000Y-52940000D01*
X148100000Y-53740000D01*
X148100000Y-53740000D01*
G37*
G36*
X155600000Y-53740000D02*
X155400000Y-53740000D01*
X155400000Y-52940000D01*
X155600000Y-52940000D01*
X155600000Y-53740000D01*
X155600000Y-53740000D01*
G37*
G36*
X147600000Y-53740000D02*
X147400000Y-53740000D01*
X147400000Y-52940000D01*
X147600000Y-52940000D01*
X147600000Y-53740000D01*
X147600000Y-53740000D01*
G37*
G36*
X151600000Y-53740000D02*
X151400000Y-53740000D01*
X151400000Y-52940000D01*
X151600000Y-52940000D01*
X151600000Y-53740000D01*
X151600000Y-53740000D01*
G37*
G36*
X149600000Y-53740000D02*
X149400000Y-53740000D01*
X149400000Y-52940000D01*
X149600000Y-52940000D01*
X149600000Y-53740000D01*
X149600000Y-53740000D01*
G37*
G36*
X177592000Y-53250000D02*
X176992000Y-53250000D01*
X176992000Y-51750000D01*
X177592000Y-51750000D01*
X177592000Y-53250000D01*
X177592000Y-53250000D01*
G37*
G36*
X173782000Y-53250000D02*
X173182000Y-53250000D01*
X173182000Y-51750000D01*
X173782000Y-51750000D01*
X173782000Y-53250000D01*
X173782000Y-53250000D01*
G37*
G36*
X175052000Y-53250000D02*
X174452000Y-53250000D01*
X174452000Y-51750000D01*
X175052000Y-51750000D01*
X175052000Y-53250000D01*
X175052000Y-53250000D01*
G37*
G36*
X169972000Y-53250000D02*
X169372000Y-53250000D01*
X169372000Y-51750000D01*
X169972000Y-51750000D01*
X169972000Y-53250000D01*
X169972000Y-53250000D01*
G37*
G36*
X176322000Y-53250000D02*
X175722000Y-53250000D01*
X175722000Y-51750000D01*
X176322000Y-51750000D01*
X176322000Y-53250000D01*
X176322000Y-53250000D01*
G37*
G36*
X171242000Y-53250000D02*
X170642000Y-53250000D01*
X170642000Y-51750000D01*
X171242000Y-51750000D01*
X171242000Y-53250000D01*
X171242000Y-53250000D01*
G37*
G36*
X172512000Y-53250000D02*
X171912000Y-53250000D01*
X171912000Y-51750000D01*
X172512000Y-51750000D01*
X172512000Y-53250000D01*
X172512000Y-53250000D01*
G37*
G36*
X178862000Y-53250000D02*
X178262000Y-53250000D01*
X178262000Y-51750000D01*
X178862000Y-51750000D01*
X178862000Y-53250000D01*
X178862000Y-53250000D01*
G37*
G36*
X144555522Y-50479039D02*
X144589053Y-50489211D01*
X144619960Y-50505731D01*
X144647043Y-50527957D01*
X144669269Y-50555040D01*
X144685789Y-50585947D01*
X144695961Y-50619478D01*
X144700000Y-50660487D01*
X144700000Y-51439513D01*
X144695961Y-51480522D01*
X144685789Y-51514053D01*
X144669269Y-51544960D01*
X144647043Y-51572043D01*
X144619960Y-51594269D01*
X144589053Y-51610789D01*
X144555522Y-51620961D01*
X144514513Y-51625000D01*
X143485487Y-51625000D01*
X143444478Y-51620961D01*
X143410947Y-51610789D01*
X143380040Y-51594269D01*
X143352957Y-51572043D01*
X143330731Y-51544960D01*
X143314211Y-51514053D01*
X143304039Y-51480522D01*
X143300000Y-51439513D01*
X143300000Y-50660487D01*
X143304039Y-50619478D01*
X143314211Y-50585947D01*
X143330731Y-50555040D01*
X143352957Y-50527957D01*
X143380040Y-50505731D01*
X143410947Y-50489211D01*
X143444478Y-50479039D01*
X143485487Y-50475000D01*
X144514513Y-50475000D01*
X144555522Y-50479039D01*
X144555522Y-50479039D01*
G37*
G36*
X150616676Y-50115372D02*
X150689468Y-50145523D01*
X150754989Y-50189303D01*
X150810697Y-50245011D01*
X150810699Y-50245014D01*
X150810700Y-50245015D01*
X150817364Y-50254989D01*
X150854477Y-50310532D01*
X150884628Y-50383324D01*
X150900000Y-50460604D01*
X150900000Y-50539396D01*
X150884628Y-50616676D01*
X150854477Y-50689468D01*
X150810697Y-50754989D01*
X150754989Y-50810697D01*
X150689468Y-50854477D01*
X150616676Y-50884628D01*
X150539397Y-50900000D01*
X150460603Y-50900000D01*
X150383324Y-50884628D01*
X150310532Y-50854477D01*
X150245011Y-50810697D01*
X150189303Y-50754989D01*
X150145523Y-50689468D01*
X150115372Y-50616676D01*
X150100000Y-50539396D01*
X150100000Y-50460604D01*
X150115372Y-50383324D01*
X150145523Y-50310532D01*
X150182636Y-50254989D01*
X150189300Y-50245015D01*
X150189301Y-50245014D01*
X150189303Y-50245011D01*
X150245011Y-50189303D01*
X150310532Y-50145523D01*
X150383324Y-50115372D01*
X150460603Y-50100000D01*
X150539397Y-50100000D01*
X150616676Y-50115372D01*
X150616676Y-50115372D01*
G37*
G36*
X156116676Y-50115372D02*
X156189468Y-50145523D01*
X156254989Y-50189303D01*
X156310697Y-50245011D01*
X156310699Y-50245014D01*
X156310700Y-50245015D01*
X156317364Y-50254989D01*
X156354477Y-50310532D01*
X156384628Y-50383324D01*
X156400000Y-50460604D01*
X156400000Y-50539396D01*
X156384628Y-50616676D01*
X156354477Y-50689468D01*
X156310697Y-50754989D01*
X156254989Y-50810697D01*
X156189468Y-50854477D01*
X156116676Y-50884628D01*
X156039397Y-50900000D01*
X155960603Y-50900000D01*
X155883324Y-50884628D01*
X155810532Y-50854477D01*
X155745011Y-50810697D01*
X155689303Y-50754989D01*
X155645523Y-50689468D01*
X155615372Y-50616676D01*
X155600000Y-50539396D01*
X155600000Y-50460604D01*
X155615372Y-50383324D01*
X155645523Y-50310532D01*
X155682636Y-50254989D01*
X155689300Y-50245015D01*
X155689301Y-50245014D01*
X155689303Y-50245011D01*
X155745011Y-50189303D01*
X155810532Y-50145523D01*
X155883324Y-50115372D01*
X155960603Y-50100000D01*
X156039397Y-50100000D01*
X156116676Y-50115372D01*
X156116676Y-50115372D01*
G37*
G36*
X214746676Y-49615372D02*
X214819468Y-49645523D01*
X214884989Y-49689303D01*
X214940697Y-49745011D01*
X214984477Y-49810532D01*
X215014628Y-49883324D01*
X215030000Y-49960604D01*
X215030000Y-50039396D01*
X215014628Y-50116676D01*
X214984477Y-50189468D01*
X214984475Y-50189471D01*
X214947362Y-50245015D01*
X214940697Y-50254989D01*
X214884989Y-50310697D01*
X214819468Y-50354477D01*
X214749824Y-50383324D01*
X214746676Y-50384628D01*
X214669397Y-50400000D01*
X214590603Y-50400000D01*
X214513324Y-50384628D01*
X214510176Y-50383324D01*
X214440532Y-50354477D01*
X214375011Y-50310697D01*
X214319303Y-50254989D01*
X214312639Y-50245015D01*
X214275525Y-50189471D01*
X214275523Y-50189468D01*
X214245372Y-50116676D01*
X214230000Y-50039396D01*
X214230000Y-49960604D01*
X214245372Y-49883324D01*
X214275523Y-49810532D01*
X214319303Y-49745011D01*
X214375011Y-49689303D01*
X214440532Y-49645523D01*
X214513324Y-49615372D01*
X214590603Y-49600000D01*
X214669397Y-49600000D01*
X214746676Y-49615372D01*
X214746676Y-49615372D01*
G37*
G36*
X144555522Y-48429039D02*
X144589053Y-48439211D01*
X144619960Y-48455731D01*
X144647043Y-48477957D01*
X144669269Y-48505040D01*
X144685789Y-48535947D01*
X144695961Y-48569478D01*
X144700000Y-48610487D01*
X144700000Y-49389513D01*
X144695961Y-49430522D01*
X144685789Y-49464053D01*
X144669269Y-49494960D01*
X144647043Y-49522043D01*
X144619960Y-49544269D01*
X144589053Y-49560789D01*
X144555522Y-49570961D01*
X144514513Y-49575000D01*
X143485487Y-49575000D01*
X143444478Y-49570961D01*
X143410947Y-49560789D01*
X143380040Y-49544269D01*
X143352957Y-49522043D01*
X143330731Y-49494960D01*
X143314211Y-49464053D01*
X143304039Y-49430522D01*
X143300000Y-49389513D01*
X143300000Y-48610487D01*
X143304039Y-48569478D01*
X143314211Y-48535947D01*
X143330731Y-48505040D01*
X143352957Y-48477957D01*
X143380040Y-48455731D01*
X143410947Y-48439211D01*
X143444478Y-48429039D01*
X143485487Y-48425000D01*
X144514513Y-48425000D01*
X144555522Y-48429039D01*
X144555522Y-48429039D01*
G37*
M02*
